0, 0, Header, 1, 2, 480
1, 0, Start_track
1, 0, Title_t, "Piano"
1, 0, Time_signature, 3, 3, 24, 8
1, 0, Key_signature, -2, "major"
1, 0, Tempo, 416667
1, 0, Control_c, 0, 121, 0
1, 0, Control_c, 0, 100, 0
1, 0, Control_c, 0, 101, 0
1, 0, Control_c, 0, 6, 12
1, 0, Control_c, 0, 100, 127
1, 0, Control_c, 0, 101, 127
1, 0, Program_c, 0, 0
1, 0, Control_c, 0, 7, 100
1, 0, Control_c, 0, 10, 64
1, 0, Control_c, 0, 91, 0
1, 0, Control_c, 0, 93, 0
1, 0, MIDI_port, 0
1, 0, Note_on_c, 0, 82, 49
1, 0, Note_on_c, 0, 86, 49
1, 119, Note_on_c, 0, 82, 0
1, 119, Note_on_c, 0, 86, 0
1, 240, Note_on_c, 0, 81, 49
1, 240, Note_on_c, 0, 84, 49
1, 359, Note_on_c, 0, 81, 0
1, 359, Note_on_c, 0, 84, 0
1, 360, Note_on_c, 0, 82, 49
1, 479, Note_on_c, 0, 82, 0
1, 480, Note_on_c, 0, 81, 49
1, 480, Note_on_c, 0, 84, 49
1, 599, Note_on_c, 0, 81, 0
1, 599, Note_on_c, 0, 84, 0
1, 600, Note_on_c, 0, 81, 49
1, 719, Note_on_c, 0, 81, 0
1, 720, Note_on_c, 0, 79, 49
1, 720, Note_on_c, 0, 82, 49
1, 839, Note_on_c, 0, 79, 0
1, 839, Note_on_c, 0, 82, 0
1, 960, Note_on_c, 0, 79, 49
1, 1079, Note_on_c, 0, 79, 0
1, 1200, Note_on_c, 0, 74, 49
1, 1319, Note_on_c, 0, 74, 0
1, 1440, Note_on_c, 0, 74, 49
1, 1440, Note_on_c, 0, 79, 49
1, 1440, Note_on_c, 0, 82, 49
1, 1559, Note_on_c, 0, 74, 0
1, 1559, Note_on_c, 0, 79, 0
1, 1559, Note_on_c, 0, 82, 0
1, 1680, Note_on_c, 0, 72, 49
1, 1680, Note_on_c, 0, 81, 49
1, 1799, Note_on_c, 0, 72, 0
1, 1799, Note_on_c, 0, 81, 0
1, 1800, Note_on_c, 0, 79, 49
1, 1919, Note_on_c, 0, 79, 0
1, 1920, Note_on_c, 0, 72, 49
1, 1920, Note_on_c, 0, 81, 49
1, 2039, Note_on_c, 0, 72, 0
1, 2039, Note_on_c, 0, 81, 0
1, 2040, Note_on_c, 0, 78, 49
1, 2159, Note_on_c, 0, 78, 0
1, 2160, Note_on_c, 0, 79, 49
1, 2279, Note_on_c, 0, 79, 0
1, 2400, Note_on_c, 0, 70, 49
1, 2400, Note_on_c, 0, 74, 49
1, 2519, Note_on_c, 0, 70, 0
1, 2519, Note_on_c, 0, 74, 0
1, 2640, Note_on_c, 0, 67, 49
1, 2640, Note_on_c, 0, 70, 49
1, 2759, Note_on_c, 0, 67, 0
1, 2759, Note_on_c, 0, 70, 0
1, 2880, Note_on_c, 0, 74, 49
1, 2880, Note_on_c, 0, 70, 49
1, 2999, Note_on_c, 0, 70, 0
1, 3120, Note_on_c, 0, 69, 49
1, 3239, Note_on_c, 0, 69, 0
1, 3240, Note_on_c, 0, 67, 49
1, 3359, Note_on_c, 0, 67, 0
1, 3360, Note_on_c, 0, 69, 49
1, 3479, Note_on_c, 0, 69, 0
1, 3480, Note_on_c, 0, 66, 49
1, 3599, Note_on_c, 0, 66, 0
1, 3600, Note_on_c, 0, 67, 49
1, 3719, Note_on_c, 0, 67, 0
1, 3839, Note_on_c, 0, 74, 0
1, 3840, Note_on_c, 0, 74, 49
1, 3840, Note_on_c, 0, 69, 49
1, 3959, Note_on_c, 0, 69, 0
1, 3960, Note_on_c, 0, 67, 49
1, 4079, Note_on_c, 0, 67, 0
1, 4080, Note_on_c, 0, 69, 49
1, 4199, Note_on_c, 0, 69, 0
1, 4200, Note_on_c, 0, 66, 49
1, 4319, Note_on_c, 0, 66, 0
1, 4320, Note_on_c, 0, 67, 49
1, 4439, Note_on_c, 0, 67, 0
1, 4559, Note_on_c, 0, 74, 0
1, 4560, Note_on_c, 0, 74, 49
1, 4560, Note_on_c, 0, 69, 49
1, 4679, Note_on_c, 0, 69, 0
1, 4680, Note_on_c, 0, 67, 49
1, 4799, Note_on_c, 0, 67, 0
1, 4800, Note_on_c, 0, 69, 49
1, 4919, Note_on_c, 0, 69, 0
1, 4920, Note_on_c, 0, 66, 49
1, 5039, Note_on_c, 0, 66, 0
1, 5040, Note_on_c, 0, 67, 49
1, 5159, Note_on_c, 0, 67, 0
1, 5160, Note_on_c, 0, 69, 49
1, 5279, Note_on_c, 0, 74, 0
1, 5279, Note_on_c, 0, 69, 0
1, 5280, Note_on_c, 0, 70, 49
1, 5399, Note_on_c, 0, 70, 0
1, 5400, Note_on_c, 0, 73, 49
1, 5519, Note_on_c, 0, 73, 0
1, 5520, Note_on_c, 0, 74, 49
1, 5639, Note_on_c, 0, 74, 0
1, 5640, Note_on_c, 0, 73, 49
1, 5640, Note_on_c, 0, 76, 49
1, 5759, Note_on_c, 0, 73, 0
1, 5759, Note_on_c, 0, 76, 0
1, 5760, Note_on_c, 0, 74, 49
1, 5760, Note_on_c, 0, 77, 49
1, 5760, Note_on_c, 0, 81, 49
1, 5879, Note_on_c, 0, 74, 0
1, 5879, Note_on_c, 0, 77, 0
1, 5879, Note_on_c, 0, 81, 0
1, 6000, Note_on_c, 0, 76, 49
1, 6000, Note_on_c, 0, 79, 49
1, 6119, Note_on_c, 0, 76, 0
1, 6119, Note_on_c, 0, 79, 0
1, 6120, Note_on_c, 0, 77, 49
1, 6239, Note_on_c, 0, 77, 0
1, 6240, Note_on_c, 0, 76, 49
1, 6240, Note_on_c, 0, 79, 49
1, 6359, Note_on_c, 0, 76, 0
1, 6359, Note_on_c, 0, 79, 0
1, 6360, Note_on_c, 0, 76, 49
1, 6479, Note_on_c, 0, 76, 0
1, 6480, Note_on_c, 0, 74, 49
1, 6480, Note_on_c, 0, 77, 49
1, 6599, Note_on_c, 0, 74, 0
1, 6599, Note_on_c, 0, 77, 0
1, 6720, Note_on_c, 0, 74, 49
1, 6839, Note_on_c, 0, 74, 0
1, 6960, Note_on_c, 0, 69, 49
1, 7079, Note_on_c, 0, 69, 0
1, 7200, Note_on_c, 0, 69, 49
1, 7200, Note_on_c, 0, 74, 49
1, 7200, Note_on_c, 0, 77, 49
1, 7319, Note_on_c, 0, 69, 0
1, 7319, Note_on_c, 0, 74, 0
1, 7319, Note_on_c, 0, 77, 0
1, 7440, Note_on_c, 0, 67, 49
1, 7440, Note_on_c, 0, 76, 49
1, 7559, Note_on_c, 0, 67, 0
1, 7559, Note_on_c, 0, 76, 0
1, 7560, Note_on_c, 0, 74, 49
1, 7679, Note_on_c, 0, 74, 0
1, 7680, Note_on_c, 0, 67, 49
1, 7680, Note_on_c, 0, 76, 49
1, 7799, Note_on_c, 0, 67, 0
1, 7799, Note_on_c, 0, 76, 0
1, 7800, Note_on_c, 0, 73, 49
1, 7919, Note_on_c, 0, 73, 0
1, 7920, Note_on_c, 0, 74, 49
1, 8039, Note_on_c, 0, 74, 0
1, 8160, Note_on_c, 0, 65, 49
1, 8160, Note_on_c, 0, 69, 49
1, 8279, Note_on_c, 0, 65, 0
1, 8279, Note_on_c, 0, 69, 0
1, 8400, Note_on_c, 0, 62, 49
1, 8400, Note_on_c, 0, 65, 49
1, 8519, Note_on_c, 0, 62, 0
1, 8519, Note_on_c, 0, 65, 0
1, 8640, Note_on_c, 0, 69, 49
1, 8640, Note_on_c, 0, 65, 49
1, 8759, Note_on_c, 0, 65, 0
1, 8880, Note_on_c, 0, 64, 49
1, 8999, Note_on_c, 0, 64, 0
1, 9000, Note_on_c, 0, 62, 49
1, 9119, Note_on_c, 0, 62, 0
1, 9120, Note_on_c, 0, 64, 49
1, 9239, Note_on_c, 0, 64, 0
1, 9240, Note_on_c, 0, 61, 49
1, 9359, Note_on_c, 0, 61, 0
1, 9360, Note_on_c, 0, 62, 49
1, 9479, Note_on_c, 0, 62, 0
1, 9599, Note_on_c, 0, 69, 0
1, 9600, Note_on_c, 0, 69, 49
1, 9600, Note_on_c, 0, 64, 49
1, 9719, Note_on_c, 0, 64, 0
1, 9720, Note_on_c, 0, 62, 49
1, 9839, Note_on_c, 0, 62, 0
1, 9840, Note_on_c, 0, 64, 49
1, 9959, Note_on_c, 0, 64, 0
1, 9960, Note_on_c, 0, 61, 49
1, 10079, Note_on_c, 0, 61, 0
1, 10080, Note_on_c, 0, 62, 49
1, 10139, Note_on_c, 0, 62, 0
1, 10200, Note_on_c, 0, 64, 49
1, 10259, Note_on_c, 0, 64, 0
1, 10319, Note_on_c, 0, 69, 0
1, 10320, Note_on_c, 0, 65, 49
1, 10379, Note_on_c, 0, 65, 0
1, 10440, Note_on_c, 0, 67, 49
1, 10499, Note_on_c, 0, 67, 0
1, 10560, Note_on_c, 0, 69, 49
1, 10619, Note_on_c, 0, 69, 0
1, 10680, Note_on_c, 0, 70, 49
1, 10739, Note_on_c, 0, 70, 0
1, 10800, Note_on_c, 0, 72, 49
1, 10859, Note_on_c, 0, 72, 0
1, 10920, Note_on_c, 0, 74, 49
1, 10979, Note_on_c, 0, 74, 0
1, 11040, Note_on_c, 0, 76, 49
1, 11099, Note_on_c, 0, 76, 0
1, 11160, Note_on_c, 0, 78, 49
1, 11219, Note_on_c, 0, 78, 0
1, 11280, Note_on_c, 0, 76, 49
1, 11280, Note_on_c, 0, 79, 49
1, 11339, Note_on_c, 0, 76, 0
1, 11339, Note_on_c, 0, 79, 0
1, 11400, Note_on_c, 0, 78, 49
1, 11400, Note_on_c, 0, 81, 49
1, 11459, Note_on_c, 0, 78, 0
1, 11459, Note_on_c, 0, 81, 0
1, 11520, Note_on_c, 0, 79, 49
1, 11520, Note_on_c, 0, 82, 49
1, 11520, Note_on_c, 0, 86, 49
1, 11639, Note_on_c, 0, 79, 0
1, 11639, Note_on_c, 0, 82, 0
1, 11639, Note_on_c, 0, 86, 0
1, 11760, Note_on_c, 0, 74, 49
1, 11760, Note_on_c, 0, 84, 49
1, 11760, Note_on_c, 0, 86, 49
1, 11879, Note_on_c, 0, 74, 0
1, 11879, Note_on_c, 0, 84, 0
1, 11879, Note_on_c, 0, 86, 0
1, 11880, Note_on_c, 0, 82, 49
1, 11999, Note_on_c, 0, 82, 0
1, 12000, Note_on_c, 0, 74, 49
1, 12000, Note_on_c, 0, 84, 49
1, 12000, Note_on_c, 0, 86, 49
1, 12119, Note_on_c, 0, 74, 0
1, 12119, Note_on_c, 0, 84, 0
1, 12119, Note_on_c, 0, 86, 0
1, 12120, Note_on_c, 0, 81, 49
1, 12239, Note_on_c, 0, 81, 0
1, 12240, Note_on_c, 0, 74, 49
1, 12240, Note_on_c, 0, 82, 49
1, 12240, Note_on_c, 0, 86, 49
1, 12359, Note_on_c, 0, 74, 0
1, 12359, Note_on_c, 0, 82, 0
1, 12359, Note_on_c, 0, 86, 0
1, 12480, Note_on_c, 0, 74, 49
1, 12480, Note_on_c, 0, 79, 49
1, 12480, Note_on_c, 0, 86, 49
1, 12599, Note_on_c, 0, 74, 0
1, 12599, Note_on_c, 0, 79, 0
1, 12599, Note_on_c, 0, 86, 0
1, 12720, Note_on_c, 0, 74, 49
1, 12720, Note_on_c, 0, 86, 49
1, 12839, Note_on_c, 0, 74, 0
1, 12839, Note_on_c, 0, 86, 0
1, 12960, Note_on_c, 0, 74, 49
1, 12960, Note_on_c, 0, 82, 49
1, 12960, Note_on_c, 0, 86, 49
1, 13079, Note_on_c, 0, 74, 0
1, 13079, Note_on_c, 0, 82, 0
1, 13079, Note_on_c, 0, 86, 0
1, 13200, Note_on_c, 0, 74, 49
1, 13200, Note_on_c, 0, 81, 49
1, 13200, Note_on_c, 0, 86, 49
1, 13319, Note_on_c, 0, 74, 0
1, 13319, Note_on_c, 0, 81, 0
1, 13319, Note_on_c, 0, 86, 0
1, 13320, Note_on_c, 0, 79, 49
1, 13439, Note_on_c, 0, 79, 0
1, 13440, Note_on_c, 0, 74, 49
1, 13440, Note_on_c, 0, 81, 49
1, 13440, Note_on_c, 0, 86, 49
1, 13559, Note_on_c, 0, 74, 0
1, 13559, Note_on_c, 0, 81, 0
1, 13559, Note_on_c, 0, 86, 0
1, 13560, Note_on_c, 0, 78, 49
1, 13679, Note_on_c, 0, 78, 0
1, 13680, Note_on_c, 0, 79, 49
1, 13680, Note_on_c, 0, 91, 49
1, 13799, Note_on_c, 0, 79, 0
1, 13799, Note_on_c, 0, 91, 0
1, 13920, Note_on_c, 0, 74, 49
1, 13920, Note_on_c, 0, 86, 49
1, 14039, Note_on_c, 0, 74, 0
1, 14039, Note_on_c, 0, 86, 0
1, 14160, Note_on_c, 0, 70, 49
1, 14160, Note_on_c, 0, 82, 49
1, 14279, Note_on_c, 0, 70, 0
1, 14279, Note_on_c, 0, 82, 0
1, 14400, Note_on_c, 0, 70, 49
1, 14400, Note_on_c, 0, 74, 49
1, 14639, Note_on_c, 0, 70, 0
1, 14639, Note_on_c, 0, 74, 0
1, 14640, Note_on_c, 0, 74, 49
1, 14640, Note_on_c, 0, 69, 49
1, 14759, Note_on_c, 0, 69, 0
1, 14760, Note_on_c, 0, 67, 49
1, 14879, Note_on_c, 0, 67, 0
1, 14880, Note_on_c, 0, 60, 49
1, 14880, Note_on_c, 0, 69, 49
1, 14999, Note_on_c, 0, 69, 0
1, 15000, Note_on_c, 0, 57, 49
1, 15000, Note_on_c, 0, 66, 49
1, 15119, Note_on_c, 0, 74, 0
1, 15119, Note_on_c, 0, 57, 0
1, 15119, Note_on_c, 0, 66, 0
1, 15119, Note_on_c, 0, 60, 0
1, 15120, Note_on_c, 0, 58, 49
1, 15120, Note_on_c, 0, 67, 49
1, 15359, Note_on_c, 0, 58, 0
1, 15359, Note_on_c, 0, 67, 0
1, 15360, Note_on_c, 0, 74, 49
1, 15360, Note_on_c, 0, 69, 49
1, 15479, Note_on_c, 0, 69, 0
1, 15480, Note_on_c, 0, 67, 49
1, 15599, Note_on_c, 0, 67, 0
1, 15600, Note_on_c, 0, 60, 49
1, 15600, Note_on_c, 0, 69, 49
1, 15719, Note_on_c, 0, 69, 0
1, 15720, Note_on_c, 0, 57, 49
1, 15720, Note_on_c, 0, 66, 49
1, 15839, Note_on_c, 0, 74, 0
1, 15839, Note_on_c, 0, 57, 0
1, 15839, Note_on_c, 0, 66, 0
1, 15839, Note_on_c, 0, 60, 0
1, 15840, Note_on_c, 0, 58, 49
1, 15840, Note_on_c, 0, 67, 49
1, 16079, Note_on_c, 0, 58, 0
1, 16079, Note_on_c, 0, 67, 0
1, 16080, Note_on_c, 0, 74, 49
1, 16080, Note_on_c, 0, 69, 49
1, 16199, Note_on_c, 0, 69, 0
1, 16200, Note_on_c, 0, 67, 49
1, 16319, Note_on_c, 0, 67, 0
1, 16320, Note_on_c, 0, 60, 49
1, 16320, Note_on_c, 0, 69, 49
1, 16439, Note_on_c, 0, 69, 0
1, 16440, Note_on_c, 0, 57, 49
1, 16440, Note_on_c, 0, 66, 49
1, 16559, Note_on_c, 0, 74, 0
1, 16559, Note_on_c, 0, 57, 0
1, 16559, Note_on_c, 0, 66, 0
1, 16559, Note_on_c, 0, 60, 0
1, 16560, Note_on_c, 0, 58, 49
1, 16560, Note_on_c, 0, 67, 49
1, 16679, Note_on_c, 0, 58, 0
1, 16679, Note_on_c, 0, 67, 0
1, 16680, Note_on_c, 0, 62, 49
1, 16799, Note_on_c, 0, 62, 0
1, 16800, Note_on_c, 0, 67, 49
1, 16800, Note_on_c, 0, 70, 49
1, 16919, Note_on_c, 0, 67, 0
1, 16919, Note_on_c, 0, 70, 0
1, 16920, Note_on_c, 0, 69, 49
1, 16920, Note_on_c, 0, 72, 49
1, 17039, Note_on_c, 0, 69, 0
1, 17039, Note_on_c, 0, 72, 0
1, 17040, Note_on_c, 0, 70, 49
1, 17040, Note_on_c, 0, 74, 49
1, 17159, Note_on_c, 0, 70, 0
1, 17159, Note_on_c, 0, 74, 0
1, 17160, Note_on_c, 0, 72, 49
1, 17160, Note_on_c, 0, 75, 49
1, 17279, Note_on_c, 0, 72, 0
1, 17279, Note_on_c, 0, 75, 0
1, 17280, Note_on_c, 0, 74, 49
1, 17280, Note_on_c, 0, 77, 49
1, 17399, Note_on_c, 0, 74, 0
1, 17399, Note_on_c, 0, 77, 0
1, 17520, Note_on_c, 0, 74, 49
1, 17520, Note_on_c, 0, 68, 49
1, 17639, Note_on_c, 0, 74, 0
1, 17640, Note_on_c, 0, 72, 49
1, 17759, Note_on_c, 0, 72, 0
1, 17760, Note_on_c, 0, 74, 49
1, 17879, Note_on_c, 0, 74, 0
1, 17880, Note_on_c, 0, 71, 49
1, 17999, Note_on_c, 0, 68, 0
1, 17999, Note_on_c, 0, 71, 0
1, 18000, Note_on_c, 0, 72, 49
1, 18000, Note_on_c, 0, 79, 49
1, 18119, Note_on_c, 0, 72, 0
1, 18119, Note_on_c, 0, 79, 0
1, 18240, Note_on_c, 0, 72, 49
1, 18240, Note_on_c, 0, 75, 49
1, 18359, Note_on_c, 0, 72, 0
1, 18359, Note_on_c, 0, 75, 0
1, 18480, Note_on_c, 0, 72, 49
1, 18599, Note_on_c, 0, 72, 0
1, 18720, Note_on_c, 0, 72, 49
1, 18779, Note_on_c, 0, 72, 0
1, 18780, Note_on_c, 0, 71, 49
1, 18839, Note_on_c, 0, 71, 0
1, 18840, Note_on_c, 0, 72, 49
1, 18899, Note_on_c, 0, 72, 0
1, 18900, Note_on_c, 0, 73, 49
1, 18959, Note_on_c, 0, 73, 0
1, 18960, Note_on_c, 0, 74, 49
1, 19079, Note_on_c, 0, 74, 0
1, 19200, Note_on_c, 0, 71, 49
1, 19319, Note_on_c, 0, 71, 0
1, 19440, Note_on_c, 0, 72, 49
1, 19440, Note_on_c, 0, 63, 49
1, 19559, Note_on_c, 0, 72, 0
1, 19560, Note_on_c, 0, 67, 49
1, 19679, Note_on_c, 0, 63, 0
1, 19679, Note_on_c, 0, 67, 0
1, 19680, Note_on_c, 0, 69, 49
1, 19680, Note_on_c, 0, 60, 49
1, 19799, Note_on_c, 0, 69, 0
1, 19799, Note_on_c, 0, 60, 0
1, 19800, Note_on_c, 0, 71, 49
1, 19919, Note_on_c, 0, 71, 0
1, 19920, Note_on_c, 0, 72, 49
1, 19920, Note_on_c, 0, 55, 49
1, 20039, Note_on_c, 0, 72, 0
1, 20039, Note_on_c, 0, 55, 0
1, 20040, Note_on_c, 0, 74, 49
1, 20159, Note_on_c, 0, 74, 0
1, 20160, Note_on_c, 0, 66, 49
1, 20160, Note_on_c, 0, 69, 49
1, 20160, Note_on_c, 0, 75, 49
1, 20399, Note_on_c, 0, 66, 0
1, 20399, Note_on_c, 0, 69, 0
1, 20399, Note_on_c, 0, 75, 0
1, 20400, Note_on_c, 0, 72, 49
1, 20400, Note_on_c, 0, 66, 49
1, 20519, Note_on_c, 0, 72, 0
1, 20520, Note_on_c, 0, 70, 49
1, 20639, Note_on_c, 0, 70, 0
1, 20640, Note_on_c, 0, 72, 49
1, 20759, Note_on_c, 0, 72, 0
1, 20760, Note_on_c, 0, 69, 49
1, 20879, Note_on_c, 0, 66, 0
1, 20879, Note_on_c, 0, 69, 0
1, 20880, Note_on_c, 0, 70, 49
1, 20880, Note_on_c, 0, 77, 49
1, 20999, Note_on_c, 0, 70, 0
1, 20999, Note_on_c, 0, 77, 0
1, 21120, Note_on_c, 0, 70, 49
1, 21120, Note_on_c, 0, 74, 49
1, 21239, Note_on_c, 0, 70, 0
1, 21239, Note_on_c, 0, 74, 0
1, 21360, Note_on_c, 0, 70, 49
1, 21479, Note_on_c, 0, 70, 0
1, 21600, Note_on_c, 0, 66, 49
1, 21600, Note_on_c, 0, 69, 49
1, 21600, Note_on_c, 0, 75, 49
1, 21839, Note_on_c, 0, 66, 0
1, 21839, Note_on_c, 0, 69, 0
1, 21839, Note_on_c, 0, 75, 0
1, 21840, Note_on_c, 0, 72, 49
1, 21840, Note_on_c, 0, 66, 49
1, 21959, Note_on_c, 0, 72, 0
1, 21960, Note_on_c, 0, 70, 49
1, 22079, Note_on_c, 0, 70, 0
1, 22080, Note_on_c, 0, 72, 49
1, 22199, Note_on_c, 0, 72, 0
1, 22200, Note_on_c, 0, 69, 49
1, 22319, Note_on_c, 0, 66, 0
1, 22319, Note_on_c, 0, 69, 0
1, 22320, Note_on_c, 0, 70, 49
1, 22320, Note_on_c, 0, 77, 49
1, 22439, Note_on_c, 0, 70, 0
1, 22439, Note_on_c, 0, 77, 0
1, 22560, Note_on_c, 0, 70, 49
1, 22560, Note_on_c, 0, 74, 49
1, 22679, Note_on_c, 0, 70, 0
1, 22679, Note_on_c, 0, 74, 0
1, 22800, Note_on_c, 0, 70, 49
1, 22919, Note_on_c, 0, 70, 0
1, 23280, Note_on_c, 0, 70, 49
1, 23280, Note_on_c, 0, 73, 49
1, 23280, Note_on_c, 0, 79, 49
1, 23399, Note_on_c, 0, 70, 0
1, 23399, Note_on_c, 0, 73, 0
1, 23399, Note_on_c, 0, 79, 0
1, 23400, Note_on_c, 0, 69, 49
1, 23519, Note_on_c, 0, 69, 0
1, 23520, Note_on_c, 0, 70, 49
1, 23520, Note_on_c, 0, 73, 49
1, 23579, Note_on_c, 0, 70, 0
1, 23579, Note_on_c, 0, 73, 0
1, 23640, Note_on_c, 0, 70, 50
1, 23699, Note_on_c, 0, 70, 0
1, 24000, Note_on_c, 0, 70, 51
1, 24000, Note_on_c, 0, 73, 51
1, 24000, Note_on_c, 0, 77, 51
1, 24119, Note_on_c, 0, 70, 0
1, 24119, Note_on_c, 0, 73, 0
1, 24119, Note_on_c, 0, 77, 0
1, 24120, Note_on_c, 0, 69, 51
1, 24239, Note_on_c, 0, 69, 0
1, 24240, Note_on_c, 0, 70, 51
1, 24240, Note_on_c, 0, 73, 51
1, 24299, Note_on_c, 0, 70, 0
1, 24299, Note_on_c, 0, 73, 0
1, 24360, Note_on_c, 0, 70, 52
1, 24419, Note_on_c, 0, 70, 0
1, 24720, Note_on_c, 0, 70, 53
1, 24720, Note_on_c, 0, 73, 53
1, 24720, Note_on_c, 0, 76, 53
1, 24839, Note_on_c, 0, 70, 0
1, 24839, Note_on_c, 0, 73, 0
1, 24839, Note_on_c, 0, 76, 0
1, 24840, Note_on_c, 0, 69, 53
1, 24959, Note_on_c, 0, 69, 0
1, 24960, Note_on_c, 0, 70, 53
1, 24960, Note_on_c, 0, 73, 53
1, 25019, Note_on_c, 0, 70, 0
1, 25019, Note_on_c, 0, 73, 0
1, 25080, Note_on_c, 0, 70, 54
1, 25139, Note_on_c, 0, 70, 0
1, 25320, Note_on_c, 0, 64, 54
1, 25439, Note_on_c, 0, 64, 0
1, 25440, Note_on_c, 0, 67, 55
1, 25559, Note_on_c, 0, 67, 0
1, 25560, Note_on_c, 0, 70, 55
1, 25679, Note_on_c, 0, 70, 0
1, 25680, Note_on_c, 0, 73, 55
1, 25799, Note_on_c, 0, 73, 0
1, 25800, Note_on_c, 0, 76, 56
1, 25919, Note_on_c, 0, 76, 0
1, 25920, Note_on_c, 0, 67, 67
1, 25920, Note_on_c, 0, 70, 67
1, 25920, Note_on_c, 0, 73, 67
1, 25920, Note_on_c, 0, 79, 67
1, 26159, Note_on_c, 0, 67, 0
1, 26159, Note_on_c, 0, 70, 0
1, 26159, Note_on_c, 0, 73, 0
1, 26159, Note_on_c, 0, 79, 0
1, 26160, Note_on_c, 0, 70, 57
1, 26160, Note_on_c, 0, 73, 57
1, 26279, Note_on_c, 0, 70, 0
1, 26279, Note_on_c, 0, 73, 0
1, 26280, Note_on_c, 0, 69, 57
1, 26399, Note_on_c, 0, 69, 0
1, 26400, Note_on_c, 0, 70, 58
1, 26400, Note_on_c, 0, 73, 58
1, 26459, Note_on_c, 0, 70, 0
1, 26459, Note_on_c, 0, 73, 0
1, 26520, Note_on_c, 0, 70, 58
1, 26579, Note_on_c, 0, 70, 0
1, 26640, Note_on_c, 0, 65, 69
1, 26640, Note_on_c, 0, 70, 69
1, 26640, Note_on_c, 0, 73, 69
1, 26640, Note_on_c, 0, 77, 69
1, 26879, Note_on_c, 0, 65, 0
1, 26879, Note_on_c, 0, 70, 0
1, 26879, Note_on_c, 0, 73, 0
1, 26879, Note_on_c, 0, 77, 0
1, 26880, Note_on_c, 0, 70, 59
1, 26880, Note_on_c, 0, 73, 59
1, 26999, Note_on_c, 0, 70, 0
1, 26999, Note_on_c, 0, 73, 0
1, 27000, Note_on_c, 0, 69, 59
1, 27119, Note_on_c, 0, 69, 0
1, 27120, Note_on_c, 0, 70, 60
1, 27120, Note_on_c, 0, 73, 60
1, 27179, Note_on_c, 0, 70, 0
1, 27179, Note_on_c, 0, 73, 0
1, 27240, Note_on_c, 0, 70, 60
1, 27299, Note_on_c, 0, 70, 0
1, 27360, Note_on_c, 0, 64, 72
1, 27360, Note_on_c, 0, 70, 72
1, 27360, Note_on_c, 0, 73, 72
1, 27360, Note_on_c, 0, 76, 72
1, 27599, Note_on_c, 0, 64, 0
1, 27599, Note_on_c, 0, 70, 0
1, 27599, Note_on_c, 0, 73, 0
1, 27599, Note_on_c, 0, 76, 0
1, 27600, Note_on_c, 0, 70, 61
1, 27600, Note_on_c, 0, 73, 61
1, 27719, Note_on_c, 0, 70, 0
1, 27719, Note_on_c, 0, 73, 0
1, 27720, Note_on_c, 0, 69, 61
1, 27839, Note_on_c, 0, 69, 0
1, 27840, Note_on_c, 0, 70, 62
1, 27840, Note_on_c, 0, 73, 62
1, 27899, Note_on_c, 0, 70, 0
1, 27899, Note_on_c, 0, 73, 0
1, 27960, Note_on_c, 0, 70, 62
1, 28019, Note_on_c, 0, 70, 0
1, 28200, Note_on_c, 0, 73, 63
1, 28319, Note_on_c, 0, 73, 0
1, 28320, Note_on_c, 0, 76, 63
1, 28439, Note_on_c, 0, 76, 0
1, 28440, Note_on_c, 0, 79, 63
1, 28559, Note_on_c, 0, 79, 0
1, 28560, Note_on_c, 0, 82, 64
1, 28679, Note_on_c, 0, 82, 0
1, 28680, Note_on_c, 0, 88, 64
1, 28799, Note_on_c, 0, 88, 0
1, 28800, Note_on_c, 0, 77, 65
1, 28800, Note_on_c, 0, 84, 65
1, 28800, Note_on_c, 0, 89, 65
1, 29039, Note_on_c, 0, 77, 0
1, 29039, Note_on_c, 0, 84, 0
1, 29039, Note_on_c, 0, 89, 0
1, 29040, Note_on_c, 0, 75, 49
1, 29040, Note_on_c, 0, 79, 49
1, 29159, Note_on_c, 0, 75, 0
1, 29159, Note_on_c, 0, 79, 0
1, 29280, Note_on_c, 0, 77, 49
1, 29399, Note_on_c, 0, 77, 0
1, 29520, Note_on_c, 0, 75, 49
1, 29520, Note_on_c, 0, 79, 49
1, 29599, Note_on_c, 0, 75, 0
1, 29599, Note_on_c, 0, 79, 0
1, 29600, Note_on_c, 0, 81, 49
1, 29679, Note_on_c, 0, 81, 0
1, 29680, Note_on_c, 0, 79, 49
1, 29759, Note_on_c, 0, 79, 0
1, 29760, Note_on_c, 0, 77, 49
1, 29999, Note_on_c, 0, 77, 0
1, 30000, Note_on_c, 0, 72, 49
1, 30000, Note_on_c, 0, 75, 49
1, 30119, Note_on_c, 0, 72, 0
1, 30119, Note_on_c, 0, 75, 0
1, 30240, Note_on_c, 0, 74, 49
1, 30359, Note_on_c, 0, 74, 0
1, 30480, Note_on_c, 0, 72, 49
1, 30480, Note_on_c, 0, 75, 49
1, 30559, Note_on_c, 0, 72, 0
1, 30559, Note_on_c, 0, 75, 0
1, 30560, Note_on_c, 0, 77, 49
1, 30639, Note_on_c, 0, 77, 0
1, 30640, Note_on_c, 0, 75, 49
1, 30719, Note_on_c, 0, 75, 0
1, 30720, Note_on_c, 0, 74, 49
1, 30959, Note_on_c, 0, 74, 0
1, 30960, Note_on_c, 0, 69, 49
1, 30960, Note_on_c, 0, 72, 49
1, 31079, Note_on_c, 0, 69, 0
1, 31079, Note_on_c, 0, 72, 0
1, 31200, Note_on_c, 0, 70, 49
1, 31319, Note_on_c, 0, 70, 0
1, 31440, Note_on_c, 0, 69, 49
1, 31440, Note_on_c, 0, 72, 49
1, 31519, Note_on_c, 0, 69, 0
1, 31519, Note_on_c, 0, 72, 0
1, 31520, Note_on_c, 0, 74, 49
1, 31599, Note_on_c, 0, 74, 0
1, 31600, Note_on_c, 0, 72, 49
1, 31679, Note_on_c, 0, 72, 0
1, 31680, Note_on_c, 0, 70, 49
1, 31919, Note_on_c, 0, 70, 0
1, 31920, Note_on_c, 0, 65, 49
1, 31920, Note_on_c, 0, 68, 49
1, 32039, Note_on_c, 0, 65, 0
1, 32039, Note_on_c, 0, 68, 0
1, 32160, Note_on_c, 0, 67, 49
1, 32279, Note_on_c, 0, 67, 0
1, 32400, Note_on_c, 0, 65, 49
1, 32400, Note_on_c, 0, 68, 49
1, 32479, Note_on_c, 0, 65, 0
1, 32479, Note_on_c, 0, 68, 0
1, 32480, Note_on_c, 0, 70, 49
1, 32559, Note_on_c, 0, 70, 0
1, 32560, Note_on_c, 0, 68, 49
1, 32639, Note_on_c, 0, 68, 0
1, 32640, Note_on_c, 0, 67, 49
1, 32879, Note_on_c, 0, 67, 0
1, 32880, Note_on_c, 0, 72, 49
1, 32880, Note_on_c, 0, 66, 49
1, 32999, Note_on_c, 0, 72, 0
1, 32999, Note_on_c, 0, 66, 0
1, 33000, Note_on_c, 0, 65, 49
1, 33119, Note_on_c, 0, 65, 0
1, 33360, Note_on_c, 0, 65, 49
1, 33360, Note_on_c, 0, 63, 49
1, 33479, Note_on_c, 0, 65, 0
1, 33479, Note_on_c, 0, 63, 0
1, 33480, Note_on_c, 0, 62, 49
1, 33599, Note_on_c, 0, 62, 0
1, 33600, Note_on_c, 0, 69, 49
1, 33600, Note_on_c, 0, 63, 49
1, 33719, Note_on_c, 0, 69, 0
1, 33719, Note_on_c, 0, 63, 0
1, 33720, Note_on_c, 0, 65, 49
1, 33839, Note_on_c, 0, 65, 0
1, 33840, Note_on_c, 0, 62, 49
1, 33840, Note_on_c, 0, 70, 49
1, 33959, Note_on_c, 0, 62, 0
1, 33959, Note_on_c, 0, 70, 0
1, 33960, Note_on_c, 0, 65, 50
1, 34079, Note_on_c, 0, 65, 0
1, 34200, Note_on_c, 0, 65, 53
1, 34319, Note_on_c, 0, 65, 0
1, 34320, Note_on_c, 0, 70, 55
1, 34439, Note_on_c, 0, 70, 0
1, 34440, Note_on_c, 0, 74, 56
1, 34559, Note_on_c, 0, 74, 0
1, 34560, Note_on_c, 0, 72, 58
1, 34560, Note_on_c, 0, 77, 58
1, 34799, Note_on_c, 0, 72, 0
1, 34799, Note_on_c, 0, 77, 0
1, 34800, Note_on_c, 0, 87, 61
1, 34800, Note_on_c, 0, 91, 61
1, 34859, Note_on_c, 0, 87, 0
1, 34859, Note_on_c, 0, 91, 0
1, 34920, Note_on_c, 0, 81, 62
1, 35039, Note_on_c, 0, 81, 0
1, 35040, Note_on_c, 0, 86, 64
1, 35040, Note_on_c, 0, 89, 64
1, 35099, Note_on_c, 0, 86, 0
1, 35099, Note_on_c, 0, 89, 0
1, 35160, Note_on_c, 0, 82, 65
1, 35279, Note_on_c, 0, 82, 0
1, 35280, Note_on_c, 0, 87, 67
1, 35280, Note_on_c, 0, 91, 67
1, 35359, Note_on_c, 0, 87, 0
1, 35359, Note_on_c, 0, 91, 0
1, 35360, Note_on_c, 0, 93, 68
1, 35439, Note_on_c, 0, 93, 0
1, 35440, Note_on_c, 0, 91, 69
1, 35519, Note_on_c, 0, 91, 0
1, 35520, Note_on_c, 0, 89, 70
1, 35759, Note_on_c, 0, 89, 0
1, 35760, Note_on_c, 0, 84, 73
1, 35760, Note_on_c, 0, 87, 73
1, 35819, Note_on_c, 0, 84, 0
1, 35819, Note_on_c, 0, 87, 0
1, 35880, Note_on_c, 0, 78, 74
1, 35939, Note_on_c, 0, 78, 0
1, 36000, Note_on_c, 0, 82, 76
1, 36000, Note_on_c, 0, 86, 76
1, 36059, Note_on_c, 0, 82, 0
1, 36059, Note_on_c, 0, 86, 0
1, 36120, Note_on_c, 0, 79, 77
1, 36239, Note_on_c, 0, 79, 0
1, 36240, Note_on_c, 0, 84, 79
1, 36240, Note_on_c, 0, 87, 79
1, 36319, Note_on_c, 0, 84, 0
1, 36319, Note_on_c, 0, 87, 0
1, 36320, Note_on_c, 0, 89, 80
1, 36399, Note_on_c, 0, 89, 0
1, 36400, Note_on_c, 0, 87, 81
1, 36479, Note_on_c, 0, 87, 0
1, 36480, Note_on_c, 0, 82, 82
1, 36480, Note_on_c, 0, 86, 82
1, 36719, Note_on_c, 0, 82, 0
1, 36719, Note_on_c, 0, 86, 0
1, 36720, Note_on_c, 0, 81, 85
1, 36720, Note_on_c, 0, 84, 85
1, 36779, Note_on_c, 0, 81, 0
1, 36779, Note_on_c, 0, 84, 0
1, 36840, Note_on_c, 0, 74, 86
1, 36959, Note_on_c, 0, 74, 0
1, 36960, Note_on_c, 0, 79, 88
1, 36960, Note_on_c, 0, 82, 88
1, 37019, Note_on_c, 0, 79, 0
1, 37019, Note_on_c, 0, 82, 0
1, 37080, Note_on_c, 0, 75, 89
1, 37199, Note_on_c, 0, 75, 0
1, 37200, Note_on_c, 0, 81, 91
1, 37200, Note_on_c, 0, 84, 91
1, 37279, Note_on_c, 0, 81, 0
1, 37279, Note_on_c, 0, 84, 0
1, 37280, Note_on_c, 0, 86, 92
1, 37359, Note_on_c, 0, 86, 0
1, 37360, Note_on_c, 0, 84, 93
1, 37439, Note_on_c, 0, 84, 0
1, 37440, Note_on_c, 0, 79, 94
1, 37440, Note_on_c, 0, 82, 94
1, 37679, Note_on_c, 0, 79, 0
1, 37679, Note_on_c, 0, 82, 0
1, 37680, Note_on_c, 0, 77, 97
1, 37680, Note_on_c, 0, 80, 97
1, 37739, Note_on_c, 0, 77, 0
1, 37739, Note_on_c, 0, 80, 0
1, 37800, Note_on_c, 0, 71, 98
1, 37919, Note_on_c, 0, 71, 0
1, 37920, Note_on_c, 0, 75, 100
1, 37920, Note_on_c, 0, 79, 100
1, 37979, Note_on_c, 0, 75, 0
1, 37979, Note_on_c, 0, 79, 0
1, 38040, Note_on_c, 0, 72, 101
1, 38159, Note_on_c, 0, 72, 0
1, 38160, Note_on_c, 0, 77, 103
1, 38160, Note_on_c, 0, 80, 103
1, 38239, Note_on_c, 0, 77, 0
1, 38239, Note_on_c, 0, 80, 0
1, 38240, Note_on_c, 0, 82, 104
1, 38319, Note_on_c, 0, 82, 0
1, 38320, Note_on_c, 0, 80, 105
1, 38399, Note_on_c, 0, 80, 0
1, 38400, Note_on_c, 0, 75, 106
1, 38400, Note_on_c, 0, 79, 106
1, 38639, Note_on_c, 0, 75, 0
1, 38639, Note_on_c, 0, 79, 0
1, 38640, Note_on_c, 0, 58, 109
1, 38640, Note_on_c, 0, 72, 109
1, 38759, Note_on_c, 0, 58, 0
1, 38759, Note_on_c, 0, 72, 0
1, 38760, Note_on_c, 0, 60, 110
1, 38879, Note_on_c, 0, 60, 0
1, 38880, Note_on_c, 0, 66, 112
1, 38880, Note_on_c, 0, 58, 112
1, 38880, Note_on_c, 0, 61, 112
1, 38999, Note_on_c, 0, 58, 0
1, 38999, Note_on_c, 0, 61, 0
1, 39000, Note_on_c, 0, 60, 112
1, 39119, Note_on_c, 0, 60, 0
1, 39120, Note_on_c, 0, 58, 106
1, 39120, Note_on_c, 0, 61, 106
1, 39239, Note_on_c, 0, 58, 0
1, 39239, Note_on_c, 0, 61, 0
1, 39240, Note_on_c, 0, 60, 100
1, 39359, Note_on_c, 0, 60, 0
1, 39360, Note_on_c, 0, 58, 94
1, 39360, Note_on_c, 0, 61, 94
1, 39479, Note_on_c, 0, 58, 0
1, 39479, Note_on_c, 0, 61, 0
1, 39480, Note_on_c, 0, 60, 94
1, 39599, Note_on_c, 0, 66, 0
1, 39599, Note_on_c, 0, 60, 0
1, 39600, Note_on_c, 0, 67, 94
1, 39600, Note_on_c, 0, 58, 94
1, 39600, Note_on_c, 0, 61, 94
1, 39719, Note_on_c, 0, 58, 0
1, 39719, Note_on_c, 0, 61, 0
1, 39720, Note_on_c, 0, 60, 94
1, 39839, Note_on_c, 0, 67, 0
1, 39839, Note_on_c, 0, 60, 0
1, 39840, Note_on_c, 0, 58, 94
1, 39959, Note_on_c, 0, 58, 0
1, 39960, Note_on_c, 0, 60, 94
1, 40079, Note_on_c, 0, 60, 0
1, 40080, Note_on_c, 0, 72, 94
1, 40080, Note_on_c, 0, 58, 94
1, 40199, Note_on_c, 0, 72, 0
1, 40199, Note_on_c, 0, 58, 0
1, 40200, Note_on_c, 0, 60, 94
1, 40319, Note_on_c, 0, 60, 0
1, 40320, Note_on_c, 0, 66, 112
1, 40320, Note_on_c, 0, 58, 112
1, 40320, Note_on_c, 0, 61, 112
1, 40439, Note_on_c, 0, 58, 0
1, 40439, Note_on_c, 0, 61, 0
1, 40440, Note_on_c, 0, 60, 108
1, 40559, Note_on_c, 0, 60, 0
1, 40560, Note_on_c, 0, 58, 103
1, 40560, Note_on_c, 0, 61, 103
1, 40679, Note_on_c, 0, 58, 0
1, 40679, Note_on_c, 0, 61, 0
1, 40680, Note_on_c, 0, 60, 98
1, 40799, Note_on_c, 0, 60, 0
1, 40800, Note_on_c, 0, 58, 94
1, 40800, Note_on_c, 0, 61, 94
1, 40919, Note_on_c, 0, 58, 0
1, 40919, Note_on_c, 0, 61, 0
1, 40920, Note_on_c, 0, 60, 94
1, 41039, Note_on_c, 0, 66, 0
1, 41039, Note_on_c, 0, 60, 0
1, 41040, Note_on_c, 0, 67, 94
1, 41040, Note_on_c, 0, 58, 94
1, 41040, Note_on_c, 0, 61, 94
1, 41159, Note_on_c, 0, 58, 0
1, 41159, Note_on_c, 0, 61, 0
1, 41160, Note_on_c, 0, 60, 94
1, 41279, Note_on_c, 0, 67, 0
1, 41279, Note_on_c, 0, 60, 0
1, 41280, Note_on_c, 0, 58, 94
1, 41399, Note_on_c, 0, 58, 0
1, 41400, Note_on_c, 0, 60, 94
1, 41519, Note_on_c, 0, 60, 0
1, 41520, Note_on_c, 0, 72, 94
1, 41520, Note_on_c, 0, 58, 94
1, 41639, Note_on_c, 0, 72, 0
1, 41639, Note_on_c, 0, 58, 0
1, 41640, Note_on_c, 0, 60, 94
1, 41759, Note_on_c, 0, 60, 0
1, 41760, Note_on_c, 0, 66, 112
1, 41760, Note_on_c, 0, 58, 112
1, 41760, Note_on_c, 0, 61, 112
1, 41879, Note_on_c, 0, 58, 0
1, 41879, Note_on_c, 0, 61, 0
1, 41880, Note_on_c, 0, 60, 108
1, 41999, Note_on_c, 0, 60, 0
1, 42000, Note_on_c, 0, 58, 103
1, 42000, Note_on_c, 0, 61, 103
1, 42119, Note_on_c, 0, 58, 0
1, 42119, Note_on_c, 0, 61, 0
1, 42120, Note_on_c, 0, 60, 98
1, 42239, Note_on_c, 0, 60, 0
1, 42240, Note_on_c, 0, 58, 94
1, 42240, Note_on_c, 0, 61, 94
1, 42359, Note_on_c, 0, 58, 0
1, 42359, Note_on_c, 0, 61, 0
1, 42360, Note_on_c, 0, 60, 94
1, 42479, Note_on_c, 0, 66, 0
1, 42479, Note_on_c, 0, 60, 0
1, 42480, Note_on_c, 0, 65, 94
1, 42480, Note_on_c, 0, 65, 0
1, 42480, Note_on_c, 0, 65, 94
1, 42600, Note_on_c, 0, 60, 49
1, 42719, Note_on_c, 0, 65, 0
1, 42719, Note_on_c, 0, 60, 0
1, 42720, Note_on_c, 0, 69, 49
1, 42720, Note_on_c, 0, 66, 49
1, 42839, Note_on_c, 0, 66, 0
1, 42840, Note_on_c, 0, 65, 49
1, 42959, Note_on_c, 0, 69, 0
1, 42959, Note_on_c, 0, 65, 0
1, 42960, Note_on_c, 0, 70, 49
1, 42960, Note_on_c, 0, 65, 49
1, 43199, Note_on_c, 0, 70, 0
1, 43199, Note_on_c, 0, 65, 0
1, 43200, Note_on_c, 0, 60, 49
1, 43200, Note_on_c, 0, 67, 49
1, 43319, Note_on_c, 0, 60, 0
1, 43319, Note_on_c, 0, 67, 0
1, 43440, Note_on_c, 0, 58, 49
1, 43440, Note_on_c, 0, 63, 49
1, 43559, Note_on_c, 0, 58, 0
1, 43559, Note_on_c, 0, 63, 0
1, 43680, Note_on_c, 0, 58, 49
1, 43680, Note_on_c, 0, 65, 49
1, 43799, Note_on_c, 0, 58, 0
1, 43799, Note_on_c, 0, 65, 0
1, 43920, Note_on_c, 0, 58, 49
1, 43920, Note_on_c, 0, 62, 49
1, 44039, Note_on_c, 0, 58, 0
1, 44039, Note_on_c, 0, 62, 0
1, 44160, Note_on_c, 0, 53, 49
1, 44160, Note_on_c, 0, 58, 49
1, 44279, Note_on_c, 0, 53, 0
1, 44279, Note_on_c, 0, 58, 0
1, 44400, Note_on_c, 0, 84, 49
1, 44400, Note_on_c, 0, 84, 0
1, 44400, Note_on_c, 0, 84, 49
1, 44519, Note_on_c, 0, 84, 0
1, 44520, Note_on_c, 0, 72, 49
1, 44639, Note_on_c, 0, 72, 0
1, 44640, Note_on_c, 0, 78, 112
1, 44640, Note_on_c, 0, 70, 112
1, 44640, Note_on_c, 0, 73, 112
1, 44759, Note_on_c, 0, 70, 0
1, 44759, Note_on_c, 0, 73, 0
1, 44760, Note_on_c, 0, 69, 108
1, 44760, Note_on_c, 0, 72, 108
1, 44879, Note_on_c, 0, 69, 0
1, 44879, Note_on_c, 0, 72, 0
1, 44880, Note_on_c, 0, 58, 103
1, 44880, Note_on_c, 0, 61, 103
1, 44880, Note_on_c, 0, 70, 103
1, 44999, Note_on_c, 0, 70, 0
1, 45000, Note_on_c, 0, 69, 98
1, 45000, Note_on_c, 0, 72, 98
1, 45119, Note_on_c, 0, 69, 0
1, 45119, Note_on_c, 0, 72, 0
1, 45120, Note_on_c, 0, 58, 0
1, 45120, Note_on_c, 0, 58, 94
1, 45120, Note_on_c, 0, 61, 0
1, 45120, Note_on_c, 0, 61, 94
1, 45120, Note_on_c, 0, 70, 94
1, 45239, Note_on_c, 0, 70, 0
1, 45240, Note_on_c, 0, 69, 94
1, 45240, Note_on_c, 0, 72, 94
1, 45359, Note_on_c, 0, 78, 0
1, 45359, Note_on_c, 0, 69, 0
1, 45359, Note_on_c, 0, 72, 0
1, 45359, Note_on_c, 0, 58, 0
1, 45359, Note_on_c, 0, 61, 0
1, 45360, Note_on_c, 0, 79, 94
1, 45360, Note_on_c, 0, 61, 94
1, 45360, Note_on_c, 0, 70, 94
1, 45360, Note_on_c, 0, 73, 94
1, 45479, Note_on_c, 0, 61, 0
1, 45479, Note_on_c, 0, 70, 0
1, 45479, Note_on_c, 0, 73, 0
1, 45480, Note_on_c, 0, 69, 94
1, 45480, Note_on_c, 0, 72, 94
1, 45599, Note_on_c, 0, 69, 0
1, 45599, Note_on_c, 0, 72, 0
1, 45600, Note_on_c, 0, 58, 94
1, 45600, Note_on_c, 0, 61, 94
1, 45600, Note_on_c, 0, 70, 94
1, 45719, Note_on_c, 0, 58, 0
1, 45719, Note_on_c, 0, 61, 0
1, 45719, Note_on_c, 0, 70, 0
1, 45720, Note_on_c, 0, 72, 94
1, 45839, Note_on_c, 0, 79, 0
1, 45839, Note_on_c, 0, 72, 0
1, 45840, Note_on_c, 0, 84, 94
1, 45840, Note_on_c, 0, 58, 94
1, 45840, Note_on_c, 0, 58, 0
1, 45959, Note_on_c, 0, 84, 0
1, 45960, Note_on_c, 0, 72, 94
1, 46079, Note_on_c, 0, 72, 0
1, 46080, Note_on_c, 0, 78, 112
1, 46080, Note_on_c, 0, 70, 112
1, 46080, Note_on_c, 0, 73, 112
1, 46199, Note_on_c, 0, 70, 0
1, 46199, Note_on_c, 0, 73, 0
1, 46200, Note_on_c, 0, 69, 108
1, 46200, Note_on_c, 0, 72, 108
1, 46319, Note_on_c, 0, 69, 0
1, 46319, Note_on_c, 0, 72, 0
1, 46320, Note_on_c, 0, 58, 103
1, 46320, Note_on_c, 0, 61, 103
1, 46320, Note_on_c, 0, 70, 103
1, 46439, Note_on_c, 0, 70, 0
1, 46440, Note_on_c, 0, 69, 98
1, 46440, Note_on_c, 0, 72, 98
1, 46559, Note_on_c, 0, 69, 0
1, 46559, Note_on_c, 0, 72, 0
1, 46560, Note_on_c, 0, 58, 0
1, 46560, Note_on_c, 0, 58, 94
1, 46560, Note_on_c, 0, 61, 0
1, 46560, Note_on_c, 0, 61, 94
1, 46560, Note_on_c, 0, 70, 94
1, 46679, Note_on_c, 0, 70, 0
1, 46680, Note_on_c, 0, 69, 94
1, 46680, Note_on_c, 0, 72, 94
1, 46799, Note_on_c, 0, 78, 0
1, 46799, Note_on_c, 0, 69, 0
1, 46799, Note_on_c, 0, 72, 0
1, 46799, Note_on_c, 0, 58, 0
1, 46799, Note_on_c, 0, 61, 0
1, 46800, Note_on_c, 0, 79, 94
1, 46800, Note_on_c, 0, 61, 94
1, 46800, Note_on_c, 0, 70, 94
1, 46800, Note_on_c, 0, 73, 94
1, 46919, Note_on_c, 0, 61, 0
1, 46919, Note_on_c, 0, 70, 0
1, 46919, Note_on_c, 0, 73, 0
1, 46920, Note_on_c, 0, 69, 94
1, 46920, Note_on_c, 0, 72, 94
1, 47039, Note_on_c, 0, 69, 0
1, 47039, Note_on_c, 0, 72, 0
1, 47040, Note_on_c, 0, 58, 94
1, 47040, Note_on_c, 0, 61, 94
1, 47040, Note_on_c, 0, 70, 94
1, 47159, Note_on_c, 0, 58, 0
1, 47159, Note_on_c, 0, 61, 0
1, 47159, Note_on_c, 0, 70, 0
1, 47160, Note_on_c, 0, 72, 94
1, 47279, Note_on_c, 0, 79, 0
1, 47279, Note_on_c, 0, 72, 0
1, 47280, Note_on_c, 0, 84, 94
1, 47280, Note_on_c, 0, 58, 94
1, 47280, Note_on_c, 0, 58, 0
1, 47399, Note_on_c, 0, 84, 0
1, 47400, Note_on_c, 0, 72, 94
1, 47519, Note_on_c, 0, 72, 0
1, 47520, Note_on_c, 0, 78, 112
1, 47520, Note_on_c, 0, 70, 112
1, 47520, Note_on_c, 0, 73, 112
1, 47639, Note_on_c, 0, 70, 0
1, 47639, Note_on_c, 0, 73, 0
1, 47640, Note_on_c, 0, 69, 108
1, 47640, Note_on_c, 0, 72, 108
1, 47759, Note_on_c, 0, 69, 0
1, 47759, Note_on_c, 0, 72, 0
1, 47760, Note_on_c, 0, 58, 103
1, 47760, Note_on_c, 0, 61, 103
1, 47760, Note_on_c, 0, 70, 103
1, 47879, Note_on_c, 0, 70, 0
1, 47880, Note_on_c, 0, 69, 98
1, 47880, Note_on_c, 0, 72, 98
1, 47999, Note_on_c, 0, 69, 0
1, 47999, Note_on_c, 0, 72, 0
1, 48000, Note_on_c, 0, 58, 0
1, 48000, Note_on_c, 0, 58, 94
1, 48000, Note_on_c, 0, 61, 0
1, 48000, Note_on_c, 0, 61, 94
1, 48000, Note_on_c, 0, 70, 94
1, 48119, Note_on_c, 0, 70, 0
1, 48120, Note_on_c, 0, 69, 94
1, 48120, Note_on_c, 0, 72, 94
1, 48239, Note_on_c, 0, 78, 0
1, 48239, Note_on_c, 0, 69, 0
1, 48239, Note_on_c, 0, 72, 0
1, 48239, Note_on_c, 0, 58, 0
1, 48239, Note_on_c, 0, 61, 0
1, 48240, Note_on_c, 0, 77, 94
1, 48240, Note_on_c, 0, 77, 0
1, 48240, Note_on_c, 0, 77, 94
1, 48360, Note_on_c, 0, 72, 94
1, 48479, Note_on_c, 0, 77, 0
1, 48479, Note_on_c, 0, 72, 0
1, 48480, Note_on_c, 0, 77, 49
1, 48480, Note_on_c, 0, 81, 49
1, 48599, Note_on_c, 0, 77, 0
1, 48599, Note_on_c, 0, 81, 0
1, 48720, Note_on_c, 0, 77, 49
1, 48720, Note_on_c, 0, 82, 49
1, 48839, Note_on_c, 0, 77, 0
1, 48839, Note_on_c, 0, 82, 0
1, 48840, Note_on_c, 0, 70, 49
1, 48959, Note_on_c, 0, 70, 0
1, 48960, Note_on_c, 0, 70, 33
1, 48960, Note_on_c, 0, 75, 33
1, 48960, Note_on_c, 0, 79, 33
1, 49079, Note_on_c, 0, 70, 0
1, 49079, Note_on_c, 0, 75, 0
1, 49079, Note_on_c, 0, 79, 0
1, 49200, Note_on_c, 0, 63, 33
1, 49200, Note_on_c, 0, 70, 33
1, 49200, Note_on_c, 0, 75, 33
1, 49319, Note_on_c, 0, 63, 0
1, 49319, Note_on_c, 0, 70, 0
1, 49319, Note_on_c, 0, 75, 0
1, 49440, Note_on_c, 0, 63, 33
1, 49440, Note_on_c, 0, 69, 33
1, 49559, Note_on_c, 0, 63, 0
1, 49559, Note_on_c, 0, 69, 0
1, 49680, Note_on_c, 0, 62, 33
1, 49680, Note_on_c, 0, 70, 33
1, 49799, Note_on_c, 0, 62, 0
1, 49799, Note_on_c, 0, 70, 0
1, 49920, Note_on_c, 0, 58, 33
1, 50039, Note_on_c, 0, 58, 0
1, 50160, Note_on_c, 0, 70, 33
1, 50160, Note_on_c, 0, 65, 33
1, 50279, Note_on_c, 0, 70, 0
1, 50399, Note_on_c, 0, 65, 0
1, 50400, Note_on_c, 0, 70, 33
1, 50400, Note_on_c, 0, 67, 33
1, 50519, Note_on_c, 0, 67, 0
1, 50520, Note_on_c, 0, 65, 33
1, 50639, Note_on_c, 0, 70, 0
1, 50639, Note_on_c, 0, 65, 0
1, 50640, Note_on_c, 0, 63, 33
1, 50759, Note_on_c, 0, 63, 0
1, 50760, Note_on_c, 0, 67, 33
1, 50879, Note_on_c, 0, 67, 0
1, 50880, Note_on_c, 0, 70, 33
1, 50880, Note_on_c, 0, 65, 33
1, 50999, Note_on_c, 0, 65, 0
1, 51000, Note_on_c, 0, 63, 33
1, 51119, Note_on_c, 0, 70, 0
1, 51119, Note_on_c, 0, 63, 0
1, 51120, Note_on_c, 0, 70, 33
1, 51120, Note_on_c, 0, 65, 33
1, 51359, Note_on_c, 0, 70, 0
1, 51359, Note_on_c, 0, 65, 0
1, 51360, Note_on_c, 0, 58, 33
1, 51599, Note_on_c, 0, 58, 0
1, 51600, Note_on_c, 0, 70, 33
1, 51600, Note_on_c, 0, 65, 33
1, 51839, Note_on_c, 0, 70, 0
1, 51839, Note_on_c, 0, 65, 0
1, 51840, Note_on_c, 0, 70, 33
1, 51840, Note_on_c, 0, 64, 33
1, 51959, Note_on_c, 0, 64, 0
1, 51960, Note_on_c, 0, 62, 33
1, 52079, Note_on_c, 0, 70, 0
1, 52079, Note_on_c, 0, 62, 0
1, 52080, Note_on_c, 0, 60, 33
1, 52199, Note_on_c, 0, 60, 0
1, 52200, Note_on_c, 0, 64, 33
1, 52319, Note_on_c, 0, 64, 0
1, 52320, Note_on_c, 0, 70, 33
1, 52320, Note_on_c, 0, 62, 33
1, 52439, Note_on_c, 0, 62, 0
1, 52440, Note_on_c, 0, 60, 33
1, 52559, Note_on_c, 0, 70, 0
1, 52559, Note_on_c, 0, 60, 0
1, 52560, Note_on_c, 0, 69, 33
1, 52560, Note_on_c, 0, 63, 33
1, 52799, Note_on_c, 0, 69, 0
1, 53039, Note_on_c, 0, 63, 0
1, 53040, Note_on_c, 0, 69, 33
1, 53040, Note_on_c, 0, 65, 33
1, 53159, Note_on_c, 0, 65, 0
1, 53160, Note_on_c, 0, 63, 33
1, 53279, Note_on_c, 0, 69, 0
1, 53279, Note_on_c, 0, 63, 0
1, 53280, Note_on_c, 0, 70, 33
1, 53280, Note_on_c, 0, 62, 33
1, 53399, Note_on_c, 0, 62, 0
1, 53400, Note_on_c, 0, 60, 33
1, 53519, Note_on_c, 0, 70, 0
1, 53519, Note_on_c, 0, 60, 0
1, 53520, Note_on_c, 0, 58, 33
1, 53639, Note_on_c, 0, 58, 0
1, 53640, Note_on_c, 0, 67, 33
1, 53759, Note_on_c, 0, 67, 0
1, 53760, Note_on_c, 0, 70, 33
1, 53760, Note_on_c, 0, 65, 33
1, 53879, Note_on_c, 0, 65, 0
1, 53880, Note_on_c, 0, 63, 33
1, 53999, Note_on_c, 0, 70, 0
1, 53999, Note_on_c, 0, 63, 0
1, 54000, Note_on_c, 0, 70, 33
1, 54000, Note_on_c, 0, 62, 33
1, 54119, Note_on_c, 0, 62, 0
1, 54120, Note_on_c, 0, 60, 33
1, 54239, Note_on_c, 0, 70, 0
1, 54239, Note_on_c, 0, 60, 0
1, 54240, Note_on_c, 0, 58, 33
1, 54359, Note_on_c, 0, 58, 0
1, 54360, Note_on_c, 0, 67, 33
1, 54479, Note_on_c, 0, 67, 0
1, 54480, Note_on_c, 0, 70, 33
1, 54480, Note_on_c, 0, 65, 33
1, 54599, Note_on_c, 0, 65, 0
1, 54600, Note_on_c, 0, 63, 33
1, 54719, Note_on_c, 0, 70, 0
1, 54719, Note_on_c, 0, 63, 0
1, 54720, Note_on_c, 0, 70, 33
1, 54720, Note_on_c, 0, 62, 33
1, 54839, Note_on_c, 0, 62, 0
1, 54840, Note_on_c, 0, 60, 33
1, 54959, Note_on_c, 0, 70, 0
1, 54959, Note_on_c, 0, 60, 0
1, 54960, Note_on_c, 0, 58, 33
1, 55079, Note_on_c, 0, 58, 0
1, 55080, Note_on_c, 0, 60, 33
1, 55199, Note_on_c, 0, 60, 0
1, 55200, Note_on_c, 0, 62, 38
1, 55319, Note_on_c, 0, 62, 0
1, 55320, Note_on_c, 0, 63, 43
1, 55439, Note_on_c, 0, 63, 0
1, 55440, Note_on_c, 0, 65, 49
1, 55559, Note_on_c, 0, 65, 0
1, 55560, Note_on_c, 0, 67, 46
1, 55679, Note_on_c, 0, 67, 0
1, 55680, Note_on_c, 0, 68, 43
1, 55799, Note_on_c, 0, 68, 0
1, 55800, Note_on_c, 0, 65, 40
1, 55919, Note_on_c, 0, 65, 0
1, 55920, Note_on_c, 0, 70, 37
1, 55920, Note_on_c, 0, 62, 37
1, 56039, Note_on_c, 0, 70, 0
1, 56040, Note_on_c, 0, 68, 33
1, 56159, Note_on_c, 0, 62, 0
1, 56159, Note_on_c, 0, 68, 0
1, 56160, Note_on_c, 0, 70, 33
1, 56160, Note_on_c, 0, 67, 33
1, 56279, Note_on_c, 0, 67, 0
1, 56280, Note_on_c, 0, 65, 33
1, 56399, Note_on_c, 0, 70, 0
1, 56399, Note_on_c, 0, 65, 0
1, 56400, Note_on_c, 0, 63, 33
1, 56519, Note_on_c, 0, 63, 0
1, 56520, Note_on_c, 0, 67, 33
1, 56639, Note_on_c, 0, 67, 0
1, 56640, Note_on_c, 0, 70, 33
1, 56640, Note_on_c, 0, 65, 33
1, 56759, Note_on_c, 0, 65, 0
1, 56760, Note_on_c, 0, 63, 33
1, 56879, Note_on_c, 0, 70, 0
1, 56879, Note_on_c, 0, 63, 0
1, 56880, Note_on_c, 0, 70, 33
1, 56880, Note_on_c, 0, 65, 33
1, 57119, Note_on_c, 0, 70, 0
1, 57119, Note_on_c, 0, 65, 0
1, 57120, Note_on_c, 0, 58, 33
1, 57359, Note_on_c, 0, 58, 0
1, 57360, Note_on_c, 0, 70, 33
1, 57360, Note_on_c, 0, 65, 33
1, 57599, Note_on_c, 0, 70, 0
1, 57599, Note_on_c, 0, 65, 0
1, 57600, Note_on_c, 0, 70, 33
1, 57600, Note_on_c, 0, 64, 33
1, 57719, Note_on_c, 0, 64, 0
1, 57720, Note_on_c, 0, 62, 33
1, 57839, Note_on_c, 0, 70, 0
1, 57839, Note_on_c, 0, 62, 0
1, 57840, Note_on_c, 0, 60, 33
1, 57959, Note_on_c, 0, 60, 0
1, 57960, Note_on_c, 0, 64, 33
1, 58079, Note_on_c, 0, 64, 0
1, 58080, Note_on_c, 0, 70, 33
1, 58080, Note_on_c, 0, 62, 33
1, 58199, Note_on_c, 0, 62, 0
1, 58200, Note_on_c, 0, 60, 33
1, 58319, Note_on_c, 0, 70, 0
1, 58319, Note_on_c, 0, 60, 0
1, 58320, Note_on_c, 0, 69, 33
1, 58320, Note_on_c, 0, 63, 33
1, 58559, Note_on_c, 0, 69, 0
1, 58799, Note_on_c, 0, 63, 0
1, 58800, Note_on_c, 0, 69, 33
1, 58800, Note_on_c, 0, 65, 33
1, 58919, Note_on_c, 0, 65, 0
1, 58920, Note_on_c, 0, 63, 33
1, 59039, Note_on_c, 0, 69, 0
1, 59039, Note_on_c, 0, 63, 0
1, 59040, Note_on_c, 0, 70, 33
1, 59040, Note_on_c, 0, 62, 33
1, 59159, Note_on_c, 0, 62, 0
1, 59160, Note_on_c, 0, 60, 33
1, 59279, Note_on_c, 0, 70, 0
1, 59279, Note_on_c, 0, 60, 0
1, 59280, Note_on_c, 0, 58, 33
1, 59399, Note_on_c, 0, 58, 0
1, 59400, Note_on_c, 0, 67, 33
1, 59519, Note_on_c, 0, 67, 0
1, 59520, Note_on_c, 0, 70, 33
1, 59520, Note_on_c, 0, 65, 33
1, 59639, Note_on_c, 0, 65, 0
1, 59640, Note_on_c, 0, 63, 33
1, 59759, Note_on_c, 0, 70, 0
1, 59759, Note_on_c, 0, 63, 0
1, 59760, Note_on_c, 0, 70, 33
1, 59760, Note_on_c, 0, 62, 33
1, 59879, Note_on_c, 0, 62, 0
1, 59880, Note_on_c, 0, 60, 33
1, 59999, Note_on_c, 0, 70, 0
1, 59999, Note_on_c, 0, 60, 0
1, 60000, Note_on_c, 0, 58, 33
1, 60119, Note_on_c, 0, 58, 0
1, 60120, Note_on_c, 0, 67, 33
1, 60239, Note_on_c, 0, 67, 0
1, 60240, Note_on_c, 0, 70, 33
1, 60240, Note_on_c, 0, 65, 33
1, 60359, Note_on_c, 0, 65, 0
1, 60360, Note_on_c, 0, 63, 33
1, 60479, Note_on_c, 0, 70, 0
1, 60479, Note_on_c, 0, 63, 0
1, 60480, Note_on_c, 0, 70, 33
1, 60480, Note_on_c, 0, 62, 33
1, 60599, Note_on_c, 0, 62, 0
1, 60600, Note_on_c, 0, 60, 33
1, 60719, Note_on_c, 0, 70, 0
1, 60719, Note_on_c, 0, 60, 0
1, 60720, Note_on_c, 0, 58, 33
1, 60839, Note_on_c, 0, 58, 0
1, 60840, Note_on_c, 0, 60, 33
1, 60959, Note_on_c, 0, 60, 0
1, 60960, Note_on_c, 0, 62, 38
1, 61079, Note_on_c, 0, 62, 0
1, 61080, Note_on_c, 0, 63, 43
1, 61199, Note_on_c, 0, 63, 0
1, 61200, Note_on_c, 0, 65, 49
1, 61319, Note_on_c, 0, 65, 0
1, 61320, Note_on_c, 0, 67, 46
1, 61439, Note_on_c, 0, 67, 0
1, 61440, Note_on_c, 0, 68, 43
1, 61559, Note_on_c, 0, 68, 0
1, 61560, Note_on_c, 0, 68, 40
1, 61679, Note_on_c, 0, 68, 0
1, 61680, Note_on_c, 0, 71, 37
1, 61680, Note_on_c, 0, 67, 37
1, 61799, Note_on_c, 0, 67, 0
1, 61800, Note_on_c, 0, 65, 33
1, 61919, Note_on_c, 0, 71, 0
1, 61919, Note_on_c, 0, 65, 0
1, 61920, Note_on_c, 0, 72, 33
1, 61920, Note_on_c, 0, 64, 33
1, 62039, Note_on_c, 0, 64, 0
1, 62040, Note_on_c, 0, 62, 33
1, 62159, Note_on_c, 0, 72, 0
1, 62159, Note_on_c, 0, 62, 0
1, 62160, Note_on_c, 0, 60, 33
1, 62160, Note_on_c, 0, 60, 0
1, 62280, Note_on_c, 0, 68, 33
1, 62399, Note_on_c, 0, 68, 0
1, 62400, Note_on_c, 0, 71, 33
1, 62400, Note_on_c, 0, 67, 33
1, 62519, Note_on_c, 0, 67, 0
1, 62520, Note_on_c, 0, 65, 33
1, 62639, Note_on_c, 0, 71, 0
1, 62639, Note_on_c, 0, 65, 0
1, 62640, Note_on_c, 0, 72, 33
1, 62640, Note_on_c, 0, 64, 33
1, 62759, Note_on_c, 0, 64, 0
1, 62760, Note_on_c, 0, 62, 33
1, 62879, Note_on_c, 0, 72, 0
1, 62879, Note_on_c, 0, 62, 0
1, 62880, Note_on_c, 0, 60, 33
1, 62880, Note_on_c, 0, 60, 0
1, 63000, Note_on_c, 0, 68, 33
1, 63119, Note_on_c, 0, 68, 0
1, 63120, Note_on_c, 0, 71, 33
1, 63120, Note_on_c, 0, 67, 33
1, 63239, Note_on_c, 0, 67, 0
1, 63240, Note_on_c, 0, 65, 33
1, 63359, Note_on_c, 0, 71, 0
1, 63359, Note_on_c, 0, 65, 0
1, 63360, Note_on_c, 0, 72, 33
1, 63360, Note_on_c, 0, 64, 33
1, 63479, Note_on_c, 0, 64, 0
1, 63480, Note_on_c, 0, 62, 33
1, 63599, Note_on_c, 0, 72, 0
1, 63599, Note_on_c, 0, 62, 0
1, 63600, Note_on_c, 0, 60, 33
1, 63600, Note_on_c, 0, 60, 0
1, 63720, Note_on_c, 0, 62, 33
1, 63839, Note_on_c, 0, 62, 0
1, 63840, Note_on_c, 0, 64, 38
1, 63959, Note_on_c, 0, 64, 0
1, 63960, Note_on_c, 0, 65, 43
1, 64079, Note_on_c, 0, 65, 0
1, 64080, Note_on_c, 0, 67, 49
1, 64199, Note_on_c, 0, 67, 0
1, 64200, Note_on_c, 0, 69, 41
1, 64319, Note_on_c, 0, 69, 0
1, 64320, Note_on_c, 0, 70, 33
1, 64439, Note_on_c, 0, 70, 0
1, 64440, Note_on_c, 0, 70, 33
1, 64559, Note_on_c, 0, 70, 0
1, 64560, Note_on_c, 0, 73, 33
1, 64560, Note_on_c, 0, 69, 33
1, 64679, Note_on_c, 0, 69, 0
1, 64680, Note_on_c, 0, 67, 33
1, 64799, Note_on_c, 0, 73, 0
1, 64799, Note_on_c, 0, 67, 0
1, 64800, Note_on_c, 0, 74, 33
1, 64800, Note_on_c, 0, 66, 33
1, 64919, Note_on_c, 0, 66, 0
1, 64920, Note_on_c, 0, 64, 33
1, 65039, Note_on_c, 0, 74, 0
1, 65039, Note_on_c, 0, 64, 0
1, 65040, Note_on_c, 0, 62, 33
1, 65040, Note_on_c, 0, 62, 0
1, 65160, Note_on_c, 0, 70, 33
1, 65279, Note_on_c, 0, 70, 0
1, 65280, Note_on_c, 0, 73, 33
1, 65280, Note_on_c, 0, 69, 33
1, 65399, Note_on_c, 0, 69, 0
1, 65400, Note_on_c, 0, 67, 33
1, 65519, Note_on_c, 0, 73, 0
1, 65519, Note_on_c, 0, 67, 0
1, 65520, Note_on_c, 0, 74, 33
1, 65520, Note_on_c, 0, 66, 33
1, 65639, Note_on_c, 0, 66, 0
1, 65640, Note_on_c, 0, 64, 33
1, 65759, Note_on_c, 0, 74, 0
1, 65759, Note_on_c, 0, 64, 0
1, 65760, Note_on_c, 0, 62, 33
1, 65760, Note_on_c, 0, 62, 0
1, 65880, Note_on_c, 0, 70, 33
1, 65999, Note_on_c, 0, 70, 0
1, 66000, Note_on_c, 0, 73, 33
1, 66000, Note_on_c, 0, 69, 33
1, 66119, Note_on_c, 0, 69, 0
1, 66120, Note_on_c, 0, 67, 33
1, 66239, Note_on_c, 0, 73, 0
1, 66239, Note_on_c, 0, 67, 0
1, 66240, Note_on_c, 0, 74, 33
1, 66240, Note_on_c, 0, 66, 33
1, 66359, Note_on_c, 0, 66, 0
1, 66360, Note_on_c, 0, 64, 33
1, 66479, Note_on_c, 0, 74, 0
1, 66479, Note_on_c, 0, 64, 0
1, 66480, Note_on_c, 0, 62, 33
1, 66480, Note_on_c, 0, 62, 0
1, 66600, Note_on_c, 0, 64, 33
1, 66719, Note_on_c, 0, 64, 0
1, 66720, Note_on_c, 0, 66, 33
1, 66839, Note_on_c, 0, 66, 0
1, 66840, Note_on_c, 0, 67, 33
1, 66959, Note_on_c, 0, 67, 0
1, 66960, Note_on_c, 0, 69, 34
1, 67079, Note_on_c, 0, 69, 0
1, 67080, Note_on_c, 0, 67, 35
1, 67199, Note_on_c, 0, 67, 0
1, 67200, Note_on_c, 0, 66, 36
1, 67319, Note_on_c, 0, 66, 0
1, 67320, Note_on_c, 0, 67, 37
1, 67439, Note_on_c, 0, 67, 0
1, 67440, Note_on_c, 0, 69, 38
1, 67559, Note_on_c, 0, 69, 0
1, 67560, Note_on_c, 0, 70, 39
1, 67679, Note_on_c, 0, 70, 0
1, 67680, Note_on_c, 0, 69, 40
1, 67680, Note_on_c, 0, 72, 40
1, 67799, Note_on_c, 0, 69, 0
1, 67799, Note_on_c, 0, 72, 0
1, 67800, Note_on_c, 0, 70, 41
1, 67919, Note_on_c, 0, 70, 0
1, 67920, Note_on_c, 0, 66, 41
1, 67920, Note_on_c, 0, 69, 41
1, 68039, Note_on_c, 0, 66, 0
1, 68039, Note_on_c, 0, 69, 0
1, 68040, Note_on_c, 0, 70, 42
1, 68159, Note_on_c, 0, 70, 0
1, 68160, Note_on_c, 0, 69, 43
1, 68160, Note_on_c, 0, 72, 43
1, 68279, Note_on_c, 0, 69, 0
1, 68279, Note_on_c, 0, 72, 0
1, 68280, Note_on_c, 0, 74, 44
1, 68399, Note_on_c, 0, 74, 0
1, 68400, Note_on_c, 0, 72, 45
1, 68400, Note_on_c, 0, 75, 45
1, 68519, Note_on_c, 0, 72, 0
1, 68519, Note_on_c, 0, 75, 0
1, 68520, Note_on_c, 0, 74, 46
1, 68639, Note_on_c, 0, 74, 0
1, 68640, Note_on_c, 0, 69, 47
1, 68640, Note_on_c, 0, 72, 47
1, 68759, Note_on_c, 0, 69, 0
1, 68759, Note_on_c, 0, 72, 0
1, 68760, Note_on_c, 0, 74, 48
1, 68879, Note_on_c, 0, 74, 0
1, 68880, Note_on_c, 0, 72, 49
1, 68880, Note_on_c, 0, 76, 49
1, 68999, Note_on_c, 0, 72, 0
1, 68999, Note_on_c, 0, 76, 0
1, 69000, Note_on_c, 0, 78, 48
1, 69119, Note_on_c, 0, 78, 0
1, 69120, Note_on_c, 0, 76, 47
1, 69120, Note_on_c, 0, 79, 47
1, 69239, Note_on_c, 0, 76, 0
1, 69239, Note_on_c, 0, 79, 0
1, 69240, Note_on_c, 0, 78, 46
1, 69359, Note_on_c, 0, 78, 0
1, 69360, Note_on_c, 0, 72, 45
1, 69360, Note_on_c, 0, 76, 45
1, 69479, Note_on_c, 0, 72, 0
1, 69479, Note_on_c, 0, 76, 0
1, 69480, Note_on_c, 0, 78, 44
1, 69599, Note_on_c, 0, 78, 0
1, 69600, Note_on_c, 0, 76, 43
1, 69600, Note_on_c, 0, 79, 43
1, 69719, Note_on_c, 0, 76, 0
1, 69719, Note_on_c, 0, 79, 0
1, 69720, Note_on_c, 0, 78, 41
1, 69720, Note_on_c, 0, 81, 41
1, 69839, Note_on_c, 0, 78, 0
1, 69839, Note_on_c, 0, 81, 0
1, 69840, Note_on_c, 0, 79, 40
1, 69840, Note_on_c, 0, 82, 40
1, 69959, Note_on_c, 0, 79, 0
1, 69959, Note_on_c, 0, 82, 0
1, 69960, Note_on_c, 0, 78, 39
1, 69960, Note_on_c, 0, 81, 39
1, 70079, Note_on_c, 0, 78, 0
1, 70079, Note_on_c, 0, 81, 0
1, 70080, Note_on_c, 0, 76, 38
1, 70080, Note_on_c, 0, 79, 38
1, 70199, Note_on_c, 0, 76, 0
1, 70199, Note_on_c, 0, 79, 0
1, 70200, Note_on_c, 0, 78, 37
1, 70200, Note_on_c, 0, 81, 37
1, 70319, Note_on_c, 0, 78, 0
1, 70319, Note_on_c, 0, 81, 0
1, 70320, Note_on_c, 0, 79, 36
1, 70320, Note_on_c, 0, 82, 36
1, 70439, Note_on_c, 0, 79, 0
1, 70439, Note_on_c, 0, 82, 0
1, 70440, Note_on_c, 0, 81, 35
1, 70440, Note_on_c, 0, 84, 35
1, 70559, Note_on_c, 0, 81, 0
1, 70559, Note_on_c, 0, 84, 0
1, 70560, Note_on_c, 0, 82, 33
1, 70560, Note_on_c, 0, 86, 33
1, 70679, Note_on_c, 0, 82, 0
1, 70679, Note_on_c, 0, 86, 0
1, 70800, Note_on_c, 0, 81, 33
1, 70800, Note_on_c, 0, 84, 33
1, 70919, Note_on_c, 0, 81, 0
1, 70919, Note_on_c, 0, 84, 0
1, 70920, Note_on_c, 0, 82, 33
1, 71039, Note_on_c, 0, 82, 0
1, 71040, Note_on_c, 0, 81, 33
1, 71040, Note_on_c, 0, 84, 33
1, 71159, Note_on_c, 0, 81, 0
1, 71159, Note_on_c, 0, 84, 0
1, 71160, Note_on_c, 0, 81, 33
1, 71279, Note_on_c, 0, 81, 0
1, 71280, Note_on_c, 0, 79, 33
1, 71280, Note_on_c, 0, 82, 33
1, 71399, Note_on_c, 0, 79, 0
1, 71399, Note_on_c, 0, 82, 0
1, 71520, Note_on_c, 0, 79, 33
1, 71639, Note_on_c, 0, 79, 0
1, 71760, Note_on_c, 0, 74, 33
1, 71879, Note_on_c, 0, 74, 0
1, 72000, Note_on_c, 0, 74, 33
1, 72000, Note_on_c, 0, 79, 33
1, 72000, Note_on_c, 0, 82, 33
1, 72119, Note_on_c, 0, 74, 0
1, 72119, Note_on_c, 0, 79, 0
1, 72119, Note_on_c, 0, 82, 0
1, 72240, Note_on_c, 0, 72, 33
1, 72240, Note_on_c, 0, 81, 33
1, 72359, Note_on_c, 0, 72, 0
1, 72359, Note_on_c, 0, 81, 0
1, 72360, Note_on_c, 0, 79, 33
1, 72479, Note_on_c, 0, 79, 0
1, 72480, Note_on_c, 0, 72, 33
1, 72480, Note_on_c, 0, 81, 33
1, 72599, Note_on_c, 0, 72, 0
1, 72599, Note_on_c, 0, 81, 0
1, 72600, Note_on_c, 0, 78, 33
1, 72719, Note_on_c, 0, 78, 0
1, 72720, Note_on_c, 0, 79, 33
1, 72839, Note_on_c, 0, 79, 0
1, 72960, Note_on_c, 0, 70, 33
1, 72960, Note_on_c, 0, 74, 33
1, 73079, Note_on_c, 0, 70, 0
1, 73079, Note_on_c, 0, 74, 0
1, 73200, Note_on_c, 0, 67, 33
1, 73200, Note_on_c, 0, 70, 33
1, 73319, Note_on_c, 0, 67, 0
1, 73319, Note_on_c, 0, 70, 0
1, 73440, Note_on_c, 0, 74, 33
1, 73440, Note_on_c, 0, 70, 33
1, 73559, Note_on_c, 0, 70, 0
1, 73680, Note_on_c, 0, 69, 33
1, 73799, Note_on_c, 0, 69, 0
1, 73800, Note_on_c, 0, 67, 33
1, 73919, Note_on_c, 0, 67, 0
1, 73920, Note_on_c, 0, 69, 33
1, 74039, Note_on_c, 0, 69, 0
1, 74040, Note_on_c, 0, 66, 33
1, 74159, Note_on_c, 0, 66, 0
1, 74160, Note_on_c, 0, 67, 33
1, 74279, Note_on_c, 0, 67, 0
1, 74399, Note_on_c, 0, 74, 0
1, 74400, Note_on_c, 0, 74, 33
1, 74400, Note_on_c, 0, 69, 33
1, 74519, Note_on_c, 0, 69, 0
1, 74520, Note_on_c, 0, 67, 33
1, 74639, Note_on_c, 0, 67, 0
1, 74640, Note_on_c, 0, 69, 33
1, 74759, Note_on_c, 0, 69, 0
1, 74760, Note_on_c, 0, 66, 33
1, 74879, Note_on_c, 0, 66, 0
1, 74880, Note_on_c, 0, 67, 33
1, 74999, Note_on_c, 0, 67, 0
1, 75119, Note_on_c, 0, 74, 0
1, 75120, Note_on_c, 0, 74, 33
1, 75120, Note_on_c, 0, 69, 33
1, 75239, Note_on_c, 0, 69, 0
1, 75240, Note_on_c, 0, 67, 33
1, 75359, Note_on_c, 0, 67, 0
1, 75360, Note_on_c, 0, 69, 33
1, 75479, Note_on_c, 0, 69, 0
1, 75480, Note_on_c, 0, 66, 33
1, 75599, Note_on_c, 0, 66, 0
1, 75600, Note_on_c, 0, 67, 33
1, 75719, Note_on_c, 0, 67, 0
1, 75720, Note_on_c, 0, 69, 33
1, 75839, Note_on_c, 0, 74, 0
1, 75839, Note_on_c, 0, 69, 0
1, 75840, Note_on_c, 0, 70, 33
1, 75959, Note_on_c, 0, 70, 0
1, 75960, Note_on_c, 0, 73, 33
1, 76079, Note_on_c, 0, 73, 0
1, 76080, Note_on_c, 0, 74, 33
1, 76199, Note_on_c, 0, 74, 0
1, 76200, Note_on_c, 0, 73, 33
1, 76200, Note_on_c, 0, 76, 33
1, 76319, Note_on_c, 0, 73, 0
1, 76319, Note_on_c, 0, 76, 0
1, 76320, Note_on_c, 0, 74, 33
1, 76320, Note_on_c, 0, 77, 33
1, 76320, Note_on_c, 0, 81, 33
1, 76439, Note_on_c, 0, 74, 0
1, 76439, Note_on_c, 0, 77, 0
1, 76439, Note_on_c, 0, 81, 0
1, 76560, Note_on_c, 0, 76, 33
1, 76560, Note_on_c, 0, 79, 33
1, 76679, Note_on_c, 0, 76, 0
1, 76679, Note_on_c, 0, 79, 0
1, 76680, Note_on_c, 0, 77, 33
1, 76799, Note_on_c, 0, 77, 0
1, 76800, Note_on_c, 0, 76, 33
1, 76800, Note_on_c, 0, 79, 33
1, 76919, Note_on_c, 0, 76, 0
1, 76919, Note_on_c, 0, 79, 0
1, 76920, Note_on_c, 0, 76, 33
1, 77039, Note_on_c, 0, 76, 0
1, 77040, Note_on_c, 0, 74, 33
1, 77040, Note_on_c, 0, 77, 33
1, 77159, Note_on_c, 0, 74, 0
1, 77159, Note_on_c, 0, 77, 0
1, 77160, Note_on_c, 0, 74, 33
1, 77279, Note_on_c, 0, 74, 0
1, 77280, Note_on_c, 0, 77, 33
1, 77399, Note_on_c, 0, 77, 0
1, 77400, Note_on_c, 0, 81, 33
1, 77519, Note_on_c, 0, 81, 0
1, 77520, Note_on_c, 0, 86, 33
1, 77639, Note_on_c, 0, 86, 0
1, 77640, Note_on_c, 0, 89, 33
1, 77759, Note_on_c, 0, 89, 0
1, 77760, Note_on_c, 0, 93, 33
1, 77879, Note_on_c, 0, 93, 0
1, 78000, Note_on_c, 0, 67, 33
1, 78000, Note_on_c, 0, 76, 33
1, 78119, Note_on_c, 0, 67, 0
1, 78119, Note_on_c, 0, 76, 0
1, 78120, Note_on_c, 0, 74, 33
1, 78239, Note_on_c, 0, 74, 0
1, 78240, Note_on_c, 0, 67, 33
1, 78240, Note_on_c, 0, 76, 33
1, 78359, Note_on_c, 0, 67, 0
1, 78359, Note_on_c, 0, 76, 0
1, 78360, Note_on_c, 0, 73, 33
1, 78479, Note_on_c, 0, 73, 0
1, 78480, Note_on_c, 0, 65, 33
1, 78480, Note_on_c, 0, 74, 33
1, 78539, Note_on_c, 0, 65, 0
1, 78539, Note_on_c, 0, 74, 0
1, 78600, Note_on_c, 0, 62, 33
1, 78719, Note_on_c, 0, 62, 0
1, 78720, Note_on_c, 0, 65, 33
1, 78839, Note_on_c, 0, 65, 0
1, 78840, Note_on_c, 0, 69, 33
1, 78959, Note_on_c, 0, 69, 0
1, 78960, Note_on_c, 0, 74, 33
1, 79079, Note_on_c, 0, 74, 0
1, 79080, Note_on_c, 0, 77, 33
1, 79199, Note_on_c, 0, 77, 0
1, 79200, Note_on_c, 0, 81, 33
1, 79319, Note_on_c, 0, 81, 0
1, 79440, Note_on_c, 0, 69, 33
1, 79440, Note_on_c, 0, 64, 33
1, 79559, Note_on_c, 0, 64, 0
1, 79560, Note_on_c, 0, 62, 33
1, 79679, Note_on_c, 0, 62, 0
1, 79680, Note_on_c, 0, 64, 33
1, 79799, Note_on_c, 0, 64, 0
1, 79800, Note_on_c, 0, 61, 33
1, 79919, Note_on_c, 0, 61, 0
1, 79920, Note_on_c, 0, 62, 33
1, 80039, Note_on_c, 0, 62, 0
1, 80159, Note_on_c, 0, 69, 0
1, 80160, Note_on_c, 0, 69, 33
1, 80160, Note_on_c, 0, 64, 33
1, 80279, Note_on_c, 0, 64, 0
1, 80280, Note_on_c, 0, 62, 33
1, 80399, Note_on_c, 0, 62, 0
1, 80400, Note_on_c, 0, 64, 33
1, 80519, Note_on_c, 0, 64, 0
1, 80520, Note_on_c, 0, 61, 33
1, 80639, Note_on_c, 0, 61, 0
1, 80640, Note_on_c, 0, 62, 33
1, 80759, Note_on_c, 0, 62, 0
1, 80879, Note_on_c, 0, 69, 0
1, 80880, Note_on_c, 0, 69, 33
1, 80880, Note_on_c, 0, 64, 33
1, 80999, Note_on_c, 0, 64, 0
1, 81000, Note_on_c, 0, 62, 33
1, 81119, Note_on_c, 0, 62, 0
1, 81120, Note_on_c, 0, 64, 33
1, 81239, Note_on_c, 0, 64, 0
1, 81240, Note_on_c, 0, 61, 33
1, 81359, Note_on_c, 0, 61, 0
1, 81360, Note_on_c, 0, 62, 33
1, 81479, Note_on_c, 0, 62, 0
1, 81480, Note_on_c, 0, 64, 33
1, 81599, Note_on_c, 0, 69, 0
1, 81599, Note_on_c, 0, 64, 0
1, 81600, Note_on_c, 0, 65, 33
1, 81719, Note_on_c, 0, 65, 0
1, 81720, Note_on_c, 0, 67, 33
1, 81839, Note_on_c, 0, 67, 0
1, 81840, Note_on_c, 0, 69, 33
1, 81959, Note_on_c, 0, 69, 0
1, 81960, Note_on_c, 0, 68, 33
1, 81960, Note_on_c, 0, 71, 33
1, 82079, Note_on_c, 0, 68, 0
1, 82079, Note_on_c, 0, 71, 0
1, 82080, Note_on_c, 0, 69, 33
1, 82080, Note_on_c, 0, 73, 33
1, 82319, Note_on_c, 0, 69, 0
1, 82319, Note_on_c, 0, 73, 0
1, 82320, Note_on_c, 0, 57, 49
1, 82439, Note_on_c, 0, 57, 0
1, 82440, Note_on_c, 0, 45, 49
1, 82559, Note_on_c, 0, 45, 0
1, 82560, Note_on_c, 0, 57, 49
1, 82679, Note_on_c, 0, 57, 0
1, 82680, Note_on_c, 0, 45, 49
1, 82799, Note_on_c, 0, 45, 0
1, 82800, Note_on_c, 0, 57, 49
1, 82919, Note_on_c, 0, 57, 0
1, 82920, Note_on_c, 0, 57, 49
1, 83039, Note_on_c, 0, 57, 0
1, 83040, Note_on_c, 0, 69, 50
1, 83159, Note_on_c, 0, 69, 0
1, 83160, Note_on_c, 0, 69, 51
1, 83279, Note_on_c, 0, 69, 0
1, 83280, Note_on_c, 0, 81, 52
1, 83399, Note_on_c, 0, 81, 0
1, 83400, Note_on_c, 0, 69, 53
1, 83519, Note_on_c, 0, 69, 0
1, 83520, Note_on_c, 0, 69, 54
1, 83520, Note_on_c, 0, 70, 54
1, 83760, Note_on_c, 0, 58, 57
1, 83880, Note_on_c, 0, 46, 58
1, 83999, Note_on_c, 0, 46, 0
1, 84000, Note_on_c, 0, 58, 0
1, 84000, Note_on_c, 0, 58, 59
1, 84120, Note_on_c, 0, 46, 60
1, 84239, Note_on_c, 0, 69, 0
1, 84239, Note_on_c, 0, 70, 0
1, 84239, Note_on_c, 0, 46, 0
1, 84239, Note_on_c, 0, 58, 0
1, 84240, Note_on_c, 0, 58, 61
1, 84359, Note_on_c, 0, 58, 0
1, 84360, Note_on_c, 0, 57, 62
1, 84479, Note_on_c, 0, 57, 0
1, 84480, Note_on_c, 0, 69, 63
1, 84599, Note_on_c, 0, 69, 0
1, 84600, Note_on_c, 0, 69, 65
1, 84719, Note_on_c, 0, 69, 0
1, 84720, Note_on_c, 0, 81, 66
1, 84839, Note_on_c, 0, 81, 0
1, 84840, Note_on_c, 0, 69, 67
1, 84959, Note_on_c, 0, 69, 0
1, 84960, Note_on_c, 0, 69, 68
1, 84960, Note_on_c, 0, 71, 68
1, 85200, Note_on_c, 0, 59, 70
1, 85320, Note_on_c, 0, 47, 71
1, 85439, Note_on_c, 0, 47, 0
1, 85440, Note_on_c, 0, 59, 0
1, 85440, Note_on_c, 0, 59, 73
1, 85560, Note_on_c, 0, 47, 74
1, 85679, Note_on_c, 0, 69, 0
1, 85679, Note_on_c, 0, 71, 0
1, 85679, Note_on_c, 0, 47, 0
1, 85679, Note_on_c, 0, 59, 0
1, 85680, Note_on_c, 0, 59, 75
1, 85799, Note_on_c, 0, 59, 0
1, 85800, Note_on_c, 0, 57, 76
1, 85919, Note_on_c, 0, 57, 0
1, 85920, Note_on_c, 0, 69, 77
1, 86039, Note_on_c, 0, 69, 0
1, 86040, Note_on_c, 0, 69, 78
1, 86159, Note_on_c, 0, 69, 0
1, 86160, Note_on_c, 0, 81, 79
1, 86279, Note_on_c, 0, 81, 0
1, 86280, Note_on_c, 0, 69, 81
1, 86399, Note_on_c, 0, 69, 0
1, 86400, Note_on_c, 0, 69, 82
1, 86400, Note_on_c, 0, 72, 82
1, 86640, Note_on_c, 0, 60, 84
1, 86760, Note_on_c, 0, 48, 85
1, 86879, Note_on_c, 0, 48, 0
1, 86880, Note_on_c, 0, 60, 0
1, 86880, Note_on_c, 0, 60, 86
1, 87000, Note_on_c, 0, 48, 87
1, 87119, Note_on_c, 0, 69, 0
1, 87119, Note_on_c, 0, 72, 0
1, 87119, Note_on_c, 0, 48, 0
1, 87119, Note_on_c, 0, 60, 0
1, 87120, Note_on_c, 0, 60, 89
1, 87239, Note_on_c, 0, 60, 0
1, 87240, Note_on_c, 0, 57, 90
1, 87359, Note_on_c, 0, 57, 0
1, 87360, Note_on_c, 0, 69, 91
1, 87479, Note_on_c, 0, 69, 0
1, 87480, Note_on_c, 0, 69, 92
1, 87599, Note_on_c, 0, 69, 0
1, 87600, Note_on_c, 0, 81, 93
1, 87719, Note_on_c, 0, 81, 0
1, 87720, Note_on_c, 0, 69, 94
1, 87839, Note_on_c, 0, 69, 0
1, 87840, Note_on_c, 0, 70, 96
1, 87840, Note_on_c, 0, 73, 96
1, 87959, Note_on_c, 0, 70, 0
1, 87959, Note_on_c, 0, 73, 0
1, 87960, Note_on_c, 0, 69, 96
1, 88079, Note_on_c, 0, 69, 0
1, 88200, Note_on_c, 0, 69, 96
1, 88319, Note_on_c, 0, 69, 0
1, 88320, Note_on_c, 0, 81, 96
1, 88439, Note_on_c, 0, 81, 0
1, 88440, Note_on_c, 0, 69, 96
1, 88559, Note_on_c, 0, 69, 0
1, 88560, Note_on_c, 0, 71, 96
1, 88560, Note_on_c, 0, 74, 96
1, 88679, Note_on_c, 0, 71, 0
1, 88679, Note_on_c, 0, 74, 0
1, 88680, Note_on_c, 0, 69, 96
1, 88799, Note_on_c, 0, 69, 0
1, 88920, Note_on_c, 0, 69, 96
1, 89039, Note_on_c, 0, 69, 0
1, 89040, Note_on_c, 0, 81, 96
1, 89159, Note_on_c, 0, 81, 0
1, 89160, Note_on_c, 0, 69, 96
1, 89279, Note_on_c, 0, 69, 0
1, 89280, Note_on_c, 0, 72, 96
1, 89280, Note_on_c, 0, 75, 96
1, 89399, Note_on_c, 0, 72, 0
1, 89399, Note_on_c, 0, 75, 0
1, 89400, Note_on_c, 0, 69, 96
1, 89519, Note_on_c, 0, 69, 0
1, 89640, Note_on_c, 0, 69, 96
1, 89759, Note_on_c, 0, 69, 0
1, 89760, Note_on_c, 0, 81, 96
1, 89879, Note_on_c, 0, 81, 0
1, 89880, Note_on_c, 0, 69, 96
1, 89999, Note_on_c, 0, 69, 0
1, 90000, Note_on_c, 0, 73, 96
1, 90000, Note_on_c, 0, 76, 96
1, 90119, Note_on_c, 0, 73, 0
1, 90119, Note_on_c, 0, 76, 0
1, 90120, Note_on_c, 0, 69, 96
1, 90239, Note_on_c, 0, 69, 0
1, 90360, Note_on_c, 0, 69, 96
1, 90479, Note_on_c, 0, 69, 0
1, 90480, Note_on_c, 0, 81, 96
1, 90599, Note_on_c, 0, 81, 0
1, 90600, Note_on_c, 0, 69, 96
1, 90719, Note_on_c, 0, 69, 0
1, 90720, Note_on_c, 0, 74, 96
1, 90720, Note_on_c, 0, 77, 96
1, 90839, Note_on_c, 0, 74, 0
1, 90839, Note_on_c, 0, 77, 0
1, 90840, Note_on_c, 0, 74, 96
1, 90959, Note_on_c, 0, 74, 0
1, 90960, Note_on_c, 0, 75, 96
1, 90960, Note_on_c, 0, 78, 96
1, 91079, Note_on_c, 0, 75, 0
1, 91079, Note_on_c, 0, 78, 0
1, 91080, Note_on_c, 0, 75, 96
1, 91199, Note_on_c, 0, 75, 0
1, 91200, Note_on_c, 0, 76, 96
1, 91200, Note_on_c, 0, 79, 96
1, 91319, Note_on_c, 0, 76, 0
1, 91319, Note_on_c, 0, 79, 0
1, 91320, Note_on_c, 0, 76, 96
1, 91439, Note_on_c, 0, 76, 0
1, 91440, Note_on_c, 0, 79, 96
1, 91440, Note_on_c, 0, 82, 96
1, 91559, Note_on_c, 0, 79, 0
1, 91559, Note_on_c, 0, 82, 0
1, 91560, Note_on_c, 0, 79, 96
1, 91679, Note_on_c, 0, 79, 0
1, 91680, Note_on_c, 0, 78, 96
1, 91680, Note_on_c, 0, 81, 96
1, 91799, Note_on_c, 0, 78, 0
1, 91799, Note_on_c, 0, 81, 0
1, 91800, Note_on_c, 0, 78, 96
1, 91919, Note_on_c, 0, 78, 0
1, 91920, Note_on_c, 0, 76, 96
1, 91920, Note_on_c, 0, 85, 96
1, 92039, Note_on_c, 0, 76, 0
1, 92039, Note_on_c, 0, 85, 0
1, 92040, Note_on_c, 0, 76, 96
1, 92159, Note_on_c, 0, 76, 0
1, 92160, Note_on_c, 0, 78, 96
1, 92160, Note_on_c, 0, 86, 96
1, 92399, Note_on_c, 0, 78, 0
1, 92399, Note_on_c, 0, 86, 0
1, 92400, Note_on_c, 0, 81, 49
1, 92519, Note_on_c, 0, 81, 0
1, 92520, Note_on_c, 0, 84, 49
1, 92639, Note_on_c, 0, 84, 0
1, 92640, Note_on_c, 0, 82, 49
1, 92759, Note_on_c, 0, 82, 0
1, 92760, Note_on_c, 0, 79, 49
1, 92879, Note_on_c, 0, 79, 0
1, 92880, Note_on_c, 0, 78, 49
1, 92999, Note_on_c, 0, 78, 0
1, 93000, Note_on_c, 0, 81, 49
1, 93119, Note_on_c, 0, 81, 0
1, 93120, Note_on_c, 0, 79, 49
1, 93239, Note_on_c, 0, 79, 0
1, 93240, Note_on_c, 0, 74, 49
1, 93359, Note_on_c, 0, 74, 0
1, 93360, Note_on_c, 0, 73, 49
1, 93479, Note_on_c, 0, 73, 0
1, 93480, Note_on_c, 0, 76, 49
1, 93599, Note_on_c, 0, 76, 0
1, 93600, Note_on_c, 0, 74, 49
1, 93719, Note_on_c, 0, 74, 0
1, 93720, Note_on_c, 0, 69, 49
1, 93839, Note_on_c, 0, 69, 0
1, 93840, Note_on_c, 0, 67, 49
1, 93959, Note_on_c, 0, 67, 0
1, 93960, Note_on_c, 0, 70, 49
1, 94079, Note_on_c, 0, 70, 0
1, 94080, Note_on_c, 0, 69, 49
1, 94199, Note_on_c, 0, 69, 0
1, 94200, Note_on_c, 0, 66, 49
1, 94319, Note_on_c, 0, 66, 0
1, 94320, Note_on_c, 0, 64, 49
1, 94439, Note_on_c, 0, 64, 0
1, 94440, Note_on_c, 0, 67, 49
1, 94559, Note_on_c, 0, 67, 0
1, 94560, Note_on_c, 0, 66, 49
1, 94679, Note_on_c, 0, 66, 0
1, 94680, Note_on_c, 0, 62, 49
1, 94799, Note_on_c, 0, 62, 0
1, 94800, Note_on_c, 0, 61, 49
1, 94919, Note_on_c, 0, 61, 0
1, 94920, Note_on_c, 0, 64, 49
1, 95039, Note_on_c, 0, 64, 0
1, 95040, Note_on_c, 0, 62, 49
1, 95159, Note_on_c, 0, 62, 0
1, 95160, Note_on_c, 0, 70, 49
1, 95279, Note_on_c, 0, 70, 0
1, 95280, Note_on_c, 0, 69, 49
1, 95399, Note_on_c, 0, 69, 0
1, 95400, Note_on_c, 0, 72, 49
1, 95519, Note_on_c, 0, 72, 0
1, 95520, Note_on_c, 0, 70, 49
1, 95639, Note_on_c, 0, 70, 0
1, 95640, Note_on_c, 0, 67, 49
1, 95759, Note_on_c, 0, 67, 0
1, 95760, Note_on_c, 0, 66, 49
1, 95879, Note_on_c, 0, 66, 0
1, 95880, Note_on_c, 0, 69, 49
1, 95999, Note_on_c, 0, 69, 0
1, 96000, Note_on_c, 0, 67, 49
1, 96119, Note_on_c, 0, 67, 0
1, 96120, Note_on_c, 0, 62, 49
1, 96239, Note_on_c, 0, 62, 0
1, 96240, Note_on_c, 0, 61, 49
1, 96359, Note_on_c, 0, 61, 0
1, 96360, Note_on_c, 0, 64, 49
1, 96479, Note_on_c, 0, 64, 0
1, 96480, Note_on_c, 0, 62, 49
1, 96480, Note_on_c, 0, 66, 49
1, 96719, Note_on_c, 0, 62, 0
1, 96719, Note_on_c, 0, 66, 0
1, 96720, Note_on_c, 0, 62, 49
1, 96839, Note_on_c, 0, 62, 0
1, 96960, Note_on_c, 0, 66, 49
1, 97079, Note_on_c, 0, 66, 0
1, 97200, Note_on_c, 0, 69, 49
1, 97319, Note_on_c, 0, 69, 0
1, 97440, Note_on_c, 0, 74, 49
1, 97559, Note_on_c, 0, 74, 0
1, 97680, Note_on_c, 0, 81, 49
1, 97799, Note_on_c, 0, 81, 0
1, 97920, Note_on_c, 0, 74, 49
1, 97920, Note_on_c, 0, 86, 49
1, 98039, Note_on_c, 0, 74, 0
1, 98039, Note_on_c, 0, 86, 0
1, 98160, Note_on_c, 0, 62, 49
1, 98279, Note_on_c, 0, 62, 0
1, 98280, Note_on_c, 0, 50, 49
1, 98399, Note_on_c, 0, 50, 0
1, 98400, Note_on_c, 0, 62, 49
1, 98519, Note_on_c, 0, 62, 0
1, 98520, Note_on_c, 0, 50, 49
1, 98639, Note_on_c, 0, 50, 0
1, 98640, Note_on_c, 0, 62, 49
1, 98759, Note_on_c, 0, 62, 0
1, 98760, Note_on_c, 0, 62, 49
1, 98879, Note_on_c, 0, 62, 0
1, 98880, Note_on_c, 0, 74, 49
1, 98999, Note_on_c, 0, 74, 0
1, 99000, Note_on_c, 0, 74, 49
1, 99119, Note_on_c, 0, 74, 0
1, 99120, Note_on_c, 0, 86, 49
1, 99239, Note_on_c, 0, 86, 0
1, 99240, Note_on_c, 0, 74, 49
1, 99359, Note_on_c, 0, 74, 0
1, 99360, Note_on_c, 0, 74, 49
1, 99360, Note_on_c, 0, 75, 49
1, 99600, Note_on_c, 0, 63, 51
1, 99719, Note_on_c, 0, 63, 0
1, 99720, Note_on_c, 0, 51, 52
1, 99839, Note_on_c, 0, 51, 0
1, 99840, Note_on_c, 0, 63, 54
1, 99959, Note_on_c, 0, 63, 0
1, 99960, Note_on_c, 0, 51, 55
1, 100079, Note_on_c, 0, 74, 0
1, 100079, Note_on_c, 0, 75, 0
1, 100079, Note_on_c, 0, 51, 0
1, 100080, Note_on_c, 0, 63, 56
1, 100199, Note_on_c, 0, 63, 0
1, 100200, Note_on_c, 0, 62, 58
1, 100319, Note_on_c, 0, 62, 0
1, 100320, Note_on_c, 0, 74, 59
1, 100439, Note_on_c, 0, 74, 0
1, 100440, Note_on_c, 0, 74, 60
1, 100559, Note_on_c, 0, 74, 0
1, 100560, Note_on_c, 0, 86, 62
1, 100679, Note_on_c, 0, 86, 0
1, 100680, Note_on_c, 0, 74, 63
1, 100799, Note_on_c, 0, 74, 0
1, 100800, Note_on_c, 0, 74, 64
1, 100800, Note_on_c, 0, 76, 64
1, 101040, Note_on_c, 0, 64, 67
1, 101159, Note_on_c, 0, 64, 0
1, 101160, Note_on_c, 0, 52, 68
1, 101280, Note_on_c, 0, 64, 69
1, 101399, Note_on_c, 0, 64, 0
1, 101400, Note_on_c, 0, 52, 0
1, 101400, Note_on_c, 0, 52, 71
1, 101519, Note_on_c, 0, 74, 0
1, 101519, Note_on_c, 0, 76, 0
1, 101519, Note_on_c, 0, 52, 0
1, 101520, Note_on_c, 0, 64, 72
1, 101639, Note_on_c, 0, 64, 0
1, 101640, Note_on_c, 0, 62, 73
1, 101759, Note_on_c, 0, 62, 0
1, 101760, Note_on_c, 0, 74, 75
1, 101879, Note_on_c, 0, 74, 0
1, 101880, Note_on_c, 0, 74, 76
1, 101999, Note_on_c, 0, 74, 0
1, 102000, Note_on_c, 0, 86, 77
1, 102119, Note_on_c, 0, 86, 0
1, 102120, Note_on_c, 0, 74, 79
1, 102239, Note_on_c, 0, 74, 0
1, 102240, Note_on_c, 0, 74, 80
1, 102240, Note_on_c, 0, 77, 80
1, 102480, Note_on_c, 0, 65, 82
1, 102599, Note_on_c, 0, 65, 0
1, 102600, Note_on_c, 0, 53, 84
1, 102720, Note_on_c, 0, 65, 85
1, 102839, Note_on_c, 0, 65, 0
1, 102840, Note_on_c, 0, 53, 0
1, 102840, Note_on_c, 0, 53, 86
1, 102959, Note_on_c, 0, 74, 0
1, 102959, Note_on_c, 0, 77, 0
1, 102959, Note_on_c, 0, 53, 0
1, 102960, Note_on_c, 0, 65, 88
1, 103079, Note_on_c, 0, 65, 0
1, 103080, Note_on_c, 0, 62, 89
1, 103199, Note_on_c, 0, 62, 0
1, 103200, Note_on_c, 0, 74, 90
1, 103319, Note_on_c, 0, 74, 0
1, 103320, Note_on_c, 0, 74, 92
1, 103439, Note_on_c, 0, 74, 0
1, 103440, Note_on_c, 0, 86, 93
1, 103559, Note_on_c, 0, 86, 0
1, 103560, Note_on_c, 0, 74, 94
1, 103679, Note_on_c, 0, 74, 0
1, 103680, Note_on_c, 0, 75, 96
1, 103680, Note_on_c, 0, 78, 96
1, 103799, Note_on_c, 0, 75, 0
1, 103799, Note_on_c, 0, 78, 0
1, 103800, Note_on_c, 0, 66, 96
1, 103919, Note_on_c, 0, 66, 0
1, 104040, Note_on_c, 0, 74, 98
1, 104159, Note_on_c, 0, 74, 0
1, 104160, Note_on_c, 0, 86, 98
1, 104279, Note_on_c, 0, 86, 0
1, 104280, Note_on_c, 0, 74, 99
1, 104399, Note_on_c, 0, 74, 0
1, 104400, Note_on_c, 0, 76, 100
1, 104400, Note_on_c, 0, 79, 100
1, 104519, Note_on_c, 0, 76, 0
1, 104519, Note_on_c, 0, 79, 0
1, 104520, Note_on_c, 0, 70, 100
1, 104639, Note_on_c, 0, 70, 0
1, 104760, Note_on_c, 0, 74, 102
1, 104879, Note_on_c, 0, 74, 0
1, 104880, Note_on_c, 0, 86, 102
1, 104999, Note_on_c, 0, 86, 0
1, 105000, Note_on_c, 0, 74, 103
1, 105119, Note_on_c, 0, 74, 0
1, 105120, Note_on_c, 0, 77, 104
1, 105120, Note_on_c, 0, 80, 104
1, 105239, Note_on_c, 0, 77, 0
1, 105239, Note_on_c, 0, 80, 0
1, 105240, Note_on_c, 0, 68, 104
1, 105359, Note_on_c, 0, 68, 0
1, 105480, Note_on_c, 0, 74, 106
1, 105599, Note_on_c, 0, 74, 0
1, 105600, Note_on_c, 0, 86, 106
1, 105719, Note_on_c, 0, 86, 0
1, 105720, Note_on_c, 0, 74, 107
1, 105839, Note_on_c, 0, 74, 0
1, 105840, Note_on_c, 0, 78, 108
1, 105840, Note_on_c, 0, 81, 108
1, 105959, Note_on_c, 0, 78, 0
1, 105959, Note_on_c, 0, 81, 0
1, 105960, Note_on_c, 0, 69, 108
1, 106079, Note_on_c, 0, 69, 0
1, 106200, Note_on_c, 0, 74, 110
1, 106319, Note_on_c, 0, 74, 0
1, 106320, Note_on_c, 0, 86, 110
1, 106439, Note_on_c, 0, 86, 0
1, 106440, Note_on_c, 0, 74, 111
1, 106559, Note_on_c, 0, 74, 0
1, 106560, Note_on_c, 0, 70, 112
1, 106560, Note_on_c, 0, 79, 112
1, 106560, Note_on_c, 0, 82, 112
1, 106679, Note_on_c, 0, 70, 0
1, 106679, Note_on_c, 0, 79, 0
1, 106679, Note_on_c, 0, 82, 0
1, 106680, Note_on_c, 0, 74, 112
1, 106799, Note_on_c, 0, 74, 0
1, 106800, Note_on_c, 0, 71, 112
1, 106800, Note_on_c, 0, 80, 112
1, 106800, Note_on_c, 0, 83, 112
1, 106919, Note_on_c, 0, 71, 0
1, 106919, Note_on_c, 0, 80, 0
1, 106919, Note_on_c, 0, 83, 0
1, 106920, Note_on_c, 0, 74, 112
1, 107039, Note_on_c, 0, 74, 0
1, 107040, Note_on_c, 0, 72, 112
1, 107040, Note_on_c, 0, 81, 112
1, 107040, Note_on_c, 0, 84, 112
1, 107159, Note_on_c, 0, 72, 0
1, 107159, Note_on_c, 0, 81, 0
1, 107159, Note_on_c, 0, 84, 0
1, 107160, Note_on_c, 0, 74, 112
1, 107279, Note_on_c, 0, 74, 0
1, 107400, Note_on_c, 0, 75, 112
1, 107400, Note_on_c, 0, 84, 112
1, 107400, Note_on_c, 0, 87, 112
1, 107519, Note_on_c, 0, 75, 0
1, 107519, Note_on_c, 0, 84, 0
1, 107519, Note_on_c, 0, 87, 0
1, 107640, Note_on_c, 0, 74, 112
1, 107640, Note_on_c, 0, 83, 112
1, 107640, Note_on_c, 0, 86, 112
1, 107759, Note_on_c, 0, 74, 0
1, 107759, Note_on_c, 0, 83, 0
1, 107759, Note_on_c, 0, 86, 0
1, 107880, Note_on_c, 0, 78, 112
1, 107880, Note_on_c, 0, 90, 112
1, 107999, Note_on_c, 0, 78, 0
1, 107999, Note_on_c, 0, 90, 0
1, 108000, Note_on_c, 0, 79, 96
1, 108000, Note_on_c, 0, 86, 96
1, 108000, Note_on_c, 0, 91, 96
1, 108239, Note_on_c, 0, 79, 0
1, 108239, Note_on_c, 0, 86, 0
1, 108239, Note_on_c, 0, 91, 0
1, 108240, Note_on_c, 0, 77, 49
1, 108359, Note_on_c, 0, 77, 0
1, 108360, Note_on_c, 0, 80, 49
1, 108479, Note_on_c, 0, 80, 0
1, 108480, Note_on_c, 0, 79, 49
1, 108599, Note_on_c, 0, 79, 0
1, 108600, Note_on_c, 0, 75, 49
1, 108719, Note_on_c, 0, 75, 0
1, 108720, Note_on_c, 0, 74, 49
1, 108839, Note_on_c, 0, 74, 0
1, 108840, Note_on_c, 0, 77, 49
1, 108959, Note_on_c, 0, 77, 0
1, 108960, Note_on_c, 0, 75, 49
1, 109079, Note_on_c, 0, 75, 0
1, 109080, Note_on_c, 0, 72, 49
1, 109199, Note_on_c, 0, 72, 0
1, 109200, Note_on_c, 0, 71, 49
1, 109200, Note_on_c, 0, 77, 49
1, 109319, Note_on_c, 0, 71, 0
1, 109319, Note_on_c, 0, 77, 0
1, 109320, Note_on_c, 0, 74, 49
1, 109439, Note_on_c, 0, 74, 0
1, 109440, Note_on_c, 0, 72, 49
1, 109440, Note_on_c, 0, 75, 49
1, 109559, Note_on_c, 0, 72, 0
1, 109559, Note_on_c, 0, 75, 0
1, 109560, Note_on_c, 0, 67, 49
1, 109679, Note_on_c, 0, 67, 0
1, 109680, Note_on_c, 0, 72, 49
1, 109799, Note_on_c, 0, 72, 0
1, 109800, Note_on_c, 0, 75, 49
1, 109919, Note_on_c, 0, 75, 0
1, 109920, Note_on_c, 0, 74, 49
1, 110039, Note_on_c, 0, 74, 0
1, 110040, Note_on_c, 0, 71, 49
1, 110159, Note_on_c, 0, 71, 0
1, 110160, Note_on_c, 0, 79, 58
1, 110160, Note_on_c, 0, 69, 49
1, 110279, Note_on_c, 0, 79, 0
1, 110279, Note_on_c, 0, 69, 0
1, 110280, Note_on_c, 0, 72, 49
1, 110399, Note_on_c, 0, 72, 0
1, 110400, Note_on_c, 0, 71, 49
1, 110519, Note_on_c, 0, 71, 0
1, 110520, Note_on_c, 0, 67, 49
1, 110639, Note_on_c, 0, 67, 0
1, 110640, Note_on_c, 0, 60, 49
1, 110640, Note_on_c, 0, 66, 49
1, 110759, Note_on_c, 0, 60, 0
1, 110759, Note_on_c, 0, 66, 0
1, 110760, Note_on_c, 0, 69, 49
1, 110879, Note_on_c, 0, 69, 0
1, 110880, Note_on_c, 0, 59, 49
1, 110880, Note_on_c, 0, 67, 49
1, 110999, Note_on_c, 0, 59, 0
1, 110999, Note_on_c, 0, 67, 0
1, 111000, Note_on_c, 0, 62, 49
1, 111119, Note_on_c, 0, 62, 0
1, 111120, Note_on_c, 0, 65, 49
1, 111239, Note_on_c, 0, 65, 0
1, 111240, Note_on_c, 0, 68, 49
1, 111359, Note_on_c, 0, 68, 0
1, 111360, Note_on_c, 0, 67, 58
1, 111360, Note_on_c, 0, 67, 0
1, 111600, Note_on_c, 0, 79, 49
1, 111600, Note_on_c, 0, 91, 49
1, 111719, Note_on_c, 0, 79, 0
1, 111719, Note_on_c, 0, 91, 0
1, 111840, Note_on_c, 0, 55, 49
1, 111840, Note_on_c, 0, 63, 49
1, 111959, Note_on_c, 0, 55, 0
1, 111959, Note_on_c, 0, 63, 0
1, 111960, Note_on_c, 0, 60, 49
1, 112079, Note_on_c, 0, 60, 0
1, 112080, Note_on_c, 0, 53, 49
1, 112080, Note_on_c, 0, 59, 49
1, 112199, Note_on_c, 0, 53, 0
1, 112199, Note_on_c, 0, 59, 0
1, 112200, Note_on_c, 0, 62, 49
1, 112319, Note_on_c, 0, 62, 0
1, 112320, Note_on_c, 0, 60, 49
1, 112439, Note_on_c, 0, 60, 0
1, 112440, Note_on_c, 0, 55, 49
1, 112559, Note_on_c, 0, 55, 0
1, 112560, Note_on_c, 0, 67, 49
1, 112560, Note_on_c, 0, 60, 49
1, 112679, Note_on_c, 0, 60, 0
1, 112680, Note_on_c, 0, 63, 49
1, 112799, Note_on_c, 0, 67, 0
1, 112799, Note_on_c, 0, 63, 0
1, 112800, Note_on_c, 0, 71, 49
1, 112800, Note_on_c, 0, 62, 49
1, 112919, Note_on_c, 0, 62, 0
1, 112920, Note_on_c, 0, 59, 49
1, 113039, Note_on_c, 0, 71, 0
1, 113039, Note_on_c, 0, 59, 0
1, 113040, Note_on_c, 0, 74, 49
1, 113040, Note_on_c, 0, 74, 0
1, 113040, Note_on_c, 0, 74, 58
1, 113279, Note_on_c, 0, 74, 0
1, 113280, Note_on_c, 0, 79, 49
1, 113399, Note_on_c, 0, 79, 0
1, 113520, Note_on_c, 0, 86, 49
1, 113639, Note_on_c, 0, 86, 0
1, 113760, Note_on_c, 0, 79, 49
1, 113760, Note_on_c, 0, 91, 49
1, 113879, Note_on_c, 0, 79, 0
1, 113879, Note_on_c, 0, 91, 0
1, 114000, Note_on_c, 0, 67, 49
1, 114119, Note_on_c, 0, 67, 0
1, 114120, Note_on_c, 0, 55, 49
1, 114239, Note_on_c, 0, 55, 0
1, 114240, Note_on_c, 0, 67, 49
1, 114359, Note_on_c, 0, 67, 0
1, 114360, Note_on_c, 0, 55, 49
1, 114479, Note_on_c, 0, 55, 0
1, 114480, Note_on_c, 0, 56, 49
1, 114599, Note_on_c, 0, 56, 0
1, 114600, Note_on_c, 0, 55, 51
1, 114719, Note_on_c, 0, 55, 0
1, 114840, Note_on_c, 0, 56, 56
1, 114959, Note_on_c, 0, 56, 0
1, 114960, Note_on_c, 0, 67, 59
1, 114960, Note_on_c, 0, 68, 59
1, 115079, Note_on_c, 0, 67, 0
1, 115079, Note_on_c, 0, 68, 0
1, 115080, Note_on_c, 0, 56, 62
1, 115199, Note_on_c, 0, 56, 0
1, 115200, Note_on_c, 0, 66, 64
1, 115200, Note_on_c, 0, 69, 64
1, 115259, Note_on_c, 0, 66, 0
1, 115259, Note_on_c, 0, 69, 0
1, 115320, Note_on_c, 0, 57, 67
1, 115439, Note_on_c, 0, 57, 0
1, 115680, Note_on_c, 0, 66, 75
1, 115680, Note_on_c, 0, 69, 75
1, 115799, Note_on_c, 0, 66, 0
1, 115799, Note_on_c, 0, 69, 0
1, 115800, Note_on_c, 0, 66, 77
1, 115919, Note_on_c, 0, 66, 0
1, 115920, Note_on_c, 0, 68, 80
1, 115920, Note_on_c, 0, 70, 80
1, 116039, Note_on_c, 0, 68, 0
1, 116039, Note_on_c, 0, 70, 0
1, 116040, Note_on_c, 0, 65, 82
1, 116159, Note_on_c, 0, 65, 0
1, 116160, Note_on_c, 0, 68, 85
1, 116160, Note_on_c, 0, 70, 85
1, 116279, Note_on_c, 0, 68, 0
1, 116279, Note_on_c, 0, 70, 0
1, 116280, Note_on_c, 0, 70, 88
1, 116399, Note_on_c, 0, 70, 0
1, 116400, Note_on_c, 0, 80, 90
1, 116400, Note_on_c, 0, 82, 90
1, 116519, Note_on_c, 0, 80, 0
1, 116519, Note_on_c, 0, 82, 0
1, 116520, Note_on_c, 0, 70, 93
1, 116640, Note_on_c, 0, 79, 96
1, 116640, Note_on_c, 0, 82, 96
1, 116879, Note_on_c, 0, 70, 0
1, 116879, Note_on_c, 0, 79, 0
1, 116879, Note_on_c, 0, 82, 0
1, 116880, Note_on_c, 0, 58, 96
1, 116999, Note_on_c, 0, 58, 0
1, 117000, Note_on_c, 0, 55, 97
1, 117119, Note_on_c, 0, 55, 0
1, 117120, Note_on_c, 0, 58, 98
1, 117239, Note_on_c, 0, 58, 0
1, 117240, Note_on_c, 0, 55, 99
1, 117359, Note_on_c, 0, 55, 0
1, 117360, Note_on_c, 0, 58, 100
1, 117360, Note_on_c, 0, 60, 100
1, 117479, Note_on_c, 0, 58, 0
1, 117479, Note_on_c, 0, 60, 0
1, 117480, Note_on_c, 0, 55, 101
1, 117599, Note_on_c, 0, 55, 0
1, 117720, Note_on_c, 0, 60, 103
1, 117839, Note_on_c, 0, 60, 0
1, 117840, Note_on_c, 0, 67, 104
1, 117840, Note_on_c, 0, 69, 104
1, 117959, Note_on_c, 0, 67, 0
1, 117959, Note_on_c, 0, 69, 0
1, 117960, Note_on_c, 0, 60, 105
1, 118079, Note_on_c, 0, 60, 0
1, 118080, Note_on_c, 0, 70, 106
1, 118080, Note_on_c, 0, 73, 106
1, 118199, Note_on_c, 0, 70, 0
1, 118199, Note_on_c, 0, 73, 0
1, 118200, Note_on_c, 0, 61, 107
1, 118319, Note_on_c, 0, 61, 0
1, 118560, Note_on_c, 0, 70, 110
1, 118560, Note_on_c, 0, 72, 110
1, 118679, Note_on_c, 0, 70, 0
1, 118679, Note_on_c, 0, 72, 0
1, 118680, Note_on_c, 0, 70, 111
1, 118799, Note_on_c, 0, 70, 0
1, 118800, Note_on_c, 0, 72, 112
1, 118800, Note_on_c, 0, 74, 112
1, 118919, Note_on_c, 0, 72, 0
1, 118919, Note_on_c, 0, 74, 0
1, 118920, Note_on_c, 0, 69, 112
1, 119039, Note_on_c, 0, 69, 0
1, 119040, Note_on_c, 0, 84, 112
1, 119040, Note_on_c, 0, 86, 112
1, 119159, Note_on_c, 0, 84, 0
1, 119159, Note_on_c, 0, 86, 0
1, 119160, Note_on_c, 0, 74, 112
1, 119279, Note_on_c, 0, 74, 0
1, 119280, Note_on_c, 0, 72, 112
1, 119280, Note_on_c, 0, 74, 112
1, 119399, Note_on_c, 0, 72, 0
1, 119399, Note_on_c, 0, 74, 0
1, 119400, Note_on_c, 0, 62, 112
1, 119519, Note_on_c, 0, 62, 0
1, 119520, Note_on_c, 0, 70, 96
1, 119520, Note_on_c, 0, 74, 96
1, 119759, Note_on_c, 0, 70, 0
1, 119759, Note_on_c, 0, 74, 0
1, 119760, Note_on_c, 0, 62, 96
1, 119879, Note_on_c, 0, 62, 0
1, 119880, Note_on_c, 0, 58, 96
1, 119999, Note_on_c, 0, 58, 0
1, 120000, Note_on_c, 0, 62, 97
1, 120119, Note_on_c, 0, 62, 0
1, 120120, Note_on_c, 0, 58, 98
1, 120239, Note_on_c, 0, 58, 0
1, 120240, Note_on_c, 0, 62, 98
1, 120240, Note_on_c, 0, 63, 98
1, 120359, Note_on_c, 0, 62, 0
1, 120359, Note_on_c, 0, 63, 0
1, 120360, Note_on_c, 0, 58, 99
1, 120479, Note_on_c, 0, 58, 0
1, 120600, Note_on_c, 0, 63, 101
1, 120719, Note_on_c, 0, 63, 0
1, 120720, Note_on_c, 0, 74, 101
1, 120720, Note_on_c, 0, 75, 101
1, 120839, Note_on_c, 0, 74, 0
1, 120839, Note_on_c, 0, 75, 0
1, 120840, Note_on_c, 0, 63, 102
1, 120959, Note_on_c, 0, 63, 0
1, 120960, Note_on_c, 0, 73, 103
1, 120960, Note_on_c, 0, 76, 103
1, 121079, Note_on_c, 0, 73, 0
1, 121079, Note_on_c, 0, 76, 0
1, 121080, Note_on_c, 0, 64, 104
1, 121199, Note_on_c, 0, 64, 0
1, 121200, Note_on_c, 0, 73, 104
1, 121200, Note_on_c, 0, 76, 104
1, 121319, Note_on_c, 0, 73, 0
1, 121319, Note_on_c, 0, 76, 0
1, 121320, Note_on_c, 0, 76, 105
1, 121439, Note_on_c, 0, 76, 0
1, 121440, Note_on_c, 0, 85, 106
1, 121440, Note_on_c, 0, 88, 106
1, 121559, Note_on_c, 0, 85, 0
1, 121559, Note_on_c, 0, 88, 0
1, 121560, Note_on_c, 0, 63, 106
1, 121679, Note_on_c, 0, 63, 0
1, 121680, Note_on_c, 0, 87, 107
1, 121680, Note_on_c, 0, 89, 107
1, 121799, Note_on_c, 0, 87, 0
1, 121799, Note_on_c, 0, 89, 0
1, 121800, Note_on_c, 0, 77, 108
1, 121919, Note_on_c, 0, 77, 0
1, 121920, Note_on_c, 0, 75, 109
1, 121920, Note_on_c, 0, 77, 109
1, 122039, Note_on_c, 0, 75, 0
1, 122039, Note_on_c, 0, 77, 0
1, 122040, Note_on_c, 0, 77, 109
1, 122159, Note_on_c, 0, 77, 0
1, 122160, Note_on_c, 0, 87, 110
1, 122160, Note_on_c, 0, 89, 110
1, 122399, Note_on_c, 0, 87, 0
1, 122399, Note_on_c, 0, 89, 0
1, 122400, Note_on_c, 0, 94, 127
1, 122519, Note_on_c, 0, 94, 0
1, 122520, Note_on_c, 0, 82, 112
1, 122639, Note_on_c, 0, 82, 0
1, 122640, Note_on_c, 0, 82, 112
1, 122759, Note_on_c, 0, 82, 0
1, 122760, Note_on_c, 0, 82, 112
1, 122879, Note_on_c, 0, 82, 0
1, 122880, Note_on_c, 0, 82, 112
1, 123119, Note_on_c, 0, 82, 0
1, 123120, Note_on_c, 0, 94, 127
1, 123239, Note_on_c, 0, 94, 0
1, 123240, Note_on_c, 0, 82, 112
1, 123359, Note_on_c, 0, 82, 0
1, 123360, Note_on_c, 0, 82, 112
1, 123479, Note_on_c, 0, 82, 0
1, 123480, Note_on_c, 0, 82, 112
1, 123599, Note_on_c, 0, 82, 0
1, 123600, Note_on_c, 0, 82, 112
1, 123839, Note_on_c, 0, 82, 0
1, 123840, Note_on_c, 0, 94, 127
1, 123959, Note_on_c, 0, 94, 0
1, 123960, Note_on_c, 0, 82, 112
1, 124080, Note_on_c, 0, 82, 0
1, 124080, Note_on_c, 0, 82, 112
1, 124200, Note_on_c, 0, 82, 0
1, 124200, Note_on_c, 0, 82, 112
1, 124320, Note_on_c, 0, 82, 0
1, 124320, Note_on_c, 0, 82, 112
1, 124559, Note_on_c, 0, 82, 0
1, 124560, Note_on_c, 0, 94, 127
1, 124679, Note_on_c, 0, 94, 0
1, 124680, Note_on_c, 0, 82, 112
1, 124799, Note_on_c, 0, 82, 0
1, 124800, Note_on_c, 0, 82, 112
1, 124919, Note_on_c, 0, 82, 0
1, 124920, Note_on_c, 0, 82, 112
1, 125039, Note_on_c, 0, 82, 0
1, 125040, Note_on_c, 0, 82, 112
1, 125279, Note_on_c, 0, 82, 0
1, 125280, Note_on_c, 0, 94, 127
1, 125399, Note_on_c, 0, 94, 0
1, 125400, Note_on_c, 0, 82, 112
1, 125519, Note_on_c, 0, 82, 0
1, 125520, Note_on_c, 0, 82, 112
1, 125639, Note_on_c, 0, 82, 0
1, 125640, Note_on_c, 0, 82, 112
1, 125759, Note_on_c, 0, 82, 0
1, 125760, Note_on_c, 0, 82, 112
1, 125999, Note_on_c, 0, 82, 0
1, 126000, Note_on_c, 0, 78, 112
1, 126000, Note_on_c, 0, 70, 112
1, 126000, Note_on_c, 0, 75, 112
1, 126119, Note_on_c, 0, 70, 0
1, 126119, Note_on_c, 0, 75, 0
1, 126120, Note_on_c, 0, 69, 112
1, 126239, Note_on_c, 0, 69, 0
1, 126240, Note_on_c, 0, 70, 112
1, 126240, Note_on_c, 0, 75, 112
1, 126359, Note_on_c, 0, 70, 0
1, 126359, Note_on_c, 0, 75, 0
1, 126360, Note_on_c, 0, 69, 112
1, 126479, Note_on_c, 0, 69, 0
1, 126480, Note_on_c, 0, 70, 112
1, 126480, Note_on_c, 0, 75, 112
1, 126599, Note_on_c, 0, 70, 0
1, 126599, Note_on_c, 0, 75, 0
1, 126600, Note_on_c, 0, 69, 112
1, 126719, Note_on_c, 0, 78, 0
1, 126719, Note_on_c, 0, 69, 0
1, 126720, Note_on_c, 0, 78, 112
1, 126720, Note_on_c, 0, 70, 112
1, 126720, Note_on_c, 0, 75, 112
1, 126720, Note_on_c, 0, 70, 0
1, 126839, Note_on_c, 0, 75, 0
1, 126840, Note_on_c, 0, 69, 112
1, 126959, Note_on_c, 0, 69, 0
1, 126960, Note_on_c, 0, 70, 112
1, 126960, Note_on_c, 0, 75, 112
1, 127079, Note_on_c, 0, 75, 0
1, 127080, Note_on_c, 0, 69, 112
1, 127080, Note_on_c, 0, 74, 112
1, 127199, Note_on_c, 0, 69, 0
1, 127199, Note_on_c, 0, 74, 0
1, 127200, Note_on_c, 0, 70, 0
1, 127200, Note_on_c, 0, 70, 112
1, 127200, Note_on_c, 0, 75, 112
1, 127319, Note_on_c, 0, 75, 0
1, 127320, Note_on_c, 0, 70, 0
1, 127320, Note_on_c, 0, 70, 112
1, 127439, Note_on_c, 0, 78, 0
1, 127439, Note_on_c, 0, 70, 0
1, 127440, Note_on_c, 0, 75, 112
1, 127440, Note_on_c, 0, 72, 112
1, 127559, Note_on_c, 0, 72, 0
1, 127560, Note_on_c, 0, 69, 112
1, 127679, Note_on_c, 0, 69, 0
1, 127680, Note_on_c, 0, 70, 112
1, 127680, Note_on_c, 0, 72, 112
1, 127799, Note_on_c, 0, 70, 0
1, 127799, Note_on_c, 0, 72, 0
1, 127800, Note_on_c, 0, 69, 112
1, 127919, Note_on_c, 0, 69, 0
1, 127920, Note_on_c, 0, 70, 112
1, 127920, Note_on_c, 0, 72, 112
1, 128039, Note_on_c, 0, 70, 0
1, 128039, Note_on_c, 0, 72, 0
1, 128040, Note_on_c, 0, 70, 112
1, 128159, Note_on_c, 0, 75, 0
1, 128159, Note_on_c, 0, 70, 0
1, 128160, Note_on_c, 0, 77, 112
1, 128160, Note_on_c, 0, 70, 112
1, 128160, Note_on_c, 0, 74, 112
1, 128279, Note_on_c, 0, 70, 0
1, 128279, Note_on_c, 0, 74, 0
1, 128280, Note_on_c, 0, 69, 112
1, 128399, Note_on_c, 0, 69, 0
1, 128400, Note_on_c, 0, 70, 112
1, 128400, Note_on_c, 0, 74, 112
1, 128519, Note_on_c, 0, 70, 0
1, 128519, Note_on_c, 0, 74, 0
1, 128520, Note_on_c, 0, 69, 112
1, 128639, Note_on_c, 0, 69, 0
1, 128640, Note_on_c, 0, 70, 112
1, 128640, Note_on_c, 0, 74, 112
1, 128759, Note_on_c, 0, 70, 0
1, 128759, Note_on_c, 0, 74, 0
1, 128760, Note_on_c, 0, 70, 112
1, 128879, Note_on_c, 0, 77, 0
1, 128879, Note_on_c, 0, 70, 0
1, 128880, Note_on_c, 0, 76, 112
1, 128880, Note_on_c, 0, 79, 112
1, 129120, Note_on_c, 0, 64, 112
1, 129120, Note_on_c, 0, 67, 112
1, 129120, Note_on_c, 0, 73, 112
1, 129239, Note_on_c, 0, 64, 0
1, 129239, Note_on_c, 0, 67, 0
1, 129239, Note_on_c, 0, 73, 0
1, 129240, Note_on_c, 0, 69, 112
1, 129240, Note_on_c, 0, 72, 112
1, 129359, Note_on_c, 0, 69, 0
1, 129359, Note_on_c, 0, 72, 0
1, 129360, Note_on_c, 0, 64, 112
1, 129360, Note_on_c, 0, 67, 112
1, 129360, Note_on_c, 0, 73, 112
1, 129479, Note_on_c, 0, 64, 0
1, 129479, Note_on_c, 0, 67, 0
1, 129479, Note_on_c, 0, 73, 0
1, 129480, Note_on_c, 0, 70, 112
1, 129599, Note_on_c, 0, 76, 0
1, 129599, Note_on_c, 0, 79, 0
1, 129599, Note_on_c, 0, 70, 0
1, 129600, Note_on_c, 0, 77, 112
1, 129600, Note_on_c, 0, 80, 112
1, 129840, Note_on_c, 0, 65, 112
1, 129840, Note_on_c, 0, 68, 112
1, 129840, Note_on_c, 0, 74, 112
1, 129959, Note_on_c, 0, 65, 0
1, 129959, Note_on_c, 0, 68, 0
1, 129959, Note_on_c, 0, 74, 0
1, 129960, Note_on_c, 0, 70, 112
1, 129960, Note_on_c, 0, 73, 112
1, 130079, Note_on_c, 0, 70, 0
1, 130079, Note_on_c, 0, 73, 0
1, 130080, Note_on_c, 0, 65, 112
1, 130080, Note_on_c, 0, 68, 112
1, 130080, Note_on_c, 0, 74, 112
1, 130199, Note_on_c, 0, 65, 0
1, 130199, Note_on_c, 0, 68, 0
1, 130199, Note_on_c, 0, 74, 0
1, 130200, Note_on_c, 0, 70, 112
1, 130319, Note_on_c, 0, 77, 0
1, 130319, Note_on_c, 0, 80, 0
1, 130319, Note_on_c, 0, 70, 0
1, 130320, Note_on_c, 0, 76, 112
1, 130320, Note_on_c, 0, 79, 112
1, 130560, Note_on_c, 0, 64, 112
1, 130560, Note_on_c, 0, 67, 112
1, 130560, Note_on_c, 0, 73, 112
1, 130679, Note_on_c, 0, 64, 0
1, 130679, Note_on_c, 0, 67, 0
1, 130679, Note_on_c, 0, 73, 0
1, 130680, Note_on_c, 0, 69, 112
1, 130680, Note_on_c, 0, 72, 112
1, 130799, Note_on_c, 0, 69, 0
1, 130799, Note_on_c, 0, 72, 0
1, 130800, Note_on_c, 0, 64, 112
1, 130800, Note_on_c, 0, 67, 112
1, 130800, Note_on_c, 0, 73, 112
1, 130919, Note_on_c, 0, 64, 0
1, 130919, Note_on_c, 0, 67, 0
1, 130919, Note_on_c, 0, 73, 0
1, 130920, Note_on_c, 0, 70, 112
1, 131039, Note_on_c, 0, 76, 0
1, 131039, Note_on_c, 0, 79, 0
1, 131039, Note_on_c, 0, 70, 0
1, 131040, Note_on_c, 0, 77, 112
1, 131040, Note_on_c, 0, 80, 112
1, 131280, Note_on_c, 0, 72, 112
1, 131399, Note_on_c, 0, 72, 0
1, 131400, Note_on_c, 0, 67, 112
1, 131400, Note_on_c, 0, 70, 112
1, 131519, Note_on_c, 0, 67, 0
1, 131519, Note_on_c, 0, 70, 0
1, 131520, Note_on_c, 0, 72, 112
1, 131639, Note_on_c, 0, 72, 0
1, 131640, Note_on_c, 0, 65, 112
1, 131640, Note_on_c, 0, 68, 112
1, 131759, Note_on_c, 0, 65, 0
1, 131759, Note_on_c, 0, 68, 0
1, 132000, Note_on_c, 0, 71, 104
1, 132119, Note_on_c, 0, 71, 0
1, 132120, Note_on_c, 0, 67, 99
1, 132120, Note_on_c, 0, 70, 99
1, 132239, Note_on_c, 0, 67, 0
1, 132239, Note_on_c, 0, 70, 0
1, 132240, Note_on_c, 0, 71, 95
1, 132359, Note_on_c, 0, 71, 0
1, 132360, Note_on_c, 0, 65, 91
1, 132360, Note_on_c, 0, 68, 91
1, 132479, Note_on_c, 0, 65, 0
1, 132479, Note_on_c, 0, 68, 0
1, 132720, Note_on_c, 0, 70, 77
1, 132839, Note_on_c, 0, 70, 0
1, 132840, Note_on_c, 0, 67, 73
1, 132840, Note_on_c, 0, 68, 73
1, 132959, Note_on_c, 0, 67, 0
1, 132959, Note_on_c, 0, 68, 0
1, 132960, Note_on_c, 0, 70, 69
1, 133079, Note_on_c, 0, 70, 0
1, 133080, Note_on_c, 0, 65, 64
1, 133080, Note_on_c, 0, 68, 64
1, 133199, Note_on_c, 0, 77, 0
1, 133199, Note_on_c, 0, 80, 0
1, 133199, Note_on_c, 0, 65, 0
1, 133199, Note_on_c, 0, 68, 0
1, 133440, Note_on_c, 0, 67, 51
1, 133440, Note_on_c, 0, 70, 51
1, 133559, Note_on_c, 0, 67, 0
1, 133559, Note_on_c, 0, 70, 0
1, 133560, Note_on_c, 0, 65, 47
1, 133560, Note_on_c, 0, 68, 47
1, 133679, Note_on_c, 0, 65, 0
1, 133679, Note_on_c, 0, 68, 0
1, 133680, Note_on_c, 0, 67, 42
1, 133680, Note_on_c, 0, 70, 42
1, 133799, Note_on_c, 0, 67, 0
1, 133799, Note_on_c, 0, 70, 0
1, 133800, Note_on_c, 0, 65, 38
1, 133800, Note_on_c, 0, 68, 38
1, 133919, Note_on_c, 0, 65, 0
1, 133919, Note_on_c, 0, 68, 0
1, 134160, Note_on_c, 0, 63, 33
1, 134160, Note_on_c, 0, 67, 33
1, 134399, Note_on_c, 0, 63, 0
1, 134399, Note_on_c, 0, 67, 0
1, 134400, Note_on_c, 0, 70, 33
1, 134400, Note_on_c, 0, 63, 33
1, 134639, Note_on_c, 0, 70, 0
1, 134639, Note_on_c, 0, 63, 0
1, 134640, Note_on_c, 0, 72, 33
1, 134759, Note_on_c, 0, 72, 0
1, 134760, Note_on_c, 0, 70, 33
1, 134879, Note_on_c, 0, 70, 0
1, 134880, Note_on_c, 0, 68, 33
1, 134880, Note_on_c, 0, 60, 33
1, 134880, Note_on_c, 0, 63, 33
1, 134999, Note_on_c, 0, 68, 0
1, 135000, Note_on_c, 0, 72, 33
1, 135119, Note_on_c, 0, 60, 0
1, 135119, Note_on_c, 0, 63, 0
1, 135119, Note_on_c, 0, 72, 0
1, 135120, Note_on_c, 0, 70, 33
1, 135239, Note_on_c, 0, 70, 0
1, 135240, Note_on_c, 0, 68, 33
1, 135359, Note_on_c, 0, 68, 0
1, 135360, Note_on_c, 0, 70, 33
1, 135599, Note_on_c, 0, 70, 0
1, 135600, Note_on_c, 0, 63, 33
1, 135600, Note_on_c, 0, 58, 33
1, 135839, Note_on_c, 0, 63, 0
1, 135839, Note_on_c, 0, 58, 0
1, 135840, Note_on_c, 0, 70, 33
1, 136079, Note_on_c, 0, 70, 0
1, 136080, Note_on_c, 0, 69, 33
1, 136199, Note_on_c, 0, 69, 0
1, 136200, Note_on_c, 0, 67, 33
1, 136319, Note_on_c, 0, 67, 0
1, 136320, Note_on_c, 0, 65, 33
1, 136320, Note_on_c, 0, 57, 33
1, 136320, Note_on_c, 0, 63, 33
1, 136439, Note_on_c, 0, 65, 0
1, 136440, Note_on_c, 0, 69, 33
1, 136559, Note_on_c, 0, 57, 0
1, 136559, Note_on_c, 0, 63, 0
1, 136559, Note_on_c, 0, 69, 0
1, 136560, Note_on_c, 0, 67, 33
1, 136679, Note_on_c, 0, 67, 0
1, 136680, Note_on_c, 0, 65, 33
1, 136799, Note_on_c, 0, 65, 0
1, 136800, Note_on_c, 0, 68, 39
1, 137040, Note_on_c, 0, 56, 33
1, 137040, Note_on_c, 0, 62, 33
1, 137279, Note_on_c, 0, 68, 0
1, 137279, Note_on_c, 0, 56, 0
1, 137279, Note_on_c, 0, 62, 0
1, 137280, Note_on_c, 0, 70, 33
1, 137399, Note_on_c, 0, 70, 0
1, 137400, Note_on_c, 0, 68, 33
1, 137519, Note_on_c, 0, 68, 0
1, 137520, Note_on_c, 0, 67, 33
1, 137639, Note_on_c, 0, 67, 0
1, 137640, Note_on_c, 0, 65, 33
1, 137759, Note_on_c, 0, 65, 0
1, 137760, Note_on_c, 0, 63, 33
1, 137879, Note_on_c, 0, 63, 0
1, 137880, Note_on_c, 0, 72, 33
1, 137999, Note_on_c, 0, 72, 0
1, 138000, Note_on_c, 0, 70, 33
1, 138119, Note_on_c, 0, 70, 0
1, 138120, Note_on_c, 0, 68, 33
1, 138239, Note_on_c, 0, 68, 0
1, 138240, Note_on_c, 0, 67, 33
1, 138359, Note_on_c, 0, 67, 0
1, 138360, Note_on_c, 0, 65, 33
1, 138479, Note_on_c, 0, 65, 0
1, 138480, Note_on_c, 0, 63, 33
1, 138599, Note_on_c, 0, 63, 0
1, 138600, Note_on_c, 0, 72, 33
1, 138719, Note_on_c, 0, 72, 0
1, 138720, Note_on_c, 0, 70, 33
1, 138839, Note_on_c, 0, 70, 0
1, 138840, Note_on_c, 0, 68, 33
1, 138959, Note_on_c, 0, 68, 0
1, 138960, Note_on_c, 0, 67, 33
1, 139079, Note_on_c, 0, 67, 0
1, 139080, Note_on_c, 0, 65, 33
1, 139199, Note_on_c, 0, 65, 0
1, 139200, Note_on_c, 0, 63, 36
1, 139319, Note_on_c, 0, 63, 0
1, 139320, Note_on_c, 0, 65, 39
1, 139439, Note_on_c, 0, 65, 0
1, 139440, Note_on_c, 0, 67, 42
1, 139559, Note_on_c, 0, 67, 0
1, 139560, Note_on_c, 0, 68, 45
1, 139679, Note_on_c, 0, 68, 0
1, 139680, Note_on_c, 0, 70, 49
1, 139799, Note_on_c, 0, 70, 0
1, 139800, Note_on_c, 0, 72, 45
1, 139919, Note_on_c, 0, 72, 0
1, 139920, Note_on_c, 0, 73, 41
1, 140039, Note_on_c, 0, 73, 0
1, 140040, Note_on_c, 0, 70, 37
1, 140159, Note_on_c, 0, 70, 0
1, 140160, Note_on_c, 0, 75, 33
1, 140279, Note_on_c, 0, 75, 0
1, 140280, Note_on_c, 0, 73, 33
1, 140399, Note_on_c, 0, 73, 0
1, 140400, Note_on_c, 0, 75, 33
1, 140400, Note_on_c, 0, 72, 33
1, 140519, Note_on_c, 0, 72, 0
1, 140520, Note_on_c, 0, 70, 33
1, 140639, Note_on_c, 0, 70, 0
1, 140640, Note_on_c, 0, 68, 33
1, 140759, Note_on_c, 0, 68, 0
1, 140760, Note_on_c, 0, 72, 33
1, 140879, Note_on_c, 0, 72, 0
1, 140880, Note_on_c, 0, 70, 33
1, 140999, Note_on_c, 0, 70, 0
1, 141000, Note_on_c, 0, 68, 33
1, 141119, Note_on_c, 0, 68, 0
1, 141120, Note_on_c, 0, 70, 33
1, 141359, Note_on_c, 0, 70, 0
1, 141360, Note_on_c, 0, 63, 33
1, 141599, Note_on_c, 0, 63, 0
1, 141600, Note_on_c, 0, 70, 33
1, 141839, Note_on_c, 0, 70, 0
1, 141840, Note_on_c, 0, 77, 33
1, 141840, Note_on_c, 0, 69, 33
1, 141959, Note_on_c, 0, 69, 0
1, 141960, Note_on_c, 0, 67, 33
1, 142079, Note_on_c, 0, 67, 0
1, 142080, Note_on_c, 0, 65, 33
1, 142199, Note_on_c, 0, 65, 0
1, 142200, Note_on_c, 0, 69, 33
1, 142319, Note_on_c, 0, 69, 0
1, 142320, Note_on_c, 0, 67, 33
1, 142439, Note_on_c, 0, 67, 0
1, 142440, Note_on_c, 0, 65, 33
1, 142559, Note_on_c, 0, 75, 0
1, 142559, Note_on_c, 0, 65, 0
1, 142560, Note_on_c, 0, 74, 33
1, 142560, Note_on_c, 0, 68, 33
1, 143039, Note_on_c, 0, 68, 0
1, 143040, Note_on_c, 0, 70, 33
1, 143159, Note_on_c, 0, 70, 0
1, 143160, Note_on_c, 0, 68, 33
1, 143279, Note_on_c, 0, 77, 0
1, 143279, Note_on_c, 0, 74, 0
1, 143279, Note_on_c, 0, 68, 0
1, 143280, Note_on_c, 0, 67, 33
1, 143399, Note_on_c, 0, 67, 0
1, 143400, Note_on_c, 0, 65, 33
1, 143519, Note_on_c, 0, 65, 0
1, 143520, Note_on_c, 0, 63, 33
1, 143639, Note_on_c, 0, 63, 0
1, 143640, Note_on_c, 0, 65, 37
1, 143759, Note_on_c, 0, 65, 0
1, 143760, Note_on_c, 0, 67, 41
1, 143879, Note_on_c, 0, 67, 0
1, 143880, Note_on_c, 0, 68, 45
1, 143999, Note_on_c, 0, 68, 0
1, 144000, Note_on_c, 0, 70, 49
1, 144119, Note_on_c, 0, 70, 0
1, 144120, Note_on_c, 0, 72, 44
1, 144239, Note_on_c, 0, 72, 0
1, 144240, Note_on_c, 0, 73, 39
1, 144359, Note_on_c, 0, 73, 0
1, 144360, Note_on_c, 0, 77, 33
1, 144479, Note_on_c, 0, 77, 0
1, 144480, Note_on_c, 0, 75, 33
1, 144480, Note_on_c, 0, 75, 0
1, 144480, Note_on_c, 0, 75, 33
1, 144600, Note_on_c, 0, 73, 33
1, 144719, Note_on_c, 0, 75, 0
1, 144719, Note_on_c, 0, 73, 0
1, 144720, Note_on_c, 0, 75, 49
1, 144720, Note_on_c, 0, 72, 49
1, 144839, Note_on_c, 0, 72, 0
1, 144840, Note_on_c, 0, 70, 49
1, 144959, Note_on_c, 0, 75, 0
1, 144959, Note_on_c, 0, 70, 0
1, 144960, Note_on_c, 0, 68, 49
1, 145079, Note_on_c, 0, 68, 0
1, 145080, Note_on_c, 0, 72, 49
1, 145199, Note_on_c, 0, 72, 0
1, 145200, Note_on_c, 0, 75, 49
1, 145200, Note_on_c, 0, 70, 49
1, 145319, Note_on_c, 0, 70, 0
1, 145320, Note_on_c, 0, 68, 49
1, 145439, Note_on_c, 0, 75, 0
1, 145439, Note_on_c, 0, 68, 0
1, 145440, Note_on_c, 0, 75, 49
1, 145440, Note_on_c, 0, 70, 49
1, 145679, Note_on_c, 0, 75, 0
1, 145679, Note_on_c, 0, 70, 0
1, 145680, Note_on_c, 0, 63, 49
1, 145919, Note_on_c, 0, 63, 0
1, 145920, Note_on_c, 0, 75, 49
1, 145920, Note_on_c, 0, 70, 49
1, 146159, Note_on_c, 0, 75, 0
1, 146159, Note_on_c, 0, 70, 0
1, 146160, Note_on_c, 0, 75, 49
1, 146160, Note_on_c, 0, 69, 49
1, 146279, Note_on_c, 0, 69, 0
1, 146280, Note_on_c, 0, 67, 49
1, 146399, Note_on_c, 0, 75, 0
1, 146399, Note_on_c, 0, 67, 0
1, 146400, Note_on_c, 0, 65, 49
1, 146519, Note_on_c, 0, 65, 0
1, 146520, Note_on_c, 0, 67, 49
1, 146639, Note_on_c, 0, 67, 0
1, 146640, Note_on_c, 0, 69, 54
1, 146759, Note_on_c, 0, 69, 0
1, 146760, Note_on_c, 0, 70, 59
1, 146879, Note_on_c, 0, 70, 0
1, 146880, Note_on_c, 0, 72, 65
1, 146999, Note_on_c, 0, 72, 0
1, 147000, Note_on_c, 0, 74, 60
1, 147119, Note_on_c, 0, 74, 0
1, 147120, Note_on_c, 0, 75, 55
1, 147239, Note_on_c, 0, 75, 0
1, 147240, Note_on_c, 0, 79, 49
1, 147359, Note_on_c, 0, 79, 0
1, 147360, Note_on_c, 0, 77, 49
1, 147360, Note_on_c, 0, 77, 0
1, 147360, Note_on_c, 0, 77, 49
1, 147480, Note_on_c, 0, 75, 49
1, 147599, Note_on_c, 0, 77, 0
1, 147599, Note_on_c, 0, 75, 0
1, 147600, Note_on_c, 0, 77, 49
1, 147600, Note_on_c, 0, 74, 49
1, 147719, Note_on_c, 0, 74, 0
1, 147720, Note_on_c, 0, 72, 49
1, 147839, Note_on_c, 0, 77, 0
1, 147839, Note_on_c, 0, 72, 0
1, 147840, Note_on_c, 0, 70, 49
1, 147959, Note_on_c, 0, 70, 0
1, 147960, Note_on_c, 0, 74, 49
1, 148079, Note_on_c, 0, 74, 0
1, 148080, Note_on_c, 0, 77, 49
1, 148080, Note_on_c, 0, 72, 49
1, 148199, Note_on_c, 0, 72, 0
1, 148200, Note_on_c, 0, 70, 49
1, 148319, Note_on_c, 0, 77, 0
1, 148319, Note_on_c, 0, 70, 0
1, 148320, Note_on_c, 0, 77, 49
1, 148320, Note_on_c, 0, 72, 49
1, 148559, Note_on_c, 0, 77, 0
1, 148559, Note_on_c, 0, 72, 0
1, 148560, Note_on_c, 0, 65, 49
1, 148799, Note_on_c, 0, 65, 0
1, 148800, Note_on_c, 0, 77, 49
1, 148800, Note_on_c, 0, 72, 49
1, 149039, Note_on_c, 0, 77, 0
1, 149039, Note_on_c, 0, 72, 0
1, 149040, Note_on_c, 0, 77, 49
1, 149040, Note_on_c, 0, 71, 49
1, 149159, Note_on_c, 0, 71, 0
1, 149160, Note_on_c, 0, 69, 49
1, 149279, Note_on_c, 0, 77, 0
1, 149279, Note_on_c, 0, 69, 0
1, 149280, Note_on_c, 0, 67, 49
1, 149399, Note_on_c, 0, 67, 0
1, 149400, Note_on_c, 0, 69, 49
1, 149519, Note_on_c, 0, 69, 0
1, 149520, Note_on_c, 0, 71, 54
1, 149639, Note_on_c, 0, 71, 0
1, 149640, Note_on_c, 0, 72, 59
1, 149759, Note_on_c, 0, 72, 0
1, 149760, Note_on_c, 0, 74, 65
1, 149879, Note_on_c, 0, 74, 0
1, 149880, Note_on_c, 0, 75, 61
1, 149999, Note_on_c, 0, 75, 0
1, 150000, Note_on_c, 0, 77, 57
1, 150119, Note_on_c, 0, 77, 0
1, 150120, Note_on_c, 0, 80, 53
1, 150239, Note_on_c, 0, 80, 0
1, 150240, Note_on_c, 0, 79, 49
1, 150240, Note_on_c, 0, 79, 0
1, 150240, Note_on_c, 0, 79, 49
1, 150360, Note_on_c, 0, 77, 49
1, 150479, Note_on_c, 0, 79, 0
1, 150479, Note_on_c, 0, 77, 0
1, 150480, Note_on_c, 0, 79, 49
1, 150480, Note_on_c, 0, 75, 49
1, 150599, Note_on_c, 0, 79, 0
1, 150599, Note_on_c, 0, 75, 0
1, 150600, Note_on_c, 0, 74, 49
1, 150719, Note_on_c, 0, 74, 0
1, 150720, Note_on_c, 0, 72, 49
1, 150839, Note_on_c, 0, 72, 0
1, 150840, Note_on_c, 0, 75, 49
1, 150959, Note_on_c, 0, 75, 0
1, 150960, Note_on_c, 0, 79, 49
1, 150960, Note_on_c, 0, 74, 49
1, 151079, Note_on_c, 0, 79, 0
1, 151079, Note_on_c, 0, 74, 0
1, 151080, Note_on_c, 0, 72, 49
1, 151199, Note_on_c, 0, 72, 0
1, 151200, Note_on_c, 0, 74, 49
1, 151200, Note_on_c, 0, 79, 49
1, 151319, Note_on_c, 0, 74, 0
1, 151319, Note_on_c, 0, 79, 0
1, 151440, Note_on_c, 0, 67, 49
1, 151440, Note_on_c, 0, 74, 49
1, 151559, Note_on_c, 0, 67, 0
1, 151559, Note_on_c, 0, 74, 0
1, 151680, Note_on_c, 0, 74, 49
1, 151680, Note_on_c, 0, 79, 49
1, 151799, Note_on_c, 0, 74, 0
1, 151799, Note_on_c, 0, 79, 0
1, 151920, Note_on_c, 0, 79, 49
1, 151920, Note_on_c, 0, 73, 49
1, 152039, Note_on_c, 0, 79, 0
1, 152039, Note_on_c, 0, 73, 0
1, 152040, Note_on_c, 0, 71, 49
1, 152159, Note_on_c, 0, 71, 0
1, 152160, Note_on_c, 0, 69, 49
1, 152279, Note_on_c, 0, 69, 0
1, 152280, Note_on_c, 0, 73, 49
1, 152399, Note_on_c, 0, 73, 0
1, 152400, Note_on_c, 0, 79, 49
1, 152400, Note_on_c, 0, 71, 49
1, 152519, Note_on_c, 0, 79, 0
1, 152519, Note_on_c, 0, 71, 0
1, 152520, Note_on_c, 0, 69, 49
1, 152639, Note_on_c, 0, 69, 0
1, 152640, Note_on_c, 0, 69, 49
1, 152640, Note_on_c, 0, 78, 49
1, 152759, Note_on_c, 0, 69, 0
1, 152759, Note_on_c, 0, 78, 0
1, 152880, Note_on_c, 0, 66, 49
1, 152880, Note_on_c, 0, 74, 49
1, 152999, Note_on_c, 0, 66, 0
1, 152999, Note_on_c, 0, 74, 0
1, 153120, Note_on_c, 0, 69, 49
1, 153120, Note_on_c, 0, 78, 49
1, 153239, Note_on_c, 0, 69, 0
1, 153239, Note_on_c, 0, 78, 0
1, 153360, Note_on_c, 0, 74, 49
1, 153360, Note_on_c, 0, 71, 49
1, 153479, Note_on_c, 0, 74, 0
1, 153479, Note_on_c, 0, 71, 0
1, 153480, Note_on_c, 0, 69, 49
1, 153599, Note_on_c, 0, 69, 0
1, 153600, Note_on_c, 0, 67, 49
1, 153719, Note_on_c, 0, 67, 0
1, 153720, Note_on_c, 0, 71, 49
1, 153839, Note_on_c, 0, 71, 0
1, 153840, Note_on_c, 0, 74, 49
1, 153840, Note_on_c, 0, 69, 49
1, 153959, Note_on_c, 0, 74, 0
1, 153959, Note_on_c, 0, 69, 0
1, 153960, Note_on_c, 0, 67, 49
1, 154079, Note_on_c, 0, 67, 0
1, 154080, Note_on_c, 0, 79, 49
1, 154080, Note_on_c, 0, 86, 49
1, 154199, Note_on_c, 0, 79, 0
1, 154199, Note_on_c, 0, 86, 0
1, 154320, Note_on_c, 0, 74, 49
1, 154320, Note_on_c, 0, 79, 49
1, 154439, Note_on_c, 0, 74, 0
1, 154439, Note_on_c, 0, 79, 0
1, 154560, Note_on_c, 0, 79, 49
1, 154560, Note_on_c, 0, 86, 49
1, 154679, Note_on_c, 0, 79, 0
1, 154679, Note_on_c, 0, 86, 0
1, 154800, Note_on_c, 0, 74, 49
1, 154800, Note_on_c, 0, 69, 49
1, 154919, Note_on_c, 0, 74, 0
1, 154919, Note_on_c, 0, 69, 0
1, 154920, Note_on_c, 0, 67, 49
1, 155039, Note_on_c, 0, 67, 0
1, 155040, Note_on_c, 0, 66, 49
1, 155159, Note_on_c, 0, 66, 0
1, 155160, Note_on_c, 0, 69, 49
1, 155279, Note_on_c, 0, 69, 0
1, 155280, Note_on_c, 0, 67, 49
1, 155399, Note_on_c, 0, 67, 0
1, 155400, Note_on_c, 0, 66, 49
1, 155519, Note_on_c, 0, 66, 0
1, 155520, Note_on_c, 0, 62, 33
1, 155520, Note_on_c, 0, 74, 33
1, 156239, Note_on_c, 0, 62, 0
1, 156240, Note_on_c, 0, 67, 33
1, 156359, Note_on_c, 0, 67, 0
1, 156360, Note_on_c, 0, 65, 33
1, 156479, Note_on_c, 0, 65, 0
1, 156480, Note_on_c, 0, 64, 33
1, 156599, Note_on_c, 0, 74, 0
1, 156599, Note_on_c, 0, 64, 0
1, 156600, Note_on_c, 0, 67, 33
1, 156719, Note_on_c, 0, 67, 0
1, 156720, Note_on_c, 0, 65, 33
1, 156839, Note_on_c, 0, 65, 0
1, 156840, Note_on_c, 0, 64, 33
1, 156959, Note_on_c, 0, 64, 0
1, 156960, Note_on_c, 0, 67, 33
1, 156960, Note_on_c, 0, 73, 33
1, 157679, Note_on_c, 0, 67, 0
1, 157679, Note_on_c, 0, 73, 0
1, 157680, Note_on_c, 0, 66, 33
1, 157680, Note_on_c, 0, 74, 33
1, 158159, Note_on_c, 0, 66, 0
1, 158159, Note_on_c, 0, 74, 0
1, 159120, Note_on_c, 0, 72, 33
1, 159120, Note_on_c, 0, 75, 33
1, 159239, Note_on_c, 0, 72, 0
1, 159239, Note_on_c, 0, 75, 0
1, 159360, Note_on_c, 0, 69, 33
1, 159360, Note_on_c, 0, 72, 33
1, 159479, Note_on_c, 0, 69, 0
1, 159479, Note_on_c, 0, 72, 0
1, 159480, Note_on_c, 0, 70, 33
1, 159599, Note_on_c, 0, 70, 0
1, 159600, Note_on_c, 0, 69, 33
1, 159600, Note_on_c, 0, 72, 33
1, 159719, Note_on_c, 0, 69, 0
1, 159719, Note_on_c, 0, 72, 0
1, 159720, Note_on_c, 0, 69, 33
1, 159839, Note_on_c, 0, 69, 0
1, 159840, Note_on_c, 0, 69, 33
1, 159840, Note_on_c, 0, 72, 33
1, 159959, Note_on_c, 0, 69, 0
1, 159959, Note_on_c, 0, 72, 0
1, 160080, Note_on_c, 0, 63, 33
1, 160080, Note_on_c, 0, 66, 33
1, 160080, Note_on_c, 0, 69, 33
1, 160199, Note_on_c, 0, 63, 0
1, 160199, Note_on_c, 0, 66, 0
1, 160199, Note_on_c, 0, 69, 0
1, 160320, Note_on_c, 0, 60, 33
1, 160320, Note_on_c, 0, 63, 33
1, 160320, Note_on_c, 0, 66, 33
1, 160439, Note_on_c, 0, 60, 0
1, 160439, Note_on_c, 0, 63, 0
1, 160439, Note_on_c, 0, 66, 0
1, 160560, Note_on_c, 0, 70, 33
1, 160560, Note_on_c, 0, 74, 33
1, 160679, Note_on_c, 0, 70, 0
1, 160679, Note_on_c, 0, 74, 0
1, 160800, Note_on_c, 0, 67, 33
1, 160800, Note_on_c, 0, 70, 33
1, 160919, Note_on_c, 0, 67, 0
1, 160919, Note_on_c, 0, 70, 0
1, 160920, Note_on_c, 0, 69, 33
1, 161039, Note_on_c, 0, 69, 0
1, 161040, Note_on_c, 0, 67, 33
1, 161040, Note_on_c, 0, 70, 33
1, 161159, Note_on_c, 0, 67, 0
1, 161159, Note_on_c, 0, 70, 0
1, 161160, Note_on_c, 0, 67, 33
1, 161279, Note_on_c, 0, 67, 0
1, 161280, Note_on_c, 0, 67, 33
1, 161280, Note_on_c, 0, 70, 33
1, 161399, Note_on_c, 0, 67, 0
1, 161399, Note_on_c, 0, 70, 0
1, 161520, Note_on_c, 0, 58, 33
1, 161520, Note_on_c, 0, 62, 33
1, 161520, Note_on_c, 0, 67, 33
1, 161639, Note_on_c, 0, 58, 0
1, 161639, Note_on_c, 0, 62, 0
1, 161639, Note_on_c, 0, 67, 0
1, 161760, Note_on_c, 0, 55, 33
1, 161760, Note_on_c, 0, 58, 33
1, 161760, Note_on_c, 0, 62, 33
1, 161879, Note_on_c, 0, 55, 0
1, 161879, Note_on_c, 0, 58, 0
1, 161879, Note_on_c, 0, 62, 0
1, 162000, Note_on_c, 0, 61, 33
1, 162000, Note_on_c, 0, 55, 39
1, 162000, Note_on_c, 0, 58, 39
1, 162119, Note_on_c, 0, 61, 0
1, 162120, Note_on_c, 0, 62, 33
1, 162239, Note_on_c, 0, 62, 0
1, 162240, Note_on_c, 0, 64, 33
1, 162359, Note_on_c, 0, 55, 0
1, 162359, Note_on_c, 0, 58, 0
1, 162359, Note_on_c, 0, 64, 0
1, 162360, Note_on_c, 0, 61, 33
1, 162360, Note_on_c, 0, 55, 33
1, 162360, Note_on_c, 0, 58, 33
1, 162479, Note_on_c, 0, 61, 0
1, 162480, Note_on_c, 0, 62, 33
1, 162599, Note_on_c, 0, 62, 0
1, 162600, Note_on_c, 0, 64, 33
1, 162719, Note_on_c, 0, 55, 0
1, 162719, Note_on_c, 0, 58, 0
1, 162719, Note_on_c, 0, 64, 0
1, 162720, Note_on_c, 0, 55, 33
1, 162720, Note_on_c, 0, 58, 33
1, 162720, Note_on_c, 0, 61, 33
1, 162839, Note_on_c, 0, 55, 0
1, 162839, Note_on_c, 0, 58, 0
1, 162839, Note_on_c, 0, 61, 0
1, 162960, Note_on_c, 0, 61, 33
1, 162960, Note_on_c, 0, 67, 33
1, 163079, Note_on_c, 0, 61, 0
1, 163079, Note_on_c, 0, 67, 0
1, 163200, Note_on_c, 0, 55, 33
1, 163200, Note_on_c, 0, 61, 33
1, 163319, Note_on_c, 0, 55, 0
1, 163319, Note_on_c, 0, 61, 0
1, 163440, Note_on_c, 0, 58, 33
1, 163440, Note_on_c, 0, 62, 33
1, 163559, Note_on_c, 0, 58, 0
1, 163559, Note_on_c, 0, 62, 0
1, 163560, Note_on_c, 0, 64, 33
1, 163679, Note_on_c, 0, 64, 0
1, 163680, Note_on_c, 0, 66, 33
1, 163799, Note_on_c, 0, 66, 0
1, 163800, Note_on_c, 0, 67, 33
1, 163919, Note_on_c, 0, 67, 0
1, 163920, Note_on_c, 0, 69, 33
1, 164039, Note_on_c, 0, 69, 0
1, 164040, Note_on_c, 0, 70, 33
1, 164159, Note_on_c, 0, 70, 0
1, 164160, Note_on_c, 0, 72, 33
1, 164279, Note_on_c, 0, 72, 0
1, 164280, Note_on_c, 0, 71, 33
1, 164399, Note_on_c, 0, 71, 0
1, 164400, Note_on_c, 0, 72, 33
1, 164519, Note_on_c, 0, 72, 0
1, 164520, Note_on_c, 0, 75, 33
1, 164639, Note_on_c, 0, 75, 0
1, 164640, Note_on_c, 0, 74, 33
1, 164759, Note_on_c, 0, 74, 0
1, 164760, Note_on_c, 0, 72, 33
1, 164879, Note_on_c, 0, 72, 0
1, 164880, Note_on_c, 0, 77, 49
1, 164880, Note_on_c, 0, 80, 49
1, 164880, Note_on_c, 0, 71, 49
1, 164999, Note_on_c, 0, 77, 0
1, 164999, Note_on_c, 0, 80, 0
1, 165119, Note_on_c, 0, 71, 0
1, 165120, Note_on_c, 0, 74, 49
1, 165120, Note_on_c, 0, 77, 49
1, 165239, Note_on_c, 0, 74, 0
1, 165239, Note_on_c, 0, 77, 0
1, 165240, Note_on_c, 0, 75, 49
1, 165359, Note_on_c, 0, 75, 0
1, 165360, Note_on_c, 0, 74, 49
1, 165360, Note_on_c, 0, 77, 49
1, 165479, Note_on_c, 0, 74, 0
1, 165479, Note_on_c, 0, 77, 0
1, 165480, Note_on_c, 0, 74, 49
1, 165599, Note_on_c, 0, 74, 0
1, 165600, Note_on_c, 0, 74, 49
1, 165600, Note_on_c, 0, 77, 49
1, 165719, Note_on_c, 0, 74, 0
1, 165719, Note_on_c, 0, 77, 0
1, 165840, Note_on_c, 0, 68, 49
1, 165840, Note_on_c, 0, 71, 49
1, 165840, Note_on_c, 0, 74, 49
1, 165959, Note_on_c, 0, 68, 0
1, 165959, Note_on_c, 0, 71, 0
1, 165959, Note_on_c, 0, 74, 0
1, 166080, Note_on_c, 0, 65, 49
1, 166080, Note_on_c, 0, 68, 49
1, 166080, Note_on_c, 0, 71, 49
1, 166199, Note_on_c, 0, 65, 0
1, 166199, Note_on_c, 0, 68, 0
1, 166199, Note_on_c, 0, 71, 0
1, 166320, Note_on_c, 0, 75, 49
1, 166320, Note_on_c, 0, 79, 49
1, 166439, Note_on_c, 0, 75, 0
1, 166439, Note_on_c, 0, 79, 0
1, 166560, Note_on_c, 0, 72, 49
1, 166560, Note_on_c, 0, 75, 49
1, 166679, Note_on_c, 0, 72, 0
1, 166679, Note_on_c, 0, 75, 0
1, 166680, Note_on_c, 0, 74, 49
1, 166799, Note_on_c, 0, 74, 0
1, 166800, Note_on_c, 0, 72, 49
1, 166800, Note_on_c, 0, 75, 49
1, 166919, Note_on_c, 0, 72, 0
1, 166919, Note_on_c, 0, 75, 0
1, 166920, Note_on_c, 0, 72, 49
1, 167039, Note_on_c, 0, 72, 0
1, 167040, Note_on_c, 0, 72, 49
1, 167040, Note_on_c, 0, 75, 49
1, 167159, Note_on_c, 0, 72, 0
1, 167159, Note_on_c, 0, 75, 0
1, 167280, Note_on_c, 0, 63, 49
1, 167280, Note_on_c, 0, 67, 49
1, 167280, Note_on_c, 0, 72, 49
1, 167399, Note_on_c, 0, 63, 0
1, 167399, Note_on_c, 0, 67, 0
1, 167399, Note_on_c, 0, 72, 0
1, 167520, Note_on_c, 0, 60, 49
1, 167520, Note_on_c, 0, 63, 49
1, 167520, Note_on_c, 0, 67, 49
1, 167639, Note_on_c, 0, 60, 0
1, 167639, Note_on_c, 0, 63, 0
1, 167639, Note_on_c, 0, 67, 0
1, 167760, Note_on_c, 0, 70, 49
1, 167760, Note_on_c, 0, 73, 49
1, 167760, Note_on_c, 0, 67, 58
1, 167879, Note_on_c, 0, 67, 0
1, 167880, Note_on_c, 0, 69, 49
1, 167999, Note_on_c, 0, 69, 0
1, 168000, Note_on_c, 0, 70, 0
1, 168000, Note_on_c, 0, 70, 49
1, 168120, Note_on_c, 0, 67, 49
1, 168239, Note_on_c, 0, 67, 0
1, 168240, Note_on_c, 0, 69, 49
1, 168359, Note_on_c, 0, 69, 0
1, 168360, Note_on_c, 0, 70, 0
1, 168360, Note_on_c, 0, 70, 49
1, 168479, Note_on_c, 0, 73, 0
1, 168480, Note_on_c, 0, 72, 49
1, 168480, Note_on_c, 0, 67, 49
1, 168719, Note_on_c, 0, 70, 0
1, 168719, Note_on_c, 0, 72, 0
1, 168719, Note_on_c, 0, 67, 0
1, 168720, Note_on_c, 0, 73, 49
1, 168720, Note_on_c, 0, 79, 49
1, 168839, Note_on_c, 0, 73, 0
1, 168839, Note_on_c, 0, 79, 0
1, 168960, Note_on_c, 0, 67, 49
1, 168960, Note_on_c, 0, 73, 49
1, 169079, Note_on_c, 0, 67, 0
1, 169079, Note_on_c, 0, 73, 0
1, 169200, Note_on_c, 0, 66, 49
1, 169200, Note_on_c, 0, 74, 49
1, 169319, Note_on_c, 0, 66, 0
1, 169319, Note_on_c, 0, 74, 0
1, 169320, Note_on_c, 0, 69, 49
1, 169439, Note_on_c, 0, 69, 0
1, 169440, Note_on_c, 0, 74, 49
1, 169559, Note_on_c, 0, 74, 0
1, 169560, Note_on_c, 0, 69, 49
1, 169679, Note_on_c, 0, 69, 0
1, 169680, Note_on_c, 0, 74, 49
1, 169799, Note_on_c, 0, 74, 0
1, 169800, Note_on_c, 0, 78, 49
1, 169919, Note_on_c, 0, 78, 0
1, 169920, Note_on_c, 0, 74, 49
1, 170039, Note_on_c, 0, 74, 0
1, 170040, Note_on_c, 0, 78, 49
1, 170159, Note_on_c, 0, 78, 0
1, 170160, Note_on_c, 0, 81, 49
1, 170399, Note_on_c, 0, 81, 0
1, 170400, Note_on_c, 0, 86, 49
1, 170400, Note_on_c, 0, 98, 49
1, 170639, Note_on_c, 0, 86, 0
1, 170639, Note_on_c, 0, 98, 0
1, 170640, Note_on_c, 0, 91, 127
1, 170640, Note_on_c, 0, 103, 127
1, 171359, Note_on_c, 0, 91, 0
1, 171359, Note_on_c, 0, 103, 0
1, 171360, Note_on_c, 0, 84, 94
1, 171360, Note_on_c, 0, 96, 94
1, 171839, Note_on_c, 0, 84, 0
1, 171839, Note_on_c, 0, 96, 0
1, 171840, Note_on_c, 0, 62, 94
1, 171959, Note_on_c, 0, 62, 0
1, 172080, Note_on_c, 0, 62, 94
1, 172199, Note_on_c, 0, 62, 0
1, 172320, Note_on_c, 0, 62, 94
1, 172379, Note_on_c, 0, 62, 0
1, 172440, Note_on_c, 0, 62, 94
1, 172499, Note_on_c, 0, 62, 0
1, 172560, Note_on_c, 0, 62, 94
1, 172679, Note_on_c, 0, 62, 0
1, 172800, Note_on_c, 0, 62, 94
1, 172919, Note_on_c, 0, 62, 0
1, 173280, Note_on_c, 0, 77, 94
1, 173519, Note_on_c, 0, 77, 0
1, 173520, Note_on_c, 0, 77, 115
1, 173520, Note_on_c, 0, 89, 115
1, 174239, Note_on_c, 0, 77, 0
1, 174239, Note_on_c, 0, 89, 0
1, 174240, Note_on_c, 0, 70, 96
1, 174240, Note_on_c, 0, 82, 96
1, 174719, Note_on_c, 0, 70, 0
1, 174719, Note_on_c, 0, 82, 0
1, 174720, Note_on_c, 0, 50, 96
1, 174839, Note_on_c, 0, 50, 0
1, 174960, Note_on_c, 0, 50, 96
1, 175079, Note_on_c, 0, 50, 0
1, 175200, Note_on_c, 0, 50, 96
1, 175319, Note_on_c, 0, 50, 0
1, 175320, Note_on_c, 0, 50, 96
1, 175439, Note_on_c, 0, 50, 0
1, 175440, Note_on_c, 0, 50, 96
1, 175559, Note_on_c, 0, 50, 0
1, 175680, Note_on_c, 0, 50, 96
1, 175799, Note_on_c, 0, 50, 0
1, 176160, Note_on_c, 0, 63, 96
1, 176399, Note_on_c, 0, 63, 0
1, 176400, Note_on_c, 0, 63, 115
1, 176400, Note_on_c, 0, 75, 115
1, 177119, Note_on_c, 0, 63, 0
1, 177119, Note_on_c, 0, 75, 0
1, 177120, Note_on_c, 0, 69, 96
1, 177599, Note_on_c, 0, 69, 0
1, 177600, Note_on_c, 0, 39, 96
1, 177719, Note_on_c, 0, 39, 0
1, 177840, Note_on_c, 0, 60, 96
1, 177840, Note_on_c, 0, 72, 96
1, 178080, Note_on_c, 0, 60, 0
1, 178320, Note_on_c, 0, 38, 96
1, 178439, Note_on_c, 0, 38, 0
1, 178559, Note_on_c, 0, 72, 0
1, 178560, Note_on_c, 0, 66, 96
1, 179039, Note_on_c, 0, 66, 0
1, 179040, Note_on_c, 0, 39, 96
1, 179159, Note_on_c, 0, 39, 0
1, 179280, Note_on_c, 0, 60, 96
1, 179999, Note_on_c, 0, 60, 0
1, 180000, Note_on_c, 0, 54, 96
1, 180479, Note_on_c, 0, 54, 0
1, 182280, Note_on_c, 0, 63, 96
1, 182399, Note_on_c, 0, 63, 0
1, 182400, Note_on_c, 0, 64, 96
1, 182519, Note_on_c, 0, 64, 0
1, 182520, Note_on_c, 0, 65, 96
1, 182639, Note_on_c, 0, 65, 0
1, 182640, Note_on_c, 0, 66, 96
1, 182759, Note_on_c, 0, 66, 0
1, 182760, Note_on_c, 0, 67, 96
1, 182879, Note_on_c, 0, 67, 0
1, 182880, Note_on_c, 0, 68, 96
1, 182999, Note_on_c, 0, 68, 0
1, 183000, Note_on_c, 0, 69, 96
1, 183119, Note_on_c, 0, 69, 0
1, 183120, Note_on_c, 0, 70, 96
1, 183239, Note_on_c, 0, 70, 0
1, 183240, Note_on_c, 0, 71, 96
1, 183359, Note_on_c, 0, 71, 0
1, 183360, Note_on_c, 0, 72, 96
1, 183479, Note_on_c, 0, 72, 0
1, 183480, Note_on_c, 0, 73, 96
1, 183599, Note_on_c, 0, 73, 0
1, 183720, Note_on_c, 0, 75, 96
1, 183839, Note_on_c, 0, 75, 0
1, 183840, Note_on_c, 0, 76, 96
1, 183959, Note_on_c, 0, 76, 0
1, 183960, Note_on_c, 0, 77, 96
1, 184079, Note_on_c, 0, 77, 0
1, 184080, Note_on_c, 0, 75, 96
1, 184080, Note_on_c, 0, 78, 96
1, 184199, Note_on_c, 0, 75, 0
1, 184199, Note_on_c, 0, 78, 0
1, 184200, Note_on_c, 0, 76, 96
1, 184200, Note_on_c, 0, 79, 96
1, 184319, Note_on_c, 0, 76, 0
1, 184319, Note_on_c, 0, 79, 0
1, 184320, Note_on_c, 0, 77, 96
1, 184320, Note_on_c, 0, 80, 96
1, 184439, Note_on_c, 0, 77, 0
1, 184439, Note_on_c, 0, 80, 0
1, 184440, Note_on_c, 0, 78, 96
1, 184440, Note_on_c, 0, 81, 96
1, 184559, Note_on_c, 0, 78, 0
1, 184559, Note_on_c, 0, 81, 0
1, 184560, Note_on_c, 0, 80, 96
1, 184560, Note_on_c, 0, 82, 96
1, 184679, Note_on_c, 0, 80, 0
1, 184679, Note_on_c, 0, 82, 0
1, 184680, Note_on_c, 0, 83, 96
1, 184799, Note_on_c, 0, 83, 0
1, 184800, Note_on_c, 0, 81, 96
1, 184800, Note_on_c, 0, 84, 96
1, 184919, Note_on_c, 0, 81, 0
1, 184919, Note_on_c, 0, 84, 0
1, 184920, Note_on_c, 0, 85, 96
1, 185039, Note_on_c, 0, 85, 0
1, 185040, Note_on_c, 0, 82, 49
1, 185040, Note_on_c, 0, 86, 49
1, 185159, Note_on_c, 0, 82, 0
1, 185159, Note_on_c, 0, 86, 0
1, 185280, Note_on_c, 0, 86, 49
1, 185399, Note_on_c, 0, 86, 0
1, 185400, Note_on_c, 0, 86, 49
1, 185519, Note_on_c, 0, 86, 0
1, 185520, Note_on_c, 0, 86, 49
1, 185639, Note_on_c, 0, 86, 0
1, 185640, Note_on_c, 0, 86, 49
1, 185759, Note_on_c, 0, 86, 0
1, 185760, Note_on_c, 0, 98, 49
1, 185879, Note_on_c, 0, 98, 0
1, 185880, Note_on_c, 0, 86, 49
1, 185999, Note_on_c, 0, 86, 0
1, 186120, Note_on_c, 0, 82, 49
1, 186239, Note_on_c, 0, 82, 0
1, 186240, Note_on_c, 0, 86, 49
1, 186359, Note_on_c, 0, 86, 0
1, 186360, Note_on_c, 0, 79, 49
1, 186479, Note_on_c, 0, 79, 0
1, 186480, Note_on_c, 0, 82, 49
1, 186480, Note_on_c, 0, 86, 49
1, 186599, Note_on_c, 0, 82, 0
1, 186599, Note_on_c, 0, 86, 0
1, 186600, Note_on_c, 0, 74, 49
1, 186719, Note_on_c, 0, 74, 0
1, 186720, Note_on_c, 0, 81, 49
1, 186720, Note_on_c, 0, 74, 49
1, 186839, Note_on_c, 0, 74, 0
1, 186840, Note_on_c, 0, 74, 49
1, 186959, Note_on_c, 0, 81, 0
1, 186959, Note_on_c, 0, 74, 0
1, 186960, Note_on_c, 0, 78, 49
1, 186960, Note_on_c, 0, 74, 49
1, 187079, Note_on_c, 0, 74, 0
1, 187080, Note_on_c, 0, 74, 49
1, 187199, Note_on_c, 0, 78, 0
1, 187199, Note_on_c, 0, 74, 0
1, 187200, Note_on_c, 0, 79, 49
1, 187200, Note_on_c, 0, 86, 49
1, 187319, Note_on_c, 0, 79, 0
1, 187319, Note_on_c, 0, 86, 0
1, 187320, Note_on_c, 0, 74, 49
1, 187439, Note_on_c, 0, 74, 0
1, 187440, Note_on_c, 0, 70, 49
1, 187440, Note_on_c, 0, 74, 49
1, 187559, Note_on_c, 0, 70, 0
1, 187559, Note_on_c, 0, 74, 0
1, 187680, Note_on_c, 0, 70, 49
1, 187799, Note_on_c, 0, 70, 0
1, 188160, Note_on_c, 0, 74, 49
1, 188160, Note_on_c, 0, 69, 49
1, 188279, Note_on_c, 0, 69, 0
1, 188280, Note_on_c, 0, 67, 49
1, 188399, Note_on_c, 0, 67, 0
1, 188400, Note_on_c, 0, 69, 49
1, 188519, Note_on_c, 0, 69, 0
1, 188520, Note_on_c, 0, 66, 49
1, 188639, Note_on_c, 0, 66, 0
1, 188640, Note_on_c, 0, 67, 49
1, 188759, Note_on_c, 0, 67, 0
1, 188760, Note_on_c, 0, 62, 49
1, 188879, Note_on_c, 0, 74, 0
1, 188879, Note_on_c, 0, 62, 0
1, 188880, Note_on_c, 0, 74, 49
1, 188880, Note_on_c, 0, 69, 49
1, 188999, Note_on_c, 0, 69, 0
1, 189000, Note_on_c, 0, 67, 49
1, 189119, Note_on_c, 0, 67, 0
1, 189120, Note_on_c, 0, 69, 49
1, 189239, Note_on_c, 0, 69, 0
1, 189240, Note_on_c, 0, 66, 49
1, 189359, Note_on_c, 0, 66, 0
1, 189360, Note_on_c, 0, 67, 49
1, 189479, Note_on_c, 0, 67, 0
1, 189480, Note_on_c, 0, 62, 49
1, 189599, Note_on_c, 0, 74, 0
1, 189599, Note_on_c, 0, 62, 0
1, 189600, Note_on_c, 0, 74, 49
1, 189600, Note_on_c, 0, 69, 49
1, 189719, Note_on_c, 0, 69, 0
1, 189720, Note_on_c, 0, 67, 49
1, 189839, Note_on_c, 0, 67, 0
1, 189840, Note_on_c, 0, 69, 49
1, 189959, Note_on_c, 0, 69, 0
1, 189960, Note_on_c, 0, 66, 49
1, 190079, Note_on_c, 0, 66, 0
1, 190080, Note_on_c, 0, 67, 49
1, 190199, Note_on_c, 0, 67, 0
1, 190200, Note_on_c, 0, 69, 49
1, 190319, Note_on_c, 0, 74, 0
1, 190319, Note_on_c, 0, 69, 0
1, 190320, Note_on_c, 0, 70, 49
1, 190439, Note_on_c, 0, 70, 0
1, 190440, Note_on_c, 0, 71, 49
1, 190559, Note_on_c, 0, 71, 0
1, 190560, Note_on_c, 0, 72, 49
1, 190679, Note_on_c, 0, 72, 0
1, 190680, Note_on_c, 0, 71, 49
1, 190680, Note_on_c, 0, 74, 49
1, 190799, Note_on_c, 0, 71, 0
1, 190799, Note_on_c, 0, 74, 0
1, 190800, Note_on_c, 0, 72, 49
1, 190800, Note_on_c, 0, 75, 49
1, 190800, Note_on_c, 0, 79, 49
1, 191039, Note_on_c, 0, 72, 0
1, 191039, Note_on_c, 0, 75, 0
1, 191039, Note_on_c, 0, 79, 0
1, 191040, Note_on_c, 0, 79, 49
1, 191040, Note_on_c, 0, 79, 0
1, 191160, Note_on_c, 0, 79, 49
1, 191279, Note_on_c, 0, 79, 0
1, 191280, Note_on_c, 0, 79, 49
1, 191399, Note_on_c, 0, 79, 0
1, 191400, Note_on_c, 0, 79, 49
1, 191519, Note_on_c, 0, 79, 0
1, 191520, Note_on_c, 0, 91, 49
1, 191639, Note_on_c, 0, 91, 0
1, 191640, Note_on_c, 0, 79, 49
1, 191759, Note_on_c, 0, 79, 0
1, 191880, Note_on_c, 0, 75, 49
1, 191999, Note_on_c, 0, 75, 0
1, 192000, Note_on_c, 0, 79, 49
1, 192119, Note_on_c, 0, 79, 0
1, 192120, Note_on_c, 0, 72, 49
1, 192239, Note_on_c, 0, 72, 0
1, 192240, Note_on_c, 0, 75, 49
1, 192240, Note_on_c, 0, 79, 49
1, 192359, Note_on_c, 0, 75, 0
1, 192359, Note_on_c, 0, 79, 0
1, 192360, Note_on_c, 0, 67, 49
1, 192479, Note_on_c, 0, 67, 0
1, 192480, Note_on_c, 0, 74, 49
1, 192480, Note_on_c, 0, 67, 49
1, 192599, Note_on_c, 0, 67, 0
1, 192600, Note_on_c, 0, 67, 49
1, 192719, Note_on_c, 0, 74, 0
1, 192719, Note_on_c, 0, 67, 0
1, 192720, Note_on_c, 0, 71, 49
1, 192720, Note_on_c, 0, 67, 49
1, 192839, Note_on_c, 0, 67, 0
1, 192840, Note_on_c, 0, 67, 49
1, 192959, Note_on_c, 0, 71, 0
1, 192959, Note_on_c, 0, 67, 0
1, 192960, Note_on_c, 0, 72, 49
1, 192960, Note_on_c, 0, 79, 49
1, 193079, Note_on_c, 0, 72, 0
1, 193079, Note_on_c, 0, 79, 0
1, 193080, Note_on_c, 0, 67, 49
1, 193199, Note_on_c, 0, 67, 0
1, 193200, Note_on_c, 0, 63, 49
1, 193200, Note_on_c, 0, 67, 49
1, 193319, Note_on_c, 0, 63, 0
1, 193319, Note_on_c, 0, 67, 0
1, 193440, Note_on_c, 0, 63, 49
1, 193559, Note_on_c, 0, 63, 0
1, 193920, Note_on_c, 0, 67, 49
1, 193920, Note_on_c, 0, 59, 49
1, 193920, Note_on_c, 0, 65, 49
1, 194039, Note_on_c, 0, 59, 0
1, 194039, Note_on_c, 0, 65, 0
1, 194040, Note_on_c, 0, 63, 49
1, 194159, Note_on_c, 0, 63, 0
1, 194160, Note_on_c, 0, 65, 49
1, 194279, Note_on_c, 0, 65, 0
1, 194280, Note_on_c, 0, 62, 49
1, 194399, Note_on_c, 0, 62, 0
1, 194400, Note_on_c, 0, 60, 49
1, 194400, Note_on_c, 0, 63, 49
1, 194519, Note_on_c, 0, 60, 0
1, 194519, Note_on_c, 0, 63, 0
1, 194520, Note_on_c, 0, 60, 49
1, 194639, Note_on_c, 0, 67, 0
1, 194639, Note_on_c, 0, 60, 0
1, 194640, Note_on_c, 0, 67, 49
1, 194640, Note_on_c, 0, 59, 49
1, 194640, Note_on_c, 0, 65, 49
1, 194759, Note_on_c, 0, 59, 0
1, 194759, Note_on_c, 0, 65, 0
1, 194760, Note_on_c, 0, 63, 49
1, 194879, Note_on_c, 0, 63, 0
1, 194880, Note_on_c, 0, 65, 49
1, 194999, Note_on_c, 0, 65, 0
1, 195000, Note_on_c, 0, 62, 49
1, 195119, Note_on_c, 0, 62, 0
1, 195120, Note_on_c, 0, 60, 49
1, 195120, Note_on_c, 0, 63, 49
1, 195239, Note_on_c, 0, 60, 0
1, 195239, Note_on_c, 0, 63, 0
1, 195240, Note_on_c, 0, 60, 49
1, 195359, Note_on_c, 0, 67, 0
1, 195359, Note_on_c, 0, 60, 0
1, 195360, Note_on_c, 0, 67, 49
1, 195360, Note_on_c, 0, 59, 49
1, 195360, Note_on_c, 0, 65, 49
1, 195479, Note_on_c, 0, 59, 0
1, 195479, Note_on_c, 0, 65, 0
1, 195480, Note_on_c, 0, 63, 49
1, 195599, Note_on_c, 0, 63, 0
1, 195600, Note_on_c, 0, 65, 49
1, 195719, Note_on_c, 0, 65, 0
1, 195720, Note_on_c, 0, 62, 49
1, 195839, Note_on_c, 0, 62, 0
1, 195840, Note_on_c, 0, 60, 49
1, 195840, Note_on_c, 0, 63, 49
1, 195959, Note_on_c, 0, 60, 0
1, 195959, Note_on_c, 0, 63, 0
1, 195960, Note_on_c, 0, 59, 49
1, 196079, Note_on_c, 0, 67, 0
1, 196079, Note_on_c, 0, 59, 0
1, 196080, Note_on_c, 0, 60, 49
1, 196199, Note_on_c, 0, 60, 0
1, 196200, Note_on_c, 0, 63, 49
1, 196319, Note_on_c, 0, 63, 0
1, 196320, Note_on_c, 0, 67, 49
1, 196439, Note_on_c, 0, 67, 0
1, 196440, Note_on_c, 0, 72, 49
1, 196559, Note_on_c, 0, 72, 0
1, 196560, Note_on_c, 0, 74, 127
1, 196560, Note_on_c, 0, 79, 112
1, 196799, Note_on_c, 0, 79, 0
1, 196800, Note_on_c, 0, 67, 103
1, 196919, Note_on_c, 0, 67, 0
1, 196920, Note_on_c, 0, 69, 98
1, 197039, Note_on_c, 0, 69, 0
1, 197040, Note_on_c, 0, 67, 94
1, 197159, Note_on_c, 0, 67, 0
1, 197160, Note_on_c, 0, 69, 94
1, 197279, Note_on_c, 0, 74, 0
1, 197279, Note_on_c, 0, 69, 0
1, 197280, Note_on_c, 0, 73, 94
1, 197280, Note_on_c, 0, 67, 94
1, 197280, Note_on_c, 0, 70, 94
1, 197399, Note_on_c, 0, 67, 0
1, 197399, Note_on_c, 0, 70, 0
1, 197400, Note_on_c, 0, 69, 94
1, 197519, Note_on_c, 0, 73, 0
1, 197519, Note_on_c, 0, 69, 0
1, 197520, Note_on_c, 0, 67, 94
1, 197639, Note_on_c, 0, 67, 0
1, 197640, Note_on_c, 0, 69, 94
1, 197759, Note_on_c, 0, 69, 0
1, 197760, Note_on_c, 0, 64, 112
1, 197760, Note_on_c, 0, 67, 112
1, 197879, Note_on_c, 0, 64, 0
1, 197879, Note_on_c, 0, 67, 0
1, 197880, Note_on_c, 0, 67, 94
1, 197999, Note_on_c, 0, 67, 0
1, 198000, Note_on_c, 0, 74, 127
1, 198000, Note_on_c, 0, 67, 112
1, 198000, Note_on_c, 0, 70, 112
1, 198119, Note_on_c, 0, 67, 0
1, 198119, Note_on_c, 0, 70, 0
1, 198120, Note_on_c, 0, 69, 108
1, 198239, Note_on_c, 0, 69, 0
1, 198240, Note_on_c, 0, 67, 103
1, 198359, Note_on_c, 0, 67, 0
1, 198360, Note_on_c, 0, 69, 98
1, 198479, Note_on_c, 0, 69, 0
1, 198480, Note_on_c, 0, 67, 94
1, 198599, Note_on_c, 0, 67, 0
1, 198600, Note_on_c, 0, 69, 94
1, 198719, Note_on_c, 0, 74, 0
1, 198719, Note_on_c, 0, 69, 0
1, 198720, Note_on_c, 0, 73, 94
1, 198720, Note_on_c, 0, 67, 94
1, 198720, Note_on_c, 0, 70, 94
1, 198839, Note_on_c, 0, 67, 0
1, 198839, Note_on_c, 0, 70, 0
1, 198840, Note_on_c, 0, 69, 94
1, 198959, Note_on_c, 0, 73, 0
1, 198959, Note_on_c, 0, 69, 0
1, 198960, Note_on_c, 0, 67, 94
1, 199079, Note_on_c, 0, 67, 0
1, 199080, Note_on_c, 0, 69, 94
1, 199199, Note_on_c, 0, 69, 0
1, 199200, Note_on_c, 0, 64, 112
1, 199200, Note_on_c, 0, 67, 112
1, 199319, Note_on_c, 0, 64, 0
1, 199319, Note_on_c, 0, 67, 0
1, 199320, Note_on_c, 0, 69, 94
1, 199439, Note_on_c, 0, 69, 0
1, 199440, Note_on_c, 0, 74, 127
1, 199440, Note_on_c, 0, 67, 112
1, 199440, Note_on_c, 0, 70, 112
1, 199559, Note_on_c, 0, 67, 0
1, 199559, Note_on_c, 0, 70, 0
1, 199560, Note_on_c, 0, 69, 108
1, 199679, Note_on_c, 0, 69, 0
1, 199680, Note_on_c, 0, 67, 103
1, 199799, Note_on_c, 0, 67, 0
1, 199800, Note_on_c, 0, 69, 98
1, 199919, Note_on_c, 0, 69, 0
1, 199920, Note_on_c, 0, 67, 94
1, 200039, Note_on_c, 0, 67, 0
1, 200040, Note_on_c, 0, 69, 94
1, 200159, Note_on_c, 0, 74, 0
1, 200159, Note_on_c, 0, 69, 0
1, 200160, Note_on_c, 0, 73, 94
1, 200160, Note_on_c, 0, 67, 94
1, 200160, Note_on_c, 0, 70, 94
1, 200279, Note_on_c, 0, 67, 0
1, 200279, Note_on_c, 0, 70, 0
1, 200280, Note_on_c, 0, 69, 94
1, 200399, Note_on_c, 0, 73, 0
1, 200399, Note_on_c, 0, 69, 0
1, 200400, Note_on_c, 0, 63, 94
1, 200400, Note_on_c, 0, 67, 94
1, 200519, Note_on_c, 0, 63, 0
1, 200519, Note_on_c, 0, 67, 0
1, 200520, Note_on_c, 0, 70, 94
1, 200639, Note_on_c, 0, 70, 0
1, 200640, Note_on_c, 0, 73, 49
1, 200640, Note_on_c, 0, 69, 49
1, 200759, Note_on_c, 0, 69, 0
1, 200760, Note_on_c, 0, 70, 49
1, 200879, Note_on_c, 0, 73, 0
1, 200879, Note_on_c, 0, 70, 0
1, 200880, Note_on_c, 0, 69, 49
1, 200880, Note_on_c, 0, 74, 49
1, 200999, Note_on_c, 0, 69, 0
1, 200999, Note_on_c, 0, 74, 0
1, 201000, Note_on_c, 0, 62, 49
1, 201119, Note_on_c, 0, 62, 0
1, 201120, Note_on_c, 0, 69, 49
1, 201120, Note_on_c, 0, 72, 49
1, 201239, Note_on_c, 0, 69, 0
1, 201239, Note_on_c, 0, 72, 0
1, 201360, Note_on_c, 0, 67, 49
1, 201360, Note_on_c, 0, 70, 49
1, 201479, Note_on_c, 0, 67, 0
1, 201479, Note_on_c, 0, 70, 0
1, 201480, Note_on_c, 0, 62, 49
1, 201599, Note_on_c, 0, 62, 0
1, 201600, Note_on_c, 0, 63, 49
1, 201600, Note_on_c, 0, 69, 49
1, 201719, Note_on_c, 0, 63, 0
1, 201719, Note_on_c, 0, 69, 0
1, 201840, Note_on_c, 0, 62, 49
1, 201840, Note_on_c, 0, 67, 49
1, 201959, Note_on_c, 0, 62, 0
1, 201959, Note_on_c, 0, 67, 0
1, 201960, Note_on_c, 0, 58, 49
1, 202079, Note_on_c, 0, 58, 0
1, 202080, Note_on_c, 0, 62, 49
1, 202080, Note_on_c, 0, 66, 49
1, 202199, Note_on_c, 0, 62, 0
1, 202199, Note_on_c, 0, 66, 0
1, 202320, Note_on_c, 0, 67, 58
1, 202320, Note_on_c, 0, 70, 58
1, 202320, Note_on_c, 0, 74, 58
1, 202800, Note_on_c, 0, 67, 0
1, 202800, Note_on_c, 0, 67, 49
1, 202920, Note_on_c, 0, 69, 49
1, 203039, Note_on_c, 0, 67, 0
1, 203039, Note_on_c, 0, 70, 0
1, 203039, Note_on_c, 0, 74, 0
1, 203039, Note_on_c, 0, 69, 0
1, 203040, Note_on_c, 0, 73, 49
1, 203040, Note_on_c, 0, 70, 49
1, 203159, Note_on_c, 0, 70, 0
1, 203160, Note_on_c, 0, 69, 49
1, 203279, Note_on_c, 0, 69, 0
1, 203400, Note_on_c, 0, 73, 0
1, 203400, Note_on_c, 0, 73, 49
1, 203519, Note_on_c, 0, 73, 0
1, 203520, Note_on_c, 0, 79, 49
1, 203520, Note_on_c, 0, 79, 0
1, 203520, Note_on_c, 0, 79, 49
1, 203640, Note_on_c, 0, 81, 49
1, 203759, Note_on_c, 0, 79, 0
1, 203759, Note_on_c, 0, 81, 0
1, 203760, Note_on_c, 0, 74, 127
1, 203760, Note_on_c, 0, 82, 112
1, 203879, Note_on_c, 0, 82, 0
1, 203880, Note_on_c, 0, 81, 108
1, 203999, Note_on_c, 0, 81, 0
1, 204000, Note_on_c, 0, 79, 103
1, 204119, Note_on_c, 0, 79, 0
1, 204120, Note_on_c, 0, 74, 0
1, 204120, Note_on_c, 0, 74, 98
1, 204240, Note_on_c, 0, 67, 94
1, 204359, Note_on_c, 0, 67, 0
1, 204360, Note_on_c, 0, 69, 94
1, 204479, Note_on_c, 0, 74, 0
1, 204479, Note_on_c, 0, 69, 0
1, 204480, Note_on_c, 0, 73, 94
1, 204480, Note_on_c, 0, 70, 94
1, 204599, Note_on_c, 0, 70, 0
1, 204600, Note_on_c, 0, 69, 94
1, 204719, Note_on_c, 0, 69, 0
1, 204840, Note_on_c, 0, 73, 0
1, 204840, Note_on_c, 0, 73, 94
1, 204959, Note_on_c, 0, 73, 0
1, 204960, Note_on_c, 0, 79, 94
1, 204960, Note_on_c, 0, 79, 0
1, 204960, Note_on_c, 0, 79, 94
1, 205080, Note_on_c, 0, 81, 94
1, 205199, Note_on_c, 0, 79, 0
1, 205199, Note_on_c, 0, 81, 0
1, 205200, Note_on_c, 0, 74, 127
1, 205200, Note_on_c, 0, 82, 112
1, 205319, Note_on_c, 0, 82, 0
1, 205320, Note_on_c, 0, 81, 108
1, 205439, Note_on_c, 0, 81, 0
1, 205440, Note_on_c, 0, 79, 103
1, 205559, Note_on_c, 0, 79, 0
1, 205560, Note_on_c, 0, 74, 0
1, 205560, Note_on_c, 0, 74, 98
1, 205680, Note_on_c, 0, 67, 94
1, 205799, Note_on_c, 0, 67, 0
1, 205800, Note_on_c, 0, 69, 94
1, 205919, Note_on_c, 0, 74, 0
1, 205919, Note_on_c, 0, 69, 0
1, 205920, Note_on_c, 0, 73, 94
1, 205920, Note_on_c, 0, 70, 94
1, 206039, Note_on_c, 0, 70, 0
1, 206040, Note_on_c, 0, 69, 94
1, 206159, Note_on_c, 0, 69, 0
1, 206280, Note_on_c, 0, 69, 94
1, 206399, Note_on_c, 0, 73, 0
1, 206399, Note_on_c, 0, 69, 0
1, 206400, Note_on_c, 0, 73, 94
1, 206400, Note_on_c, 0, 70, 94
1, 206519, Note_on_c, 0, 73, 0
1, 206519, Note_on_c, 0, 70, 0
1, 206520, Note_on_c, 0, 69, 94
1, 206639, Note_on_c, 0, 69, 0
1, 206640, Note_on_c, 0, 69, 94
1, 206640, Note_on_c, 0, 74, 94
1, 206759, Note_on_c, 0, 69, 0
1, 206759, Note_on_c, 0, 74, 0
1, 206880, Note_on_c, 0, 72, 49
1, 206880, Note_on_c, 0, 75, 49
1, 206999, Note_on_c, 0, 72, 0
1, 206999, Note_on_c, 0, 75, 0
1, 207120, Note_on_c, 0, 74, 49
1, 207239, Note_on_c, 0, 74, 0
1, 207360, Note_on_c, 0, 72, 49
1, 207360, Note_on_c, 0, 75, 49
1, 207439, Note_on_c, 0, 72, 0
1, 207439, Note_on_c, 0, 75, 0
1, 207440, Note_on_c, 0, 77, 49
1, 207519, Note_on_c, 0, 77, 0
1, 207520, Note_on_c, 0, 75, 49
1, 207599, Note_on_c, 0, 75, 0
1, 207600, Note_on_c, 0, 74, 49
1, 207839, Note_on_c, 0, 74, 0
1, 207840, Note_on_c, 0, 69, 49
1, 207840, Note_on_c, 0, 72, 49
1, 207959, Note_on_c, 0, 69, 0
1, 207959, Note_on_c, 0, 72, 0
1, 208080, Note_on_c, 0, 70, 49
1, 208199, Note_on_c, 0, 70, 0
1, 208320, Note_on_c, 0, 69, 49
1, 208320, Note_on_c, 0, 72, 49
1, 208399, Note_on_c, 0, 69, 0
1, 208399, Note_on_c, 0, 72, 0
1, 208400, Note_on_c, 0, 74, 49
1, 208479, Note_on_c, 0, 74, 0
1, 208480, Note_on_c, 0, 72, 49
1, 208559, Note_on_c, 0, 72, 0
1, 208560, Note_on_c, 0, 70, 49
1, 208799, Note_on_c, 0, 70, 0
1, 208800, Note_on_c, 0, 65, 49
1, 208800, Note_on_c, 0, 68, 49
1, 208919, Note_on_c, 0, 65, 0
1, 208919, Note_on_c, 0, 68, 0
1, 209040, Note_on_c, 0, 67, 49
1, 209159, Note_on_c, 0, 67, 0
1, 209280, Note_on_c, 0, 65, 49
1, 209280, Note_on_c, 0, 68, 49
1, 209359, Note_on_c, 0, 65, 0
1, 209359, Note_on_c, 0, 68, 0
1, 209360, Note_on_c, 0, 70, 49
1, 209439, Note_on_c, 0, 70, 0
1, 209440, Note_on_c, 0, 68, 49
1, 209519, Note_on_c, 0, 68, 0
1, 209520, Note_on_c, 0, 67, 49
1, 209639, Note_on_c, 0, 67, 0
1, 209760, Note_on_c, 0, 62, 49
1, 209760, Note_on_c, 0, 65, 49
1, 209879, Note_on_c, 0, 62, 0
1, 209879, Note_on_c, 0, 65, 0
1, 210000, Note_on_c, 0, 63, 49
1, 210119, Note_on_c, 0, 63, 0
1, 210240, Note_on_c, 0, 62, 49
1, 210240, Note_on_c, 0, 65, 49
1, 210319, Note_on_c, 0, 62, 0
1, 210319, Note_on_c, 0, 65, 0
1, 210320, Note_on_c, 0, 67, 49
1, 210399, Note_on_c, 0, 67, 0
1, 210400, Note_on_c, 0, 65, 49
1, 210479, Note_on_c, 0, 65, 0
1, 210480, Note_on_c, 0, 63, 49
1, 210719, Note_on_c, 0, 63, 0
1, 210720, Note_on_c, 0, 60, 49
1, 210720, Note_on_c, 0, 62, 49
1, 210839, Note_on_c, 0, 60, 0
1, 210839, Note_on_c, 0, 62, 0
1, 210840, Note_on_c, 0, 57, 49
1, 210959, Note_on_c, 0, 57, 0
1, 210960, Note_on_c, 0, 58, 49
1, 210960, Note_on_c, 0, 62, 49
1, 211079, Note_on_c, 0, 58, 0
1, 211079, Note_on_c, 0, 62, 0
1, 211080, Note_on_c, 0, 55, 49
1, 211199, Note_on_c, 0, 55, 0
1, 211200, Note_on_c, 0, 57, 49
1, 211319, Note_on_c, 0, 57, 0
1, 211320, Note_on_c, 0, 55, 49
1, 211439, Note_on_c, 0, 55, 0
1, 211440, Note_on_c, 0, 58, 49
1, 211440, Note_on_c, 0, 67, 49
1, 211559, Note_on_c, 0, 58, 0
1, 211559, Note_on_c, 0, 67, 0
1, 211680, Note_on_c, 0, 57, 49
1, 211680, Note_on_c, 0, 63, 49
1, 211680, Note_on_c, 0, 67, 49
1, 211799, Note_on_c, 0, 57, 0
1, 211799, Note_on_c, 0, 63, 0
1, 211799, Note_on_c, 0, 67, 0
1, 211920, Note_on_c, 0, 60, 49
1, 211920, Note_on_c, 0, 63, 49
1, 211920, Note_on_c, 0, 67, 49
1, 212039, Note_on_c, 0, 60, 0
1, 212039, Note_on_c, 0, 63, 0
1, 212039, Note_on_c, 0, 67, 0
1, 212160, Note_on_c, 0, 60, 49
1, 212160, Note_on_c, 0, 62, 49
1, 212160, Note_on_c, 0, 66, 49
1, 212279, Note_on_c, 0, 60, 0
1, 212279, Note_on_c, 0, 62, 0
1, 212279, Note_on_c, 0, 66, 0
1, 212400, Note_on_c, 0, 59, 49
1, 212400, Note_on_c, 0, 62, 49
1, 212400, Note_on_c, 0, 67, 49
1, 212519, Note_on_c, 0, 59, 0
1, 212519, Note_on_c, 0, 62, 0
1, 212519, Note_on_c, 0, 67, 0
1, 212640, Note_on_c, 0, 55, 49
1, 212759, Note_on_c, 0, 55, 0
1, 212880, Note_on_c, 0, 67, 49
1, 212880, Note_on_c, 0, 62, 49
1, 213119, Note_on_c, 0, 67, 0
1, 213119, Note_on_c, 0, 62, 0
1, 213120, Note_on_c, 0, 67, 33
1, 213120, Note_on_c, 0, 64, 33
1, 213239, Note_on_c, 0, 64, 0
1, 213240, Note_on_c, 0, 62, 33
1, 213359, Note_on_c, 0, 67, 0
1, 213359, Note_on_c, 0, 62, 0
1, 213360, Note_on_c, 0, 60, 33
1, 213479, Note_on_c, 0, 60, 0
1, 213480, Note_on_c, 0, 64, 33
1, 213599, Note_on_c, 0, 64, 0
1, 213600, Note_on_c, 0, 67, 33
1, 213600, Note_on_c, 0, 62, 33
1, 213719, Note_on_c, 0, 62, 0
1, 213720, Note_on_c, 0, 60, 33
1, 213839, Note_on_c, 0, 67, 0
1, 213839, Note_on_c, 0, 60, 0
1, 213840, Note_on_c, 0, 67, 33
1, 213840, Note_on_c, 0, 62, 33
1, 214079, Note_on_c, 0, 67, 0
1, 214079, Note_on_c, 0, 62, 0
1, 214080, Note_on_c, 0, 55, 33
1, 214319, Note_on_c, 0, 55, 0
1, 214320, Note_on_c, 0, 67, 33
1, 214320, Note_on_c, 0, 62, 33
1, 214559, Note_on_c, 0, 67, 0
1, 214559, Note_on_c, 0, 62, 0
1, 214560, Note_on_c, 0, 67, 33
1, 214560, Note_on_c, 0, 61, 33
1, 214679, Note_on_c, 0, 61, 0
1, 214680, Note_on_c, 0, 59, 33
1, 214799, Note_on_c, 0, 67, 0
1, 214799, Note_on_c, 0, 59, 0
1, 214800, Note_on_c, 0, 57, 33
1, 214919, Note_on_c, 0, 57, 0
1, 214920, Note_on_c, 0, 61, 33
1, 215039, Note_on_c, 0, 61, 0
1, 215040, Note_on_c, 0, 67, 33
1, 215040, Note_on_c, 0, 59, 33
1, 215159, Note_on_c, 0, 59, 0
1, 215160, Note_on_c, 0, 57, 33
1, 215279, Note_on_c, 0, 67, 0
1, 215279, Note_on_c, 0, 57, 0
1, 215280, Note_on_c, 0, 66, 33
1, 215280, Note_on_c, 0, 60, 39
1, 215399, Note_on_c, 0, 66, 0
1, 215759, Note_on_c, 0, 60, 0
1, 215760, Note_on_c, 0, 66, 33
1, 215760, Note_on_c, 0, 62, 33
1, 215879, Note_on_c, 0, 66, 0
1, 215879, Note_on_c, 0, 62, 0
1, 215880, Note_on_c, 0, 60, 33
1, 215999, Note_on_c, 0, 60, 0
1, 216000, Note_on_c, 0, 67, 33
1, 216000, Note_on_c, 0, 59, 33
1, 216119, Note_on_c, 0, 59, 0
1, 216120, Note_on_c, 0, 57, 33
1, 216239, Note_on_c, 0, 67, 0
1, 216239, Note_on_c, 0, 57, 0
1, 216240, Note_on_c, 0, 55, 33
1, 216359, Note_on_c, 0, 55, 0
1, 216360, Note_on_c, 0, 64, 33
1, 216479, Note_on_c, 0, 64, 0
1, 216480, Note_on_c, 0, 67, 33
1, 216480, Note_on_c, 0, 62, 33
1, 216599, Note_on_c, 0, 62, 0
1, 216600, Note_on_c, 0, 60, 33
1, 216719, Note_on_c, 0, 67, 0
1, 216719, Note_on_c, 0, 60, 0
1, 216720, Note_on_c, 0, 67, 33
1, 216720, Note_on_c, 0, 59, 33
1, 216839, Note_on_c, 0, 59, 0
1, 216840, Note_on_c, 0, 57, 33
1, 216959, Note_on_c, 0, 67, 0
1, 216959, Note_on_c, 0, 57, 0
1, 216960, Note_on_c, 0, 55, 33
1, 217079, Note_on_c, 0, 55, 0
1, 217080, Note_on_c, 0, 64, 33
1, 217199, Note_on_c, 0, 64, 0
1, 217200, Note_on_c, 0, 67, 33
1, 217200, Note_on_c, 0, 62, 33
1, 217319, Note_on_c, 0, 62, 0
1, 217320, Note_on_c, 0, 60, 33
1, 217439, Note_on_c, 0, 67, 0
1, 217439, Note_on_c, 0, 60, 0
1, 217440, Note_on_c, 0, 67, 33
1, 217440, Note_on_c, 0, 59, 33
1, 217559, Note_on_c, 0, 59, 0
1, 217560, Note_on_c, 0, 57, 33
1, 217679, Note_on_c, 0, 57, 0
1, 217680, Note_on_c, 0, 55, 33
1, 217799, Note_on_c, 0, 55, 0
1, 217800, Note_on_c, 0, 57, 33
1, 217919, Note_on_c, 0, 67, 0
1, 217919, Note_on_c, 0, 57, 0
1, 217920, Note_on_c, 0, 59, 38
1, 218039, Note_on_c, 0, 59, 0
1, 218040, Note_on_c, 0, 60, 43
1, 218159, Note_on_c, 0, 60, 0
1, 218160, Note_on_c, 0, 62, 49
1, 218279, Note_on_c, 0, 62, 0
1, 218280, Note_on_c, 0, 64, 49
1, 218399, Note_on_c, 0, 64, 0
1, 218400, Note_on_c, 0, 65, 49
1, 218519, Note_on_c, 0, 65, 0
1, 218520, Note_on_c, 0, 62, 49
1, 218639, Note_on_c, 0, 62, 0
1, 218640, Note_on_c, 0, 67, 44
1, 218640, Note_on_c, 0, 67, 0
1, 218640, Note_on_c, 0, 67, 44
1, 218760, Note_on_c, 0, 65, 39
1, 218879, Note_on_c, 0, 67, 0
1, 218879, Note_on_c, 0, 65, 0
1, 218880, Note_on_c, 0, 67, 33
1, 218880, Note_on_c, 0, 64, 33
1, 218999, Note_on_c, 0, 64, 0
1, 219000, Note_on_c, 0, 62, 33
1, 219119, Note_on_c, 0, 67, 0
1, 219119, Note_on_c, 0, 62, 0
1, 219120, Note_on_c, 0, 60, 33
1, 219239, Note_on_c, 0, 60, 0
1, 219240, Note_on_c, 0, 64, 33
1, 219359, Note_on_c, 0, 64, 0
1, 219360, Note_on_c, 0, 67, 33
1, 219360, Note_on_c, 0, 62, 33
1, 219479, Note_on_c, 0, 62, 0
1, 219480, Note_on_c, 0, 60, 33
1, 219599, Note_on_c, 0, 67, 0
1, 219599, Note_on_c, 0, 60, 0
1, 219600, Note_on_c, 0, 67, 33
1, 219600, Note_on_c, 0, 62, 33
1, 219839, Note_on_c, 0, 67, 0
1, 219839, Note_on_c, 0, 62, 0
1, 219840, Note_on_c, 0, 55, 33
1, 220079, Note_on_c, 0, 55, 0
1, 220080, Note_on_c, 0, 67, 33
1, 220080, Note_on_c, 0, 62, 33
1, 220319, Note_on_c, 0, 67, 0
1, 220319, Note_on_c, 0, 62, 0
1, 220320, Note_on_c, 0, 67, 33
1, 220320, Note_on_c, 0, 61, 33
1, 220439, Note_on_c, 0, 61, 0
1, 220440, Note_on_c, 0, 59, 33
1, 220559, Note_on_c, 0, 67, 0
1, 220559, Note_on_c, 0, 59, 0
1, 220560, Note_on_c, 0, 57, 33
1, 220679, Note_on_c, 0, 57, 0
1, 220680, Note_on_c, 0, 61, 33
1, 220799, Note_on_c, 0, 61, 0
1, 220800, Note_on_c, 0, 67, 33
1, 220800, Note_on_c, 0, 59, 33
1, 220919, Note_on_c, 0, 59, 0
1, 220920, Note_on_c, 0, 57, 33
1, 221039, Note_on_c, 0, 67, 0
1, 221039, Note_on_c, 0, 57, 0
1, 221040, Note_on_c, 0, 66, 33
1, 221040, Note_on_c, 0, 60, 39
1, 221159, Note_on_c, 0, 66, 0
1, 221519, Note_on_c, 0, 60, 0
1, 221520, Note_on_c, 0, 66, 33
1, 221520, Note_on_c, 0, 62, 33
1, 221639, Note_on_c, 0, 66, 0
1, 221639, Note_on_c, 0, 62, 0
1, 221640, Note_on_c, 0, 60, 33
1, 221759, Note_on_c, 0, 60, 0
1, 221760, Note_on_c, 0, 67, 33
1, 221760, Note_on_c, 0, 59, 33
1, 221879, Note_on_c, 0, 59, 0
1, 221880, Note_on_c, 0, 57, 33
1, 221999, Note_on_c, 0, 67, 0
1, 221999, Note_on_c, 0, 57, 0
1, 222000, Note_on_c, 0, 55, 33
1, 222119, Note_on_c, 0, 55, 0
1, 222120, Note_on_c, 0, 64, 33
1, 222239, Note_on_c, 0, 64, 0
1, 222240, Note_on_c, 0, 67, 33
1, 222240, Note_on_c, 0, 62, 33
1, 222359, Note_on_c, 0, 62, 0
1, 222360, Note_on_c, 0, 60, 33
1, 222479, Note_on_c, 0, 67, 0
1, 222479, Note_on_c, 0, 60, 0
1, 222480, Note_on_c, 0, 67, 33
1, 222480, Note_on_c, 0, 59, 33
1, 222599, Note_on_c, 0, 59, 0
1, 222600, Note_on_c, 0, 57, 33
1, 222719, Note_on_c, 0, 67, 0
1, 222719, Note_on_c, 0, 57, 0
1, 222720, Note_on_c, 0, 55, 33
1, 222839, Note_on_c, 0, 55, 0
1, 222840, Note_on_c, 0, 64, 33
1, 222959, Note_on_c, 0, 64, 0
1, 222960, Note_on_c, 0, 67, 33
1, 222960, Note_on_c, 0, 62, 33
1, 223079, Note_on_c, 0, 62, 0
1, 223080, Note_on_c, 0, 60, 33
1, 223199, Note_on_c, 0, 67, 0
1, 223199, Note_on_c, 0, 60, 0
1, 223200, Note_on_c, 0, 67, 33
1, 223200, Note_on_c, 0, 59, 33
1, 223319, Note_on_c, 0, 59, 0
1, 223320, Note_on_c, 0, 60, 33
1, 223439, Note_on_c, 0, 67, 0
1, 223439, Note_on_c, 0, 60, 0
1, 223440, Note_on_c, 0, 62, 33
1, 223559, Note_on_c, 0, 62, 0
1, 223560, Note_on_c, 0, 64, 33
1, 223679, Note_on_c, 0, 64, 0
1, 223680, Note_on_c, 0, 65, 38
1, 223799, Note_on_c, 0, 65, 0
1, 223800, Note_on_c, 0, 67, 43
1, 223919, Note_on_c, 0, 67, 0
1, 223920, Note_on_c, 0, 68, 49
1, 224039, Note_on_c, 0, 68, 0
1, 224040, Note_on_c, 0, 67, 49
1, 224159, Note_on_c, 0, 67, 0
1, 224160, Note_on_c, 0, 65, 49
1, 224279, Note_on_c, 0, 65, 0
1, 224280, Note_on_c, 0, 68, 49
1, 224399, Note_on_c, 0, 68, 0
1, 224400, Note_on_c, 0, 71, 49
1, 224400, Note_on_c, 0, 67, 49
1, 224519, Note_on_c, 0, 67, 0
1, 224520, Note_on_c, 0, 65, 49
1, 224639, Note_on_c, 0, 71, 0
1, 224639, Note_on_c, 0, 65, 0
1, 224640, Note_on_c, 0, 72, 49
1, 224640, Note_on_c, 0, 64, 49
1, 224759, Note_on_c, 0, 64, 0
1, 224760, Note_on_c, 0, 62, 49
1, 224879, Note_on_c, 0, 72, 0
1, 224879, Note_on_c, 0, 62, 0
1, 224880, Note_on_c, 0, 60, 49
1, 224880, Note_on_c, 0, 60, 0
1, 225000, Note_on_c, 0, 68, 49
1, 225119, Note_on_c, 0, 68, 0
1, 225120, Note_on_c, 0, 71, 49
1, 225120, Note_on_c, 0, 67, 49
1, 225239, Note_on_c, 0, 67, 0
1, 225240, Note_on_c, 0, 65, 49
1, 225359, Note_on_c, 0, 71, 0
1, 225359, Note_on_c, 0, 65, 0
1, 225360, Note_on_c, 0, 72, 49
1, 225360, Note_on_c, 0, 64, 49
1, 225479, Note_on_c, 0, 64, 0
1, 225480, Note_on_c, 0, 62, 49
1, 225599, Note_on_c, 0, 72, 0
1, 225599, Note_on_c, 0, 62, 0
1, 225600, Note_on_c, 0, 60, 49
1, 225600, Note_on_c, 0, 60, 0
1, 225720, Note_on_c, 0, 68, 49
1, 225839, Note_on_c, 0, 68, 0
1, 225840, Note_on_c, 0, 71, 49
1, 225840, Note_on_c, 0, 67, 49
1, 225959, Note_on_c, 0, 67, 0
1, 225960, Note_on_c, 0, 65, 49
1, 226079, Note_on_c, 0, 71, 0
1, 226079, Note_on_c, 0, 65, 0
1, 226080, Note_on_c, 0, 72, 49
1, 226080, Note_on_c, 0, 64, 49
1, 226199, Note_on_c, 0, 64, 0
1, 226200, Note_on_c, 0, 62, 49
1, 226319, Note_on_c, 0, 72, 0
1, 226319, Note_on_c, 0, 62, 0
1, 226320, Note_on_c, 0, 64, 49
1, 226439, Note_on_c, 0, 64, 0
1, 226440, Note_on_c, 0, 65, 49
1, 226559, Note_on_c, 0, 65, 0
1, 226560, Note_on_c, 0, 67, 54
1, 226679, Note_on_c, 0, 67, 0
1, 226680, Note_on_c, 0, 69, 59
1, 226799, Note_on_c, 0, 69, 0
1, 226800, Note_on_c, 0, 70, 65
1, 226919, Note_on_c, 0, 70, 0
1, 226920, Note_on_c, 0, 69, 65
1, 227039, Note_on_c, 0, 69, 0
1, 227040, Note_on_c, 0, 67, 65
1, 227159, Note_on_c, 0, 67, 0
1, 227160, Note_on_c, 0, 70, 65
1, 227279, Note_on_c, 0, 70, 0
1, 227280, Note_on_c, 0, 76, 66
1, 227280, Note_on_c, 0, 69, 66
1, 227399, Note_on_c, 0, 69, 0
1, 227400, Note_on_c, 0, 67, 68
1, 227519, Note_on_c, 0, 76, 0
1, 227519, Note_on_c, 0, 67, 0
1, 227520, Note_on_c, 0, 76, 70
1, 227520, Note_on_c, 0, 70, 70
1, 227639, Note_on_c, 0, 70, 0
1, 227640, Note_on_c, 0, 69, 72
1, 227759, Note_on_c, 0, 76, 0
1, 227759, Note_on_c, 0, 69, 0
1, 227760, Note_on_c, 0, 67, 74
1, 227879, Note_on_c, 0, 67, 0
1, 227880, Note_on_c, 0, 70, 76
1, 227999, Note_on_c, 0, 70, 0
1, 228000, Note_on_c, 0, 76, 78
1, 228000, Note_on_c, 0, 69, 78
1, 228119, Note_on_c, 0, 69, 0
1, 228120, Note_on_c, 0, 67, 80
1, 228239, Note_on_c, 0, 76, 0
1, 228239, Note_on_c, 0, 67, 0
1, 228240, Note_on_c, 0, 76, 81
1, 228240, Note_on_c, 0, 70, 81
1, 228359, Note_on_c, 0, 70, 0
1, 228360, Note_on_c, 0, 69, 83
1, 228479, Note_on_c, 0, 76, 0
1, 228479, Note_on_c, 0, 69, 0
1, 228480, Note_on_c, 0, 67, 85
1, 228599, Note_on_c, 0, 67, 0
1, 228600, Note_on_c, 0, 70, 87
1, 228719, Note_on_c, 0, 70, 0
1, 228720, Note_on_c, 0, 76, 89
1, 228720, Note_on_c, 0, 69, 89
1, 228839, Note_on_c, 0, 69, 0
1, 228840, Note_on_c, 0, 67, 91
1, 228959, Note_on_c, 0, 76, 0
1, 228959, Note_on_c, 0, 67, 0
1, 228960, Note_on_c, 0, 76, 93
1, 228960, Note_on_c, 0, 70, 93
1, 229079, Note_on_c, 0, 70, 0
1, 229080, Note_on_c, 0, 69, 95
1, 229199, Note_on_c, 0, 76, 0
1, 229199, Note_on_c, 0, 69, 0
1, 229200, Note_on_c, 0, 67, 96
1, 229319, Note_on_c, 0, 67, 0
1, 229320, Note_on_c, 0, 66, 98
1, 229439, Note_on_c, 0, 66, 0
1, 229440, Note_on_c, 0, 67, 100
1, 229559, Note_on_c, 0, 67, 0
1, 229560, Note_on_c, 0, 69, 102
1, 229679, Note_on_c, 0, 69, 0
1, 229680, Note_on_c, 0, 70, 104
1, 229799, Note_on_c, 0, 70, 0
1, 229800, Note_on_c, 0, 69, 106
1, 229919, Note_on_c, 0, 69, 0
1, 229920, Note_on_c, 0, 67, 108
1, 230039, Note_on_c, 0, 67, 0
1, 230040, Note_on_c, 0, 70, 110
1, 230159, Note_on_c, 0, 70, 0
1, 230160, Note_on_c, 0, 76, 112
1, 230160, Note_on_c, 0, 69, 112
1, 230279, Note_on_c, 0, 69, 0
1, 230280, Note_on_c, 0, 67, 112
1, 230399, Note_on_c, 0, 76, 0
1, 230399, Note_on_c, 0, 67, 0
1, 230400, Note_on_c, 0, 76, 112
1, 230400, Note_on_c, 0, 79, 112
1, 230400, Note_on_c, 0, 70, 112
1, 230519, Note_on_c, 0, 70, 0
1, 230520, Note_on_c, 0, 69, 112
1, 230639, Note_on_c, 0, 76, 0
1, 230639, Note_on_c, 0, 79, 0
1, 230639, Note_on_c, 0, 69, 0
1, 230640, Note_on_c, 0, 76, 112
1, 230640, Note_on_c, 0, 67, 112
1, 230759, Note_on_c, 0, 67, 0
1, 230760, Note_on_c, 0, 70, 112
1, 230879, Note_on_c, 0, 76, 0
1, 230879, Note_on_c, 0, 70, 0
1, 230880, Note_on_c, 0, 76, 112
1, 230880, Note_on_c, 0, 79, 112
1, 230880, Note_on_c, 0, 69, 112
1, 230999, Note_on_c, 0, 69, 0
1, 231000, Note_on_c, 0, 67, 112
1, 231119, Note_on_c, 0, 76, 0
1, 231119, Note_on_c, 0, 79, 0
1, 231119, Note_on_c, 0, 67, 0
1, 231120, Note_on_c, 0, 76, 112
1, 231120, Note_on_c, 0, 79, 112
1, 231120, Note_on_c, 0, 70, 112
1, 231239, Note_on_c, 0, 70, 0
1, 231240, Note_on_c, 0, 69, 112
1, 231359, Note_on_c, 0, 76, 0
1, 231359, Note_on_c, 0, 79, 0
1, 231359, Note_on_c, 0, 69, 0
1, 231360, Note_on_c, 0, 76, 112
1, 231360, Note_on_c, 0, 67, 112
1, 231479, Note_on_c, 0, 67, 0
1, 231480, Note_on_c, 0, 70, 112
1, 231599, Note_on_c, 0, 76, 0
1, 231599, Note_on_c, 0, 70, 0
1, 231600, Note_on_c, 0, 76, 112
1, 231600, Note_on_c, 0, 79, 112
1, 231600, Note_on_c, 0, 69, 112
1, 231719, Note_on_c, 0, 69, 0
1, 231720, Note_on_c, 0, 67, 112
1, 231839, Note_on_c, 0, 76, 0
1, 231839, Note_on_c, 0, 79, 0
1, 231839, Note_on_c, 0, 67, 0
1, 231840, Note_on_c, 0, 76, 112
1, 231840, Note_on_c, 0, 79, 112
1, 231840, Note_on_c, 0, 70, 112
1, 231959, Note_on_c, 0, 70, 0
1, 231960, Note_on_c, 0, 69, 112
1, 232079, Note_on_c, 0, 76, 0
1, 232079, Note_on_c, 0, 79, 0
1, 232079, Note_on_c, 0, 69, 0
1, 232080, Note_on_c, 0, 67, 112
1, 232199, Note_on_c, 0, 67, 0
1, 232200, Note_on_c, 0, 66, 112
1, 232319, Note_on_c, 0, 66, 0
1, 232320, Note_on_c, 0, 67, 112
1, 232439, Note_on_c, 0, 67, 0
1, 232440, Note_on_c, 0, 69, 112
1, 232559, Note_on_c, 0, 69, 0
1, 232560, Note_on_c, 0, 70, 112
1, 232679, Note_on_c, 0, 70, 0
1, 232680, Note_on_c, 0, 69, 99
1, 232799, Note_on_c, 0, 69, 0
1, 232800, Note_on_c, 0, 67, 86
1, 232919, Note_on_c, 0, 67, 0
1, 232920, Note_on_c, 0, 70, 73
1, 233039, Note_on_c, 0, 70, 0
1, 233040, Note_on_c, 0, 76, 60
1, 233040, Note_on_c, 0, 69, 60
1, 233159, Note_on_c, 0, 76, 0
1, 233159, Note_on_c, 0, 69, 0
1, 233160, Note_on_c, 0, 67, 47
1, 233279, Note_on_c, 0, 67, 0
1, 233280, Note_on_c, 0, 69, 33
1, 233280, Note_on_c, 0, 65, 33
1, 233399, Note_on_c, 0, 65, 0
1, 233400, Note_on_c, 0, 64, 33
1, 233519, Note_on_c, 0, 69, 0
1, 233519, Note_on_c, 0, 64, 0
1, 233520, Note_on_c, 0, 62, 33
1, 233639, Note_on_c, 0, 62, 0
1, 233640, Note_on_c, 0, 65, 33
1, 233759, Note_on_c, 0, 65, 0
1, 233760, Note_on_c, 0, 69, 33
1, 233760, Note_on_c, 0, 64, 33
1, 233879, Note_on_c, 0, 64, 0
1, 233880, Note_on_c, 0, 62, 33
1, 233999, Note_on_c, 0, 69, 0
1, 233999, Note_on_c, 0, 62, 0
1, 234000, Note_on_c, 0, 74, 33
1, 234000, Note_on_c, 0, 68, 33
1, 234119, Note_on_c, 0, 68, 0
1, 234120, Note_on_c, 0, 67, 33
1, 234239, Note_on_c, 0, 74, 0
1, 234239, Note_on_c, 0, 67, 0
1, 234240, Note_on_c, 0, 65, 33
1, 234359, Note_on_c, 0, 65, 0
1, 234360, Note_on_c, 0, 68, 33
1, 234479, Note_on_c, 0, 68, 0
1, 234480, Note_on_c, 0, 74, 33
1, 234480, Note_on_c, 0, 67, 33
1, 234599, Note_on_c, 0, 67, 0
1, 234600, Note_on_c, 0, 65, 33
1, 234719, Note_on_c, 0, 74, 0
1, 234719, Note_on_c, 0, 65, 0
1, 234720, Note_on_c, 0, 67, 33
1, 234720, Note_on_c, 0, 64, 33
1, 234839, Note_on_c, 0, 64, 0
1, 234840, Note_on_c, 0, 62, 33
1, 234959, Note_on_c, 0, 67, 0
1, 234959, Note_on_c, 0, 62, 0
1, 234960, Note_on_c, 0, 60, 33
1, 235079, Note_on_c, 0, 60, 0
1, 235080, Note_on_c, 0, 64, 33
1, 235199, Note_on_c, 0, 64, 0
1, 235200, Note_on_c, 0, 67, 33
1, 235200, Note_on_c, 0, 62, 33
1, 235319, Note_on_c, 0, 62, 0
1, 235320, Note_on_c, 0, 60, 33
1, 235439, Note_on_c, 0, 67, 0
1, 235439, Note_on_c, 0, 60, 0
1, 235440, Note_on_c, 0, 72, 33
1, 235440, Note_on_c, 0, 66, 33
1, 235559, Note_on_c, 0, 66, 0
1, 235560, Note_on_c, 0, 65, 33
1, 235679, Note_on_c, 0, 72, 0
1, 235679, Note_on_c, 0, 65, 0
1, 235680, Note_on_c, 0, 63, 33
1, 235799, Note_on_c, 0, 63, 0
1, 235800, Note_on_c, 0, 66, 33
1, 235919, Note_on_c, 0, 66, 0
1, 235920, Note_on_c, 0, 72, 33
1, 235920, Note_on_c, 0, 65, 33
1, 236039, Note_on_c, 0, 65, 0
1, 236040, Note_on_c, 0, 63, 33
1, 236159, Note_on_c, 0, 72, 0
1, 236159, Note_on_c, 0, 63, 0
1, 236160, Note_on_c, 0, 74, 33
1, 236279, Note_on_c, 0, 74, 0
1, 236400, Note_on_c, 0, 72, 33
1, 236400, Note_on_c, 0, 66, 33
1, 236519, Note_on_c, 0, 72, 0
1, 236519, Note_on_c, 0, 66, 0
1, 236520, Note_on_c, 0, 63, 33
1, 236639, Note_on_c, 0, 63, 0
1, 236640, Note_on_c, 0, 70, 33
1, 236640, Note_on_c, 0, 65, 33
1, 236759, Note_on_c, 0, 70, 0
1, 236879, Note_on_c, 0, 65, 0
1, 236880, Note_on_c, 0, 69, 33
1, 236880, Note_on_c, 0, 63, 33
1, 236999, Note_on_c, 0, 69, 0
1, 236999, Note_on_c, 0, 63, 0
1, 237000, Note_on_c, 0, 60, 33
1, 237119, Note_on_c, 0, 60, 0
1, 237120, Note_on_c, 0, 67, 33
1, 237120, Note_on_c, 0, 62, 33
1, 237239, Note_on_c, 0, 67, 0
1, 237359, Note_on_c, 0, 62, 0
1, 237360, Note_on_c, 0, 66, 33
1, 237360, Note_on_c, 0, 60, 33
1, 237479, Note_on_c, 0, 66, 0
1, 237479, Note_on_c, 0, 60, 0
1, 237480, Note_on_c, 0, 57, 33
1, 237599, Note_on_c, 0, 57, 0
1, 237600, Note_on_c, 0, 58, 33
1, 237600, Note_on_c, 0, 67, 33
1, 237719, Note_on_c, 0, 58, 0
1, 237719, Note_on_c, 0, 67, 0
1, 237840, Note_on_c, 0, 74, 33
1, 237840, Note_on_c, 0, 79, 33
1, 237840, Note_on_c, 0, 82, 33
1, 237959, Note_on_c, 0, 74, 0
1, 237959, Note_on_c, 0, 79, 0
1, 237959, Note_on_c, 0, 82, 0
1, 238080, Note_on_c, 0, 79, 33
1, 238080, Note_on_c, 0, 82, 33
1, 238080, Note_on_c, 0, 86, 33
1, 238199, Note_on_c, 0, 79, 0
1, 238199, Note_on_c, 0, 82, 0
1, 238199, Note_on_c, 0, 86, 0
1, 238320, Note_on_c, 0, 91, 33
1, 238320, Note_on_c, 0, 82, 33
1, 238439, Note_on_c, 0, 91, 0
1, 238439, Note_on_c, 0, 82, 0
1, 238440, Note_on_c, 0, 81, 33
1, 238559, Note_on_c, 0, 81, 0
1, 238560, Note_on_c, 0, 79, 33
1, 238799, Note_on_c, 0, 79, 0
1, 238800, Note_on_c, 0, 76, 33
1, 238800, Note_on_c, 0, 73, 33
1, 238919, Note_on_c, 0, 76, 0
1, 239039, Note_on_c, 0, 73, 0
1, 239040, Note_on_c, 0, 81, 33
1, 239040, Note_on_c, 0, 74, 33
1, 239279, Note_on_c, 0, 81, 0
1, 239279, Note_on_c, 0, 74, 0
1, 239280, Note_on_c, 0, 74, 33
1, 239280, Note_on_c, 0, 69, 33
1, 239399, Note_on_c, 0, 74, 0
1, 239400, Note_on_c, 0, 78, 33
1, 239519, Note_on_c, 0, 69, 0
1, 239519, Note_on_c, 0, 78, 0
1, 239520, Note_on_c, 0, 76, 33
1, 239520, Note_on_c, 0, 81, 33
1, 239639, Note_on_c, 0, 76, 0
1, 239640, Note_on_c, 0, 74, 33
1, 239759, Note_on_c, 0, 81, 0
1, 239759, Note_on_c, 0, 74, 0
1, 239760, Note_on_c, 0, 86, 33
1, 239760, Note_on_c, 0, 80, 33
1, 239879, Note_on_c, 0, 86, 0
1, 239879, Note_on_c, 0, 80, 0
1, 239880, Note_on_c, 0, 79, 33
1, 239999, Note_on_c, 0, 79, 0
1, 240000, Note_on_c, 0, 77, 33
1, 240239, Note_on_c, 0, 77, 0
1, 240240, Note_on_c, 0, 74, 33
1, 240240, Note_on_c, 0, 71, 33
1, 240359, Note_on_c, 0, 74, 0
1, 240479, Note_on_c, 0, 71, 0
1, 240480, Note_on_c, 0, 79, 33
1, 240480, Note_on_c, 0, 72, 33
1, 240599, Note_on_c, 0, 79, 0
1, 240719, Note_on_c, 0, 72, 0
1, 240720, Note_on_c, 0, 72, 33
1, 240720, Note_on_c, 0, 67, 33
1, 240839, Note_on_c, 0, 72, 0
1, 240840, Note_on_c, 0, 76, 33
1, 240959, Note_on_c, 0, 67, 0
1, 240959, Note_on_c, 0, 76, 0
1, 240960, Note_on_c, 0, 74, 33
1, 240960, Note_on_c, 0, 77, 33
1, 241079, Note_on_c, 0, 74, 0
1, 241080, Note_on_c, 0, 72, 33
1, 241199, Note_on_c, 0, 77, 0
1, 241199, Note_on_c, 0, 72, 0
1, 241200, Note_on_c, 0, 84, 33
1, 241200, Note_on_c, 0, 78, 33
1, 241319, Note_on_c, 0, 78, 0
1, 241320, Note_on_c, 0, 77, 33
1, 241439, Note_on_c, 0, 84, 0
1, 241439, Note_on_c, 0, 77, 0
1, 241440, Note_on_c, 0, 75, 33
1, 241679, Note_on_c, 0, 75, 0
1, 241680, Note_on_c, 0, 72, 33
1, 241680, Note_on_c, 0, 69, 33
1, 241759, Note_on_c, 0, 72, 0
1, 241760, Note_on_c, 0, 70, 33
1, 241839, Note_on_c, 0, 70, 0
1, 241840, Note_on_c, 0, 72, 33
1, 241919, Note_on_c, 0, 69, 0
1, 241919, Note_on_c, 0, 72, 0
1, 241920, Note_on_c, 0, 74, 33
1, 241920, Note_on_c, 0, 77, 33
1, 242039, Note_on_c, 0, 74, 0
1, 242039, Note_on_c, 0, 77, 0
1, 242040, Note_on_c, 0, 70, 33
1, 242159, Note_on_c, 0, 70, 0
1, 242160, Note_on_c, 0, 72, 33
1, 242160, Note_on_c, 0, 77, 33
1, 242279, Note_on_c, 0, 72, 0
1, 242279, Note_on_c, 0, 77, 0
1, 242280, Note_on_c, 0, 69, 33
1, 242399, Note_on_c, 0, 69, 0
1, 242400, Note_on_c, 0, 70, 33
1, 242400, Note_on_c, 0, 74, 33
1, 242519, Note_on_c, 0, 70, 0
1, 242519, Note_on_c, 0, 74, 0
1, 242520, Note_on_c, 0, 65, 33
1, 242639, Note_on_c, 0, 65, 0
1, 242640, Note_on_c, 0, 69, 33
1, 242640, Note_on_c, 0, 72, 33
1, 242759, Note_on_c, 0, 69, 0
1, 242759, Note_on_c, 0, 72, 0
1, 242760, Note_on_c, 0, 62, 33
1, 242879, Note_on_c, 0, 62, 0
1, 242880, Note_on_c, 0, 67, 33
1, 242880, Note_on_c, 0, 70, 33
1, 242999, Note_on_c, 0, 67, 0
1, 242999, Note_on_c, 0, 70, 0
1, 243000, Note_on_c, 0, 62, 33
1, 243119, Note_on_c, 0, 62, 0
1, 243120, Note_on_c, 0, 60, 33
1, 243120, Note_on_c, 0, 66, 33
1, 243239, Note_on_c, 0, 60, 0
1, 243239, Note_on_c, 0, 66, 0
1, 243240, Note_on_c, 0, 62, 33
1, 243359, Note_on_c, 0, 62, 0
1, 243360, Note_on_c, 0, 58, 33
1, 243360, Note_on_c, 0, 67, 33
1, 243599, Note_on_c, 0, 58, 0
1, 243599, Note_on_c, 0, 67, 0
1, 243600, Note_on_c, 0, 70, 33
1, 243719, Note_on_c, 0, 70, 0
1, 243720, Note_on_c, 0, 67, 33
1, 243839, Note_on_c, 0, 67, 0
1, 243840, Note_on_c, 0, 70, 33
1, 243959, Note_on_c, 0, 70, 0
1, 243960, Note_on_c, 0, 74, 33
1, 244079, Note_on_c, 0, 74, 0
1, 244080, Note_on_c, 0, 74, 33
1, 244080, Note_on_c, 0, 79, 33
1, 244199, Note_on_c, 0, 74, 0
1, 244199, Note_on_c, 0, 79, 0
1, 244200, Note_on_c, 0, 69, 33
1, 244319, Note_on_c, 0, 69, 0
1, 244320, Note_on_c, 0, 67, 33
1, 244320, Note_on_c, 0, 70, 33
1, 244320, Note_on_c, 0, 74, 33
1, 244439, Note_on_c, 0, 67, 0
1, 244439, Note_on_c, 0, 70, 0
1, 244439, Note_on_c, 0, 74, 0
1, 244440, Note_on_c, 0, 63, 33
1, 244559, Note_on_c, 0, 63, 0
1, 244560, Note_on_c, 0, 62, 33
1, 244560, Note_on_c, 0, 67, 33
1, 244679, Note_on_c, 0, 62, 0
1, 244679, Note_on_c, 0, 67, 0
1, 244680, Note_on_c, 0, 58, 33
1, 244799, Note_on_c, 0, 58, 0
1, 244920, Note_on_c, 0, 60, 33
1, 245039, Note_on_c, 0, 60, 0
1, 245040, Note_on_c, 0, 63, 33
1, 245159, Note_on_c, 0, 63, 0
1, 245160, Note_on_c, 0, 68, 33
1, 245279, Note_on_c, 0, 68, 0
1, 245280, Note_on_c, 0, 72, 33
1, 245399, Note_on_c, 0, 72, 0
1, 245400, Note_on_c, 0, 75, 33
1, 245519, Note_on_c, 0, 75, 0
1, 245520, Note_on_c, 0, 72, 33
1, 245520, Note_on_c, 0, 77, 33
1, 245639, Note_on_c, 0, 72, 0
1, 245639, Note_on_c, 0, 77, 0
1, 245640, Note_on_c, 0, 67, 33
1, 245759, Note_on_c, 0, 67, 0
1, 245760, Note_on_c, 0, 65, 33
1, 245760, Note_on_c, 0, 68, 33
1, 245760, Note_on_c, 0, 72, 33
1, 245879, Note_on_c, 0, 65, 0
1, 245879, Note_on_c, 0, 68, 0
1, 245879, Note_on_c, 0, 72, 0
1, 245880, Note_on_c, 0, 62, 33
1, 245999, Note_on_c, 0, 62, 0
1, 246000, Note_on_c, 0, 60, 33
1, 246000, Note_on_c, 0, 65, 33
1, 246119, Note_on_c, 0, 60, 0
1, 246119, Note_on_c, 0, 65, 0
1, 246120, Note_on_c, 0, 56, 33
1, 246239, Note_on_c, 0, 56, 0
1, 246360, Note_on_c, 0, 58, 33
1, 246479, Note_on_c, 0, 58, 0
1, 246480, Note_on_c, 0, 63, 33
1, 246599, Note_on_c, 0, 63, 0
1, 246600, Note_on_c, 0, 67, 33
1, 246719, Note_on_c, 0, 67, 0
1, 246720, Note_on_c, 0, 70, 33
1, 246839, Note_on_c, 0, 70, 0
1, 246840, Note_on_c, 0, 74, 33
1, 246959, Note_on_c, 0, 74, 0
1, 246960, Note_on_c, 0, 72, 33
1, 246960, Note_on_c, 0, 75, 33
1, 247079, Note_on_c, 0, 72, 0
1, 247079, Note_on_c, 0, 75, 0
1, 247080, Note_on_c, 0, 74, 33
1, 247199, Note_on_c, 0, 74, 0
1, 247200, Note_on_c, 0, 70, 33
1, 247200, Note_on_c, 0, 75, 33
1, 247319, Note_on_c, 0, 70, 0
1, 247319, Note_on_c, 0, 75, 0
1, 247320, Note_on_c, 0, 72, 33
1, 247439, Note_on_c, 0, 72, 0
1, 247440, Note_on_c, 0, 74, 33
1, 247440, Note_on_c, 0, 79, 33
1, 247559, Note_on_c, 0, 74, 0
1, 247559, Note_on_c, 0, 79, 0
1, 247560, Note_on_c, 0, 75, 33
1, 247679, Note_on_c, 0, 75, 0
1, 247680, Note_on_c, 0, 78, 33
1, 247799, Note_on_c, 0, 78, 0
1, 247800, Note_on_c, 0, 81, 33
1, 247919, Note_on_c, 0, 81, 0
1, 247920, Note_on_c, 0, 84, 33
1, 248039, Note_on_c, 0, 84, 0
1, 248040, Note_on_c, 0, 82, 33
1, 248159, Note_on_c, 0, 82, 0
1, 248160, Note_on_c, 0, 81, 33
1, 248279, Note_on_c, 0, 81, 0
1, 248280, Note_on_c, 0, 79, 33
1, 248399, Note_on_c, 0, 79, 0
1, 248400, Note_on_c, 0, 78, 33
1, 248519, Note_on_c, 0, 78, 0
1, 248520, Note_on_c, 0, 75, 33
1, 248639, Note_on_c, 0, 75, 0
1, 248640, Note_on_c, 0, 74, 33
1, 248759, Note_on_c, 0, 74, 0
1, 248760, Note_on_c, 0, 72, 33
1, 248879, Note_on_c, 0, 72, 0
1, 248880, Note_on_c, 0, 70, 33
1, 248999, Note_on_c, 0, 70, 0
1, 249000, Note_on_c, 0, 69, 33
1, 249119, Note_on_c, 0, 69, 0
1, 249120, Note_on_c, 0, 67, 33
1, 249239, Note_on_c, 0, 67, 0
1, 249240, Note_on_c, 0, 70, 33
1, 249359, Note_on_c, 0, 70, 0
1, 249360, Note_on_c, 0, 72, 33
1, 249479, Note_on_c, 0, 72, 0
1, 249480, Note_on_c, 0, 74, 33
1, 249599, Note_on_c, 0, 74, 0
1, 249600, Note_on_c, 0, 76, 33
1, 249719, Note_on_c, 0, 76, 0
1, 249720, Note_on_c, 0, 78, 33
1, 249839, Note_on_c, 0, 78, 0
1, 249840, Note_on_c, 0, 79, 33
1, 249959, Note_on_c, 0, 79, 0
1, 249960, Note_on_c, 0, 84, 33
1, 250079, Note_on_c, 0, 84, 0
1, 250080, Note_on_c, 0, 82, 33
1, 250080, Note_on_c, 0, 86, 33
1, 250199, Note_on_c, 0, 82, 0
1, 250199, Note_on_c, 0, 86, 0
1, 250200, Note_on_c, 0, 79, 33
1, 250319, Note_on_c, 0, 79, 0
1, 250320, Note_on_c, 0, 86, 33
1, 250320, Note_on_c, 0, 91, 33
1, 250439, Note_on_c, 0, 86, 0
1, 250439, Note_on_c, 0, 91, 0
1, 250440, Note_on_c, 0, 79, 33
1, 250559, Note_on_c, 0, 79, 0
1, 250560, Note_on_c, 0, 80, 33
1, 250560, Note_on_c, 0, 84, 33
1, 250679, Note_on_c, 0, 80, 0
1, 250679, Note_on_c, 0, 84, 0
1, 250680, Note_on_c, 0, 86, 33
1, 250799, Note_on_c, 0, 86, 0
1, 250800, Note_on_c, 0, 87, 33
1, 250919, Note_on_c, 0, 87, 0
1, 250920, Note_on_c, 0, 86, 33
1, 251039, Note_on_c, 0, 86, 0
1, 251040, Note_on_c, 0, 84, 33
1, 251040, Note_on_c, 0, 87, 33
1, 251159, Note_on_c, 0, 84, 0
1, 251159, Note_on_c, 0, 87, 0
1, 251160, Note_on_c, 0, 80, 33
1, 251279, Note_on_c, 0, 80, 0
1, 251280, Note_on_c, 0, 86, 33
1, 251280, Note_on_c, 0, 89, 33
1, 251399, Note_on_c, 0, 86, 0
1, 251399, Note_on_c, 0, 89, 0
1, 251400, Note_on_c, 0, 84, 33
1, 251519, Note_on_c, 0, 84, 0
1, 251520, Note_on_c, 0, 82, 33
1, 251520, Note_on_c, 0, 86, 33
1, 251639, Note_on_c, 0, 82, 0
1, 251639, Note_on_c, 0, 86, 0
1, 251640, Note_on_c, 0, 80, 33
1, 251759, Note_on_c, 0, 80, 0
1, 251760, Note_on_c, 0, 79, 33
1, 251760, Note_on_c, 0, 82, 33
1, 251879, Note_on_c, 0, 79, 0
1, 251879, Note_on_c, 0, 82, 0
1, 251880, Note_on_c, 0, 77, 33
1, 251999, Note_on_c, 0, 77, 0
1, 252000, Note_on_c, 0, 75, 33
1, 252000, Note_on_c, 0, 79, 33
1, 252119, Note_on_c, 0, 75, 0
1, 252119, Note_on_c, 0, 79, 0
1, 252120, Note_on_c, 0, 80, 33
1, 252239, Note_on_c, 0, 80, 0
1, 252240, Note_on_c, 0, 82, 33
1, 252359, Note_on_c, 0, 82, 0
1, 252360, Note_on_c, 0, 80, 33
1, 252479, Note_on_c, 0, 80, 0
1, 252480, Note_on_c, 0, 79, 33
1, 252480, Note_on_c, 0, 82, 33
1, 252599, Note_on_c, 0, 79, 0
1, 252599, Note_on_c, 0, 82, 0
1, 252600, Note_on_c, 0, 79, 33
1, 252719, Note_on_c, 0, 79, 0
1, 252720, Note_on_c, 0, 84, 33
1, 252720, Note_on_c, 0, 87, 33
1, 252839, Note_on_c, 0, 84, 0
1, 252839, Note_on_c, 0, 87, 0
1, 252840, Note_on_c, 0, 89, 33
1, 252959, Note_on_c, 0, 89, 0
1, 252960, Note_on_c, 0, 91, 33
1, 253079, Note_on_c, 0, 91, 0
1, 253080, Note_on_c, 0, 86, 33
1, 253199, Note_on_c, 0, 86, 0
1, 253200, Note_on_c, 0, 87, 33
1, 253200, Note_on_c, 0, 91, 33
1, 253319, Note_on_c, 0, 87, 0
1, 253319, Note_on_c, 0, 91, 0
1, 253320, Note_on_c, 0, 87, 33
1, 253439, Note_on_c, 0, 87, 0
1, 253440, Note_on_c, 0, 96, 33
1, 253440, Note_on_c, 0, 99, 33
1, 253559, Note_on_c, 0, 96, 0
1, 253559, Note_on_c, 0, 99, 0
1, 253560, Note_on_c, 0, 94, 33
1, 253679, Note_on_c, 0, 94, 0
1, 253680, Note_on_c, 0, 93, 33
1, 253680, Note_on_c, 0, 96, 33
1, 253799, Note_on_c, 0, 93, 0
1, 253799, Note_on_c, 0, 96, 0
1, 253800, Note_on_c, 0, 91, 33
1, 253919, Note_on_c, 0, 91, 0
1, 253920, Note_on_c, 0, 90, 33
1, 253920, Note_on_c, 0, 93, 33
1, 254039, Note_on_c, 0, 90, 0
1, 254039, Note_on_c, 0, 93, 0
1, 254040, Note_on_c, 0, 87, 33
1, 254159, Note_on_c, 0, 87, 0
1, 254160, Note_on_c, 0, 86, 33
1, 254160, Note_on_c, 0, 90, 33
1, 254279, Note_on_c, 0, 86, 0
1, 254279, Note_on_c, 0, 90, 0
1, 254280, Note_on_c, 0, 84, 33
1, 254399, Note_on_c, 0, 84, 0
1, 254400, Note_on_c, 0, 82, 33
1, 254519, Note_on_c, 0, 82, 0
1, 254520, Note_on_c, 0, 81, 33
1, 254639, Note_on_c, 0, 81, 0
1, 254640, Note_on_c, 0, 79, 33
1, 254759, Note_on_c, 0, 79, 0
1, 254760, Note_on_c, 0, 78, 33
1, 254879, Note_on_c, 0, 78, 0
1, 254880, Note_on_c, 0, 79, 33
1, 255119, Note_on_c, 0, 79, 0
1, 255120, Note_on_c, 0, 70, 33
1, 255239, Note_on_c, 0, 70, 0
1, 255360, Note_on_c, 0, 74, 33
1, 255479, Note_on_c, 0, 74, 0
1, 255600, Note_on_c, 0, 79, 33
1, 255600, Note_on_c, 0, 73, 33
1, 255719, Note_on_c, 0, 79, 0
1, 255719, Note_on_c, 0, 73, 0
1, 255720, Note_on_c, 0, 74, 33
1, 255839, Note_on_c, 0, 74, 0
1, 255840, Note_on_c, 0, 73, 33
1, 255840, Note_on_c, 0, 76, 33
1, 255959, Note_on_c, 0, 73, 0
1, 255959, Note_on_c, 0, 76, 0
1, 255960, Note_on_c, 0, 70, 33
1, 256079, Note_on_c, 0, 70, 0
1, 256080, Note_on_c, 0, 69, 33
1, 256199, Note_on_c, 0, 69, 0
1, 256200, Note_on_c, 0, 67, 33
1, 256319, Note_on_c, 0, 67, 0
1, 256320, Note_on_c, 0, 66, 33
1, 256439, Note_on_c, 0, 66, 0
1, 256440, Note_on_c, 0, 67, 33
1, 256559, Note_on_c, 0, 67, 0
1, 256560, Note_on_c, 0, 69, 33
1, 256679, Note_on_c, 0, 69, 0
1, 256680, Note_on_c, 0, 70, 33
1, 256799, Note_on_c, 0, 70, 0
1, 256800, Note_on_c, 0, 72, 33
1, 256919, Note_on_c, 0, 72, 0
1, 256920, Note_on_c, 0, 74, 33
1, 257039, Note_on_c, 0, 74, 0
1, 257040, Note_on_c, 0, 75, 33
1, 257159, Note_on_c, 0, 75, 0
1, 257160, Note_on_c, 0, 72, 33
1, 257279, Note_on_c, 0, 72, 0
1, 257280, Note_on_c, 0, 70, 33
1, 257399, Note_on_c, 0, 70, 0
1, 257400, Note_on_c, 0, 69, 33
1, 257519, Note_on_c, 0, 69, 0
1, 257520, Note_on_c, 0, 67, 33
1, 257639, Note_on_c, 0, 67, 0
1, 257640, Note_on_c, 0, 66, 33
1, 257759, Note_on_c, 0, 66, 0
1, 257760, Note_on_c, 0, 67, 33
1, 257999, Note_on_c, 0, 67, 0
1, 258000, Note_on_c, 0, 74, 33
1, 258000, Note_on_c, 0, 79, 33
1, 258000, Note_on_c, 0, 82, 33
1, 258119, Note_on_c, 0, 74, 0
1, 258119, Note_on_c, 0, 79, 0
1, 258119, Note_on_c, 0, 82, 0
1, 258240, Note_on_c, 0, 74, 33
1, 258240, Note_on_c, 0, 79, 33
1, 258240, Note_on_c, 0, 86, 33
1, 258359, Note_on_c, 0, 74, 0
1, 258359, Note_on_c, 0, 79, 0
1, 258359, Note_on_c, 0, 86, 0
1, 258480, Note_on_c, 0, 79, 33
1, 258480, Note_on_c, 0, 85, 33
1, 258480, Note_on_c, 0, 91, 33
1, 258599, Note_on_c, 0, 79, 0
1, 258599, Note_on_c, 0, 85, 0
1, 258599, Note_on_c, 0, 91, 0
1, 258720, Note_on_c, 0, 76, 33
1, 258720, Note_on_c, 0, 82, 33
1, 258720, Note_on_c, 0, 85, 33
1, 258839, Note_on_c, 0, 76, 0
1, 258839, Note_on_c, 0, 82, 0
1, 258839, Note_on_c, 0, 85, 0
1, 258960, Note_on_c, 0, 85, 33
1, 258960, Note_on_c, 0, 88, 33
1, 259079, Note_on_c, 0, 85, 0
1, 259079, Note_on_c, 0, 88, 0
1, 259200, Note_on_c, 0, 81, 33
1, 259200, Note_on_c, 0, 86, 33
1, 259319, Note_on_c, 0, 81, 0
1, 259319, Note_on_c, 0, 86, 0
1, 259440, Note_on_c, 0, 74, 33
1, 259440, Note_on_c, 0, 78, 33
1, 259440, Note_on_c, 0, 81, 33
1, 259559, Note_on_c, 0, 74, 0
1, 259559, Note_on_c, 0, 78, 0
1, 259559, Note_on_c, 0, 81, 0
1, 259680, Note_on_c, 0, 75, 33
1, 259680, Note_on_c, 0, 79, 33
1, 259680, Note_on_c, 0, 82, 33
1, 259799, Note_on_c, 0, 75, 0
1, 259799, Note_on_c, 0, 79, 0
1, 259799, Note_on_c, 0, 82, 0
1, 259920, Note_on_c, 0, 78, 33
1, 259920, Note_on_c, 0, 81, 33
1, 259920, Note_on_c, 0, 84, 33
1, 259920, Note_on_c, 0, 75, 33
1, 260039, Note_on_c, 0, 78, 0
1, 260039, Note_on_c, 0, 81, 0
1, 260039, Note_on_c, 0, 84, 0
1, 260039, Note_on_c, 0, 75, 0
1, 260040, Note_on_c, 0, 74, 33
1, 260159, Note_on_c, 0, 74, 0
1, 260160, Note_on_c, 0, 78, 33
1, 260160, Note_on_c, 0, 72, 33
1, 260279, Note_on_c, 0, 72, 0
1, 260280, Note_on_c, 0, 75, 33
1, 260399, Note_on_c, 0, 78, 0
1, 260399, Note_on_c, 0, 75, 0
1, 260400, Note_on_c, 0, 81, 33
1, 260400, Note_on_c, 0, 74, 33
1, 260519, Note_on_c, 0, 74, 0
1, 260520, Note_on_c, 0, 72, 33
1, 260639, Note_on_c, 0, 81, 0
1, 260639, Note_on_c, 0, 72, 0
1, 260640, Note_on_c, 0, 79, 33
1, 260640, Note_on_c, 0, 70, 33
1, 260759, Note_on_c, 0, 70, 0
1, 260760, Note_on_c, 0, 67, 33
1, 260879, Note_on_c, 0, 79, 0
1, 260879, Note_on_c, 0, 67, 0
1, 260880, Note_on_c, 0, 69, 33
1, 260999, Note_on_c, 0, 69, 0
1, 261000, Note_on_c, 0, 70, 33
1, 261119, Note_on_c, 0, 70, 0
1, 261120, Note_on_c, 0, 72, 33
1, 261239, Note_on_c, 0, 72, 0
1, 261240, Note_on_c, 0, 74, 32
1, 261359, Note_on_c, 0, 74, 0
1, 261360, Note_on_c, 0, 75, 32
1, 261479, Note_on_c, 0, 75, 0
1, 261480, Note_on_c, 0, 74, 32
1, 261599, Note_on_c, 0, 74, 0
1, 261600, Note_on_c, 0, 72, 32
1, 261719, Note_on_c, 0, 72, 0
1, 261720, Note_on_c, 0, 75, 32
1, 261839, Note_on_c, 0, 75, 0
1, 261840, Note_on_c, 0, 74, 31
1, 261959, Note_on_c, 0, 74, 0
1, 261960, Note_on_c, 0, 72, 31
1, 262079, Note_on_c, 0, 72, 0
1, 262080, Note_on_c, 0, 70, 31
1, 262199, Note_on_c, 0, 70, 0
1, 262200, Note_on_c, 0, 67, 31
1, 262319, Note_on_c, 0, 67, 0
1, 262320, Note_on_c, 0, 69, 31
1, 262439, Note_on_c, 0, 69, 0
1, 262440, Note_on_c, 0, 70, 30
1, 262559, Note_on_c, 0, 70, 0
1, 262560, Note_on_c, 0, 72, 30
1, 262679, Note_on_c, 0, 72, 0
1, 262680, Note_on_c, 0, 74, 30
1, 262799, Note_on_c, 0, 74, 0
1, 262800, Note_on_c, 0, 75, 30
1, 262919, Note_on_c, 0, 75, 0
1, 262920, Note_on_c, 0, 74, 30
1, 263039, Note_on_c, 0, 74, 0
1, 263040, Note_on_c, 0, 72, 29
1, 263159, Note_on_c, 0, 72, 0
1, 263160, Note_on_c, 0, 75, 29
1, 263279, Note_on_c, 0, 75, 0
1, 263280, Note_on_c, 0, 74, 29
1, 263399, Note_on_c, 0, 74, 0
1, 263400, Note_on_c, 0, 72, 29
1, 263519, Note_on_c, 0, 72, 0
1, 263520, Note_on_c, 0, 74, 29
1, 263639, Note_on_c, 0, 74, 0
1, 263640, Note_on_c, 0, 72, 28
1, 263759, Note_on_c, 0, 72, 0
1, 263760, Note_on_c, 0, 70, 28
1, 263879, Note_on_c, 0, 70, 0
1, 263880, Note_on_c, 0, 74, 28
1, 263999, Note_on_c, 0, 74, 0
1, 264000, Note_on_c, 0, 72, 28
1, 264119, Note_on_c, 0, 72, 0
1, 264120, Note_on_c, 0, 70, 28
1, 264239, Note_on_c, 0, 70, 0
1, 264240, Note_on_c, 0, 66, 27
1, 264240, Note_on_c, 0, 72, 27
1, 264359, Note_on_c, 0, 66, 0
1, 264359, Note_on_c, 0, 72, 0
1, 264360, Note_on_c, 0, 70, 27
1, 264479, Note_on_c, 0, 70, 0
1, 264480, Note_on_c, 0, 69, 27
1, 264599, Note_on_c, 0, 69, 0
1, 264600, Note_on_c, 0, 72, 27
1, 264719, Note_on_c, 0, 72, 0
1, 264720, Note_on_c, 0, 70, 27
1, 264839, Note_on_c, 0, 70, 0
1, 264840, Note_on_c, 0, 69, 26
1, 264959, Note_on_c, 0, 69, 0
1, 264960, Note_on_c, 0, 67, 26
1, 264960, Note_on_c, 0, 70, 26
1, 265079, Note_on_c, 0, 67, 0
1, 265079, Note_on_c, 0, 70, 0
1, 265080, Note_on_c, 0, 69, 26
1, 265199, Note_on_c, 0, 69, 0
1, 265200, Note_on_c, 0, 67, 26
1, 265319, Note_on_c, 0, 67, 0
1, 265320, Note_on_c, 0, 70, 26
1, 265439, Note_on_c, 0, 70, 0
1, 265440, Note_on_c, 0, 69, 25
1, 265559, Note_on_c, 0, 69, 0
1, 265560, Note_on_c, 0, 67, 25
1, 265679, Note_on_c, 0, 67, 0
1, 265680, Note_on_c, 0, 63, 25
1, 265680, Note_on_c, 0, 69, 25
1, 265799, Note_on_c, 0, 63, 0
1, 265799, Note_on_c, 0, 69, 0
1, 265800, Note_on_c, 0, 67, 25
1, 265919, Note_on_c, 0, 67, 0
1, 265920, Note_on_c, 0, 66, 25
1, 266039, Note_on_c, 0, 66, 0
1, 266040, Note_on_c, 0, 69, 24
1, 266159, Note_on_c, 0, 69, 0
1, 266160, Note_on_c, 0, 67, 24
1, 266279, Note_on_c, 0, 67, 0
1, 266280, Note_on_c, 0, 66, 24
1, 266399, Note_on_c, 0, 66, 0
1, 266400, Note_on_c, 0, 67, 24
1, 266519, Note_on_c, 0, 67, 0
1, 266520, Note_on_c, 0, 62, 24
1, 266639, Note_on_c, 0, 62, 0
1, 266640, Note_on_c, 0, 61, 23
1, 266759, Note_on_c, 0, 61, 0
1, 266760, Note_on_c, 0, 62, 23
1, 266879, Note_on_c, 0, 62, 0
1, 266880, Note_on_c, 0, 64, 23
1, 266999, Note_on_c, 0, 64, 0
1, 267000, Note_on_c, 0, 66, 23
1, 267119, Note_on_c, 0, 66, 0
1, 267120, Note_on_c, 0, 67, 23
1, 267239, Note_on_c, 0, 67, 0
1, 267240, Note_on_c, 0, 62, 22
1, 267359, Note_on_c, 0, 62, 0
1, 267360, Note_on_c, 0, 64, 22
1, 267479, Note_on_c, 0, 64, 0
1, 267480, Note_on_c, 0, 66, 22
1, 267599, Note_on_c, 0, 66, 0
1, 267600, Note_on_c, 0, 67, 22
1, 267719, Note_on_c, 0, 67, 0
1, 267720, Note_on_c, 0, 69, 22
1, 267839, Note_on_c, 0, 69, 0
1, 267840, Note_on_c, 0, 70, 21
1, 267959, Note_on_c, 0, 70, 0
1, 267960, Note_on_c, 0, 66, 21
1, 268079, Note_on_c, 0, 66, 0
1, 268080, Note_on_c, 0, 67, 21
1, 268199, Note_on_c, 0, 67, 0
1, 268200, Note_on_c, 0, 69, 21
1, 268319, Note_on_c, 0, 69, 0
1, 268320, Note_on_c, 0, 70, 21
1, 268439, Note_on_c, 0, 70, 0
1, 268440, Note_on_c, 0, 72, 20
1, 268559, Note_on_c, 0, 72, 0
1, 268560, Note_on_c, 0, 74, 20
1, 268679, Note_on_c, 0, 74, 0
1, 268680, Note_on_c, 0, 70, 20
1, 268799, Note_on_c, 0, 70, 0
1, 268800, Note_on_c, 0, 72, 20
1, 268919, Note_on_c, 0, 72, 0
1, 268920, Note_on_c, 0, 74, 20
1, 269039, Note_on_c, 0, 74, 0
1, 269040, Note_on_c, 0, 76, 19
1, 269159, Note_on_c, 0, 76, 0
1, 269160, Note_on_c, 0, 78, 19
1, 269279, Note_on_c, 0, 78, 0
1, 269280, Note_on_c, 0, 79, 19
1, 269399, Note_on_c, 0, 79, 0
1, 269400, Note_on_c, 0, 74, 19
1, 269519, Note_on_c, 0, 74, 0
1, 269520, Note_on_c, 0, 76, 19
1, 269639, Note_on_c, 0, 76, 0
1, 269640, Note_on_c, 0, 78, 18
1, 269759, Note_on_c, 0, 78, 0
1, 269760, Note_on_c, 0, 79, 18
1, 269879, Note_on_c, 0, 79, 0
1, 269880, Note_on_c, 0, 81, 18
1, 269999, Note_on_c, 0, 81, 0
1, 270000, Note_on_c, 0, 82, 18
1, 270119, Note_on_c, 0, 82, 0
1, 270120, Note_on_c, 0, 78, 18
1, 270239, Note_on_c, 0, 78, 0
1, 270240, Note_on_c, 0, 79, 17
1, 270359, Note_on_c, 0, 79, 0
1, 270360, Note_on_c, 0, 81, 17
1, 270479, Note_on_c, 0, 81, 0
1, 270480, Note_on_c, 0, 82, 17
1, 270599, Note_on_c, 0, 82, 0
1, 270600, Note_on_c, 0, 84, 17
1, 270719, Note_on_c, 0, 84, 0
1, 270720, Note_on_c, 0, 82, 16
1, 270720, Note_on_c, 0, 86, 16
1, 270959, Note_on_c, 0, 82, 0
1, 270959, Note_on_c, 0, 86, 0
1, 270960, Note_on_c, 0, 81, 16
1, 270960, Note_on_c, 0, 84, 16
1, 271079, Note_on_c, 0, 81, 0
1, 271079, Note_on_c, 0, 84, 0
1, 271080, Note_on_c, 0, 80, 16
1, 271080, Note_on_c, 0, 82, 16
1, 271199, Note_on_c, 0, 80, 0
1, 271199, Note_on_c, 0, 82, 0
1, 271200, Note_on_c, 0, 79, 16
1, 271200, Note_on_c, 0, 84, 16
1, 271319, Note_on_c, 0, 79, 0
1, 271319, Note_on_c, 0, 84, 0
1, 271320, Note_on_c, 0, 78, 16
1, 271320, Note_on_c, 0, 81, 16
1, 271439, Note_on_c, 0, 78, 0
1, 271439, Note_on_c, 0, 81, 0
1, 271440, Note_on_c, 0, 79, 16
1, 271440, Note_on_c, 0, 82, 16
1, 271559, Note_on_c, 0, 79, 0
1, 271559, Note_on_c, 0, 82, 0
1, 271680, Note_on_c, 0, 75, 16
1, 271680, Note_on_c, 0, 79, 16
1, 271799, Note_on_c, 0, 75, 0
1, 271799, Note_on_c, 0, 79, 0
1, 271920, Note_on_c, 0, 72, 16
1, 271920, Note_on_c, 0, 74, 16
1, 272039, Note_on_c, 0, 72, 0
1, 272039, Note_on_c, 0, 74, 0
1, 272160, Note_on_c, 0, 70, 16
1, 272160, Note_on_c, 0, 74, 16
1, 272279, Note_on_c, 0, 70, 0
1, 272279, Note_on_c, 0, 74, 0
1, 272400, Note_on_c, 0, 69, 16
1, 272400, Note_on_c, 0, 72, 16
1, 272519, Note_on_c, 0, 69, 0
1, 272519, Note_on_c, 0, 72, 0
1, 272520, Note_on_c, 0, 68, 16
1, 272520, Note_on_c, 0, 70, 16
1, 272639, Note_on_c, 0, 68, 0
1, 272639, Note_on_c, 0, 70, 0
1, 272640, Note_on_c, 0, 67, 16
1, 272640, Note_on_c, 0, 72, 16
1, 272759, Note_on_c, 0, 67, 0
1, 272759, Note_on_c, 0, 72, 0
1, 272760, Note_on_c, 0, 66, 16
1, 272760, Note_on_c, 0, 69, 16
1, 272879, Note_on_c, 0, 66, 0
1, 272879, Note_on_c, 0, 69, 0
1, 272880, Note_on_c, 0, 67, 16
1, 272880, Note_on_c, 0, 70, 16
1, 272999, Note_on_c, 0, 67, 0
1, 272999, Note_on_c, 0, 70, 0
1, 273120, Note_on_c, 0, 63, 16
1, 273120, Note_on_c, 0, 67, 16
1, 273239, Note_on_c, 0, 63, 0
1, 273239, Note_on_c, 0, 67, 0
1, 273360, Note_on_c, 0, 60, 16
1, 273360, Note_on_c, 0, 62, 16
1, 273479, Note_on_c, 0, 60, 0
1, 273479, Note_on_c, 0, 62, 0
1, 273600, Note_on_c, 0, 58, 16
1, 273600, Note_on_c, 0, 67, 16
1, 273719, Note_on_c, 0, 58, 0
1, 273719, Note_on_c, 0, 67, 0
1, 273840, Note_on_c, 0, 67, 16
1, 273840, Note_on_c, 0, 70, 16
1, 273959, Note_on_c, 0, 67, 0
1, 273959, Note_on_c, 0, 70, 0
1, 273960, Note_on_c, 0, 67, 16
1, 274079, Note_on_c, 0, 67, 0
1, 274080, Note_on_c, 0, 70, 16
1, 274080, Note_on_c, 0, 74, 16
1, 274199, Note_on_c, 0, 70, 0
1, 274199, Note_on_c, 0, 74, 0
1, 274200, Note_on_c, 0, 67, 16
1, 274319, Note_on_c, 0, 67, 0
1, 274320, Note_on_c, 0, 74, 16
1, 274320, Note_on_c, 0, 79, 16
1, 274439, Note_on_c, 0, 74, 0
1, 274439, Note_on_c, 0, 79, 0
1, 274560, Note_on_c, 0, 79, 16
1, 274560, Note_on_c, 0, 82, 16
1, 274679, Note_on_c, 0, 79, 0
1, 274679, Note_on_c, 0, 82, 0
1, 274800, Note_on_c, 0, 79, 16
1, 274800, Note_on_c, 0, 82, 16
1, 274800, Note_on_c, 0, 86, 16
1, 274919, Note_on_c, 0, 79, 0
1, 274919, Note_on_c, 0, 82, 0
1, 274919, Note_on_c, 0, 86, 0
1, 275040, Note_on_c, 0, 79, 16
1, 275040, Note_on_c, 0, 82, 16
1, 275040, Note_on_c, 0, 86, 16
1, 275040, Note_on_c, 0, 91, 16
1, 275159, Note_on_c, 0, 79, 0
1, 275159, Note_on_c, 0, 82, 0
1, 275159, Note_on_c, 0, 86, 0
1, 275159, Note_on_c, 0, 91, 0
1, 275760, Note_on_c, 0, 79, 16
1, 275879, Note_on_c, 0, 79, 0
1, 276480, Note_on_c, 0, 55, 16
1, 276599, Note_on_c, 0, 55, 0
1, 276600, End_track
2, 0, Start_track
2, 0, Title_t, "Piano"
2, 0, Key_signature, -2, "major"
2, 0, MIDI_port, 0
2, 0, Note_on_c, 0, 55, 49
2, 0, Note_on_c, 0, 58, 49
2, 0, Note_on_c, 0, 62, 49
2, 0, Note_on_c, 0, 67, 49
2, 119, Note_on_c, 0, 55, 0
2, 119, Note_on_c, 0, 58, 0
2, 119, Note_on_c, 0, 62, 0
2, 119, Note_on_c, 0, 67, 0
2, 240, Note_on_c, 0, 67, 49
2, 240, Note_on_c, 0, 72, 49
2, 240, Note_on_c, 0, 74, 49
2, 359, Note_on_c, 0, 67, 0
2, 359, Note_on_c, 0, 72, 0
2, 359, Note_on_c, 0, 74, 0
2, 360, Note_on_c, 0, 79, 49
2, 479, Note_on_c, 0, 79, 0
2, 480, Note_on_c, 0, 67, 49
2, 480, Note_on_c, 0, 72, 49
2, 480, Note_on_c, 0, 74, 49
2, 599, Note_on_c, 0, 67, 0
2, 599, Note_on_c, 0, 72, 0
2, 599, Note_on_c, 0, 74, 0
2, 600, Note_on_c, 0, 78, 49
2, 719, Note_on_c, 0, 78, 0
2, 720, Note_on_c, 0, 67, 49
2, 720, Note_on_c, 0, 70, 49
2, 720, Note_on_c, 0, 74, 49
2, 839, Note_on_c, 0, 67, 0
2, 839, Note_on_c, 0, 70, 0
2, 839, Note_on_c, 0, 74, 0
2, 960, Note_on_c, 0, 70, 49
2, 960, Note_on_c, 0, 74, 49
2, 1079, Note_on_c, 0, 70, 0
2, 1079, Note_on_c, 0, 74, 0
2, 1200, Note_on_c, 0, 67, 49
2, 1200, Note_on_c, 0, 70, 49
2, 1319, Note_on_c, 0, 67, 0
2, 1319, Note_on_c, 0, 70, 0
2, 1440, Note_on_c, 0, 55, 49
2, 1440, Note_on_c, 0, 58, 49
2, 1440, Note_on_c, 0, 62, 49
2, 1440, Note_on_c, 0, 67, 49
2, 1559, Note_on_c, 0, 55, 0
2, 1559, Note_on_c, 0, 58, 0
2, 1559, Note_on_c, 0, 62, 0
2, 1559, Note_on_c, 0, 67, 0
2, 1680, Note_on_c, 0, 62, 49
2, 1799, Note_on_c, 0, 62, 0
2, 1800, Note_on_c, 0, 70, 49
2, 1919, Note_on_c, 0, 70, 0
2, 1920, Note_on_c, 0, 62, 49
2, 2039, Note_on_c, 0, 62, 0
2, 2040, Note_on_c, 0, 69, 49
2, 2159, Note_on_c, 0, 69, 0
2, 2160, Note_on_c, 0, 67, 49
2, 2160, Note_on_c, 0, 70, 49
2, 2279, Note_on_c, 0, 67, 0
2, 2279, Note_on_c, 0, 70, 0
2, 2400, Note_on_c, 0, 67, 49
2, 2519, Note_on_c, 0, 67, 0
2, 2640, Note_on_c, 0, 62, 49
2, 2759, Note_on_c, 0, 62, 0
2, 2880, Note_on_c, 0, 62, 49
2, 2880, Note_on_c, 0, 55, 49
2, 2999, Note_on_c, 0, 62, 0
2, 3120, Note_on_c, 0, 60, 49
2, 3239, Note_on_c, 0, 60, 0
2, 3240, Note_on_c, 0, 62, 49
2, 3359, Note_on_c, 0, 62, 0
2, 3360, Note_on_c, 0, 60, 49
2, 3479, Note_on_c, 0, 60, 0
2, 3480, Note_on_c, 0, 62, 49
2, 3599, Note_on_c, 0, 62, 0
2, 3600, Note_on_c, 0, 58, 49
2, 3600, Note_on_c, 0, 62, 49
2, 3719, Note_on_c, 0, 58, 0
2, 3719, Note_on_c, 0, 62, 0
2, 3839, Note_on_c, 0, 55, 0
2, 3840, Note_on_c, 0, 60, 49
2, 3840, Note_on_c, 0, 55, 49
2, 3959, Note_on_c, 0, 60, 0
2, 3960, Note_on_c, 0, 62, 49
2, 4079, Note_on_c, 0, 62, 0
2, 4080, Note_on_c, 0, 60, 49
2, 4199, Note_on_c, 0, 60, 0
2, 4200, Note_on_c, 0, 62, 49
2, 4319, Note_on_c, 0, 62, 0
2, 4320, Note_on_c, 0, 58, 49
2, 4320, Note_on_c, 0, 62, 49
2, 4439, Note_on_c, 0, 58, 0
2, 4439, Note_on_c, 0, 62, 0
2, 4559, Note_on_c, 0, 55, 0
2, 4560, Note_on_c, 0, 60, 49
2, 4560, Note_on_c, 0, 55, 49
2, 4679, Note_on_c, 0, 60, 0
2, 4680, Note_on_c, 0, 62, 49
2, 4799, Note_on_c, 0, 62, 0
2, 4800, Note_on_c, 0, 60, 49
2, 4919, Note_on_c, 0, 60, 0
2, 4920, Note_on_c, 0, 62, 49
2, 5039, Note_on_c, 0, 62, 0
2, 5040, Note_on_c, 0, 58, 49
2, 5040, Note_on_c, 0, 62, 49
2, 5159, Note_on_c, 0, 58, 0
2, 5159, Note_on_c, 0, 62, 0
2, 5279, Note_on_c, 0, 55, 0
2, 5280, Note_on_c, 0, 62, 49
2, 5280, Note_on_c, 0, 67, 49
2, 5399, Note_on_c, 0, 62, 0
2, 5399, Note_on_c, 0, 67, 0
2, 5400, Note_on_c, 0, 69, 49
2, 5519, Note_on_c, 0, 69, 0
2, 5520, Note_on_c, 0, 67, 49
2, 5520, Note_on_c, 0, 70, 49
2, 5639, Note_on_c, 0, 67, 0
2, 5639, Note_on_c, 0, 70, 0
2, 5760, Note_on_c, 0, 50, 49
2, 5760, Note_on_c, 0, 53, 49
2, 5760, Note_on_c, 0, 57, 49
2, 5760, Note_on_c, 0, 62, 49
2, 5879, Note_on_c, 0, 50, 0
2, 5879, Note_on_c, 0, 53, 0
2, 5879, Note_on_c, 0, 57, 0
2, 5879, Note_on_c, 0, 62, 0
2, 6000, Note_on_c, 0, 62, 49
2, 6000, Note_on_c, 0, 67, 49
2, 6000, Note_on_c, 0, 69, 49
2, 6119, Note_on_c, 0, 62, 0
2, 6119, Note_on_c, 0, 67, 0
2, 6119, Note_on_c, 0, 69, 0
2, 6120, Note_on_c, 0, 74, 49
2, 6239, Note_on_c, 0, 74, 0
2, 6240, Note_on_c, 0, 62, 49
2, 6240, Note_on_c, 0, 67, 49
2, 6240, Note_on_c, 0, 69, 49
2, 6359, Note_on_c, 0, 62, 0
2, 6359, Note_on_c, 0, 67, 0
2, 6359, Note_on_c, 0, 69, 0
2, 6360, Note_on_c, 0, 73, 49
2, 6479, Note_on_c, 0, 73, 0
2, 6480, Note_on_c, 0, 62, 49
2, 6480, Note_on_c, 0, 65, 49
2, 6480, Note_on_c, 0, 69, 49
2, 6599, Note_on_c, 0, 62, 0
2, 6599, Note_on_c, 0, 65, 0
2, 6599, Note_on_c, 0, 69, 0
2, 6720, Note_on_c, 0, 65, 49
2, 6720, Note_on_c, 0, 69, 49
2, 6839, Note_on_c, 0, 65, 0
2, 6839, Note_on_c, 0, 69, 0
2, 6960, Note_on_c, 0, 62, 49
2, 6960, Note_on_c, 0, 65, 49
2, 7079, Note_on_c, 0, 62, 0
2, 7079, Note_on_c, 0, 65, 0
2, 7200, Note_on_c, 0, 50, 49
2, 7200, Note_on_c, 0, 53, 49
2, 7200, Note_on_c, 0, 57, 49
2, 7200, Note_on_c, 0, 62, 49
2, 7319, Note_on_c, 0, 50, 0
2, 7319, Note_on_c, 0, 53, 0
2, 7319, Note_on_c, 0, 57, 0
2, 7319, Note_on_c, 0, 62, 0
2, 7440, Note_on_c, 0, 57, 49
2, 7559, Note_on_c, 0, 57, 0
2, 7560, Note_on_c, 0, 65, 49
2, 7679, Note_on_c, 0, 65, 0
2, 7680, Note_on_c, 0, 57, 49
2, 7799, Note_on_c, 0, 57, 0
2, 7800, Note_on_c, 0, 64, 49
2, 7919, Note_on_c, 0, 64, 0
2, 7920, Note_on_c, 0, 62, 49
2, 7920, Note_on_c, 0, 65, 49
2, 8039, Note_on_c, 0, 62, 0
2, 8039, Note_on_c, 0, 65, 0
2, 8160, Note_on_c, 0, 62, 49
2, 8279, Note_on_c, 0, 62, 0
2, 8400, Note_on_c, 0, 57, 49
2, 8519, Note_on_c, 0, 57, 0
2, 8640, Note_on_c, 0, 57, 49
2, 8640, Note_on_c, 0, 50, 49
2, 8759, Note_on_c, 0, 57, 0
2, 8880, Note_on_c, 0, 55, 49
2, 8999, Note_on_c, 0, 55, 0
2, 9000, Note_on_c, 0, 57, 49
2, 9119, Note_on_c, 0, 57, 0
2, 9120, Note_on_c, 0, 55, 49
2, 9239, Note_on_c, 0, 55, 0
2, 9240, Note_on_c, 0, 57, 49
2, 9359, Note_on_c, 0, 57, 0
2, 9360, Note_on_c, 0, 53, 49
2, 9360, Note_on_c, 0, 57, 49
2, 9479, Note_on_c, 0, 53, 0
2, 9479, Note_on_c, 0, 57, 0
2, 9599, Note_on_c, 0, 50, 0
2, 9600, Note_on_c, 0, 55, 49
2, 9600, Note_on_c, 0, 50, 49
2, 9719, Note_on_c, 0, 55, 0
2, 9720, Note_on_c, 0, 57, 49
2, 9839, Note_on_c, 0, 57, 0
2, 9840, Note_on_c, 0, 55, 49
2, 9959, Note_on_c, 0, 55, 0
2, 9960, Note_on_c, 0, 57, 49
2, 10079, Note_on_c, 0, 57, 0
2, 10080, Note_on_c, 0, 53, 49
2, 10139, Note_on_c, 0, 53, 0
2, 10200, Note_on_c, 0, 57, 49
2, 10259, Note_on_c, 0, 57, 0
2, 10319, Note_on_c, 0, 50, 0
2, 10320, Note_on_c, 0, 62, 49
2, 10379, Note_on_c, 0, 62, 0
2, 10440, Note_on_c, 0, 64, 49
2, 10499, Note_on_c, 0, 64, 0
2, 10560, Note_on_c, 0, 65, 49
2, 10619, Note_on_c, 0, 65, 0
2, 10680, Note_on_c, 0, 67, 49
2, 10739, Note_on_c, 0, 67, 0
2, 10800, Note_on_c, 0, 69, 49
2, 10859, Note_on_c, 0, 69, 0
2, 10920, Note_on_c, 0, 70, 49
2, 10979, Note_on_c, 0, 70, 0
2, 11040, Note_on_c, 0, 72, 49
2, 11099, Note_on_c, 0, 72, 0
2, 11160, Note_on_c, 0, 74, 49
2, 11219, Note_on_c, 0, 74, 0
2, 11520, Note_on_c, 0, 43, 49
2, 11520, Note_on_c, 0, 50, 49
2, 11520, Note_on_c, 0, 58, 49
2, 11639, Note_on_c, 0, 43, 0
2, 11639, Note_on_c, 0, 50, 0
2, 11639, Note_on_c, 0, 58, 0
2, 11760, Note_on_c, 0, 50, 49
2, 11760, Note_on_c, 0, 54, 49
2, 11879, Note_on_c, 0, 50, 0
2, 11879, Note_on_c, 0, 54, 0
2, 11880, Note_on_c, 0, 60, 49
2, 11999, Note_on_c, 0, 60, 0
2, 12000, Note_on_c, 0, 62, 49
2, 12000, Note_on_c, 0, 66, 49
2, 12119, Note_on_c, 0, 62, 0
2, 12119, Note_on_c, 0, 66, 0
2, 12120, Note_on_c, 0, 72, 49
2, 12239, Note_on_c, 0, 72, 0
2, 12240, Note_on_c, 0, 67, 49
2, 12240, Note_on_c, 0, 70, 49
2, 12359, Note_on_c, 0, 67, 0
2, 12359, Note_on_c, 0, 70, 0
2, 12480, Note_on_c, 0, 62, 49
2, 12480, Note_on_c, 0, 67, 49
2, 12599, Note_on_c, 0, 62, 0
2, 12599, Note_on_c, 0, 67, 0
2, 12720, Note_on_c, 0, 58, 49
2, 12720, Note_on_c, 0, 62, 49
2, 12839, Note_on_c, 0, 58, 0
2, 12839, Note_on_c, 0, 62, 0
2, 12960, Note_on_c, 0, 43, 49
2, 12960, Note_on_c, 0, 50, 49
2, 12960, Note_on_c, 0, 58, 49
2, 13079, Note_on_c, 0, 43, 0
2, 13079, Note_on_c, 0, 50, 0
2, 13079, Note_on_c, 0, 58, 0
2, 13200, Note_on_c, 0, 50, 49
2, 13200, Note_on_c, 0, 54, 49
2, 13319, Note_on_c, 0, 50, 0
2, 13319, Note_on_c, 0, 54, 0
2, 13320, Note_on_c, 0, 60, 49
2, 13439, Note_on_c, 0, 60, 0
2, 13440, Note_on_c, 0, 60, 49
2, 13440, Note_on_c, 0, 62, 49
2, 13559, Note_on_c, 0, 60, 0
2, 13559, Note_on_c, 0, 62, 0
2, 13560, Note_on_c, 0, 69, 49
2, 13679, Note_on_c, 0, 69, 0
2, 13680, Note_on_c, 0, 58, 49
2, 13680, Note_on_c, 0, 62, 49
2, 13680, Note_on_c, 0, 67, 49
2, 13799, Note_on_c, 0, 58, 0
2, 13799, Note_on_c, 0, 62, 0
2, 13799, Note_on_c, 0, 67, 0
2, 13920, Note_on_c, 0, 62, 49
2, 13920, Note_on_c, 0, 67, 49
2, 13920, Note_on_c, 0, 70, 49
2, 14039, Note_on_c, 0, 62, 0
2, 14039, Note_on_c, 0, 67, 0
2, 14039, Note_on_c, 0, 70, 0
2, 14160, Note_on_c, 0, 58, 49
2, 14160, Note_on_c, 0, 62, 49
2, 14160, Note_on_c, 0, 67, 49
2, 14279, Note_on_c, 0, 58, 0
2, 14279, Note_on_c, 0, 62, 0
2, 14279, Note_on_c, 0, 67, 0
2, 14400, Note_on_c, 0, 55, 49
2, 14400, Note_on_c, 0, 62, 49
2, 14639, Note_on_c, 0, 55, 0
2, 14639, Note_on_c, 0, 62, 0
2, 14640, Note_on_c, 0, 60, 49
2, 14640, Note_on_c, 0, 62, 49
2, 14880, Note_on_c, 0, 60, 0
2, 14880, Note_on_c, 0, 38, 49
2, 14880, Note_on_c, 0, 50, 49
2, 15119, Note_on_c, 0, 62, 0
2, 15119, Note_on_c, 0, 38, 0
2, 15119, Note_on_c, 0, 50, 0
2, 15120, Note_on_c, 0, 43, 49
2, 15120, Note_on_c, 0, 50, 49
2, 15359, Note_on_c, 0, 43, 0
2, 15359, Note_on_c, 0, 50, 0
2, 15360, Note_on_c, 0, 60, 49
2, 15360, Note_on_c, 0, 62, 49
2, 15600, Note_on_c, 0, 60, 0
2, 15600, Note_on_c, 0, 38, 49
2, 15600, Note_on_c, 0, 50, 49
2, 15839, Note_on_c, 0, 62, 0
2, 15839, Note_on_c, 0, 38, 0
2, 15839, Note_on_c, 0, 50, 0
2, 15840, Note_on_c, 0, 43, 49
2, 15840, Note_on_c, 0, 50, 49
2, 16079, Note_on_c, 0, 43, 0
2, 16079, Note_on_c, 0, 50, 0
2, 16080, Note_on_c, 0, 60, 49
2, 16080, Note_on_c, 0, 62, 49
2, 16320, Note_on_c, 0, 60, 0
2, 16320, Note_on_c, 0, 38, 49
2, 16320, Note_on_c, 0, 50, 49
2, 16559, Note_on_c, 0, 62, 0
2, 16559, Note_on_c, 0, 38, 0
2, 16559, Note_on_c, 0, 50, 0
2, 16560, Note_on_c, 0, 43, 49
2, 16560, Note_on_c, 0, 50, 49
2, 16560, Note_on_c, 0, 55, 49
2, 16679, Note_on_c, 0, 43, 0
2, 16679, Note_on_c, 0, 50, 0
2, 16679, Note_on_c, 0, 55, 0
2, 16800, Note_on_c, 0, 41, 49
2, 16800, Note_on_c, 0, 53, 49
2, 16919, Note_on_c, 0, 41, 0
2, 16919, Note_on_c, 0, 53, 0
2, 17040, Note_on_c, 0, 39, 49
2, 17040, Note_on_c, 0, 51, 49
2, 17159, Note_on_c, 0, 39, 0
2, 17159, Note_on_c, 0, 51, 0
2, 17280, Note_on_c, 0, 38, 49
2, 17280, Note_on_c, 0, 50, 49
2, 17519, Note_on_c, 0, 38, 0
2, 17519, Note_on_c, 0, 50, 0
2, 17520, Note_on_c, 0, 59, 49
2, 17520, Note_on_c, 0, 53, 49
2, 17639, Note_on_c, 0, 59, 0
2, 17640, Note_on_c, 0, 60, 49
2, 17759, Note_on_c, 0, 60, 0
2, 17760, Note_on_c, 0, 59, 49
2, 17879, Note_on_c, 0, 59, 0
2, 17880, Note_on_c, 0, 62, 49
2, 17999, Note_on_c, 0, 53, 0
2, 17999, Note_on_c, 0, 62, 0
2, 18000, Note_on_c, 0, 51, 49
2, 18000, Note_on_c, 0, 55, 49
2, 18000, Note_on_c, 0, 60, 49
2, 18119, Note_on_c, 0, 51, 0
2, 18119, Note_on_c, 0, 55, 0
2, 18119, Note_on_c, 0, 60, 0
2, 18240, Note_on_c, 0, 55, 49
2, 18240, Note_on_c, 0, 60, 49
2, 18240, Note_on_c, 0, 63, 49
2, 18359, Note_on_c, 0, 55, 0
2, 18359, Note_on_c, 0, 60, 0
2, 18359, Note_on_c, 0, 63, 0
2, 18480, Note_on_c, 0, 60, 49
2, 18480, Note_on_c, 0, 63, 49
2, 18480, Note_on_c, 0, 67, 49
2, 18599, Note_on_c, 0, 60, 0
2, 18599, Note_on_c, 0, 63, 0
2, 18599, Note_on_c, 0, 67, 0
2, 18720, Note_on_c, 0, 47, 49
2, 18720, Note_on_c, 0, 45, 49
2, 18959, Note_on_c, 0, 47, 0
2, 18959, Note_on_c, 0, 45, 0
2, 18960, Note_on_c, 0, 51, 49
2, 18960, Note_on_c, 0, 41, 49
2, 19079, Note_on_c, 0, 51, 0
2, 19080, Note_on_c, 0, 43, 49
2, 19199, Note_on_c, 0, 43, 0
2, 19200, Note_on_c, 0, 65, 49
2, 19200, Note_on_c, 0, 34, 49
2, 19319, Note_on_c, 0, 65, 0
2, 19320, Note_on_c, 0, 62, 49
2, 19439, Note_on_c, 0, 41, 0
2, 19439, Note_on_c, 0, 34, 0
2, 19439, Note_on_c, 0, 62, 0
2, 19440, Note_on_c, 0, 48, 49
2, 19440, Note_on_c, 0, 55, 49
2, 19679, Note_on_c, 0, 48, 0
2, 19679, Note_on_c, 0, 55, 0
2, 20160, Note_on_c, 0, 36, 49
2, 20160, Note_on_c, 0, 48, 49
2, 20399, Note_on_c, 0, 36, 0
2, 20399, Note_on_c, 0, 48, 0
2, 20400, Note_on_c, 0, 63, 49
2, 20400, Note_on_c, 0, 57, 49
2, 20519, Note_on_c, 0, 57, 0
2, 20520, Note_on_c, 0, 58, 49
2, 20639, Note_on_c, 0, 58, 0
2, 20640, Note_on_c, 0, 57, 49
2, 20759, Note_on_c, 0, 57, 0
2, 20760, Note_on_c, 0, 60, 49
2, 20879, Note_on_c, 0, 63, 0
2, 20879, Note_on_c, 0, 60, 0
2, 20880, Note_on_c, 0, 50, 49
2, 20880, Note_on_c, 0, 53, 49
2, 20880, Note_on_c, 0, 58, 49
2, 20999, Note_on_c, 0, 50, 0
2, 20999, Note_on_c, 0, 53, 0
2, 20999, Note_on_c, 0, 58, 0
2, 21120, Note_on_c, 0, 53, 49
2, 21120, Note_on_c, 0, 58, 49
2, 21120, Note_on_c, 0, 62, 49
2, 21239, Note_on_c, 0, 53, 0
2, 21239, Note_on_c, 0, 58, 0
2, 21239, Note_on_c, 0, 62, 0
2, 21360, Note_on_c, 0, 58, 49
2, 21360, Note_on_c, 0, 62, 49
2, 21360, Note_on_c, 0, 65, 49
2, 21479, Note_on_c, 0, 58, 0
2, 21479, Note_on_c, 0, 62, 0
2, 21479, Note_on_c, 0, 65, 0
2, 21600, Note_on_c, 0, 36, 49
2, 21600, Note_on_c, 0, 48, 49
2, 21839, Note_on_c, 0, 36, 0
2, 21839, Note_on_c, 0, 48, 0
2, 21840, Note_on_c, 0, 63, 49
2, 21840, Note_on_c, 0, 57, 49
2, 21959, Note_on_c, 0, 63, 0
2, 21960, Note_on_c, 0, 62, 49
2, 22079, Note_on_c, 0, 62, 0
2, 22080, Note_on_c, 0, 60, 49
2, 22199, Note_on_c, 0, 60, 0
2, 22200, Note_on_c, 0, 59, 49
2, 22319, Note_on_c, 0, 57, 0
2, 22319, Note_on_c, 0, 59, 0
2, 22320, Note_on_c, 0, 50, 49
2, 22320, Note_on_c, 0, 53, 49
2, 22320, Note_on_c, 0, 58, 49
2, 22439, Note_on_c, 0, 50, 0
2, 22439, Note_on_c, 0, 53, 0
2, 22439, Note_on_c, 0, 58, 0
2, 22560, Note_on_c, 0, 53, 49
2, 22560, Note_on_c, 0, 58, 49
2, 22560, Note_on_c, 0, 62, 49
2, 22679, Note_on_c, 0, 53, 0
2, 22679, Note_on_c, 0, 58, 0
2, 22679, Note_on_c, 0, 62, 0
2, 22800, Note_on_c, 0, 58, 49
2, 22800, Note_on_c, 0, 62, 49
2, 22800, Note_on_c, 0, 65, 49
2, 22919, Note_on_c, 0, 58, 0
2, 22919, Note_on_c, 0, 62, 0
2, 22919, Note_on_c, 0, 65, 0
2, 23040, Note_on_c, 0, 55, 58
2, 23040, Note_on_c, 0, 58, 58
2, 23040, Note_on_c, 0, 61, 58
2, 23040, Note_on_c, 0, 67, 58
2, 23159, Note_on_c, 0, 55, 0
2, 23159, Note_on_c, 0, 58, 0
2, 23159, Note_on_c, 0, 61, 0
2, 23159, Note_on_c, 0, 67, 0
2, 23280, Note_on_c, 0, 40, 49
2, 23280, Note_on_c, 0, 49, 49
2, 23280, Note_on_c, 0, 52, 49
2, 23399, Note_on_c, 0, 40, 0
2, 23399, Note_on_c, 0, 49, 0
2, 23399, Note_on_c, 0, 52, 0
2, 23760, Note_on_c, 0, 53, 60
2, 23760, Note_on_c, 0, 58, 60
2, 23760, Note_on_c, 0, 61, 60
2, 23760, Note_on_c, 0, 65, 60
2, 23879, Note_on_c, 0, 53, 0
2, 23879, Note_on_c, 0, 58, 0
2, 23879, Note_on_c, 0, 61, 0
2, 23879, Note_on_c, 0, 65, 0
2, 24000, Note_on_c, 0, 41, 51
2, 24000, Note_on_c, 0, 49, 51
2, 24000, Note_on_c, 0, 53, 51
2, 24119, Note_on_c, 0, 41, 0
2, 24119, Note_on_c, 0, 49, 0
2, 24119, Note_on_c, 0, 53, 0
2, 24480, Note_on_c, 0, 52, 62
2, 24480, Note_on_c, 0, 58, 62
2, 24480, Note_on_c, 0, 61, 62
2, 24480, Note_on_c, 0, 64, 62
2, 24599, Note_on_c, 0, 52, 0
2, 24599, Note_on_c, 0, 58, 0
2, 24599, Note_on_c, 0, 61, 0
2, 24599, Note_on_c, 0, 64, 0
2, 24720, Note_on_c, 0, 43, 53
2, 24720, Note_on_c, 0, 49, 53
2, 24720, Note_on_c, 0, 55, 53
2, 24839, Note_on_c, 0, 43, 0
2, 24839, Note_on_c, 0, 49, 0
2, 24839, Note_on_c, 0, 55, 0
2, 25200, Note_on_c, 0, 61, 54
2, 25319, Note_on_c, 0, 61, 0
2, 25440, Note_on_c, 0, 58, 55
2, 25559, Note_on_c, 0, 58, 0
2, 25560, Note_on_c, 0, 57, 55
2, 25679, Note_on_c, 0, 57, 0
2, 25680, Note_on_c, 0, 58, 55
2, 25799, Note_on_c, 0, 58, 0
2, 25800, Note_on_c, 0, 55, 56
2, 25919, Note_on_c, 0, 55, 0
2, 25920, Note_on_c, 0, 40, 67
2, 25920, Note_on_c, 0, 46, 67
2, 25920, Note_on_c, 0, 49, 67
2, 25920, Note_on_c, 0, 52, 67
2, 26159, Note_on_c, 0, 40, 0
2, 26159, Note_on_c, 0, 46, 0
2, 26159, Note_on_c, 0, 49, 0
2, 26159, Note_on_c, 0, 52, 0
2, 26160, Note_on_c, 0, 58, 57
2, 26160, Note_on_c, 0, 61, 57
2, 26160, Note_on_c, 0, 67, 57
2, 26279, Note_on_c, 0, 58, 0
2, 26279, Note_on_c, 0, 61, 0
2, 26279, Note_on_c, 0, 67, 0
2, 26280, Note_on_c, 0, 60, 57
2, 26399, Note_on_c, 0, 60, 0
2, 26400, Note_on_c, 0, 58, 58
2, 26400, Note_on_c, 0, 61, 58
2, 26400, Note_on_c, 0, 67, 58
2, 26639, Note_on_c, 0, 58, 0
2, 26639, Note_on_c, 0, 61, 0
2, 26639, Note_on_c, 0, 67, 0
2, 26640, Note_on_c, 0, 41, 69
2, 26640, Note_on_c, 0, 46, 69
2, 26640, Note_on_c, 0, 49, 69
2, 26640, Note_on_c, 0, 53, 69
2, 26879, Note_on_c, 0, 41, 0
2, 26879, Note_on_c, 0, 46, 0
2, 26879, Note_on_c, 0, 49, 0
2, 26879, Note_on_c, 0, 53, 0
2, 26880, Note_on_c, 0, 58, 59
2, 26880, Note_on_c, 0, 61, 59
2, 26880, Note_on_c, 0, 65, 59
2, 26999, Note_on_c, 0, 58, 0
2, 26999, Note_on_c, 0, 61, 0
2, 26999, Note_on_c, 0, 65, 0
2, 27000, Note_on_c, 0, 60, 59
2, 27119, Note_on_c, 0, 60, 0
2, 27120, Note_on_c, 0, 58, 60
2, 27120, Note_on_c, 0, 61, 60
2, 27120, Note_on_c, 0, 65, 60
2, 27359, Note_on_c, 0, 58, 0
2, 27359, Note_on_c, 0, 61, 0
2, 27359, Note_on_c, 0, 65, 0
2, 27360, Note_on_c, 0, 43, 72
2, 27360, Note_on_c, 0, 49, 72
2, 27360, Note_on_c, 0, 52, 72
2, 27360, Note_on_c, 0, 55, 72
2, 27599, Note_on_c, 0, 43, 0
2, 27599, Note_on_c, 0, 49, 0
2, 27599, Note_on_c, 0, 52, 0
2, 27599, Note_on_c, 0, 55, 0
2, 27600, Note_on_c, 0, 58, 61
2, 27600, Note_on_c, 0, 61, 61
2, 27600, Note_on_c, 0, 64, 61
2, 27719, Note_on_c, 0, 58, 0
2, 27719, Note_on_c, 0, 61, 0
2, 27719, Note_on_c, 0, 64, 0
2, 27720, Note_on_c, 0, 60, 61
2, 27839, Note_on_c, 0, 60, 0
2, 27840, Note_on_c, 0, 58, 62
2, 27840, Note_on_c, 0, 61, 62
2, 27840, Note_on_c, 0, 64, 62
2, 28079, Note_on_c, 0, 58, 0
2, 28079, Note_on_c, 0, 61, 0
2, 28079, Note_on_c, 0, 64, 0
2, 28080, Note_on_c, 0, 61, 62
2, 28199, Note_on_c, 0, 61, 0
2, 28320, Note_on_c, 0, 58, 63
2, 28439, Note_on_c, 0, 58, 0
2, 28440, Note_on_c, 0, 57, 63
2, 28559, Note_on_c, 0, 57, 0
2, 28560, Note_on_c, 0, 58, 64
2, 28679, Note_on_c, 0, 58, 0
2, 28680, Note_on_c, 0, 55, 64
2, 28799, Note_on_c, 0, 55, 0
2, 28800, Note_on_c, 0, 57, 65
2, 28800, Note_on_c, 0, 60, 65
2, 28800, Note_on_c, 0, 65, 65
2, 29039, Note_on_c, 0, 57, 0
2, 29039, Note_on_c, 0, 60, 0
2, 29039, Note_on_c, 0, 65, 0
2, 29160, Note_on_c, 0, 69, 49
2, 29279, Note_on_c, 0, 69, 0
2, 29280, Note_on_c, 0, 74, 49
2, 29399, Note_on_c, 0, 74, 0
2, 29400, Note_on_c, 0, 70, 49
2, 29519, Note_on_c, 0, 70, 0
2, 29640, Note_on_c, 0, 69, 49
2, 29759, Note_on_c, 0, 69, 0
2, 29760, Note_on_c, 0, 74, 49
2, 29879, Note_on_c, 0, 74, 0
2, 29880, Note_on_c, 0, 70, 49
2, 29999, Note_on_c, 0, 70, 0
2, 30120, Note_on_c, 0, 66, 49
2, 30239, Note_on_c, 0, 66, 0
2, 30240, Note_on_c, 0, 70, 49
2, 30359, Note_on_c, 0, 70, 0
2, 30360, Note_on_c, 0, 67, 49
2, 30479, Note_on_c, 0, 67, 0
2, 30600, Note_on_c, 0, 66, 49
2, 30719, Note_on_c, 0, 66, 0
2, 30720, Note_on_c, 0, 70, 49
2, 30839, Note_on_c, 0, 70, 0
2, 30840, Note_on_c, 0, 67, 49
2, 30959, Note_on_c, 0, 67, 0
2, 31080, Note_on_c, 0, 62, 49
2, 31199, Note_on_c, 0, 62, 0
2, 31200, Note_on_c, 0, 67, 49
2, 31319, Note_on_c, 0, 67, 0
2, 31320, Note_on_c, 0, 63, 49
2, 31439, Note_on_c, 0, 63, 0
2, 31560, Note_on_c, 0, 62, 49
2, 31679, Note_on_c, 0, 62, 0
2, 31680, Note_on_c, 0, 67, 49
2, 31799, Note_on_c, 0, 67, 0
2, 31800, Note_on_c, 0, 63, 49
2, 31919, Note_on_c, 0, 63, 0
2, 32040, Note_on_c, 0, 59, 49
2, 32159, Note_on_c, 0, 59, 0
2, 32160, Note_on_c, 0, 63, 49
2, 32279, Note_on_c, 0, 63, 0
2, 32280, Note_on_c, 0, 60, 49
2, 32399, Note_on_c, 0, 60, 0
2, 32520, Note_on_c, 0, 59, 49
2, 32639, Note_on_c, 0, 59, 0
2, 32640, Note_on_c, 0, 63, 49
2, 32759, Note_on_c, 0, 63, 0
2, 32760, Note_on_c, 0, 60, 49
2, 32879, Note_on_c, 0, 60, 0
2, 33120, Note_on_c, 0, 65, 49
2, 33120, Note_on_c, 0, 65, 0
2, 33120, Note_on_c, 0, 65, 49
2, 33240, Note_on_c, 0, 62, 49
2, 33359, Note_on_c, 0, 65, 0
2, 33359, Note_on_c, 0, 62, 0
2, 33600, Note_on_c, 0, 53, 49
2, 33600, Note_on_c, 0, 60, 49
2, 33839, Note_on_c, 0, 53, 0
2, 33839, Note_on_c, 0, 60, 0
2, 33840, Note_on_c, 0, 46, 49
2, 33840, Note_on_c, 0, 53, 49
2, 34079, Note_on_c, 0, 46, 0
2, 34079, Note_on_c, 0, 53, 0
2, 34080, Note_on_c, 0, 62, 52
2, 34199, Note_on_c, 0, 62, 0
2, 34320, Note_on_c, 0, 58, 55
2, 34439, Note_on_c, 0, 58, 0
2, 34560, Note_on_c, 0, 57, 58
2, 34560, Note_on_c, 0, 60, 58
2, 34560, Note_on_c, 0, 65, 58
2, 34679, Note_on_c, 0, 57, 0
2, 34679, Note_on_c, 0, 60, 0
2, 34679, Note_on_c, 0, 65, 0
2, 34800, Note_on_c, 0, 69, 61
2, 34800, Note_on_c, 0, 75, 61
2, 34800, Note_on_c, 0, 79, 61
2, 34919, Note_on_c, 0, 69, 0
2, 34919, Note_on_c, 0, 75, 0
2, 34919, Note_on_c, 0, 79, 0
2, 35040, Note_on_c, 0, 70, 64
2, 35040, Note_on_c, 0, 74, 64
2, 35040, Note_on_c, 0, 77, 64
2, 35159, Note_on_c, 0, 70, 0
2, 35159, Note_on_c, 0, 74, 0
2, 35159, Note_on_c, 0, 77, 0
2, 35280, Note_on_c, 0, 75, 67
2, 35280, Note_on_c, 0, 79, 67
2, 35399, Note_on_c, 0, 75, 0
2, 35399, Note_on_c, 0, 79, 0
2, 35400, Note_on_c, 0, 69, 68
2, 35519, Note_on_c, 0, 69, 0
2, 35520, Note_on_c, 0, 74, 70
2, 35520, Note_on_c, 0, 77, 70
2, 35639, Note_on_c, 0, 74, 0
2, 35639, Note_on_c, 0, 77, 0
2, 35640, Note_on_c, 0, 70, 71
2, 35759, Note_on_c, 0, 70, 0
2, 35760, Note_on_c, 0, 66, 73
2, 35760, Note_on_c, 0, 72, 73
2, 35760, Note_on_c, 0, 75, 73
2, 35879, Note_on_c, 0, 66, 0
2, 35879, Note_on_c, 0, 72, 0
2, 35879, Note_on_c, 0, 75, 0
2, 36000, Note_on_c, 0, 67, 76
2, 36000, Note_on_c, 0, 70, 76
2, 36000, Note_on_c, 0, 74, 76
2, 36119, Note_on_c, 0, 67, 0
2, 36119, Note_on_c, 0, 70, 0
2, 36119, Note_on_c, 0, 74, 0
2, 36240, Note_on_c, 0, 72, 79
2, 36240, Note_on_c, 0, 75, 79
2, 36359, Note_on_c, 0, 72, 0
2, 36359, Note_on_c, 0, 75, 0
2, 36360, Note_on_c, 0, 66, 80
2, 36479, Note_on_c, 0, 66, 0
2, 36480, Note_on_c, 0, 70, 82
2, 36480, Note_on_c, 0, 74, 82
2, 36599, Note_on_c, 0, 70, 0
2, 36599, Note_on_c, 0, 74, 0
2, 36600, Note_on_c, 0, 67, 83
2, 36719, Note_on_c, 0, 67, 0
2, 36720, Note_on_c, 0, 62, 85
2, 36720, Note_on_c, 0, 69, 85
2, 36720, Note_on_c, 0, 72, 85
2, 36839, Note_on_c, 0, 62, 0
2, 36839, Note_on_c, 0, 69, 0
2, 36839, Note_on_c, 0, 72, 0
2, 36960, Note_on_c, 0, 63, 88
2, 36960, Note_on_c, 0, 67, 88
2, 36960, Note_on_c, 0, 70, 88
2, 37079, Note_on_c, 0, 63, 0
2, 37079, Note_on_c, 0, 67, 0
2, 37079, Note_on_c, 0, 70, 0
2, 37200, Note_on_c, 0, 69, 91
2, 37200, Note_on_c, 0, 72, 91
2, 37319, Note_on_c, 0, 69, 0
2, 37319, Note_on_c, 0, 72, 0
2, 37320, Note_on_c, 0, 62, 92
2, 37439, Note_on_c, 0, 62, 0
2, 37440, Note_on_c, 0, 67, 94
2, 37440, Note_on_c, 0, 70, 94
2, 37559, Note_on_c, 0, 67, 0
2, 37559, Note_on_c, 0, 70, 0
2, 37560, Note_on_c, 0, 63, 95
2, 37679, Note_on_c, 0, 63, 0
2, 37680, Note_on_c, 0, 59, 97
2, 37680, Note_on_c, 0, 65, 97
2, 37680, Note_on_c, 0, 68, 97
2, 37799, Note_on_c, 0, 59, 0
2, 37799, Note_on_c, 0, 65, 0
2, 37799, Note_on_c, 0, 68, 0
2, 37920, Note_on_c, 0, 60, 100
2, 37920, Note_on_c, 0, 63, 100
2, 37920, Note_on_c, 0, 67, 100
2, 38039, Note_on_c, 0, 60, 0
2, 38039, Note_on_c, 0, 63, 0
2, 38039, Note_on_c, 0, 67, 0
2, 38160, Note_on_c, 0, 65, 103
2, 38160, Note_on_c, 0, 68, 103
2, 38279, Note_on_c, 0, 65, 0
2, 38279, Note_on_c, 0, 68, 0
2, 38280, Note_on_c, 0, 59, 104
2, 38399, Note_on_c, 0, 59, 0
2, 38400, Note_on_c, 0, 63, 106
2, 38400, Note_on_c, 0, 67, 106
2, 38519, Note_on_c, 0, 63, 0
2, 38519, Note_on_c, 0, 67, 0
2, 38520, Note_on_c, 0, 60, 107
2, 38639, Note_on_c, 0, 60, 0
2, 38880, Note_on_c, 0, 40, 112
2, 40079, Note_on_c, 0, 40, 0
2, 40320, Note_on_c, 0, 40, 112
2, 41519, Note_on_c, 0, 40, 0
2, 41760, Note_on_c, 0, 39, 112
2, 42479, Note_on_c, 0, 39, 0
2, 42480, Note_on_c, 0, 57, 94
2, 42719, Note_on_c, 0, 57, 0
2, 42720, Note_on_c, 0, 63, 49
2, 42959, Note_on_c, 0, 63, 0
2, 42960, Note_on_c, 0, 62, 49
2, 43079, Note_on_c, 0, 62, 0
2, 43080, Note_on_c, 0, 58, 49
2, 43199, Note_on_c, 0, 58, 0
2, 43200, Note_on_c, 0, 51, 49
2, 43319, Note_on_c, 0, 51, 0
2, 43440, Note_on_c, 0, 48, 49
2, 43559, Note_on_c, 0, 48, 0
2, 43680, Note_on_c, 0, 41, 49
2, 43799, Note_on_c, 0, 41, 0
2, 43920, Note_on_c, 0, 34, 49
2, 44039, Note_on_c, 0, 34, 0
2, 44160, Note_on_c, 0, 50, 49
2, 44279, Note_on_c, 0, 50, 0
2, 44400, Note_on_c, 0, 58, 49
2, 44400, Note_on_c, 0, 51, 49
2, 44519, Note_on_c, 0, 58, 0
2, 44520, Note_on_c, 0, 60, 49
2, 44639, Note_on_c, 0, 51, 0
2, 44639, Note_on_c, 0, 60, 0
2, 44640, Note_on_c, 0, 52, 127
2, 44640, Note_on_c, 0, 58, 127
2, 44640, Note_on_c, 0, 61, 127
2, 44880, Note_on_c, 0, 58, 0
2, 44880, Note_on_c, 0, 61, 0
2, 45359, Note_on_c, 0, 52, 0
2, 45840, Note_on_c, 0, 58, 94
2, 45840, Note_on_c, 0, 51, 94
2, 45959, Note_on_c, 0, 58, 0
2, 45960, Note_on_c, 0, 60, 94
2, 46079, Note_on_c, 0, 51, 0
2, 46079, Note_on_c, 0, 60, 0
2, 46080, Note_on_c, 0, 52, 127
2, 46080, Note_on_c, 0, 58, 127
2, 46080, Note_on_c, 0, 61, 127
2, 46320, Note_on_c, 0, 58, 0
2, 46320, Note_on_c, 0, 61, 0
2, 46799, Note_on_c, 0, 52, 0
2, 47280, Note_on_c, 0, 58, 94
2, 47280, Note_on_c, 0, 52, 94
2, 47399, Note_on_c, 0, 58, 0
2, 47400, Note_on_c, 0, 60, 94
2, 47519, Note_on_c, 0, 52, 0
2, 47519, Note_on_c, 0, 60, 0
2, 47520, Note_on_c, 0, 51, 127
2, 47520, Note_on_c, 0, 58, 127
2, 47520, Note_on_c, 0, 61, 127
2, 47760, Note_on_c, 0, 58, 0
2, 47760, Note_on_c, 0, 61, 0
2, 48239, Note_on_c, 0, 51, 0
2, 48240, Note_on_c, 0, 57, 94
2, 48240, Note_on_c, 0, 60, 94
2, 48240, Note_on_c, 0, 69, 94
2, 48479, Note_on_c, 0, 57, 0
2, 48479, Note_on_c, 0, 60, 0
2, 48479, Note_on_c, 0, 69, 0
2, 48480, Note_on_c, 0, 63, 49
2, 48480, Note_on_c, 0, 65, 49
2, 48599, Note_on_c, 0, 63, 0
2, 48599, Note_on_c, 0, 65, 0
2, 48600, Note_on_c, 0, 72, 49
2, 48719, Note_on_c, 0, 72, 0
2, 48720, Note_on_c, 0, 62, 49
2, 48720, Note_on_c, 0, 65, 49
2, 48720, Note_on_c, 0, 70, 49
2, 48840, Note_on_c, 0, 70, 0
2, 48959, Note_on_c, 0, 62, 0
2, 48959, Note_on_c, 0, 65, 0
2, 48960, Note_on_c, 0, 60, 33
2, 48960, Note_on_c, 0, 63, 33
2, 48960, Note_on_c, 0, 67, 33
2, 49079, Note_on_c, 0, 60, 0
2, 49079, Note_on_c, 0, 63, 0
2, 49079, Note_on_c, 0, 67, 0
2, 49200, Note_on_c, 0, 55, 33
2, 49200, Note_on_c, 0, 60, 33
2, 49319, Note_on_c, 0, 55, 0
2, 49319, Note_on_c, 0, 60, 0
2, 49440, Note_on_c, 0, 53, 33
2, 49440, Note_on_c, 0, 60, 33
2, 49559, Note_on_c, 0, 53, 0
2, 49559, Note_on_c, 0, 60, 0
2, 49680, Note_on_c, 0, 46, 33
2, 49680, Note_on_c, 0, 53, 33
2, 49799, Note_on_c, 0, 46, 0
2, 49799, Note_on_c, 0, 53, 0
2, 49920, Note_on_c, 0, 53, 33
2, 49920, Note_on_c, 0, 62, 33
2, 50039, Note_on_c, 0, 53, 0
2, 50039, Note_on_c, 0, 62, 0
2, 50160, Note_on_c, 0, 46, 33
2, 50160, Note_on_c, 0, 53, 33
2, 50279, Note_on_c, 0, 46, 0
2, 50279, Note_on_c, 0, 53, 0
2, 50400, Note_on_c, 0, 39, 33
2, 50476, Note_on_c, 0, 46, 33
2, 50553, Note_on_c, 0, 55, 33
2, 50638, Note_on_c, 0, 46, 0
2, 50638, Note_on_c, 0, 55, 0
2, 50639, Note_on_c, 0, 39, 0
2, 50640, Note_on_c, 0, 55, 33
2, 50640, Note_on_c, 0, 58, 33
2, 50879, Note_on_c, 0, 55, 0
2, 50879, Note_on_c, 0, 58, 0
2, 50880, Note_on_c, 0, 46, 33
2, 50880, Note_on_c, 0, 53, 33
2, 51119, Note_on_c, 0, 46, 0
2, 51119, Note_on_c, 0, 53, 0
2, 51120, Note_on_c, 0, 38, 33
2, 51196, Note_on_c, 0, 46, 33
2, 51273, Note_on_c, 0, 53, 33
2, 51358, Note_on_c, 0, 46, 0
2, 51358, Note_on_c, 0, 53, 0
2, 51359, Note_on_c, 0, 38, 0
2, 51360, Note_on_c, 0, 46, 33
2, 51360, Note_on_c, 0, 53, 33
2, 51599, Note_on_c, 0, 46, 0
2, 51599, Note_on_c, 0, 53, 0
2, 51600, Note_on_c, 0, 38, 33
2, 51600, Note_on_c, 0, 46, 33
2, 51839, Note_on_c, 0, 38, 0
2, 51839, Note_on_c, 0, 46, 0
2, 51840, Note_on_c, 0, 36, 33
2, 51840, Note_on_c, 0, 43, 33
2, 51840, Note_on_c, 0, 48, 33
2, 52079, Note_on_c, 0, 36, 0
2, 52079, Note_on_c, 0, 43, 0
2, 52079, Note_on_c, 0, 48, 0
2, 52080, Note_on_c, 0, 52, 33
2, 52080, Note_on_c, 0, 58, 33
2, 52319, Note_on_c, 0, 52, 0
2, 52319, Note_on_c, 0, 58, 0
2, 52320, Note_on_c, 0, 36, 33
2, 52320, Note_on_c, 0, 43, 33
2, 52320, Note_on_c, 0, 48, 33
2, 52559, Note_on_c, 0, 36, 0
2, 52559, Note_on_c, 0, 43, 0
2, 52559, Note_on_c, 0, 48, 0
2, 52560, Note_on_c, 0, 41, 33
2, 52560, Note_on_c, 0, 48, 33
2, 52560, Note_on_c, 0, 53, 33
2, 52799, Note_on_c, 0, 41, 0
2, 52799, Note_on_c, 0, 48, 0
2, 52799, Note_on_c, 0, 53, 0
2, 52800, Note_on_c, 0, 53, 33
2, 52800, Note_on_c, 0, 57, 33
2, 53039, Note_on_c, 0, 53, 0
2, 53039, Note_on_c, 0, 57, 0
2, 53040, Note_on_c, 0, 41, 33
2, 53040, Note_on_c, 0, 48, 33
2, 53040, Note_on_c, 0, 53, 33
2, 53279, Note_on_c, 0, 41, 0
2, 53279, Note_on_c, 0, 48, 0
2, 53279, Note_on_c, 0, 53, 0
2, 53280, Note_on_c, 0, 34, 33
2, 53280, Note_on_c, 0, 41, 33
2, 53280, Note_on_c, 0, 46, 33
2, 53519, Note_on_c, 0, 34, 0
2, 53519, Note_on_c, 0, 41, 0
2, 53519, Note_on_c, 0, 46, 0
2, 53520, Note_on_c, 0, 53, 33
2, 53520, Note_on_c, 0, 62, 33
2, 53759, Note_on_c, 0, 53, 0
2, 53759, Note_on_c, 0, 62, 0
2, 53760, Note_on_c, 0, 39, 33
2, 53836, Note_on_c, 0, 46, 33
2, 53913, Note_on_c, 0, 55, 33
2, 53998, Note_on_c, 0, 46, 0
2, 53998, Note_on_c, 0, 55, 0
2, 53999, Note_on_c, 0, 39, 0
2, 54000, Note_on_c, 0, 34, 33
2, 54000, Note_on_c, 0, 41, 33
2, 54000, Note_on_c, 0, 46, 33
2, 54239, Note_on_c, 0, 34, 0
2, 54239, Note_on_c, 0, 41, 0
2, 54239, Note_on_c, 0, 46, 0
2, 54240, Note_on_c, 0, 53, 33
2, 54240, Note_on_c, 0, 62, 33
2, 54479, Note_on_c, 0, 53, 0
2, 54479, Note_on_c, 0, 62, 0
2, 54480, Note_on_c, 0, 39, 33
2, 54556, Note_on_c, 0, 46, 33
2, 54633, Note_on_c, 0, 55, 33
2, 54718, Note_on_c, 0, 46, 0
2, 54718, Note_on_c, 0, 55, 0
2, 54719, Note_on_c, 0, 39, 0
2, 54720, Note_on_c, 0, 34, 33
2, 54720, Note_on_c, 0, 41, 33
2, 54720, Note_on_c, 0, 46, 33
2, 54959, Note_on_c, 0, 34, 0
2, 54959, Note_on_c, 0, 41, 0
2, 54959, Note_on_c, 0, 46, 0
2, 54960, Note_on_c, 0, 53, 33
2, 55199, Note_on_c, 0, 53, 0
2, 55920, Note_on_c, 0, 46, 37
2, 55920, Note_on_c, 0, 53, 37
2, 55920, Note_on_c, 0, 58, 37
2, 56159, Note_on_c, 0, 46, 0
2, 56159, Note_on_c, 0, 53, 0
2, 56159, Note_on_c, 0, 58, 0
2, 56160, Note_on_c, 0, 39, 33
2, 56236, Note_on_c, 0, 46, 33
2, 56313, Note_on_c, 0, 55, 33
2, 56398, Note_on_c, 0, 46, 0
2, 56398, Note_on_c, 0, 55, 0
2, 56399, Note_on_c, 0, 39, 0
2, 56400, Note_on_c, 0, 55, 33
2, 56400, Note_on_c, 0, 58, 33
2, 56639, Note_on_c, 0, 55, 0
2, 56639, Note_on_c, 0, 58, 0
2, 56640, Note_on_c, 0, 46, 33
2, 56640, Note_on_c, 0, 55, 33
2, 56879, Note_on_c, 0, 46, 0
2, 56879, Note_on_c, 0, 55, 0
2, 56880, Note_on_c, 0, 38, 33
2, 56956, Note_on_c, 0, 46, 33
2, 57033, Note_on_c, 0, 53, 33
2, 57118, Note_on_c, 0, 46, 0
2, 57118, Note_on_c, 0, 53, 0
2, 57119, Note_on_c, 0, 38, 0
2, 57120, Note_on_c, 0, 46, 33
2, 57120, Note_on_c, 0, 53, 33
2, 57359, Note_on_c, 0, 46, 0
2, 57359, Note_on_c, 0, 53, 0
2, 57360, Note_on_c, 0, 37, 33
2, 57360, Note_on_c, 0, 46, 33
2, 57599, Note_on_c, 0, 37, 0
2, 57599, Note_on_c, 0, 46, 0
2, 57600, Note_on_c, 0, 36, 33
2, 57600, Note_on_c, 0, 43, 33
2, 57600, Note_on_c, 0, 48, 33
2, 57839, Note_on_c, 0, 36, 0
2, 57839, Note_on_c, 0, 43, 0
2, 57839, Note_on_c, 0, 48, 0
2, 57840, Note_on_c, 0, 52, 33
2, 57840, Note_on_c, 0, 58, 33
2, 58079, Note_on_c, 0, 52, 0
2, 58079, Note_on_c, 0, 58, 0
2, 58080, Note_on_c, 0, 36, 33
2, 58080, Note_on_c, 0, 43, 33
2, 58080, Note_on_c, 0, 48, 33
2, 58319, Note_on_c, 0, 36, 0
2, 58319, Note_on_c, 0, 43, 0
2, 58319, Note_on_c, 0, 48, 0
2, 58320, Note_on_c, 0, 41, 33
2, 58320, Note_on_c, 0, 48, 33
2, 58320, Note_on_c, 0, 53, 33
2, 58559, Note_on_c, 0, 41, 0
2, 58559, Note_on_c, 0, 48, 0
2, 58559, Note_on_c, 0, 53, 0
2, 58560, Note_on_c, 0, 53, 33
2, 58560, Note_on_c, 0, 57, 33
2, 58799, Note_on_c, 0, 53, 0
2, 58799, Note_on_c, 0, 57, 0
2, 58800, Note_on_c, 0, 41, 33
2, 58800, Note_on_c, 0, 48, 33
2, 58800, Note_on_c, 0, 53, 33
2, 59039, Note_on_c, 0, 41, 0
2, 59039, Note_on_c, 0, 48, 0
2, 59039, Note_on_c, 0, 53, 0
2, 59040, Note_on_c, 0, 34, 33
2, 59040, Note_on_c, 0, 41, 33
2, 59040, Note_on_c, 0, 46, 33
2, 59279, Note_on_c, 0, 34, 0
2, 59279, Note_on_c, 0, 41, 0
2, 59279, Note_on_c, 0, 46, 0
2, 59280, Note_on_c, 0, 53, 33
2, 59280, Note_on_c, 0, 62, 33
2, 59519, Note_on_c, 0, 53, 0
2, 59519, Note_on_c, 0, 62, 0
2, 59520, Note_on_c, 0, 39, 33
2, 59596, Note_on_c, 0, 46, 33
2, 59673, Note_on_c, 0, 55, 33
2, 59758, Note_on_c, 0, 46, 0
2, 59758, Note_on_c, 0, 55, 0
2, 59759, Note_on_c, 0, 39, 0
2, 59760, Note_on_c, 0, 34, 33
2, 59760, Note_on_c, 0, 41, 33
2, 59760, Note_on_c, 0, 46, 33
2, 59999, Note_on_c, 0, 34, 0
2, 59999, Note_on_c, 0, 41, 0
2, 59999, Note_on_c, 0, 46, 0
2, 60000, Note_on_c, 0, 53, 33
2, 60000, Note_on_c, 0, 62, 33
2, 60239, Note_on_c, 0, 53, 0
2, 60239, Note_on_c, 0, 62, 0
2, 60240, Note_on_c, 0, 39, 33
2, 60316, Note_on_c, 0, 46, 33
2, 60393, Note_on_c, 0, 55, 33
2, 60478, Note_on_c, 0, 46, 0
2, 60478, Note_on_c, 0, 55, 0
2, 60479, Note_on_c, 0, 39, 0
2, 60480, Note_on_c, 0, 34, 33
2, 60480, Note_on_c, 0, 41, 33
2, 60480, Note_on_c, 0, 46, 33
2, 60719, Note_on_c, 0, 34, 0
2, 60719, Note_on_c, 0, 41, 0
2, 60719, Note_on_c, 0, 46, 0
2, 60720, Note_on_c, 0, 53, 33
2, 60959, Note_on_c, 0, 53, 0
2, 61680, Note_on_c, 0, 43, 37
2, 61680, Note_on_c, 0, 50, 37
2, 61680, Note_on_c, 0, 55, 37
2, 61919, Note_on_c, 0, 43, 0
2, 61919, Note_on_c, 0, 50, 0
2, 61919, Note_on_c, 0, 55, 0
2, 61920, Note_on_c, 0, 36, 33
2, 61920, Note_on_c, 0, 43, 33
2, 61920, Note_on_c, 0, 48, 33
2, 62159, Note_on_c, 0, 36, 0
2, 62159, Note_on_c, 0, 43, 0
2, 62159, Note_on_c, 0, 48, 0
2, 62160, Note_on_c, 0, 52, 33
2, 62160, Note_on_c, 0, 55, 33
2, 62160, Note_on_c, 0, 60, 33
2, 62399, Note_on_c, 0, 52, 0
2, 62399, Note_on_c, 0, 55, 0
2, 62399, Note_on_c, 0, 60, 0
2, 62400, Note_on_c, 0, 53, 33
2, 62400, Note_on_c, 0, 56, 33
2, 62400, Note_on_c, 0, 60, 33
2, 62400, Note_on_c, 0, 62, 33
2, 62639, Note_on_c, 0, 53, 0
2, 62639, Note_on_c, 0, 56, 0
2, 62639, Note_on_c, 0, 60, 0
2, 62639, Note_on_c, 0, 62, 0
2, 62640, Note_on_c, 0, 36, 33
2, 62640, Note_on_c, 0, 43, 33
2, 62640, Note_on_c, 0, 48, 33
2, 62879, Note_on_c, 0, 36, 0
2, 62879, Note_on_c, 0, 43, 0
2, 62879, Note_on_c, 0, 48, 0
2, 62880, Note_on_c, 0, 52, 33
2, 62880, Note_on_c, 0, 55, 33
2, 62880, Note_on_c, 0, 60, 33
2, 63119, Note_on_c, 0, 52, 0
2, 63119, Note_on_c, 0, 55, 0
2, 63119, Note_on_c, 0, 60, 0
2, 63120, Note_on_c, 0, 53, 33
2, 63120, Note_on_c, 0, 56, 33
2, 63120, Note_on_c, 0, 60, 33
2, 63120, Note_on_c, 0, 62, 33
2, 63359, Note_on_c, 0, 53, 0
2, 63359, Note_on_c, 0, 56, 0
2, 63359, Note_on_c, 0, 60, 0
2, 63359, Note_on_c, 0, 62, 0
2, 63360, Note_on_c, 0, 36, 33
2, 63360, Note_on_c, 0, 43, 33
2, 63360, Note_on_c, 0, 48, 33
2, 63599, Note_on_c, 0, 36, 0
2, 63599, Note_on_c, 0, 43, 0
2, 63599, Note_on_c, 0, 48, 0
2, 63600, Note_on_c, 0, 52, 33
2, 63600, Note_on_c, 0, 55, 33
2, 63600, Note_on_c, 0, 60, 33
2, 63839, Note_on_c, 0, 52, 0
2, 63839, Note_on_c, 0, 55, 0
2, 63839, Note_on_c, 0, 60, 0
2, 64560, Note_on_c, 0, 45, 33
2, 64560, Note_on_c, 0, 52, 33
2, 64560, Note_on_c, 0, 57, 33
2, 64799, Note_on_c, 0, 45, 0
2, 64799, Note_on_c, 0, 52, 0
2, 64799, Note_on_c, 0, 57, 0
2, 64800, Note_on_c, 0, 38, 33
2, 64800, Note_on_c, 0, 45, 33
2, 64800, Note_on_c, 0, 50, 33
2, 65039, Note_on_c, 0, 38, 0
2, 65039, Note_on_c, 0, 45, 0
2, 65039, Note_on_c, 0, 50, 0
2, 65040, Note_on_c, 0, 54, 33
2, 65040, Note_on_c, 0, 57, 33
2, 65040, Note_on_c, 0, 62, 33
2, 65279, Note_on_c, 0, 54, 0
2, 65279, Note_on_c, 0, 57, 0
2, 65279, Note_on_c, 0, 62, 0
2, 65280, Note_on_c, 0, 55, 33
2, 65280, Note_on_c, 0, 58, 33
2, 65280, Note_on_c, 0, 62, 33
2, 65280, Note_on_c, 0, 64, 33
2, 65519, Note_on_c, 0, 55, 0
2, 65519, Note_on_c, 0, 58, 0
2, 65519, Note_on_c, 0, 62, 0
2, 65519, Note_on_c, 0, 64, 0
2, 65520, Note_on_c, 0, 38, 33
2, 65520, Note_on_c, 0, 45, 33
2, 65520, Note_on_c, 0, 50, 33
2, 65759, Note_on_c, 0, 38, 0
2, 65759, Note_on_c, 0, 45, 0
2, 65759, Note_on_c, 0, 50, 0
2, 65760, Note_on_c, 0, 54, 33
2, 65760, Note_on_c, 0, 57, 33
2, 65760, Note_on_c, 0, 62, 33
2, 65999, Note_on_c, 0, 54, 0
2, 65999, Note_on_c, 0, 57, 0
2, 65999, Note_on_c, 0, 62, 0
2, 66000, Note_on_c, 0, 55, 33
2, 66000, Note_on_c, 0, 58, 33
2, 66000, Note_on_c, 0, 62, 33
2, 66000, Note_on_c, 0, 64, 33
2, 66239, Note_on_c, 0, 55, 0
2, 66239, Note_on_c, 0, 58, 0
2, 66239, Note_on_c, 0, 62, 0
2, 66239, Note_on_c, 0, 64, 0
2, 66240, Note_on_c, 0, 38, 33
2, 66240, Note_on_c, 0, 45, 33
2, 66240, Note_on_c, 0, 50, 33
2, 66479, Note_on_c, 0, 38, 0
2, 66479, Note_on_c, 0, 45, 0
2, 66479, Note_on_c, 0, 50, 0
2, 66480, Note_on_c, 0, 54, 33
2, 66480, Note_on_c, 0, 57, 33
2, 66480, Note_on_c, 0, 62, 33
2, 66719, Note_on_c, 0, 54, 0
2, 66719, Note_on_c, 0, 57, 0
2, 66719, Note_on_c, 0, 62, 0
2, 70560, Note_on_c, 0, 55, 33
2, 70560, Note_on_c, 0, 58, 33
2, 70560, Note_on_c, 0, 62, 33
2, 70560, Note_on_c, 0, 67, 33
2, 70679, Note_on_c, 0, 55, 0
2, 70679, Note_on_c, 0, 58, 0
2, 70679, Note_on_c, 0, 62, 0
2, 70679, Note_on_c, 0, 67, 0
2, 70800, Note_on_c, 0, 67, 33
2, 70800, Note_on_c, 0, 72, 33
2, 70800, Note_on_c, 0, 74, 33
2, 70919, Note_on_c, 0, 67, 0
2, 70919, Note_on_c, 0, 72, 0
2, 70919, Note_on_c, 0, 74, 0
2, 70920, Note_on_c, 0, 79, 33
2, 71039, Note_on_c, 0, 79, 0
2, 71040, Note_on_c, 0, 67, 33
2, 71040, Note_on_c, 0, 72, 33
2, 71040, Note_on_c, 0, 74, 33
2, 71159, Note_on_c, 0, 67, 0
2, 71159, Note_on_c, 0, 72, 0
2, 71159, Note_on_c, 0, 74, 0
2, 71160, Note_on_c, 0, 78, 33
2, 71279, Note_on_c, 0, 78, 0
2, 71280, Note_on_c, 0, 67, 33
2, 71280, Note_on_c, 0, 70, 33
2, 71280, Note_on_c, 0, 74, 33
2, 71399, Note_on_c, 0, 67, 0
2, 71399, Note_on_c, 0, 70, 0
2, 71399, Note_on_c, 0, 74, 0
2, 71520, Note_on_c, 0, 70, 33
2, 71520, Note_on_c, 0, 74, 33
2, 71639, Note_on_c, 0, 70, 0
2, 71639, Note_on_c, 0, 74, 0
2, 71760, Note_on_c, 0, 67, 33
2, 71760, Note_on_c, 0, 70, 33
2, 71879, Note_on_c, 0, 67, 0
2, 71879, Note_on_c, 0, 70, 0
2, 72000, Note_on_c, 0, 55, 33
2, 72000, Note_on_c, 0, 58, 33
2, 72000, Note_on_c, 0, 62, 33
2, 72000, Note_on_c, 0, 67, 33
2, 72119, Note_on_c, 0, 55, 0
2, 72119, Note_on_c, 0, 58, 0
2, 72119, Note_on_c, 0, 62, 0
2, 72119, Note_on_c, 0, 67, 0
2, 72240, Note_on_c, 0, 62, 33
2, 72359, Note_on_c, 0, 62, 0
2, 72360, Note_on_c, 0, 70, 33
2, 72479, Note_on_c, 0, 70, 0
2, 72480, Note_on_c, 0, 62, 33
2, 72599, Note_on_c, 0, 62, 0
2, 72600, Note_on_c, 0, 69, 33
2, 72719, Note_on_c, 0, 69, 0
2, 72720, Note_on_c, 0, 67, 33
2, 72720, Note_on_c, 0, 70, 33
2, 72839, Note_on_c, 0, 67, 0
2, 72839, Note_on_c, 0, 70, 0
2, 72960, Note_on_c, 0, 67, 33
2, 73079, Note_on_c, 0, 67, 0
2, 73200, Note_on_c, 0, 62, 33
2, 73319, Note_on_c, 0, 62, 0
2, 73440, Note_on_c, 0, 62, 33
2, 73440, Note_on_c, 0, 55, 33
2, 73559, Note_on_c, 0, 62, 0
2, 73680, Note_on_c, 0, 60, 33
2, 73799, Note_on_c, 0, 60, 0
2, 73800, Note_on_c, 0, 62, 33
2, 73919, Note_on_c, 0, 62, 0
2, 73920, Note_on_c, 0, 60, 33
2, 74039, Note_on_c, 0, 60, 0
2, 74040, Note_on_c, 0, 62, 33
2, 74159, Note_on_c, 0, 62, 0
2, 74160, Note_on_c, 0, 58, 33
2, 74160, Note_on_c, 0, 62, 33
2, 74279, Note_on_c, 0, 58, 0
2, 74279, Note_on_c, 0, 62, 0
2, 74399, Note_on_c, 0, 55, 0
2, 74400, Note_on_c, 0, 60, 33
2, 74400, Note_on_c, 0, 55, 33
2, 74519, Note_on_c, 0, 60, 0
2, 74520, Note_on_c, 0, 62, 33
2, 74639, Note_on_c, 0, 62, 0
2, 74640, Note_on_c, 0, 60, 33
2, 74759, Note_on_c, 0, 60, 0
2, 74760, Note_on_c, 0, 62, 33
2, 74879, Note_on_c, 0, 62, 0
2, 74880, Note_on_c, 0, 58, 33
2, 74880, Note_on_c, 0, 62, 33
2, 74999, Note_on_c, 0, 58, 0
2, 74999, Note_on_c, 0, 62, 0
2, 75119, Note_on_c, 0, 55, 0
2, 75120, Note_on_c, 0, 60, 33
2, 75120, Note_on_c, 0, 55, 33
2, 75239, Note_on_c, 0, 60, 0
2, 75240, Note_on_c, 0, 62, 33
2, 75359, Note_on_c, 0, 62, 0
2, 75360, Note_on_c, 0, 60, 33
2, 75479, Note_on_c, 0, 60, 0
2, 75480, Note_on_c, 0, 62, 33
2, 75599, Note_on_c, 0, 62, 0
2, 75600, Note_on_c, 0, 58, 33
2, 75600, Note_on_c, 0, 62, 33
2, 75719, Note_on_c, 0, 58, 0
2, 75719, Note_on_c, 0, 62, 0
2, 75839, Note_on_c, 0, 55, 0
2, 75840, Note_on_c, 0, 62, 33
2, 75840, Note_on_c, 0, 67, 33
2, 75959, Note_on_c, 0, 62, 0
2, 75959, Note_on_c, 0, 67, 0
2, 75960, Note_on_c, 0, 69, 33
2, 76079, Note_on_c, 0, 69, 0
2, 76080, Note_on_c, 0, 67, 33
2, 76080, Note_on_c, 0, 70, 33
2, 76199, Note_on_c, 0, 67, 0
2, 76199, Note_on_c, 0, 70, 0
2, 76320, Note_on_c, 0, 50, 33
2, 76320, Note_on_c, 0, 53, 33
2, 76320, Note_on_c, 0, 57, 33
2, 76320, Note_on_c, 0, 62, 33
2, 76439, Note_on_c, 0, 50, 0
2, 76439, Note_on_c, 0, 53, 0
2, 76439, Note_on_c, 0, 57, 0
2, 76439, Note_on_c, 0, 62, 0
2, 76560, Note_on_c, 0, 62, 33
2, 76560, Note_on_c, 0, 67, 33
2, 76560, Note_on_c, 0, 69, 33
2, 76679, Note_on_c, 0, 62, 0
2, 76679, Note_on_c, 0, 67, 0
2, 76679, Note_on_c, 0, 69, 0
2, 76680, Note_on_c, 0, 74, 33
2, 76799, Note_on_c, 0, 74, 0
2, 76800, Note_on_c, 0, 62, 33
2, 76800, Note_on_c, 0, 67, 33
2, 76800, Note_on_c, 0, 69, 33
2, 76919, Note_on_c, 0, 62, 0
2, 76919, Note_on_c, 0, 67, 0
2, 76919, Note_on_c, 0, 69, 0
2, 76920, Note_on_c, 0, 73, 33
2, 77039, Note_on_c, 0, 73, 0
2, 77040, Note_on_c, 0, 62, 33
2, 77040, Note_on_c, 0, 65, 33
2, 77040, Note_on_c, 0, 69, 33
2, 77159, Note_on_c, 0, 62, 0
2, 77159, Note_on_c, 0, 65, 0
2, 77159, Note_on_c, 0, 69, 0
2, 77280, Note_on_c, 0, 65, 33
2, 77280, Note_on_c, 0, 69, 33
2, 77280, Note_on_c, 0, 74, 33
2, 77399, Note_on_c, 0, 65, 0
2, 77399, Note_on_c, 0, 69, 0
2, 77399, Note_on_c, 0, 74, 0
2, 77520, Note_on_c, 0, 62, 33
2, 77520, Note_on_c, 0, 65, 33
2, 77520, Note_on_c, 0, 69, 33
2, 77639, Note_on_c, 0, 62, 0
2, 77639, Note_on_c, 0, 65, 0
2, 77639, Note_on_c, 0, 69, 0
2, 77760, Note_on_c, 0, 69, 33
2, 77760, Note_on_c, 0, 74, 33
2, 77760, Note_on_c, 0, 77, 33
2, 77879, Note_on_c, 0, 69, 0
2, 77879, Note_on_c, 0, 74, 0
2, 77879, Note_on_c, 0, 77, 0
2, 78000, Note_on_c, 0, 50, 33
2, 78000, Note_on_c, 0, 57, 33
2, 78119, Note_on_c, 0, 50, 0
2, 78119, Note_on_c, 0, 57, 0
2, 78120, Note_on_c, 0, 65, 33
2, 78239, Note_on_c, 0, 65, 0
2, 78240, Note_on_c, 0, 50, 33
2, 78240, Note_on_c, 0, 57, 33
2, 78359, Note_on_c, 0, 50, 0
2, 78359, Note_on_c, 0, 57, 0
2, 78360, Note_on_c, 0, 64, 33
2, 78479, Note_on_c, 0, 64, 0
2, 78480, Note_on_c, 0, 50, 33
2, 78480, Note_on_c, 0, 57, 33
2, 78599, Note_on_c, 0, 50, 0
2, 78599, Note_on_c, 0, 57, 0
2, 78720, Note_on_c, 0, 69, 33
2, 78839, Note_on_c, 0, 69, 0
2, 78960, Note_on_c, 0, 65, 33
2, 79079, Note_on_c, 0, 65, 0
2, 79200, Note_on_c, 0, 62, 33
2, 79200, Note_on_c, 0, 65, 33
2, 79200, Note_on_c, 0, 69, 33
2, 79319, Note_on_c, 0, 62, 0
2, 79319, Note_on_c, 0, 65, 0
2, 79319, Note_on_c, 0, 69, 0
2, 79440, Note_on_c, 0, 55, 33
2, 79440, Note_on_c, 0, 50, 33
2, 79559, Note_on_c, 0, 55, 0
2, 79560, Note_on_c, 0, 57, 33
2, 79679, Note_on_c, 0, 57, 0
2, 79680, Note_on_c, 0, 55, 33
2, 79799, Note_on_c, 0, 55, 0
2, 79800, Note_on_c, 0, 57, 33
2, 79919, Note_on_c, 0, 57, 0
2, 79920, Note_on_c, 0, 53, 33
2, 79920, Note_on_c, 0, 57, 33
2, 80039, Note_on_c, 0, 53, 0
2, 80039, Note_on_c, 0, 57, 0
2, 80159, Note_on_c, 0, 50, 0
2, 80160, Note_on_c, 0, 55, 33
2, 80160, Note_on_c, 0, 50, 33
2, 80279, Note_on_c, 0, 55, 0
2, 80280, Note_on_c, 0, 57, 33
2, 80399, Note_on_c, 0, 57, 0
2, 80400, Note_on_c, 0, 55, 33
2, 80519, Note_on_c, 0, 55, 0
2, 80520, Note_on_c, 0, 57, 33
2, 80639, Note_on_c, 0, 57, 0
2, 80640, Note_on_c, 0, 53, 33
2, 80640, Note_on_c, 0, 57, 33
2, 80759, Note_on_c, 0, 53, 0
2, 80759, Note_on_c, 0, 57, 0
2, 80879, Note_on_c, 0, 50, 0
2, 80880, Note_on_c, 0, 55, 33
2, 80880, Note_on_c, 0, 50, 33
2, 80999, Note_on_c, 0, 55, 0
2, 81000, Note_on_c, 0, 57, 33
2, 81119, Note_on_c, 0, 57, 0
2, 81120, Note_on_c, 0, 55, 33
2, 81239, Note_on_c, 0, 55, 0
2, 81240, Note_on_c, 0, 57, 33
2, 81359, Note_on_c, 0, 57, 0
2, 81360, Note_on_c, 0, 53, 33
2, 81360, Note_on_c, 0, 57, 33
2, 81479, Note_on_c, 0, 53, 0
2, 81479, Note_on_c, 0, 57, 0
2, 81599, Note_on_c, 0, 50, 0
2, 81600, Note_on_c, 0, 62, 33
2, 81600, Note_on_c, 0, 57, 33
2, 81719, Note_on_c, 0, 62, 0
2, 81720, Note_on_c, 0, 64, 33
2, 81839, Note_on_c, 0, 57, 0
2, 81839, Note_on_c, 0, 64, 0
2, 81840, Note_on_c, 0, 65, 33
2, 81840, Note_on_c, 0, 62, 33
2, 82079, Note_on_c, 0, 65, 0
2, 82079, Note_on_c, 0, 62, 0
2, 82080, Note_on_c, 0, 57, 33
2, 82080, Note_on_c, 0, 61, 33
2, 82080, Note_on_c, 0, 64, 33
2, 82319, Note_on_c, 0, 57, 0
2, 82319, Note_on_c, 0, 61, 0
2, 82319, Note_on_c, 0, 64, 0
2, 82320, Note_on_c, 0, 40, 49
2, 82439, Note_on_c, 0, 40, 0
2, 82440, Note_on_c, 0, 38, 49
2, 82559, Note_on_c, 0, 38, 0
2, 82560, Note_on_c, 0, 40, 49
2, 82679, Note_on_c, 0, 40, 0
2, 82680, Note_on_c, 0, 37, 49
2, 82799, Note_on_c, 0, 37, 0
2, 82800, Note_on_c, 0, 40, 49
2, 83039, Note_on_c, 0, 40, 0
2, 83040, Note_on_c, 0, 37, 50
2, 83040, Note_on_c, 0, 49, 50
2, 83159, Note_on_c, 0, 37, 0
2, 83159, Note_on_c, 0, 49, 0
2, 83280, Note_on_c, 0, 33, 52
2, 83280, Note_on_c, 0, 45, 52
2, 83399, Note_on_c, 0, 33, 0
2, 83399, Note_on_c, 0, 45, 0
2, 83520, Note_on_c, 0, 57, 54
2, 83520, Note_on_c, 0, 58, 54
2, 83760, Note_on_c, 0, 58, 0
2, 83760, Note_on_c, 0, 41, 57
2, 83879, Note_on_c, 0, 41, 0
2, 83880, Note_on_c, 0, 40, 58
2, 83999, Note_on_c, 0, 40, 0
2, 84000, Note_on_c, 0, 41, 59
2, 84119, Note_on_c, 0, 41, 0
2, 84120, Note_on_c, 0, 38, 60
2, 84239, Note_on_c, 0, 57, 0
2, 84239, Note_on_c, 0, 38, 0
2, 84240, Note_on_c, 0, 41, 61
2, 84479, Note_on_c, 0, 41, 0
2, 84480, Note_on_c, 0, 38, 63
2, 84480, Note_on_c, 0, 50, 63
2, 84599, Note_on_c, 0, 38, 0
2, 84599, Note_on_c, 0, 50, 0
2, 84720, Note_on_c, 0, 33, 66
2, 84720, Note_on_c, 0, 45, 66
2, 84839, Note_on_c, 0, 33, 0
2, 84839, Note_on_c, 0, 45, 0
2, 84960, Note_on_c, 0, 57, 68
2, 84960, Note_on_c, 0, 59, 68
2, 85200, Note_on_c, 0, 59, 0
2, 85200, Note_on_c, 0, 41, 70
2, 85319, Note_on_c, 0, 41, 0
2, 85320, Note_on_c, 0, 40, 71
2, 85439, Note_on_c, 0, 40, 0
2, 85440, Note_on_c, 0, 41, 73
2, 85559, Note_on_c, 0, 41, 0
2, 85560, Note_on_c, 0, 38, 74
2, 85679, Note_on_c, 0, 57, 0
2, 85679, Note_on_c, 0, 38, 0
2, 85680, Note_on_c, 0, 41, 75
2, 85919, Note_on_c, 0, 41, 0
2, 85920, Note_on_c, 0, 38, 77
2, 85920, Note_on_c, 0, 50, 77
2, 86039, Note_on_c, 0, 38, 0
2, 86039, Note_on_c, 0, 50, 0
2, 86160, Note_on_c, 0, 33, 79
2, 86160, Note_on_c, 0, 45, 79
2, 86279, Note_on_c, 0, 33, 0
2, 86279, Note_on_c, 0, 45, 0
2, 86400, Note_on_c, 0, 57, 82
2, 86400, Note_on_c, 0, 60, 82
2, 86640, Note_on_c, 0, 60, 0
2, 86640, Note_on_c, 0, 43, 84
2, 86759, Note_on_c, 0, 43, 0
2, 86760, Note_on_c, 0, 41, 85
2, 86879, Note_on_c, 0, 41, 0
2, 86880, Note_on_c, 0, 43, 86
2, 86999, Note_on_c, 0, 43, 0
2, 87000, Note_on_c, 0, 40, 87
2, 87119, Note_on_c, 0, 57, 0
2, 87119, Note_on_c, 0, 40, 0
2, 87120, Note_on_c, 0, 43, 89
2, 87359, Note_on_c, 0, 43, 0
2, 87360, Note_on_c, 0, 40, 91
2, 87360, Note_on_c, 0, 52, 91
2, 87479, Note_on_c, 0, 40, 0
2, 87479, Note_on_c, 0, 52, 0
2, 87600, Note_on_c, 0, 33, 93
2, 87600, Note_on_c, 0, 45, 93
2, 87719, Note_on_c, 0, 33, 0
2, 87719, Note_on_c, 0, 45, 0
2, 87840, Note_on_c, 0, 57, 96
2, 87840, Note_on_c, 0, 58, 96
2, 87840, Note_on_c, 0, 61, 96
2, 88080, Note_on_c, 0, 40, 96
2, 88080, Note_on_c, 0, 52, 96
2, 88199, Note_on_c, 0, 40, 0
2, 88199, Note_on_c, 0, 52, 0
2, 88320, Note_on_c, 0, 33, 96
2, 88320, Note_on_c, 0, 45, 96
2, 88439, Note_on_c, 0, 33, 0
2, 88439, Note_on_c, 0, 45, 0
2, 88559, Note_on_c, 0, 57, 0
2, 88559, Note_on_c, 0, 58, 0
2, 88559, Note_on_c, 0, 61, 0
2, 88560, Note_on_c, 0, 57, 96
2, 88560, Note_on_c, 0, 59, 96
2, 88560, Note_on_c, 0, 62, 96
2, 88800, Note_on_c, 0, 41, 96
2, 88800, Note_on_c, 0, 53, 96
2, 88919, Note_on_c, 0, 41, 0
2, 88919, Note_on_c, 0, 53, 0
2, 89040, Note_on_c, 0, 33, 96
2, 89040, Note_on_c, 0, 45, 96
2, 89159, Note_on_c, 0, 33, 0
2, 89159, Note_on_c, 0, 45, 0
2, 89279, Note_on_c, 0, 57, 0
2, 89279, Note_on_c, 0, 59, 0
2, 89279, Note_on_c, 0, 62, 0
2, 89280, Note_on_c, 0, 57, 96
2, 89280, Note_on_c, 0, 60, 96
2, 89280, Note_on_c, 0, 63, 96
2, 89520, Note_on_c, 0, 42, 96
2, 89520, Note_on_c, 0, 54, 96
2, 89639, Note_on_c, 0, 42, 0
2, 89639, Note_on_c, 0, 54, 0
2, 89760, Note_on_c, 0, 33, 96
2, 89760, Note_on_c, 0, 45, 96
2, 89879, Note_on_c, 0, 33, 0
2, 89879, Note_on_c, 0, 45, 0
2, 89999, Note_on_c, 0, 57, 0
2, 89999, Note_on_c, 0, 60, 0
2, 89999, Note_on_c, 0, 63, 0
2, 90000, Note_on_c, 0, 57, 96
2, 90000, Note_on_c, 0, 61, 96
2, 90000, Note_on_c, 0, 64, 96
2, 90240, Note_on_c, 0, 43, 96
2, 90240, Note_on_c, 0, 55, 96
2, 90359, Note_on_c, 0, 43, 0
2, 90359, Note_on_c, 0, 55, 0
2, 90480, Note_on_c, 0, 33, 96
2, 90480, Note_on_c, 0, 45, 96
2, 90599, Note_on_c, 0, 33, 0
2, 90599, Note_on_c, 0, 45, 0
2, 90719, Note_on_c, 0, 57, 0
2, 90719, Note_on_c, 0, 61, 0
2, 90719, Note_on_c, 0, 64, 0
2, 90720, Note_on_c, 0, 53, 96
2, 90720, Note_on_c, 0, 57, 96
2, 90720, Note_on_c, 0, 62, 96
2, 90720, Note_on_c, 0, 65, 96
2, 90959, Note_on_c, 0, 53, 0
2, 90959, Note_on_c, 0, 57, 0
2, 90959, Note_on_c, 0, 62, 0
2, 90959, Note_on_c, 0, 65, 0
2, 90960, Note_on_c, 0, 54, 96
2, 90960, Note_on_c, 0, 57, 96
2, 90960, Note_on_c, 0, 63, 96
2, 90960, Note_on_c, 0, 66, 96
2, 91199, Note_on_c, 0, 54, 0
2, 91199, Note_on_c, 0, 57, 0
2, 91199, Note_on_c, 0, 63, 0
2, 91199, Note_on_c, 0, 66, 0
2, 91200, Note_on_c, 0, 55, 96
2, 91200, Note_on_c, 0, 57, 96
2, 91200, Note_on_c, 0, 64, 96
2, 91200, Note_on_c, 0, 67, 96
2, 91439, Note_on_c, 0, 55, 0
2, 91439, Note_on_c, 0, 57, 0
2, 91439, Note_on_c, 0, 64, 0
2, 91439, Note_on_c, 0, 67, 0
2, 91440, Note_on_c, 0, 58, 96
2, 91440, Note_on_c, 0, 67, 96
2, 91440, Note_on_c, 0, 70, 96
2, 91679, Note_on_c, 0, 58, 0
2, 91679, Note_on_c, 0, 67, 0
2, 91679, Note_on_c, 0, 70, 0
2, 91680, Note_on_c, 0, 57, 96
2, 91680, Note_on_c, 0, 66, 96
2, 91680, Note_on_c, 0, 69, 96
2, 91919, Note_on_c, 0, 57, 0
2, 91919, Note_on_c, 0, 66, 0
2, 91919, Note_on_c, 0, 69, 0
2, 91920, Note_on_c, 0, 61, 96
2, 91920, Note_on_c, 0, 67, 96
2, 91920, Note_on_c, 0, 69, 96
2, 91920, Note_on_c, 0, 73, 96
2, 92159, Note_on_c, 0, 61, 0
2, 92159, Note_on_c, 0, 67, 0
2, 92159, Note_on_c, 0, 69, 0
2, 92159, Note_on_c, 0, 73, 0
2, 92160, Note_on_c, 0, 62, 96
2, 92160, Note_on_c, 0, 66, 96
2, 92160, Note_on_c, 0, 69, 96
2, 92160, Note_on_c, 0, 74, 96
2, 92399, Note_on_c, 0, 62, 0
2, 92399, Note_on_c, 0, 66, 0
2, 92399, Note_on_c, 0, 69, 0
2, 92399, Note_on_c, 0, 74, 0
2, 92400, Note_on_c, 0, 78, 49
2, 92519, Note_on_c, 0, 78, 0
2, 92640, Note_on_c, 0, 79, 49
2, 92759, Note_on_c, 0, 79, 0
2, 92880, Note_on_c, 0, 72, 49
2, 92999, Note_on_c, 0, 72, 0
2, 93120, Note_on_c, 0, 70, 49
2, 93239, Note_on_c, 0, 70, 0
2, 93360, Note_on_c, 0, 69, 49
2, 93479, Note_on_c, 0, 69, 0
2, 93600, Note_on_c, 0, 66, 49
2, 93719, Note_on_c, 0, 66, 0
2, 93840, Note_on_c, 0, 73, 49
2, 93959, Note_on_c, 0, 73, 0
2, 94080, Note_on_c, 0, 74, 49
2, 94199, Note_on_c, 0, 74, 0
2, 94320, Note_on_c, 0, 70, 49
2, 94439, Note_on_c, 0, 70, 0
2, 94560, Note_on_c, 0, 69, 49
2, 94679, Note_on_c, 0, 69, 0
2, 94800, Note_on_c, 0, 67, 49
2, 94919, Note_on_c, 0, 67, 0
2, 95040, Note_on_c, 0, 66, 49
2, 95159, Note_on_c, 0, 66, 0
2, 95280, Note_on_c, 0, 54, 49
2, 95399, Note_on_c, 0, 54, 0
2, 95520, Note_on_c, 0, 55, 49
2, 95639, Note_on_c, 0, 55, 0
2, 95760, Note_on_c, 0, 57, 49
2, 95879, Note_on_c, 0, 57, 0
2, 96000, Note_on_c, 0, 58, 49
2, 96119, Note_on_c, 0, 58, 0
2, 96240, Note_on_c, 0, 67, 49
2, 96359, Note_on_c, 0, 67, 0
2, 96600, Note_on_c, 0, 57, 49
2, 96719, Note_on_c, 0, 57, 0
2, 96720, Note_on_c, 0, 55, 49
2, 96839, Note_on_c, 0, 55, 0
2, 96840, Note_on_c, 0, 58, 49
2, 96959, Note_on_c, 0, 58, 0
2, 96960, Note_on_c, 0, 57, 49
2, 97079, Note_on_c, 0, 57, 0
2, 97080, Note_on_c, 0, 54, 49
2, 97199, Note_on_c, 0, 54, 0
2, 97200, Note_on_c, 0, 52, 49
2, 97319, Note_on_c, 0, 52, 0
2, 97320, Note_on_c, 0, 55, 49
2, 97439, Note_on_c, 0, 55, 0
2, 97440, Note_on_c, 0, 54, 49
2, 97559, Note_on_c, 0, 54, 0
2, 97560, Note_on_c, 0, 50, 49
2, 97679, Note_on_c, 0, 50, 0
2, 97680, Note_on_c, 0, 49, 49
2, 97799, Note_on_c, 0, 49, 0
2, 97800, Note_on_c, 0, 52, 49
2, 97919, Note_on_c, 0, 52, 0
2, 97920, Note_on_c, 0, 38, 49
2, 97920, Note_on_c, 0, 50, 49
2, 98159, Note_on_c, 0, 38, 0
2, 98159, Note_on_c, 0, 50, 0
2, 98160, Note_on_c, 0, 33, 49
2, 98160, Note_on_c, 0, 45, 49
2, 98279, Note_on_c, 0, 33, 0
2, 98279, Note_on_c, 0, 45, 0
2, 98280, Note_on_c, 0, 43, 49
2, 98399, Note_on_c, 0, 43, 0
2, 98400, Note_on_c, 0, 33, 49
2, 98400, Note_on_c, 0, 45, 49
2, 98519, Note_on_c, 0, 33, 0
2, 98519, Note_on_c, 0, 45, 0
2, 98520, Note_on_c, 0, 42, 49
2, 98639, Note_on_c, 0, 42, 0
2, 98640, Note_on_c, 0, 33, 49
2, 98640, Note_on_c, 0, 45, 49
2, 98879, Note_on_c, 0, 33, 0
2, 98879, Note_on_c, 0, 45, 0
2, 98880, Note_on_c, 0, 30, 49
2, 98880, Note_on_c, 0, 42, 49
2, 98999, Note_on_c, 0, 30, 0
2, 98999, Note_on_c, 0, 42, 0
2, 99120, Note_on_c, 0, 26, 49
2, 99120, Note_on_c, 0, 38, 49
2, 99239, Note_on_c, 0, 26, 0
2, 99239, Note_on_c, 0, 38, 0
2, 99360, Note_on_c, 0, 55, 49
2, 99360, Note_on_c, 0, 62, 49
2, 99600, Note_on_c, 0, 34, 51
2, 99600, Note_on_c, 0, 46, 51
2, 99719, Note_on_c, 0, 34, 0
2, 99719, Note_on_c, 0, 46, 0
2, 99720, Note_on_c, 0, 45, 52
2, 99839, Note_on_c, 0, 45, 0
2, 99840, Note_on_c, 0, 34, 54
2, 99840, Note_on_c, 0, 46, 54
2, 99959, Note_on_c, 0, 34, 0
2, 99959, Note_on_c, 0, 46, 0
2, 99960, Note_on_c, 0, 43, 55
2, 100079, Note_on_c, 0, 55, 0
2, 100079, Note_on_c, 0, 62, 0
2, 100079, Note_on_c, 0, 43, 0
2, 100080, Note_on_c, 0, 34, 56
2, 100080, Note_on_c, 0, 46, 56
2, 100319, Note_on_c, 0, 34, 0
2, 100319, Note_on_c, 0, 46, 0
2, 100320, Note_on_c, 0, 31, 59
2, 100320, Note_on_c, 0, 43, 59
2, 100439, Note_on_c, 0, 31, 0
2, 100439, Note_on_c, 0, 43, 0
2, 100560, Note_on_c, 0, 26, 62
2, 100560, Note_on_c, 0, 38, 62
2, 100679, Note_on_c, 0, 26, 0
2, 100679, Note_on_c, 0, 38, 0
2, 100800, Note_on_c, 0, 52, 64
2, 100800, Note_on_c, 0, 62, 64
2, 101040, Note_on_c, 0, 34, 67
2, 101040, Note_on_c, 0, 46, 67
2, 101159, Note_on_c, 0, 34, 0
2, 101159, Note_on_c, 0, 46, 0
2, 101160, Note_on_c, 0, 52, 0
2, 101160, Note_on_c, 0, 45, 68
2, 101279, Note_on_c, 0, 45, 0
2, 101280, Note_on_c, 0, 34, 69
2, 101280, Note_on_c, 0, 46, 69
2, 101399, Note_on_c, 0, 34, 0
2, 101399, Note_on_c, 0, 46, 0
2, 101400, Note_on_c, 0, 43, 71
2, 101519, Note_on_c, 0, 62, 0
2, 101519, Note_on_c, 0, 43, 0
2, 101520, Note_on_c, 0, 34, 72
2, 101520, Note_on_c, 0, 46, 72
2, 101759, Note_on_c, 0, 34, 0
2, 101759, Note_on_c, 0, 46, 0
2, 101760, Note_on_c, 0, 31, 75
2, 101760, Note_on_c, 0, 43, 75
2, 101879, Note_on_c, 0, 31, 0
2, 101879, Note_on_c, 0, 43, 0
2, 102000, Note_on_c, 0, 26, 77
2, 102000, Note_on_c, 0, 38, 77
2, 102119, Note_on_c, 0, 26, 0
2, 102119, Note_on_c, 0, 38, 0
2, 102240, Note_on_c, 0, 50, 80
2, 102240, Note_on_c, 0, 53, 80
2, 102240, Note_on_c, 0, 62, 80
2, 102480, Note_on_c, 0, 36, 82
2, 102480, Note_on_c, 0, 48, 82
2, 102599, Note_on_c, 0, 36, 0
2, 102599, Note_on_c, 0, 48, 0
2, 102600, Note_on_c, 0, 53, 0
2, 102600, Note_on_c, 0, 46, 84
2, 102719, Note_on_c, 0, 46, 0
2, 102720, Note_on_c, 0, 36, 85
2, 102720, Note_on_c, 0, 48, 85
2, 102839, Note_on_c, 0, 36, 0
2, 102839, Note_on_c, 0, 48, 0
2, 102840, Note_on_c, 0, 45, 86
2, 102959, Note_on_c, 0, 50, 0
2, 102959, Note_on_c, 0, 62, 0
2, 102959, Note_on_c, 0, 45, 0
2, 102960, Note_on_c, 0, 36, 88
2, 102960, Note_on_c, 0, 48, 88
2, 103199, Note_on_c, 0, 36, 0
2, 103199, Note_on_c, 0, 48, 0
2, 103200, Note_on_c, 0, 33, 90
2, 103200, Note_on_c, 0, 45, 90
2, 103319, Note_on_c, 0, 33, 0
2, 103319, Note_on_c, 0, 45, 0
2, 103440, Note_on_c, 0, 26, 93
2, 103440, Note_on_c, 0, 38, 93
2, 103559, Note_on_c, 0, 26, 0
2, 103559, Note_on_c, 0, 38, 0
2, 103680, Note_on_c, 0, 51, 96
2, 103680, Note_on_c, 0, 54, 96
2, 103680, Note_on_c, 0, 62, 96
2, 103920, Note_on_c, 0, 45, 97
2, 103920, Note_on_c, 0, 57, 97
2, 104039, Note_on_c, 0, 45, 0
2, 104039, Note_on_c, 0, 57, 0
2, 104160, Note_on_c, 0, 38, 98
2, 104160, Note_on_c, 0, 50, 98
2, 104279, Note_on_c, 0, 38, 0
2, 104279, Note_on_c, 0, 50, 0
2, 104399, Note_on_c, 0, 51, 0
2, 104399, Note_on_c, 0, 54, 0
2, 104399, Note_on_c, 0, 62, 0
2, 104400, Note_on_c, 0, 52, 100
2, 104400, Note_on_c, 0, 55, 100
2, 104400, Note_on_c, 0, 62, 100
2, 104640, Note_on_c, 0, 46, 101
2, 104640, Note_on_c, 0, 58, 101
2, 104759, Note_on_c, 0, 46, 0
2, 104759, Note_on_c, 0, 58, 0
2, 104880, Note_on_c, 0, 38, 102
2, 104880, Note_on_c, 0, 50, 102
2, 104999, Note_on_c, 0, 38, 0
2, 104999, Note_on_c, 0, 50, 0
2, 105119, Note_on_c, 0, 52, 0
2, 105119, Note_on_c, 0, 55, 0
2, 105119, Note_on_c, 0, 62, 0
2, 105120, Note_on_c, 0, 53, 104
2, 105120, Note_on_c, 0, 56, 104
2, 105120, Note_on_c, 0, 62, 104
2, 105360, Note_on_c, 0, 47, 105
2, 105360, Note_on_c, 0, 59, 105
2, 105479, Note_on_c, 0, 47, 0
2, 105479, Note_on_c, 0, 59, 0
2, 105600, Note_on_c, 0, 38, 106
2, 105600, Note_on_c, 0, 50, 106
2, 105719, Note_on_c, 0, 38, 0
2, 105719, Note_on_c, 0, 50, 0
2, 105839, Note_on_c, 0, 53, 0
2, 105839, Note_on_c, 0, 56, 0
2, 105839, Note_on_c, 0, 62, 0
2, 105840, Note_on_c, 0, 54, 108
2, 105840, Note_on_c, 0, 57, 108
2, 105840, Note_on_c, 0, 62, 108
2, 106080, Note_on_c, 0, 48, 109
2, 106080, Note_on_c, 0, 60, 109
2, 106199, Note_on_c, 0, 48, 0
2, 106199, Note_on_c, 0, 60, 0
2, 106320, Note_on_c, 0, 38, 110
2, 106320, Note_on_c, 0, 50, 110
2, 106439, Note_on_c, 0, 38, 0
2, 106439, Note_on_c, 0, 50, 0
2, 106559, Note_on_c, 0, 54, 0
2, 106559, Note_on_c, 0, 57, 0
2, 106559, Note_on_c, 0, 62, 0
2, 106560, Note_on_c, 0, 50, 112
2, 106560, Note_on_c, 0, 58, 112
2, 106560, Note_on_c, 0, 62, 112
2, 106679, Note_on_c, 0, 50, 0
2, 106679, Note_on_c, 0, 58, 0
2, 106679, Note_on_c, 0, 62, 0
2, 106680, Note_on_c, 0, 55, 112
2, 106799, Note_on_c, 0, 55, 0
2, 106800, Note_on_c, 0, 50, 112
2, 106800, Note_on_c, 0, 59, 112
2, 106800, Note_on_c, 0, 62, 112
2, 106919, Note_on_c, 0, 50, 0
2, 106919, Note_on_c, 0, 59, 0
2, 106919, Note_on_c, 0, 62, 0
2, 106920, Note_on_c, 0, 56, 112
2, 107039, Note_on_c, 0, 56, 0
2, 107040, Note_on_c, 0, 51, 112
2, 107040, Note_on_c, 0, 60, 112
2, 107040, Note_on_c, 0, 62, 112
2, 107279, Note_on_c, 0, 51, 0
2, 107279, Note_on_c, 0, 60, 0
2, 107279, Note_on_c, 0, 62, 0
2, 107280, Note_on_c, 0, 60, 112
2, 107280, Note_on_c, 0, 63, 112
2, 107280, Note_on_c, 0, 72, 112
2, 107399, Note_on_c, 0, 60, 0
2, 107399, Note_on_c, 0, 63, 0
2, 107399, Note_on_c, 0, 72, 0
2, 107520, Note_on_c, 0, 59, 112
2, 107520, Note_on_c, 0, 62, 112
2, 107520, Note_on_c, 0, 71, 112
2, 107639, Note_on_c, 0, 59, 0
2, 107639, Note_on_c, 0, 62, 0
2, 107639, Note_on_c, 0, 71, 0
2, 107760, Note_on_c, 0, 57, 112
2, 107760, Note_on_c, 0, 60, 112
2, 107760, Note_on_c, 0, 62, 112
2, 107760, Note_on_c, 0, 69, 112
2, 107879, Note_on_c, 0, 57, 0
2, 107879, Note_on_c, 0, 60, 0
2, 107879, Note_on_c, 0, 62, 0
2, 107879, Note_on_c, 0, 69, 0
2, 108000, Note_on_c, 0, 55, 96
2, 108000, Note_on_c, 0, 59, 96
2, 108000, Note_on_c, 0, 62, 96
2, 108000, Note_on_c, 0, 67, 96
2, 108119, Note_on_c, 0, 55, 0
2, 108119, Note_on_c, 0, 59, 0
2, 108119, Note_on_c, 0, 62, 0
2, 108119, Note_on_c, 0, 67, 0
2, 108240, Note_on_c, 0, 83, 49
2, 108359, Note_on_c, 0, 83, 0
2, 108480, Note_on_c, 0, 84, 49
2, 108599, Note_on_c, 0, 84, 0
2, 108720, Note_on_c, 0, 80, 49
2, 108839, Note_on_c, 0, 80, 0
2, 108960, Note_on_c, 0, 79, 49
2, 109079, Note_on_c, 0, 79, 0
2, 109200, Note_on_c, 0, 55, 58
2, 109319, Note_on_c, 0, 55, 0
2, 109440, Note_on_c, 0, 60, 58
2, 109559, Note_on_c, 0, 60, 0
2, 109680, Note_on_c, 0, 66, 49
2, 109799, Note_on_c, 0, 66, 0
2, 109920, Note_on_c, 0, 67, 49
2, 110039, Note_on_c, 0, 67, 0
2, 110160, Note_on_c, 0, 63, 49
2, 110279, Note_on_c, 0, 63, 0
2, 110400, Note_on_c, 0, 62, 49
2, 110519, Note_on_c, 0, 62, 0
2, 110640, Note_on_c, 0, 50, 58
2, 110759, Note_on_c, 0, 50, 0
2, 110880, Note_on_c, 0, 43, 58
2, 110999, Note_on_c, 0, 43, 0
2, 111120, Note_on_c, 0, 59, 49
2, 111359, Note_on_c, 0, 59, 0
2, 111360, Note_on_c, 0, 67, 49
2, 111360, Note_on_c, 0, 60, 49
2, 111479, Note_on_c, 0, 67, 0
2, 111480, Note_on_c, 0, 63, 49
2, 111599, Note_on_c, 0, 60, 0
2, 111599, Note_on_c, 0, 63, 0
2, 111600, Note_on_c, 0, 62, 49
2, 111600, Note_on_c, 0, 56, 49
2, 111719, Note_on_c, 0, 62, 0
2, 111720, Note_on_c, 0, 65, 49
2, 111839, Note_on_c, 0, 56, 0
2, 111839, Note_on_c, 0, 65, 0
2, 112080, Note_on_c, 0, 43, 58
2, 112199, Note_on_c, 0, 43, 0
2, 112320, Note_on_c, 0, 51, 49
2, 112320, Note_on_c, 0, 36, 49
2, 112559, Note_on_c, 0, 51, 0
2, 112559, Note_on_c, 0, 36, 0
2, 112800, Note_on_c, 0, 50, 58
2, 112800, Note_on_c, 0, 50, 0
2, 112800, Note_on_c, 0, 50, 49
2, 113039, Note_on_c, 0, 50, 0
2, 113040, Note_on_c, 0, 62, 49
2, 113040, Note_on_c, 0, 57, 49
2, 113159, Note_on_c, 0, 57, 0
2, 113160, Note_on_c, 0, 60, 49
2, 113279, Note_on_c, 0, 62, 0
2, 113279, Note_on_c, 0, 60, 0
2, 113280, Note_on_c, 0, 59, 49
2, 113399, Note_on_c, 0, 59, 0
2, 113400, Note_on_c, 0, 55, 49
2, 113519, Note_on_c, 0, 55, 0
2, 113520, Note_on_c, 0, 50, 49
2, 113520, Note_on_c, 0, 54, 49
2, 113639, Note_on_c, 0, 50, 0
2, 113639, Note_on_c, 0, 54, 0
2, 113640, Note_on_c, 0, 57, 49
2, 113759, Note_on_c, 0, 57, 0
2, 113760, Note_on_c, 0, 43, 49
2, 113760, Note_on_c, 0, 55, 49
2, 113879, Note_on_c, 0, 43, 0
2, 113879, Note_on_c, 0, 55, 0
2, 114000, Note_on_c, 0, 38, 49
2, 114000, Note_on_c, 0, 50, 49
2, 114119, Note_on_c, 0, 38, 0
2, 114119, Note_on_c, 0, 50, 0
2, 114120, Note_on_c, 0, 48, 49
2, 114239, Note_on_c, 0, 48, 0
2, 114240, Note_on_c, 0, 38, 49
2, 114240, Note_on_c, 0, 50, 49
2, 114359, Note_on_c, 0, 38, 0
2, 114359, Note_on_c, 0, 50, 0
2, 114360, Note_on_c, 0, 47, 49
2, 114479, Note_on_c, 0, 47, 0
2, 114480, Note_on_c, 0, 39, 49
2, 114480, Note_on_c, 0, 51, 49
2, 114719, Note_on_c, 0, 39, 0
2, 114719, Note_on_c, 0, 51, 0
2, 114720, Note_on_c, 0, 36, 54
2, 114720, Note_on_c, 0, 48, 54
2, 114839, Note_on_c, 0, 36, 0
2, 114839, Note_on_c, 0, 48, 0
2, 114960, Note_on_c, 0, 31, 59
2, 114960, Note_on_c, 0, 43, 59
2, 115079, Note_on_c, 0, 31, 0
2, 115079, Note_on_c, 0, 43, 0
2, 115200, Note_on_c, 0, 36, 64
2, 115200, Note_on_c, 0, 39, 64
2, 115200, Note_on_c, 0, 48, 64
2, 115439, Note_on_c, 0, 36, 0
2, 115439, Note_on_c, 0, 39, 0
2, 115439, Note_on_c, 0, 48, 0
2, 115440, Note_on_c, 0, 63, 69
2, 115559, Note_on_c, 0, 63, 0
2, 115560, Note_on_c, 0, 62, 72
2, 115679, Note_on_c, 0, 62, 0
2, 115680, Note_on_c, 0, 63, 75
2, 115799, Note_on_c, 0, 63, 0
2, 115800, Note_on_c, 0, 60, 77
2, 115919, Note_on_c, 0, 60, 0
2, 115920, Note_on_c, 0, 62, 80
2, 115920, Note_on_c, 0, 65, 80
2, 116040, Note_on_c, 0, 65, 0
2, 116159, Note_on_c, 0, 62, 0
2, 116160, Note_on_c, 0, 53, 85
2, 116160, Note_on_c, 0, 58, 85
2, 116160, Note_on_c, 0, 62, 85
2, 116279, Note_on_c, 0, 53, 0
2, 116279, Note_on_c, 0, 58, 0
2, 116279, Note_on_c, 0, 62, 0
2, 116400, Note_on_c, 0, 50, 90
2, 116400, Note_on_c, 0, 53, 90
2, 116400, Note_on_c, 0, 58, 90
2, 116519, Note_on_c, 0, 50, 0
2, 116519, Note_on_c, 0, 53, 0
2, 116519, Note_on_c, 0, 58, 0
2, 116640, Note_on_c, 0, 51, 96
2, 116640, Note_on_c, 0, 55, 96
2, 116640, Note_on_c, 0, 58, 96
2, 116640, Note_on_c, 0, 63, 96
2, 116759, Note_on_c, 0, 51, 0
2, 116759, Note_on_c, 0, 55, 0
2, 116759, Note_on_c, 0, 58, 0
2, 116759, Note_on_c, 0, 63, 0
2, 116880, Note_on_c, 0, 34, 96
2, 116880, Note_on_c, 0, 46, 96
2, 116999, Note_on_c, 0, 34, 0
2, 116999, Note_on_c, 0, 46, 0
2, 117000, Note_on_c, 0, 44, 97
2, 117119, Note_on_c, 0, 44, 0
2, 117120, Note_on_c, 0, 34, 98
2, 117120, Note_on_c, 0, 46, 98
2, 117239, Note_on_c, 0, 34, 0
2, 117239, Note_on_c, 0, 46, 0
2, 117240, Note_on_c, 0, 43, 99
2, 117359, Note_on_c, 0, 43, 0
2, 117360, Note_on_c, 0, 39, 100
2, 117360, Note_on_c, 0, 51, 100
2, 117599, Note_on_c, 0, 39, 0
2, 117599, Note_on_c, 0, 51, 0
2, 117600, Note_on_c, 0, 36, 102
2, 117600, Note_on_c, 0, 48, 102
2, 117719, Note_on_c, 0, 36, 0
2, 117719, Note_on_c, 0, 48, 0
2, 117840, Note_on_c, 0, 31, 104
2, 117840, Note_on_c, 0, 43, 104
2, 117959, Note_on_c, 0, 31, 0
2, 117959, Note_on_c, 0, 43, 0
2, 118080, Note_on_c, 0, 40, 106
2, 118080, Note_on_c, 0, 43, 106
2, 118080, Note_on_c, 0, 46, 106
2, 118080, Note_on_c, 0, 52, 106
2, 118319, Note_on_c, 0, 40, 0
2, 118319, Note_on_c, 0, 43, 0
2, 118319, Note_on_c, 0, 46, 0
2, 118319, Note_on_c, 0, 52, 0
2, 118320, Note_on_c, 0, 64, 108
2, 118320, Note_on_c, 0, 67, 108
2, 118439, Note_on_c, 0, 64, 0
2, 118439, Note_on_c, 0, 67, 0
2, 118440, Note_on_c, 0, 66, 109
2, 118559, Note_on_c, 0, 66, 0
2, 118560, Note_on_c, 0, 67, 110
2, 118679, Note_on_c, 0, 67, 0
2, 118680, Note_on_c, 0, 64, 111
2, 118799, Note_on_c, 0, 64, 0
2, 118800, Note_on_c, 0, 66, 112
2, 118800, Note_on_c, 0, 69, 112
2, 118920, Note_on_c, 0, 69, 0
2, 119039, Note_on_c, 0, 66, 0
2, 119040, Note_on_c, 0, 57, 112
2, 119040, Note_on_c, 0, 62, 112
2, 119040, Note_on_c, 0, 66, 112
2, 119159, Note_on_c, 0, 57, 0
2, 119159, Note_on_c, 0, 62, 0
2, 119159, Note_on_c, 0, 66, 0
2, 119280, Note_on_c, 0, 54, 112
2, 119280, Note_on_c, 0, 57, 112
2, 119280, Note_on_c, 0, 62, 112
2, 119399, Note_on_c, 0, 54, 0
2, 119399, Note_on_c, 0, 57, 0
2, 119399, Note_on_c, 0, 62, 0
2, 119520, Note_on_c, 0, 55, 96
2, 119520, Note_on_c, 0, 58, 96
2, 119520, Note_on_c, 0, 62, 96
2, 119639, Note_on_c, 0, 55, 0
2, 119639, Note_on_c, 0, 58, 0
2, 119639, Note_on_c, 0, 62, 0
2, 119760, Note_on_c, 0, 38, 96
2, 119760, Note_on_c, 0, 50, 96
2, 119879, Note_on_c, 0, 38, 0
2, 119879, Note_on_c, 0, 50, 0
2, 119880, Note_on_c, 0, 48, 96
2, 119999, Note_on_c, 0, 48, 0
2, 120000, Note_on_c, 0, 38, 97
2, 120000, Note_on_c, 0, 50, 97
2, 120119, Note_on_c, 0, 38, 0
2, 120119, Note_on_c, 0, 50, 0
2, 120120, Note_on_c, 0, 46, 98
2, 120239, Note_on_c, 0, 46, 0
2, 120240, Note_on_c, 0, 43, 98
2, 120240, Note_on_c, 0, 55, 98
2, 120479, Note_on_c, 0, 43, 0
2, 120479, Note_on_c, 0, 55, 0
2, 120480, Note_on_c, 0, 39, 100
2, 120480, Note_on_c, 0, 51, 100
2, 120599, Note_on_c, 0, 39, 0
2, 120599, Note_on_c, 0, 51, 0
2, 120720, Note_on_c, 0, 34, 101
2, 120720, Note_on_c, 0, 46, 101
2, 120839, Note_on_c, 0, 34, 0
2, 120839, Note_on_c, 0, 46, 0
2, 120960, Note_on_c, 0, 43, 103
2, 120960, Note_on_c, 0, 46, 103
2, 120960, Note_on_c, 0, 49, 103
2, 120960, Note_on_c, 0, 55, 103
2, 121199, Note_on_c, 0, 43, 0
2, 121199, Note_on_c, 0, 46, 0
2, 121199, Note_on_c, 0, 49, 0
2, 121199, Note_on_c, 0, 55, 0
2, 121200, Note_on_c, 0, 67, 104
2, 121200, Note_on_c, 0, 70, 104
2, 121319, Note_on_c, 0, 67, 0
2, 121319, Note_on_c, 0, 70, 0
2, 121320, Note_on_c, 0, 69, 105
2, 121439, Note_on_c, 0, 69, 0
2, 121440, Note_on_c, 0, 70, 106
2, 121559, Note_on_c, 0, 70, 0
2, 121560, Note_on_c, 0, 67, 106
2, 121679, Note_on_c, 0, 67, 0
2, 121680, Note_on_c, 0, 69, 127
2, 121680, Note_on_c, 0, 72, 127
2, 121919, Note_on_c, 0, 69, 0
2, 121919, Note_on_c, 0, 72, 0
2, 121920, Note_on_c, 0, 60, 109
2, 121920, Note_on_c, 0, 65, 109
2, 121920, Note_on_c, 0, 69, 109
2, 122039, Note_on_c, 0, 60, 0
2, 122039, Note_on_c, 0, 65, 0
2, 122039, Note_on_c, 0, 69, 0
2, 122160, Note_on_c, 0, 57, 110
2, 122160, Note_on_c, 0, 60, 110
2, 122160, Note_on_c, 0, 65, 110
2, 122279, Note_on_c, 0, 57, 0
2, 122279, Note_on_c, 0, 60, 0
2, 122279, Note_on_c, 0, 65, 0
2, 122400, Note_on_c, 0, 65, 112
2, 122400, Note_on_c, 0, 70, 112
2, 122400, Note_on_c, 0, 74, 112
2, 122400, Note_on_c, 0, 77, 112
2, 122640, Note_on_c, 0, 70, 0
2, 122640, Note_on_c, 0, 70, 112
2, 122760, Note_on_c, 0, 58, 112
2, 122879, Note_on_c, 0, 58, 0
2, 122880, Note_on_c, 0, 70, 0
2, 122880, Note_on_c, 0, 70, 112
2, 123000, Note_on_c, 0, 70, 0
2, 123000, Note_on_c, 0, 70, 112
2, 123119, Note_on_c, 0, 65, 0
2, 123119, Note_on_c, 0, 74, 0
2, 123119, Note_on_c, 0, 77, 0
2, 123120, Note_on_c, 0, 66, 112
2, 123120, Note_on_c, 0, 75, 112
2, 123120, Note_on_c, 0, 78, 112
2, 123360, Note_on_c, 0, 70, 0
2, 123360, Note_on_c, 0, 70, 112
2, 123480, Note_on_c, 0, 58, 112
2, 123599, Note_on_c, 0, 58, 0
2, 123600, Note_on_c, 0, 70, 0
2, 123600, Note_on_c, 0, 70, 112
2, 123720, Note_on_c, 0, 70, 0
2, 123720, Note_on_c, 0, 70, 112
2, 123839, Note_on_c, 0, 66, 0
2, 123839, Note_on_c, 0, 75, 0
2, 123839, Note_on_c, 0, 78, 0
2, 123840, Note_on_c, 0, 75, 112
2, 123840, Note_on_c, 0, 78, 112
2, 123840, Note_on_c, 0, 82, 112
2, 123960, Note_on_c, 0, 82, 0
2, 124080, Note_on_c, 0, 70, 0
2, 124080, Note_on_c, 0, 70, 112
2, 124200, Note_on_c, 0, 58, 112
2, 124319, Note_on_c, 0, 58, 0
2, 124320, Note_on_c, 0, 70, 0
2, 124320, Note_on_c, 0, 70, 112
2, 124440, Note_on_c, 0, 70, 0
2, 124440, Note_on_c, 0, 70, 112
2, 124559, Note_on_c, 0, 75, 0
2, 124559, Note_on_c, 0, 78, 0
2, 124560, Note_on_c, 0, 66, 112
2, 124560, Note_on_c, 0, 72, 112
2, 124560, Note_on_c, 0, 75, 112
2, 124800, Note_on_c, 0, 70, 0
2, 124800, Note_on_c, 0, 70, 112
2, 124920, Note_on_c, 0, 58, 112
2, 125039, Note_on_c, 0, 58, 0
2, 125040, Note_on_c, 0, 70, 0
2, 125040, Note_on_c, 0, 70, 112
2, 125160, Note_on_c, 0, 70, 0
2, 125160, Note_on_c, 0, 70, 112
2, 125279, Note_on_c, 0, 66, 0
2, 125279, Note_on_c, 0, 72, 0
2, 125279, Note_on_c, 0, 75, 0
2, 125279, Note_on_c, 0, 70, 0
2, 125280, Note_on_c, 0, 65, 112
2, 125280, Note_on_c, 0, 70, 112
2, 125280, Note_on_c, 0, 74, 112
2, 125280, Note_on_c, 0, 77, 112
2, 125520, Note_on_c, 0, 70, 0
2, 125520, Note_on_c, 0, 70, 112
2, 125640, Note_on_c, 0, 58, 112
2, 125759, Note_on_c, 0, 58, 0
2, 125760, Note_on_c, 0, 70, 0
2, 125760, Note_on_c, 0, 70, 112
2, 125880, Note_on_c, 0, 58, 112
2, 125999, Note_on_c, 0, 65, 0
2, 125999, Note_on_c, 0, 70, 0
2, 125999, Note_on_c, 0, 74, 0
2, 125999, Note_on_c, 0, 77, 0
2, 126000, Note_on_c, 0, 54, 112
2, 126000, Note_on_c, 0, 63, 112
2, 126000, Note_on_c, 0, 66, 112
2, 126240, Note_on_c, 0, 46, 112
2, 126240, Note_on_c, 0, 54, 0
2, 126240, Note_on_c, 0, 54, 112
2, 126359, Note_on_c, 0, 46, 0
2, 126360, Note_on_c, 0, 58, 0
2, 126360, Note_on_c, 0, 58, 112
2, 126480, Note_on_c, 0, 54, 0
2, 126480, Note_on_c, 0, 54, 112
2, 126480, Note_on_c, 0, 58, 0
2, 126480, Note_on_c, 0, 58, 112
2, 126480, Note_on_c, 0, 63, 0
2, 126480, Note_on_c, 0, 63, 112
2, 126719, Note_on_c, 0, 66, 0
2, 126719, Note_on_c, 0, 54, 0
2, 126719, Note_on_c, 0, 58, 0
2, 126719, Note_on_c, 0, 63, 0
2, 126720, Note_on_c, 0, 58, 112
2, 126720, Note_on_c, 0, 63, 112
2, 126720, Note_on_c, 0, 66, 112
2, 126720, Note_on_c, 0, 70, 112
2, 126960, Note_on_c, 0, 70, 0
2, 126960, Note_on_c, 0, 46, 112
2, 126960, Note_on_c, 0, 54, 112
2, 127079, Note_on_c, 0, 46, 0
2, 127079, Note_on_c, 0, 54, 0
2, 127080, Note_on_c, 0, 58, 0
2, 127080, Note_on_c, 0, 58, 112
2, 127200, Note_on_c, 0, 54, 112
2, 127200, Note_on_c, 0, 58, 0
2, 127200, Note_on_c, 0, 58, 112
2, 127200, Note_on_c, 0, 63, 0
2, 127200, Note_on_c, 0, 63, 112
2, 127200, Note_on_c, 0, 66, 0
2, 127200, Note_on_c, 0, 66, 112
2, 127439, Note_on_c, 0, 54, 0
2, 127439, Note_on_c, 0, 58, 0
2, 127439, Note_on_c, 0, 63, 0
2, 127439, Note_on_c, 0, 66, 0
2, 127440, Note_on_c, 0, 54, 112
2, 127440, Note_on_c, 0, 58, 112
2, 127440, Note_on_c, 0, 60, 112
2, 127440, Note_on_c, 0, 63, 112
2, 127680, Note_on_c, 0, 46, 112
2, 127680, Note_on_c, 0, 54, 0
2, 127680, Note_on_c, 0, 54, 112
2, 127799, Note_on_c, 0, 46, 0
2, 127800, Note_on_c, 0, 58, 0
2, 127800, Note_on_c, 0, 58, 112
2, 127920, Note_on_c, 0, 54, 0
2, 127920, Note_on_c, 0, 54, 112
2, 127920, Note_on_c, 0, 58, 0
2, 127920, Note_on_c, 0, 58, 112
2, 127920, Note_on_c, 0, 63, 0
2, 127920, Note_on_c, 0, 63, 112
2, 128159, Note_on_c, 0, 60, 0
2, 128159, Note_on_c, 0, 54, 0
2, 128159, Note_on_c, 0, 58, 0
2, 128159, Note_on_c, 0, 63, 0
2, 128160, Note_on_c, 0, 53, 112
2, 128160, Note_on_c, 0, 58, 112
2, 128160, Note_on_c, 0, 62, 112
2, 128160, Note_on_c, 0, 65, 112
2, 128400, Note_on_c, 0, 46, 112
2, 128400, Note_on_c, 0, 53, 0
2, 128400, Note_on_c, 0, 53, 112
2, 128519, Note_on_c, 0, 46, 0
2, 128520, Note_on_c, 0, 58, 0
2, 128520, Note_on_c, 0, 58, 112
2, 128640, Note_on_c, 0, 53, 0
2, 128640, Note_on_c, 0, 53, 112
2, 128640, Note_on_c, 0, 58, 0
2, 128640, Note_on_c, 0, 58, 112
2, 128640, Note_on_c, 0, 62, 0
2, 128640, Note_on_c, 0, 62, 112
2, 128879, Note_on_c, 0, 65, 0
2, 128879, Note_on_c, 0, 53, 0
2, 128879, Note_on_c, 0, 58, 0
2, 128879, Note_on_c, 0, 62, 0
2, 129600, Note_on_c, 0, 58, 112
2, 129839, Note_on_c, 0, 58, 0
2, 131040, Note_on_c, 0, 53, 112
2, 131040, Note_on_c, 0, 60, 112
2, 131280, Note_on_c, 0, 68, 112
2, 131399, Note_on_c, 0, 68, 0
2, 131520, Note_on_c, 0, 68, 112
2, 131639, Note_on_c, 0, 68, 0
2, 131759, Note_on_c, 0, 53, 0
2, 131759, Note_on_c, 0, 60, 0
2, 131760, Note_on_c, 0, 51, 112
2, 131760, Note_on_c, 0, 59, 112
2, 132000, Note_on_c, 0, 68, 104
2, 132119, Note_on_c, 0, 68, 0
2, 132240, Note_on_c, 0, 68, 95
2, 132359, Note_on_c, 0, 68, 0
2, 132479, Note_on_c, 0, 51, 0
2, 132479, Note_on_c, 0, 59, 0
2, 132480, Note_on_c, 0, 50, 86
2, 132480, Note_on_c, 0, 58, 86
2, 132720, Note_on_c, 0, 68, 77
2, 132839, Note_on_c, 0, 68, 0
2, 132960, Note_on_c, 0, 68, 69
2, 133079, Note_on_c, 0, 68, 0
2, 133199, Note_on_c, 0, 50, 0
2, 133199, Note_on_c, 0, 58, 0
2, 133200, Note_on_c, 0, 46, 60
2, 133250, Note_on_c, 0, 53, 58
2, 133300, Note_on_c, 0, 56, 56
2, 133351, Note_on_c, 0, 62, 54
2, 133438, Note_on_c, 0, 53, 0
2, 133438, Note_on_c, 0, 56, 0
2, 133438, Note_on_c, 0, 62, 0
2, 133439, Note_on_c, 0, 46, 0
2, 133440, Note_on_c, 0, 58, 51
2, 133440, Note_on_c, 0, 62, 51
2, 133559, Note_on_c, 0, 58, 0
2, 133559, Note_on_c, 0, 62, 0
2, 133920, Note_on_c, 0, 39, 33
2, 133996, Note_on_c, 0, 50, 33
2, 134073, Note_on_c, 0, 55, 33
2, 134158, Note_on_c, 0, 50, 0
2, 134158, Note_on_c, 0, 55, 0
2, 134159, Note_on_c, 0, 39, 0
2, 134160, Note_on_c, 0, 55, 33
2, 134160, Note_on_c, 0, 58, 33
2, 134279, Note_on_c, 0, 55, 0
2, 134279, Note_on_c, 0, 58, 0
2, 134400, Note_on_c, 0, 51, 33
2, 134400, Note_on_c, 0, 55, 33
2, 134400, Note_on_c, 0, 58, 33
2, 134519, Note_on_c, 0, 51, 0
2, 134519, Note_on_c, 0, 55, 0
2, 134519, Note_on_c, 0, 58, 0
2, 134640, Note_on_c, 0, 56, 33
2, 134640, Note_on_c, 0, 60, 33
2, 134640, Note_on_c, 0, 63, 33
2, 134759, Note_on_c, 0, 56, 0
2, 134759, Note_on_c, 0, 60, 0
2, 134759, Note_on_c, 0, 63, 0
2, 134880, Note_on_c, 0, 44, 33
2, 134880, Note_on_c, 0, 51, 33
2, 134999, Note_on_c, 0, 44, 0
2, 134999, Note_on_c, 0, 51, 0
2, 135120, Note_on_c, 0, 56, 33
2, 135120, Note_on_c, 0, 60, 33
2, 135120, Note_on_c, 0, 63, 33
2, 135239, Note_on_c, 0, 56, 0
2, 135239, Note_on_c, 0, 60, 0
2, 135239, Note_on_c, 0, 63, 0
2, 135360, Note_on_c, 0, 58, 33
2, 135360, Note_on_c, 0, 63, 33
2, 135479, Note_on_c, 0, 58, 0
2, 135479, Note_on_c, 0, 63, 0
2, 135600, Note_on_c, 0, 43, 33
2, 135600, Note_on_c, 0, 51, 33
2, 135719, Note_on_c, 0, 43, 0
2, 135719, Note_on_c, 0, 51, 0
2, 135840, Note_on_c, 0, 58, 33
2, 135840, Note_on_c, 0, 63, 33
2, 135959, Note_on_c, 0, 58, 0
2, 135959, Note_on_c, 0, 63, 0
2, 136080, Note_on_c, 0, 60, 33
2, 136080, Note_on_c, 0, 63, 33
2, 136199, Note_on_c, 0, 60, 0
2, 136199, Note_on_c, 0, 63, 0
2, 136320, Note_on_c, 0, 41, 33
2, 136320, Note_on_c, 0, 48, 33
2, 136320, Note_on_c, 0, 51, 33
2, 136439, Note_on_c, 0, 41, 0
2, 136439, Note_on_c, 0, 48, 0
2, 136439, Note_on_c, 0, 51, 0
2, 136560, Note_on_c, 0, 60, 33
2, 136560, Note_on_c, 0, 63, 33
2, 136679, Note_on_c, 0, 60, 0
2, 136679, Note_on_c, 0, 63, 0
2, 136800, Note_on_c, 0, 58, 33
2, 136800, Note_on_c, 0, 62, 33
2, 136919, Note_on_c, 0, 58, 0
2, 136919, Note_on_c, 0, 62, 0
2, 137040, Note_on_c, 0, 46, 33
2, 137040, Note_on_c, 0, 53, 33
2, 137159, Note_on_c, 0, 46, 0
2, 137159, Note_on_c, 0, 53, 0
2, 137280, Note_on_c, 0, 56, 33
2, 137280, Note_on_c, 0, 58, 33
2, 137280, Note_on_c, 0, 62, 33
2, 137399, Note_on_c, 0, 56, 0
2, 137399, Note_on_c, 0, 58, 0
2, 137399, Note_on_c, 0, 62, 0
2, 137520, Note_on_c, 0, 55, 33
2, 137520, Note_on_c, 0, 58, 33
2, 137520, Note_on_c, 0, 63, 33
2, 137639, Note_on_c, 0, 55, 0
2, 137639, Note_on_c, 0, 58, 0
2, 137639, Note_on_c, 0, 63, 0
2, 137760, Note_on_c, 0, 39, 33
2, 137836, Note_on_c, 0, 46, 33
2, 137913, Note_on_c, 0, 55, 33
2, 137998, Note_on_c, 0, 46, 0
2, 137998, Note_on_c, 0, 55, 0
2, 137999, Note_on_c, 0, 39, 0
2, 138000, Note_on_c, 0, 56, 33
2, 138000, Note_on_c, 0, 60, 33
2, 138000, Note_on_c, 0, 63, 33
2, 138119, Note_on_c, 0, 56, 0
2, 138119, Note_on_c, 0, 60, 0
2, 138119, Note_on_c, 0, 63, 0
2, 138240, Note_on_c, 0, 55, 33
2, 138240, Note_on_c, 0, 58, 33
2, 138240, Note_on_c, 0, 63, 33
2, 138359, Note_on_c, 0, 55, 0
2, 138359, Note_on_c, 0, 58, 0
2, 138359, Note_on_c, 0, 63, 0
2, 138480, Note_on_c, 0, 39, 33
2, 138556, Note_on_c, 0, 46, 33
2, 138633, Note_on_c, 0, 55, 33
2, 138718, Note_on_c, 0, 46, 0
2, 138718, Note_on_c, 0, 55, 0
2, 138719, Note_on_c, 0, 39, 0
2, 138720, Note_on_c, 0, 56, 33
2, 138720, Note_on_c, 0, 60, 33
2, 138720, Note_on_c, 0, 63, 33
2, 138839, Note_on_c, 0, 56, 0
2, 138839, Note_on_c, 0, 60, 0
2, 138839, Note_on_c, 0, 63, 0
2, 138960, Note_on_c, 0, 55, 33
2, 138960, Note_on_c, 0, 58, 33
2, 138960, Note_on_c, 0, 63, 33
2, 139079, Note_on_c, 0, 55, 0
2, 139079, Note_on_c, 0, 58, 0
2, 139079, Note_on_c, 0, 63, 0
2, 139200, Note_on_c, 0, 39, 36
2, 139200, Note_on_c, 0, 46, 36
2, 139200, Note_on_c, 0, 55, 36
2, 139319, Note_on_c, 0, 39, 0
2, 139319, Note_on_c, 0, 46, 0
2, 139319, Note_on_c, 0, 55, 0
2, 140160, Note_on_c, 0, 55, 33
2, 140160, Note_on_c, 0, 58, 33
2, 140160, Note_on_c, 0, 63, 33
2, 140279, Note_on_c, 0, 55, 0
2, 140279, Note_on_c, 0, 58, 0
2, 140279, Note_on_c, 0, 63, 0
2, 140400, Note_on_c, 0, 56, 33
2, 140400, Note_on_c, 0, 60, 33
2, 140400, Note_on_c, 0, 63, 33
2, 140519, Note_on_c, 0, 56, 0
2, 140519, Note_on_c, 0, 60, 0
2, 140519, Note_on_c, 0, 63, 0
2, 140640, Note_on_c, 0, 44, 33
2, 140640, Note_on_c, 0, 51, 33
2, 140759, Note_on_c, 0, 44, 0
2, 140759, Note_on_c, 0, 51, 0
2, 140880, Note_on_c, 0, 56, 33
2, 140880, Note_on_c, 0, 60, 33
2, 140880, Note_on_c, 0, 63, 33
2, 140999, Note_on_c, 0, 56, 0
2, 140999, Note_on_c, 0, 60, 0
2, 140999, Note_on_c, 0, 63, 0
2, 141120, Note_on_c, 0, 58, 33
2, 141120, Note_on_c, 0, 63, 33
2, 141239, Note_on_c, 0, 58, 0
2, 141239, Note_on_c, 0, 63, 0
2, 141360, Note_on_c, 0, 43, 33
2, 141360, Note_on_c, 0, 51, 33
2, 141479, Note_on_c, 0, 43, 0
2, 141479, Note_on_c, 0, 51, 0
2, 141600, Note_on_c, 0, 58, 33
2, 141600, Note_on_c, 0, 63, 33
2, 141719, Note_on_c, 0, 58, 0
2, 141719, Note_on_c, 0, 63, 0
2, 141840, Note_on_c, 0, 60, 33
2, 141840, Note_on_c, 0, 63, 33
2, 141959, Note_on_c, 0, 60, 0
2, 141959, Note_on_c, 0, 63, 0
2, 142080, Note_on_c, 0, 41, 33
2, 142080, Note_on_c, 0, 48, 33
2, 142080, Note_on_c, 0, 51, 33
2, 142199, Note_on_c, 0, 41, 0
2, 142199, Note_on_c, 0, 48, 0
2, 142199, Note_on_c, 0, 51, 0
2, 142320, Note_on_c, 0, 60, 33
2, 142320, Note_on_c, 0, 63, 33
2, 142439, Note_on_c, 0, 60, 0
2, 142439, Note_on_c, 0, 63, 0
2, 142560, Note_on_c, 0, 58, 33
2, 142560, Note_on_c, 0, 62, 33
2, 142679, Note_on_c, 0, 58, 0
2, 142679, Note_on_c, 0, 62, 0
2, 142800, Note_on_c, 0, 46, 33
2, 142800, Note_on_c, 0, 53, 33
2, 142919, Note_on_c, 0, 46, 0
2, 142919, Note_on_c, 0, 53, 0
2, 143040, Note_on_c, 0, 56, 33
2, 143040, Note_on_c, 0, 58, 33
2, 143040, Note_on_c, 0, 62, 33
2, 143159, Note_on_c, 0, 56, 0
2, 143159, Note_on_c, 0, 58, 0
2, 143159, Note_on_c, 0, 62, 0
2, 143280, Note_on_c, 0, 55, 33
2, 143280, Note_on_c, 0, 58, 33
2, 143280, Note_on_c, 0, 63, 33
2, 143399, Note_on_c, 0, 55, 0
2, 143399, Note_on_c, 0, 58, 0
2, 143399, Note_on_c, 0, 63, 0
2, 143520, Note_on_c, 0, 39, 33
2, 143596, Note_on_c, 0, 46, 35
2, 143673, Note_on_c, 0, 55, 38
2, 143758, Note_on_c, 0, 46, 0
2, 143758, Note_on_c, 0, 55, 0
2, 143759, Note_on_c, 0, 39, 0
2, 144480, Note_on_c, 0, 55, 33
2, 144480, Note_on_c, 0, 58, 33
2, 144480, Note_on_c, 0, 63, 33
2, 144599, Note_on_c, 0, 55, 0
2, 144599, Note_on_c, 0, 58, 0
2, 144599, Note_on_c, 0, 63, 0
2, 144720, Note_on_c, 0, 44, 49
2, 144720, Note_on_c, 0, 51, 49
2, 144839, Note_on_c, 0, 44, 0
2, 144839, Note_on_c, 0, 51, 0
2, 144960, Note_on_c, 0, 56, 49
2, 144960, Note_on_c, 0, 60, 49
2, 144960, Note_on_c, 0, 63, 49
2, 145079, Note_on_c, 0, 56, 0
2, 145079, Note_on_c, 0, 60, 0
2, 145079, Note_on_c, 0, 63, 0
2, 145200, Note_on_c, 0, 44, 49
2, 145200, Note_on_c, 0, 51, 49
2, 145319, Note_on_c, 0, 44, 0
2, 145319, Note_on_c, 0, 51, 0
2, 145440, Note_on_c, 0, 42, 49
2, 145440, Note_on_c, 0, 51, 49
2, 145559, Note_on_c, 0, 42, 0
2, 145559, Note_on_c, 0, 51, 0
2, 145680, Note_on_c, 0, 54, 49
2, 145680, Note_on_c, 0, 58, 49
2, 145799, Note_on_c, 0, 54, 0
2, 145799, Note_on_c, 0, 58, 0
2, 145920, Note_on_c, 0, 42, 49
2, 145920, Note_on_c, 0, 51, 49
2, 146039, Note_on_c, 0, 42, 0
2, 146039, Note_on_c, 0, 51, 0
2, 146160, Note_on_c, 0, 41, 49
2, 146160, Note_on_c, 0, 51, 49
2, 146279, Note_on_c, 0, 41, 0
2, 146279, Note_on_c, 0, 51, 0
2, 146400, Note_on_c, 0, 57, 49
2, 146400, Note_on_c, 0, 63, 49
2, 146519, Note_on_c, 0, 57, 0
2, 146519, Note_on_c, 0, 63, 0
2, 147360, Note_on_c, 0, 57, 49
2, 147360, Note_on_c, 0, 60, 49
2, 147360, Note_on_c, 0, 65, 49
2, 147479, Note_on_c, 0, 57, 0
2, 147479, Note_on_c, 0, 60, 0
2, 147479, Note_on_c, 0, 65, 0
2, 147600, Note_on_c, 0, 46, 49
2, 147600, Note_on_c, 0, 53, 49
2, 147719, Note_on_c, 0, 46, 0
2, 147719, Note_on_c, 0, 53, 0
2, 147840, Note_on_c, 0, 58, 49
2, 147840, Note_on_c, 0, 62, 49
2, 147840, Note_on_c, 0, 65, 49
2, 147959, Note_on_c, 0, 58, 0
2, 147959, Note_on_c, 0, 62, 0
2, 147959, Note_on_c, 0, 65, 0
2, 148080, Note_on_c, 0, 46, 49
2, 148080, Note_on_c, 0, 53, 49
2, 148199, Note_on_c, 0, 46, 0
2, 148199, Note_on_c, 0, 53, 0
2, 148320, Note_on_c, 0, 44, 49
2, 148320, Note_on_c, 0, 53, 49
2, 148439, Note_on_c, 0, 44, 0
2, 148439, Note_on_c, 0, 53, 0
2, 148560, Note_on_c, 0, 56, 49
2, 148560, Note_on_c, 0, 60, 49
2, 148679, Note_on_c, 0, 56, 0
2, 148679, Note_on_c, 0, 60, 0
2, 148800, Note_on_c, 0, 44, 49
2, 148800, Note_on_c, 0, 53, 49
2, 148919, Note_on_c, 0, 44, 0
2, 148919, Note_on_c, 0, 53, 0
2, 149040, Note_on_c, 0, 43, 49
2, 149040, Note_on_c, 0, 53, 49
2, 149159, Note_on_c, 0, 43, 0
2, 149159, Note_on_c, 0, 53, 0
2, 149280, Note_on_c, 0, 59, 49
2, 149280, Note_on_c, 0, 65, 49
2, 149399, Note_on_c, 0, 59, 0
2, 149399, Note_on_c, 0, 65, 0
2, 150240, Note_on_c, 0, 59, 49
2, 150240, Note_on_c, 0, 62, 49
2, 150240, Note_on_c, 0, 67, 49
2, 150359, Note_on_c, 0, 59, 0
2, 150359, Note_on_c, 0, 62, 0
2, 150359, Note_on_c, 0, 67, 0
2, 150480, Note_on_c, 0, 60, 49
2, 150480, Note_on_c, 0, 63, 49
2, 150480, Note_on_c, 0, 67, 49
2, 150599, Note_on_c, 0, 60, 0
2, 150599, Note_on_c, 0, 63, 0
2, 150599, Note_on_c, 0, 67, 0
2, 150720, Note_on_c, 0, 75, 49
2, 150839, Note_on_c, 0, 75, 0
2, 150960, Note_on_c, 0, 60, 49
2, 150960, Note_on_c, 0, 63, 49
2, 150960, Note_on_c, 0, 67, 49
2, 151079, Note_on_c, 0, 60, 0
2, 151079, Note_on_c, 0, 63, 0
2, 151079, Note_on_c, 0, 67, 0
2, 151200, Note_on_c, 0, 62, 49
2, 151200, Note_on_c, 0, 67, 49
2, 151319, Note_on_c, 0, 62, 0
2, 151319, Note_on_c, 0, 67, 0
2, 151320, Note_on_c, 0, 60, 49
2, 151439, Note_on_c, 0, 60, 0
2, 151440, Note_on_c, 0, 58, 49
2, 151559, Note_on_c, 0, 58, 0
2, 151560, Note_on_c, 0, 62, 49
2, 151679, Note_on_c, 0, 62, 0
2, 151680, Note_on_c, 0, 60, 49
2, 151799, Note_on_c, 0, 60, 0
2, 151800, Note_on_c, 0, 58, 49
2, 151919, Note_on_c, 0, 58, 0
2, 151920, Note_on_c, 0, 57, 49
2, 151920, Note_on_c, 0, 64, 49
2, 151920, Note_on_c, 0, 67, 49
2, 152039, Note_on_c, 0, 57, 0
2, 152039, Note_on_c, 0, 64, 0
2, 152039, Note_on_c, 0, 67, 0
2, 152160, Note_on_c, 0, 73, 49
2, 152279, Note_on_c, 0, 73, 0
2, 152400, Note_on_c, 0, 57, 49
2, 152400, Note_on_c, 0, 64, 49
2, 152400, Note_on_c, 0, 67, 49
2, 152519, Note_on_c, 0, 57, 0
2, 152519, Note_on_c, 0, 64, 0
2, 152519, Note_on_c, 0, 67, 0
2, 152640, Note_on_c, 0, 60, 49
2, 152759, Note_on_c, 0, 60, 0
2, 152760, Note_on_c, 0, 58, 49
2, 152879, Note_on_c, 0, 58, 0
2, 152880, Note_on_c, 0, 57, 49
2, 152880, Note_on_c, 0, 50, 49
2, 152999, Note_on_c, 0, 57, 0
2, 153000, Note_on_c, 0, 60, 49
2, 153119, Note_on_c, 0, 50, 0
2, 153119, Note_on_c, 0, 60, 0
2, 153120, Note_on_c, 0, 58, 49
2, 153239, Note_on_c, 0, 58, 0
2, 153240, Note_on_c, 0, 57, 49
2, 153359, Note_on_c, 0, 57, 0
2, 153360, Note_on_c, 0, 55, 49
2, 153360, Note_on_c, 0, 62, 49
2, 153479, Note_on_c, 0, 55, 0
2, 153479, Note_on_c, 0, 62, 0
2, 153600, Note_on_c, 0, 71, 49
2, 153719, Note_on_c, 0, 71, 0
2, 154080, Note_on_c, 0, 70, 49
2, 154199, Note_on_c, 0, 70, 0
2, 154200, Note_on_c, 0, 69, 49
2, 154319, Note_on_c, 0, 69, 0
2, 154320, Note_on_c, 0, 67, 49
2, 154439, Note_on_c, 0, 67, 0
2, 154440, Note_on_c, 0, 70, 49
2, 154559, Note_on_c, 0, 70, 0
2, 154560, Note_on_c, 0, 69, 49
2, 154679, Note_on_c, 0, 69, 0
2, 154680, Note_on_c, 0, 67, 49
2, 154799, Note_on_c, 0, 67, 0
2, 154800, Note_on_c, 0, 66, 49
2, 155039, Note_on_c, 0, 66, 0
2, 155040, Note_on_c, 0, 69, 49
2, 155159, Note_on_c, 0, 69, 0
2, 155280, Note_on_c, 0, 74, 49
2, 155399, Note_on_c, 0, 74, 0
2, 155520, Note_on_c, 0, 57, 33
2, 155639, Note_on_c, 0, 57, 0
2, 155640, Note_on_c, 0, 55, 33
2, 155759, Note_on_c, 0, 55, 0
2, 155760, Note_on_c, 0, 53, 33
2, 155879, Note_on_c, 0, 53, 0
2, 155880, Note_on_c, 0, 57, 33
2, 155999, Note_on_c, 0, 57, 0
2, 156000, Note_on_c, 0, 55, 33
2, 156119, Note_on_c, 0, 55, 0
2, 156120, Note_on_c, 0, 53, 33
2, 156239, Note_on_c, 0, 53, 0
2, 156240, Note_on_c, 0, 62, 33
2, 156240, Note_on_c, 0, 52, 33
2, 156359, Note_on_c, 0, 62, 0
2, 156479, Note_on_c, 0, 52, 0
2, 156480, Note_on_c, 0, 55, 33
2, 156599, Note_on_c, 0, 55, 0
2, 156720, Note_on_c, 0, 62, 33
2, 156839, Note_on_c, 0, 62, 0
2, 156960, Note_on_c, 0, 43, 33
2, 157079, Note_on_c, 0, 43, 0
2, 157080, Note_on_c, 0, 41, 33
2, 157199, Note_on_c, 0, 41, 0
2, 157200, Note_on_c, 0, 39, 33
2, 157319, Note_on_c, 0, 39, 0
2, 157320, Note_on_c, 0, 43, 33
2, 157439, Note_on_c, 0, 43, 0
2, 157440, Note_on_c, 0, 41, 33
2, 157559, Note_on_c, 0, 41, 0
2, 157560, Note_on_c, 0, 39, 33
2, 157679, Note_on_c, 0, 39, 0
2, 157680, Note_on_c, 0, 38, 33
2, 157919, Note_on_c, 0, 38, 0
2, 157920, Note_on_c, 0, 26, 33
2, 158039, Note_on_c, 0, 26, 0
2, 158040, Note_on_c, 0, 38, 33
2, 158159, Note_on_c, 0, 38, 0
2, 158160, Note_on_c, 0, 26, 33
2, 158279, Note_on_c, 0, 26, 0
2, 158280, Note_on_c, 0, 38, 33
2, 158399, Note_on_c, 0, 38, 0
2, 158400, Note_on_c, 0, 26, 33
2, 158639, Note_on_c, 0, 26, 0
2, 158640, Note_on_c, 0, 38, 33
2, 158759, Note_on_c, 0, 38, 0
2, 158880, Note_on_c, 0, 26, 33
2, 158999, Note_on_c, 0, 26, 0
2, 159120, Note_on_c, 0, 38, 33
2, 159359, Note_on_c, 0, 38, 0
2, 159360, Note_on_c, 0, 60, 33
2, 159360, Note_on_c, 0, 54, 33
2, 159360, Note_on_c, 0, 57, 33
2, 159479, Note_on_c, 0, 60, 0
2, 159480, Note_on_c, 0, 62, 33
2, 159599, Note_on_c, 0, 54, 0
2, 159599, Note_on_c, 0, 57, 0
2, 159599, Note_on_c, 0, 62, 0
2, 159600, Note_on_c, 0, 63, 33
2, 159600, Note_on_c, 0, 57, 33
2, 159600, Note_on_c, 0, 60, 33
2, 159719, Note_on_c, 0, 63, 0
2, 159720, Note_on_c, 0, 65, 33
2, 159839, Note_on_c, 0, 57, 0
2, 159839, Note_on_c, 0, 60, 0
2, 159839, Note_on_c, 0, 65, 0
2, 159840, Note_on_c, 0, 66, 33
2, 159840, Note_on_c, 0, 60, 33
2, 159840, Note_on_c, 0, 63, 33
2, 159959, Note_on_c, 0, 66, 0
2, 160079, Note_on_c, 0, 60, 0
2, 160079, Note_on_c, 0, 63, 0
2, 160080, Note_on_c, 0, 38, 33
2, 160199, Note_on_c, 0, 38, 0
2, 160320, Note_on_c, 0, 26, 33
2, 160559, Note_on_c, 0, 26, 0
2, 160560, Note_on_c, 0, 38, 33
2, 160799, Note_on_c, 0, 38, 0
2, 160800, Note_on_c, 0, 58, 33
2, 160800, Note_on_c, 0, 50, 33
2, 160800, Note_on_c, 0, 55, 33
2, 160919, Note_on_c, 0, 58, 0
2, 160920, Note_on_c, 0, 59, 33
2, 161039, Note_on_c, 0, 50, 0
2, 161039, Note_on_c, 0, 55, 0
2, 161039, Note_on_c, 0, 59, 0
2, 161040, Note_on_c, 0, 60, 33
2, 161040, Note_on_c, 0, 55, 33
2, 161159, Note_on_c, 0, 60, 0
2, 161160, Note_on_c, 0, 61, 33
2, 161279, Note_on_c, 0, 55, 0
2, 161279, Note_on_c, 0, 61, 0
2, 161280, Note_on_c, 0, 62, 33
2, 161280, Note_on_c, 0, 58, 33
2, 161399, Note_on_c, 0, 62, 0
2, 161519, Note_on_c, 0, 58, 0
2, 161520, Note_on_c, 0, 38, 33
2, 161639, Note_on_c, 0, 38, 0
2, 161760, Note_on_c, 0, 26, 33
2, 161999, Note_on_c, 0, 26, 0
2, 162000, Note_on_c, 0, 54, 33
2, 162119, Note_on_c, 0, 54, 0
2, 162120, Note_on_c, 0, 53, 33
2, 162239, Note_on_c, 0, 53, 0
2, 162240, Note_on_c, 0, 52, 33
2, 162359, Note_on_c, 0, 52, 0
2, 162360, Note_on_c, 0, 51, 33
2, 162479, Note_on_c, 0, 51, 0
2, 162480, Note_on_c, 0, 50, 33
2, 162599, Note_on_c, 0, 50, 0
2, 162600, Note_on_c, 0, 49, 33
2, 162719, Note_on_c, 0, 49, 0
2, 162720, Note_on_c, 0, 48, 33
2, 162839, Note_on_c, 0, 48, 0
2, 162840, Note_on_c, 0, 47, 33
2, 162959, Note_on_c, 0, 47, 0
2, 162960, Note_on_c, 0, 46, 33
2, 163079, Note_on_c, 0, 46, 0
2, 163080, Note_on_c, 0, 38, 33
2, 163199, Note_on_c, 0, 38, 0
2, 163200, Note_on_c, 0, 46, 33
2, 163200, Note_on_c, 0, 51, 33
2, 163439, Note_on_c, 0, 46, 0
2, 163439, Note_on_c, 0, 51, 0
2, 163440, Note_on_c, 0, 38, 33
2, 163679, Note_on_c, 0, 38, 0
2, 163680, Note_on_c, 0, 26, 33
2, 163799, Note_on_c, 0, 26, 0
2, 163800, Note_on_c, 0, 38, 33
2, 163919, Note_on_c, 0, 38, 0
2, 163920, Note_on_c, 0, 26, 33
2, 164039, Note_on_c, 0, 26, 0
2, 164040, Note_on_c, 0, 38, 33
2, 164159, Note_on_c, 0, 38, 0
2, 164160, Note_on_c, 0, 26, 33
2, 164399, Note_on_c, 0, 26, 0
2, 164400, Note_on_c, 0, 38, 33
2, 164519, Note_on_c, 0, 38, 0
2, 164640, Note_on_c, 0, 26, 33
2, 164759, Note_on_c, 0, 26, 0
2, 164880, Note_on_c, 0, 38, 49
2, 165119, Note_on_c, 0, 38, 0
2, 165120, Note_on_c, 0, 59, 49
2, 165120, Note_on_c, 0, 56, 49
2, 165239, Note_on_c, 0, 59, 0
2, 165240, Note_on_c, 0, 65, 49
2, 165359, Note_on_c, 0, 65, 0
2, 165360, Note_on_c, 0, 66, 49
2, 165479, Note_on_c, 0, 66, 0
2, 165480, Note_on_c, 0, 67, 49
2, 165599, Note_on_c, 0, 56, 0
2, 165599, Note_on_c, 0, 67, 0
2, 165600, Note_on_c, 0, 58, 49
2, 165600, Note_on_c, 0, 62, 49
2, 165600, Note_on_c, 0, 68, 49
2, 165839, Note_on_c, 0, 58, 0
2, 165839, Note_on_c, 0, 62, 0
2, 165839, Note_on_c, 0, 68, 0
2, 165840, Note_on_c, 0, 65, 49
2, 165959, Note_on_c, 0, 65, 0
2, 166080, Note_on_c, 0, 50, 49
2, 166319, Note_on_c, 0, 50, 0
2, 166320, Note_on_c, 0, 38, 49
2, 166559, Note_on_c, 0, 38, 0
2, 166560, Note_on_c, 0, 63, 49
2, 166560, Note_on_c, 0, 55, 49
2, 166560, Note_on_c, 0, 60, 49
2, 166679, Note_on_c, 0, 63, 0
2, 166680, Note_on_c, 0, 64, 49
2, 166799, Note_on_c, 0, 64, 0
2, 166800, Note_on_c, 0, 65, 49
2, 166919, Note_on_c, 0, 65, 0
2, 166920, Note_on_c, 0, 66, 49
2, 167039, Note_on_c, 0, 55, 0
2, 167039, Note_on_c, 0, 60, 0
2, 167039, Note_on_c, 0, 66, 0
2, 167040, Note_on_c, 0, 67, 49
2, 167040, Note_on_c, 0, 60, 49
2, 167040, Note_on_c, 0, 63, 49
2, 167159, Note_on_c, 0, 67, 0
2, 167279, Note_on_c, 0, 60, 0
2, 167279, Note_on_c, 0, 63, 0
2, 167280, Note_on_c, 0, 50, 49
2, 167399, Note_on_c, 0, 50, 0
2, 167520, Note_on_c, 0, 38, 49
2, 167759, Note_on_c, 0, 38, 0
2, 167760, Note_on_c, 0, 66, 58
2, 167879, Note_on_c, 0, 66, 0
2, 167880, Note_on_c, 0, 65, 49
2, 167999, Note_on_c, 0, 65, 0
2, 168000, Note_on_c, 0, 64, 49
2, 168119, Note_on_c, 0, 64, 0
2, 168120, Note_on_c, 0, 63, 49
2, 168239, Note_on_c, 0, 63, 0
2, 168240, Note_on_c, 0, 62, 49
2, 168359, Note_on_c, 0, 62, 0
2, 168360, Note_on_c, 0, 61, 49
2, 168479, Note_on_c, 0, 61, 0
2, 168480, Note_on_c, 0, 60, 49
2, 168599, Note_on_c, 0, 60, 0
2, 168600, Note_on_c, 0, 59, 49
2, 168719, Note_on_c, 0, 59, 0
2, 168720, Note_on_c, 0, 58, 49
2, 168839, Note_on_c, 0, 58, 0
2, 168840, Note_on_c, 0, 55, 49
2, 168959, Note_on_c, 0, 55, 0
2, 168960, Note_on_c, 0, 58, 49
2, 168960, Note_on_c, 0, 64, 49
2, 169199, Note_on_c, 0, 58, 0
2, 169199, Note_on_c, 0, 64, 0
2, 169200, Note_on_c, 0, 50, 49
2, 169200, Note_on_c, 0, 57, 49
2, 169200, Note_on_c, 0, 62, 49
2, 169439, Note_on_c, 0, 50, 0
2, 169439, Note_on_c, 0, 57, 0
2, 169439, Note_on_c, 0, 62, 0
2, 169440, Note_on_c, 0, 62, 49
2, 169559, Note_on_c, 0, 62, 0
2, 169560, Note_on_c, 0, 62, 49
2, 169679, Note_on_c, 0, 62, 0
2, 169680, Note_on_c, 0, 62, 49
2, 169799, Note_on_c, 0, 62, 0
2, 169800, Note_on_c, 0, 62, 49
2, 169919, Note_on_c, 0, 62, 0
2, 169920, Note_on_c, 0, 62, 49
2, 170039, Note_on_c, 0, 62, 0
2, 170160, Note_on_c, 0, 62, 49
2, 170160, Note_on_c, 0, 69, 49
2, 170279, Note_on_c, 0, 62, 0
2, 170279, Note_on_c, 0, 69, 0
2, 170280, Note_on_c, 0, 74, 49
2, 170399, Note_on_c, 0, 74, 0
2, 170400, Note_on_c, 0, 74, 49
2, 170400, Note_on_c, 0, 78, 49
2, 170519, Note_on_c, 0, 74, 0
2, 170519, Note_on_c, 0, 78, 0
2, 170520, Note_on_c, 0, 81, 49
2, 170639, Note_on_c, 0, 81, 0
2, 170640, Note_on_c, 0, 75, 112
2, 170640, Note_on_c, 0, 79, 112
2, 170640, Note_on_c, 0, 84, 112
2, 170759, Note_on_c, 0, 75, 0
2, 170759, Note_on_c, 0, 79, 0
2, 170759, Note_on_c, 0, 84, 0
2, 170760, Note_on_c, 0, 86, 108
2, 170879, Note_on_c, 0, 86, 0
2, 170880, Note_on_c, 0, 75, 103
2, 170880, Note_on_c, 0, 79, 103
2, 170880, Note_on_c, 0, 84, 103
2, 170999, Note_on_c, 0, 75, 0
2, 170999, Note_on_c, 0, 79, 0
2, 170999, Note_on_c, 0, 84, 0
2, 171000, Note_on_c, 0, 86, 98
2, 171119, Note_on_c, 0, 86, 0
2, 171120, Note_on_c, 0, 74, 94
2, 171120, Note_on_c, 0, 77, 94
2, 171120, Note_on_c, 0, 82, 94
2, 171239, Note_on_c, 0, 74, 0
2, 171239, Note_on_c, 0, 77, 0
2, 171239, Note_on_c, 0, 82, 0
2, 171240, Note_on_c, 0, 84, 94
2, 171359, Note_on_c, 0, 84, 0
2, 171360, Note_on_c, 0, 72, 94
2, 171360, Note_on_c, 0, 75, 94
2, 171360, Note_on_c, 0, 81, 94
2, 171479, Note_on_c, 0, 72, 0
2, 171479, Note_on_c, 0, 75, 0
2, 171479, Note_on_c, 0, 81, 0
2, 171480, Note_on_c, 0, 82, 94
2, 171599, Note_on_c, 0, 82, 0
2, 171600, Note_on_c, 0, 72, 94
2, 171600, Note_on_c, 0, 75, 94
2, 171600, Note_on_c, 0, 81, 94
2, 171719, Note_on_c, 0, 72, 0
2, 171719, Note_on_c, 0, 75, 0
2, 171719, Note_on_c, 0, 81, 0
2, 171720, Note_on_c, 0, 82, 94
2, 171839, Note_on_c, 0, 82, 0
2, 171840, Note_on_c, 0, 70, 94
2, 171840, Note_on_c, 0, 74, 94
2, 171840, Note_on_c, 0, 79, 94
2, 171959, Note_on_c, 0, 70, 0
2, 171959, Note_on_c, 0, 74, 0
2, 171959, Note_on_c, 0, 79, 0
2, 171960, Note_on_c, 0, 81, 94
2, 172079, Note_on_c, 0, 81, 0
2, 172080, Note_on_c, 0, 69, 94
2, 172080, Note_on_c, 0, 72, 94
2, 172080, Note_on_c, 0, 77, 94
2, 172199, Note_on_c, 0, 69, 0
2, 172199, Note_on_c, 0, 72, 0
2, 172199, Note_on_c, 0, 77, 0
2, 172200, Note_on_c, 0, 79, 94
2, 172319, Note_on_c, 0, 79, 0
2, 172320, Note_on_c, 0, 69, 94
2, 172320, Note_on_c, 0, 72, 94
2, 172320, Note_on_c, 0, 77, 94
2, 172439, Note_on_c, 0, 69, 0
2, 172439, Note_on_c, 0, 72, 0
2, 172439, Note_on_c, 0, 77, 0
2, 172440, Note_on_c, 0, 79, 94
2, 172559, Note_on_c, 0, 79, 0
2, 172560, Note_on_c, 0, 67, 94
2, 172560, Note_on_c, 0, 70, 94
2, 172560, Note_on_c, 0, 75, 94
2, 172679, Note_on_c, 0, 67, 0
2, 172679, Note_on_c, 0, 70, 0
2, 172679, Note_on_c, 0, 75, 0
2, 172680, Note_on_c, 0, 77, 94
2, 172799, Note_on_c, 0, 77, 0
2, 172800, Note_on_c, 0, 65, 94
2, 172800, Note_on_c, 0, 69, 94
2, 172800, Note_on_c, 0, 74, 94
2, 172919, Note_on_c, 0, 65, 0
2, 172919, Note_on_c, 0, 69, 0
2, 172919, Note_on_c, 0, 74, 0
2, 172920, Note_on_c, 0, 75, 94
2, 173039, Note_on_c, 0, 75, 0
2, 173040, Note_on_c, 0, 65, 94
2, 173040, Note_on_c, 0, 69, 94
2, 173040, Note_on_c, 0, 74, 94
2, 173159, Note_on_c, 0, 65, 0
2, 173159, Note_on_c, 0, 69, 0
2, 173159, Note_on_c, 0, 74, 0
2, 173160, Note_on_c, 0, 75, 94
2, 173279, Note_on_c, 0, 75, 0
2, 173280, Note_on_c, 0, 63, 94
2, 173280, Note_on_c, 0, 67, 94
2, 173280, Note_on_c, 0, 72, 94
2, 173399, Note_on_c, 0, 63, 0
2, 173399, Note_on_c, 0, 67, 0
2, 173399, Note_on_c, 0, 72, 0
2, 173400, Note_on_c, 0, 74, 94
2, 173519, Note_on_c, 0, 74, 0
2, 173520, Note_on_c, 0, 62, 96
2, 173520, Note_on_c, 0, 65, 96
2, 173520, Note_on_c, 0, 70, 96
2, 173639, Note_on_c, 0, 62, 0
2, 173639, Note_on_c, 0, 65, 0
2, 173639, Note_on_c, 0, 70, 0
2, 173640, Note_on_c, 0, 72, 96
2, 173759, Note_on_c, 0, 72, 0
2, 173760, Note_on_c, 0, 62, 96
2, 173760, Note_on_c, 0, 65, 96
2, 173760, Note_on_c, 0, 70, 96
2, 173879, Note_on_c, 0, 62, 0
2, 173879, Note_on_c, 0, 65, 0
2, 173879, Note_on_c, 0, 70, 0
2, 173880, Note_on_c, 0, 72, 96
2, 173999, Note_on_c, 0, 72, 0
2, 174000, Note_on_c, 0, 60, 96
2, 174000, Note_on_c, 0, 63, 96
2, 174000, Note_on_c, 0, 69, 96
2, 174119, Note_on_c, 0, 60, 0
2, 174119, Note_on_c, 0, 63, 0
2, 174119, Note_on_c, 0, 69, 0
2, 174120, Note_on_c, 0, 70, 96
2, 174239, Note_on_c, 0, 70, 0
2, 174240, Note_on_c, 0, 58, 96
2, 174240, Note_on_c, 0, 62, 96
2, 174240, Note_on_c, 0, 67, 96
2, 174359, Note_on_c, 0, 58, 0
2, 174359, Note_on_c, 0, 62, 0
2, 174359, Note_on_c, 0, 67, 0
2, 174360, Note_on_c, 0, 69, 96
2, 174479, Note_on_c, 0, 69, 0
2, 174480, Note_on_c, 0, 58, 96
2, 174480, Note_on_c, 0, 62, 96
2, 174480, Note_on_c, 0, 67, 96
2, 174599, Note_on_c, 0, 58, 0
2, 174599, Note_on_c, 0, 62, 0
2, 174599, Note_on_c, 0, 67, 0
2, 174600, Note_on_c, 0, 69, 96
2, 174719, Note_on_c, 0, 69, 0
2, 174720, Note_on_c, 0, 57, 96
2, 174720, Note_on_c, 0, 60, 96
2, 174720, Note_on_c, 0, 65, 96
2, 174839, Note_on_c, 0, 57, 0
2, 174839, Note_on_c, 0, 60, 0
2, 174839, Note_on_c, 0, 65, 0
2, 174840, Note_on_c, 0, 67, 96
2, 174959, Note_on_c, 0, 67, 0
2, 174960, Note_on_c, 0, 55, 96
2, 174960, Note_on_c, 0, 58, 96
2, 174960, Note_on_c, 0, 63, 96
2, 175079, Note_on_c, 0, 55, 0
2, 175079, Note_on_c, 0, 58, 0
2, 175079, Note_on_c, 0, 63, 0
2, 175080, Note_on_c, 0, 65, 96
2, 175199, Note_on_c, 0, 65, 0
2, 175200, Note_on_c, 0, 55, 96
2, 175200, Note_on_c, 0, 58, 96
2, 175200, Note_on_c, 0, 63, 96
2, 175319, Note_on_c, 0, 55, 0
2, 175319, Note_on_c, 0, 58, 0
2, 175319, Note_on_c, 0, 63, 0
2, 175320, Note_on_c, 0, 65, 96
2, 175439, Note_on_c, 0, 65, 0
2, 175440, Note_on_c, 0, 53, 96
2, 175440, Note_on_c, 0, 57, 96
2, 175440, Note_on_c, 0, 62, 96
2, 175559, Note_on_c, 0, 53, 0
2, 175559, Note_on_c, 0, 57, 0
2, 175559, Note_on_c, 0, 62, 0
2, 175560, Note_on_c, 0, 63, 96
2, 175679, Note_on_c, 0, 63, 0
2, 175680, Note_on_c, 0, 51, 96
2, 175680, Note_on_c, 0, 55, 96
2, 175680, Note_on_c, 0, 60, 96
2, 175799, Note_on_c, 0, 51, 0
2, 175799, Note_on_c, 0, 55, 0
2, 175799, Note_on_c, 0, 60, 0
2, 175800, Note_on_c, 0, 62, 96
2, 175919, Note_on_c, 0, 62, 0
2, 175920, Note_on_c, 0, 51, 96
2, 175920, Note_on_c, 0, 55, 96
2, 175920, Note_on_c, 0, 60, 96
2, 176039, Note_on_c, 0, 51, 0
2, 176039, Note_on_c, 0, 55, 0
2, 176039, Note_on_c, 0, 60, 0
2, 176040, Note_on_c, 0, 62, 96
2, 176159, Note_on_c, 0, 62, 0
2, 176160, Note_on_c, 0, 50, 96
2, 176160, Note_on_c, 0, 53, 96
2, 176160, Note_on_c, 0, 58, 96
2, 176279, Note_on_c, 0, 50, 0
2, 176279, Note_on_c, 0, 53, 0
2, 176279, Note_on_c, 0, 58, 0
2, 176280, Note_on_c, 0, 60, 96
2, 176399, Note_on_c, 0, 60, 0
2, 176400, Note_on_c, 0, 48, 96
2, 176400, Note_on_c, 0, 51, 96
2, 176400, Note_on_c, 0, 57, 96
2, 176639, Note_on_c, 0, 48, 0
2, 176639, Note_on_c, 0, 51, 0
2, 176639, Note_on_c, 0, 57, 0
2, 176640, Note_on_c, 0, 60, 96
2, 176759, Note_on_c, 0, 60, 0
2, 176760, Note_on_c, 0, 58, 96
2, 176879, Note_on_c, 0, 58, 0
2, 176880, Note_on_c, 0, 48, 96
2, 176880, Note_on_c, 0, 57, 96
2, 176999, Note_on_c, 0, 48, 0
2, 176999, Note_on_c, 0, 57, 0
2, 177000, Note_on_c, 0, 55, 96
2, 177119, Note_on_c, 0, 55, 0
2, 177120, Note_on_c, 0, 54, 96
2, 177120, Note_on_c, 0, 57, 96
2, 177239, Note_on_c, 0, 54, 0
2, 177239, Note_on_c, 0, 57, 0
2, 177240, Note_on_c, 0, 58, 96
2, 177359, Note_on_c, 0, 58, 0
2, 177360, Note_on_c, 0, 60, 96
2, 177479, Note_on_c, 0, 60, 0
2, 177480, Note_on_c, 0, 58, 96
2, 177599, Note_on_c, 0, 58, 0
2, 177600, Note_on_c, 0, 48, 96
2, 177600, Note_on_c, 0, 57, 96
2, 177719, Note_on_c, 0, 48, 0
2, 177719, Note_on_c, 0, 57, 0
2, 177720, Note_on_c, 0, 55, 96
2, 177839, Note_on_c, 0, 55, 0
2, 177840, Note_on_c, 0, 54, 96
2, 177840, Note_on_c, 0, 57, 96
2, 177959, Note_on_c, 0, 54, 0
2, 177959, Note_on_c, 0, 57, 0
2, 177960, Note_on_c, 0, 58, 96
2, 178079, Note_on_c, 0, 58, 0
2, 178080, Note_on_c, 0, 60, 96
2, 178200, Note_on_c, 0, 58, 96
2, 178319, Note_on_c, 0, 58, 0
2, 178320, Note_on_c, 0, 48, 96
2, 178320, Note_on_c, 0, 57, 96
2, 178439, Note_on_c, 0, 48, 0
2, 178439, Note_on_c, 0, 57, 0
2, 178440, Note_on_c, 0, 55, 96
2, 178559, Note_on_c, 0, 60, 0
2, 178559, Note_on_c, 0, 55, 0
2, 178560, Note_on_c, 0, 54, 96
2, 178560, Note_on_c, 0, 57, 96
2, 178679, Note_on_c, 0, 54, 0
2, 178679, Note_on_c, 0, 57, 0
2, 178680, Note_on_c, 0, 58, 96
2, 178799, Note_on_c, 0, 58, 0
2, 178800, Note_on_c, 0, 60, 96
2, 178919, Note_on_c, 0, 60, 0
2, 178920, Note_on_c, 0, 58, 96
2, 179039, Note_on_c, 0, 58, 0
2, 179040, Note_on_c, 0, 48, 96
2, 179040, Note_on_c, 0, 57, 96
2, 179159, Note_on_c, 0, 48, 0
2, 179159, Note_on_c, 0, 57, 0
2, 179160, Note_on_c, 0, 55, 96
2, 179279, Note_on_c, 0, 55, 0
2, 179280, Note_on_c, 0, 54, 96
2, 179519, Note_on_c, 0, 54, 0
2, 179520, Note_on_c, 0, 38, 96
2, 179639, Note_on_c, 0, 38, 0
2, 179640, Note_on_c, 0, 40, 96
2, 179759, Note_on_c, 0, 40, 0
2, 179760, Note_on_c, 0, 42, 96
2, 179879, Note_on_c, 0, 42, 0
2, 179880, Note_on_c, 0, 43, 96
2, 179999, Note_on_c, 0, 43, 0
2, 180000, Note_on_c, 0, 44, 96
2, 180119, Note_on_c, 0, 44, 0
2, 180120, Note_on_c, 0, 45, 96
2, 180239, Note_on_c, 0, 45, 0
2, 180240, Note_on_c, 0, 46, 96
2, 180359, Note_on_c, 0, 46, 0
2, 180360, Note_on_c, 0, 47, 96
2, 180479, Note_on_c, 0, 47, 0
2, 180480, Note_on_c, 0, 48, 96
2, 180599, Note_on_c, 0, 48, 0
2, 180600, Note_on_c, 0, 49, 96
2, 180719, Note_on_c, 0, 49, 0
2, 180720, Note_on_c, 0, 50, 96
2, 180839, Note_on_c, 0, 50, 0
2, 180840, Note_on_c, 0, 51, 96
2, 180959, Note_on_c, 0, 51, 0
2, 180960, Note_on_c, 0, 52, 96
2, 181079, Note_on_c, 0, 52, 0
2, 181080, Note_on_c, 0, 53, 96
2, 181199, Note_on_c, 0, 53, 0
2, 181200, Note_on_c, 0, 54, 96
2, 181319, Note_on_c, 0, 54, 0
2, 181320, Note_on_c, 0, 55, 96
2, 181439, Note_on_c, 0, 55, 0
2, 181440, Note_on_c, 0, 56, 96
2, 181559, Note_on_c, 0, 56, 0
2, 181560, Note_on_c, 0, 57, 96
2, 181679, Note_on_c, 0, 57, 0
2, 181680, Note_on_c, 0, 58, 96
2, 181799, Note_on_c, 0, 58, 0
2, 181800, Note_on_c, 0, 59, 96
2, 181919, Note_on_c, 0, 59, 0
2, 181920, Note_on_c, 0, 60, 96
2, 182039, Note_on_c, 0, 60, 0
2, 182040, Note_on_c, 0, 61, 96
2, 182159, Note_on_c, 0, 61, 0
2, 182160, Note_on_c, 0, 62, 96
2, 182279, Note_on_c, 0, 62, 0
2, 183600, Note_on_c, 0, 74, 96
2, 183719, Note_on_c, 0, 74, 0
2, 183840, Note_on_c, 0, 73, 96
2, 183959, Note_on_c, 0, 73, 0
2, 184080, Note_on_c, 0, 72, 96
2, 184199, Note_on_c, 0, 72, 0
2, 184320, Note_on_c, 0, 71, 96
2, 184320, Note_on_c, 0, 73, 96
2, 184439, Note_on_c, 0, 71, 0
2, 184439, Note_on_c, 0, 73, 0
2, 184560, Note_on_c, 0, 70, 96
2, 184560, Note_on_c, 0, 74, 96
2, 184679, Note_on_c, 0, 70, 0
2, 184679, Note_on_c, 0, 74, 0
2, 184800, Note_on_c, 0, 69, 96
2, 184800, Note_on_c, 0, 74, 96
2, 184919, Note_on_c, 0, 69, 0
2, 184919, Note_on_c, 0, 74, 0
2, 185040, Note_on_c, 0, 67, 49
2, 185040, Note_on_c, 0, 70, 49
2, 185040, Note_on_c, 0, 74, 49
2, 185159, Note_on_c, 0, 67, 0
2, 185159, Note_on_c, 0, 70, 0
2, 185159, Note_on_c, 0, 74, 0
2, 185280, Note_on_c, 0, 79, 58
2, 185280, Note_on_c, 0, 81, 58
2, 185280, Note_on_c, 0, 84, 58
2, 185399, Note_on_c, 0, 79, 0
2, 185399, Note_on_c, 0, 81, 0
2, 185399, Note_on_c, 0, 84, 0
2, 185400, Note_on_c, 0, 74, 58
2, 185519, Note_on_c, 0, 74, 0
2, 185520, Note_on_c, 0, 78, 58
2, 185520, Note_on_c, 0, 81, 58
2, 185639, Note_on_c, 0, 78, 0
2, 185639, Note_on_c, 0, 81, 0
2, 185640, Note_on_c, 0, 74, 49
2, 185759, Note_on_c, 0, 74, 0
2, 185760, Note_on_c, 0, 79, 49
2, 185760, Note_on_c, 0, 82, 49
2, 185879, Note_on_c, 0, 79, 0
2, 185879, Note_on_c, 0, 82, 0
2, 186000, Note_on_c, 0, 74, 49
2, 186000, Note_on_c, 0, 79, 49
2, 186119, Note_on_c, 0, 74, 0
2, 186119, Note_on_c, 0, 79, 0
2, 186240, Note_on_c, 0, 70, 49
2, 186240, Note_on_c, 0, 74, 49
2, 186359, Note_on_c, 0, 70, 0
2, 186359, Note_on_c, 0, 74, 0
2, 186480, Note_on_c, 0, 55, 49
2, 186480, Note_on_c, 0, 62, 49
2, 186480, Note_on_c, 0, 70, 49
2, 186599, Note_on_c, 0, 55, 0
2, 186599, Note_on_c, 0, 62, 0
2, 186599, Note_on_c, 0, 70, 0
2, 186720, Note_on_c, 0, 67, 49
2, 186720, Note_on_c, 0, 69, 49
2, 186720, Note_on_c, 0, 72, 49
2, 186839, Note_on_c, 0, 67, 0
2, 186839, Note_on_c, 0, 69, 0
2, 186839, Note_on_c, 0, 72, 0
2, 186840, Note_on_c, 0, 62, 49
2, 186959, Note_on_c, 0, 62, 0
2, 186960, Note_on_c, 0, 67, 49
2, 186960, Note_on_c, 0, 69, 49
2, 186960, Note_on_c, 0, 72, 49
2, 187079, Note_on_c, 0, 67, 0
2, 187079, Note_on_c, 0, 69, 0
2, 187079, Note_on_c, 0, 72, 0
2, 187080, Note_on_c, 0, 62, 49
2, 187199, Note_on_c, 0, 62, 0
2, 187200, Note_on_c, 0, 67, 49
2, 187200, Note_on_c, 0, 70, 49
2, 187319, Note_on_c, 0, 67, 0
2, 187319, Note_on_c, 0, 70, 0
2, 187560, Note_on_c, 0, 62, 49
2, 187679, Note_on_c, 0, 62, 0
2, 187680, Note_on_c, 0, 67, 49
2, 187799, Note_on_c, 0, 67, 0
2, 187800, Note_on_c, 0, 70, 49
2, 187919, Note_on_c, 0, 70, 0
2, 187920, Note_on_c, 0, 67, 49
2, 187920, Note_on_c, 0, 70, 49
2, 187920, Note_on_c, 0, 74, 49
2, 188159, Note_on_c, 0, 67, 0
2, 188159, Note_on_c, 0, 70, 0
2, 188159, Note_on_c, 0, 74, 0
2, 188160, Note_on_c, 0, 60, 49
2, 188160, Note_on_c, 0, 50, 49
2, 188279, Note_on_c, 0, 60, 0
2, 188280, Note_on_c, 0, 62, 49
2, 188399, Note_on_c, 0, 50, 0
2, 188399, Note_on_c, 0, 62, 0
2, 188400, Note_on_c, 0, 62, 49
2, 188519, Note_on_c, 0, 62, 0
2, 188520, Note_on_c, 0, 62, 49
2, 188639, Note_on_c, 0, 62, 0
2, 188640, Note_on_c, 0, 55, 49
2, 188640, Note_on_c, 0, 58, 49
2, 188879, Note_on_c, 0, 55, 0
2, 188879, Note_on_c, 0, 58, 0
2, 188880, Note_on_c, 0, 50, 49
2, 188880, Note_on_c, 0, 60, 49
2, 188999, Note_on_c, 0, 50, 0
2, 188999, Note_on_c, 0, 60, 0
2, 189000, Note_on_c, 0, 62, 49
2, 189119, Note_on_c, 0, 62, 0
2, 189120, Note_on_c, 0, 62, 49
2, 189239, Note_on_c, 0, 62, 0
2, 189240, Note_on_c, 0, 62, 49
2, 189359, Note_on_c, 0, 62, 0
2, 189360, Note_on_c, 0, 55, 49
2, 189360, Note_on_c, 0, 58, 49
2, 189599, Note_on_c, 0, 55, 0
2, 189599, Note_on_c, 0, 58, 0
2, 189600, Note_on_c, 0, 50, 49
2, 189600, Note_on_c, 0, 60, 49
2, 189719, Note_on_c, 0, 50, 0
2, 189719, Note_on_c, 0, 60, 0
2, 189720, Note_on_c, 0, 62, 49
2, 189839, Note_on_c, 0, 62, 0
2, 189840, Note_on_c, 0, 62, 49
2, 189959, Note_on_c, 0, 62, 0
2, 189960, Note_on_c, 0, 62, 49
2, 190079, Note_on_c, 0, 62, 0
2, 190080, Note_on_c, 0, 55, 49
2, 190080, Note_on_c, 0, 58, 49
2, 190319, Note_on_c, 0, 55, 0
2, 190319, Note_on_c, 0, 58, 0
2, 190320, Note_on_c, 0, 67, 49
2, 190320, Note_on_c, 0, 67, 0
2, 190320, Note_on_c, 0, 67, 49
2, 190440, Note_on_c, 0, 68, 49
2, 190559, Note_on_c, 0, 67, 0
2, 190559, Note_on_c, 0, 68, 0
2, 190560, Note_on_c, 0, 69, 49
2, 190560, Note_on_c, 0, 67, 49
2, 190799, Note_on_c, 0, 69, 0
2, 190799, Note_on_c, 0, 67, 0
2, 190800, Note_on_c, 0, 48, 49
2, 190800, Note_on_c, 0, 55, 49
2, 190800, Note_on_c, 0, 63, 49
2, 191039, Note_on_c, 0, 48, 0
2, 191039, Note_on_c, 0, 55, 0
2, 191039, Note_on_c, 0, 63, 0
2, 191040, Note_on_c, 0, 72, 49
2, 191040, Note_on_c, 0, 74, 49
2, 191040, Note_on_c, 0, 79, 49
2, 191159, Note_on_c, 0, 72, 0
2, 191159, Note_on_c, 0, 74, 0
2, 191159, Note_on_c, 0, 79, 0
2, 191160, Note_on_c, 0, 67, 49
2, 191279, Note_on_c, 0, 67, 0
2, 191280, Note_on_c, 0, 71, 49
2, 191280, Note_on_c, 0, 74, 49
2, 191399, Note_on_c, 0, 71, 0
2, 191399, Note_on_c, 0, 74, 0
2, 191400, Note_on_c, 0, 67, 49
2, 191519, Note_on_c, 0, 67, 0
2, 191520, Note_on_c, 0, 72, 49
2, 191520, Note_on_c, 0, 75, 49
2, 191639, Note_on_c, 0, 72, 0
2, 191639, Note_on_c, 0, 75, 0
2, 191760, Note_on_c, 0, 67, 49
2, 191760, Note_on_c, 0, 72, 49
2, 191879, Note_on_c, 0, 67, 0
2, 191879, Note_on_c, 0, 72, 0
2, 192000, Note_on_c, 0, 63, 49
2, 192000, Note_on_c, 0, 67, 49
2, 192119, Note_on_c, 0, 63, 0
2, 192119, Note_on_c, 0, 67, 0
2, 192240, Note_on_c, 0, 48, 49
2, 192240, Note_on_c, 0, 55, 49
2, 192240, Note_on_c, 0, 63, 49
2, 192359, Note_on_c, 0, 48, 0
2, 192359, Note_on_c, 0, 55, 0
2, 192359, Note_on_c, 0, 63, 0
2, 192480, Note_on_c, 0, 60, 49
2, 192480, Note_on_c, 0, 62, 49
2, 192480, Note_on_c, 0, 65, 49
2, 192599, Note_on_c, 0, 60, 0
2, 192599, Note_on_c, 0, 62, 0
2, 192599, Note_on_c, 0, 65, 0
2, 192600, Note_on_c, 0, 55, 49
2, 192719, Note_on_c, 0, 55, 0
2, 192720, Note_on_c, 0, 60, 49
2, 192720, Note_on_c, 0, 62, 49
2, 192720, Note_on_c, 0, 65, 49
2, 192839, Note_on_c, 0, 60, 0
2, 192839, Note_on_c, 0, 62, 0
2, 192839, Note_on_c, 0, 65, 0
2, 192840, Note_on_c, 0, 55, 49
2, 192959, Note_on_c, 0, 55, 0
2, 192960, Note_on_c, 0, 60, 49
2, 192960, Note_on_c, 0, 63, 49
2, 193079, Note_on_c, 0, 60, 0
2, 193079, Note_on_c, 0, 63, 0
2, 193320, Note_on_c, 0, 55, 49
2, 193379, Note_on_c, 0, 55, 0
2, 193440, Note_on_c, 0, 60, 49
2, 193499, Note_on_c, 0, 60, 0
2, 193560, Note_on_c, 0, 63, 49
2, 193619, Note_on_c, 0, 63, 0
2, 193680, Note_on_c, 0, 60, 58
2, 193680, Note_on_c, 0, 63, 58
2, 193680, Note_on_c, 0, 67, 58
2, 193919, Note_on_c, 0, 60, 0
2, 193919, Note_on_c, 0, 63, 0
2, 193919, Note_on_c, 0, 67, 0
2, 193920, Note_on_c, 0, 55, 49
2, 193920, Note_on_c, 0, 48, 49
2, 194039, Note_on_c, 0, 55, 0
2, 194040, Note_on_c, 0, 55, 49
2, 194159, Note_on_c, 0, 55, 0
2, 194160, Note_on_c, 0, 55, 49
2, 194279, Note_on_c, 0, 55, 0
2, 194280, Note_on_c, 0, 55, 49
2, 194399, Note_on_c, 0, 55, 0
2, 194400, Note_on_c, 0, 55, 49
2, 194639, Note_on_c, 0, 48, 0
2, 194639, Note_on_c, 0, 55, 0
2, 194640, Note_on_c, 0, 55, 49
2, 194640, Note_on_c, 0, 48, 49
2, 194759, Note_on_c, 0, 55, 0
2, 194760, Note_on_c, 0, 55, 49
2, 194879, Note_on_c, 0, 55, 0
2, 194880, Note_on_c, 0, 55, 49
2, 194999, Note_on_c, 0, 55, 0
2, 195000, Note_on_c, 0, 55, 49
2, 195119, Note_on_c, 0, 55, 0
2, 195120, Note_on_c, 0, 55, 49
2, 195359, Note_on_c, 0, 48, 0
2, 195359, Note_on_c, 0, 55, 0
2, 195360, Note_on_c, 0, 55, 49
2, 195360, Note_on_c, 0, 48, 49
2, 195479, Note_on_c, 0, 55, 0
2, 195480, Note_on_c, 0, 55, 49
2, 195599, Note_on_c, 0, 55, 0
2, 195600, Note_on_c, 0, 55, 49
2, 195719, Note_on_c, 0, 55, 0
2, 195720, Note_on_c, 0, 55, 49
2, 195839, Note_on_c, 0, 55, 0
2, 195840, Note_on_c, 0, 55, 49
2, 195959, Note_on_c, 0, 55, 0
2, 196079, Note_on_c, 0, 48, 0
2, 196080, Note_on_c, 0, 55, 49
2, 196199, Note_on_c, 0, 55, 0
2, 196320, Note_on_c, 0, 60, 49
2, 196320, Note_on_c, 0, 63, 49
2, 196439, Note_on_c, 0, 60, 0
2, 196439, Note_on_c, 0, 63, 0
2, 196560, Note_on_c, 0, 33, 112
2, 196560, Note_on_c, 0, 45, 112
2, 196800, Note_on_c, 0, 52, 103
2, 196800, Note_on_c, 0, 55, 103
2, 196800, Note_on_c, 0, 58, 103
2, 196919, Note_on_c, 0, 52, 0
2, 196919, Note_on_c, 0, 55, 0
2, 196919, Note_on_c, 0, 58, 0
2, 197040, Note_on_c, 0, 55, 94
2, 197040, Note_on_c, 0, 58, 94
2, 197040, Note_on_c, 0, 62, 94
2, 197159, Note_on_c, 0, 55, 0
2, 197159, Note_on_c, 0, 58, 0
2, 197159, Note_on_c, 0, 62, 0
2, 197279, Note_on_c, 0, 33, 0
2, 197279, Note_on_c, 0, 45, 0
2, 197280, Note_on_c, 0, 55, 94
2, 197280, Note_on_c, 0, 58, 94
2, 197280, Note_on_c, 0, 64, 94
2, 197399, Note_on_c, 0, 55, 0
2, 197399, Note_on_c, 0, 58, 0
2, 197399, Note_on_c, 0, 64, 0
2, 198000, Note_on_c, 0, 33, 112
2, 198000, Note_on_c, 0, 45, 112
2, 198240, Note_on_c, 0, 52, 103
2, 198240, Note_on_c, 0, 55, 103
2, 198240, Note_on_c, 0, 58, 103
2, 198359, Note_on_c, 0, 52, 0
2, 198359, Note_on_c, 0, 55, 0
2, 198359, Note_on_c, 0, 58, 0
2, 198480, Note_on_c, 0, 55, 94
2, 198480, Note_on_c, 0, 58, 94
2, 198480, Note_on_c, 0, 62, 94
2, 198599, Note_on_c, 0, 55, 0
2, 198599, Note_on_c, 0, 58, 0
2, 198599, Note_on_c, 0, 62, 0
2, 198719, Note_on_c, 0, 33, 0
2, 198719, Note_on_c, 0, 45, 0
2, 198720, Note_on_c, 0, 55, 94
2, 198720, Note_on_c, 0, 58, 94
2, 198720, Note_on_c, 0, 64, 94
2, 198839, Note_on_c, 0, 55, 0
2, 198839, Note_on_c, 0, 58, 0
2, 198839, Note_on_c, 0, 64, 0
2, 199440, Note_on_c, 0, 33, 112
2, 199440, Note_on_c, 0, 45, 112
2, 199680, Note_on_c, 0, 52, 103
2, 199680, Note_on_c, 0, 55, 103
2, 199680, Note_on_c, 0, 58, 103
2, 199799, Note_on_c, 0, 52, 0
2, 199799, Note_on_c, 0, 55, 0
2, 199799, Note_on_c, 0, 58, 0
2, 199920, Note_on_c, 0, 55, 94
2, 199920, Note_on_c, 0, 58, 94
2, 199920, Note_on_c, 0, 62, 94
2, 200039, Note_on_c, 0, 55, 0
2, 200039, Note_on_c, 0, 58, 0
2, 200039, Note_on_c, 0, 62, 0
2, 200159, Note_on_c, 0, 33, 0
2, 200159, Note_on_c, 0, 45, 0
2, 200160, Note_on_c, 0, 55, 94
2, 200160, Note_on_c, 0, 58, 94
2, 200160, Note_on_c, 0, 64, 94
2, 200279, Note_on_c, 0, 55, 0
2, 200279, Note_on_c, 0, 58, 0
2, 200279, Note_on_c, 0, 64, 0
2, 200640, Note_on_c, 0, 55, 49
2, 200640, Note_on_c, 0, 64, 49
2, 200879, Note_on_c, 0, 55, 0
2, 200879, Note_on_c, 0, 64, 0
2, 200880, Note_on_c, 0, 54, 49
2, 200880, Note_on_c, 0, 62, 49
2, 201000, Note_on_c, 0, 62, 0
2, 201119, Note_on_c, 0, 54, 0
2, 201120, Note_on_c, 0, 63, 49
2, 201239, Note_on_c, 0, 63, 0
2, 201240, Note_on_c, 0, 54, 49
2, 201359, Note_on_c, 0, 54, 0
2, 201360, Note_on_c, 0, 62, 49
2, 201479, Note_on_c, 0, 62, 0
2, 201480, Note_on_c, 0, 55, 49
2, 201599, Note_on_c, 0, 55, 0
2, 201600, Note_on_c, 0, 60, 49
2, 201719, Note_on_c, 0, 60, 0
2, 201720, Note_on_c, 0, 48, 49
2, 201839, Note_on_c, 0, 48, 0
2, 201840, Note_on_c, 0, 58, 49
2, 201959, Note_on_c, 0, 58, 0
2, 201960, Note_on_c, 0, 50, 49
2, 202079, Note_on_c, 0, 50, 0
2, 202080, Note_on_c, 0, 57, 49
2, 202319, Note_on_c, 0, 57, 0
2, 202320, Note_on_c, 0, 33, 49
2, 202320, Note_on_c, 0, 45, 49
2, 202560, Note_on_c, 0, 52, 49
2, 202560, Note_on_c, 0, 55, 49
2, 202679, Note_on_c, 0, 52, 0
2, 202679, Note_on_c, 0, 55, 0
2, 202680, Note_on_c, 0, 57, 49
2, 202799, Note_on_c, 0, 57, 0
2, 202800, Note_on_c, 0, 58, 49
2, 202919, Note_on_c, 0, 58, 0
2, 202920, Note_on_c, 0, 62, 49
2, 203039, Note_on_c, 0, 33, 0
2, 203039, Note_on_c, 0, 45, 0
2, 203039, Note_on_c, 0, 62, 0
2, 203040, Note_on_c, 0, 55, 49
2, 203040, Note_on_c, 0, 58, 49
2, 203040, Note_on_c, 0, 64, 49
2, 203280, Note_on_c, 0, 64, 0
2, 203280, Note_on_c, 0, 64, 49
2, 203280, Note_on_c, 0, 67, 49
2, 203399, Note_on_c, 0, 67, 0
2, 203520, Note_on_c, 0, 70, 49
2, 203520, Note_on_c, 0, 73, 49
2, 203639, Note_on_c, 0, 70, 0
2, 203639, Note_on_c, 0, 73, 0
2, 203759, Note_on_c, 0, 55, 0
2, 203759, Note_on_c, 0, 58, 0
2, 203759, Note_on_c, 0, 64, 0
2, 203760, Note_on_c, 0, 33, 112
2, 203760, Note_on_c, 0, 45, 112
2, 204000, Note_on_c, 0, 52, 103
2, 204000, Note_on_c, 0, 55, 103
2, 204119, Note_on_c, 0, 52, 0
2, 204119, Note_on_c, 0, 55, 0
2, 204120, Note_on_c, 0, 57, 98
2, 204239, Note_on_c, 0, 57, 0
2, 204240, Note_on_c, 0, 58, 94
2, 204359, Note_on_c, 0, 58, 0
2, 204360, Note_on_c, 0, 62, 94
2, 204479, Note_on_c, 0, 33, 0
2, 204479, Note_on_c, 0, 45, 0
2, 204479, Note_on_c, 0, 62, 0
2, 204480, Note_on_c, 0, 55, 94
2, 204480, Note_on_c, 0, 58, 94
2, 204480, Note_on_c, 0, 64, 94
2, 204720, Note_on_c, 0, 64, 0
2, 204720, Note_on_c, 0, 64, 94
2, 204720, Note_on_c, 0, 67, 94
2, 204839, Note_on_c, 0, 67, 0
2, 204960, Note_on_c, 0, 70, 94
2, 204960, Note_on_c, 0, 73, 94
2, 205079, Note_on_c, 0, 70, 0
2, 205079, Note_on_c, 0, 73, 0
2, 205199, Note_on_c, 0, 55, 0
2, 205199, Note_on_c, 0, 58, 0
2, 205199, Note_on_c, 0, 64, 0
2, 205200, Note_on_c, 0, 33, 112
2, 205200, Note_on_c, 0, 45, 112
2, 205440, Note_on_c, 0, 52, 103
2, 205440, Note_on_c, 0, 55, 103
2, 205559, Note_on_c, 0, 52, 0
2, 205559, Note_on_c, 0, 55, 0
2, 205560, Note_on_c, 0, 57, 98
2, 205679, Note_on_c, 0, 57, 0
2, 205680, Note_on_c, 0, 58, 94
2, 205799, Note_on_c, 0, 58, 0
2, 205800, Note_on_c, 0, 62, 94
2, 205919, Note_on_c, 0, 33, 0
2, 205919, Note_on_c, 0, 45, 0
2, 205919, Note_on_c, 0, 62, 0
2, 205920, Note_on_c, 0, 55, 94
2, 205920, Note_on_c, 0, 58, 94
2, 205920, Note_on_c, 0, 64, 94
2, 206159, Note_on_c, 0, 55, 0
2, 206159, Note_on_c, 0, 58, 0
2, 206159, Note_on_c, 0, 64, 0
2, 206160, Note_on_c, 0, 64, 94
2, 206160, Note_on_c, 0, 67, 94
2, 206279, Note_on_c, 0, 64, 0
2, 206279, Note_on_c, 0, 67, 0
2, 206400, Note_on_c, 0, 55, 94
2, 206400, Note_on_c, 0, 64, 94
2, 206519, Note_on_c, 0, 55, 0
2, 206519, Note_on_c, 0, 64, 0
2, 206640, Note_on_c, 0, 54, 94
2, 206640, Note_on_c, 0, 62, 94
2, 206759, Note_on_c, 0, 54, 0
2, 206759, Note_on_c, 0, 62, 0
2, 207000, Note_on_c, 0, 66, 49
2, 207119, Note_on_c, 0, 66, 0
2, 207120, Note_on_c, 0, 70, 49
2, 207239, Note_on_c, 0, 70, 0
2, 207240, Note_on_c, 0, 67, 49
2, 207359, Note_on_c, 0, 67, 0
2, 207480, Note_on_c, 0, 66, 49
2, 207599, Note_on_c, 0, 66, 0
2, 207600, Note_on_c, 0, 70, 49
2, 207719, Note_on_c, 0, 70, 0
2, 207720, Note_on_c, 0, 67, 49
2, 207839, Note_on_c, 0, 67, 0
2, 207960, Note_on_c, 0, 62, 49
2, 208079, Note_on_c, 0, 62, 0
2, 208080, Note_on_c, 0, 67, 49
2, 208199, Note_on_c, 0, 67, 0
2, 208200, Note_on_c, 0, 63, 49
2, 208319, Note_on_c, 0, 63, 0
2, 208440, Note_on_c, 0, 62, 49
2, 208559, Note_on_c, 0, 62, 0
2, 208560, Note_on_c, 0, 67, 49
2, 208679, Note_on_c, 0, 67, 0
2, 208680, Note_on_c, 0, 63, 49
2, 208799, Note_on_c, 0, 63, 0
2, 208920, Note_on_c, 0, 59, 49
2, 209039, Note_on_c, 0, 59, 0
2, 209040, Note_on_c, 0, 63, 49
2, 209159, Note_on_c, 0, 63, 0
2, 209160, Note_on_c, 0, 60, 49
2, 209279, Note_on_c, 0, 60, 0
2, 209400, Note_on_c, 0, 59, 49
2, 209519, Note_on_c, 0, 59, 0
2, 209520, Note_on_c, 0, 63, 49
2, 209639, Note_on_c, 0, 63, 0
2, 209640, Note_on_c, 0, 60, 49
2, 209759, Note_on_c, 0, 60, 0
2, 209880, Note_on_c, 0, 55, 49
2, 209999, Note_on_c, 0, 55, 0
2, 210000, Note_on_c, 0, 60, 49
2, 210119, Note_on_c, 0, 60, 0
2, 210120, Note_on_c, 0, 56, 49
2, 210239, Note_on_c, 0, 56, 0
2, 210360, Note_on_c, 0, 55, 49
2, 210479, Note_on_c, 0, 55, 0
2, 210480, Note_on_c, 0, 60, 49
2, 210599, Note_on_c, 0, 60, 0
2, 210600, Note_on_c, 0, 56, 49
2, 210719, Note_on_c, 0, 56, 0
2, 210720, Note_on_c, 0, 54, 49
2, 210959, Note_on_c, 0, 54, 0
2, 210960, Note_on_c, 0, 55, 49
2, 211079, Note_on_c, 0, 55, 0
2, 211200, Note_on_c, 0, 50, 49
2, 211200, Note_on_c, 0, 58, 49
2, 211319, Note_on_c, 0, 50, 0
2, 211319, Note_on_c, 0, 58, 0
2, 211440, Note_on_c, 0, 39, 49
2, 211440, Note_on_c, 0, 51, 49
2, 211559, Note_on_c, 0, 39, 0
2, 211559, Note_on_c, 0, 51, 0
2, 211680, Note_on_c, 0, 36, 49
2, 211680, Note_on_c, 0, 48, 49
2, 211799, Note_on_c, 0, 36, 0
2, 211799, Note_on_c, 0, 48, 0
2, 211920, Note_on_c, 0, 33, 49
2, 211920, Note_on_c, 0, 45, 49
2, 212039, Note_on_c, 0, 33, 0
2, 212039, Note_on_c, 0, 45, 0
2, 212160, Note_on_c, 0, 38, 49
2, 212160, Note_on_c, 0, 50, 49
2, 212279, Note_on_c, 0, 38, 0
2, 212279, Note_on_c, 0, 50, 0
2, 212400, Note_on_c, 0, 31, 49
2, 212400, Note_on_c, 0, 43, 49
2, 212519, Note_on_c, 0, 31, 0
2, 212519, Note_on_c, 0, 43, 0
2, 212640, Note_on_c, 0, 50, 49
2, 212640, Note_on_c, 0, 59, 49
2, 212759, Note_on_c, 0, 50, 0
2, 212759, Note_on_c, 0, 59, 0
2, 212880, Note_on_c, 0, 43, 49
2, 212880, Note_on_c, 0, 50, 49
2, 212880, Note_on_c, 0, 55, 49
2, 212999, Note_on_c, 0, 43, 0
2, 212999, Note_on_c, 0, 50, 0
2, 212999, Note_on_c, 0, 55, 0
2, 213120, Note_on_c, 0, 36, 33
2, 213196, Note_on_c, 0, 43, 33
2, 213273, Note_on_c, 0, 52, 33
2, 213358, Note_on_c, 0, 43, 0
2, 213358, Note_on_c, 0, 52, 0
2, 213359, Note_on_c, 0, 36, 0
2, 213360, Note_on_c, 0, 52, 33
2, 213360, Note_on_c, 0, 55, 33
2, 213479, Note_on_c, 0, 52, 0
2, 213479, Note_on_c, 0, 55, 0
2, 213600, Note_on_c, 0, 36, 33
2, 213600, Note_on_c, 0, 43, 33
2, 213719, Note_on_c, 0, 36, 0
2, 213719, Note_on_c, 0, 43, 0
2, 213840, Note_on_c, 0, 35, 33
2, 213840, Note_on_c, 0, 43, 33
2, 213959, Note_on_c, 0, 35, 0
2, 213959, Note_on_c, 0, 43, 0
2, 214080, Note_on_c, 0, 43, 33
2, 214080, Note_on_c, 0, 50, 33
2, 214199, Note_on_c, 0, 43, 0
2, 214199, Note_on_c, 0, 50, 0
2, 214320, Note_on_c, 0, 35, 33
2, 214320, Note_on_c, 0, 43, 33
2, 214559, Note_on_c, 0, 35, 0
2, 214559, Note_on_c, 0, 43, 0
2, 214560, Note_on_c, 0, 33, 33
2, 214560, Note_on_c, 0, 45, 33
2, 214679, Note_on_c, 0, 33, 0
2, 214679, Note_on_c, 0, 45, 0
2, 214800, Note_on_c, 0, 52, 33
2, 214800, Note_on_c, 0, 55, 33
2, 214800, Note_on_c, 0, 61, 33
2, 214919, Note_on_c, 0, 52, 0
2, 214919, Note_on_c, 0, 55, 0
2, 214919, Note_on_c, 0, 61, 0
2, 215040, Note_on_c, 0, 45, 33
2, 215040, Note_on_c, 0, 52, 33
2, 215040, Note_on_c, 0, 55, 33
2, 215159, Note_on_c, 0, 45, 0
2, 215159, Note_on_c, 0, 52, 0
2, 215159, Note_on_c, 0, 55, 0
2, 215280, Note_on_c, 0, 38, 33
2, 215280, Note_on_c, 0, 50, 33
2, 215399, Note_on_c, 0, 38, 0
2, 215399, Note_on_c, 0, 50, 0
2, 215520, Note_on_c, 0, 50, 33
2, 215520, Note_on_c, 0, 57, 33
2, 215639, Note_on_c, 0, 50, 0
2, 215639, Note_on_c, 0, 57, 0
2, 215760, Note_on_c, 0, 38, 33
2, 215760, Note_on_c, 0, 50, 33
2, 215879, Note_on_c, 0, 38, 0
2, 215879, Note_on_c, 0, 50, 0
2, 216000, Note_on_c, 0, 43, 33
2, 216000, Note_on_c, 0, 50, 33
2, 216119, Note_on_c, 0, 43, 0
2, 216119, Note_on_c, 0, 50, 0
2, 216240, Note_on_c, 0, 50, 33
2, 216240, Note_on_c, 0, 59, 33
2, 216359, Note_on_c, 0, 50, 0
2, 216359, Note_on_c, 0, 59, 0
2, 216480, Note_on_c, 0, 52, 33
2, 216480, Note_on_c, 0, 55, 33
2, 216480, Note_on_c, 0, 60, 33
2, 216599, Note_on_c, 0, 52, 0
2, 216599, Note_on_c, 0, 55, 0
2, 216599, Note_on_c, 0, 60, 0
2, 216720, Note_on_c, 0, 43, 33
2, 216720, Note_on_c, 0, 50, 33
2, 216839, Note_on_c, 0, 43, 0
2, 216839, Note_on_c, 0, 50, 0
2, 216960, Note_on_c, 0, 50, 33
2, 216960, Note_on_c, 0, 59, 33
2, 217079, Note_on_c, 0, 50, 0
2, 217079, Note_on_c, 0, 59, 0
2, 217200, Note_on_c, 0, 52, 33
2, 217200, Note_on_c, 0, 55, 33
2, 217200, Note_on_c, 0, 60, 33
2, 217319, Note_on_c, 0, 52, 0
2, 217319, Note_on_c, 0, 55, 0
2, 217319, Note_on_c, 0, 60, 0
2, 217440, Note_on_c, 0, 31, 33
2, 217440, Note_on_c, 0, 43, 33
2, 217559, Note_on_c, 0, 31, 0
2, 217559, Note_on_c, 0, 43, 0
2, 217680, Note_on_c, 0, 43, 33
2, 217680, Note_on_c, 0, 50, 33
2, 217799, Note_on_c, 0, 43, 0
2, 217799, Note_on_c, 0, 50, 0
2, 217920, Note_on_c, 0, 50, 38
2, 217920, Note_on_c, 0, 55, 38
2, 218039, Note_on_c, 0, 50, 0
2, 218039, Note_on_c, 0, 55, 0
2, 218160, Note_on_c, 0, 50, 49
2, 218160, Note_on_c, 0, 53, 49
2, 218160, Note_on_c, 0, 59, 49
2, 218399, Note_on_c, 0, 50, 0
2, 218399, Note_on_c, 0, 53, 0
2, 218399, Note_on_c, 0, 59, 0
2, 218400, Note_on_c, 0, 53, 49
2, 218400, Note_on_c, 0, 59, 49
2, 218400, Note_on_c, 0, 62, 49
2, 218520, Note_on_c, 0, 62, 0
2, 218639, Note_on_c, 0, 53, 0
2, 218639, Note_on_c, 0, 59, 0
2, 218880, Note_on_c, 0, 36, 33
2, 218956, Note_on_c, 0, 43, 33
2, 219033, Note_on_c, 0, 52, 33
2, 219118, Note_on_c, 0, 43, 0
2, 219118, Note_on_c, 0, 52, 0
2, 219119, Note_on_c, 0, 36, 0
2, 219120, Note_on_c, 0, 52, 33
2, 219120, Note_on_c, 0, 55, 33
2, 219239, Note_on_c, 0, 52, 0
2, 219239, Note_on_c, 0, 55, 0
2, 219360, Note_on_c, 0, 36, 33
2, 219360, Note_on_c, 0, 43, 33
2, 219479, Note_on_c, 0, 36, 0
2, 219479, Note_on_c, 0, 43, 0
2, 219600, Note_on_c, 0, 35, 33
2, 219600, Note_on_c, 0, 43, 33
2, 219719, Note_on_c, 0, 35, 0
2, 219719, Note_on_c, 0, 43, 0
2, 219840, Note_on_c, 0, 43, 33
2, 219840, Note_on_c, 0, 50, 33
2, 219959, Note_on_c, 0, 43, 0
2, 219959, Note_on_c, 0, 50, 0
2, 220080, Note_on_c, 0, 34, 33
2, 220080, Note_on_c, 0, 46, 33
2, 220319, Note_on_c, 0, 34, 0
2, 220319, Note_on_c, 0, 46, 0
2, 220320, Note_on_c, 0, 33, 33
2, 220320, Note_on_c, 0, 45, 33
2, 220439, Note_on_c, 0, 33, 0
2, 220439, Note_on_c, 0, 45, 0
2, 220560, Note_on_c, 0, 52, 33
2, 220560, Note_on_c, 0, 55, 33
2, 220560, Note_on_c, 0, 61, 33
2, 220679, Note_on_c, 0, 52, 0
2, 220679, Note_on_c, 0, 55, 0
2, 220679, Note_on_c, 0, 61, 0
2, 220800, Note_on_c, 0, 45, 33
2, 220800, Note_on_c, 0, 52, 33
2, 220800, Note_on_c, 0, 55, 33
2, 220919, Note_on_c, 0, 45, 0
2, 220919, Note_on_c, 0, 52, 0
2, 220919, Note_on_c, 0, 55, 0
2, 221040, Note_on_c, 0, 38, 33
2, 221040, Note_on_c, 0, 50, 33
2, 221159, Note_on_c, 0, 38, 0
2, 221159, Note_on_c, 0, 50, 0
2, 221280, Note_on_c, 0, 50, 33
2, 221280, Note_on_c, 0, 57, 33
2, 221399, Note_on_c, 0, 50, 0
2, 221399, Note_on_c, 0, 57, 0
2, 221520, Note_on_c, 0, 38, 33
2, 221520, Note_on_c, 0, 50, 33
2, 221639, Note_on_c, 0, 38, 0
2, 221639, Note_on_c, 0, 50, 0
2, 221760, Note_on_c, 0, 43, 33
2, 221760, Note_on_c, 0, 50, 33
2, 221879, Note_on_c, 0, 43, 0
2, 221879, Note_on_c, 0, 50, 0
2, 222000, Note_on_c, 0, 50, 33
2, 222000, Note_on_c, 0, 59, 33
2, 222119, Note_on_c, 0, 50, 0
2, 222119, Note_on_c, 0, 59, 0
2, 222240, Note_on_c, 0, 52, 33
2, 222240, Note_on_c, 0, 55, 33
2, 222240, Note_on_c, 0, 60, 33
2, 222359, Note_on_c, 0, 52, 0
2, 222359, Note_on_c, 0, 55, 0
2, 222359, Note_on_c, 0, 60, 0
2, 222480, Note_on_c, 0, 43, 33
2, 222480, Note_on_c, 0, 50, 33
2, 222599, Note_on_c, 0, 43, 0
2, 222599, Note_on_c, 0, 50, 0
2, 222720, Note_on_c, 0, 50, 33
2, 222720, Note_on_c, 0, 59, 33
2, 222839, Note_on_c, 0, 50, 0
2, 222839, Note_on_c, 0, 59, 0
2, 222960, Note_on_c, 0, 52, 33
2, 222960, Note_on_c, 0, 55, 33
2, 222960, Note_on_c, 0, 60, 33
2, 223079, Note_on_c, 0, 52, 0
2, 223079, Note_on_c, 0, 55, 0
2, 223079, Note_on_c, 0, 60, 0
2, 223200, Note_on_c, 0, 31, 33
2, 223200, Note_on_c, 0, 43, 33
2, 223439, Note_on_c, 0, 31, 0
2, 223439, Note_on_c, 0, 43, 0
2, 223440, Note_on_c, 0, 43, 33
2, 223440, Note_on_c, 0, 50, 33
2, 223440, Note_on_c, 0, 55, 33
2, 223679, Note_on_c, 0, 43, 0
2, 223679, Note_on_c, 0, 50, 0
2, 223679, Note_on_c, 0, 55, 0
2, 223680, Note_on_c, 0, 50, 38
2, 223680, Note_on_c, 0, 55, 38
2, 223680, Note_on_c, 0, 59, 38
2, 223919, Note_on_c, 0, 50, 0
2, 223919, Note_on_c, 0, 55, 0
2, 223919, Note_on_c, 0, 59, 0
2, 223920, Note_on_c, 0, 53, 49
2, 223920, Note_on_c, 0, 56, 49
2, 223920, Note_on_c, 0, 62, 49
2, 224159, Note_on_c, 0, 53, 0
2, 224159, Note_on_c, 0, 56, 0
2, 224159, Note_on_c, 0, 62, 0
2, 224160, Note_on_c, 0, 56, 49
2, 224160, Note_on_c, 0, 59, 49
2, 224160, Note_on_c, 0, 62, 49
2, 224399, Note_on_c, 0, 56, 0
2, 224399, Note_on_c, 0, 59, 0
2, 224399, Note_on_c, 0, 62, 0
2, 224640, Note_on_c, 0, 36, 49
2, 224640, Note_on_c, 0, 43, 49
2, 224640, Note_on_c, 0, 48, 49
2, 224879, Note_on_c, 0, 36, 0
2, 224879, Note_on_c, 0, 43, 0
2, 224879, Note_on_c, 0, 48, 0
2, 224880, Note_on_c, 0, 52, 49
2, 224880, Note_on_c, 0, 55, 49
2, 224880, Note_on_c, 0, 60, 49
2, 225119, Note_on_c, 0, 52, 0
2, 225119, Note_on_c, 0, 55, 0
2, 225119, Note_on_c, 0, 60, 0
2, 225120, Note_on_c, 0, 53, 49
2, 225120, Note_on_c, 0, 56, 49
2, 225120, Note_on_c, 0, 59, 49
2, 225120, Note_on_c, 0, 62, 49
2, 225359, Note_on_c, 0, 53, 0
2, 225359, Note_on_c, 0, 56, 0
2, 225359, Note_on_c, 0, 59, 0
2, 225359, Note_on_c, 0, 62, 0
2, 225360, Note_on_c, 0, 36, 49
2, 225360, Note_on_c, 0, 43, 49
2, 225360, Note_on_c, 0, 48, 49
2, 225599, Note_on_c, 0, 36, 0
2, 225599, Note_on_c, 0, 43, 0
2, 225599, Note_on_c, 0, 48, 0
2, 225600, Note_on_c, 0, 52, 49
2, 225600, Note_on_c, 0, 55, 49
2, 225600, Note_on_c, 0, 60, 49
2, 225839, Note_on_c, 0, 52, 0
2, 225839, Note_on_c, 0, 55, 0
2, 225839, Note_on_c, 0, 60, 0
2, 225840, Note_on_c, 0, 53, 49
2, 225840, Note_on_c, 0, 56, 49
2, 225840, Note_on_c, 0, 59, 49
2, 225840, Note_on_c, 0, 62, 49
2, 226079, Note_on_c, 0, 53, 0
2, 226079, Note_on_c, 0, 56, 0
2, 226079, Note_on_c, 0, 59, 0
2, 226079, Note_on_c, 0, 62, 0
2, 226080, Note_on_c, 0, 36, 49
2, 226080, Note_on_c, 0, 43, 49
2, 226080, Note_on_c, 0, 48, 49
2, 226319, Note_on_c, 0, 36, 0
2, 226319, Note_on_c, 0, 43, 0
2, 226319, Note_on_c, 0, 48, 0
2, 226320, Note_on_c, 0, 52, 49
2, 226320, Note_on_c, 0, 55, 49
2, 226320, Note_on_c, 0, 60, 49
2, 226559, Note_on_c, 0, 52, 0
2, 226559, Note_on_c, 0, 55, 0
2, 226559, Note_on_c, 0, 60, 0
2, 226560, Note_on_c, 0, 55, 54
2, 226560, Note_on_c, 0, 60, 54
2, 226560, Note_on_c, 0, 64, 54
2, 226799, Note_on_c, 0, 55, 0
2, 226799, Note_on_c, 0, 60, 0
2, 226799, Note_on_c, 0, 64, 0
2, 226800, Note_on_c, 0, 60, 65
2, 226800, Note_on_c, 0, 64, 65
2, 226800, Note_on_c, 0, 67, 65
2, 227039, Note_on_c, 0, 60, 0
2, 227039, Note_on_c, 0, 64, 0
2, 227039, Note_on_c, 0, 67, 0
2, 227280, Note_on_c, 0, 37, 66
2, 227280, Note_on_c, 0, 49, 66
2, 227519, Note_on_c, 0, 37, 0
2, 227519, Note_on_c, 0, 49, 0
2, 227520, Note_on_c, 0, 55, 70
2, 227520, Note_on_c, 0, 58, 70
2, 227520, Note_on_c, 0, 64, 70
2, 227759, Note_on_c, 0, 55, 0
2, 227759, Note_on_c, 0, 58, 0
2, 227759, Note_on_c, 0, 64, 0
2, 227760, Note_on_c, 0, 37, 74
2, 227760, Note_on_c, 0, 49, 74
2, 227999, Note_on_c, 0, 37, 0
2, 227999, Note_on_c, 0, 49, 0
2, 228000, Note_on_c, 0, 55, 78
2, 228000, Note_on_c, 0, 58, 78
2, 228000, Note_on_c, 0, 64, 78
2, 228239, Note_on_c, 0, 55, 0
2, 228239, Note_on_c, 0, 58, 0
2, 228239, Note_on_c, 0, 64, 0
2, 228240, Note_on_c, 0, 37, 81
2, 228240, Note_on_c, 0, 49, 81
2, 228479, Note_on_c, 0, 37, 0
2, 228479, Note_on_c, 0, 49, 0
2, 228480, Note_on_c, 0, 55, 85
2, 228480, Note_on_c, 0, 58, 85
2, 228480, Note_on_c, 0, 64, 85
2, 228719, Note_on_c, 0, 55, 0
2, 228719, Note_on_c, 0, 58, 0
2, 228719, Note_on_c, 0, 64, 0
2, 228720, Note_on_c, 0, 37, 89
2, 228720, Note_on_c, 0, 49, 89
2, 228959, Note_on_c, 0, 37, 0
2, 228959, Note_on_c, 0, 49, 0
2, 228960, Note_on_c, 0, 55, 93
2, 228960, Note_on_c, 0, 58, 93
2, 228960, Note_on_c, 0, 64, 93
2, 229199, Note_on_c, 0, 55, 0
2, 229199, Note_on_c, 0, 58, 0
2, 229199, Note_on_c, 0, 64, 0
2, 230160, Note_on_c, 0, 37, 112
2, 230210, Note_on_c, 0, 43, 112
2, 230260, Note_on_c, 0, 46, 112
2, 230311, Note_on_c, 0, 52, 112
2, 230398, Note_on_c, 0, 43, 0
2, 230398, Note_on_c, 0, 46, 0
2, 230398, Note_on_c, 0, 52, 0
2, 230399, Note_on_c, 0, 37, 0
2, 230400, Note_on_c, 0, 55, 112
2, 230400, Note_on_c, 0, 58, 112
2, 230400, Note_on_c, 0, 64, 112
2, 230639, Note_on_c, 0, 55, 0
2, 230639, Note_on_c, 0, 58, 0
2, 230639, Note_on_c, 0, 64, 0
2, 230640, Note_on_c, 0, 55, 112
2, 230640, Note_on_c, 0, 58, 112
2, 230640, Note_on_c, 0, 64, 112
2, 230879, Note_on_c, 0, 55, 0
2, 230879, Note_on_c, 0, 58, 0
2, 230879, Note_on_c, 0, 64, 0
2, 230880, Note_on_c, 0, 37, 112
2, 230930, Note_on_c, 0, 43, 112
2, 230980, Note_on_c, 0, 46, 112
2, 231031, Note_on_c, 0, 52, 112
2, 231118, Note_on_c, 0, 43, 0
2, 231118, Note_on_c, 0, 46, 0
2, 231118, Note_on_c, 0, 52, 0
2, 231119, Note_on_c, 0, 37, 0
2, 231120, Note_on_c, 0, 55, 112
2, 231120, Note_on_c, 0, 58, 112
2, 231120, Note_on_c, 0, 64, 112
2, 231359, Note_on_c, 0, 55, 0
2, 231359, Note_on_c, 0, 58, 0
2, 231359, Note_on_c, 0, 64, 0
2, 231360, Note_on_c, 0, 55, 112
2, 231360, Note_on_c, 0, 58, 112
2, 231360, Note_on_c, 0, 64, 112
2, 231599, Note_on_c, 0, 55, 0
2, 231599, Note_on_c, 0, 58, 0
2, 231599, Note_on_c, 0, 64, 0
2, 231600, Note_on_c, 0, 37, 112
2, 231650, Note_on_c, 0, 43, 112
2, 231700, Note_on_c, 0, 46, 112
2, 231751, Note_on_c, 0, 52, 112
2, 231838, Note_on_c, 0, 43, 0
2, 231838, Note_on_c, 0, 46, 0
2, 231838, Note_on_c, 0, 52, 0
2, 231839, Note_on_c, 0, 37, 0
2, 231840, Note_on_c, 0, 55, 112
2, 231840, Note_on_c, 0, 58, 112
2, 231840, Note_on_c, 0, 64, 112
2, 232079, Note_on_c, 0, 55, 0
2, 232079, Note_on_c, 0, 58, 0
2, 232079, Note_on_c, 0, 64, 0
2, 232080, Note_on_c, 0, 55, 112
2, 232080, Note_on_c, 0, 58, 112
2, 232080, Note_on_c, 0, 64, 112
2, 232319, Note_on_c, 0, 55, 0
2, 232319, Note_on_c, 0, 58, 0
2, 232319, Note_on_c, 0, 64, 0
2, 233040, Note_on_c, 0, 61, 60
2, 233279, Note_on_c, 0, 61, 0
2, 233280, Note_on_c, 0, 62, 33
2, 233519, Note_on_c, 0, 62, 0
2, 233760, Note_on_c, 0, 60, 33
2, 233999, Note_on_c, 0, 60, 0
2, 234000, Note_on_c, 0, 59, 33
2, 234239, Note_on_c, 0, 59, 0
2, 234480, Note_on_c, 0, 59, 33
2, 234719, Note_on_c, 0, 59, 0
2, 234720, Note_on_c, 0, 60, 33
2, 234959, Note_on_c, 0, 60, 0
2, 235200, Note_on_c, 0, 58, 33
2, 235439, Note_on_c, 0, 58, 0
2, 235440, Note_on_c, 0, 57, 33
2, 235679, Note_on_c, 0, 57, 0
2, 235920, Note_on_c, 0, 53, 33
2, 235920, Note_on_c, 0, 57, 33
2, 236159, Note_on_c, 0, 53, 0
2, 236159, Note_on_c, 0, 57, 0
2, 236160, Note_on_c, 0, 62, 33
2, 236160, Note_on_c, 0, 58, 33
2, 236279, Note_on_c, 0, 62, 0
2, 236280, Note_on_c, 0, 65, 33
2, 236399, Note_on_c, 0, 58, 0
2, 236399, Note_on_c, 0, 65, 0
2, 236400, Note_on_c, 0, 57, 33
2, 236639, Note_on_c, 0, 57, 0
2, 236640, Note_on_c, 0, 62, 33
2, 236759, Note_on_c, 0, 62, 0
2, 236760, Note_on_c, 0, 58, 33
2, 236879, Note_on_c, 0, 58, 0
2, 236880, Note_on_c, 0, 50, 33
2, 237119, Note_on_c, 0, 50, 0
2, 237120, Note_on_c, 0, 58, 33
2, 237239, Note_on_c, 0, 58, 0
2, 237240, Note_on_c, 0, 50, 33
2, 237359, Note_on_c, 0, 50, 0
2, 237360, Note_on_c, 0, 38, 33
2, 237599, Note_on_c, 0, 38, 0
2, 237600, Note_on_c, 0, 43, 33
2, 237600, Note_on_c, 0, 51, 33
2, 237719, Note_on_c, 0, 43, 0
2, 237719, Note_on_c, 0, 51, 0
2, 237840, Note_on_c, 0, 62, 33
2, 237840, Note_on_c, 0, 58, 33
2, 237959, Note_on_c, 0, 62, 0
2, 237960, Note_on_c, 0, 67, 33
2, 238079, Note_on_c, 0, 58, 0
2, 238079, Note_on_c, 0, 67, 0
2, 238080, Note_on_c, 0, 67, 33
2, 238080, Note_on_c, 0, 62, 33
2, 238199, Note_on_c, 0, 67, 0
2, 238200, Note_on_c, 0, 69, 33
2, 238319, Note_on_c, 0, 62, 0
2, 238319, Note_on_c, 0, 69, 0
2, 238320, Note_on_c, 0, 70, 33
2, 238320, Note_on_c, 0, 61, 33
2, 238320, Note_on_c, 0, 64, 33
2, 238559, Note_on_c, 0, 70, 0
2, 238559, Note_on_c, 0, 61, 0
2, 238559, Note_on_c, 0, 64, 0
2, 238680, Note_on_c, 0, 70, 33
2, 238799, Note_on_c, 0, 70, 0
2, 238800, Note_on_c, 0, 69, 33
2, 238919, Note_on_c, 0, 69, 0
2, 238920, Note_on_c, 0, 67, 33
2, 239039, Note_on_c, 0, 67, 0
2, 239040, Note_on_c, 0, 66, 33
2, 239159, Note_on_c, 0, 66, 0
2, 239160, Note_on_c, 0, 64, 33
2, 239279, Note_on_c, 0, 64, 0
2, 239280, Note_on_c, 0, 62, 33
2, 239399, Note_on_c, 0, 62, 0
2, 239520, Note_on_c, 0, 60, 33
2, 239520, Note_on_c, 0, 66, 33
2, 239520, Note_on_c, 0, 69, 33
2, 239639, Note_on_c, 0, 60, 0
2, 239639, Note_on_c, 0, 66, 0
2, 239639, Note_on_c, 0, 69, 0
2, 239760, Note_on_c, 0, 68, 33
2, 239760, Note_on_c, 0, 59, 33
2, 239760, Note_on_c, 0, 65, 33
2, 239999, Note_on_c, 0, 68, 0
2, 239999, Note_on_c, 0, 59, 0
2, 239999, Note_on_c, 0, 65, 0
2, 240120, Note_on_c, 0, 68, 33
2, 240239, Note_on_c, 0, 68, 0
2, 240240, Note_on_c, 0, 67, 33
2, 240359, Note_on_c, 0, 67, 0
2, 240360, Note_on_c, 0, 65, 33
2, 240479, Note_on_c, 0, 65, 0
2, 240480, Note_on_c, 0, 64, 33
2, 240599, Note_on_c, 0, 64, 0
2, 240600, Note_on_c, 0, 62, 33
2, 240719, Note_on_c, 0, 62, 0
2, 240720, Note_on_c, 0, 60, 33
2, 240839, Note_on_c, 0, 60, 0
2, 240960, Note_on_c, 0, 58, 33
2, 240960, Note_on_c, 0, 64, 33
2, 240960, Note_on_c, 0, 67, 33
2, 241079, Note_on_c, 0, 58, 0
2, 241079, Note_on_c, 0, 64, 0
2, 241079, Note_on_c, 0, 67, 0
2, 241200, Note_on_c, 0, 57, 33
2, 241200, Note_on_c, 0, 63, 33
2, 241200, Note_on_c, 0, 66, 33
2, 241319, Note_on_c, 0, 57, 0
2, 241319, Note_on_c, 0, 63, 0
2, 241319, Note_on_c, 0, 66, 0
2, 241560, Note_on_c, 0, 66, 33
2, 241679, Note_on_c, 0, 66, 0
2, 241680, Note_on_c, 0, 65, 33
2, 241799, Note_on_c, 0, 65, 0
2, 241800, Note_on_c, 0, 63, 33
2, 241919, Note_on_c, 0, 63, 0
2, 241920, Note_on_c, 0, 62, 33
2, 242039, Note_on_c, 0, 62, 0
2, 242160, Note_on_c, 0, 65, 33
2, 242279, Note_on_c, 0, 65, 0
2, 242400, Note_on_c, 0, 58, 33
2, 242519, Note_on_c, 0, 58, 0
2, 242640, Note_on_c, 0, 62, 33
2, 242759, Note_on_c, 0, 62, 0
2, 242880, Note_on_c, 0, 50, 33
2, 242999, Note_on_c, 0, 50, 0
2, 243120, Note_on_c, 0, 38, 33
2, 243239, Note_on_c, 0, 38, 0
2, 243360, Note_on_c, 0, 43, 33
2, 243360, Note_on_c, 0, 50, 33
2, 243479, Note_on_c, 0, 43, 0
2, 243479, Note_on_c, 0, 50, 0
2, 243840, Note_on_c, 0, 31, 33
2, 243840, Note_on_c, 0, 43, 33
2, 243959, Note_on_c, 0, 31, 0
2, 243959, Note_on_c, 0, 43, 0
2, 244080, Note_on_c, 0, 55, 33
2, 244080, Note_on_c, 0, 58, 33
2, 244080, Note_on_c, 0, 62, 33
2, 244080, Note_on_c, 0, 67, 33
2, 244319, Note_on_c, 0, 55, 0
2, 244319, Note_on_c, 0, 58, 0
2, 244319, Note_on_c, 0, 62, 0
2, 244319, Note_on_c, 0, 67, 0
2, 244560, Note_on_c, 0, 31, 33
2, 244560, Note_on_c, 0, 43, 33
2, 244799, Note_on_c, 0, 31, 0
2, 244799, Note_on_c, 0, 43, 0
2, 244800, Note_on_c, 0, 51, 33
2, 244800, Note_on_c, 0, 56, 33
2, 244800, Note_on_c, 0, 60, 33
2, 244920, Note_on_c, 0, 60, 0
2, 245039, Note_on_c, 0, 51, 0
2, 245039, Note_on_c, 0, 56, 0
2, 245280, Note_on_c, 0, 31, 33
2, 245280, Note_on_c, 0, 43, 33
2, 245519, Note_on_c, 0, 31, 0
2, 245519, Note_on_c, 0, 43, 0
2, 245520, Note_on_c, 0, 53, 33
2, 245520, Note_on_c, 0, 56, 33
2, 245520, Note_on_c, 0, 60, 33
2, 245520, Note_on_c, 0, 65, 33
2, 245759, Note_on_c, 0, 53, 0
2, 245759, Note_on_c, 0, 56, 0
2, 245759, Note_on_c, 0, 60, 0
2, 245759, Note_on_c, 0, 65, 0
2, 246000, Note_on_c, 0, 31, 33
2, 246000, Note_on_c, 0, 43, 33
2, 246239, Note_on_c, 0, 31, 0
2, 246239, Note_on_c, 0, 43, 0
2, 246240, Note_on_c, 0, 51, 33
2, 246240, Note_on_c, 0, 55, 33
2, 246240, Note_on_c, 0, 58, 33
2, 246360, Note_on_c, 0, 58, 0
2, 246479, Note_on_c, 0, 51, 0
2, 246479, Note_on_c, 0, 55, 0
2, 246720, Note_on_c, 0, 31, 33
2, 246720, Note_on_c, 0, 43, 33
2, 246959, Note_on_c, 0, 31, 0
2, 246959, Note_on_c, 0, 43, 0
2, 246960, Note_on_c, 0, 51, 33
2, 246960, Note_on_c, 0, 55, 33
2, 246960, Note_on_c, 0, 58, 33
2, 246960, Note_on_c, 0, 63, 33
2, 247199, Note_on_c, 0, 51, 0
2, 247199, Note_on_c, 0, 55, 0
2, 247199, Note_on_c, 0, 58, 0
2, 247199, Note_on_c, 0, 63, 0
2, 247440, Note_on_c, 0, 31, 33
2, 247440, Note_on_c, 0, 43, 33
2, 247679, Note_on_c, 0, 31, 0
2, 247679, Note_on_c, 0, 43, 0
2, 247680, Note_on_c, 0, 69, 33
2, 247739, Note_on_c, 0, 69, 0
2, 247740, Note_on_c, 0, 70, 33
2, 247799, Note_on_c, 0, 70, 0
2, 247800, Note_on_c, 0, 63, 33
2, 247800, Note_on_c, 0, 66, 33
2, 247800, Note_on_c, 0, 72, 33
2, 247859, Note_on_c, 0, 63, 0
2, 247859, Note_on_c, 0, 66, 0
2, 247859, Note_on_c, 0, 72, 0
2, 247920, Note_on_c, 0, 57, 33
2, 247920, Note_on_c, 0, 60, 33
2, 247920, Note_on_c, 0, 66, 33
2, 248039, Note_on_c, 0, 57, 0
2, 248039, Note_on_c, 0, 60, 0
2, 248039, Note_on_c, 0, 66, 0
2, 248160, Note_on_c, 0, 58, 33
2, 248160, Note_on_c, 0, 62, 33
2, 248160, Note_on_c, 0, 67, 33
2, 248279, Note_on_c, 0, 58, 0
2, 248279, Note_on_c, 0, 62, 0
2, 248279, Note_on_c, 0, 67, 0
2, 248400, Note_on_c, 0, 60, 33
2, 248400, Note_on_c, 0, 63, 33
2, 248400, Note_on_c, 0, 69, 33
2, 248519, Note_on_c, 0, 60, 0
2, 248519, Note_on_c, 0, 63, 0
2, 248519, Note_on_c, 0, 69, 0
2, 248640, Note_on_c, 0, 63, 33
2, 248640, Note_on_c, 0, 66, 33
2, 248759, Note_on_c, 0, 63, 0
2, 248759, Note_on_c, 0, 66, 0
2, 248880, Note_on_c, 0, 60, 33
2, 248880, Note_on_c, 0, 63, 33
2, 248999, Note_on_c, 0, 60, 0
2, 248999, Note_on_c, 0, 63, 0
2, 249120, Note_on_c, 0, 55, 33
2, 249120, Note_on_c, 0, 58, 33
2, 249120, Note_on_c, 0, 62, 33
2, 249239, Note_on_c, 0, 55, 0
2, 249239, Note_on_c, 0, 58, 0
2, 249239, Note_on_c, 0, 62, 0
2, 249360, Note_on_c, 0, 62, 33
2, 249360, Note_on_c, 0, 67, 33
2, 249479, Note_on_c, 0, 62, 0
2, 249479, Note_on_c, 0, 67, 0
2, 249600, Note_on_c, 0, 67, 33
2, 249600, Note_on_c, 0, 70, 33
2, 249719, Note_on_c, 0, 67, 0
2, 249719, Note_on_c, 0, 70, 0
2, 249840, Note_on_c, 0, 70, 33
2, 249840, Note_on_c, 0, 74, 33
2, 249959, Note_on_c, 0, 70, 0
2, 249959, Note_on_c, 0, 74, 0
2, 250320, Note_on_c, 0, 70, 33
2, 250320, Note_on_c, 0, 74, 33
2, 250320, Note_on_c, 0, 79, 33
2, 250440, Note_on_c, 0, 79, 0
2, 250559, Note_on_c, 0, 70, 0
2, 250559, Note_on_c, 0, 74, 0
2, 250560, Note_on_c, 0, 63, 33
2, 250560, Note_on_c, 0, 68, 33
2, 250560, Note_on_c, 0, 72, 33
2, 250799, Note_on_c, 0, 63, 0
2, 250799, Note_on_c, 0, 68, 0
2, 250799, Note_on_c, 0, 72, 0
2, 250800, Note_on_c, 0, 55, 33
2, 251039, Note_on_c, 0, 55, 0
2, 251040, Note_on_c, 0, 63, 33
2, 251040, Note_on_c, 0, 68, 33
2, 251040, Note_on_c, 0, 72, 33
2, 251279, Note_on_c, 0, 63, 0
2, 251279, Note_on_c, 0, 68, 0
2, 251279, Note_on_c, 0, 72, 0
2, 251280, Note_on_c, 0, 68, 33
2, 251280, Note_on_c, 0, 72, 33
2, 251280, Note_on_c, 0, 77, 33
2, 251519, Note_on_c, 0, 68, 0
2, 251519, Note_on_c, 0, 72, 0
2, 251519, Note_on_c, 0, 77, 0
2, 251520, Note_on_c, 0, 65, 33
2, 251759, Note_on_c, 0, 65, 0
2, 251760, Note_on_c, 0, 68, 33
2, 251760, Note_on_c, 0, 72, 33
2, 251760, Note_on_c, 0, 77, 33
2, 251880, Note_on_c, 0, 77, 0
2, 251999, Note_on_c, 0, 68, 0
2, 251999, Note_on_c, 0, 72, 0
2, 252000, Note_on_c, 0, 63, 33
2, 252000, Note_on_c, 0, 67, 33
2, 252000, Note_on_c, 0, 70, 33
2, 252239, Note_on_c, 0, 63, 0
2, 252239, Note_on_c, 0, 67, 0
2, 252239, Note_on_c, 0, 70, 0
2, 252240, Note_on_c, 0, 55, 33
2, 252479, Note_on_c, 0, 55, 0
2, 252480, Note_on_c, 0, 63, 33
2, 252480, Note_on_c, 0, 67, 33
2, 252480, Note_on_c, 0, 70, 33
2, 252719, Note_on_c, 0, 63, 0
2, 252719, Note_on_c, 0, 67, 0
2, 252719, Note_on_c, 0, 70, 0
2, 252720, Note_on_c, 0, 67, 33
2, 252720, Note_on_c, 0, 72, 33
2, 252720, Note_on_c, 0, 75, 33
2, 252959, Note_on_c, 0, 67, 0
2, 252959, Note_on_c, 0, 72, 0
2, 252959, Note_on_c, 0, 75, 0
2, 252960, Note_on_c, 0, 63, 33
2, 253199, Note_on_c, 0, 63, 0
2, 253200, Note_on_c, 0, 67, 33
2, 253200, Note_on_c, 0, 70, 33
2, 253200, Note_on_c, 0, 75, 33
2, 253439, Note_on_c, 0, 67, 0
2, 253439, Note_on_c, 0, 70, 0
2, 253439, Note_on_c, 0, 75, 0
2, 253440, Note_on_c, 0, 81, 33
2, 253499, Note_on_c, 0, 81, 0
2, 253500, Note_on_c, 0, 82, 33
2, 253559, Note_on_c, 0, 82, 0
2, 253560, Note_on_c, 0, 75, 33
2, 253560, Note_on_c, 0, 78, 33
2, 253560, Note_on_c, 0, 84, 33
2, 253679, Note_on_c, 0, 75, 0
2, 253679, Note_on_c, 0, 78, 0
2, 253679, Note_on_c, 0, 84, 0
2, 253680, Note_on_c, 0, 69, 33
2, 253680, Note_on_c, 0, 72, 33
2, 253680, Note_on_c, 0, 78, 33
2, 253799, Note_on_c, 0, 69, 0
2, 253799, Note_on_c, 0, 72, 0
2, 253799, Note_on_c, 0, 78, 0
2, 253920, Note_on_c, 0, 70, 33
2, 253920, Note_on_c, 0, 74, 33
2, 253920, Note_on_c, 0, 79, 33
2, 254039, Note_on_c, 0, 70, 0
2, 254039, Note_on_c, 0, 74, 0
2, 254039, Note_on_c, 0, 79, 0
2, 254160, Note_on_c, 0, 72, 33
2, 254160, Note_on_c, 0, 75, 33
2, 254160, Note_on_c, 0, 81, 33
2, 254279, Note_on_c, 0, 72, 0
2, 254279, Note_on_c, 0, 75, 0
2, 254279, Note_on_c, 0, 81, 0
2, 254400, Note_on_c, 0, 75, 33
2, 254400, Note_on_c, 0, 78, 33
2, 254519, Note_on_c, 0, 75, 0
2, 254519, Note_on_c, 0, 78, 0
2, 254640, Note_on_c, 0, 72, 33
2, 254640, Note_on_c, 0, 75, 33
2, 254759, Note_on_c, 0, 72, 0
2, 254759, Note_on_c, 0, 75, 0
2, 254880, Note_on_c, 0, 67, 33
2, 254880, Note_on_c, 0, 70, 33
2, 254880, Note_on_c, 0, 74, 33
2, 255119, Note_on_c, 0, 67, 0
2, 255119, Note_on_c, 0, 70, 0
2, 255119, Note_on_c, 0, 74, 0
2, 255120, Note_on_c, 0, 67, 33
2, 255120, Note_on_c, 0, 62, 33
2, 255239, Note_on_c, 0, 67, 0
2, 255240, Note_on_c, 0, 69, 33
2, 255359, Note_on_c, 0, 62, 0
2, 255359, Note_on_c, 0, 69, 0
2, 255360, Note_on_c, 0, 70, 33
2, 255360, Note_on_c, 0, 67, 33
2, 255479, Note_on_c, 0, 70, 0
2, 255480, Note_on_c, 0, 72, 33
2, 255599, Note_on_c, 0, 67, 0
2, 255599, Note_on_c, 0, 72, 0
2, 256320, Note_on_c, 0, 74, 33
2, 256559, Note_on_c, 0, 74, 0
2, 256560, Note_on_c, 0, 57, 33
2, 256560, Note_on_c, 0, 60, 33
2, 256560, Note_on_c, 0, 66, 33
2, 256799, Note_on_c, 0, 57, 0
2, 256799, Note_on_c, 0, 60, 0
2, 256799, Note_on_c, 0, 66, 0
2, 256800, Note_on_c, 0, 58, 33
2, 256800, Note_on_c, 0, 62, 33
2, 256800, Note_on_c, 0, 67, 33
2, 257039, Note_on_c, 0, 58, 0
2, 257039, Note_on_c, 0, 62, 0
2, 257039, Note_on_c, 0, 67, 0
2, 257040, Note_on_c, 0, 60, 33
2, 257040, Note_on_c, 0, 63, 33
2, 257040, Note_on_c, 0, 69, 33
2, 257279, Note_on_c, 0, 60, 0
2, 257279, Note_on_c, 0, 63, 0
2, 257279, Note_on_c, 0, 69, 0
2, 257280, Note_on_c, 0, 62, 33
2, 257280, Note_on_c, 0, 66, 33
2, 257519, Note_on_c, 0, 62, 0
2, 257519, Note_on_c, 0, 66, 0
2, 257520, Note_on_c, 0, 60, 33
2, 257520, Note_on_c, 0, 63, 33
2, 257759, Note_on_c, 0, 60, 0
2, 257759, Note_on_c, 0, 63, 0
2, 257760, Note_on_c, 0, 55, 33
2, 257760, Note_on_c, 0, 58, 33
2, 257760, Note_on_c, 0, 62, 33
2, 257999, Note_on_c, 0, 55, 0
2, 257999, Note_on_c, 0, 58, 0
2, 257999, Note_on_c, 0, 62, 0
2, 258000, Note_on_c, 0, 67, 33
2, 258119, Note_on_c, 0, 67, 0
2, 258120, Note_on_c, 0, 66, 33
2, 258239, Note_on_c, 0, 66, 0
2, 258240, Note_on_c, 0, 67, 33
2, 258359, Note_on_c, 0, 67, 0
2, 258360, Note_on_c, 0, 69, 33
2, 258479, Note_on_c, 0, 69, 0
2, 258480, Note_on_c, 0, 70, 33
2, 258599, Note_on_c, 0, 70, 0
2, 258600, Note_on_c, 0, 69, 33
2, 258719, Note_on_c, 0, 69, 0
2, 258720, Note_on_c, 0, 67, 33
2, 258839, Note_on_c, 0, 67, 0
2, 258840, Note_on_c, 0, 70, 33
2, 258959, Note_on_c, 0, 70, 0
2, 258960, Note_on_c, 0, 69, 33
2, 259079, Note_on_c, 0, 69, 0
2, 259080, Note_on_c, 0, 67, 33
2, 259199, Note_on_c, 0, 67, 0
2, 259200, Note_on_c, 0, 66, 33
2, 259319, Note_on_c, 0, 66, 0
2, 259320, Note_on_c, 0, 67, 33
2, 259439, Note_on_c, 0, 67, 0
2, 259440, Note_on_c, 0, 69, 33
2, 259559, Note_on_c, 0, 69, 0
2, 259560, Note_on_c, 0, 70, 33
2, 259679, Note_on_c, 0, 70, 0
2, 259680, Note_on_c, 0, 72, 33
2, 259799, Note_on_c, 0, 72, 0
2, 259800, Note_on_c, 0, 74, 33
2, 259919, Note_on_c, 0, 74, 0
2, 260400, Note_on_c, 0, 62, 33
2, 260400, Note_on_c, 0, 66, 33
2, 260519, Note_on_c, 0, 62, 0
2, 260519, Note_on_c, 0, 66, 0
2, 260640, Note_on_c, 0, 55, 33
2, 260640, Note_on_c, 0, 62, 33
2, 260640, Note_on_c, 0, 67, 33
2, 260759, Note_on_c, 0, 55, 0
2, 260759, Note_on_c, 0, 62, 0
2, 260759, Note_on_c, 0, 67, 0
2, 260880, Note_on_c, 0, 58, 33
2, 260880, Note_on_c, 0, 62, 33
2, 260999, Note_on_c, 0, 58, 0
2, 260999, Note_on_c, 0, 62, 0
2, 261120, Note_on_c, 0, 62, 33
2, 261120, Note_on_c, 0, 67, 33
2, 261239, Note_on_c, 0, 62, 0
2, 261239, Note_on_c, 0, 67, 0
2, 261360, Note_on_c, 0, 69, 32
2, 261360, Note_on_c, 0, 72, 32
2, 261479, Note_on_c, 0, 69, 0
2, 261479, Note_on_c, 0, 72, 0
2, 261600, Note_on_c, 0, 66, 32
2, 261600, Note_on_c, 0, 69, 32
2, 261719, Note_on_c, 0, 66, 0
2, 261719, Note_on_c, 0, 69, 0
2, 261840, Note_on_c, 0, 63, 31
2, 261840, Note_on_c, 0, 66, 31
2, 261959, Note_on_c, 0, 63, 0
2, 261959, Note_on_c, 0, 66, 0
2, 262080, Note_on_c, 0, 62, 31
2, 262080, Note_on_c, 0, 67, 31
2, 262199, Note_on_c, 0, 62, 0
2, 262199, Note_on_c, 0, 67, 0
2, 262320, Note_on_c, 0, 58, 31
2, 262320, Note_on_c, 0, 62, 31
2, 262439, Note_on_c, 0, 58, 0
2, 262439, Note_on_c, 0, 62, 0
2, 262560, Note_on_c, 0, 55, 30
2, 262560, Note_on_c, 0, 58, 30
2, 262679, Note_on_c, 0, 55, 0
2, 262679, Note_on_c, 0, 58, 0
2, 262800, Note_on_c, 0, 69, 30
2, 262800, Note_on_c, 0, 78, 30
2, 262919, Note_on_c, 0, 69, 0
2, 262919, Note_on_c, 0, 78, 0
2, 263040, Note_on_c, 0, 67, 29
2, 263159, Note_on_c, 0, 67, 0
2, 263280, Note_on_c, 0, 69, 29
2, 263280, Note_on_c, 0, 78, 29
2, 263399, Note_on_c, 0, 69, 0
2, 263399, Note_on_c, 0, 78, 0
2, 263520, Note_on_c, 0, 67, 29
2, 263520, Note_on_c, 0, 70, 29
2, 263520, Note_on_c, 0, 79, 29
2, 263639, Note_on_c, 0, 67, 0
2, 263639, Note_on_c, 0, 70, 0
2, 263639, Note_on_c, 0, 79, 0
2, 264240, Note_on_c, 0, 64, 32
2, 264479, Note_on_c, 0, 64, 0
2, 264480, Note_on_c, 0, 63, 27
2, 264599, Note_on_c, 0, 63, 0
2, 264960, Note_on_c, 0, 62, 31
2, 265199, Note_on_c, 0, 62, 0
2, 265200, Note_on_c, 0, 61, 26
2, 265319, Note_on_c, 0, 61, 0
2, 265680, Note_on_c, 0, 60, 30
2, 265919, Note_on_c, 0, 60, 0
2, 265920, Note_on_c, 0, 59, 25
2, 266039, Note_on_c, 0, 59, 0
2, 266400, Note_on_c, 0, 43, 24
2, 266400, Note_on_c, 0, 50, 24
2, 266400, Note_on_c, 0, 58, 24
2, 266639, Note_on_c, 0, 43, 0
2, 266639, Note_on_c, 0, 50, 0
2, 266639, Note_on_c, 0, 58, 0
2, 270720, Note_on_c, 0, 79, 16
2, 270839, Note_on_c, 0, 79, 0
2, 270960, Note_on_c, 0, 78, 16
2, 271079, Note_on_c, 0, 78, 0
2, 271080, Note_on_c, 0, 77, 16
2, 271199, Note_on_c, 0, 77, 0
2, 271200, Note_on_c, 0, 76, 16
2, 271319, Note_on_c, 0, 76, 0
2, 271320, Note_on_c, 0, 75, 16
2, 271439, Note_on_c, 0, 75, 0
2, 271440, Note_on_c, 0, 74, 16
2, 271559, Note_on_c, 0, 74, 0
2, 271680, Note_on_c, 0, 72, 16
2, 271799, Note_on_c, 0, 72, 0
2, 271920, Note_on_c, 0, 69, 16
2, 272039, Note_on_c, 0, 69, 0
2, 272160, Note_on_c, 0, 67, 16
2, 272399, Note_on_c, 0, 67, 0
2, 272400, Note_on_c, 0, 66, 16
2, 272519, Note_on_c, 0, 66, 0
2, 272520, Note_on_c, 0, 65, 16
2, 272639, Note_on_c, 0, 65, 0
2, 272640, Note_on_c, 0, 64, 16
2, 272759, Note_on_c, 0, 64, 0
2, 272760, Note_on_c, 0, 63, 16
2, 272879, Note_on_c, 0, 63, 0
2, 272880, Note_on_c, 0, 62, 16
2, 272999, Note_on_c, 0, 62, 0
2, 273120, Note_on_c, 0, 60, 16
2, 273239, Note_on_c, 0, 60, 0
2, 273360, Note_on_c, 0, 57, 16
2, 273479, Note_on_c, 0, 57, 0
2, 273600, Note_on_c, 0, 43, 16
2, 273600, Note_on_c, 0, 50, 16
2, 273839, Note_on_c, 0, 43, 0
2, 273839, Note_on_c, 0, 50, 0
2, 273840, Note_on_c, 0, 62, 16
2, 273959, Note_on_c, 0, 62, 0
2, 273960, Note_on_c, 0, 58, 16
2, 274079, Note_on_c, 0, 58, 0
2, 274080, Note_on_c, 0, 67, 16
2, 274199, Note_on_c, 0, 67, 0
2, 274200, Note_on_c, 0, 62, 16
2, 274319, Note_on_c, 0, 62, 0
2, 274320, Note_on_c, 0, 70, 16
2, 274439, Note_on_c, 0, 70, 0
2, 274560, Note_on_c, 0, 62, 16
2, 274560, Note_on_c, 0, 67, 16
2, 274679, Note_on_c, 0, 62, 0
2, 274679, Note_on_c, 0, 67, 0
2, 274800, Note_on_c, 0, 58, 16
2, 274800, Note_on_c, 0, 62, 16
2, 274800, Note_on_c, 0, 67, 16
2, 274919, Note_on_c, 0, 58, 0
2, 274919, Note_on_c, 0, 62, 0
2, 274919, Note_on_c, 0, 67, 0
2, 275040, Note_on_c, 0, 55, 16
2, 275040, Note_on_c, 0, 58, 16
2, 275040, Note_on_c, 0, 62, 16
2, 275040, Note_on_c, 0, 67, 16
2, 275159, Note_on_c, 0, 55, 0
2, 275159, Note_on_c, 0, 58, 0
2, 275159, Note_on_c, 0, 62, 0
2, 275159, Note_on_c, 0, 67, 0
2, 275760, Note_on_c, 0, 43, 16
2, 275760, Note_on_c, 0, 55, 16
2, 275879, Note_on_c, 0, 43, 0
2, 275879, Note_on_c, 0, 55, 0
2, 276480, Note_on_c, 0, 31, 16
2, 276599, Note_on_c, 0, 31, 0
2, 276600, End_track
0, 0, End_of_file