0, 0, Header, 1, 2, 480
1, 0, Start_track
1, 0, Time_signature, 6, 3, 24, 8
1, 0, Key_signature, -2, "major"
1, 0, Tempo, 909091
1, 0, Control_c, 0, 121, 0
1, 0, Program_c, 0, 0
1, 0, Control_c, 0, 7, 100
1, 0, Control_c, 0, 10, 64
1, 0, Control_c, 0, 91, 0
1, 0, Control_c, 0, 93, 0
1, 0, MIDI_port, 0
1, 720, Tempo, 810813
1, 1440, Tempo, 750002
1, 2880, Note_on_c, 0, 62, 40
1, 3563, Note_on_c, 0, 62, 0
1, 3600, Note_on_c, 0, 65, 66
1, 4967, Note_on_c, 0, 65, 0
1, 5040, Note_on_c, 0, 63, 53
1, 5723, Note_on_c, 0, 63, 0
1, 5760, Note_on_c, 0, 62, 40
1, 6899, Note_on_c, 0, 62, 0
1, 7200, Tempo, 810813
1, 7920, Tempo, 909091
1, 8640, Tempo, 750002
1, 9840, Note_on_c, 0, 70, 40
1, 9840, Note_on_c, 0, 74, 40
1, 10067, Note_on_c, 0, 70, 0
1, 10067, Note_on_c, 0, 74, 0
1, 10080, Note_on_c, 0, 69, 40
1, 10080, Note_on_c, 0, 72, 40
1, 10535, Note_on_c, 0, 69, 0
1, 10535, Note_on_c, 0, 72, 0
1, 10560, Note_on_c, 0, 67, 40
1, 10560, Note_on_c, 0, 70, 40
1, 10787, Note_on_c, 0, 67, 0
1, 10787, Note_on_c, 0, 70, 0
1, 10800, Note_on_c, 0, 66, 40
1, 10800, Note_on_c, 0, 69, 40
1, 11255, Note_on_c, 0, 66, 0
1, 11255, Note_on_c, 0, 69, 0
1, 11280, Note_on_c, 0, 69, 40
1, 11280, Note_on_c, 0, 72, 40
1, 11507, Note_on_c, 0, 69, 0
1, 11507, Note_on_c, 0, 72, 0
1, 11520, Note_on_c, 0, 62, 40
1, 11520, Note_on_c, 0, 70, 40
1, 11975, Note_on_c, 0, 62, 0
1, 11975, Note_on_c, 0, 70, 0
1, 12000, Note_on_c, 0, 60, 40
1, 12000, Note_on_c, 0, 69, 40
1, 12227, Note_on_c, 0, 60, 0
1, 12227, Note_on_c, 0, 69, 0
1, 12240, Note_on_c, 0, 58, 40
1, 12240, Note_on_c, 0, 67, 40
1, 12695, Note_on_c, 0, 58, 0
1, 12695, Note_on_c, 0, 67, 0
1, 12720, Note_on_c, 0, 62, 40
1, 12947, Note_on_c, 0, 62, 0
1, 12960, Note_on_c, 0, 60, 40
1, 12960, Note_on_c, 0, 63, 40
1, 13415, Note_on_c, 0, 60, 0
1, 13415, Note_on_c, 0, 63, 0
1, 13440, Note_on_c, 0, 60, 40
1, 13440, Note_on_c, 0, 63, 40
1, 13667, Note_on_c, 0, 60, 0
1, 13667, Note_on_c, 0, 63, 0
1, 13680, Note_on_c, 0, 60, 40
1, 13680, Note_on_c, 0, 63, 40
1, 13793, Note_on_c, 0, 60, 0
1, 13793, Note_on_c, 0, 63, 0
1, 13800, Note_on_c, 0, 62, 45
1, 13800, Note_on_c, 0, 65, 45
1, 13913, Note_on_c, 0, 62, 0
1, 13913, Note_on_c, 0, 65, 0
1, 13920, Note_on_c, 0, 63, 50
1, 13920, Note_on_c, 0, 67, 50
1, 14147, Note_on_c, 0, 63, 0
1, 14147, Note_on_c, 0, 67, 0
1, 14160, Note_on_c, 0, 60, 50
1, 14160, Note_on_c, 0, 63, 50
1, 14387, Note_on_c, 0, 60, 0
1, 14387, Note_on_c, 0, 63, 0
1, 14400, Tempo, 810813
1, 14400, Note_on_c, 0, 62, 40
1, 15600, Tempo, 750002
1, 15600, Note_on_c, 0, 70, 40
1, 15600, Note_on_c, 0, 74, 40
1, 15827, Note_on_c, 0, 70, 0
1, 15827, Note_on_c, 0, 74, 0
1, 15840, Note_on_c, 0, 69, 40
1, 15840, Note_on_c, 0, 72, 40
1, 16295, Note_on_c, 0, 69, 0
1, 16295, Note_on_c, 0, 72, 0
1, 16320, Note_on_c, 0, 67, 40
1, 16320, Note_on_c, 0, 70, 40
1, 16547, Note_on_c, 0, 67, 0
1, 16547, Note_on_c, 0, 70, 0
1, 16560, Note_on_c, 0, 66, 40
1, 16560, Note_on_c, 0, 69, 40
1, 17015, Note_on_c, 0, 66, 0
1, 17015, Note_on_c, 0, 69, 0
1, 17040, Note_on_c, 0, 69, 40
1, 17040, Note_on_c, 0, 72, 40
1, 17135, Note_on_c, 0, 62, 0
1, 17267, Note_on_c, 0, 69, 0
1, 17267, Note_on_c, 0, 72, 0
1, 17280, Note_on_c, 0, 62, 40
1, 17280, Note_on_c, 0, 70, 40
1, 17735, Note_on_c, 0, 62, 0
1, 17735, Note_on_c, 0, 70, 0
1, 17760, Note_on_c, 0, 60, 40
1, 17760, Note_on_c, 0, 69, 40
1, 17987, Note_on_c, 0, 60, 0
1, 17987, Note_on_c, 0, 69, 0
1, 18000, Note_on_c, 0, 58, 40
1, 18000, Note_on_c, 0, 67, 40
1, 18227, Note_on_c, 0, 58, 0
1, 18227, Note_on_c, 0, 67, 0
1, 18240, Note_on_c, 0, 67, 40
1, 18467, Note_on_c, 0, 67, 0
1, 18480, Note_on_c, 0, 69, 40
1, 18707, Note_on_c, 0, 69, 0
1, 18720, Note_on_c, 0, 70, 40
1, 18947, Note_on_c, 0, 70, 0
1, 18960, Note_on_c, 0, 73, 45
1, 19187, Note_on_c, 0, 73, 0
1, 19200, Note_on_c, 0, 74, 50
1, 19427, Note_on_c, 0, 74, 0
1, 19440, Note_on_c, 0, 73, 66
1, 19440, Note_on_c, 0, 77, 66
1, 19679, Note_on_c, 0, 73, 0
1, 19679, Note_on_c, 0, 77, 0
1, 19680, Tempo, 810813
1, 19680, Note_on_c, 0, 76, 60
1, 19907, Note_on_c, 0, 76, 0
1, 19920, Note_on_c, 0, 74, 65
1, 20147, Note_on_c, 0, 74, 0
1, 20160, Note_on_c, 0, 74, 70
1, 20160, Note_on_c, 0, 81, 70
1, 20615, Note_on_c, 0, 74, 0
1, 20615, Note_on_c, 0, 81, 0
1, 20640, Note_on_c, 0, 77, 66
1, 20867, Note_on_c, 0, 77, 0
1, 20880, Note_on_c, 0, 74, 64
1, 21335, Note_on_c, 0, 74, 0
1, 21360, Note_on_c, 0, 69, 64
1, 21587, Note_on_c, 0, 69, 0
1, 21600, Note_on_c, 0, 70, 58
1, 21656, Note_on_c, 0, 70, 0
1, 21840, Note_on_c, 0, 64, 52
1, 21840, Note_on_c, 0, 73, 52
1, 22067, Note_on_c, 0, 64, 0
1, 22067, Note_on_c, 0, 73, 0
1, 22080, Note_on_c, 0, 65, 46
1, 22080, Note_on_c, 0, 74, 46
1, 22307, Note_on_c, 0, 65, 0
1, 22307, Note_on_c, 0, 74, 0
1, 22320, Note_on_c, 0, 69, 40
1, 22320, Note_on_c, 0, 77, 40
1, 22547, Note_on_c, 0, 69, 0
1, 22547, Note_on_c, 0, 77, 0
1, 22560, Note_on_c, 0, 67, 40
1, 22560, Note_on_c, 0, 76, 40
1, 22787, Note_on_c, 0, 67, 0
1, 22787, Note_on_c, 0, 76, 0
1, 22800, Note_on_c, 0, 65, 37
1, 22800, Note_on_c, 0, 74, 37
1, 23027, Note_on_c, 0, 65, 0
1, 23027, Note_on_c, 0, 74, 0
1, 23040, Tempo, 909091
1, 23040, Note_on_c, 0, 65, 33
1, 23040, Note_on_c, 0, 74, 33
1, 23951, Note_on_c, 0, 65, 0
1, 23951, Note_on_c, 0, 74, 0
1, 24240, Tempo, 750002
1, 24240, Note_on_c, 0, 74, 40
1, 24467, Note_on_c, 0, 74, 0
1, 24480, Note_on_c, 0, 77, 48
1, 24720, Note_on_c, 0, 65, 40
1, 24947, Note_on_c, 0, 65, 0
1, 24959, Note_on_c, 0, 77, 0
1, 24960, Note_on_c, 0, 74, 48
1, 24960, Note_on_c, 0, 67, 40
1, 25187, Note_on_c, 0, 67, 0
1, 25199, Note_on_c, 0, 74, 0
1, 25200, Note_on_c, 0, 72, 48
1, 25440, Note_on_c, 0, 65, 40
1, 25667, Note_on_c, 0, 65, 0
1, 25679, Note_on_c, 0, 72, 0
1, 25680, Note_on_c, 0, 71, 48
1, 25680, Note_on_c, 0, 67, 40
1, 25907, Note_on_c, 0, 67, 0
1, 25919, Note_on_c, 0, 71, 0
1, 25920, Note_on_c, 0, 72, 40
1, 25920, Note_on_c, 0, 72, 0
1, 25920, Note_on_c, 0, 72, 40
1, 26160, Note_on_c, 0, 60, 40
1, 26160, Note_on_c, 0, 63, 40
1, 26375, Note_on_c, 0, 72, 0
1, 26387, Note_on_c, 0, 60, 0
1, 26387, Note_on_c, 0, 63, 0
1, 26400, Note_on_c, 0, 67, 48
1, 26400, Note_on_c, 0, 67, 0
1, 26400, Note_on_c, 0, 67, 40
1, 26639, Note_on_c, 0, 67, 0
1, 26640, Note_on_c, 0, 68, 48
1, 26640, Note_on_c, 0, 68, 0
1, 26640, Note_on_c, 0, 68, 40
1, 26880, Note_on_c, 0, 62, 40
1, 26880, Note_on_c, 0, 65, 40
1, 27095, Note_on_c, 0, 68, 0
1, 27107, Note_on_c, 0, 62, 0
1, 27107, Note_on_c, 0, 65, 0
1, 27120, Note_on_c, 0, 71, 48
1, 27120, Note_on_c, 0, 71, 0
1, 27120, Note_on_c, 0, 71, 40
1, 27359, Note_on_c, 0, 71, 0
1, 27360, Note_on_c, 0, 72, 40
1, 27360, Note_on_c, 0, 72, 0
1, 27360, Note_on_c, 0, 72, 40
1, 27600, Note_on_c, 0, 60, 40
1, 27600, Note_on_c, 0, 63, 40
1, 27815, Note_on_c, 0, 72, 0
1, 27827, Note_on_c, 0, 60, 0
1, 27827, Note_on_c, 0, 63, 0
1, 27840, Note_on_c, 0, 67, 48
1, 27840, Note_on_c, 0, 67, 0
1, 27840, Note_on_c, 0, 67, 40
1, 28079, Note_on_c, 0, 67, 0
1, 28080, Note_on_c, 0, 68, 48
1, 28080, Note_on_c, 0, 68, 0
1, 28080, Note_on_c, 0, 68, 40
1, 28320, Note_on_c, 0, 62, 40
1, 28320, Note_on_c, 0, 65, 40
1, 28535, Note_on_c, 0, 68, 0
1, 28547, Note_on_c, 0, 62, 0
1, 28547, Note_on_c, 0, 65, 0
1, 28560, Note_on_c, 0, 71, 48
1, 28560, Note_on_c, 0, 71, 0
1, 28560, Note_on_c, 0, 71, 40
1, 28799, Note_on_c, 0, 71, 0
1, 28800, Tempo, 810813
1, 28800, Note_on_c, 0, 72, 48
1, 28800, Note_on_c, 0, 72, 0
1, 28800, Note_on_c, 0, 72, 40
1, 29040, Note_on_c, 0, 63, 39
1, 29267, Note_on_c, 0, 63, 0
1, 29280, Note_on_c, 0, 67, 38
1, 29507, Note_on_c, 0, 67, 0
1, 29747, Note_on_c, 0, 72, 0
1, 29760, Note_on_c, 0, 63, 35
1, 29987, Note_on_c, 0, 63, 0
1, 30000, Tempo, 750002
1, 30000, Note_on_c, 0, 72, 39
1, 30000, Note_on_c, 0, 67, 33
1, 30227, Note_on_c, 0, 67, 0
1, 30239, Note_on_c, 0, 72, 0
1, 30240, Note_on_c, 0, 75, 39
1, 30240, Note_on_c, 0, 75, 0
1, 30240, Note_on_c, 0, 75, 33
1, 30480, Note_on_c, 0, 63, 33
1, 30707, Note_on_c, 0, 63, 0
1, 30719, Note_on_c, 0, 75, 0
1, 30720, Note_on_c, 0, 69, 39
1, 30720, Note_on_c, 0, 66, 33
1, 30947, Note_on_c, 0, 66, 0
1, 30959, Note_on_c, 0, 69, 0
1, 30960, Note_on_c, 0, 75, 39
1, 30960, Note_on_c, 0, 75, 0
1, 30960, Note_on_c, 0, 75, 33
1, 31200, Note_on_c, 0, 63, 33
1, 31427, Note_on_c, 0, 63, 0
1, 31439, Note_on_c, 0, 75, 0
1, 31440, Note_on_c, 0, 69, 39
1, 31440, Note_on_c, 0, 66, 33
1, 31667, Note_on_c, 0, 66, 0
1, 31679, Note_on_c, 0, 69, 0
1, 31680, Note_on_c, 0, 75, 39
1, 31680, Note_on_c, 0, 75, 0
1, 31680, Note_on_c, 0, 75, 33
1, 31920, Note_on_c, 0, 63, 33
1, 32147, Note_on_c, 0, 63, 0
1, 32160, Note_on_c, 0, 66, 33
1, 32160, Note_on_c, 0, 69, 33
1, 32387, Note_on_c, 0, 66, 0
1, 32387, Note_on_c, 0, 69, 0
1, 32640, Note_on_c, 0, 63, 33
1, 32855, Note_on_c, 0, 75, 0
1, 32867, Note_on_c, 0, 63, 0
1, 32880, Tempo, 810813
1, 32880, Note_on_c, 0, 74, 39
1, 32880, Note_on_c, 0, 69, 33
1, 33107, Note_on_c, 0, 69, 0
1, 33119, Note_on_c, 0, 74, 0
1, 33120, Note_on_c, 0, 72, 39
1, 33360, Note_on_c, 0, 62, 33
1, 33587, Note_on_c, 0, 62, 0
1, 33599, Note_on_c, 0, 72, 0
1, 33600, Note_on_c, 0, 70, 39
1, 33600, Note_on_c, 0, 67, 33
1, 33827, Note_on_c, 0, 67, 0
1, 33839, Note_on_c, 0, 70, 0
1, 33840, Note_on_c, 0, 69, 39
1, 34079, Note_on_c, 0, 69, 0
1, 34080, Note_on_c, 0, 70, 39
1, 34080, Note_on_c, 0, 61, 33
1, 34307, Note_on_c, 0, 61, 0
1, 34319, Note_on_c, 0, 70, 0
1, 34320, Note_on_c, 0, 67, 39
1, 34320, Note_on_c, 0, 67, 0
1, 34320, Note_on_c, 0, 67, 33
1, 34559, Note_on_c, 0, 67, 0
1, 34560, Tempo, 1621626
1, 34560, Note_on_c, 0, 62, 33
1, 34560, Note_on_c, 0, 66, 33
1, 34560, Note_on_c, 0, 69, 33
1, 34560, Note_on_c, 0, 74, 33
1, 34799, Tempo, 810813
1, 34799, Note_on_c, 0, 62, 0
1, 34799, Note_on_c, 0, 66, 0
1, 34799, Note_on_c, 0, 69, 0
1, 34799, Note_on_c, 0, 74, 0
1, 34800, Note_on_c, 0, 74, 41
1, 34919, Note_on_c, 0, 74, 0
1, 35040, Note_on_c, 0, 74, 49
1, 35159, Note_on_c, 0, 74, 0
1, 35280, Note_on_c, 0, 74, 49
1, 35399, Note_on_c, 0, 74, 0
1, 35520, Note_on_c, 0, 74, 41
1, 35639, Note_on_c, 0, 74, 0
1, 35760, Tempo, 1216220
1, 35760, Note_on_c, 0, 74, 33
1, 35999, Tempo, 810813
1, 35999, Note_on_c, 0, 74, 0
1, 36000, Tempo, 810813
1, 36000, Note_on_c, 0, 74, 48
1, 36002, Control_c, 0, 64, 127
1, 36119, Note_on_c, 0, 74, 0
1, 36240, Note_on_c, 0, 70, 48
1, 36240, Note_on_c, 0, 62, 40
1, 36240, Note_on_c, 0, 67, 40
1, 36359, Note_on_c, 0, 70, 0
1, 36359, Note_on_c, 0, 62, 0
1, 36359, Note_on_c, 0, 67, 0
1, 36480, Note_on_c, 0, 75, 48
1, 36480, Note_on_c, 0, 65, 40
1, 36480, Note_on_c, 0, 72, 40
1, 36599, Note_on_c, 0, 75, 0
1, 36599, Note_on_c, 0, 65, 0
1, 36599, Note_on_c, 0, 72, 0
1, 36720, Note_on_c, 0, 74, 48
1, 36721, Control_c, 0, 64, 0
1, 36959, Note_on_c, 0, 74, 0
1, 36960, Note_on_c, 0, 67, 40
1, 36960, Note_on_c, 0, 70, 40
1, 37079, Note_on_c, 0, 67, 0
1, 37079, Note_on_c, 0, 70, 0
1, 37200, Note_on_c, 0, 79, 48
1, 37200, Note_on_c, 0, 70, 40
1, 37200, Note_on_c, 0, 74, 40
1, 37319, Note_on_c, 0, 79, 0
1, 37319, Note_on_c, 0, 70, 0
1, 37319, Note_on_c, 0, 74, 0
1, 37440, Note_on_c, 0, 74, 36
1, 37442, Control_c, 0, 64, 127
1, 37559, Note_on_c, 0, 74, 0
1, 37680, Note_on_c, 0, 70, 36
1, 37680, Note_on_c, 0, 62, 30
1, 37680, Note_on_c, 0, 67, 30
1, 37799, Note_on_c, 0, 70, 0
1, 37799, Note_on_c, 0, 62, 0
1, 37799, Note_on_c, 0, 67, 0
1, 37920, Note_on_c, 0, 75, 36
1, 37920, Note_on_c, 0, 65, 30
1, 37920, Note_on_c, 0, 72, 30
1, 38039, Note_on_c, 0, 75, 0
1, 38039, Note_on_c, 0, 65, 0
1, 38039, Note_on_c, 0, 72, 0
1, 38160, Note_on_c, 0, 74, 36
1, 38161, Control_c, 0, 64, 0
1, 38162, Control_c, 0, 64, 127
1, 38399, Note_on_c, 0, 74, 0
1, 38400, Note_on_c, 0, 67, 30
1, 38400, Note_on_c, 0, 70, 30
1, 38519, Note_on_c, 0, 67, 0
1, 38519, Note_on_c, 0, 70, 0
1, 38640, Note_on_c, 0, 79, 36
1, 38640, Note_on_c, 0, 70, 30
1, 38640, Note_on_c, 0, 74, 30
1, 38759, Note_on_c, 0, 79, 0
1, 38759, Note_on_c, 0, 70, 0
1, 38759, Note_on_c, 0, 74, 0
1, 38880, Note_on_c, 0, 74, 48
1, 38881, Control_c, 0, 64, 0
1, 39119, Note_on_c, 0, 74, 0
1, 39120, Note_on_c, 0, 72, 48
1, 39120, Note_on_c, 0, 62, 40
1, 39120, Note_on_c, 0, 67, 40
1, 39347, Note_on_c, 0, 62, 0
1, 39347, Note_on_c, 0, 67, 0
1, 39359, Note_on_c, 0, 72, 0
1, 39360, Note_on_c, 0, 70, 48
1, 39360, Note_on_c, 0, 62, 40
1, 39360, Note_on_c, 0, 67, 40
1, 39587, Note_on_c, 0, 62, 0
1, 39587, Note_on_c, 0, 67, 0
1, 39599, Note_on_c, 0, 70, 0
1, 39600, Note_on_c, 0, 69, 48
1, 39840, Note_on_c, 0, 63, 40
1, 39840, Note_on_c, 0, 67, 40
1, 40067, Note_on_c, 0, 63, 0
1, 40067, Note_on_c, 0, 67, 0
1, 40079, Note_on_c, 0, 69, 0
1, 40080, Note_on_c, 0, 69, 48
1, 40080, Note_on_c, 0, 63, 40
1, 40080, Note_on_c, 0, 67, 40
1, 40307, Note_on_c, 0, 63, 0
1, 40307, Note_on_c, 0, 67, 0
1, 40319, Note_on_c, 0, 69, 0
1, 40320, Note_on_c, 0, 74, 48
1, 40560, Note_on_c, 0, 62, 40
1, 40560, Note_on_c, 0, 66, 40
1, 40787, Note_on_c, 0, 62, 0
1, 40787, Note_on_c, 0, 66, 0
1, 40799, Note_on_c, 0, 74, 0
1, 40800, Note_on_c, 0, 69, 46
1, 40800, Note_on_c, 0, 62, 39
1, 40800, Note_on_c, 0, 66, 39
1, 41027, Note_on_c, 0, 62, 0
1, 41027, Note_on_c, 0, 66, 0
1, 41039, Note_on_c, 0, 69, 0
1, 41040, Tempo, 882356
1, 41040, Note_on_c, 0, 72, 44
1, 41280, Note_on_c, 0, 62, 35
1, 41280, Note_on_c, 0, 69, 35
1, 41507, Note_on_c, 0, 62, 0
1, 41507, Note_on_c, 0, 69, 0
1, 41519, Note_on_c, 0, 72, 0
1, 41520, Note_on_c, 0, 70, 39
1, 41520, Note_on_c, 0, 62, 33
1, 41520, Note_on_c, 0, 67, 33
1, 41747, Note_on_c, 0, 62, 0
1, 41747, Note_on_c, 0, 67, 0
1, 41759, Note_on_c, 0, 70, 0
1, 41760, Tempo, 810813
1, 41760, Note_on_c, 0, 74, 48
1, 41999, Note_on_c, 0, 74, 0
1, 42000, Note_on_c, 0, 70, 48
1, 42000, Note_on_c, 0, 62, 40
1, 42000, Note_on_c, 0, 67, 40
1, 42227, Note_on_c, 0, 62, 0
1, 42227, Note_on_c, 0, 67, 0
1, 42239, Note_on_c, 0, 70, 0
1, 42240, Note_on_c, 0, 75, 48
1, 42240, Note_on_c, 0, 66, 40
1, 42240, Note_on_c, 0, 72, 40
1, 42467, Note_on_c, 0, 66, 0
1, 42467, Note_on_c, 0, 72, 0
1, 42479, Note_on_c, 0, 75, 0
1, 42480, Note_on_c, 0, 74, 48
1, 42720, Note_on_c, 0, 67, 40
1, 42720, Note_on_c, 0, 70, 40
1, 42947, Note_on_c, 0, 67, 0
1, 42947, Note_on_c, 0, 70, 0
1, 42959, Note_on_c, 0, 74, 0
1, 42960, Note_on_c, 0, 79, 48
1, 42960, Note_on_c, 0, 70, 40
1, 42960, Note_on_c, 0, 74, 40
1, 43187, Note_on_c, 0, 70, 0
1, 43187, Note_on_c, 0, 74, 0
1, 43199, Note_on_c, 0, 79, 0
1, 43200, Tempo, 882356
1, 43200, Note_on_c, 0, 74, 36
1, 43439, Note_on_c, 0, 74, 0
1, 43440, Note_on_c, 0, 70, 36
1, 43440, Note_on_c, 0, 62, 30
1, 43440, Note_on_c, 0, 67, 30
1, 43667, Note_on_c, 0, 62, 0
1, 43667, Note_on_c, 0, 67, 0
1, 43679, Note_on_c, 0, 70, 0
1, 43680, Note_on_c, 0, 75, 48
1, 43680, Note_on_c, 0, 66, 40
1, 43680, Note_on_c, 0, 72, 40
1, 43907, Note_on_c, 0, 66, 0
1, 43907, Note_on_c, 0, 72, 0
1, 43919, Note_on_c, 0, 75, 0
1, 43920, Note_on_c, 0, 74, 60
1, 44160, Note_on_c, 0, 67, 60
1, 44160, Note_on_c, 0, 71, 60
1, 44387, Note_on_c, 0, 67, 0
1, 44387, Note_on_c, 0, 71, 0
1, 44399, Note_on_c, 0, 74, 0
1, 44400, Tempo, 1764711
1, 44400, Note_on_c, 0, 79, 70
1, 44400, Note_on_c, 0, 71, 70
1, 44400, Note_on_c, 0, 74, 70
1, 44400, Note_on_c, 0, 77, 70
1, 44627, Note_on_c, 0, 71, 0
1, 44627, Note_on_c, 0, 74, 0
1, 44627, Note_on_c, 0, 77, 0
1, 44639, Tempo, 882356
1, 44640, Note_on_c, 0, 72, 50
1, 44640, Note_on_c, 0, 75, 50
1, 44855, Note_on_c, 0, 79, 0
1, 44867, Note_on_c, 0, 72, 0
1, 44867, Note_on_c, 0, 75, 0
1, 44880, Note_on_c, 0, 79, 60
1, 45119, Note_on_c, 0, 79, 0
1, 45120, Note_on_c, 0, 75, 58
1, 45359, Note_on_c, 0, 75, 0
1, 45360, Note_on_c, 0, 74, 57
1, 45599, Note_on_c, 0, 74, 0
1, 45600, Note_on_c, 0, 75, 56
1, 45839, Note_on_c, 0, 75, 0
1, 45840, Note_on_c, 0, 72, 55
1, 46079, Note_on_c, 0, 72, 0
1, 46080, Note_on_c, 0, 70, 54
1, 46319, Note_on_c, 0, 70, 0
1, 46320, Note_on_c, 0, 72, 52
1, 46320, Note_on_c, 0, 67, 44
1, 46547, Note_on_c, 0, 67, 0
1, 46559, Note_on_c, 0, 72, 0
1, 46560, Note_on_c, 0, 69, 51
1, 46560, Note_on_c, 0, 63, 43
1, 46787, Note_on_c, 0, 63, 0
1, 46799, Note_on_c, 0, 69, 0
1, 46800, Note_on_c, 0, 67, 42
1, 47027, Note_on_c, 0, 67, 0
1, 47040, Note_on_c, 0, 69, 41
1, 47267, Note_on_c, 0, 69, 0
1, 47280, Note_on_c, 0, 60, 40
1, 47280, Note_on_c, 0, 62, 40
1, 47280, Note_on_c, 0, 66, 40
1, 47507, Note_on_c, 0, 60, 0
1, 47507, Note_on_c, 0, 62, 0
1, 47507, Note_on_c, 0, 66, 0
1, 47520, Tempo, 810813
1, 47520, Note_on_c, 0, 58, 40
1, 47520, Note_on_c, 0, 62, 40
1, 47520, Note_on_c, 0, 67, 40
1, 47747, Note_on_c, 0, 58, 0
1, 47747, Note_on_c, 0, 62, 0
1, 47747, Note_on_c, 0, 67, 0
1, 48240, Tempo, 750002
1, 48720, Note_on_c, 0, 70, 60
1, 48720, Note_on_c, 0, 74, 60
1, 48947, Note_on_c, 0, 70, 0
1, 48947, Note_on_c, 0, 74, 0
1, 48960, Note_on_c, 0, 69, 60
1, 48960, Note_on_c, 0, 72, 60
1, 49415, Note_on_c, 0, 69, 0
1, 49415, Note_on_c, 0, 72, 0
1, 49440, Note_on_c, 0, 67, 60
1, 49440, Note_on_c, 0, 70, 60
1, 49667, Note_on_c, 0, 67, 0
1, 49667, Note_on_c, 0, 70, 0
1, 49680, Note_on_c, 0, 66, 60
1, 49680, Note_on_c, 0, 69, 60
1, 50135, Note_on_c, 0, 66, 0
1, 50135, Note_on_c, 0, 69, 0
1, 50160, Note_on_c, 0, 63, 60
1, 50160, Note_on_c, 0, 72, 60
1, 50387, Note_on_c, 0, 63, 0
1, 50387, Note_on_c, 0, 72, 0
1, 50400, Note_on_c, 0, 62, 60
1, 50400, Note_on_c, 0, 70, 60
1, 50855, Note_on_c, 0, 62, 0
1, 50855, Note_on_c, 0, 70, 0
1, 50880, Note_on_c, 0, 74, 60
1, 50880, Note_on_c, 0, 86, 60
1, 51107, Note_on_c, 0, 74, 0
1, 51107, Note_on_c, 0, 86, 0
1, 51120, Note_on_c, 0, 74, 60
1, 51120, Note_on_c, 0, 86, 60
1, 51575, Note_on_c, 0, 74, 0
1, 51575, Note_on_c, 0, 86, 0
1, 51600, Note_on_c, 0, 62, 60
1, 51600, Note_on_c, 0, 70, 60
1, 51827, Note_on_c, 0, 62, 0
1, 51827, Note_on_c, 0, 70, 0
1, 51840, Note_on_c, 0, 60, 57
1, 51840, Note_on_c, 0, 69, 57
1, 52295, Note_on_c, 0, 60, 0
1, 52295, Note_on_c, 0, 69, 0
1, 52320, Note_on_c, 0, 58, 49
1, 52320, Note_on_c, 0, 67, 49
1, 52547, Note_on_c, 0, 58, 0
1, 52547, Note_on_c, 0, 67, 0
1, 52560, Note_on_c, 0, 57, 45
1, 52560, Note_on_c, 0, 66, 45
1, 53015, Note_on_c, 0, 57, 0
1, 53015, Note_on_c, 0, 66, 0
1, 53040, Note_on_c, 0, 66, 37
1, 53040, Note_on_c, 0, 69, 37
1, 53267, Note_on_c, 0, 66, 0
1, 53267, Note_on_c, 0, 69, 0
1, 53280, Note_on_c, 0, 62, 33
1, 53280, Note_on_c, 0, 67, 33
1, 53735, Note_on_c, 0, 62, 0
1, 53735, Note_on_c, 0, 67, 0
1, 53760, Note_on_c, 0, 74, 33
1, 53760, Note_on_c, 0, 86, 33
1, 53987, Note_on_c, 0, 74, 0
1, 53987, Note_on_c, 0, 86, 0
1, 54000, Note_on_c, 0, 74, 33
1, 54000, Note_on_c, 0, 86, 33
1, 54455, Note_on_c, 0, 74, 0
1, 54455, Note_on_c, 0, 86, 0
1, 54480, Note_on_c, 0, 62, 33
1, 54480, Note_on_c, 0, 70, 33
1, 54707, Note_on_c, 0, 62, 0
1, 54707, Note_on_c, 0, 70, 0
1, 54720, Tempo, 810813
1, 54720, Note_on_c, 0, 67, 33
1, 55175, Note_on_c, 0, 67, 0
1, 55200, Note_on_c, 0, 74, 33
1, 55200, Note_on_c, 0, 86, 33
1, 55427, Note_on_c, 0, 74, 0
1, 55427, Note_on_c, 0, 86, 0
1, 55440, Note_on_c, 0, 74, 33
1, 55440, Note_on_c, 0, 86, 33
1, 55895, Note_on_c, 0, 74, 0
1, 55895, Note_on_c, 0, 86, 0
1, 56880, Note_on_c, 0, 65, 33
1, 58247, Note_on_c, 0, 65, 0
1, 58320, Note_on_c, 0, 63, 33
1, 59003, Note_on_c, 0, 63, 0
1, 59040, Note_on_c, 0, 62, 33
1, 60179, Note_on_c, 0, 62, 0
1, 60480, Tempo, 882356
1, 61920, Tempo, 1000000
1, 62640, Note_on_c, 0, 62, 30
1, 63360, Tempo, 1250000
1, 63587, Note_on_c, 0, 62, 0
1, 64080, Tempo, 1666667
1, 64080, Note_on_c, 0, 62, 30
1, 64800, Tempo, 2500000
1, 64991, Note_on_c, 0, 62, 0
1, 66239, Tempo, 1666667
1, 66240, End_track
2, 0, Start_track
2, 0, Key_signature, -2, "major"
2, 0, MIDI_port, 0
2, 0, Note_on_c, 0, 43, 25
2, 2, Control_c, 0, 64, 127
2, 240, Note_on_c, 0, 55, 25
2, 240, Note_on_c, 0, 58, 25
2, 455, Note_on_c, 0, 43, 0
2, 467, Note_on_c, 0, 55, 0
2, 467, Note_on_c, 0, 58, 0
2, 480, Note_on_c, 0, 50, 25
2, 707, Note_on_c, 0, 50, 0
2, 720, Note_on_c, 0, 43, 26
2, 721, Control_c, 0, 64, 0
2, 722, Control_c, 0, 64, 127
2, 960, Note_on_c, 0, 55, 27
2, 960, Note_on_c, 0, 58, 27
2, 1175, Note_on_c, 0, 43, 0
2, 1187, Note_on_c, 0, 55, 0
2, 1187, Note_on_c, 0, 58, 0
2, 1200, Note_on_c, 0, 50, 27
2, 1427, Note_on_c, 0, 50, 0
2, 1440, Note_on_c, 0, 43, 28
2, 1441, Control_c, 0, 64, 0
2, 1442, Control_c, 0, 64, 127
2, 1680, Note_on_c, 0, 55, 29
2, 1680, Note_on_c, 0, 58, 29
2, 1895, Note_on_c, 0, 43, 0
2, 1907, Note_on_c, 0, 55, 0
2, 1907, Note_on_c, 0, 58, 0
2, 1920, Note_on_c, 0, 50, 30
2, 2147, Note_on_c, 0, 50, 0
2, 2160, Note_on_c, 0, 43, 30
2, 2161, Control_c, 0, 64, 0
2, 2162, Control_c, 0, 64, 127
2, 2400, Note_on_c, 0, 55, 31
2, 2400, Note_on_c, 0, 57, 31
2, 2400, Note_on_c, 0, 60, 31
2, 2615, Note_on_c, 0, 43, 0
2, 2627, Note_on_c, 0, 55, 0
2, 2627, Note_on_c, 0, 57, 0
2, 2627, Note_on_c, 0, 60, 0
2, 2640, Note_on_c, 0, 51, 32
2, 2867, Note_on_c, 0, 51, 0
2, 2880, Note_on_c, 0, 31, 33
2, 2880, Note_on_c, 0, 43, 33
2, 2881, Control_c, 0, 64, 0
2, 2882, Control_c, 0, 64, 127
2, 3120, Note_on_c, 0, 55, 33
2, 3120, Note_on_c, 0, 58, 33
2, 3335, Note_on_c, 0, 31, 0
2, 3335, Note_on_c, 0, 43, 0
2, 3347, Note_on_c, 0, 55, 0
2, 3347, Note_on_c, 0, 58, 0
2, 3360, Note_on_c, 0, 50, 33
2, 3587, Note_on_c, 0, 50, 0
2, 3600, Note_on_c, 0, 29, 33
2, 3600, Note_on_c, 0, 41, 33
2, 3601, Control_c, 0, 64, 0
2, 3602, Control_c, 0, 64, 127
2, 3840, Note_on_c, 0, 57, 33
2, 3840, Note_on_c, 0, 60, 33
2, 4055, Note_on_c, 0, 29, 0
2, 4055, Note_on_c, 0, 41, 0
2, 4067, Note_on_c, 0, 57, 0
2, 4067, Note_on_c, 0, 60, 0
2, 4080, Note_on_c, 0, 53, 33
2, 4307, Note_on_c, 0, 53, 0
2, 4320, Note_on_c, 0, 34, 33
2, 4320, Note_on_c, 0, 46, 33
2, 4321, Control_c, 0, 64, 0
2, 4322, Control_c, 0, 64, 127
2, 4560, Note_on_c, 0, 58, 33
2, 4560, Note_on_c, 0, 62, 33
2, 4775, Note_on_c, 0, 34, 0
2, 4775, Note_on_c, 0, 46, 0
2, 4787, Note_on_c, 0, 58, 0
2, 4787, Note_on_c, 0, 62, 0
2, 4800, Note_on_c, 0, 53, 33
2, 5027, Note_on_c, 0, 53, 0
2, 5040, Note_on_c, 0, 36, 33
2, 5040, Note_on_c, 0, 48, 33
2, 5041, Control_c, 0, 64, 0
2, 5042, Control_c, 0, 64, 127
2, 5280, Note_on_c, 0, 55, 33
2, 5280, Note_on_c, 0, 60, 33
2, 5495, Note_on_c, 0, 36, 0
2, 5495, Note_on_c, 0, 48, 0
2, 5507, Note_on_c, 0, 55, 0
2, 5507, Note_on_c, 0, 60, 0
2, 5520, Note_on_c, 0, 51, 33
2, 5747, Note_on_c, 0, 51, 0
2, 5760, Note_on_c, 0, 38, 33
2, 5761, Control_c, 0, 64, 0
2, 5762, Control_c, 0, 64, 127
2, 6000, Note_on_c, 0, 55, 33
2, 6000, Note_on_c, 0, 58, 33
2, 6215, Note_on_c, 0, 38, 0
2, 6227, Note_on_c, 0, 55, 0
2, 6227, Note_on_c, 0, 58, 0
2, 6240, Note_on_c, 0, 50, 33
2, 6467, Note_on_c, 0, 50, 0
2, 6480, Note_on_c, 0, 38, 33
2, 6481, Control_c, 0, 64, 0
2, 6482, Control_c, 0, 64, 127
2, 6720, Note_on_c, 0, 55, 33
2, 6720, Note_on_c, 0, 58, 33
2, 6935, Note_on_c, 0, 38, 0
2, 6947, Note_on_c, 0, 55, 0
2, 6947, Note_on_c, 0, 58, 0
2, 6960, Note_on_c, 0, 50, 33
2, 7187, Note_on_c, 0, 50, 0
2, 7200, Note_on_c, 0, 38, 33
2, 7201, Control_c, 0, 64, 0
2, 7202, Control_c, 0, 64, 127
2, 7440, Note_on_c, 0, 57, 33
2, 7440, Note_on_c, 0, 60, 33
2, 7655, Note_on_c, 0, 38, 0
2, 7667, Note_on_c, 0, 57, 0
2, 7667, Note_on_c, 0, 60, 0
2, 7680, Note_on_c, 0, 50, 33
2, 7907, Note_on_c, 0, 50, 0
2, 7920, Note_on_c, 0, 38, 33
2, 7921, Control_c, 0, 64, 0
2, 7922, Control_c, 0, 64, 127
2, 8160, Note_on_c, 0, 54, 33
2, 8160, Note_on_c, 0, 57, 33
2, 8375, Note_on_c, 0, 38, 0
2, 8387, Note_on_c, 0, 54, 0
2, 8387, Note_on_c, 0, 57, 0
2, 8400, Note_on_c, 0, 50, 33
2, 8627, Note_on_c, 0, 50, 0
2, 8640, Note_on_c, 0, 43, 33
2, 8641, Control_c, 0, 64, 0
2, 8642, Control_c, 0, 64, 127
2, 8759, Note_on_c, 0, 43, 0
2, 8880, Note_on_c, 0, 55, 33
2, 8880, Note_on_c, 0, 58, 33
2, 9107, Note_on_c, 0, 55, 0
2, 9107, Note_on_c, 0, 58, 0
2, 9120, Note_on_c, 0, 50, 33
2, 9347, Note_on_c, 0, 50, 0
2, 9360, Note_on_c, 0, 43, 33
2, 9361, Control_c, 0, 64, 0
2, 9362, Control_c, 0, 64, 127
2, 9479, Note_on_c, 0, 43, 0
2, 9600, Note_on_c, 0, 55, 33
2, 9600, Note_on_c, 0, 58, 33
2, 9827, Note_on_c, 0, 55, 0
2, 9827, Note_on_c, 0, 58, 0
2, 9840, Note_on_c, 0, 50, 33
2, 10067, Note_on_c, 0, 50, 0
2, 10080, Note_on_c, 0, 43, 33
2, 10081, Control_c, 0, 64, 0
2, 10082, Control_c, 0, 64, 127
2, 10199, Note_on_c, 0, 43, 0
2, 10320, Note_on_c, 0, 57, 33
2, 10320, Note_on_c, 0, 60, 33
2, 10547, Note_on_c, 0, 57, 0
2, 10547, Note_on_c, 0, 60, 0
2, 10560, Note_on_c, 0, 50, 33
2, 10787, Note_on_c, 0, 50, 0
2, 10800, Note_on_c, 0, 43, 33
2, 10801, Control_c, 0, 64, 0
2, 10802, Control_c, 0, 64, 127
2, 10919, Note_on_c, 0, 43, 0
2, 11040, Note_on_c, 0, 57, 33
2, 11040, Note_on_c, 0, 60, 33
2, 11267, Note_on_c, 0, 57, 0
2, 11267, Note_on_c, 0, 60, 0
2, 11280, Note_on_c, 0, 50, 33
2, 11507, Note_on_c, 0, 50, 0
2, 11520, Note_on_c, 0, 43, 33
2, 11521, Control_c, 0, 64, 0
2, 11522, Control_c, 0, 64, 127
2, 11639, Note_on_c, 0, 43, 0
2, 11760, Note_on_c, 0, 55, 33
2, 11760, Note_on_c, 0, 58, 33
2, 11987, Note_on_c, 0, 55, 0
2, 11987, Note_on_c, 0, 58, 0
2, 12000, Note_on_c, 0, 50, 33
2, 12227, Note_on_c, 0, 50, 0
2, 12240, Note_on_c, 0, 43, 33
2, 12241, Control_c, 0, 64, 0
2, 12242, Control_c, 0, 64, 127
2, 12359, Note_on_c, 0, 43, 0
2, 12480, Note_on_c, 0, 55, 33
2, 12707, Note_on_c, 0, 55, 0
2, 12720, Note_on_c, 0, 50, 33
2, 12947, Note_on_c, 0, 50, 0
2, 12960, Note_on_c, 0, 43, 33
2, 12961, Control_c, 0, 64, 0
2, 12962, Control_c, 0, 64, 127
2, 13079, Note_on_c, 0, 43, 0
2, 13200, Note_on_c, 0, 55, 33
2, 13427, Note_on_c, 0, 55, 0
2, 13440, Note_on_c, 0, 50, 33
2, 13667, Note_on_c, 0, 50, 0
2, 13680, Note_on_c, 0, 43, 33
2, 13681, Control_c, 0, 64, 0
2, 13799, Note_on_c, 0, 43, 0
2, 13920, Note_on_c, 0, 55, 40
2, 13920, Note_on_c, 0, 60, 40
2, 14147, Note_on_c, 0, 55, 0
2, 14147, Note_on_c, 0, 60, 0
2, 14160, Note_on_c, 0, 50, 40
2, 14387, Note_on_c, 0, 50, 0
2, 14400, Note_on_c, 0, 43, 33
2, 14402, Control_c, 0, 64, 127
2, 14519, Note_on_c, 0, 43, 0
2, 14640, Note_on_c, 0, 55, 33
2, 14640, Note_on_c, 0, 58, 33
2, 14867, Note_on_c, 0, 55, 0
2, 14867, Note_on_c, 0, 58, 0
2, 14880, Note_on_c, 0, 50, 33
2, 15107, Note_on_c, 0, 50, 0
2, 15120, Note_on_c, 0, 43, 33
2, 15121, Control_c, 0, 64, 0
2, 15122, Control_c, 0, 64, 127
2, 15239, Note_on_c, 0, 43, 0
2, 15360, Note_on_c, 0, 55, 33
2, 15360, Note_on_c, 0, 58, 33
2, 15587, Note_on_c, 0, 55, 0
2, 15587, Note_on_c, 0, 58, 0
2, 15600, Note_on_c, 0, 50, 33
2, 15827, Note_on_c, 0, 50, 0
2, 15840, Note_on_c, 0, 43, 33
2, 15841, Control_c, 0, 64, 0
2, 15842, Control_c, 0, 64, 127
2, 15959, Note_on_c, 0, 43, 0
2, 16080, Note_on_c, 0, 57, 33
2, 16080, Note_on_c, 0, 60, 33
2, 16307, Note_on_c, 0, 57, 0
2, 16307, Note_on_c, 0, 60, 0
2, 16320, Note_on_c, 0, 50, 33
2, 16547, Note_on_c, 0, 50, 0
2, 16560, Note_on_c, 0, 43, 33
2, 16561, Control_c, 0, 64, 0
2, 16562, Control_c, 0, 64, 127
2, 16679, Note_on_c, 0, 43, 0
2, 16800, Note_on_c, 0, 57, 33
2, 16800, Note_on_c, 0, 60, 33
2, 17027, Note_on_c, 0, 57, 0
2, 17027, Note_on_c, 0, 60, 0
2, 17040, Note_on_c, 0, 50, 33
2, 17267, Note_on_c, 0, 50, 0
2, 17280, Note_on_c, 0, 43, 33
2, 17281, Control_c, 0, 64, 0
2, 17282, Control_c, 0, 64, 127
2, 17399, Note_on_c, 0, 43, 0
2, 17520, Note_on_c, 0, 55, 33
2, 17520, Note_on_c, 0, 58, 33
2, 17747, Note_on_c, 0, 55, 0
2, 17747, Note_on_c, 0, 58, 0
2, 17760, Note_on_c, 0, 50, 33
2, 17987, Note_on_c, 0, 50, 0
2, 18000, Note_on_c, 0, 43, 33
2, 18001, Control_c, 0, 64, 0
2, 18002, Control_c, 0, 64, 127
2, 18119, Note_on_c, 0, 43, 0
2, 18240, Note_on_c, 0, 55, 33
2, 18467, Note_on_c, 0, 55, 0
2, 18480, Note_on_c, 0, 50, 33
2, 18707, Note_on_c, 0, 50, 0
2, 18720, Note_on_c, 0, 43, 33
2, 18721, Control_c, 0, 64, 0
2, 18722, Control_c, 0, 64, 127
2, 18839, Note_on_c, 0, 43, 0
2, 18960, Note_on_c, 0, 58, 35
2, 18960, Note_on_c, 0, 62, 35
2, 19187, Note_on_c, 0, 58, 0
2, 19187, Note_on_c, 0, 62, 0
2, 19200, Note_on_c, 0, 55, 38
2, 19427, Note_on_c, 0, 55, 0
2, 19440, Note_on_c, 0, 43, 41
2, 19441, Control_c, 0, 64, 0
2, 19442, Control_c, 0, 64, 127
2, 19559, Note_on_c, 0, 43, 0
2, 19680, Note_on_c, 0, 58, 43
2, 19680, Note_on_c, 0, 61, 43
2, 19907, Note_on_c, 0, 58, 0
2, 19907, Note_on_c, 0, 61, 0
2, 19920, Note_on_c, 0, 55, 46
2, 20147, Note_on_c, 0, 55, 0
2, 20160, Note_on_c, 0, 41, 49
2, 20161, Control_c, 0, 64, 0
2, 20162, Control_c, 0, 64, 127
2, 20279, Note_on_c, 0, 41, 0
2, 20400, Note_on_c, 0, 57, 49
2, 20400, Note_on_c, 0, 62, 49
2, 20627, Note_on_c, 0, 57, 0
2, 20627, Note_on_c, 0, 62, 0
2, 20640, Note_on_c, 0, 53, 45
2, 20867, Note_on_c, 0, 53, 0
2, 20880, Note_on_c, 0, 41, 41
2, 20881, Control_c, 0, 64, 0
2, 20882, Control_c, 0, 64, 127
2, 20999, Note_on_c, 0, 41, 0
2, 21120, Note_on_c, 0, 57, 37
2, 21120, Note_on_c, 0, 62, 37
2, 21347, Note_on_c, 0, 57, 0
2, 21347, Note_on_c, 0, 62, 0
2, 21360, Note_on_c, 0, 53, 33
2, 21587, Note_on_c, 0, 53, 0
2, 21600, Note_on_c, 0, 43, 33
2, 21601, Control_c, 0, 64, 0
2, 21602, Control_c, 0, 64, 127
2, 21719, Note_on_c, 0, 43, 0
2, 21840, Note_on_c, 0, 58, 33
2, 21840, Note_on_c, 0, 62, 33
2, 22067, Note_on_c, 0, 58, 0
2, 22067, Note_on_c, 0, 62, 0
2, 22080, Note_on_c, 0, 55, 33
2, 22307, Note_on_c, 0, 55, 0
2, 22320, Note_on_c, 0, 45, 33
2, 22321, Control_c, 0, 64, 0
2, 22322, Control_c, 0, 64, 127
2, 22439, Note_on_c, 0, 45, 0
2, 22560, Note_on_c, 0, 61, 33
2, 22787, Note_on_c, 0, 61, 0
2, 22800, Note_on_c, 0, 57, 33
2, 23027, Note_on_c, 0, 57, 0
2, 23040, Note_on_c, 0, 50, 33
2, 23041, Control_c, 0, 64, 0
2, 23042, Control_c, 0, 64, 127
2, 23159, Note_on_c, 0, 50, 0
2, 23280, Note_on_c, 0, 57, 33
2, 23280, Note_on_c, 0, 62, 33
2, 23507, Note_on_c, 0, 57, 0
2, 23507, Note_on_c, 0, 62, 0
2, 23520, Note_on_c, 0, 53, 33
2, 23747, Note_on_c, 0, 53, 0
2, 23760, Note_on_c, 0, 50, 33
2, 23761, Control_c, 0, 64, 0
2, 23762, Control_c, 0, 64, 127
2, 23879, Note_on_c, 0, 50, 0
2, 24000, Note_on_c, 0, 57, 33
2, 24000, Note_on_c, 0, 62, 33
2, 24227, Note_on_c, 0, 57, 0
2, 24227, Note_on_c, 0, 62, 0
2, 24240, Note_on_c, 0, 53, 33
2, 24467, Note_on_c, 0, 53, 0
2, 24480, Note_on_c, 0, 43, 33
2, 24481, Control_c, 0, 64, 0
2, 24482, Control_c, 0, 64, 127
2, 24599, Note_on_c, 0, 43, 0
2, 24720, Note_on_c, 0, 55, 33
2, 24720, Note_on_c, 0, 59, 33
2, 24947, Note_on_c, 0, 55, 0
2, 24947, Note_on_c, 0, 59, 0
2, 24960, Note_on_c, 0, 50, 33
2, 25187, Note_on_c, 0, 50, 0
2, 25200, Note_on_c, 0, 43, 33
2, 25201, Control_c, 0, 64, 0
2, 25202, Control_c, 0, 64, 127
2, 25319, Note_on_c, 0, 43, 0
2, 25440, Note_on_c, 0, 55, 33
2, 25440, Note_on_c, 0, 59, 33
2, 25667, Note_on_c, 0, 55, 0
2, 25667, Note_on_c, 0, 59, 0
2, 25680, Note_on_c, 0, 50, 33
2, 25907, Note_on_c, 0, 50, 0
2, 25920, Note_on_c, 0, 36, 33
2, 25921, Control_c, 0, 64, 0
2, 25922, Control_c, 0, 64, 127
2, 26039, Note_on_c, 0, 36, 0
2, 26160, Note_on_c, 0, 55, 33
2, 26387, Note_on_c, 0, 55, 0
2, 26400, Note_on_c, 0, 51, 33
2, 26627, Note_on_c, 0, 51, 0
2, 26640, Note_on_c, 0, 48, 33
2, 26641, Control_c, 0, 64, 0
2, 26642, Control_c, 0, 64, 127
2, 26759, Note_on_c, 0, 48, 0
2, 26880, Note_on_c, 0, 53, 33
2, 26880, Note_on_c, 0, 56, 33
2, 27107, Note_on_c, 0, 53, 0
2, 27107, Note_on_c, 0, 56, 0
2, 27120, Note_on_c, 0, 50, 33
2, 27347, Note_on_c, 0, 50, 0
2, 27360, Note_on_c, 0, 36, 33
2, 27361, Control_c, 0, 64, 0
2, 27362, Control_c, 0, 64, 127
2, 27479, Note_on_c, 0, 36, 0
2, 27600, Note_on_c, 0, 55, 33
2, 27827, Note_on_c, 0, 55, 0
2, 27840, Note_on_c, 0, 51, 33
2, 28067, Note_on_c, 0, 51, 0
2, 28080, Note_on_c, 0, 48, 33
2, 28081, Control_c, 0, 64, 0
2, 28082, Control_c, 0, 64, 127
2, 28199, Note_on_c, 0, 48, 0
2, 28320, Note_on_c, 0, 53, 33
2, 28320, Note_on_c, 0, 56, 33
2, 28547, Note_on_c, 0, 53, 0
2, 28547, Note_on_c, 0, 56, 0
2, 28560, Note_on_c, 0, 50, 33
2, 28787, Note_on_c, 0, 50, 0
2, 28800, Note_on_c, 0, 36, 33
2, 28801, Control_c, 0, 64, 0
2, 28802, Control_c, 0, 64, 127
2, 28919, Note_on_c, 0, 36, 0
2, 29040, Note_on_c, 0, 51, 32
2, 29040, Note_on_c, 0, 55, 32
2, 29267, Note_on_c, 0, 51, 0
2, 29267, Note_on_c, 0, 55, 0
2, 29280, Note_on_c, 0, 48, 31
2, 29507, Note_on_c, 0, 48, 0
2, 29520, Note_on_c, 0, 36, 29
2, 29521, Control_c, 0, 64, 0
2, 29522, Control_c, 0, 64, 127
2, 29639, Note_on_c, 0, 36, 0
2, 29760, Note_on_c, 0, 51, 28
2, 29760, Note_on_c, 0, 55, 28
2, 29987, Note_on_c, 0, 51, 0
2, 29987, Note_on_c, 0, 55, 0
2, 30000, Note_on_c, 0, 48, 27
2, 30227, Note_on_c, 0, 48, 0
2, 30240, Note_on_c, 0, 42, 25
2, 30241, Control_c, 0, 64, 0
2, 30242, Control_c, 0, 64, 127
2, 30359, Note_on_c, 0, 42, 0
2, 30480, Note_on_c, 0, 51, 25
2, 30480, Note_on_c, 0, 57, 25
2, 30707, Note_on_c, 0, 51, 0
2, 30707, Note_on_c, 0, 57, 0
2, 30720, Note_on_c, 0, 48, 25
2, 30947, Note_on_c, 0, 48, 0
2, 30960, Note_on_c, 0, 42, 25
2, 31079, Note_on_c, 0, 42, 0
2, 31200, Note_on_c, 0, 51, 25
2, 31200, Note_on_c, 0, 57, 25
2, 31427, Note_on_c, 0, 51, 0
2, 31427, Note_on_c, 0, 57, 0
2, 31440, Note_on_c, 0, 48, 25
2, 31667, Note_on_c, 0, 48, 0
2, 31680, Note_on_c, 0, 42, 25
2, 31799, Note_on_c, 0, 42, 0
2, 31920, Note_on_c, 0, 51, 25
2, 31920, Note_on_c, 0, 57, 25
2, 32147, Note_on_c, 0, 51, 0
2, 32147, Note_on_c, 0, 57, 0
2, 32160, Note_on_c, 0, 48, 25
2, 32387, Note_on_c, 0, 48, 0
2, 32400, Note_on_c, 0, 42, 25
2, 32519, Note_on_c, 0, 42, 0
2, 32640, Note_on_c, 0, 51, 25
2, 32640, Note_on_c, 0, 57, 25
2, 32867, Note_on_c, 0, 51, 0
2, 32867, Note_on_c, 0, 57, 0
2, 32880, Note_on_c, 0, 48, 25
2, 33107, Note_on_c, 0, 48, 0
2, 33120, Note_on_c, 0, 43, 25
2, 33121, Control_c, 0, 64, 0
2, 33122, Control_c, 0, 64, 127
2, 33239, Note_on_c, 0, 43, 0
2, 33360, Note_on_c, 0, 50, 25
2, 33360, Note_on_c, 0, 55, 25
2, 33587, Note_on_c, 0, 50, 0
2, 33587, Note_on_c, 0, 55, 0
2, 33600, Note_on_c, 0, 46, 25
2, 33827, Note_on_c, 0, 46, 0
2, 33840, Note_on_c, 0, 39, 25
2, 33841, Control_c, 0, 64, 0
2, 33842, Control_c, 0, 64, 127
2, 33959, Note_on_c, 0, 39, 0
2, 34080, Note_on_c, 0, 55, 25
2, 34080, Note_on_c, 0, 58, 25
2, 34307, Note_on_c, 0, 55, 0
2, 34307, Note_on_c, 0, 58, 0
2, 34320, Note_on_c, 0, 51, 25
2, 34547, Note_on_c, 0, 51, 0
2, 34560, Note_on_c, 0, 38, 25
2, 34561, Control_c, 0, 64, 0
2, 35015, Note_on_c, 0, 38, 0
2, 36000, Note_on_c, 0, 31, 33
2, 36000, Note_on_c, 0, 43, 33
2, 36227, Note_on_c, 0, 31, 0
2, 36227, Note_on_c, 0, 43, 0
2, 36722, Control_c, 0, 64, 127
2, 37440, Note_on_c, 0, 31, 33
2, 37440, Note_on_c, 0, 43, 33
2, 37441, Control_c, 0, 64, 0
2, 37667, Note_on_c, 0, 31, 0
2, 37667, Note_on_c, 0, 43, 0
2, 38880, Note_on_c, 0, 34, 33
2, 38880, Note_on_c, 0, 46, 33
2, 38882, Control_c, 0, 64, 127
2, 39107, Note_on_c, 0, 34, 0
2, 39107, Note_on_c, 0, 46, 0
2, 39600, Note_on_c, 0, 36, 33
2, 39600, Note_on_c, 0, 48, 33
2, 39601, Control_c, 0, 64, 0
2, 39602, Control_c, 0, 64, 127
2, 39827, Note_on_c, 0, 36, 0
2, 39827, Note_on_c, 0, 48, 0
2, 40320, Note_on_c, 0, 38, 33
2, 40320, Note_on_c, 0, 50, 33
2, 40321, Control_c, 0, 64, 0
2, 40322, Control_c, 0, 64, 127
2, 40547, Note_on_c, 0, 38, 0
2, 40547, Note_on_c, 0, 50, 0
2, 41040, Note_on_c, 0, 43, 33
2, 41040, Note_on_c, 0, 55, 33
2, 41041, Control_c, 0, 64, 0
2, 41042, Control_c, 0, 64, 127
2, 41267, Note_on_c, 0, 43, 0
2, 41267, Note_on_c, 0, 55, 0
2, 41760, Note_on_c, 0, 31, 33
2, 41760, Note_on_c, 0, 43, 33
2, 41761, Control_c, 0, 64, 0
2, 41762, Control_c, 0, 64, 127
2, 41987, Note_on_c, 0, 31, 0
2, 41987, Note_on_c, 0, 43, 0
2, 42481, Control_c, 0, 64, 0
2, 42482, Control_c, 0, 64, 127
2, 43200, Note_on_c, 0, 43, 33
2, 43200, Note_on_c, 0, 55, 33
2, 43201, Control_c, 0, 64, 0
2, 43202, Control_c, 0, 64, 127
2, 43427, Note_on_c, 0, 43, 0
2, 43427, Note_on_c, 0, 55, 0
2, 43921, Control_c, 0, 64, 0
2, 43922, Control_c, 0, 64, 127
2, 44640, Note_on_c, 0, 36, 33
2, 44640, Note_on_c, 0, 48, 33
2, 44641, Control_c, 0, 64, 0
2, 44642, Control_c, 0, 64, 127
2, 44867, Note_on_c, 0, 36, 0
2, 44867, Note_on_c, 0, 48, 0
2, 45361, Control_c, 0, 64, 0
2, 45362, Control_c, 0, 64, 127
2, 45600, Note_on_c, 0, 67, 33
2, 45827, Note_on_c, 0, 67, 0
2, 45840, Note_on_c, 0, 63, 33
2, 46067, Note_on_c, 0, 63, 0
2, 46080, Note_on_c, 0, 62, 33
2, 46081, Control_c, 0, 64, 0
2, 46082, Control_c, 0, 64, 127
2, 46307, Note_on_c, 0, 62, 0
2, 46320, Note_on_c, 0, 63, 33
2, 46547, Note_on_c, 0, 63, 0
2, 46560, Note_on_c, 0, 60, 33
2, 46787, Note_on_c, 0, 60, 0
2, 46800, Note_on_c, 0, 62, 33
2, 46801, Control_c, 0, 64, 0
2, 46802, Control_c, 0, 64, 127
2, 47027, Note_on_c, 0, 62, 0
2, 47280, Note_on_c, 0, 50, 33
2, 47507, Note_on_c, 0, 50, 0
2, 47520, Note_on_c, 0, 43, 33
2, 47521, Control_c, 0, 64, 0
2, 47522, Control_c, 0, 64, 127
2, 47747, Note_on_c, 0, 43, 0
2, 47760, Note_on_c, 0, 55, 33
2, 47760, Note_on_c, 0, 58, 33
2, 47987, Note_on_c, 0, 55, 0
2, 47987, Note_on_c, 0, 58, 0
2, 48000, Note_on_c, 0, 50, 33
2, 48227, Note_on_c, 0, 50, 0
2, 48240, Note_on_c, 0, 43, 33
2, 48467, Note_on_c, 0, 43, 0
2, 48480, Note_on_c, 0, 55, 33
2, 48480, Note_on_c, 0, 58, 33
2, 48707, Note_on_c, 0, 55, 0
2, 48707, Note_on_c, 0, 58, 0
2, 48720, Note_on_c, 0, 50, 40
2, 48947, Note_on_c, 0, 50, 0
2, 48960, Note_on_c, 0, 43, 40
2, 48961, Control_c, 0, 64, 0
2, 49187, Note_on_c, 0, 43, 0
2, 49200, Note_on_c, 0, 57, 40
2, 49200, Note_on_c, 0, 60, 40
2, 49427, Note_on_c, 0, 57, 0
2, 49427, Note_on_c, 0, 60, 0
2, 49440, Note_on_c, 0, 50, 40
2, 49667, Note_on_c, 0, 50, 0
2, 49680, Note_on_c, 0, 43, 40
2, 49907, Note_on_c, 0, 43, 0
2, 49920, Note_on_c, 0, 57, 40
2, 49920, Note_on_c, 0, 60, 40
2, 50147, Note_on_c, 0, 57, 0
2, 50147, Note_on_c, 0, 60, 0
2, 50160, Note_on_c, 0, 50, 40
2, 50387, Note_on_c, 0, 50, 0
2, 50400, Note_on_c, 0, 43, 40
2, 50402, Control_c, 0, 64, 127
2, 50627, Note_on_c, 0, 43, 0
2, 50640, Note_on_c, 0, 55, 40
2, 50640, Note_on_c, 0, 58, 40
2, 50867, Note_on_c, 0, 55, 0
2, 50867, Note_on_c, 0, 58, 0
2, 50880, Note_on_c, 0, 50, 40
2, 51107, Note_on_c, 0, 50, 0
2, 51120, Note_on_c, 0, 43, 40
2, 51347, Note_on_c, 0, 43, 0
2, 51360, Note_on_c, 0, 55, 40
2, 51360, Note_on_c, 0, 58, 40
2, 51587, Note_on_c, 0, 55, 0
2, 51587, Note_on_c, 0, 58, 0
2, 51600, Note_on_c, 0, 50, 40
2, 51827, Note_on_c, 0, 50, 0
2, 51840, Note_on_c, 0, 43, 38
2, 51841, Control_c, 0, 64, 0
2, 52067, Note_on_c, 0, 43, 0
2, 52080, Note_on_c, 0, 55, 36
2, 52307, Note_on_c, 0, 55, 0
2, 52320, Note_on_c, 0, 50, 34
2, 52547, Note_on_c, 0, 50, 0
2, 52560, Note_on_c, 0, 43, 32
2, 52787, Note_on_c, 0, 43, 0
2, 52800, Note_on_c, 0, 60, 30
2, 52800, Note_on_c, 0, 62, 30
2, 53027, Note_on_c, 0, 60, 0
2, 53027, Note_on_c, 0, 62, 0
2, 53040, Note_on_c, 0, 50, 28
2, 53267, Note_on_c, 0, 50, 0
2, 53280, Note_on_c, 0, 43, 25
2, 53282, Control_c, 0, 64, 127
2, 53507, Note_on_c, 0, 43, 0
2, 53520, Note_on_c, 0, 55, 25
2, 53520, Note_on_c, 0, 58, 25
2, 53747, Note_on_c, 0, 55, 0
2, 53747, Note_on_c, 0, 58, 0
2, 53760, Note_on_c, 0, 50, 25
2, 53987, Note_on_c, 0, 50, 0
2, 54000, Note_on_c, 0, 43, 25
2, 54227, Note_on_c, 0, 43, 0
2, 54240, Note_on_c, 0, 55, 25
2, 54240, Note_on_c, 0, 58, 25
2, 54467, Note_on_c, 0, 55, 0
2, 54467, Note_on_c, 0, 58, 0
2, 54480, Note_on_c, 0, 50, 25
2, 54707, Note_on_c, 0, 50, 0
2, 54720, Note_on_c, 0, 43, 25
2, 54947, Note_on_c, 0, 43, 0
2, 54960, Note_on_c, 0, 55, 25
2, 54960, Note_on_c, 0, 58, 25
2, 55187, Note_on_c, 0, 55, 0
2, 55187, Note_on_c, 0, 58, 0
2, 55200, Note_on_c, 0, 50, 25
2, 55427, Note_on_c, 0, 50, 0
2, 55440, Note_on_c, 0, 43, 25
2, 55667, Note_on_c, 0, 43, 0
2, 55680, Note_on_c, 0, 55, 25
2, 55680, Note_on_c, 0, 58, 25
2, 55907, Note_on_c, 0, 55, 0
2, 55907, Note_on_c, 0, 58, 0
2, 55920, Note_on_c, 0, 50, 25
2, 56147, Note_on_c, 0, 50, 0
2, 56160, Note_on_c, 0, 43, 25
2, 56387, Note_on_c, 0, 43, 0
2, 56400, Note_on_c, 0, 55, 25
2, 56400, Note_on_c, 0, 58, 25
2, 56627, Note_on_c, 0, 55, 0
2, 56627, Note_on_c, 0, 58, 0
2, 56640, Note_on_c, 0, 50, 25
2, 56867, Note_on_c, 0, 50, 0
2, 56880, Note_on_c, 0, 29, 30
2, 56880, Note_on_c, 0, 41, 30
2, 56881, Control_c, 0, 64, 0
2, 56882, Control_c, 0, 64, 127
2, 57120, Note_on_c, 0, 57, 25
2, 57120, Note_on_c, 0, 60, 25
2, 57347, Note_on_c, 0, 57, 0
2, 57347, Note_on_c, 0, 60, 0
2, 57359, Note_on_c, 0, 29, 0
2, 57359, Note_on_c, 0, 41, 0
2, 57360, Note_on_c, 0, 53, 25
2, 57587, Note_on_c, 0, 53, 0
2, 57600, Note_on_c, 0, 34, 30
2, 57600, Note_on_c, 0, 46, 30
2, 57601, Control_c, 0, 64, 0
2, 57602, Control_c, 0, 64, 127
2, 57840, Note_on_c, 0, 58, 25
2, 57840, Note_on_c, 0, 62, 25
2, 58067, Note_on_c, 0, 58, 0
2, 58067, Note_on_c, 0, 62, 0
2, 58079, Note_on_c, 0, 34, 0
2, 58079, Note_on_c, 0, 46, 0
2, 58080, Note_on_c, 0, 53, 25
2, 58307, Note_on_c, 0, 53, 0
2, 58320, Note_on_c, 0, 36, 30
2, 58320, Note_on_c, 0, 48, 30
2, 58321, Control_c, 0, 64, 0
2, 58322, Control_c, 0, 64, 127
2, 58560, Note_on_c, 0, 55, 25
2, 58560, Note_on_c, 0, 60, 25
2, 58787, Note_on_c, 0, 55, 0
2, 58787, Note_on_c, 0, 60, 0
2, 58799, Note_on_c, 0, 36, 0
2, 58799, Note_on_c, 0, 48, 0
2, 58800, Note_on_c, 0, 51, 25
2, 59027, Note_on_c, 0, 51, 0
2, 59040, Note_on_c, 0, 38, 30
2, 59041, Control_c, 0, 64, 0
2, 59042, Control_c, 0, 64, 127
2, 59280, Note_on_c, 0, 55, 25
2, 59280, Note_on_c, 0, 58, 25
2, 59507, Note_on_c, 0, 55, 0
2, 59507, Note_on_c, 0, 58, 0
2, 59519, Note_on_c, 0, 38, 0
2, 59520, Note_on_c, 0, 50, 25
2, 59747, Note_on_c, 0, 50, 0
2, 59760, Note_on_c, 0, 38, 30
2, 59761, Control_c, 0, 64, 0
2, 59762, Control_c, 0, 64, 127
2, 60000, Note_on_c, 0, 55, 25
2, 60000, Note_on_c, 0, 58, 25
2, 60227, Note_on_c, 0, 55, 0
2, 60227, Note_on_c, 0, 58, 0
2, 60239, Note_on_c, 0, 38, 0
2, 60240, Note_on_c, 0, 50, 25
2, 60467, Note_on_c, 0, 50, 0
2, 60480, Note_on_c, 0, 38, 30
2, 60481, Control_c, 0, 64, 0
2, 60482, Control_c, 0, 64, 127
2, 60720, Note_on_c, 0, 57, 25
2, 60720, Note_on_c, 0, 60, 25
2, 60947, Note_on_c, 0, 57, 0
2, 60947, Note_on_c, 0, 60, 0
2, 60959, Note_on_c, 0, 38, 0
2, 60960, Note_on_c, 0, 50, 25
2, 61187, Note_on_c, 0, 50, 0
2, 61200, Note_on_c, 0, 38, 30
2, 61201, Control_c, 0, 64, 0
2, 61202, Control_c, 0, 64, 127
2, 61440, Note_on_c, 0, 54, 25
2, 61440, Note_on_c, 0, 57, 25
2, 61667, Note_on_c, 0, 54, 0
2, 61667, Note_on_c, 0, 57, 0
2, 61679, Note_on_c, 0, 38, 0
2, 61680, Note_on_c, 0, 50, 25
2, 61907, Note_on_c, 0, 50, 0
2, 61920, Note_on_c, 0, 31, 30
2, 61921, Control_c, 0, 64, 0
2, 61922, Control_c, 0, 64, 127
2, 62160, Note_on_c, 0, 55, 25
2, 62160, Note_on_c, 0, 58, 25
2, 62387, Note_on_c, 0, 55, 0
2, 62387, Note_on_c, 0, 58, 0
2, 62399, Note_on_c, 0, 31, 0
2, 62400, Note_on_c, 0, 50, 25
2, 62627, Note_on_c, 0, 50, 0
2, 63360, Note_on_c, 0, 31, 30
2, 63600, Note_on_c, 0, 55, 25
2, 63600, Note_on_c, 0, 58, 25
2, 63827, Note_on_c, 0, 55, 0
2, 63827, Note_on_c, 0, 58, 0
2, 63839, Note_on_c, 0, 31, 0
2, 63840, Note_on_c, 0, 50, 25
2, 64067, Note_on_c, 0, 50, 0
2, 64800, Note_on_c, 0, 31, 30
2, 64801, Control_c, 0, 64, 0
2, 64802, Control_c, 0, 64, 127
2, 66239, Note_on_c, 0, 31, 0
2, 66240, Control_c, 0, 64, 0
2, 66241, End_track
0, 0, End_of_file
