0, 0, Header, 1, 2, 480
1, 0, Start_track
1, 0, Time_signature, 6, 3, 24, 8
1, 0, Key_signature, 3, "major"
1, 0, Tempo, 333333
1, 0, Control_c, 0, 121, 0
1, 0, Program_c, 0, 0
1, 0, Control_c, 0, 7, 100
1, 0, Control_c, 0, 10, 64
1, 0, Control_c, 0, 91, 0
1, 0, Control_c, 0, 93, 0
1, 0, MIDI_port, 0
1, 0, Note_on_c, 0, 81, 33
1, 0, Note_on_c, 0, 85, 33
1, 227, Note_on_c, 0, 81, 0
1, 227, Note_on_c, 0, 85, 0
1, 360, Note_on_c, 0, 80, 33
1, 360, Note_on_c, 0, 83, 33
1, 473, Note_on_c, 0, 80, 0
1, 473, Note_on_c, 0, 83, 0
1, 480, Note_on_c, 0, 81, 33
1, 480, Note_on_c, 0, 85, 33
1, 707, Note_on_c, 0, 81, 0
1, 707, Note_on_c, 0, 85, 0
1, 720, Note_on_c, 0, 83, 33
1, 720, Note_on_c, 0, 86, 33
1, 839, Note_on_c, 0, 83, 0
1, 839, Note_on_c, 0, 86, 0
1, 960, Note_on_c, 0, 80, 33
1, 960, Note_on_c, 0, 83, 33
1, 1079, Note_on_c, 0, 80, 0
1, 1079, Note_on_c, 0, 83, 0
1, 1200, Note_on_c, 0, 81, 33
1, 1200, Note_on_c, 0, 85, 33
1, 1319, Note_on_c, 0, 81, 0
1, 1319, Note_on_c, 0, 85, 0
1, 1440, Note_on_c, 0, 78, 33
1, 1440, Note_on_c, 0, 81, 33
1, 1667, Note_on_c, 0, 78, 0
1, 1667, Note_on_c, 0, 81, 0
1, 1800, Note_on_c, 0, 77, 33
1, 1800, Note_on_c, 0, 80, 33
1, 1913, Note_on_c, 0, 77, 0
1, 1913, Note_on_c, 0, 80, 0
1, 1920, Note_on_c, 0, 78, 33
1, 1920, Note_on_c, 0, 81, 33
1, 2147, Note_on_c, 0, 78, 0
1, 2147, Note_on_c, 0, 81, 0
1, 2160, Note_on_c, 0, 80, 33
1, 2160, Note_on_c, 0, 83, 33
1, 2279, Note_on_c, 0, 80, 0
1, 2279, Note_on_c, 0, 83, 0
1, 2400, Note_on_c, 0, 77, 33
1, 2400, Note_on_c, 0, 80, 33
1, 2519, Note_on_c, 0, 77, 0
1, 2519, Note_on_c, 0, 80, 0
1, 2640, Note_on_c, 0, 78, 33
1, 2640, Note_on_c, 0, 81, 33
1, 2759, Note_on_c, 0, 78, 0
1, 2759, Note_on_c, 0, 81, 0
1, 2880, Note_on_c, 0, 73, 33
1, 2880, Note_on_c, 0, 78, 33
1, 3107, Note_on_c, 0, 73, 0
1, 3107, Note_on_c, 0, 78, 0
1, 3240, Note_on_c, 0, 71, 33
1, 3240, Note_on_c, 0, 77, 33
1, 3353, Note_on_c, 0, 71, 0
1, 3353, Note_on_c, 0, 77, 0
1, 3360, Note_on_c, 0, 73, 33
1, 3360, Note_on_c, 0, 78, 33
1, 3587, Note_on_c, 0, 73, 0
1, 3587, Note_on_c, 0, 78, 0
1, 3600, Note_on_c, 0, 74, 33
1, 3600, Note_on_c, 0, 80, 33
1, 3719, Note_on_c, 0, 74, 0
1, 3719, Note_on_c, 0, 80, 0
1, 3840, Note_on_c, 0, 71, 33
1, 3840, Note_on_c, 0, 77, 33
1, 3959, Note_on_c, 0, 71, 0
1, 3959, Note_on_c, 0, 77, 0
1, 4080, Note_on_c, 0, 73, 33
1, 4080, Note_on_c, 0, 78, 33
1, 4199, Note_on_c, 0, 73, 0
1, 4199, Note_on_c, 0, 78, 0
1, 4320, Note_on_c, 0, 74, 33
1, 4320, Note_on_c, 0, 80, 33
1, 4439, Note_on_c, 0, 74, 0
1, 4439, Note_on_c, 0, 80, 0
1, 4560, Note_on_c, 0, 71, 33
1, 4560, Note_on_c, 0, 77, 33
1, 4679, Note_on_c, 0, 71, 0
1, 4679, Note_on_c, 0, 77, 0
1, 4800, Note_on_c, 0, 73, 33
1, 4800, Note_on_c, 0, 78, 33
1, 4919, Note_on_c, 0, 73, 0
1, 4919, Note_on_c, 0, 78, 0
1, 5040, Note_on_c, 0, 74, 33
1, 5040, Note_on_c, 0, 80, 33
1, 5267, Note_on_c, 0, 74, 0
1, 5267, Note_on_c, 0, 80, 0
1, 5520, Note_on_c, 0, 73, 96
1, 5747, Note_on_c, 0, 73, 0
1, 5760, Note_on_c, 0, 78, 115
1, 6000, Note_on_c, 0, 76, 96
1, 6119, Note_on_c, 0, 76, 0
1, 6240, Note_on_c, 0, 74, 96
1, 6359, Note_on_c, 0, 74, 0
1, 6480, Note_on_c, 0, 73, 96
1, 6599, Note_on_c, 0, 73, 0
1, 6720, Note_on_c, 0, 74, 96
1, 6839, Note_on_c, 0, 74, 0
1, 6960, Note_on_c, 0, 71, 96
1, 7079, Note_on_c, 0, 71, 0
1, 7199, Note_on_c, 0, 78, 0
1, 7200, Note_on_c, 0, 73, 115
1, 7440, Note_on_c, 0, 71, 96
1, 7559, Note_on_c, 0, 71, 0
1, 7680, Note_on_c, 0, 69, 96
1, 7799, Note_on_c, 0, 69, 0
1, 7920, Note_on_c, 0, 68, 96
1, 8039, Note_on_c, 0, 68, 0
1, 8160, Note_on_c, 0, 69, 96
1, 8279, Note_on_c, 0, 69, 0
1, 8400, Note_on_c, 0, 66, 96
1, 8519, Note_on_c, 0, 66, 0
1, 8639, Note_on_c, 0, 73, 0
1, 8640, Note_on_c, 0, 68, 115
1, 8880, Note_on_c, 0, 66, 96
1, 8999, Note_on_c, 0, 66, 0
1, 9120, Note_on_c, 0, 65, 96
1, 9239, Note_on_c, 0, 65, 0
1, 9360, Note_on_c, 0, 63, 96
1, 9479, Note_on_c, 0, 63, 0
1, 9600, Note_on_c, 0, 65, 96
1, 9719, Note_on_c, 0, 65, 0
1, 9840, Note_on_c, 0, 61, 96
1, 9959, Note_on_c, 0, 61, 0
1, 10080, Note_on_c, 0, 62, 96
1, 10199, Note_on_c, 0, 62, 0
1, 10320, Note_on_c, 0, 59, 86
1, 10439, Note_on_c, 0, 59, 0
1, 10535, Note_on_c, 0, 68, 0
1, 10560, Note_on_c, 0, 57, 75
1, 10679, Note_on_c, 0, 57, 0
1, 10800, Note_on_c, 0, 59, 65
1, 10919, Note_on_c, 0, 59, 0
1, 11040, Note_on_c, 0, 56, 54
1, 11159, Note_on_c, 0, 56, 0
1, 11520, Note_on_c, 0, 81, 33
1, 11520, Note_on_c, 0, 85, 33
1, 11747, Note_on_c, 0, 81, 0
1, 11747, Note_on_c, 0, 85, 0
1, 11880, Note_on_c, 0, 80, 33
1, 11880, Note_on_c, 0, 83, 33
1, 11993, Note_on_c, 0, 80, 0
1, 11993, Note_on_c, 0, 83, 0
1, 12000, Note_on_c, 0, 81, 33
1, 12000, Note_on_c, 0, 85, 33
1, 12227, Note_on_c, 0, 81, 0
1, 12227, Note_on_c, 0, 85, 0
1, 12240, Note_on_c, 0, 83, 33
1, 12240, Note_on_c, 0, 86, 33
1, 12359, Note_on_c, 0, 83, 0
1, 12359, Note_on_c, 0, 86, 0
1, 12480, Note_on_c, 0, 80, 33
1, 12480, Note_on_c, 0, 83, 33
1, 12599, Note_on_c, 0, 80, 0
1, 12599, Note_on_c, 0, 83, 0
1, 12720, Note_on_c, 0, 81, 33
1, 12720, Note_on_c, 0, 85, 33
1, 12839, Note_on_c, 0, 81, 0
1, 12839, Note_on_c, 0, 85, 0
1, 12960, Note_on_c, 0, 78, 33
1, 12960, Note_on_c, 0, 81, 33
1, 13187, Note_on_c, 0, 78, 0
1, 13187, Note_on_c, 0, 81, 0
1, 13320, Note_on_c, 0, 77, 33
1, 13320, Note_on_c, 0, 80, 33
1, 13433, Note_on_c, 0, 77, 0
1, 13433, Note_on_c, 0, 80, 0
1, 13440, Note_on_c, 0, 78, 33
1, 13440, Note_on_c, 0, 81, 33
1, 13667, Note_on_c, 0, 78, 0
1, 13667, Note_on_c, 0, 81, 0
1, 13680, Note_on_c, 0, 80, 33
1, 13680, Note_on_c, 0, 83, 33
1, 13799, Note_on_c, 0, 80, 0
1, 13799, Note_on_c, 0, 83, 0
1, 13920, Note_on_c, 0, 77, 33
1, 13920, Note_on_c, 0, 80, 33
1, 14039, Note_on_c, 0, 77, 0
1, 14039, Note_on_c, 0, 80, 0
1, 14160, Note_on_c, 0, 78, 33
1, 14160, Note_on_c, 0, 81, 33
1, 14279, Note_on_c, 0, 78, 0
1, 14279, Note_on_c, 0, 81, 0
1, 14400, Note_on_c, 0, 73, 33
1, 14400, Note_on_c, 0, 78, 33
1, 14627, Note_on_c, 0, 73, 0
1, 14627, Note_on_c, 0, 78, 0
1, 14760, Note_on_c, 0, 71, 33
1, 14760, Note_on_c, 0, 77, 33
1, 14873, Note_on_c, 0, 71, 0
1, 14873, Note_on_c, 0, 77, 0
1, 14880, Note_on_c, 0, 73, 33
1, 14880, Note_on_c, 0, 78, 33
1, 15107, Note_on_c, 0, 73, 0
1, 15107, Note_on_c, 0, 78, 0
1, 15120, Note_on_c, 0, 74, 33
1, 15120, Note_on_c, 0, 80, 33
1, 15239, Note_on_c, 0, 74, 0
1, 15239, Note_on_c, 0, 80, 0
1, 15360, Note_on_c, 0, 71, 33
1, 15360, Note_on_c, 0, 77, 33
1, 15479, Note_on_c, 0, 71, 0
1, 15479, Note_on_c, 0, 77, 0
1, 15600, Note_on_c, 0, 73, 33
1, 15600, Note_on_c, 0, 78, 33
1, 15719, Note_on_c, 0, 73, 0
1, 15719, Note_on_c, 0, 78, 0
1, 15840, Note_on_c, 0, 74, 33
1, 15840, Note_on_c, 0, 80, 33
1, 15959, Note_on_c, 0, 74, 0
1, 15959, Note_on_c, 0, 80, 0
1, 16080, Note_on_c, 0, 71, 33
1, 16080, Note_on_c, 0, 77, 33
1, 16199, Note_on_c, 0, 71, 0
1, 16199, Note_on_c, 0, 77, 0
1, 16320, Note_on_c, 0, 73, 33
1, 16320, Note_on_c, 0, 78, 33
1, 16439, Note_on_c, 0, 73, 0
1, 16439, Note_on_c, 0, 78, 0
1, 16560, Note_on_c, 0, 74, 33
1, 16560, Note_on_c, 0, 80, 33
1, 16787, Note_on_c, 0, 74, 0
1, 16787, Note_on_c, 0, 80, 0
1, 17040, Note_on_c, 0, 73, 96
1, 17267, Note_on_c, 0, 73, 0
1, 17280, Note_on_c, 0, 78, 115
1, 17280, Note_on_c, 0, 81, 115
1, 17520, Note_on_c, 0, 76, 96
1, 17639, Note_on_c, 0, 76, 0
1, 17760, Note_on_c, 0, 74, 96
1, 17879, Note_on_c, 0, 74, 0
1, 18000, Note_on_c, 0, 73, 96
1, 18119, Note_on_c, 0, 73, 0
1, 18240, Note_on_c, 0, 74, 96
1, 18359, Note_on_c, 0, 74, 0
1, 18480, Note_on_c, 0, 72, 96
1, 18599, Note_on_c, 0, 72, 0
1, 18720, Note_on_c, 0, 73, 96
1, 18839, Note_on_c, 0, 73, 0
1, 18960, Note_on_c, 0, 69, 87
1, 19175, Note_on_c, 0, 78, 0
1, 19175, Note_on_c, 0, 81, 0
1, 19175, Note_on_c, 0, 69, 0
1, 19200, Note_on_c, 0, 71, 78
1, 19319, Note_on_c, 0, 71, 0
1, 19440, Note_on_c, 0, 68, 68
1, 19559, Note_on_c, 0, 68, 0
1, 19680, Note_on_c, 0, 69, 59
1, 19799, Note_on_c, 0, 69, 0
1, 19920, Note_on_c, 0, 66, 49
1, 20039, Note_on_c, 0, 66, 0
1, 20160, Note_on_c, 0, 78, 115
1, 20160, Note_on_c, 0, 81, 115
1, 20400, Note_on_c, 0, 76, 96
1, 20519, Note_on_c, 0, 76, 0
1, 20640, Note_on_c, 0, 74, 96
1, 20759, Note_on_c, 0, 74, 0
1, 20880, Note_on_c, 0, 73, 96
1, 20999, Note_on_c, 0, 73, 0
1, 21120, Note_on_c, 0, 74, 96
1, 21239, Note_on_c, 0, 74, 0
1, 21360, Note_on_c, 0, 72, 96
1, 21479, Note_on_c, 0, 72, 0
1, 21600, Note_on_c, 0, 73, 96
1, 21719, Note_on_c, 0, 73, 0
1, 21840, Note_on_c, 0, 69, 87
1, 22055, Note_on_c, 0, 78, 0
1, 22055, Note_on_c, 0, 81, 0
1, 22055, Note_on_c, 0, 69, 0
1, 22080, Note_on_c, 0, 71, 78
1, 22199, Note_on_c, 0, 71, 0
1, 22320, Note_on_c, 0, 68, 68
1, 22439, Note_on_c, 0, 68, 0
1, 22560, Note_on_c, 0, 69, 59
1, 22679, Note_on_c, 0, 69, 0
1, 22800, Note_on_c, 0, 66, 49
1, 22919, Note_on_c, 0, 66, 0
1, 23040, Note_on_c, 0, 73, 115
1, 23040, Note_on_c, 0, 76, 115
1, 23280, Note_on_c, 0, 71, 96
1, 23399, Note_on_c, 0, 71, 0
1, 23520, Note_on_c, 0, 69, 96
1, 23639, Note_on_c, 0, 69, 0
1, 23760, Note_on_c, 0, 68, 96
1, 23879, Note_on_c, 0, 68, 0
1, 24000, Note_on_c, 0, 69, 96
1, 24119, Note_on_c, 0, 69, 0
1, 24240, Note_on_c, 0, 67, 96
1, 24359, Note_on_c, 0, 67, 0
1, 24479, Note_on_c, 0, 73, 0
1, 24479, Note_on_c, 0, 76, 0
1, 24480, Note_on_c, 0, 73, 115
1, 24480, Note_on_c, 0, 76, 115
1, 24720, Note_on_c, 0, 71, 96
1, 24839, Note_on_c, 0, 71, 0
1, 24960, Note_on_c, 0, 69, 96
1, 25079, Note_on_c, 0, 69, 0
1, 25200, Note_on_c, 0, 68, 96
1, 25319, Note_on_c, 0, 68, 0
1, 25440, Note_on_c, 0, 69, 96
1, 25559, Note_on_c, 0, 69, 0
1, 25680, Note_on_c, 0, 67, 96
1, 25799, Note_on_c, 0, 67, 0
1, 25920, Note_on_c, 0, 68, 96
1, 26039, Note_on_c, 0, 68, 0
1, 26160, Note_on_c, 0, 69, 89
1, 26279, Note_on_c, 0, 69, 0
1, 26400, Note_on_c, 0, 67, 81
1, 26519, Note_on_c, 0, 67, 0
1, 26640, Note_on_c, 0, 68, 73
1, 26759, Note_on_c, 0, 68, 0
1, 26880, Note_on_c, 0, 69, 65
1, 26999, Note_on_c, 0, 69, 0
1, 27120, Note_on_c, 0, 67, 57
1, 27239, Note_on_c, 0, 67, 0
1, 27287, Note_on_c, 0, 73, 0
1, 27287, Note_on_c, 0, 76, 0
1, 27360, Note_on_c, 0, 66, 49
1, 27360, Note_on_c, 0, 68, 49
1, 27360, Note_on_c, 0, 72, 49
1, 27587, Note_on_c, 0, 66, 0
1, 27587, Note_on_c, 0, 68, 0
1, 27587, Note_on_c, 0, 72, 0
1, 28080, Note_on_c, 0, 65, 49
1, 28080, Note_on_c, 0, 68, 49
1, 28080, Note_on_c, 0, 73, 49
1, 28307, Note_on_c, 0, 65, 0
1, 28307, Note_on_c, 0, 68, 0
1, 28307, Note_on_c, 0, 73, 0
1, 28800, Time_signature, 6, 3, 24, 8
1, 28800, Key_signature, 3, "major"
1, 28800, Tempo, 333333
1, 28800, Note_on_c, 0, 81, 33
1, 28800, Note_on_c, 0, 85, 33
1, 29027, Note_on_c, 0, 81, 0
1, 29027, Note_on_c, 0, 85, 0
1, 29160, Note_on_c, 0, 80, 33
1, 29160, Note_on_c, 0, 83, 33
1, 29273, Note_on_c, 0, 80, 0
1, 29273, Note_on_c, 0, 83, 0
1, 29280, Note_on_c, 0, 81, 33
1, 29280, Note_on_c, 0, 85, 33
1, 29507, Note_on_c, 0, 81, 0
1, 29507, Note_on_c, 0, 85, 0
1, 29520, Note_on_c, 0, 83, 33
1, 29520, Note_on_c, 0, 86, 33
1, 29639, Note_on_c, 0, 83, 0
1, 29639, Note_on_c, 0, 86, 0
1, 29760, Note_on_c, 0, 80, 33
1, 29760, Note_on_c, 0, 83, 33
1, 29879, Note_on_c, 0, 80, 0
1, 29879, Note_on_c, 0, 83, 0
1, 30000, Note_on_c, 0, 81, 33
1, 30000, Note_on_c, 0, 85, 33
1, 30119, Note_on_c, 0, 81, 0
1, 30119, Note_on_c, 0, 85, 0
1, 30240, Note_on_c, 0, 78, 33
1, 30240, Note_on_c, 0, 81, 33
1, 30467, Note_on_c, 0, 78, 0
1, 30467, Note_on_c, 0, 81, 0
1, 30600, Note_on_c, 0, 77, 33
1, 30600, Note_on_c, 0, 80, 33
1, 30713, Note_on_c, 0, 77, 0
1, 30713, Note_on_c, 0, 80, 0
1, 30720, Note_on_c, 0, 78, 33
1, 30720, Note_on_c, 0, 81, 33
1, 30947, Note_on_c, 0, 78, 0
1, 30947, Note_on_c, 0, 81, 0
1, 30960, Note_on_c, 0, 80, 33
1, 30960, Note_on_c, 0, 83, 33
1, 31079, Note_on_c, 0, 80, 0
1, 31079, Note_on_c, 0, 83, 0
1, 31200, Note_on_c, 0, 77, 33
1, 31200, Note_on_c, 0, 80, 33
1, 31319, Note_on_c, 0, 77, 0
1, 31319, Note_on_c, 0, 80, 0
1, 31440, Note_on_c, 0, 78, 33
1, 31440, Note_on_c, 0, 81, 33
1, 31559, Note_on_c, 0, 78, 0
1, 31559, Note_on_c, 0, 81, 0
1, 31680, Note_on_c, 0, 73, 33
1, 31680, Note_on_c, 0, 78, 33
1, 31907, Note_on_c, 0, 73, 0
1, 31907, Note_on_c, 0, 78, 0
1, 32040, Note_on_c, 0, 71, 33
1, 32040, Note_on_c, 0, 77, 33
1, 32153, Note_on_c, 0, 71, 0
1, 32153, Note_on_c, 0, 77, 0
1, 32160, Note_on_c, 0, 73, 33
1, 32160, Note_on_c, 0, 78, 33
1, 32387, Note_on_c, 0, 73, 0
1, 32387, Note_on_c, 0, 78, 0
1, 32400, Note_on_c, 0, 74, 33
1, 32400, Note_on_c, 0, 80, 33
1, 32519, Note_on_c, 0, 74, 0
1, 32519, Note_on_c, 0, 80, 0
1, 32640, Note_on_c, 0, 71, 33
1, 32640, Note_on_c, 0, 77, 33
1, 32759, Note_on_c, 0, 71, 0
1, 32759, Note_on_c, 0, 77, 0
1, 32880, Note_on_c, 0, 73, 33
1, 32880, Note_on_c, 0, 78, 33
1, 32999, Note_on_c, 0, 73, 0
1, 32999, Note_on_c, 0, 78, 0
1, 33120, Note_on_c, 0, 74, 33
1, 33120, Note_on_c, 0, 80, 33
1, 33239, Note_on_c, 0, 74, 0
1, 33239, Note_on_c, 0, 80, 0
1, 33360, Note_on_c, 0, 71, 33
1, 33360, Note_on_c, 0, 77, 33
1, 33479, Note_on_c, 0, 71, 0
1, 33479, Note_on_c, 0, 77, 0
1, 33600, Note_on_c, 0, 73, 33
1, 33600, Note_on_c, 0, 78, 33
1, 33719, Note_on_c, 0, 73, 0
1, 33719, Note_on_c, 0, 78, 0
1, 33840, Note_on_c, 0, 74, 33
1, 33840, Note_on_c, 0, 80, 33
1, 34067, Note_on_c, 0, 74, 0
1, 34067, Note_on_c, 0, 80, 0
1, 34320, Note_on_c, 0, 73, 96
1, 34547, Note_on_c, 0, 73, 0
1, 34560, Note_on_c, 0, 78, 115
1, 34800, Note_on_c, 0, 76, 96
1, 34919, Note_on_c, 0, 76, 0
1, 35040, Note_on_c, 0, 74, 96
1, 35159, Note_on_c, 0, 74, 0
1, 35280, Note_on_c, 0, 73, 96
1, 35399, Note_on_c, 0, 73, 0
1, 35520, Note_on_c, 0, 74, 96
1, 35639, Note_on_c, 0, 74, 0
1, 35760, Note_on_c, 0, 71, 96
1, 35879, Note_on_c, 0, 71, 0
1, 35999, Note_on_c, 0, 78, 0
1, 36000, Note_on_c, 0, 73, 115
1, 36240, Note_on_c, 0, 71, 96
1, 36359, Note_on_c, 0, 71, 0
1, 36480, Note_on_c, 0, 69, 96
1, 36599, Note_on_c, 0, 69, 0
1, 36720, Note_on_c, 0, 68, 96
1, 36839, Note_on_c, 0, 68, 0
1, 36960, Note_on_c, 0, 69, 96
1, 37079, Note_on_c, 0, 69, 0
1, 37200, Note_on_c, 0, 66, 96
1, 37319, Note_on_c, 0, 66, 0
1, 37439, Note_on_c, 0, 73, 0
1, 37440, Note_on_c, 0, 68, 115
1, 37680, Note_on_c, 0, 66, 96
1, 37799, Note_on_c, 0, 66, 0
1, 37920, Note_on_c, 0, 65, 96
1, 38039, Note_on_c, 0, 65, 0
1, 38160, Note_on_c, 0, 63, 96
1, 38279, Note_on_c, 0, 63, 0
1, 38400, Note_on_c, 0, 65, 96
1, 38519, Note_on_c, 0, 65, 0
1, 38640, Note_on_c, 0, 61, 96
1, 38759, Note_on_c, 0, 61, 0
1, 38880, Note_on_c, 0, 62, 96
1, 38999, Note_on_c, 0, 62, 0
1, 39120, Note_on_c, 0, 59, 86
1, 39239, Note_on_c, 0, 59, 0
1, 39335, Note_on_c, 0, 68, 0
1, 39360, Note_on_c, 0, 57, 75
1, 39479, Note_on_c, 0, 57, 0
1, 39600, Note_on_c, 0, 59, 65
1, 39719, Note_on_c, 0, 59, 0
1, 39840, Note_on_c, 0, 56, 54
1, 39959, Note_on_c, 0, 56, 0
1, 40320, Note_on_c, 0, 81, 33
1, 40320, Note_on_c, 0, 85, 33
1, 40547, Note_on_c, 0, 81, 0
1, 40547, Note_on_c, 0, 85, 0
1, 40680, Note_on_c, 0, 80, 33
1, 40680, Note_on_c, 0, 83, 33
1, 40793, Note_on_c, 0, 80, 0
1, 40793, Note_on_c, 0, 83, 0
1, 40800, Note_on_c, 0, 81, 33
1, 40800, Note_on_c, 0, 85, 33
1, 41027, Note_on_c, 0, 81, 0
1, 41027, Note_on_c, 0, 85, 0
1, 41040, Note_on_c, 0, 83, 33
1, 41040, Note_on_c, 0, 86, 33
1, 41159, Note_on_c, 0, 83, 0
1, 41159, Note_on_c, 0, 86, 0
1, 41280, Note_on_c, 0, 80, 33
1, 41280, Note_on_c, 0, 83, 33
1, 41399, Note_on_c, 0, 80, 0
1, 41399, Note_on_c, 0, 83, 0
1, 41520, Note_on_c, 0, 81, 33
1, 41520, Note_on_c, 0, 85, 33
1, 41639, Note_on_c, 0, 81, 0
1, 41639, Note_on_c, 0, 85, 0
1, 41760, Note_on_c, 0, 78, 33
1, 41760, Note_on_c, 0, 81, 33
1, 41987, Note_on_c, 0, 78, 0
1, 41987, Note_on_c, 0, 81, 0
1, 42120, Note_on_c, 0, 77, 33
1, 42120, Note_on_c, 0, 80, 33
1, 42233, Note_on_c, 0, 77, 0
1, 42233, Note_on_c, 0, 80, 0
1, 42240, Note_on_c, 0, 78, 33
1, 42240, Note_on_c, 0, 81, 33
1, 42467, Note_on_c, 0, 78, 0
1, 42467, Note_on_c, 0, 81, 0
1, 42480, Note_on_c, 0, 80, 33
1, 42480, Note_on_c, 0, 83, 33
1, 42599, Note_on_c, 0, 80, 0
1, 42599, Note_on_c, 0, 83, 0
1, 42720, Note_on_c, 0, 77, 33
1, 42720, Note_on_c, 0, 80, 33
1, 42839, Note_on_c, 0, 77, 0
1, 42839, Note_on_c, 0, 80, 0
1, 42960, Note_on_c, 0, 78, 33
1, 42960, Note_on_c, 0, 81, 33
1, 43079, Note_on_c, 0, 78, 0
1, 43079, Note_on_c, 0, 81, 0
1, 43200, Note_on_c, 0, 73, 33
1, 43200, Note_on_c, 0, 78, 33
1, 43427, Note_on_c, 0, 73, 0
1, 43427, Note_on_c, 0, 78, 0
1, 43560, Note_on_c, 0, 71, 33
1, 43560, Note_on_c, 0, 77, 33
1, 43673, Note_on_c, 0, 71, 0
1, 43673, Note_on_c, 0, 77, 0
1, 43680, Note_on_c, 0, 73, 33
1, 43680, Note_on_c, 0, 78, 33
1, 43907, Note_on_c, 0, 73, 0
1, 43907, Note_on_c, 0, 78, 0
1, 43920, Note_on_c, 0, 74, 33
1, 43920, Note_on_c, 0, 80, 33
1, 44039, Note_on_c, 0, 74, 0
1, 44039, Note_on_c, 0, 80, 0
1, 44160, Note_on_c, 0, 71, 33
1, 44160, Note_on_c, 0, 77, 33
1, 44279, Note_on_c, 0, 71, 0
1, 44279, Note_on_c, 0, 77, 0
1, 44400, Note_on_c, 0, 73, 33
1, 44400, Note_on_c, 0, 78, 33
1, 44519, Note_on_c, 0, 73, 0
1, 44519, Note_on_c, 0, 78, 0
1, 44640, Note_on_c, 0, 74, 33
1, 44640, Note_on_c, 0, 80, 33
1, 44759, Note_on_c, 0, 74, 0
1, 44759, Note_on_c, 0, 80, 0
1, 44880, Note_on_c, 0, 71, 33
1, 44880, Note_on_c, 0, 77, 33
1, 44999, Note_on_c, 0, 71, 0
1, 44999, Note_on_c, 0, 77, 0
1, 45120, Note_on_c, 0, 73, 33
1, 45120, Note_on_c, 0, 78, 33
1, 45239, Note_on_c, 0, 73, 0
1, 45239, Note_on_c, 0, 78, 0
1, 45360, Note_on_c, 0, 74, 33
1, 45360, Note_on_c, 0, 80, 33
1, 45587, Note_on_c, 0, 74, 0
1, 45587, Note_on_c, 0, 80, 0
1, 45840, Note_on_c, 0, 73, 96
1, 46067, Note_on_c, 0, 73, 0
1, 46080, Note_on_c, 0, 78, 115
1, 46080, Note_on_c, 0, 81, 115
1, 46320, Note_on_c, 0, 76, 96
1, 46439, Note_on_c, 0, 76, 0
1, 46560, Note_on_c, 0, 74, 96
1, 46679, Note_on_c, 0, 74, 0
1, 46800, Note_on_c, 0, 73, 96
1, 46919, Note_on_c, 0, 73, 0
1, 47040, Note_on_c, 0, 74, 96
1, 47159, Note_on_c, 0, 74, 0
1, 47280, Note_on_c, 0, 72, 96
1, 47399, Note_on_c, 0, 72, 0
1, 47520, Note_on_c, 0, 73, 96
1, 47639, Note_on_c, 0, 73, 0
1, 47760, Note_on_c, 0, 69, 87
1, 47975, Note_on_c, 0, 78, 0
1, 47975, Note_on_c, 0, 81, 0
1, 47975, Note_on_c, 0, 69, 0
1, 48000, Note_on_c, 0, 71, 78
1, 48119, Note_on_c, 0, 71, 0
1, 48240, Note_on_c, 0, 68, 68
1, 48359, Note_on_c, 0, 68, 0
1, 48480, Note_on_c, 0, 69, 59
1, 48599, Note_on_c, 0, 69, 0
1, 48720, Note_on_c, 0, 66, 49
1, 48839, Note_on_c, 0, 66, 0
1, 48960, Note_on_c, 0, 78, 115
1, 48960, Note_on_c, 0, 81, 115
1, 49200, Note_on_c, 0, 76, 96
1, 49319, Note_on_c, 0, 76, 0
1, 49440, Note_on_c, 0, 74, 96
1, 49559, Note_on_c, 0, 74, 0
1, 49680, Note_on_c, 0, 73, 96
1, 49799, Note_on_c, 0, 73, 0
1, 49920, Note_on_c, 0, 74, 96
1, 50039, Note_on_c, 0, 74, 0
1, 50160, Note_on_c, 0, 72, 96
1, 50279, Note_on_c, 0, 72, 0
1, 50400, Note_on_c, 0, 73, 96
1, 50519, Note_on_c, 0, 73, 0
1, 50640, Note_on_c, 0, 69, 87
1, 50855, Note_on_c, 0, 78, 0
1, 50855, Note_on_c, 0, 81, 0
1, 50855, Note_on_c, 0, 69, 0
1, 50880, Note_on_c, 0, 71, 78
1, 50999, Note_on_c, 0, 71, 0
1, 51120, Note_on_c, 0, 68, 68
1, 51239, Note_on_c, 0, 68, 0
1, 51360, Note_on_c, 0, 69, 59
1, 51479, Note_on_c, 0, 69, 0
1, 51600, Note_on_c, 0, 66, 49
1, 51719, Note_on_c, 0, 66, 0
1, 51840, Note_on_c, 0, 73, 115
1, 51840, Note_on_c, 0, 76, 115
1, 52080, Note_on_c, 0, 71, 96
1, 52199, Note_on_c, 0, 71, 0
1, 52320, Note_on_c, 0, 69, 96
1, 52439, Note_on_c, 0, 69, 0
1, 52560, Note_on_c, 0, 68, 96
1, 52679, Note_on_c, 0, 68, 0
1, 52800, Note_on_c, 0, 69, 96
1, 52919, Note_on_c, 0, 69, 0
1, 53040, Note_on_c, 0, 67, 96
1, 53159, Note_on_c, 0, 67, 0
1, 53279, Note_on_c, 0, 73, 0
1, 53279, Note_on_c, 0, 76, 0
1, 53280, Note_on_c, 0, 73, 115
1, 53280, Note_on_c, 0, 76, 115
1, 53520, Note_on_c, 0, 71, 96
1, 53639, Note_on_c, 0, 71, 0
1, 53760, Note_on_c, 0, 69, 96
1, 53879, Note_on_c, 0, 69, 0
1, 54000, Note_on_c, 0, 68, 96
1, 54119, Note_on_c, 0, 68, 0
1, 54240, Note_on_c, 0, 69, 96
1, 54359, Note_on_c, 0, 69, 0
1, 54480, Note_on_c, 0, 67, 96
1, 54599, Note_on_c, 0, 67, 0
1, 54720, Note_on_c, 0, 68, 96
1, 54839, Note_on_c, 0, 68, 0
1, 54960, Note_on_c, 0, 69, 89
1, 55079, Note_on_c, 0, 69, 0
1, 55200, Note_on_c, 0, 67, 81
1, 55319, Note_on_c, 0, 67, 0
1, 55440, Note_on_c, 0, 68, 73
1, 55559, Note_on_c, 0, 68, 0
1, 55680, Note_on_c, 0, 69, 65
1, 55799, Note_on_c, 0, 69, 0
1, 55920, Note_on_c, 0, 67, 57
1, 56039, Note_on_c, 0, 67, 0
1, 56087, Note_on_c, 0, 73, 0
1, 56087, Note_on_c, 0, 76, 0
1, 56160, Note_on_c, 0, 66, 49
1, 56160, Note_on_c, 0, 68, 49
1, 56160, Note_on_c, 0, 72, 49
1, 56387, Note_on_c, 0, 66, 0
1, 56387, Note_on_c, 0, 68, 0
1, 56387, Note_on_c, 0, 72, 0
1, 56880, Note_on_c, 0, 65, 49
1, 56880, Note_on_c, 0, 68, 49
1, 56880, Note_on_c, 0, 73, 49
1, 57107, Note_on_c, 0, 65, 0
1, 57107, Note_on_c, 0, 68, 0
1, 57107, Note_on_c, 0, 73, 0
1, 57600, Note_on_c, 0, 69, 96
1, 57600, Note_on_c, 0, 73, 96
1, 57827, Note_on_c, 0, 69, 0
1, 57827, Note_on_c, 0, 73, 0
1, 57960, Note_on_c, 0, 68, 96
1, 57960, Note_on_c, 0, 71, 96
1, 58073, Note_on_c, 0, 68, 0
1, 58073, Note_on_c, 0, 71, 0
1, 58080, Note_on_c, 0, 69, 96
1, 58080, Note_on_c, 0, 73, 96
1, 58307, Note_on_c, 0, 69, 0
1, 58307, Note_on_c, 0, 73, 0
1, 58320, Note_on_c, 0, 71, 96
1, 58320, Note_on_c, 0, 74, 96
1, 58439, Note_on_c, 0, 71, 0
1, 58439, Note_on_c, 0, 74, 0
1, 58560, Note_on_c, 0, 68, 96
1, 58560, Note_on_c, 0, 71, 96
1, 58679, Note_on_c, 0, 68, 0
1, 58679, Note_on_c, 0, 71, 0
1, 58800, Note_on_c, 0, 71, 96
1, 58800, Note_on_c, 0, 74, 96
1, 58800, Note_on_c, 0, 80, 96
1, 58919, Note_on_c, 0, 71, 0
1, 58919, Note_on_c, 0, 74, 0
1, 58919, Note_on_c, 0, 80, 0
1, 59040, Note_on_c, 0, 69, 115
1, 59040, Note_on_c, 0, 73, 115
1, 59040, Note_on_c, 0, 78, 115
1, 59759, Note_on_c, 0, 69, 0
1, 59759, Note_on_c, 0, 73, 0
1, 59759, Note_on_c, 0, 78, 0
1, 59760, Note_on_c, 0, 68, 96
1, 59760, Note_on_c, 0, 73, 96
1, 59760, Note_on_c, 0, 77, 96
1, 59987, Note_on_c, 0, 68, 0
1, 59987, Note_on_c, 0, 73, 0
1, 59987, Note_on_c, 0, 77, 0
1, 60480, Note_on_c, 0, 69, 96
1, 60480, Note_on_c, 0, 73, 96
1, 60707, Note_on_c, 0, 69, 0
1, 60707, Note_on_c, 0, 73, 0
1, 60840, Note_on_c, 0, 68, 96
1, 60840, Note_on_c, 0, 71, 96
1, 60953, Note_on_c, 0, 68, 0
1, 60953, Note_on_c, 0, 71, 0
1, 60960, Note_on_c, 0, 69, 96
1, 60960, Note_on_c, 0, 73, 96
1, 61187, Note_on_c, 0, 69, 0
1, 61187, Note_on_c, 0, 73, 0
1, 61200, Note_on_c, 0, 71, 96
1, 61200, Note_on_c, 0, 74, 96
1, 61319, Note_on_c, 0, 71, 0
1, 61319, Note_on_c, 0, 74, 0
1, 61440, Note_on_c, 0, 68, 96
1, 61440, Note_on_c, 0, 71, 96
1, 61559, Note_on_c, 0, 68, 0
1, 61559, Note_on_c, 0, 71, 0
1, 61680, Note_on_c, 0, 71, 96
1, 61680, Note_on_c, 0, 74, 96
1, 61680, Note_on_c, 0, 80, 96
1, 61799, Note_on_c, 0, 71, 0
1, 61799, Note_on_c, 0, 74, 0
1, 61799, Note_on_c, 0, 80, 0
1, 61920, Note_on_c, 0, 69, 115
1, 61920, Note_on_c, 0, 73, 115
1, 61920, Note_on_c, 0, 78, 115
1, 62639, Note_on_c, 0, 69, 0
1, 62639, Note_on_c, 0, 73, 0
1, 62639, Note_on_c, 0, 78, 0
1, 62640, Note_on_c, 0, 68, 96
1, 62640, Note_on_c, 0, 73, 96
1, 62640, Note_on_c, 0, 77, 96
1, 62867, Note_on_c, 0, 68, 0
1, 62867, Note_on_c, 0, 73, 0
1, 62867, Note_on_c, 0, 77, 0
1, 63360, Note_on_c, 0, 62, 96
1, 63360, Note_on_c, 0, 66, 96
1, 63587, Note_on_c, 0, 62, 0
1, 63587, Note_on_c, 0, 66, 0
1, 63720, Note_on_c, 0, 61, 96
1, 63720, Note_on_c, 0, 64, 96
1, 63833, Note_on_c, 0, 61, 0
1, 63833, Note_on_c, 0, 64, 0
1, 63840, Note_on_c, 0, 62, 96
1, 63840, Note_on_c, 0, 66, 96
1, 64067, Note_on_c, 0, 62, 0
1, 64067, Note_on_c, 0, 66, 0
1, 64080, Note_on_c, 0, 64, 97
1, 64080, Note_on_c, 0, 67, 97
1, 64199, Note_on_c, 0, 64, 0
1, 64199, Note_on_c, 0, 67, 0
1, 64320, Note_on_c, 0, 61, 97
1, 64320, Note_on_c, 0, 64, 97
1, 64439, Note_on_c, 0, 61, 0
1, 64439, Note_on_c, 0, 64, 0
1, 64560, Note_on_c, 0, 64, 97
1, 64560, Note_on_c, 0, 67, 97
1, 64560, Note_on_c, 0, 73, 97
1, 64679, Note_on_c, 0, 64, 0
1, 64679, Note_on_c, 0, 67, 0
1, 64679, Note_on_c, 0, 73, 0
1, 64800, Note_on_c, 0, 62, 117
1, 64800, Note_on_c, 0, 66, 117
1, 64800, Note_on_c, 0, 71, 117
1, 65519, Note_on_c, 0, 62, 0
1, 65519, Note_on_c, 0, 66, 0
1, 65519, Note_on_c, 0, 71, 0
1, 65520, Note_on_c, 0, 61, 99
1, 65520, Note_on_c, 0, 66, 99
1, 65520, Note_on_c, 0, 70, 99
1, 65747, Note_on_c, 0, 61, 0
1, 65747, Note_on_c, 0, 66, 0
1, 65747, Note_on_c, 0, 70, 0
1, 66240, Note_on_c, 0, 62, 100
1, 66240, Note_on_c, 0, 66, 100
1, 66467, Note_on_c, 0, 62, 0
1, 66467, Note_on_c, 0, 66, 0
1, 66600, Note_on_c, 0, 61, 100
1, 66600, Note_on_c, 0, 64, 100
1, 66713, Note_on_c, 0, 61, 0
1, 66713, Note_on_c, 0, 64, 0
1, 66720, Note_on_c, 0, 62, 100
1, 66720, Note_on_c, 0, 66, 100
1, 66947, Note_on_c, 0, 62, 0
1, 66947, Note_on_c, 0, 66, 0
1, 66960, Note_on_c, 0, 64, 101
1, 66960, Note_on_c, 0, 67, 101
1, 67079, Note_on_c, 0, 64, 0
1, 67079, Note_on_c, 0, 67, 0
1, 67200, Note_on_c, 0, 61, 101
1, 67200, Note_on_c, 0, 64, 101
1, 67319, Note_on_c, 0, 61, 0
1, 67319, Note_on_c, 0, 64, 0
1, 67440, Note_on_c, 0, 64, 101
1, 67440, Note_on_c, 0, 67, 101
1, 67440, Note_on_c, 0, 73, 101
1, 67559, Note_on_c, 0, 64, 0
1, 67559, Note_on_c, 0, 67, 0
1, 67559, Note_on_c, 0, 73, 0
1, 67680, Note_on_c, 0, 62, 122
1, 67680, Note_on_c, 0, 66, 122
1, 67680, Note_on_c, 0, 71, 122
1, 68399, Note_on_c, 0, 62, 0
1, 68399, Note_on_c, 0, 66, 0
1, 68399, Note_on_c, 0, 71, 0
1, 68400, Note_on_c, 0, 61, 103
1, 68400, Note_on_c, 0, 66, 103
1, 68400, Note_on_c, 0, 70, 103
1, 68627, Note_on_c, 0, 61, 0
1, 68627, Note_on_c, 0, 66, 0
1, 68627, Note_on_c, 0, 70, 0
1, 69120, Note_on_c, 0, 71, 104
1, 69120, Note_on_c, 0, 74, 104
1, 69120, Note_on_c, 0, 78, 104
1, 69347, Note_on_c, 0, 71, 0
1, 69347, Note_on_c, 0, 74, 0
1, 69347, Note_on_c, 0, 78, 0
1, 69480, Note_on_c, 0, 73, 104
1, 69480, Note_on_c, 0, 76, 104
1, 69593, Note_on_c, 0, 73, 0
1, 69593, Note_on_c, 0, 76, 0
1, 69600, Note_on_c, 0, 71, 104
1, 69600, Note_on_c, 0, 74, 104
1, 69600, Note_on_c, 0, 78, 104
1, 69827, Note_on_c, 0, 71, 0
1, 69827, Note_on_c, 0, 74, 0
1, 69827, Note_on_c, 0, 78, 0
1, 69840, Note_on_c, 0, 70, 105
1, 69840, Note_on_c, 0, 76, 105
1, 69840, Note_on_c, 0, 79, 105
1, 69959, Note_on_c, 0, 70, 0
1, 69959, Note_on_c, 0, 76, 0
1, 69959, Note_on_c, 0, 79, 0
1, 70080, Note_on_c, 0, 73, 105
1, 70080, Note_on_c, 0, 76, 105
1, 70199, Note_on_c, 0, 73, 0
1, 70199, Note_on_c, 0, 76, 0
1, 70320, Note_on_c, 0, 71, 105
1, 70320, Note_on_c, 0, 74, 105
1, 70320, Note_on_c, 0, 78, 105
1, 70439, Note_on_c, 0, 71, 0
1, 70439, Note_on_c, 0, 74, 0
1, 70439, Note_on_c, 0, 78, 0
1, 70560, Note_on_c, 0, 66, 106
1, 70560, Note_on_c, 0, 71, 106
1, 70560, Note_on_c, 0, 74, 106
1, 70787, Note_on_c, 0, 66, 0
1, 70787, Note_on_c, 0, 71, 0
1, 70787, Note_on_c, 0, 74, 0
1, 70920, Note_on_c, 0, 64, 106
1, 70920, Note_on_c, 0, 70, 106
1, 70920, Note_on_c, 0, 73, 106
1, 71033, Note_on_c, 0, 64, 0
1, 71033, Note_on_c, 0, 70, 0
1, 71033, Note_on_c, 0, 73, 0
1, 71040, Note_on_c, 0, 66, 106
1, 71040, Note_on_c, 0, 71, 106
1, 71040, Note_on_c, 0, 74, 106
1, 71267, Note_on_c, 0, 66, 0
1, 71267, Note_on_c, 0, 71, 0
1, 71267, Note_on_c, 0, 74, 0
1, 71280, Note_on_c, 0, 67, 107
1, 71280, Note_on_c, 0, 73, 107
1, 71280, Note_on_c, 0, 76, 107
1, 71399, Note_on_c, 0, 67, 0
1, 71399, Note_on_c, 0, 73, 0
1, 71399, Note_on_c, 0, 76, 0
1, 71520, Note_on_c, 0, 64, 107
1, 71520, Note_on_c, 0, 70, 107
1, 71520, Note_on_c, 0, 73, 107
1, 71639, Note_on_c, 0, 64, 0
1, 71639, Note_on_c, 0, 70, 0
1, 71639, Note_on_c, 0, 73, 0
1, 71760, Note_on_c, 0, 66, 107
1, 71760, Note_on_c, 0, 71, 107
1, 71760, Note_on_c, 0, 74, 107
1, 71879, Note_on_c, 0, 66, 0
1, 71879, Note_on_c, 0, 71, 0
1, 71879, Note_on_c, 0, 74, 0
1, 72000, Note_on_c, 0, 62, 108
1, 72000, Note_on_c, 0, 67, 108
1, 72000, Note_on_c, 0, 71, 108
1, 72227, Note_on_c, 0, 62, 0
1, 72227, Note_on_c, 0, 67, 0
1, 72227, Note_on_c, 0, 71, 0
1, 72360, Note_on_c, 0, 61, 108
1, 72360, Note_on_c, 0, 67, 108
1, 72360, Note_on_c, 0, 70, 108
1, 72473, Note_on_c, 0, 61, 0
1, 72473, Note_on_c, 0, 67, 0
1, 72473, Note_on_c, 0, 70, 0
1, 72480, Note_on_c, 0, 62, 108
1, 72480, Note_on_c, 0, 67, 108
1, 72480, Note_on_c, 0, 71, 108
1, 72707, Note_on_c, 0, 62, 0
1, 72707, Note_on_c, 0, 67, 0
1, 72707, Note_on_c, 0, 71, 0
1, 72720, Note_on_c, 0, 64, 109
1, 72720, Note_on_c, 0, 67, 109
1, 72720, Note_on_c, 0, 73, 109
1, 72839, Note_on_c, 0, 64, 0
1, 72839, Note_on_c, 0, 67, 0
1, 72839, Note_on_c, 0, 73, 0
1, 72960, Note_on_c, 0, 61, 109
1, 72960, Note_on_c, 0, 67, 109
1, 72960, Note_on_c, 0, 70, 109
1, 73079, Note_on_c, 0, 61, 0
1, 73079, Note_on_c, 0, 67, 0
1, 73079, Note_on_c, 0, 70, 0
1, 73200, Note_on_c, 0, 62, 109
1, 73200, Note_on_c, 0, 67, 109
1, 73200, Note_on_c, 0, 71, 109
1, 73319, Note_on_c, 0, 62, 0
1, 73319, Note_on_c, 0, 67, 0
1, 73319, Note_on_c, 0, 71, 0
1, 73440, Note_on_c, 0, 64, 110
1, 73440, Note_on_c, 0, 67, 110
1, 73440, Note_on_c, 0, 73, 110
1, 73559, Note_on_c, 0, 64, 0
1, 73559, Note_on_c, 0, 67, 0
1, 73559, Note_on_c, 0, 73, 0
1, 73680, Note_on_c, 0, 61, 110
1, 73680, Note_on_c, 0, 67, 110
1, 73680, Note_on_c, 0, 70, 110
1, 73799, Note_on_c, 0, 61, 0
1, 73799, Note_on_c, 0, 67, 0
1, 73799, Note_on_c, 0, 70, 0
1, 73920, Note_on_c, 0, 62, 110
1, 73920, Note_on_c, 0, 67, 110
1, 73920, Note_on_c, 0, 71, 110
1, 74039, Note_on_c, 0, 62, 0
1, 74039, Note_on_c, 0, 67, 0
1, 74039, Note_on_c, 0, 71, 0
1, 74160, Note_on_c, 0, 67, 127
1, 74160, Note_on_c, 0, 71, 127
1, 74160, Note_on_c, 0, 74, 127
1, 74879, Note_on_c, 0, 67, 0
1, 74879, Note_on_c, 0, 71, 0
1, 74879, Note_on_c, 0, 74, 0
1, 74880, Note_on_c, 0, 73, 112
1, 74880, Note_on_c, 0, 78, 112
1, 74880, Note_on_c, 0, 81, 112
1, 74880, Note_on_c, 0, 85, 112
1, 75107, Note_on_c, 0, 73, 0
1, 75107, Note_on_c, 0, 78, 0
1, 75107, Note_on_c, 0, 81, 0
1, 75107, Note_on_c, 0, 85, 0
1, 75240, Note_on_c, 0, 72, 112
1, 75240, Note_on_c, 0, 84, 112
1, 75353, Note_on_c, 0, 72, 0
1, 75353, Note_on_c, 0, 84, 0
1, 75360, Note_on_c, 0, 73, 112
1, 75360, Note_on_c, 0, 85, 112
1, 75587, Note_on_c, 0, 73, 0
1, 75587, Note_on_c, 0, 85, 0
1, 75600, Note_on_c, 0, 74, 112
1, 75600, Note_on_c, 0, 86, 112
1, 75719, Note_on_c, 0, 74, 0
1, 75719, Note_on_c, 0, 86, 0
1, 75840, Note_on_c, 0, 72, 112
1, 75840, Note_on_c, 0, 84, 112
1, 75959, Note_on_c, 0, 72, 0
1, 75959, Note_on_c, 0, 84, 0
1, 76080, Note_on_c, 0, 73, 112
1, 76080, Note_on_c, 0, 85, 112
1, 76199, Note_on_c, 0, 73, 0
1, 76199, Note_on_c, 0, 85, 0
1, 76320, Note_on_c, 0, 68, 112
1, 76320, Note_on_c, 0, 80, 112
1, 76439, Note_on_c, 0, 68, 0
1, 76439, Note_on_c, 0, 80, 0
1, 76560, Note_on_c, 0, 69, 112
1, 76560, Note_on_c, 0, 81, 112
1, 76679, Note_on_c, 0, 69, 0
1, 76679, Note_on_c, 0, 81, 0
1, 76800, Note_on_c, 0, 65, 112
1, 76800, Note_on_c, 0, 77, 112
1, 76919, Note_on_c, 0, 65, 0
1, 76919, Note_on_c, 0, 77, 0
1, 77040, Note_on_c, 0, 66, 112
1, 77040, Note_on_c, 0, 78, 112
1, 77159, Note_on_c, 0, 66, 0
1, 77159, Note_on_c, 0, 78, 0
1, 77280, Note_on_c, 0, 61, 112
1, 77280, Note_on_c, 0, 73, 112
1, 77399, Note_on_c, 0, 61, 0
1, 77399, Note_on_c, 0, 73, 0
1, 77520, Note_on_c, 0, 62, 112
1, 77520, Note_on_c, 0, 74, 112
1, 77639, Note_on_c, 0, 62, 0
1, 77639, Note_on_c, 0, 74, 0
1, 77760, Note_on_c, 0, 60, 112
1, 77760, Note_on_c, 0, 72, 112
1, 77879, Note_on_c, 0, 60, 0
1, 77879, Note_on_c, 0, 72, 0
1, 78000, Note_on_c, 0, 61, 112
1, 78000, Note_on_c, 0, 73, 112
1, 78119, Note_on_c, 0, 61, 0
1, 78119, Note_on_c, 0, 73, 0
1, 78240, Note_on_c, 0, 56, 112
1, 78240, Note_on_c, 0, 68, 112
1, 78359, Note_on_c, 0, 56, 0
1, 78359, Note_on_c, 0, 68, 0
1, 78480, Note_on_c, 0, 57, 112
1, 78480, Note_on_c, 0, 69, 112
1, 78599, Note_on_c, 0, 57, 0
1, 78599, Note_on_c, 0, 69, 0
1, 78720, Note_on_c, 0, 53, 112
1, 78720, Note_on_c, 0, 65, 112
1, 78839, Note_on_c, 0, 53, 0
1, 78839, Note_on_c, 0, 65, 0
1, 78960, Note_on_c, 0, 54, 112
1, 78960, Note_on_c, 0, 66, 112
1, 79079, Note_on_c, 0, 54, 0
1, 79079, Note_on_c, 0, 66, 0
1, 79200, Note_on_c, 0, 59, 127
1, 79200, Note_on_c, 0, 65, 127
1, 79200, Note_on_c, 0, 68, 127
1, 79679, Note_on_c, 0, 59, 0
1, 79679, Note_on_c, 0, 65, 0
1, 79679, Note_on_c, 0, 68, 0
1, 79680, Note_on_c, 0, 61, 112
1, 79680, Note_on_c, 0, 69, 112
1, 79907, Note_on_c, 0, 61, 0
1, 79907, Note_on_c, 0, 69, 0
1, 79920, Note_on_c, 0, 57, 112
1, 79920, Note_on_c, 0, 61, 112
1, 79920, Note_on_c, 0, 66, 112
1, 80375, Note_on_c, 0, 57, 0
1, 80375, Note_on_c, 0, 61, 0
1, 80375, Note_on_c, 0, 66, 0
1, 80640, Note_on_c, 0, 69, 96
1, 80640, Note_on_c, 0, 73, 96
1, 80867, Note_on_c, 0, 69, 0
1, 80867, Note_on_c, 0, 73, 0
1, 81000, Note_on_c, 0, 68, 96
1, 81000, Note_on_c, 0, 71, 96
1, 81113, Note_on_c, 0, 68, 0
1, 81113, Note_on_c, 0, 71, 0
1, 81120, Note_on_c, 0, 69, 96
1, 81120, Note_on_c, 0, 73, 96
1, 81347, Note_on_c, 0, 69, 0
1, 81347, Note_on_c, 0, 73, 0
1, 81360, Note_on_c, 0, 71, 96
1, 81360, Note_on_c, 0, 74, 96
1, 81479, Note_on_c, 0, 71, 0
1, 81479, Note_on_c, 0, 74, 0
1, 81600, Note_on_c, 0, 68, 96
1, 81600, Note_on_c, 0, 71, 96
1, 81719, Note_on_c, 0, 68, 0
1, 81719, Note_on_c, 0, 71, 0
1, 81840, Note_on_c, 0, 71, 96
1, 81840, Note_on_c, 0, 74, 96
1, 81840, Note_on_c, 0, 80, 96
1, 81959, Note_on_c, 0, 71, 0
1, 81959, Note_on_c, 0, 74, 0
1, 81959, Note_on_c, 0, 80, 0
1, 82080, Note_on_c, 0, 69, 115
1, 82080, Note_on_c, 0, 73, 115
1, 82080, Note_on_c, 0, 78, 115
1, 82799, Note_on_c, 0, 69, 0
1, 82799, Note_on_c, 0, 73, 0
1, 82799, Note_on_c, 0, 78, 0
1, 82800, Note_on_c, 0, 68, 96
1, 82800, Note_on_c, 0, 73, 96
1, 82800, Note_on_c, 0, 77, 96
1, 83027, Note_on_c, 0, 68, 0
1, 83027, Note_on_c, 0, 73, 0
1, 83027, Note_on_c, 0, 77, 0
1, 83520, Note_on_c, 0, 69, 96
1, 83520, Note_on_c, 0, 73, 96
1, 83747, Note_on_c, 0, 69, 0
1, 83747, Note_on_c, 0, 73, 0
1, 83880, Note_on_c, 0, 68, 96
1, 83880, Note_on_c, 0, 71, 96
1, 83993, Note_on_c, 0, 68, 0
1, 83993, Note_on_c, 0, 71, 0
1, 84000, Note_on_c, 0, 69, 96
1, 84000, Note_on_c, 0, 73, 96
1, 84227, Note_on_c, 0, 69, 0
1, 84227, Note_on_c, 0, 73, 0
1, 84240, Note_on_c, 0, 71, 96
1, 84240, Note_on_c, 0, 74, 96
1, 84359, Note_on_c, 0, 71, 0
1, 84359, Note_on_c, 0, 74, 0
1, 84480, Note_on_c, 0, 68, 96
1, 84480, Note_on_c, 0, 71, 96
1, 84599, Note_on_c, 0, 68, 0
1, 84599, Note_on_c, 0, 71, 0
1, 84720, Note_on_c, 0, 71, 96
1, 84720, Note_on_c, 0, 74, 96
1, 84720, Note_on_c, 0, 80, 96
1, 84839, Note_on_c, 0, 71, 0
1, 84839, Note_on_c, 0, 74, 0
1, 84839, Note_on_c, 0, 80, 0
1, 84960, Note_on_c, 0, 69, 115
1, 84960, Note_on_c, 0, 73, 115
1, 84960, Note_on_c, 0, 78, 115
1, 85679, Note_on_c, 0, 69, 0
1, 85679, Note_on_c, 0, 73, 0
1, 85679, Note_on_c, 0, 78, 0
1, 85680, Note_on_c, 0, 68, 96
1, 85680, Note_on_c, 0, 73, 96
1, 85680, Note_on_c, 0, 77, 96
1, 85907, Note_on_c, 0, 68, 0
1, 85907, Note_on_c, 0, 73, 0
1, 85907, Note_on_c, 0, 77, 0
1, 86400, Note_on_c, 0, 62, 96
1, 86400, Note_on_c, 0, 66, 96
1, 86627, Note_on_c, 0, 62, 0
1, 86627, Note_on_c, 0, 66, 0
1, 86760, Note_on_c, 0, 61, 96
1, 86760, Note_on_c, 0, 64, 96
1, 86873, Note_on_c, 0, 61, 0
1, 86873, Note_on_c, 0, 64, 0
1, 86880, Note_on_c, 0, 62, 96
1, 86880, Note_on_c, 0, 66, 96
1, 87107, Note_on_c, 0, 62, 0
1, 87107, Note_on_c, 0, 66, 0
1, 87120, Note_on_c, 0, 64, 97
1, 87120, Note_on_c, 0, 67, 97
1, 87239, Note_on_c, 0, 64, 0
1, 87239, Note_on_c, 0, 67, 0
1, 87360, Note_on_c, 0, 61, 97
1, 87360, Note_on_c, 0, 64, 97
1, 87479, Note_on_c, 0, 61, 0
1, 87479, Note_on_c, 0, 64, 0
1, 87600, Note_on_c, 0, 64, 97
1, 87600, Note_on_c, 0, 67, 97
1, 87600, Note_on_c, 0, 73, 97
1, 87719, Note_on_c, 0, 64, 0
1, 87719, Note_on_c, 0, 67, 0
1, 87719, Note_on_c, 0, 73, 0
1, 87840, Note_on_c, 0, 62, 117
1, 87840, Note_on_c, 0, 66, 117
1, 87840, Note_on_c, 0, 71, 117
1, 88559, Note_on_c, 0, 62, 0
1, 88559, Note_on_c, 0, 66, 0
1, 88559, Note_on_c, 0, 71, 0
1, 88560, Note_on_c, 0, 61, 99
1, 88560, Note_on_c, 0, 66, 99
1, 88560, Note_on_c, 0, 70, 99
1, 88787, Note_on_c, 0, 61, 0
1, 88787, Note_on_c, 0, 66, 0
1, 88787, Note_on_c, 0, 70, 0
1, 89280, Note_on_c, 0, 62, 100
1, 89280, Note_on_c, 0, 66, 100
1, 89507, Note_on_c, 0, 62, 0
1, 89507, Note_on_c, 0, 66, 0
1, 89640, Note_on_c, 0, 61, 100
1, 89640, Note_on_c, 0, 64, 100
1, 89753, Note_on_c, 0, 61, 0
1, 89753, Note_on_c, 0, 64, 0
1, 89760, Note_on_c, 0, 62, 100
1, 89760, Note_on_c, 0, 66, 100
1, 89987, Note_on_c, 0, 62, 0
1, 89987, Note_on_c, 0, 66, 0
1, 90000, Note_on_c, 0, 64, 101
1, 90000, Note_on_c, 0, 67, 101
1, 90119, Note_on_c, 0, 64, 0
1, 90119, Note_on_c, 0, 67, 0
1, 90240, Note_on_c, 0, 61, 101
1, 90240, Note_on_c, 0, 64, 101
1, 90359, Note_on_c, 0, 61, 0
1, 90359, Note_on_c, 0, 64, 0
1, 90480, Note_on_c, 0, 64, 101
1, 90480, Note_on_c, 0, 67, 101
1, 90480, Note_on_c, 0, 73, 101
1, 90599, Note_on_c, 0, 64, 0
1, 90599, Note_on_c, 0, 67, 0
1, 90599, Note_on_c, 0, 73, 0
1, 90720, Note_on_c, 0, 62, 122
1, 90720, Note_on_c, 0, 66, 122
1, 90720, Note_on_c, 0, 71, 122
1, 91439, Note_on_c, 0, 62, 0
1, 91439, Note_on_c, 0, 66, 0
1, 91439, Note_on_c, 0, 71, 0
1, 91440, Note_on_c, 0, 61, 103
1, 91440, Note_on_c, 0, 66, 103
1, 91440, Note_on_c, 0, 70, 103
1, 91667, Note_on_c, 0, 61, 0
1, 91667, Note_on_c, 0, 66, 0
1, 91667, Note_on_c, 0, 70, 0
1, 92160, Note_on_c, 0, 71, 104
1, 92160, Note_on_c, 0, 74, 104
1, 92160, Note_on_c, 0, 78, 104
1, 92387, Note_on_c, 0, 71, 0
1, 92387, Note_on_c, 0, 74, 0
1, 92387, Note_on_c, 0, 78, 0
1, 92520, Note_on_c, 0, 73, 104
1, 92520, Note_on_c, 0, 76, 104
1, 92633, Note_on_c, 0, 73, 0
1, 92633, Note_on_c, 0, 76, 0
1, 92640, Note_on_c, 0, 71, 104
1, 92640, Note_on_c, 0, 74, 104
1, 92640, Note_on_c, 0, 78, 104
1, 92867, Note_on_c, 0, 71, 0
1, 92867, Note_on_c, 0, 74, 0
1, 92867, Note_on_c, 0, 78, 0
1, 92880, Note_on_c, 0, 70, 105
1, 92880, Note_on_c, 0, 76, 105
1, 92880, Note_on_c, 0, 79, 105
1, 92999, Note_on_c, 0, 70, 0
1, 92999, Note_on_c, 0, 76, 0
1, 92999, Note_on_c, 0, 79, 0
1, 93120, Note_on_c, 0, 73, 105
1, 93120, Note_on_c, 0, 76, 105
1, 93239, Note_on_c, 0, 73, 0
1, 93239, Note_on_c, 0, 76, 0
1, 93360, Note_on_c, 0, 71, 105
1, 93360, Note_on_c, 0, 74, 105
1, 93360, Note_on_c, 0, 78, 105
1, 93479, Note_on_c, 0, 71, 0
1, 93479, Note_on_c, 0, 74, 0
1, 93479, Note_on_c, 0, 78, 0
1, 93600, Note_on_c, 0, 66, 106
1, 93600, Note_on_c, 0, 71, 106
1, 93600, Note_on_c, 0, 74, 106
1, 93827, Note_on_c, 0, 66, 0
1, 93827, Note_on_c, 0, 71, 0
1, 93827, Note_on_c, 0, 74, 0
1, 93960, Note_on_c, 0, 64, 106
1, 93960, Note_on_c, 0, 70, 106
1, 93960, Note_on_c, 0, 73, 106
1, 94073, Note_on_c, 0, 64, 0
1, 94073, Note_on_c, 0, 70, 0
1, 94073, Note_on_c, 0, 73, 0
1, 94080, Note_on_c, 0, 66, 106
1, 94080, Note_on_c, 0, 71, 106
1, 94080, Note_on_c, 0, 74, 106
1, 94307, Note_on_c, 0, 66, 0
1, 94307, Note_on_c, 0, 71, 0
1, 94307, Note_on_c, 0, 74, 0
1, 94320, Note_on_c, 0, 67, 107
1, 94320, Note_on_c, 0, 73, 107
1, 94320, Note_on_c, 0, 76, 107
1, 94439, Note_on_c, 0, 67, 0
1, 94439, Note_on_c, 0, 73, 0
1, 94439, Note_on_c, 0, 76, 0
1, 94560, Note_on_c, 0, 64, 107
1, 94560, Note_on_c, 0, 70, 107
1, 94560, Note_on_c, 0, 73, 107
1, 94679, Note_on_c, 0, 64, 0
1, 94679, Note_on_c, 0, 70, 0
1, 94679, Note_on_c, 0, 73, 0
1, 94800, Note_on_c, 0, 66, 107
1, 94800, Note_on_c, 0, 71, 107
1, 94800, Note_on_c, 0, 74, 107
1, 94919, Note_on_c, 0, 66, 0
1, 94919, Note_on_c, 0, 71, 0
1, 94919, Note_on_c, 0, 74, 0
1, 95040, Note_on_c, 0, 62, 108
1, 95040, Note_on_c, 0, 67, 108
1, 95040, Note_on_c, 0, 71, 108
1, 95267, Note_on_c, 0, 62, 0
1, 95267, Note_on_c, 0, 67, 0
1, 95267, Note_on_c, 0, 71, 0
1, 95400, Note_on_c, 0, 61, 108
1, 95400, Note_on_c, 0, 67, 108
1, 95400, Note_on_c, 0, 70, 108
1, 95513, Note_on_c, 0, 61, 0
1, 95513, Note_on_c, 0, 67, 0
1, 95513, Note_on_c, 0, 70, 0
1, 95520, Note_on_c, 0, 62, 108
1, 95520, Note_on_c, 0, 67, 108
1, 95520, Note_on_c, 0, 71, 108
1, 95747, Note_on_c, 0, 62, 0
1, 95747, Note_on_c, 0, 67, 0
1, 95747, Note_on_c, 0, 71, 0
1, 95760, Note_on_c, 0, 64, 109
1, 95760, Note_on_c, 0, 67, 109
1, 95760, Note_on_c, 0, 73, 109
1, 95879, Note_on_c, 0, 64, 0
1, 95879, Note_on_c, 0, 67, 0
1, 95879, Note_on_c, 0, 73, 0
1, 96000, Note_on_c, 0, 61, 109
1, 96000, Note_on_c, 0, 67, 109
1, 96000, Note_on_c, 0, 70, 109
1, 96119, Note_on_c, 0, 61, 0
1, 96119, Note_on_c, 0, 67, 0
1, 96119, Note_on_c, 0, 70, 0
1, 96240, Note_on_c, 0, 62, 109
1, 96240, Note_on_c, 0, 67, 109
1, 96240, Note_on_c, 0, 71, 109
1, 96359, Note_on_c, 0, 62, 0
1, 96359, Note_on_c, 0, 67, 0
1, 96359, Note_on_c, 0, 71, 0
1, 96480, Note_on_c, 0, 64, 110
1, 96480, Note_on_c, 0, 67, 110
1, 96480, Note_on_c, 0, 73, 110
1, 96599, Note_on_c, 0, 64, 0
1, 96599, Note_on_c, 0, 67, 0
1, 96599, Note_on_c, 0, 73, 0
1, 96720, Note_on_c, 0, 61, 110
1, 96720, Note_on_c, 0, 67, 110
1, 96720, Note_on_c, 0, 70, 110
1, 96839, Note_on_c, 0, 61, 0
1, 96839, Note_on_c, 0, 67, 0
1, 96839, Note_on_c, 0, 70, 0
1, 96960, Note_on_c, 0, 62, 110
1, 96960, Note_on_c, 0, 67, 110
1, 96960, Note_on_c, 0, 71, 110
1, 97079, Note_on_c, 0, 62, 0
1, 97079, Note_on_c, 0, 67, 0
1, 97079, Note_on_c, 0, 71, 0
1, 97200, Note_on_c, 0, 67, 127
1, 97200, Note_on_c, 0, 71, 127
1, 97200, Note_on_c, 0, 74, 127
1, 97919, Note_on_c, 0, 67, 0
1, 97919, Note_on_c, 0, 71, 0
1, 97919, Note_on_c, 0, 74, 0
1, 97920, Note_on_c, 0, 73, 112
1, 97920, Note_on_c, 0, 78, 112
1, 97920, Note_on_c, 0, 81, 112
1, 97920, Note_on_c, 0, 85, 112
1, 98147, Note_on_c, 0, 73, 0
1, 98147, Note_on_c, 0, 78, 0
1, 98147, Note_on_c, 0, 81, 0
1, 98147, Note_on_c, 0, 85, 0
1, 98280, Note_on_c, 0, 72, 112
1, 98280, Note_on_c, 0, 84, 112
1, 98393, Note_on_c, 0, 72, 0
1, 98393, Note_on_c, 0, 84, 0
1, 98400, Note_on_c, 0, 73, 112
1, 98400, Note_on_c, 0, 85, 112
1, 98627, Note_on_c, 0, 73, 0
1, 98627, Note_on_c, 0, 85, 0
1, 98640, Note_on_c, 0, 74, 112
1, 98640, Note_on_c, 0, 86, 112
1, 98759, Note_on_c, 0, 74, 0
1, 98759, Note_on_c, 0, 86, 0
1, 98880, Note_on_c, 0, 72, 112
1, 98880, Note_on_c, 0, 84, 112
1, 98999, Note_on_c, 0, 72, 0
1, 98999, Note_on_c, 0, 84, 0
1, 99120, Note_on_c, 0, 73, 112
1, 99120, Note_on_c, 0, 85, 112
1, 99239, Note_on_c, 0, 73, 0
1, 99239, Note_on_c, 0, 85, 0
1, 99360, Note_on_c, 0, 68, 112
1, 99360, Note_on_c, 0, 80, 112
1, 99479, Note_on_c, 0, 68, 0
1, 99479, Note_on_c, 0, 80, 0
1, 99600, Note_on_c, 0, 69, 112
1, 99600, Note_on_c, 0, 81, 112
1, 99719, Note_on_c, 0, 69, 0
1, 99719, Note_on_c, 0, 81, 0
1, 99840, Note_on_c, 0, 65, 112
1, 99840, Note_on_c, 0, 77, 112
1, 99959, Note_on_c, 0, 65, 0
1, 99959, Note_on_c, 0, 77, 0
1, 100080, Note_on_c, 0, 66, 112
1, 100080, Note_on_c, 0, 78, 112
1, 100199, Note_on_c, 0, 66, 0
1, 100199, Note_on_c, 0, 78, 0
1, 100320, Note_on_c, 0, 61, 112
1, 100320, Note_on_c, 0, 73, 112
1, 100439, Note_on_c, 0, 61, 0
1, 100439, Note_on_c, 0, 73, 0
1, 100560, Note_on_c, 0, 62, 112
1, 100560, Note_on_c, 0, 74, 112
1, 100679, Note_on_c, 0, 62, 0
1, 100679, Note_on_c, 0, 74, 0
1, 100800, Note_on_c, 0, 60, 112
1, 100800, Note_on_c, 0, 72, 112
1, 100919, Note_on_c, 0, 60, 0
1, 100919, Note_on_c, 0, 72, 0
1, 101040, Note_on_c, 0, 61, 112
1, 101040, Note_on_c, 0, 73, 112
1, 101159, Note_on_c, 0, 61, 0
1, 101159, Note_on_c, 0, 73, 0
1, 101280, Note_on_c, 0, 56, 112
1, 101280, Note_on_c, 0, 68, 112
1, 101399, Note_on_c, 0, 56, 0
1, 101399, Note_on_c, 0, 68, 0
1, 101520, Note_on_c, 0, 57, 112
1, 101520, Note_on_c, 0, 69, 112
1, 101639, Note_on_c, 0, 57, 0
1, 101639, Note_on_c, 0, 69, 0
1, 101760, Note_on_c, 0, 53, 112
1, 101760, Note_on_c, 0, 65, 112
1, 101879, Note_on_c, 0, 53, 0
1, 101879, Note_on_c, 0, 65, 0
1, 102000, Note_on_c, 0, 54, 112
1, 102000, Note_on_c, 0, 66, 112
1, 102119, Note_on_c, 0, 54, 0
1, 102119, Note_on_c, 0, 66, 0
1, 102240, Note_on_c, 0, 59, 127
1, 102240, Note_on_c, 0, 65, 127
1, 102240, Note_on_c, 0, 68, 127
1, 102719, Note_on_c, 0, 59, 0
1, 102719, Note_on_c, 0, 65, 0
1, 102719, Note_on_c, 0, 68, 0
1, 102720, Note_on_c, 0, 61, 112
1, 102720, Note_on_c, 0, 69, 112
1, 102947, Note_on_c, 0, 61, 0
1, 102947, Note_on_c, 0, 69, 0
1, 102960, Note_on_c, 0, 57, 112
1, 102960, Note_on_c, 0, 61, 112
1, 102960, Note_on_c, 0, 66, 112
1, 103415, Note_on_c, 0, 57, 0
1, 103415, Note_on_c, 0, 61, 0
1, 103415, Note_on_c, 0, 66, 0
1, 103680, Note_on_c, 0, 69, 112
1, 103680, Note_on_c, 0, 73, 112
1, 103907, Note_on_c, 0, 69, 0
1, 103907, Note_on_c, 0, 73, 0
1, 104040, Note_on_c, 0, 68, 109
1, 104040, Note_on_c, 0, 71, 109
1, 104153, Note_on_c, 0, 68, 0
1, 104153, Note_on_c, 0, 71, 0
1, 104160, Note_on_c, 0, 69, 107
1, 104160, Note_on_c, 0, 73, 107
1, 104387, Note_on_c, 0, 69, 0
1, 104387, Note_on_c, 0, 73, 0
1, 104400, Note_on_c, 0, 71, 105
1, 104400, Note_on_c, 0, 74, 105
1, 104519, Note_on_c, 0, 71, 0
1, 104519, Note_on_c, 0, 74, 0
1, 104640, Note_on_c, 0, 68, 102
1, 104640, Note_on_c, 0, 71, 102
1, 104759, Note_on_c, 0, 68, 0
1, 104759, Note_on_c, 0, 71, 0
1, 104880, Note_on_c, 0, 71, 99
1, 104880, Note_on_c, 0, 74, 99
1, 104880, Note_on_c, 0, 80, 99
1, 104999, Note_on_c, 0, 71, 0
1, 104999, Note_on_c, 0, 74, 0
1, 104999, Note_on_c, 0, 80, 0
1, 105120, Note_on_c, 0, 69, 116
1, 105120, Note_on_c, 0, 73, 116
1, 105120, Note_on_c, 0, 78, 116
1, 105839, Note_on_c, 0, 69, 0
1, 105839, Note_on_c, 0, 73, 0
1, 105839, Note_on_c, 0, 78, 0
1, 105840, Note_on_c, 0, 68, 89
1, 105840, Note_on_c, 0, 73, 89
1, 105840, Note_on_c, 0, 77, 89
1, 106067, Note_on_c, 0, 68, 0
1, 106067, Note_on_c, 0, 73, 0
1, 106067, Note_on_c, 0, 77, 0
1, 106320, Note_on_c, 0, 65, 84
1, 106320, Note_on_c, 0, 73, 84
1, 106439, Note_on_c, 0, 65, 0
1, 106439, Note_on_c, 0, 73, 0
1, 106560, Note_on_c, 0, 66, 81
1, 106560, Note_on_c, 0, 73, 81
1, 106799, Note_on_c, 0, 66, 0
1, 106799, Note_on_c, 0, 73, 0
1, 107040, Note_on_c, 0, 65, 76
1, 107040, Note_on_c, 0, 73, 76
1, 107159, Note_on_c, 0, 65, 0
1, 107159, Note_on_c, 0, 73, 0
1, 107280, Note_on_c, 0, 66, 73
1, 107280, Note_on_c, 0, 73, 73
1, 107519, Note_on_c, 0, 66, 0
1, 107519, Note_on_c, 0, 73, 0
1, 107760, Note_on_c, 0, 65, 68
1, 107760, Note_on_c, 0, 73, 68
1, 107879, Note_on_c, 0, 65, 0
1, 107879, Note_on_c, 0, 73, 0
1, 108000, Note_on_c, 0, 66, 65
1, 108000, Note_on_c, 0, 73, 65
1, 108239, Note_on_c, 0, 66, 0
1, 108239, Note_on_c, 0, 73, 0
1, 109440, Note_on_c, 0, 57, 49
1, 109440, Note_on_c, 0, 61, 49
1, 109667, Note_on_c, 0, 57, 0
1, 109667, Note_on_c, 0, 61, 0
1, 109800, Note_on_c, 0, 56, 48
1, 109800, Note_on_c, 0, 59, 48
1, 109913, Note_on_c, 0, 56, 0
1, 109913, Note_on_c, 0, 59, 0
1, 109920, Note_on_c, 0, 57, 48
1, 109920, Note_on_c, 0, 61, 48
1, 110147, Note_on_c, 0, 57, 0
1, 110147, Note_on_c, 0, 61, 0
1, 110160, Note_on_c, 0, 59, 47
1, 110160, Note_on_c, 0, 62, 47
1, 110279, Note_on_c, 0, 59, 0
1, 110279, Note_on_c, 0, 62, 0
1, 110400, Note_on_c, 0, 56, 47
1, 110400, Note_on_c, 0, 59, 47
1, 110519, Note_on_c, 0, 56, 0
1, 110519, Note_on_c, 0, 59, 0
1, 110640, Note_on_c, 0, 59, 46
1, 110640, Note_on_c, 0, 62, 46
1, 110640, Note_on_c, 0, 68, 46
1, 110759, Note_on_c, 0, 59, 0
1, 110759, Note_on_c, 0, 62, 0
1, 110759, Note_on_c, 0, 68, 0
1, 110880, Note_on_c, 0, 57, 54
1, 110880, Note_on_c, 0, 61, 54
1, 110880, Note_on_c, 0, 66, 54
1, 111599, Note_on_c, 0, 57, 0
1, 111599, Note_on_c, 0, 61, 0
1, 111599, Note_on_c, 0, 66, 0
1, 111600, Note_on_c, 0, 56, 43
1, 111600, Note_on_c, 0, 61, 43
1, 111600, Note_on_c, 0, 65, 43
1, 111827, Note_on_c, 0, 56, 0
1, 111827, Note_on_c, 0, 61, 0
1, 111827, Note_on_c, 0, 65, 0
1, 112080, Note_on_c, 0, 53, 42
1, 112080, Note_on_c, 0, 56, 42
1, 112080, Note_on_c, 0, 61, 42
1, 112199, Note_on_c, 0, 53, 0
1, 112199, Note_on_c, 0, 56, 0
1, 112199, Note_on_c, 0, 61, 0
1, 112320, Note_on_c, 0, 54, 41
1, 112320, Note_on_c, 0, 57, 41
1, 112320, Note_on_c, 0, 61, 41
1, 112559, Note_on_c, 0, 54, 0
1, 112559, Note_on_c, 0, 57, 0
1, 112559, Note_on_c, 0, 61, 0
1, 112800, Note_on_c, 0, 53, 40
1, 112800, Note_on_c, 0, 56, 40
1, 112800, Note_on_c, 0, 61, 40
1, 112919, Note_on_c, 0, 53, 0
1, 112919, Note_on_c, 0, 56, 0
1, 112919, Note_on_c, 0, 61, 0
1, 113040, Note_on_c, 0, 54, 39
1, 113040, Note_on_c, 0, 57, 39
1, 113040, Note_on_c, 0, 61, 39
1, 113279, Note_on_c, 0, 54, 0
1, 113279, Note_on_c, 0, 57, 0
1, 113279, Note_on_c, 0, 61, 0
1, 113520, Note_on_c, 0, 53, 38
1, 113520, Note_on_c, 0, 56, 38
1, 113520, Note_on_c, 0, 61, 38
1, 113639, Note_on_c, 0, 53, 0
1, 113639, Note_on_c, 0, 56, 0
1, 113639, Note_on_c, 0, 61, 0
1, 113760, Note_on_c, 0, 54, 37
1, 113760, Note_on_c, 0, 57, 37
1, 113760, Note_on_c, 0, 61, 37
1, 113999, Note_on_c, 0, 54, 0
1, 113999, Note_on_c, 0, 57, 0
1, 113999, Note_on_c, 0, 61, 0
1, 114960, Note_on_c, 0, 53, 33
1, 115079, Note_on_c, 0, 53, 0
1, 115200, Note_on_c, 0, 54, 33
1, 115439, Note_on_c, 0, 54, 0
1, 115680, Note_on_c, 0, 53, 33
1, 115799, Note_on_c, 0, 53, 0
1, 115920, Note_on_c, 0, 54, 33
1, 116159, Note_on_c, 0, 54, 0
1, 116400, Note_on_c, 0, 53, 33
1, 116519, Note_on_c, 0, 53, 0
1, 116640, Note_on_c, 0, 54, 33
1, 116879, Note_on_c, 0, 54, 0
1, 118080, Note_on_c, 0, 54, 80
1, 118080, Note_on_c, 0, 57, 80
1, 118080, Note_on_c, 0, 61, 80
1, 118799, Note_on_c, 0, 54, 0
1, 118799, Note_on_c, 0, 57, 0
1, 118799, Note_on_c, 0, 61, 0
1, 118800, Note_on_c, 0, 57, 80
1, 118800, Note_on_c, 0, 61, 80
1, 118800, Note_on_c, 0, 66, 80
1, 119279, Note_on_c, 0, 57, 0
1, 119279, Note_on_c, 0, 61, 0
1, 119279, Note_on_c, 0, 66, 0
1, 119280, Note_on_c, 0, 56, 80
1, 119280, Note_on_c, 0, 59, 80
1, 119280, Note_on_c, 0, 65, 80
1, 119507, Note_on_c, 0, 56, 0
1, 119507, Note_on_c, 0, 59, 0
1, 119507, Note_on_c, 0, 65, 0
1, 119520, Note_on_c, 0, 56, 80
1, 119520, Note_on_c, 0, 59, 80
1, 119520, Note_on_c, 0, 65, 80
1, 120239, Note_on_c, 0, 56, 0
1, 120239, Note_on_c, 0, 59, 0
1, 120239, Note_on_c, 0, 65, 0
1, 120240, Note_on_c, 0, 59, 80
1, 120240, Note_on_c, 0, 62, 80
1, 120240, Note_on_c, 0, 68, 80
1, 120719, Note_on_c, 0, 59, 0
1, 120719, Note_on_c, 0, 62, 0
1, 120719, Note_on_c, 0, 68, 0
1, 120720, Note_on_c, 0, 57, 80
1, 120720, Note_on_c, 0, 61, 80
1, 120720, Note_on_c, 0, 66, 80
1, 120947, Note_on_c, 0, 57, 0
1, 120947, Note_on_c, 0, 61, 0
1, 120947, Note_on_c, 0, 66, 0
1, 120960, Note_on_c, 0, 57, 80
1, 120960, Note_on_c, 0, 61, 80
1, 120960, Note_on_c, 0, 66, 80
1, 121679, Note_on_c, 0, 57, 0
1, 121679, Note_on_c, 0, 61, 0
1, 121679, Note_on_c, 0, 66, 0
1, 121680, Note_on_c, 0, 66, 96
1, 121680, Note_on_c, 0, 69, 96
1, 121680, Note_on_c, 0, 74, 96
1, 122159, Note_on_c, 0, 66, 0
1, 122159, Note_on_c, 0, 69, 0
1, 122159, Note_on_c, 0, 74, 0
1, 122160, Note_on_c, 0, 65, 80
1, 122160, Note_on_c, 0, 68, 80
1, 122160, Note_on_c, 0, 73, 80
1, 122387, Note_on_c, 0, 65, 0
1, 122387, Note_on_c, 0, 68, 0
1, 122387, Note_on_c, 0, 73, 0
1, 122400, Note_on_c, 0, 73, 80
1, 122400, Note_on_c, 0, 65, 80
1, 122400, Note_on_c, 0, 68, 80
1, 123083, Note_on_c, 0, 73, 0
1, 123120, Note_on_c, 0, 73, 65
1, 123479, Note_on_c, 0, 73, 0
1, 123767, Note_on_c, 0, 65, 0
1, 123767, Note_on_c, 0, 68, 0
1, 123840, Note_on_c, 0, 73, 49
1, 123840, Note_on_c, 0, 64, 49
1, 123840, Note_on_c, 0, 67, 49
1, 124199, Note_on_c, 0, 73, 0
1, 124560, Note_on_c, 0, 73, 49
1, 124919, Note_on_c, 0, 73, 0
1, 125279, Note_on_c, 0, 64, 0
1, 125279, Note_on_c, 0, 67, 0
1, 125280, Note_on_c, 0, 73, 49
1, 125280, Note_on_c, 0, 62, 49
1, 125280, Note_on_c, 0, 66, 49
1, 125759, Note_on_c, 0, 73, 0
1, 125760, Note_on_c, 0, 71, 49
1, 125999, Note_on_c, 0, 71, 0
1, 126000, Note_on_c, 0, 69, 49
1, 126479, Note_on_c, 0, 69, 0
1, 126480, Note_on_c, 0, 68, 49
1, 126719, Note_on_c, 0, 62, 0
1, 126719, Note_on_c, 0, 66, 0
1, 126719, Note_on_c, 0, 68, 0
1, 126720, Note_on_c, 0, 59, 49
1, 126720, Note_on_c, 0, 66, 49
1, 126720, Note_on_c, 0, 68, 49
1, 127199, Note_on_c, 0, 68, 0
1, 127200, Note_on_c, 0, 69, 49
1, 127259, Note_on_c, 0, 69, 0
1, 127260, Note_on_c, 0, 68, 49
1, 127319, Note_on_c, 0, 68, 0
1, 127320, Note_on_c, 0, 66, 0
1, 127320, Note_on_c, 0, 66, 49
1, 127380, Note_on_c, 0, 68, 49
1, 127439, Note_on_c, 0, 68, 0
1, 127440, Note_on_c, 0, 71, 49
1, 127919, Note_on_c, 0, 71, 0
1, 127920, Note_on_c, 0, 68, 49
1, 128159, Note_on_c, 0, 66, 0
1, 128159, Note_on_c, 0, 68, 0
1, 128160, Note_on_c, 0, 66, 49
1, 128639, Note_on_c, 0, 59, 0
1, 128640, Note_on_c, 0, 62, 49
1, 128879, Note_on_c, 0, 66, 0
1, 128879, Note_on_c, 0, 62, 0
1, 128880, Note_on_c, 0, 65, 49
1, 128880, Note_on_c, 0, 61, 49
1, 129359, Note_on_c, 0, 61, 0
1, 129360, Note_on_c, 0, 59, 49
1, 129599, Note_on_c, 0, 65, 0
1, 129599, Note_on_c, 0, 59, 0
1, 129600, Note_on_c, 0, 61, 49
1, 129600, Note_on_c, 0, 57, 49
1, 130079, Note_on_c, 0, 57, 0
1, 130080, Note_on_c, 0, 56, 49
1, 130319, Note_on_c, 0, 61, 0
1, 130319, Note_on_c, 0, 56, 0
1, 130320, Note_on_c, 0, 61, 49
1, 130320, Note_on_c, 0, 66, 49
1, 130320, Note_on_c, 0, 57, 49
1, 130799, Note_on_c, 0, 61, 0
1, 130799, Note_on_c, 0, 66, 0
1, 130799, Note_on_c, 0, 57, 0
1, 130800, Note_on_c, 0, 65, 49
1, 130800, Note_on_c, 0, 59, 49
1, 131027, Note_on_c, 0, 65, 0
1, 131027, Note_on_c, 0, 59, 0
1, 131040, Note_on_c, 0, 56, 49
1, 131040, Note_on_c, 0, 59, 49
1, 131040, Note_on_c, 0, 65, 49
1, 131759, Note_on_c, 0, 56, 0
1, 131759, Note_on_c, 0, 59, 0
1, 131759, Note_on_c, 0, 65, 0
1, 131760, Note_on_c, 0, 59, 56
1, 131760, Note_on_c, 0, 62, 56
1, 131760, Note_on_c, 0, 68, 56
1, 132239, Note_on_c, 0, 59, 0
1, 132239, Note_on_c, 0, 62, 0
1, 132239, Note_on_c, 0, 68, 0
1, 132240, Note_on_c, 0, 57, 61
1, 132240, Note_on_c, 0, 61, 61
1, 132240, Note_on_c, 0, 66, 61
1, 132467, Note_on_c, 0, 57, 0
1, 132467, Note_on_c, 0, 61, 0
1, 132467, Note_on_c, 0, 66, 0
1, 132480, Note_on_c, 0, 57, 64
1, 132480, Note_on_c, 0, 61, 64
1, 132480, Note_on_c, 0, 66, 64
1, 133199, Note_on_c, 0, 57, 0
1, 133199, Note_on_c, 0, 61, 0
1, 133199, Note_on_c, 0, 66, 0
1, 133200, Note_on_c, 0, 66, 76
1, 133200, Note_on_c, 0, 69, 76
1, 133200, Note_on_c, 0, 74, 76
1, 133679, Note_on_c, 0, 66, 0
1, 133679, Note_on_c, 0, 69, 0
1, 133679, Note_on_c, 0, 74, 0
1, 133680, Note_on_c, 0, 65, 64
1, 133680, Note_on_c, 0, 68, 64
1, 133680, Note_on_c, 0, 73, 64
1, 133907, Note_on_c, 0, 65, 0
1, 133907, Note_on_c, 0, 68, 0
1, 133907, Note_on_c, 0, 73, 0
1, 133920, Note_on_c, 0, 73, 64
1, 133920, Note_on_c, 0, 65, 64
1, 133920, Note_on_c, 0, 68, 64
1, 134603, Note_on_c, 0, 73, 0
1, 134640, Note_on_c, 0, 73, 57
1, 134999, Note_on_c, 0, 73, 0
1, 135287, Note_on_c, 0, 65, 0
1, 135287, Note_on_c, 0, 68, 0
1, 135360, Note_on_c, 0, 73, 49
1, 135360, Note_on_c, 0, 64, 49
1, 135360, Note_on_c, 0, 67, 49
1, 135719, Note_on_c, 0, 73, 0
1, 136080, Note_on_c, 0, 73, 49
1, 136439, Note_on_c, 0, 73, 0
1, 136799, Note_on_c, 0, 64, 0
1, 136799, Note_on_c, 0, 67, 0
1, 136800, Note_on_c, 0, 73, 49
1, 136800, Note_on_c, 0, 62, 49
1, 136800, Note_on_c, 0, 66, 49
1, 137279, Note_on_c, 0, 73, 0
1, 137280, Note_on_c, 0, 71, 49
1, 137519, Note_on_c, 0, 71, 0
1, 137520, Note_on_c, 0, 69, 49
1, 137999, Note_on_c, 0, 69, 0
1, 138000, Note_on_c, 0, 68, 49
1, 138227, Note_on_c, 0, 68, 0
1, 138239, Note_on_c, 0, 62, 0
1, 138239, Note_on_c, 0, 66, 0
1, 138240, Note_on_c, 0, 59, 49
1, 138240, Note_on_c, 0, 65, 49
1, 138240, Note_on_c, 0, 68, 49
1, 138719, Note_on_c, 0, 68, 0
1, 138720, Note_on_c, 0, 69, 49
1, 138799, Note_on_c, 0, 69, 0
1, 138800, Note_on_c, 0, 68, 49
1, 138879, Note_on_c, 0, 68, 0
1, 138880, Note_on_c, 0, 66, 49
1, 138959, Note_on_c, 0, 66, 0
1, 138960, Note_on_c, 0, 68, 49
1, 139439, Note_on_c, 0, 68, 0
1, 139440, Note_on_c, 0, 69, 49
1, 139667, Note_on_c, 0, 69, 0
1, 139679, Note_on_c, 0, 59, 0
1, 139679, Note_on_c, 0, 65, 0
1, 139680, Note_on_c, 0, 57, 49
1, 139680, Note_on_c, 0, 66, 49
1, 140363, Note_on_c, 0, 57, 0
1, 140363, Note_on_c, 0, 66, 0
1, 141120, Note_on_c, 0, 54, 80
1, 141120, Note_on_c, 0, 57, 80
1, 141120, Note_on_c, 0, 61, 80
1, 141839, Note_on_c, 0, 54, 0
1, 141839, Note_on_c, 0, 57, 0
1, 141839, Note_on_c, 0, 61, 0
1, 141840, Note_on_c, 0, 57, 80
1, 141840, Note_on_c, 0, 61, 80
1, 141840, Note_on_c, 0, 66, 80
1, 142319, Note_on_c, 0, 57, 0
1, 142319, Note_on_c, 0, 61, 0
1, 142319, Note_on_c, 0, 66, 0
1, 142320, Note_on_c, 0, 56, 80
1, 142320, Note_on_c, 0, 59, 80
1, 142320, Note_on_c, 0, 65, 80
1, 142547, Note_on_c, 0, 56, 0
1, 142547, Note_on_c, 0, 59, 0
1, 142547, Note_on_c, 0, 65, 0
1, 142560, Note_on_c, 0, 56, 80
1, 142560, Note_on_c, 0, 59, 80
1, 142560, Note_on_c, 0, 65, 80
1, 143279, Note_on_c, 0, 56, 0
1, 143279, Note_on_c, 0, 59, 0
1, 143279, Note_on_c, 0, 65, 0
1, 143280, Note_on_c, 0, 59, 80
1, 143280, Note_on_c, 0, 62, 80
1, 143280, Note_on_c, 0, 68, 80
1, 143759, Note_on_c, 0, 59, 0
1, 143759, Note_on_c, 0, 62, 0
1, 143759, Note_on_c, 0, 68, 0
1, 143760, Note_on_c, 0, 57, 80
1, 143760, Note_on_c, 0, 61, 80
1, 143760, Note_on_c, 0, 66, 80
1, 143987, Note_on_c, 0, 57, 0
1, 143987, Note_on_c, 0, 61, 0
1, 143987, Note_on_c, 0, 66, 0
1, 144000, Note_on_c, 0, 57, 80
1, 144000, Note_on_c, 0, 61, 80
1, 144000, Note_on_c, 0, 66, 80
1, 144719, Note_on_c, 0, 57, 0
1, 144719, Note_on_c, 0, 61, 0
1, 144719, Note_on_c, 0, 66, 0
1, 144720, Note_on_c, 0, 66, 96
1, 144720, Note_on_c, 0, 69, 96
1, 144720, Note_on_c, 0, 74, 96
1, 145199, Note_on_c, 0, 66, 0
1, 145199, Note_on_c, 0, 69, 0
1, 145199, Note_on_c, 0, 74, 0
1, 145200, Note_on_c, 0, 65, 80
1, 145200, Note_on_c, 0, 68, 80
1, 145200, Note_on_c, 0, 73, 80
1, 145427, Note_on_c, 0, 65, 0
1, 145427, Note_on_c, 0, 68, 0
1, 145427, Note_on_c, 0, 73, 0
1, 145440, Note_on_c, 0, 73, 80
1, 145440, Note_on_c, 0, 65, 80
1, 145440, Note_on_c, 0, 68, 80
1, 146123, Note_on_c, 0, 73, 0
1, 146160, Note_on_c, 0, 73, 65
1, 146519, Note_on_c, 0, 73, 0
1, 146807, Note_on_c, 0, 65, 0
1, 146807, Note_on_c, 0, 68, 0
1, 146880, Note_on_c, 0, 73, 49
1, 146880, Note_on_c, 0, 64, 49
1, 146880, Note_on_c, 0, 67, 49
1, 147239, Note_on_c, 0, 73, 0
1, 147600, Note_on_c, 0, 73, 49
1, 147959, Note_on_c, 0, 73, 0
1, 148319, Note_on_c, 0, 64, 0
1, 148319, Note_on_c, 0, 67, 0
1, 148320, Note_on_c, 0, 73, 49
1, 148320, Note_on_c, 0, 62, 49
1, 148320, Note_on_c, 0, 66, 49
1, 148799, Note_on_c, 0, 73, 0
1, 148800, Note_on_c, 0, 71, 49
1, 149039, Note_on_c, 0, 71, 0
1, 149040, Note_on_c, 0, 69, 49
1, 149519, Note_on_c, 0, 69, 0
1, 149520, Note_on_c, 0, 68, 49
1, 149759, Note_on_c, 0, 62, 0
1, 149759, Note_on_c, 0, 66, 0
1, 149759, Note_on_c, 0, 68, 0
1, 149760, Note_on_c, 0, 59, 49
1, 149760, Note_on_c, 0, 66, 49
1, 149760, Note_on_c, 0, 68, 49
1, 150239, Note_on_c, 0, 68, 0
1, 150240, Note_on_c, 0, 69, 49
1, 150299, Note_on_c, 0, 69, 0
1, 150300, Note_on_c, 0, 68, 49
1, 150359, Note_on_c, 0, 68, 0
1, 150360, Note_on_c, 0, 66, 0
1, 150360, Note_on_c, 0, 66, 49
1, 150420, Note_on_c, 0, 68, 49
1, 150479, Note_on_c, 0, 68, 0
1, 150480, Note_on_c, 0, 71, 49
1, 150959, Note_on_c, 0, 71, 0
1, 150960, Note_on_c, 0, 68, 49
1, 151199, Note_on_c, 0, 66, 0
1, 151199, Note_on_c, 0, 68, 0
1, 151200, Note_on_c, 0, 66, 49
1, 151679, Note_on_c, 0, 59, 0
1, 151680, Note_on_c, 0, 62, 49
1, 151919, Note_on_c, 0, 66, 0
1, 151919, Note_on_c, 0, 62, 0
1, 151920, Note_on_c, 0, 65, 49
1, 151920, Note_on_c, 0, 61, 49
1, 152399, Note_on_c, 0, 61, 0
1, 152400, Note_on_c, 0, 59, 49
1, 152639, Note_on_c, 0, 65, 0
1, 152639, Note_on_c, 0, 59, 0
1, 152640, Note_on_c, 0, 61, 49
1, 152640, Note_on_c, 0, 57, 49
1, 153119, Note_on_c, 0, 57, 0
1, 153120, Note_on_c, 0, 56, 49
1, 153359, Note_on_c, 0, 61, 0
1, 153359, Note_on_c, 0, 56, 0
1, 153360, Note_on_c, 0, 61, 49
1, 153360, Note_on_c, 0, 66, 49
1, 153360, Note_on_c, 0, 57, 49
1, 153839, Note_on_c, 0, 61, 0
1, 153839, Note_on_c, 0, 66, 0
1, 153839, Note_on_c, 0, 57, 0
1, 153840, Note_on_c, 0, 65, 49
1, 153840, Note_on_c, 0, 59, 49
1, 154067, Note_on_c, 0, 65, 0
1, 154067, Note_on_c, 0, 59, 0
1, 154080, Note_on_c, 0, 56, 49
1, 154080, Note_on_c, 0, 59, 49
1, 154080, Note_on_c, 0, 65, 49
1, 154799, Note_on_c, 0, 56, 0
1, 154799, Note_on_c, 0, 59, 0
1, 154799, Note_on_c, 0, 65, 0
1, 154800, Note_on_c, 0, 59, 56
1, 154800, Note_on_c, 0, 62, 56
1, 154800, Note_on_c, 0, 68, 56
1, 155279, Note_on_c, 0, 59, 0
1, 155279, Note_on_c, 0, 62, 0
1, 155279, Note_on_c, 0, 68, 0
1, 155280, Note_on_c, 0, 57, 61
1, 155280, Note_on_c, 0, 61, 61
1, 155280, Note_on_c, 0, 66, 61
1, 155507, Note_on_c, 0, 57, 0
1, 155507, Note_on_c, 0, 61, 0
1, 155507, Note_on_c, 0, 66, 0
1, 155520, Note_on_c, 0, 57, 64
1, 155520, Note_on_c, 0, 61, 64
1, 155520, Note_on_c, 0, 66, 64
1, 156239, Note_on_c, 0, 57, 0
1, 156239, Note_on_c, 0, 61, 0
1, 156239, Note_on_c, 0, 66, 0
1, 156240, Note_on_c, 0, 66, 76
1, 156240, Note_on_c, 0, 69, 76
1, 156240, Note_on_c, 0, 74, 76
1, 156719, Note_on_c, 0, 66, 0
1, 156719, Note_on_c, 0, 69, 0
1, 156719, Note_on_c, 0, 74, 0
1, 156720, Note_on_c, 0, 65, 64
1, 156720, Note_on_c, 0, 68, 64
1, 156720, Note_on_c, 0, 73, 64
1, 156947, Note_on_c, 0, 65, 0
1, 156947, Note_on_c, 0, 68, 0
1, 156947, Note_on_c, 0, 73, 0
1, 156960, Note_on_c, 0, 73, 64
1, 156960, Note_on_c, 0, 65, 64
1, 156960, Note_on_c, 0, 68, 64
1, 157643, Note_on_c, 0, 73, 0
1, 157680, Note_on_c, 0, 73, 57
1, 158039, Note_on_c, 0, 73, 0
1, 158327, Note_on_c, 0, 65, 0
1, 158327, Note_on_c, 0, 68, 0
1, 158400, Note_on_c, 0, 73, 49
1, 158400, Note_on_c, 0, 64, 49
1, 158400, Note_on_c, 0, 67, 49
1, 158759, Note_on_c, 0, 73, 0
1, 159120, Note_on_c, 0, 73, 49
1, 159479, Note_on_c, 0, 73, 0
1, 159839, Note_on_c, 0, 64, 0
1, 159839, Note_on_c, 0, 67, 0
1, 159840, Note_on_c, 0, 73, 49
1, 159840, Note_on_c, 0, 62, 49
1, 159840, Note_on_c, 0, 66, 49
1, 160319, Note_on_c, 0, 73, 0
1, 160320, Note_on_c, 0, 71, 49
1, 160559, Note_on_c, 0, 71, 0
1, 160560, Note_on_c, 0, 69, 49
1, 161039, Note_on_c, 0, 69, 0
1, 161040, Note_on_c, 0, 68, 49
1, 161267, Note_on_c, 0, 68, 0
1, 161279, Note_on_c, 0, 62, 0
1, 161279, Note_on_c, 0, 66, 0
1, 161280, Note_on_c, 0, 59, 49
1, 161280, Note_on_c, 0, 65, 49
1, 161280, Note_on_c, 0, 68, 49
1, 161759, Note_on_c, 0, 68, 0
1, 161760, Note_on_c, 0, 69, 49
1, 161839, Note_on_c, 0, 69, 0
1, 161840, Note_on_c, 0, 68, 49
1, 161919, Note_on_c, 0, 68, 0
1, 161920, Note_on_c, 0, 66, 49
1, 161999, Note_on_c, 0, 66, 0
1, 162000, Note_on_c, 0, 68, 49
1, 162479, Note_on_c, 0, 68, 0
1, 162480, Note_on_c, 0, 69, 49
1, 162707, Note_on_c, 0, 69, 0
1, 162719, Note_on_c, 0, 59, 0
1, 162719, Note_on_c, 0, 65, 0
1, 162720, Note_on_c, 0, 57, 49
1, 162720, Note_on_c, 0, 66, 49
1, 163403, Note_on_c, 0, 57, 0
1, 163403, Note_on_c, 0, 66, 0
1, 164160, Note_on_c, 0, 62, 49
1, 164880, Note_on_c, 0, 59, 58
1, 164880, Note_on_c, 0, 67, 58
1, 165359, Note_on_c, 0, 62, 0
1, 165359, Note_on_c, 0, 59, 0
1, 165359, Note_on_c, 0, 67, 0
1, 165360, Note_on_c, 0, 57, 49
1, 165360, Note_on_c, 0, 66, 49
1, 165587, Note_on_c, 0, 57, 0
1, 165587, Note_on_c, 0, 66, 0
1, 165600, Note_on_c, 0, 57, 52
1, 165600, Note_on_c, 0, 66, 52
1, 166319, Note_on_c, 0, 57, 0
1, 166319, Note_on_c, 0, 66, 0
1, 166320, Note_on_c, 0, 62, 76
1, 166320, Note_on_c, 0, 67, 76
1, 166320, Note_on_c, 0, 71, 76
1, 166799, Note_on_c, 0, 62, 0
1, 166799, Note_on_c, 0, 67, 0
1, 166799, Note_on_c, 0, 71, 0
1, 166800, Note_on_c, 0, 60, 59
1, 166800, Note_on_c, 0, 62, 59
1, 166800, Note_on_c, 0, 69, 59
1, 167039, Note_on_c, 0, 60, 0
1, 167039, Note_on_c, 0, 62, 0
1, 167039, Note_on_c, 0, 69, 0
1, 167040, Note_on_c, 0, 62, 57
1, 167040, Note_on_c, 0, 69, 57
1, 167040, Note_on_c, 0, 60, 57
1, 167759, Note_on_c, 0, 62, 0
1, 167759, Note_on_c, 0, 60, 0
1, 167760, Note_on_c, 0, 59, 49
1, 168239, Note_on_c, 0, 69, 0
1, 168240, Note_on_c, 0, 67, 49
1, 168479, Note_on_c, 0, 59, 0
1, 168479, Note_on_c, 0, 67, 0
1, 168480, Note_on_c, 0, 57, 49
1, 168480, Note_on_c, 0, 66, 49
1, 169163, Note_on_c, 0, 57, 0
1, 169163, Note_on_c, 0, 66, 0
1, 169920, Note_on_c, 0, 62, 49
1, 169920, Note_on_c, 0, 66, 49
1, 170639, Note_on_c, 0, 62, 0
1, 170639, Note_on_c, 0, 66, 0
1, 170640, Note_on_c, 0, 67, 54
1, 170640, Note_on_c, 0, 71, 54
1, 171119, Note_on_c, 0, 67, 0
1, 171119, Note_on_c, 0, 71, 0
1, 171120, Note_on_c, 0, 66, 57
1, 171120, Note_on_c, 0, 69, 57
1, 171347, Note_on_c, 0, 66, 0
1, 171347, Note_on_c, 0, 69, 0
1, 171360, Note_on_c, 0, 66, 59
1, 171360, Note_on_c, 0, 69, 59
1, 172079, Note_on_c, 0, 66, 0
1, 172079, Note_on_c, 0, 69, 0
1, 172080, Note_on_c, 0, 71, 76
1, 172080, Note_on_c, 0, 74, 76
1, 172559, Note_on_c, 0, 71, 0
1, 172559, Note_on_c, 0, 74, 0
1, 172560, Note_on_c, 0, 69, 64
1, 172560, Note_on_c, 0, 72, 64
1, 172787, Note_on_c, 0, 69, 0
1, 172787, Note_on_c, 0, 72, 0
1, 172800, Note_on_c, 0, 72, 64
1, 172800, Note_on_c, 0, 69, 64
1, 173519, Note_on_c, 0, 69, 0
1, 173520, Note_on_c, 0, 67, 59
1, 173999, Note_on_c, 0, 72, 0
1, 174000, Note_on_c, 0, 71, 56
1, 174227, Note_on_c, 0, 71, 0
1, 174239, Note_on_c, 0, 67, 0
1, 174240, Note_on_c, 0, 71, 54
1, 174240, Note_on_c, 0, 66, 54
1, 174923, Note_on_c, 0, 71, 0
1, 174960, Note_on_c, 0, 74, 49
1, 175319, Note_on_c, 0, 74, 0
1, 175607, Note_on_c, 0, 66, 0
1, 175680, Note_on_c, 0, 73, 49
1, 175680, Note_on_c, 0, 64, 49
1, 175680, Note_on_c, 0, 67, 49
1, 176039, Note_on_c, 0, 73, 0
1, 176400, Note_on_c, 0, 73, 49
1, 176759, Note_on_c, 0, 73, 0
1, 177119, Note_on_c, 0, 64, 0
1, 177119, Note_on_c, 0, 67, 0
1, 177120, Note_on_c, 0, 73, 49
1, 177120, Note_on_c, 0, 62, 49
1, 177120, Note_on_c, 0, 66, 49
1, 177599, Note_on_c, 0, 73, 0
1, 177600, Note_on_c, 0, 71, 49
1, 177839, Note_on_c, 0, 71, 0
1, 177840, Note_on_c, 0, 69, 49
1, 178319, Note_on_c, 0, 69, 0
1, 178320, Note_on_c, 0, 68, 49
1, 178547, Note_on_c, 0, 68, 0
1, 178559, Note_on_c, 0, 62, 0
1, 178559, Note_on_c, 0, 66, 0
1, 178560, Note_on_c, 0, 59, 49
1, 178560, Note_on_c, 0, 65, 49
1, 178560, Note_on_c, 0, 68, 49
1, 179039, Note_on_c, 0, 68, 0
1, 179040, Note_on_c, 0, 69, 49
1, 179119, Note_on_c, 0, 69, 0
1, 179120, Note_on_c, 0, 68, 49
1, 179199, Note_on_c, 0, 68, 0
1, 179200, Note_on_c, 0, 66, 49
1, 179279, Note_on_c, 0, 66, 0
1, 179280, Note_on_c, 0, 68, 49
1, 179759, Note_on_c, 0, 68, 0
1, 179760, Note_on_c, 0, 69, 49
1, 179987, Note_on_c, 0, 69, 0
1, 179999, Note_on_c, 0, 59, 0
1, 179999, Note_on_c, 0, 65, 0
1, 180000, Note_on_c, 0, 66, 49
1, 180000, Note_on_c, 0, 57, 49
1, 180683, Note_on_c, 0, 66, 0
1, 180683, Note_on_c, 0, 57, 0
1, 180720, Note_on_c, 0, 73, 47
1, 181079, Note_on_c, 0, 73, 0
1, 181440, Note_on_c, 0, 73, 45
1, 181440, Note_on_c, 0, 64, 45
1, 181440, Note_on_c, 0, 67, 45
1, 181799, Note_on_c, 0, 73, 0
1, 182160, Note_on_c, 0, 73, 43
1, 182519, Note_on_c, 0, 73, 0
1, 182879, Note_on_c, 0, 64, 0
1, 182879, Note_on_c, 0, 67, 0
1, 182880, Note_on_c, 0, 73, 41
1, 182880, Note_on_c, 0, 62, 41
1, 182880, Note_on_c, 0, 66, 41
1, 183359, Note_on_c, 0, 73, 0
1, 183360, Note_on_c, 0, 71, 40
1, 183599, Note_on_c, 0, 71, 0
1, 183600, Note_on_c, 0, 69, 39
1, 184079, Note_on_c, 0, 69, 0
1, 184080, Note_on_c, 0, 68, 38
1, 184307, Note_on_c, 0, 68, 0
1, 184319, Note_on_c, 0, 62, 0
1, 184319, Note_on_c, 0, 66, 0
1, 184320, Note_on_c, 0, 59, 37
1, 184320, Note_on_c, 0, 65, 37
1, 184320, Note_on_c, 0, 68, 37
1, 184799, Note_on_c, 0, 68, 0
1, 184800, Note_on_c, 0, 69, 36
1, 184879, Note_on_c, 0, 69, 0
1, 184880, Note_on_c, 0, 68, 36
1, 184959, Note_on_c, 0, 68, 0
1, 184960, Note_on_c, 0, 66, 36
1, 185039, Note_on_c, 0, 66, 0
1, 185040, Note_on_c, 0, 68, 35
1, 185519, Note_on_c, 0, 68, 0
1, 185520, Note_on_c, 0, 69, 34
1, 185747, Note_on_c, 0, 69, 0
1, 185759, Note_on_c, 0, 59, 0
1, 185759, Note_on_c, 0, 65, 0
1, 185760, Note_on_c, 0, 66, 33
1, 185760, Note_on_c, 0, 57, 33
1, 185760, Note_on_c, 0, 61, 33
1, 185987, Note_on_c, 0, 61, 0
1, 186120, Note_on_c, 0, 60, 33
1, 186233, Note_on_c, 0, 60, 0
1, 186240, Note_on_c, 0, 61, 33
1, 186467, Note_on_c, 0, 61, 0
1, 186480, Note_on_c, 0, 62, 33
1, 186599, Note_on_c, 0, 62, 0
1, 186720, Note_on_c, 0, 60, 33
1, 186839, Note_on_c, 0, 60, 0
1, 186960, Note_on_c, 0, 61, 33
1, 187079, Note_on_c, 0, 61, 0
1, 187127, Note_on_c, 0, 66, 0
1, 187127, Note_on_c, 0, 57, 0
1, 187200, Note_on_c, 0, 57, 33
1, 187319, Note_on_c, 0, 57, 0
1, 187440, Note_on_c, 0, 59, 33
1, 187559, Note_on_c, 0, 59, 0
1, 187680, Note_on_c, 0, 56, 33
1, 187799, Note_on_c, 0, 56, 0
1, 187920, Note_on_c, 0, 57, 33
1, 188039, Note_on_c, 0, 57, 0
1, 188160, Note_on_c, 0, 54, 33
1, 188279, Note_on_c, 0, 54, 0
1, 188400, Note_on_c, 0, 56, 33
1, 188519, Note_on_c, 0, 56, 0
1, 188640, Note_on_c, 0, 53, 33
1, 188759, Note_on_c, 0, 53, 0
1, 188880, Note_on_c, 0, 54, 33
1, 188999, Note_on_c, 0, 54, 0
1, 189120, Note_on_c, 0, 56, 33
1, 189239, Note_on_c, 0, 56, 0
1, 189360, Note_on_c, 0, 54, 33
1, 189479, Note_on_c, 0, 54, 0
1, 189600, Note_on_c, 0, 56, 33
1, 189719, Note_on_c, 0, 56, 0
1, 189840, Note_on_c, 0, 57, 33
1, 189959, Note_on_c, 0, 57, 0
1, 190080, Note_on_c, 0, 56, 33
1, 190199, Note_on_c, 0, 56, 0
1, 190320, Note_on_c, 0, 57, 33
1, 190439, Note_on_c, 0, 57, 0
1, 190560, Note_on_c, 0, 59, 33
1, 190679, Note_on_c, 0, 59, 0
1, 190800, Note_on_c, 0, 57, 33
1, 190919, Note_on_c, 0, 57, 0
1, 191040, Note_on_c, 0, 59, 33
1, 191159, Note_on_c, 0, 59, 0
1, 191280, Note_on_c, 0, 61, 33
1, 191399, Note_on_c, 0, 61, 0
1, 191520, Note_on_c, 0, 63, 33
1, 191520, Note_on_c, 0, 66, 33
1, 191747, Note_on_c, 0, 63, 0
1, 191747, Note_on_c, 0, 66, 0
1, 191880, Note_on_c, 0, 61, 36
1, 191880, Note_on_c, 0, 64, 36
1, 191993, Note_on_c, 0, 61, 0
1, 191993, Note_on_c, 0, 64, 0
1, 192000, Note_on_c, 0, 63, 38
1, 192000, Note_on_c, 0, 66, 38
1, 192227, Note_on_c, 0, 63, 0
1, 192227, Note_on_c, 0, 66, 0
1, 192240, Note_on_c, 0, 64, 40
1, 192240, Note_on_c, 0, 68, 40
1, 192359, Note_on_c, 0, 64, 0
1, 192359, Note_on_c, 0, 68, 0
1, 192480, Note_on_c, 0, 61, 43
1, 192480, Note_on_c, 0, 64, 43
1, 192599, Note_on_c, 0, 61, 0
1, 192599, Note_on_c, 0, 64, 0
1, 192720, Note_on_c, 0, 63, 46
1, 192720, Note_on_c, 0, 66, 46
1, 192839, Note_on_c, 0, 63, 0
1, 192839, Note_on_c, 0, 66, 0
1, 192960, Note_on_c, 0, 60, 48
1, 192960, Note_on_c, 0, 63, 48
1, 193079, Note_on_c, 0, 60, 0
1, 193079, Note_on_c, 0, 63, 0
1, 193200, Note_on_c, 0, 61, 51
1, 193200, Note_on_c, 0, 64, 51
1, 193319, Note_on_c, 0, 61, 0
1, 193319, Note_on_c, 0, 64, 0
1, 193440, Note_on_c, 0, 57, 54
1, 193440, Note_on_c, 0, 61, 54
1, 193559, Note_on_c, 0, 57, 0
1, 193559, Note_on_c, 0, 61, 0
1, 193680, Note_on_c, 0, 54, 56
1, 193680, Note_on_c, 0, 63, 56
1, 193799, Note_on_c, 0, 54, 0
1, 193799, Note_on_c, 0, 63, 0
1, 193920, Note_on_c, 0, 56, 59
1, 193920, Note_on_c, 0, 64, 59
1, 194039, Note_on_c, 0, 56, 0
1, 194039, Note_on_c, 0, 64, 0
1, 194160, Note_on_c, 0, 57, 61
1, 194160, Note_on_c, 0, 66, 61
1, 194279, Note_on_c, 0, 57, 0
1, 194279, Note_on_c, 0, 66, 0
1, 194400, Note_on_c, 0, 54, 64
1, 194400, Note_on_c, 0, 56, 64
1, 194519, Note_on_c, 0, 54, 0
1, 194519, Note_on_c, 0, 56, 0
1, 194640, Note_on_c, 0, 54, 67
1, 194759, Note_on_c, 0, 54, 0
1, 194880, Note_on_c, 0, 54, 69
1, 194880, Note_on_c, 0, 56, 69
1, 194999, Note_on_c, 0, 54, 0
1, 194999, Note_on_c, 0, 56, 0
1, 195120, Note_on_c, 0, 54, 72
1, 195120, Note_on_c, 0, 57, 72
1, 195239, Note_on_c, 0, 54, 0
1, 195239, Note_on_c, 0, 57, 0
1, 195360, Note_on_c, 0, 54, 75
1, 195360, Note_on_c, 0, 56, 75
1, 195479, Note_on_c, 0, 54, 0
1, 195479, Note_on_c, 0, 56, 0
1, 195600, Note_on_c, 0, 54, 77
1, 195600, Note_on_c, 0, 57, 77
1, 195719, Note_on_c, 0, 54, 0
1, 195719, Note_on_c, 0, 57, 0
1, 195840, Note_on_c, 0, 54, 80
1, 195840, Note_on_c, 0, 58, 80
1, 195959, Note_on_c, 0, 54, 0
1, 195959, Note_on_c, 0, 58, 0
1, 196080, Note_on_c, 0, 54, 82
1, 196080, Note_on_c, 0, 56, 82
1, 196199, Note_on_c, 0, 54, 0
1, 196199, Note_on_c, 0, 56, 0
1, 196320, Note_on_c, 0, 54, 85
1, 196320, Note_on_c, 0, 58, 85
1, 196439, Note_on_c, 0, 54, 0
1, 196439, Note_on_c, 0, 58, 0
1, 196560, Note_on_c, 0, 54, 88
1, 196560, Note_on_c, 0, 60, 88
1, 196679, Note_on_c, 0, 54, 0
1, 196679, Note_on_c, 0, 60, 0
1, 196800, Note_on_c, 0, 54, 90
1, 196800, Note_on_c, 0, 58, 90
1, 196919, Note_on_c, 0, 54, 0
1, 196919, Note_on_c, 0, 58, 0
1, 197040, Note_on_c, 0, 54, 93
1, 197040, Note_on_c, 0, 60, 93
1, 197159, Note_on_c, 0, 54, 0
1, 197159, Note_on_c, 0, 60, 0
1, 197280, Note_on_c, 0, 73, 96
1, 197280, Note_on_c, 0, 76, 96
1, 197280, Note_on_c, 0, 80, 96
1, 197507, Note_on_c, 0, 73, 0
1, 197507, Note_on_c, 0, 76, 0
1, 197507, Note_on_c, 0, 80, 0
1, 197640, Note_on_c, 0, 75, 96
1, 197640, Note_on_c, 0, 78, 96
1, 197753, Note_on_c, 0, 75, 0
1, 197753, Note_on_c, 0, 78, 0
1, 197760, Note_on_c, 0, 76, 96
1, 197760, Note_on_c, 0, 80, 96
1, 197987, Note_on_c, 0, 76, 0
1, 197987, Note_on_c, 0, 80, 0
1, 198000, Note_on_c, 0, 78, 96
1, 198000, Note_on_c, 0, 81, 96
1, 198119, Note_on_c, 0, 78, 0
1, 198119, Note_on_c, 0, 81, 0
1, 198240, Note_on_c, 0, 75, 96
1, 198240, Note_on_c, 0, 78, 96
1, 198359, Note_on_c, 0, 75, 0
1, 198359, Note_on_c, 0, 78, 0
1, 198480, Note_on_c, 0, 76, 96
1, 198480, Note_on_c, 0, 80, 96
1, 198599, Note_on_c, 0, 76, 0
1, 198599, Note_on_c, 0, 80, 0
1, 198720, Note_on_c, 0, 73, 96
1, 198720, Note_on_c, 0, 76, 96
1, 198947, Note_on_c, 0, 73, 0
1, 198947, Note_on_c, 0, 76, 0
1, 199080, Note_on_c, 0, 72, 96
1, 199080, Note_on_c, 0, 75, 96
1, 199193, Note_on_c, 0, 72, 0
1, 199193, Note_on_c, 0, 75, 0
1, 199200, Note_on_c, 0, 73, 96
1, 199200, Note_on_c, 0, 76, 96
1, 199427, Note_on_c, 0, 73, 0
1, 199427, Note_on_c, 0, 76, 0
1, 199440, Note_on_c, 0, 75, 96
1, 199440, Note_on_c, 0, 78, 96
1, 199559, Note_on_c, 0, 75, 0
1, 199559, Note_on_c, 0, 78, 0
1, 199680, Note_on_c, 0, 72, 96
1, 199680, Note_on_c, 0, 75, 96
1, 199799, Note_on_c, 0, 72, 0
1, 199799, Note_on_c, 0, 75, 0
1, 199920, Note_on_c, 0, 73, 96
1, 199920, Note_on_c, 0, 76, 96
1, 200039, Note_on_c, 0, 73, 0
1, 200039, Note_on_c, 0, 76, 0
1, 200160, Note_on_c, 0, 68, 96
1, 200160, Note_on_c, 0, 73, 96
1, 200387, Note_on_c, 0, 68, 0
1, 200387, Note_on_c, 0, 73, 0
1, 200520, Note_on_c, 0, 66, 96
1, 200520, Note_on_c, 0, 72, 96
1, 200633, Note_on_c, 0, 66, 0
1, 200633, Note_on_c, 0, 72, 0
1, 200640, Note_on_c, 0, 68, 96
1, 200640, Note_on_c, 0, 73, 96
1, 200867, Note_on_c, 0, 68, 0
1, 200867, Note_on_c, 0, 73, 0
1, 200880, Note_on_c, 0, 69, 96
1, 200880, Note_on_c, 0, 74, 96
1, 200999, Note_on_c, 0, 69, 0
1, 200999, Note_on_c, 0, 74, 0
1, 201120, Note_on_c, 0, 72, 96
1, 201239, Note_on_c, 0, 72, 0
1, 201360, Note_on_c, 0, 68, 96
1, 201360, Note_on_c, 0, 73, 96
1, 201479, Note_on_c, 0, 68, 0
1, 201479, Note_on_c, 0, 73, 0
1, 201600, Note_on_c, 0, 69, 96
1, 201600, Note_on_c, 0, 74, 96
1, 201719, Note_on_c, 0, 69, 0
1, 201719, Note_on_c, 0, 74, 0
1, 201840, Note_on_c, 0, 72, 96
1, 201959, Note_on_c, 0, 72, 0
1, 202080, Note_on_c, 0, 68, 96
1, 202080, Note_on_c, 0, 73, 96
1, 202199, Note_on_c, 0, 68, 0
1, 202199, Note_on_c, 0, 73, 0
1, 202320, Note_on_c, 0, 69, 115
1, 202320, Note_on_c, 0, 74, 115
1, 202799, Note_on_c, 0, 69, 0
1, 202799, Note_on_c, 0, 74, 0
1, 203040, Note_on_c, 0, 66, 96
1, 203040, Note_on_c, 0, 74, 96
1, 203267, Note_on_c, 0, 66, 0
1, 203267, Note_on_c, 0, 74, 0
1, 203400, Note_on_c, 0, 68, 96
1, 203400, Note_on_c, 0, 73, 96
1, 203513, Note_on_c, 0, 68, 0
1, 203513, Note_on_c, 0, 73, 0
1, 203520, Note_on_c, 0, 69, 96
1, 203520, Note_on_c, 0, 74, 96
1, 203747, Note_on_c, 0, 69, 0
1, 203747, Note_on_c, 0, 74, 0
1, 203760, Note_on_c, 0, 71, 96
1, 203760, Note_on_c, 0, 76, 96
1, 203879, Note_on_c, 0, 71, 0
1, 203879, Note_on_c, 0, 76, 0
1, 204000, Note_on_c, 0, 73, 96
1, 204119, Note_on_c, 0, 73, 0
1, 204240, Note_on_c, 0, 69, 96
1, 204240, Note_on_c, 0, 74, 96
1, 204359, Note_on_c, 0, 69, 0
1, 204359, Note_on_c, 0, 74, 0
1, 204480, Note_on_c, 0, 71, 96
1, 204480, Note_on_c, 0, 76, 96
1, 204599, Note_on_c, 0, 71, 0
1, 204599, Note_on_c, 0, 76, 0
1, 204720, Note_on_c, 0, 73, 96
1, 204839, Note_on_c, 0, 73, 0
1, 204960, Note_on_c, 0, 69, 96
1, 204960, Note_on_c, 0, 74, 96
1, 205079, Note_on_c, 0, 69, 0
1, 205079, Note_on_c, 0, 74, 0
1, 205200, Note_on_c, 0, 68, 115
1, 205200, Note_on_c, 0, 73, 115
1, 205200, Note_on_c, 0, 77, 115
1, 205679, Note_on_c, 0, 68, 0
1, 205679, Note_on_c, 0, 73, 0
1, 205679, Note_on_c, 0, 77, 0
1, 205920, Note_on_c, 0, 68, 96
1, 205920, Note_on_c, 0, 73, 96
1, 205920, Note_on_c, 0, 77, 96
1, 206147, Note_on_c, 0, 68, 0
1, 206147, Note_on_c, 0, 73, 0
1, 206147, Note_on_c, 0, 77, 0
1, 206280, Note_on_c, 0, 73, 96
1, 206280, Note_on_c, 0, 75, 96
1, 206393, Note_on_c, 0, 73, 0
1, 206393, Note_on_c, 0, 75, 0
1, 206400, Note_on_c, 0, 73, 96
1, 206400, Note_on_c, 0, 77, 96
1, 206627, Note_on_c, 0, 73, 0
1, 206627, Note_on_c, 0, 77, 0
1, 206640, Note_on_c, 0, 73, 96
1, 206640, Note_on_c, 0, 78, 96
1, 206759, Note_on_c, 0, 73, 0
1, 206759, Note_on_c, 0, 78, 0
1, 206880, Note_on_c, 0, 73, 96
1, 206880, Note_on_c, 0, 75, 96
1, 206999, Note_on_c, 0, 73, 0
1, 206999, Note_on_c, 0, 75, 0
1, 207120, Note_on_c, 0, 73, 96
1, 207120, Note_on_c, 0, 77, 96
1, 207239, Note_on_c, 0, 73, 0
1, 207239, Note_on_c, 0, 77, 0
1, 207360, Note_on_c, 0, 73, 96
1, 207360, Note_on_c, 0, 78, 96
1, 207479, Note_on_c, 0, 73, 0
1, 207479, Note_on_c, 0, 78, 0
1, 207600, Note_on_c, 0, 73, 96
1, 207600, Note_on_c, 0, 75, 96
1, 207719, Note_on_c, 0, 73, 0
1, 207719, Note_on_c, 0, 75, 0
1, 207840, Note_on_c, 0, 73, 96
1, 207840, Note_on_c, 0, 77, 96
1, 207959, Note_on_c, 0, 73, 0
1, 207959, Note_on_c, 0, 77, 0
1, 208080, Note_on_c, 0, 69, 115
1, 208080, Note_on_c, 0, 73, 115
1, 208080, Note_on_c, 0, 78, 115
1, 208799, Note_on_c, 0, 69, 0
1, 208799, Note_on_c, 0, 73, 0
1, 208799, Note_on_c, 0, 78, 0
1, 208800, Note_on_c, 0, 69, 96
1, 208800, Note_on_c, 0, 73, 96
1, 208800, Note_on_c, 0, 78, 96
1, 209027, Note_on_c, 0, 69, 0
1, 209027, Note_on_c, 0, 73, 0
1, 209027, Note_on_c, 0, 78, 0
1, 209160, Note_on_c, 0, 68, 96
1, 209160, Note_on_c, 0, 77, 96
1, 209273, Note_on_c, 0, 68, 0
1, 209273, Note_on_c, 0, 77, 0
1, 209280, Note_on_c, 0, 69, 96
1, 209280, Note_on_c, 0, 73, 96
1, 209280, Note_on_c, 0, 78, 96
1, 209507, Note_on_c, 0, 69, 0
1, 209507, Note_on_c, 0, 73, 0
1, 209507, Note_on_c, 0, 78, 0
1, 209520, Note_on_c, 0, 71, 115
1, 209520, Note_on_c, 0, 77, 115
1, 209520, Note_on_c, 0, 80, 115
1, 210239, Note_on_c, 0, 71, 0
1, 210239, Note_on_c, 0, 77, 0
1, 210239, Note_on_c, 0, 80, 0
1, 210240, Note_on_c, 0, 71, 96
1, 210240, Note_on_c, 0, 77, 96
1, 210240, Note_on_c, 0, 80, 96
1, 210467, Note_on_c, 0, 71, 0
1, 210467, Note_on_c, 0, 77, 0
1, 210467, Note_on_c, 0, 80, 0
1, 210600, Note_on_c, 0, 69, 96
1, 210600, Note_on_c, 0, 78, 96
1, 210713, Note_on_c, 0, 69, 0
1, 210713, Note_on_c, 0, 78, 0
1, 210720, Note_on_c, 0, 71, 96
1, 210720, Note_on_c, 0, 77, 96
1, 210720, Note_on_c, 0, 80, 96
1, 210947, Note_on_c, 0, 71, 0
1, 210947, Note_on_c, 0, 77, 0
1, 210947, Note_on_c, 0, 80, 0
1, 210960, Note_on_c, 0, 73, 115
1, 210960, Note_on_c, 0, 78, 115
1, 210960, Note_on_c, 0, 81, 115
1, 211679, Note_on_c, 0, 73, 0
1, 211679, Note_on_c, 0, 78, 0
1, 211679, Note_on_c, 0, 81, 0
1, 211680, Note_on_c, 0, 73, 115
1, 211680, Note_on_c, 0, 78, 115
1, 211680, Note_on_c, 0, 81, 115
1, 211919, Note_on_c, 0, 73, 0
1, 211919, Note_on_c, 0, 78, 0
1, 211919, Note_on_c, 0, 81, 0
1, 212040, Note_on_c, 0, 77, 96
1, 212040, Note_on_c, 0, 80, 96
1, 212153, Note_on_c, 0, 77, 0
1, 212153, Note_on_c, 0, 80, 0
1, 212160, Note_on_c, 0, 78, 96
1, 212160, Note_on_c, 0, 81, 96
1, 212387, Note_on_c, 0, 78, 0
1, 212387, Note_on_c, 0, 81, 0
1, 212400, Note_on_c, 0, 73, 115
1, 212400, Note_on_c, 0, 78, 115
1, 212400, Note_on_c, 0, 81, 115
1, 212639, Note_on_c, 0, 73, 0
1, 212639, Note_on_c, 0, 78, 0
1, 212639, Note_on_c, 0, 81, 0
1, 212760, Note_on_c, 0, 77, 96
1, 212760, Note_on_c, 0, 80, 96
1, 212873, Note_on_c, 0, 77, 0
1, 212873, Note_on_c, 0, 80, 0
1, 212880, Note_on_c, 0, 78, 96
1, 212880, Note_on_c, 0, 81, 96
1, 213107, Note_on_c, 0, 78, 0
1, 213107, Note_on_c, 0, 81, 0
1, 213120, Note_on_c, 0, 72, 115
1, 213120, Note_on_c, 0, 78, 115
1, 213120, Note_on_c, 0, 81, 115
1, 213359, Note_on_c, 0, 72, 0
1, 213359, Note_on_c, 0, 78, 0
1, 213359, Note_on_c, 0, 81, 0
1, 213480, Note_on_c, 0, 77, 96
1, 213480, Note_on_c, 0, 80, 96
1, 213593, Note_on_c, 0, 77, 0
1, 213593, Note_on_c, 0, 80, 0
1, 213600, Note_on_c, 0, 78, 96
1, 213600, Note_on_c, 0, 81, 96
1, 213827, Note_on_c, 0, 78, 0
1, 213827, Note_on_c, 0, 81, 0
1, 213840, Note_on_c, 0, 73, 115
1, 213840, Note_on_c, 0, 78, 115
1, 213840, Note_on_c, 0, 81, 115
1, 214079, Note_on_c, 0, 73, 0
1, 214079, Note_on_c, 0, 78, 0
1, 214079, Note_on_c, 0, 81, 0
1, 214200, Note_on_c, 0, 77, 96
1, 214200, Note_on_c, 0, 80, 96
1, 214313, Note_on_c, 0, 77, 0
1, 214313, Note_on_c, 0, 80, 0
1, 214320, Note_on_c, 0, 78, 96
1, 214320, Note_on_c, 0, 81, 96
1, 214547, Note_on_c, 0, 78, 0
1, 214547, Note_on_c, 0, 81, 0
1, 214560, Note_on_c, 0, 75, 115
1, 214560, Note_on_c, 0, 78, 115
1, 214560, Note_on_c, 0, 81, 115
1, 214799, Note_on_c, 0, 75, 0
1, 214799, Note_on_c, 0, 78, 0
1, 214799, Note_on_c, 0, 81, 0
1, 214920, Note_on_c, 0, 77, 96
1, 214920, Note_on_c, 0, 80, 96
1, 215033, Note_on_c, 0, 77, 0
1, 215033, Note_on_c, 0, 80, 0
1, 215040, Note_on_c, 0, 78, 96
1, 215040, Note_on_c, 0, 81, 96
1, 215267, Note_on_c, 0, 78, 0
1, 215267, Note_on_c, 0, 81, 0
1, 216000, Note_on_c, 0, 54, 115
1, 216000, Note_on_c, 0, 57, 115
1, 216239, Note_on_c, 0, 54, 0
1, 216239, Note_on_c, 0, 57, 0
1, 216360, Note_on_c, 0, 53, 96
1, 216360, Note_on_c, 0, 56, 96
1, 216473, Note_on_c, 0, 53, 0
1, 216473, Note_on_c, 0, 56, 0
1, 216480, Note_on_c, 0, 54, 96
1, 216480, Note_on_c, 0, 57, 96
1, 216707, Note_on_c, 0, 54, 0
1, 216707, Note_on_c, 0, 57, 0
1, 217200, Note_on_c, 0, 69, 96
1, 217427, Note_on_c, 0, 69, 0
1, 217440, Note_on_c, 0, 69, 115
1, 217679, Note_on_c, 0, 69, 0
1, 217680, Note_on_c, 0, 56, 96
1, 217680, Note_on_c, 0, 63, 96
1, 217907, Note_on_c, 0, 56, 0
1, 217907, Note_on_c, 0, 63, 0
1, 217920, Note_on_c, 0, 68, 96
1, 218147, Note_on_c, 0, 68, 0
1, 218160, Note_on_c, 0, 68, 96
1, 218387, Note_on_c, 0, 68, 0
1, 218400, Note_on_c, 0, 56, 96
1, 218627, Note_on_c, 0, 56, 0
1, 218640, Note_on_c, 0, 66, 96
1, 218867, Note_on_c, 0, 66, 0
1, 218880, Note_on_c, 0, 66, 96
1, 219107, Note_on_c, 0, 66, 0
1, 219120, Note_on_c, 0, 56, 96
1, 219120, Note_on_c, 0, 61, 96
1, 219347, Note_on_c, 0, 56, 0
1, 219347, Note_on_c, 0, 61, 0
1, 219360, Note_on_c, 0, 64, 96
1, 219587, Note_on_c, 0, 64, 0
1, 219600, Note_on_c, 0, 64, 96
1, 219827, Note_on_c, 0, 64, 0
1, 219840, Note_on_c, 0, 56, 96
1, 219840, Note_on_c, 0, 61, 96
1, 220067, Note_on_c, 0, 56, 0
1, 220067, Note_on_c, 0, 61, 0
1, 220080, Note_on_c, 0, 73, 96
1, 220307, Note_on_c, 0, 73, 0
1, 220320, Note_on_c, 0, 73, 115
1, 220559, Note_on_c, 0, 73, 0
1, 220560, Note_on_c, 0, 59, 96
1, 220560, Note_on_c, 0, 66, 96
1, 220787, Note_on_c, 0, 59, 0
1, 220787, Note_on_c, 0, 66, 0
1, 220800, Note_on_c, 0, 71, 96
1, 221027, Note_on_c, 0, 71, 0
1, 221040, Note_on_c, 0, 71, 96
1, 221267, Note_on_c, 0, 71, 0
1, 221280, Note_on_c, 0, 59, 96
1, 221280, Note_on_c, 0, 66, 96
1, 221507, Note_on_c, 0, 59, 0
1, 221507, Note_on_c, 0, 66, 0
1, 221520, Note_on_c, 0, 69, 96
1, 221747, Note_on_c, 0, 69, 0
1, 221760, Note_on_c, 0, 69, 96
1, 221987, Note_on_c, 0, 69, 0
1, 222000, Note_on_c, 0, 59, 96
1, 222000, Note_on_c, 0, 64, 96
1, 222227, Note_on_c, 0, 59, 0
1, 222227, Note_on_c, 0, 64, 0
1, 222240, Note_on_c, 0, 68, 96
1, 222467, Note_on_c, 0, 68, 0
1, 222480, Note_on_c, 0, 68, 96
1, 222707, Note_on_c, 0, 68, 0
1, 222720, Note_on_c, 0, 59, 96
1, 222720, Note_on_c, 0, 64, 96
1, 222947, Note_on_c, 0, 59, 0
1, 222947, Note_on_c, 0, 64, 0
1, 222960, Note_on_c, 0, 76, 96
1, 223187, Note_on_c, 0, 76, 0
1, 223200, Note_on_c, 0, 76, 115
1, 223439, Note_on_c, 0, 76, 0
1, 223440, Note_on_c, 0, 63, 96
1, 223440, Note_on_c, 0, 70, 96
1, 223667, Note_on_c, 0, 63, 0
1, 223667, Note_on_c, 0, 70, 0
1, 223680, Note_on_c, 0, 75, 96
1, 223907, Note_on_c, 0, 75, 0
1, 223920, Note_on_c, 0, 75, 96
1, 224147, Note_on_c, 0, 75, 0
1, 224160, Note_on_c, 0, 63, 96
1, 224160, Note_on_c, 0, 70, 96
1, 224387, Note_on_c, 0, 63, 0
1, 224387, Note_on_c, 0, 70, 0
1, 224400, Note_on_c, 0, 73, 96
1, 224627, Note_on_c, 0, 73, 0
1, 224640, Note_on_c, 0, 73, 96
1, 224867, Note_on_c, 0, 73, 0
1, 224880, Note_on_c, 0, 63, 96
1, 224880, Note_on_c, 0, 66, 96
1, 225107, Note_on_c, 0, 63, 0
1, 225107, Note_on_c, 0, 66, 0
1, 225120, Note_on_c, 0, 72, 96
1, 225347, Note_on_c, 0, 72, 0
1, 225360, Note_on_c, 0, 72, 96
1, 225587, Note_on_c, 0, 72, 0
1, 225600, Note_on_c, 0, 61, 96
1, 225600, Note_on_c, 0, 64, 96
1, 225827, Note_on_c, 0, 61, 0
1, 225827, Note_on_c, 0, 64, 0
1, 225840, Note_on_c, 0, 73, 96
1, 226067, Note_on_c, 0, 73, 0
1, 226080, Note_on_c, 0, 73, 96
1, 226307, Note_on_c, 0, 73, 0
1, 226320, Note_on_c, 0, 61, 96
1, 226320, Note_on_c, 0, 63, 96
1, 226547, Note_on_c, 0, 61, 0
1, 226547, Note_on_c, 0, 63, 0
1, 226560, Note_on_c, 0, 69, 95
1, 226787, Note_on_c, 0, 69, 0
1, 226800, Note_on_c, 0, 69, 94
1, 227027, Note_on_c, 0, 69, 0
1, 227040, Note_on_c, 0, 60, 94
1, 227040, Note_on_c, 0, 63, 94
1, 227267, Note_on_c, 0, 60, 0
1, 227267, Note_on_c, 0, 63, 0
1, 227280, Note_on_c, 0, 68, 93
1, 227507, Note_on_c, 0, 68, 0
1, 227520, Note_on_c, 0, 68, 92
1, 227747, Note_on_c, 0, 68, 0
1, 227760, Note_on_c, 0, 56, 92
1, 227760, Note_on_c, 0, 61, 92
1, 227987, Note_on_c, 0, 56, 0
1, 227987, Note_on_c, 0, 61, 0
1, 228000, Note_on_c, 0, 64, 91
1, 228227, Note_on_c, 0, 64, 0
1, 228240, Note_on_c, 0, 64, 90
1, 228467, Note_on_c, 0, 64, 0
1, 228480, Note_on_c, 0, 56, 89
1, 228480, Note_on_c, 0, 61, 89
1, 228707, Note_on_c, 0, 56, 0
1, 228707, Note_on_c, 0, 61, 0
1, 228720, Note_on_c, 0, 69, 89
1, 228947, Note_on_c, 0, 69, 0
1, 228960, Note_on_c, 0, 69, 105
1, 229199, Note_on_c, 0, 69, 0
1, 229200, Note_on_c, 0, 56, 87
1, 229200, Note_on_c, 0, 63, 87
1, 229427, Note_on_c, 0, 56, 0
1, 229427, Note_on_c, 0, 63, 0
1, 229440, Note_on_c, 0, 68, 87
1, 229667, Note_on_c, 0, 68, 0
1, 229680, Note_on_c, 0, 68, 86
1, 229907, Note_on_c, 0, 68, 0
1, 229920, Note_on_c, 0, 56, 85
1, 229920, Note_on_c, 0, 63, 85
1, 230147, Note_on_c, 0, 56, 0
1, 230147, Note_on_c, 0, 63, 0
1, 230160, Note_on_c, 0, 66, 84
1, 230387, Note_on_c, 0, 66, 0
1, 230400, Note_on_c, 0, 66, 84
1, 230627, Note_on_c, 0, 66, 0
1, 230640, Note_on_c, 0, 56, 83
1, 230640, Note_on_c, 0, 61, 83
1, 230867, Note_on_c, 0, 56, 0
1, 230867, Note_on_c, 0, 61, 0
1, 230880, Note_on_c, 0, 64, 82
1, 231107, Note_on_c, 0, 64, 0
1, 231120, Note_on_c, 0, 64, 82
1, 231347, Note_on_c, 0, 64, 0
1, 231360, Note_on_c, 0, 68, 81
1, 231587, Note_on_c, 0, 68, 0
1, 231600, Note_on_c, 0, 73, 80
1, 231827, Note_on_c, 0, 73, 0
1, 231840, Note_on_c, 0, 73, 94
1, 232079, Note_on_c, 0, 73, 0
1, 232080, Note_on_c, 0, 59, 79
1, 232080, Note_on_c, 0, 66, 79
1, 232307, Note_on_c, 0, 59, 0
1, 232307, Note_on_c, 0, 66, 0
1, 232320, Note_on_c, 0, 71, 78
1, 232547, Note_on_c, 0, 71, 0
1, 232560, Note_on_c, 0, 71, 77
1, 232787, Note_on_c, 0, 71, 0
1, 232800, Note_on_c, 0, 59, 77
1, 232800, Note_on_c, 0, 66, 77
1, 233027, Note_on_c, 0, 59, 0
1, 233027, Note_on_c, 0, 66, 0
1, 233040, Note_on_c, 0, 69, 76
1, 233267, Note_on_c, 0, 69, 0
1, 233280, Note_on_c, 0, 69, 75
1, 233507, Note_on_c, 0, 69, 0
1, 233520, Note_on_c, 0, 59, 74
1, 233520, Note_on_c, 0, 64, 74
1, 233747, Note_on_c, 0, 59, 0
1, 233747, Note_on_c, 0, 64, 0
1, 233760, Note_on_c, 0, 68, 74
1, 233987, Note_on_c, 0, 68, 0
1, 234000, Note_on_c, 0, 68, 73
1, 234227, Note_on_c, 0, 68, 0
1, 234240, Note_on_c, 0, 71, 72
1, 234467, Note_on_c, 0, 71, 0
1, 234480, Note_on_c, 0, 74, 72
1, 234707, Note_on_c, 0, 74, 0
1, 234720, Note_on_c, 0, 74, 85
1, 234959, Note_on_c, 0, 74, 0
1, 234960, Note_on_c, 0, 61, 70
1, 234960, Note_on_c, 0, 68, 70
1, 235187, Note_on_c, 0, 61, 0
1, 235187, Note_on_c, 0, 68, 0
1, 235200, Note_on_c, 0, 73, 69
1, 235427, Note_on_c, 0, 73, 0
1, 235440, Note_on_c, 0, 73, 69
1, 235667, Note_on_c, 0, 73, 0
1, 235680, Note_on_c, 0, 61, 68
1, 235680, Note_on_c, 0, 68, 68
1, 235907, Note_on_c, 0, 61, 0
1, 235907, Note_on_c, 0, 68, 0
1, 235920, Note_on_c, 0, 71, 67
1, 236147, Note_on_c, 0, 71, 0
1, 236160, Note_on_c, 0, 71, 80
1, 236399, Note_on_c, 0, 71, 0
1, 236400, Note_on_c, 0, 61, 66
1, 236400, Note_on_c, 0, 66, 66
1, 236627, Note_on_c, 0, 61, 0
1, 236627, Note_on_c, 0, 66, 0
1, 236640, Note_on_c, 0, 69, 65
1, 236867, Note_on_c, 0, 69, 0
1, 236880, Note_on_c, 0, 69, 64
1, 237107, Note_on_c, 0, 69, 0
1, 237120, Note_on_c, 0, 61, 65
1, 237120, Note_on_c, 0, 66, 65
1, 237347, Note_on_c, 0, 61, 0
1, 237347, Note_on_c, 0, 66, 0
1, 237360, Note_on_c, 0, 73, 67
1, 237587, Note_on_c, 0, 73, 0
1, 237600, Note_on_c, 0, 71, 81
1, 237839, Note_on_c, 0, 71, 0
1, 237840, Note_on_c, 0, 61, 70
1, 237840, Note_on_c, 0, 66, 70
1, 238067, Note_on_c, 0, 61, 0
1, 238067, Note_on_c, 0, 66, 0
1, 238080, Note_on_c, 0, 69, 71
1, 238307, Note_on_c, 0, 69, 0
1, 238320, Note_on_c, 0, 69, 73
1, 238547, Note_on_c, 0, 69, 0
1, 238560, Note_on_c, 0, 61, 74
1, 238560, Note_on_c, 0, 66, 74
1, 238787, Note_on_c, 0, 61, 0
1, 238787, Note_on_c, 0, 66, 0
1, 238800, Note_on_c, 0, 75, 76
1, 239027, Note_on_c, 0, 75, 0
1, 239040, Note_on_c, 0, 73, 92
1, 239279, Note_on_c, 0, 73, 0
1, 239280, Note_on_c, 0, 63, 79
1, 239280, Note_on_c, 0, 66, 79
1, 239507, Note_on_c, 0, 63, 0
1, 239507, Note_on_c, 0, 66, 0
1, 239520, Note_on_c, 0, 72, 80
1, 239747, Note_on_c, 0, 72, 0
1, 239760, Note_on_c, 0, 72, 82
1, 239987, Note_on_c, 0, 72, 0
1, 240000, Note_on_c, 0, 63, 83
1, 240000, Note_on_c, 0, 66, 83
1, 240227, Note_on_c, 0, 63, 0
1, 240227, Note_on_c, 0, 66, 0
1, 240240, Note_on_c, 0, 75, 85
1, 240467, Note_on_c, 0, 75, 0
1, 240480, Note_on_c, 0, 73, 86
1, 240707, Note_on_c, 0, 73, 0
1, 240720, Note_on_c, 0, 63, 88
1, 240720, Note_on_c, 0, 66, 88
1, 240947, Note_on_c, 0, 63, 0
1, 240947, Note_on_c, 0, 66, 0
1, 240960, Note_on_c, 0, 72, 89
1, 241187, Note_on_c, 0, 72, 0
1, 241200, Note_on_c, 0, 72, 91
1, 241427, Note_on_c, 0, 72, 0
1, 241440, Note_on_c, 0, 63, 92
1, 241440, Note_on_c, 0, 66, 92
1, 241667, Note_on_c, 0, 63, 0
1, 241667, Note_on_c, 0, 66, 0
1, 241680, Note_on_c, 0, 68, 94
1, 241907, Note_on_c, 0, 68, 0
1, 241920, Note_on_c, 0, 73, 96
1, 242159, Note_on_c, 0, 73, 0
1, 242160, Note_on_c, 0, 68, 96
1, 242387, Note_on_c, 0, 68, 0
1, 242400, Note_on_c, 0, 75, 96
1, 242519, Note_on_c, 0, 75, 0
1, 242640, Note_on_c, 0, 72, 96
1, 242759, Note_on_c, 0, 72, 0
1, 242880, Note_on_c, 0, 76, 96
1, 242999, Note_on_c, 0, 76, 0
1, 243120, Note_on_c, 0, 73, 96
1, 243239, Note_on_c, 0, 73, 0
1, 243360, Note_on_c, 0, 69, 115
1, 243360, Note_on_c, 0, 81, 115
1, 244079, Note_on_c, 0, 69, 0
1, 244079, Note_on_c, 0, 81, 0
1, 244080, Note_on_c, 0, 68, 96
1, 244080, Note_on_c, 0, 80, 96
1, 244307, Note_on_c, 0, 68, 0
1, 244307, Note_on_c, 0, 80, 0
1, 244560, Note_on_c, 0, 68, 96
1, 244787, Note_on_c, 0, 68, 0
1, 244800, Note_on_c, 0, 73, 96
1, 245039, Note_on_c, 0, 73, 0
1, 245040, Note_on_c, 0, 68, 96
1, 245267, Note_on_c, 0, 68, 0
1, 245280, Note_on_c, 0, 75, 96
1, 245399, Note_on_c, 0, 75, 0
1, 245520, Note_on_c, 0, 72, 96
1, 245639, Note_on_c, 0, 72, 0
1, 245760, Note_on_c, 0, 76, 96
1, 245879, Note_on_c, 0, 76, 0
1, 246000, Note_on_c, 0, 73, 96
1, 246119, Note_on_c, 0, 73, 0
1, 246240, Note_on_c, 0, 69, 115
1, 246240, Note_on_c, 0, 81, 115
1, 246959, Note_on_c, 0, 69, 0
1, 246959, Note_on_c, 0, 81, 0
1, 246960, Note_on_c, 0, 68, 96
1, 246960, Note_on_c, 0, 80, 96
1, 247187, Note_on_c, 0, 68, 0
1, 247187, Note_on_c, 0, 80, 0
1, 247440, Note_on_c, 0, 68, 96
1, 247667, Note_on_c, 0, 68, 0
1, 247680, Note_on_c, 0, 73, 96
1, 247919, Note_on_c, 0, 73, 0
1, 247920, Note_on_c, 0, 68, 96
1, 248147, Note_on_c, 0, 68, 0
1, 248160, Note_on_c, 0, 75, 96
1, 248279, Note_on_c, 0, 75, 0
1, 248400, Note_on_c, 0, 72, 96
1, 248519, Note_on_c, 0, 72, 0
1, 248640, Note_on_c, 0, 76, 96
1, 248759, Note_on_c, 0, 76, 0
1, 248880, Note_on_c, 0, 73, 96
1, 248999, Note_on_c, 0, 73, 0
1, 249120, Note_on_c, 0, 78, 96
1, 249359, Note_on_c, 0, 78, 0
1, 249360, Note_on_c, 0, 73, 96
1, 249587, Note_on_c, 0, 73, 0
1, 249600, Note_on_c, 0, 80, 96
1, 249719, Note_on_c, 0, 80, 0
1, 249840, Note_on_c, 0, 77, 96
1, 249959, Note_on_c, 0, 77, 0
1, 250080, Note_on_c, 0, 81, 97
1, 250199, Note_on_c, 0, 81, 0
1, 250320, Note_on_c, 0, 78, 98
1, 250439, Note_on_c, 0, 78, 0
1, 250560, Note_on_c, 0, 68, 99
1, 250560, Note_on_c, 0, 80, 99
1, 250799, Note_on_c, 0, 68, 0
1, 250799, Note_on_c, 0, 80, 0
1, 250800, Note_on_c, 0, 75, 100
1, 251027, Note_on_c, 0, 75, 0
1, 251040, Note_on_c, 0, 70, 101
1, 251040, Note_on_c, 0, 82, 101
1, 251159, Note_on_c, 0, 70, 0
1, 251159, Note_on_c, 0, 82, 0
1, 251280, Note_on_c, 0, 67, 102
1, 251280, Note_on_c, 0, 79, 102
1, 251399, Note_on_c, 0, 67, 0
1, 251399, Note_on_c, 0, 79, 0
1, 251520, Note_on_c, 0, 72, 103
1, 251520, Note_on_c, 0, 84, 103
1, 251639, Note_on_c, 0, 72, 0
1, 251639, Note_on_c, 0, 84, 0
1, 251760, Note_on_c, 0, 68, 104
1, 251760, Note_on_c, 0, 80, 104
1, 251879, Note_on_c, 0, 68, 0
1, 251879, Note_on_c, 0, 80, 0
1, 252000, Note_on_c, 0, 73, 105
1, 252000, Note_on_c, 0, 85, 105
1, 252239, Note_on_c, 0, 73, 0
1, 252239, Note_on_c, 0, 85, 0
1, 252240, Note_on_c, 0, 80, 106
1, 252467, Note_on_c, 0, 80, 0
1, 252480, Note_on_c, 0, 75, 107
1, 252480, Note_on_c, 0, 87, 107
1, 252599, Note_on_c, 0, 75, 0
1, 252599, Note_on_c, 0, 87, 0
1, 252720, Note_on_c, 0, 72, 108
1, 252720, Note_on_c, 0, 84, 108
1, 252839, Note_on_c, 0, 72, 0
1, 252839, Note_on_c, 0, 84, 0
1, 252960, Note_on_c, 0, 76, 109
1, 252960, Note_on_c, 0, 88, 109
1, 253079, Note_on_c, 0, 76, 0
1, 253079, Note_on_c, 0, 88, 0
1, 253200, Note_on_c, 0, 73, 110
1, 253200, Note_on_c, 0, 85, 110
1, 253319, Note_on_c, 0, 73, 0
1, 253319, Note_on_c, 0, 85, 0
1, 253440, Note_on_c, 0, 81, 112
1, 253440, Note_on_c, 0, 93, 112
1, 253559, Note_on_c, 0, 81, 0
1, 253559, Note_on_c, 0, 93, 0
1, 253680, Note_on_c, 0, 78, 112
1, 253680, Note_on_c, 0, 90, 112
1, 253799, Note_on_c, 0, 78, 0
1, 253799, Note_on_c, 0, 90, 0
1, 253920, Note_on_c, 0, 75, 112
1, 253920, Note_on_c, 0, 87, 112
1, 254039, Note_on_c, 0, 75, 0
1, 254039, Note_on_c, 0, 87, 0
1, 254160, Note_on_c, 0, 72, 112
1, 254160, Note_on_c, 0, 84, 112
1, 254279, Note_on_c, 0, 72, 0
1, 254279, Note_on_c, 0, 84, 0
1, 254400, Note_on_c, 0, 76, 112
1, 254400, Note_on_c, 0, 88, 112
1, 254519, Note_on_c, 0, 76, 0
1, 254519, Note_on_c, 0, 88, 0
1, 254640, Note_on_c, 0, 73, 112
1, 254640, Note_on_c, 0, 85, 112
1, 254759, Note_on_c, 0, 73, 0
1, 254759, Note_on_c, 0, 85, 0
1, 254880, Note_on_c, 0, 70, 112
1, 254880, Note_on_c, 0, 82, 112
1, 254999, Note_on_c, 0, 70, 0
1, 254999, Note_on_c, 0, 82, 0
1, 255120, Note_on_c, 0, 67, 112
1, 255120, Note_on_c, 0, 79, 112
1, 255239, Note_on_c, 0, 67, 0
1, 255239, Note_on_c, 0, 79, 0
1, 255360, Note_on_c, 0, 64, 112
1, 255360, Note_on_c, 0, 76, 112
1, 255479, Note_on_c, 0, 64, 0
1, 255479, Note_on_c, 0, 76, 0
1, 255600, Note_on_c, 0, 61, 112
1, 255600, Note_on_c, 0, 73, 112
1, 255719, Note_on_c, 0, 61, 0
1, 255719, Note_on_c, 0, 73, 0
1, 255840, Note_on_c, 0, 58, 112
1, 255840, Note_on_c, 0, 70, 112
1, 255959, Note_on_c, 0, 58, 0
1, 255959, Note_on_c, 0, 70, 0
1, 256080, Note_on_c, 0, 55, 112
1, 256080, Note_on_c, 0, 67, 112
1, 256199, Note_on_c, 0, 55, 0
1, 256199, Note_on_c, 0, 67, 0
1, 256320, Note_on_c, 0, 56, 112
1, 256320, Note_on_c, 0, 61, 112
1, 256320, Note_on_c, 0, 64, 112
1, 256320, Note_on_c, 0, 68, 112
1, 256800, Note_on_c, 0, 56, 0
1, 257039, Note_on_c, 0, 61, 0
1, 257039, Note_on_c, 0, 64, 0
1, 257039, Note_on_c, 0, 68, 0
1, 257040, Note_on_c, 0, 64, 112
1, 257040, Note_on_c, 0, 68, 112
1, 257040, Note_on_c, 0, 73, 112
1, 257519, Note_on_c, 0, 64, 0
1, 257519, Note_on_c, 0, 68, 0
1, 257519, Note_on_c, 0, 73, 0
1, 257520, Note_on_c, 0, 63, 112
1, 257520, Note_on_c, 0, 66, 112
1, 257520, Note_on_c, 0, 72, 112
1, 257747, Note_on_c, 0, 63, 0
1, 257747, Note_on_c, 0, 66, 0
1, 257747, Note_on_c, 0, 72, 0
1, 257760, Note_on_c, 0, 63, 112
1, 257760, Note_on_c, 0, 66, 112
1, 257760, Note_on_c, 0, 72, 112
1, 258479, Note_on_c, 0, 63, 0
1, 258479, Note_on_c, 0, 66, 0
1, 258479, Note_on_c, 0, 72, 0
1, 258480, Note_on_c, 0, 66, 117
1, 258480, Note_on_c, 0, 72, 117
1, 258480, Note_on_c, 0, 75, 117
1, 258959, Note_on_c, 0, 66, 0
1, 258959, Note_on_c, 0, 72, 0
1, 258959, Note_on_c, 0, 75, 0
1, 258960, Note_on_c, 0, 64, 120
1, 258960, Note_on_c, 0, 68, 120
1, 258960, Note_on_c, 0, 73, 120
1, 259187, Note_on_c, 0, 64, 0
1, 259187, Note_on_c, 0, 68, 0
1, 259187, Note_on_c, 0, 73, 0
1, 259200, Note_on_c, 0, 64, 122
1, 259200, Note_on_c, 0, 68, 122
1, 259200, Note_on_c, 0, 73, 122
1, 259919, Note_on_c, 0, 64, 0
1, 259919, Note_on_c, 0, 68, 0
1, 259919, Note_on_c, 0, 73, 0
1, 259920, Note_on_c, 0, 73, 127
1, 259920, Note_on_c, 0, 76, 127
1, 259920, Note_on_c, 0, 81, 127
1, 260399, Note_on_c, 0, 73, 0
1, 260399, Note_on_c, 0, 76, 0
1, 260399, Note_on_c, 0, 81, 0
1, 260400, Note_on_c, 0, 72, 110
1, 260400, Note_on_c, 0, 75, 110
1, 260400, Note_on_c, 0, 80, 110
1, 260627, Note_on_c, 0, 72, 0
1, 260627, Note_on_c, 0, 75, 0
1, 260627, Note_on_c, 0, 80, 0
1, 260640, Note_on_c, 0, 80, 101
1, 260640, Note_on_c, 0, 72, 101
1, 260640, Note_on_c, 0, 75, 101
1, 261323, Note_on_c, 0, 80, 0
1, 261360, Note_on_c, 0, 80, 75
1, 261719, Note_on_c, 0, 80, 0
1, 262007, Note_on_c, 0, 72, 0
1, 262007, Note_on_c, 0, 75, 0
1, 262080, Note_on_c, 0, 80, 49
1, 262080, Note_on_c, 0, 71, 49
1, 262080, Note_on_c, 0, 74, 49
1, 262439, Note_on_c, 0, 80, 0
1, 262800, Note_on_c, 0, 80, 49
1, 263159, Note_on_c, 0, 80, 0
1, 263519, Note_on_c, 0, 71, 0
1, 263519, Note_on_c, 0, 74, 0
1, 263520, Note_on_c, 0, 80, 49
1, 263520, Note_on_c, 0, 69, 49
1, 263520, Note_on_c, 0, 73, 49
1, 263999, Note_on_c, 0, 80, 0
1, 264000, Note_on_c, 0, 78, 49
1, 264239, Note_on_c, 0, 78, 0
1, 264240, Note_on_c, 0, 76, 49
1, 264719, Note_on_c, 0, 76, 0
1, 264720, Note_on_c, 0, 75, 49
1, 264947, Note_on_c, 0, 75, 0
1, 264959, Note_on_c, 0, 69, 0
1, 264959, Note_on_c, 0, 73, 0
1, 264960, Note_on_c, 0, 66, 49
1, 264960, Note_on_c, 0, 72, 49
1, 264960, Note_on_c, 0, 75, 49
1, 265439, Note_on_c, 0, 75, 0
1, 265440, Note_on_c, 0, 76, 49
1, 265519, Note_on_c, 0, 76, 0
1, 265520, Note_on_c, 0, 75, 49
1, 265599, Note_on_c, 0, 75, 0
1, 265600, Note_on_c, 0, 73, 49
1, 265679, Note_on_c, 0, 73, 0
1, 265680, Note_on_c, 0, 75, 49
1, 266159, Note_on_c, 0, 75, 0
1, 266160, Note_on_c, 0, 76, 49
1, 266387, Note_on_c, 0, 76, 0
1, 266399, Note_on_c, 0, 66, 0
1, 266399, Note_on_c, 0, 72, 0
1, 266400, Note_on_c, 0, 64, 49
1, 266400, Note_on_c, 0, 73, 49
1, 267767, Note_on_c, 0, 64, 0
1, 267767, Note_on_c, 0, 73, 0
1, 267840, Note_on_c, 0, 61, 49
1, 267840, Note_on_c, 0, 64, 49
1, 267840, Note_on_c, 0, 68, 49
1, 268559, Note_on_c, 0, 61, 0
1, 268559, Note_on_c, 0, 64, 0
1, 268559, Note_on_c, 0, 68, 0
1, 268560, Note_on_c, 0, 64, 49
1, 268560, Note_on_c, 0, 68, 49
1, 268560, Note_on_c, 0, 73, 49
1, 269039, Note_on_c, 0, 64, 0
1, 269039, Note_on_c, 0, 68, 0
1, 269039, Note_on_c, 0, 73, 0
1, 269040, Note_on_c, 0, 63, 52
1, 269040, Note_on_c, 0, 66, 52
1, 269040, Note_on_c, 0, 72, 52
1, 269267, Note_on_c, 0, 63, 0
1, 269267, Note_on_c, 0, 66, 0
1, 269267, Note_on_c, 0, 72, 0
1, 269280, Note_on_c, 0, 63, 54
1, 269280, Note_on_c, 0, 66, 54
1, 269280, Note_on_c, 0, 72, 54
1, 269999, Note_on_c, 0, 63, 0
1, 269999, Note_on_c, 0, 66, 0
1, 269999, Note_on_c, 0, 72, 0
1, 270000, Note_on_c, 0, 66, 59
1, 270000, Note_on_c, 0, 72, 59
1, 270000, Note_on_c, 0, 75, 59
1, 270479, Note_on_c, 0, 66, 0
1, 270479, Note_on_c, 0, 72, 0
1, 270479, Note_on_c, 0, 75, 0
1, 270480, Note_on_c, 0, 64, 62
1, 270480, Note_on_c, 0, 68, 62
1, 270480, Note_on_c, 0, 73, 62
1, 270707, Note_on_c, 0, 64, 0
1, 270707, Note_on_c, 0, 68, 0
1, 270707, Note_on_c, 0, 73, 0
1, 270720, Note_on_c, 0, 64, 64
1, 270720, Note_on_c, 0, 68, 64
1, 270720, Note_on_c, 0, 73, 64
1, 271439, Note_on_c, 0, 64, 0
1, 271439, Note_on_c, 0, 68, 0
1, 271439, Note_on_c, 0, 73, 0
1, 271440, Note_on_c, 0, 73, 76
1, 271440, Note_on_c, 0, 76, 76
1, 271440, Note_on_c, 0, 81, 76
1, 271919, Note_on_c, 0, 73, 0
1, 271919, Note_on_c, 0, 76, 0
1, 271919, Note_on_c, 0, 81, 0
1, 271920, Note_on_c, 0, 72, 64
1, 271920, Note_on_c, 0, 75, 64
1, 271920, Note_on_c, 0, 80, 64
1, 272147, Note_on_c, 0, 72, 0
1, 272147, Note_on_c, 0, 75, 0
1, 272147, Note_on_c, 0, 80, 0
1, 272160, Note_on_c, 0, 80, 64
1, 272160, Note_on_c, 0, 72, 64
1, 272160, Note_on_c, 0, 75, 64
1, 272843, Note_on_c, 0, 80, 0
1, 272880, Note_on_c, 0, 80, 57
1, 273239, Note_on_c, 0, 80, 0
1, 273527, Note_on_c, 0, 72, 0
1, 273527, Note_on_c, 0, 75, 0
1, 273600, Note_on_c, 0, 80, 49
1, 273600, Note_on_c, 0, 71, 49
1, 273600, Note_on_c, 0, 74, 49
1, 273959, Note_on_c, 0, 80, 0
1, 274320, Note_on_c, 0, 80, 49
1, 274679, Note_on_c, 0, 80, 0
1, 275039, Note_on_c, 0, 71, 0
1, 275039, Note_on_c, 0, 74, 0
1, 275040, Note_on_c, 0, 80, 49
1, 275040, Note_on_c, 0, 69, 49
1, 275040, Note_on_c, 0, 73, 49
1, 275519, Note_on_c, 0, 80, 0
1, 275520, Note_on_c, 0, 78, 49
1, 275759, Note_on_c, 0, 78, 0
1, 275760, Note_on_c, 0, 76, 49
1, 276239, Note_on_c, 0, 76, 0
1, 276240, Note_on_c, 0, 75, 48
1, 276467, Note_on_c, 0, 75, 0
1, 276480, Note_on_c, 0, 75, 48
1, 276935, Note_on_c, 0, 69, 0
1, 276935, Note_on_c, 0, 73, 0
1, 276960, Note_on_c, 0, 69, 47
1, 276960, Note_on_c, 0, 73, 47
1, 277163, Note_on_c, 0, 75, 0
1, 277187, Note_on_c, 0, 69, 0
1, 277187, Note_on_c, 0, 73, 0
1, 277200, Note_on_c, 0, 75, 46
1, 277200, Note_on_c, 0, 68, 46
1, 277200, Note_on_c, 0, 71, 46
1, 277655, Note_on_c, 0, 68, 0
1, 277655, Note_on_c, 0, 71, 0
1, 277680, Note_on_c, 0, 66, 45
1, 277680, Note_on_c, 0, 69, 45
1, 277883, Note_on_c, 0, 75, 0
1, 277907, Note_on_c, 0, 66, 0
1, 277907, Note_on_c, 0, 69, 0
1, 277920, Note_on_c, 0, 78, 44
1, 277920, Note_on_c, 0, 68, 44
1, 278399, Note_on_c, 0, 78, 0
1, 278400, Note_on_c, 0, 76, 43
1, 278639, Note_on_c, 0, 68, 0
1, 278639, Note_on_c, 0, 76, 0
1, 278640, Note_on_c, 0, 74, 42
1, 278640, Note_on_c, 0, 67, 42
1, 279119, Note_on_c, 0, 74, 0
1, 279120, Note_on_c, 0, 73, 41
1, 279347, Note_on_c, 0, 73, 0
1, 279360, Note_on_c, 0, 73, 41
1, 279815, Note_on_c, 0, 67, 0
1, 279840, Note_on_c, 0, 71, 39
1, 280043, Note_on_c, 0, 73, 0
1, 280067, Note_on_c, 0, 71, 0
1, 280080, Note_on_c, 0, 73, 39
1, 280080, Note_on_c, 0, 69, 39
1, 280535, Note_on_c, 0, 69, 0
1, 280560, Note_on_c, 0, 67, 38
1, 280763, Note_on_c, 0, 73, 0
1, 280787, Note_on_c, 0, 67, 0
1, 280800, Note_on_c, 0, 76, 37
1, 280800, Note_on_c, 0, 66, 37
1, 281279, Note_on_c, 0, 76, 0
1, 281280, Note_on_c, 0, 74, 36
1, 281519, Note_on_c, 0, 74, 0
1, 281520, Note_on_c, 0, 73, 35
1, 281999, Note_on_c, 0, 73, 0
1, 282000, Note_on_c, 0, 74, 34
1, 282227, Note_on_c, 0, 74, 0
1, 282239, Note_on_c, 0, 66, 0
1, 282240, Note_on_c, 0, 74, 33
1, 282240, Note_on_c, 0, 62, 33
1, 282240, Note_on_c, 0, 66, 33
1, 282923, Note_on_c, 0, 62, 0
1, 282923, Note_on_c, 0, 66, 0
1, 282960, Note_on_c, 0, 67, 33
1, 282960, Note_on_c, 0, 71, 33
1, 283415, Note_on_c, 0, 67, 0
1, 283415, Note_on_c, 0, 71, 0
1, 283440, Note_on_c, 0, 66, 33
1, 283440, Note_on_c, 0, 69, 33
1, 283667, Note_on_c, 0, 66, 0
1, 283667, Note_on_c, 0, 69, 0
1, 283680, Note_on_c, 0, 66, 33
1, 283680, Note_on_c, 0, 69, 33
1, 284327, Note_on_c, 0, 74, 0
1, 284399, Note_on_c, 0, 66, 0
1, 284399, Note_on_c, 0, 69, 0
1, 284400, Note_on_c, 0, 71, 33
1, 284400, Note_on_c, 0, 74, 33
1, 284879, Note_on_c, 0, 71, 0
1, 284879, Note_on_c, 0, 74, 0
1, 284880, Note_on_c, 0, 69, 33
1, 284880, Note_on_c, 0, 72, 33
1, 285107, Note_on_c, 0, 69, 0
1, 285107, Note_on_c, 0, 72, 0
1, 285120, Note_on_c, 0, 74, 33
1, 285120, Note_on_c, 0, 69, 33
1, 285120, Note_on_c, 0, 72, 33
1, 285839, Note_on_c, 0, 69, 0
1, 285840, Note_on_c, 0, 67, 33
1, 286319, Note_on_c, 0, 72, 0
1, 286320, Note_on_c, 0, 71, 33
1, 286559, Note_on_c, 0, 67, 0
1, 286559, Note_on_c, 0, 71, 0
1, 286560, Note_on_c, 0, 66, 33
1, 286560, Note_on_c, 0, 69, 33
1, 287927, Note_on_c, 0, 74, 0
1, 287927, Note_on_c, 0, 66, 0
1, 287927, Note_on_c, 0, 69, 0
1, 288000, Note_on_c, 0, 59, 33
1, 288719, Note_on_c, 0, 59, 0
1, 288720, Note_on_c, 0, 64, 33
1, 288720, Note_on_c, 0, 67, 33
1, 289199, Note_on_c, 0, 64, 0
1, 289199, Note_on_c, 0, 67, 0
1, 289200, Note_on_c, 0, 63, 33
1, 289200, Note_on_c, 0, 66, 33
1, 289439, Note_on_c, 0, 63, 0
1, 289439, Note_on_c, 0, 66, 0
1, 289440, Note_on_c, 0, 63, 33
1, 289440, Note_on_c, 0, 66, 33
1, 290159, Note_on_c, 0, 63, 0
1, 290159, Note_on_c, 0, 66, 0
1, 290160, Note_on_c, 0, 67, 33
1, 290160, Note_on_c, 0, 71, 33
1, 290639, Note_on_c, 0, 67, 0
1, 290639, Note_on_c, 0, 71, 0
1, 290640, Note_on_c, 0, 66, 33
1, 290640, Note_on_c, 0, 69, 33
1, 290879, Note_on_c, 0, 66, 0
1, 290879, Note_on_c, 0, 69, 0
1, 290880, Note_on_c, 0, 66, 33
1, 290880, Note_on_c, 0, 69, 33
1, 291599, Note_on_c, 0, 66, 0
1, 291600, Note_on_c, 0, 64, 33
1, 292079, Note_on_c, 0, 69, 0
1, 292080, Note_on_c, 0, 67, 33
1, 292319, Note_on_c, 0, 64, 0
1, 292319, Note_on_c, 0, 67, 0
1, 292320, Note_on_c, 0, 63, 33
1, 292320, Note_on_c, 0, 66, 33
1, 293687, Note_on_c, 0, 63, 0
1, 293687, Note_on_c, 0, 66, 0
1, 293760, Note_on_c, 0, 55, 33
1, 294479, Note_on_c, 0, 55, 0
1, 294480, Note_on_c, 0, 60, 33
1, 294480, Note_on_c, 0, 64, 33
1, 294959, Note_on_c, 0, 60, 0
1, 294959, Note_on_c, 0, 64, 0
1, 294960, Note_on_c, 0, 59, 33
1, 294960, Note_on_c, 0, 62, 33
1, 295187, Note_on_c, 0, 59, 0
1, 295187, Note_on_c, 0, 62, 0
1, 295200, Note_on_c, 0, 59, 33
1, 295200, Note_on_c, 0, 62, 33
1, 296567, Note_on_c, 0, 59, 0
1, 296567, Note_on_c, 0, 62, 0
1, 296640, Note_on_c, 0, 55, 33
1, 297359, Note_on_c, 0, 55, 0
1, 297360, Note_on_c, 0, 60, 33
1, 297360, Note_on_c, 0, 64, 33
1, 297839, Note_on_c, 0, 60, 0
1, 297839, Note_on_c, 0, 64, 0
1, 297840, Note_on_c, 0, 59, 33
1, 297840, Note_on_c, 0, 62, 33
1, 298067, Note_on_c, 0, 59, 0
1, 298067, Note_on_c, 0, 62, 0
1, 298080, Tempo, 344828
1, 298080, Note_on_c, 0, 59, 33
1, 298080, Note_on_c, 0, 62, 33
1, 298800, Tempo, 357143
1, 299280, Tempo, 370370
1, 299447, Note_on_c, 0, 59, 0
1, 299447, Note_on_c, 0, 62, 0
1, 299520, Tempo, 384615
1, 299520, Note_on_c, 0, 50, 33
1, 300000, Tempo, 400000
1, 300239, Note_on_c, 0, 50, 0
1, 300240, Tempo, 416667
1, 300240, Note_on_c, 0, 50, 33
1, 300240, Note_on_c, 0, 59, 33
1, 300240, Note_on_c, 0, 62, 33
1, 300719, Note_on_c, 0, 50, 0
1, 300719, Note_on_c, 0, 59, 0
1, 300719, Note_on_c, 0, 62, 0
1, 300720, Tempo, 434783
1, 300720, Note_on_c, 0, 61, 33
1, 300947, Note_on_c, 0, 61, 0
1, 300960, Tempo, 333333
1, 300960, Note_on_c, 0, 59, 33
1, 300960, Note_on_c, 0, 61, 33
1, 300960, Note_on_c, 0, 56, 33
1, 301187, Note_on_c, 0, 56, 0
1, 301320, Note_on_c, 0, 55, 33
1, 301433, Note_on_c, 0, 55, 0
1, 301440, Note_on_c, 0, 56, 33
1, 301667, Note_on_c, 0, 56, 0
1, 301680, Note_on_c, 0, 57, 33
1, 301799, Note_on_c, 0, 57, 0
1, 301920, Note_on_c, 0, 55, 33
1, 302039, Note_on_c, 0, 55, 0
1, 302160, Note_on_c, 0, 56, 33
1, 302279, Note_on_c, 0, 56, 0
1, 302400, Note_on_c, 0, 53, 33
1, 302519, Note_on_c, 0, 53, 0
1, 302640, Note_on_c, 0, 54, 33
1, 302759, Note_on_c, 0, 54, 0
1, 302880, Note_on_c, 0, 51, 33
1, 302999, Note_on_c, 0, 51, 0
1, 303120, Note_on_c, 0, 53, 33
1, 303239, Note_on_c, 0, 53, 0
1, 303360, Note_on_c, 0, 49, 33
1, 303479, Note_on_c, 0, 49, 0
1, 303600, Note_on_c, 0, 50, 33
1, 303719, Note_on_c, 0, 50, 0
1, 303840, Note_on_c, 0, 48, 33
1, 303959, Note_on_c, 0, 48, 0
1, 304080, Note_on_c, 0, 49, 33
1, 304199, Note_on_c, 0, 49, 0
1, 304320, Note_on_c, 0, 50, 33
1, 304439, Note_on_c, 0, 50, 0
1, 304560, Note_on_c, 0, 49, 33
1, 304679, Note_on_c, 0, 49, 0
1, 304800, Note_on_c, 0, 51, 33
1, 304919, Note_on_c, 0, 51, 0
1, 305040, Note_on_c, 0, 53, 33
1, 305159, Note_on_c, 0, 53, 0
1, 305280, Note_on_c, 0, 51, 33
1, 305399, Note_on_c, 0, 51, 0
1, 305520, Note_on_c, 0, 53, 33
1, 305639, Note_on_c, 0, 53, 0
1, 305760, Note_on_c, 0, 54, 33
1, 305879, Note_on_c, 0, 54, 0
1, 306000, Note_on_c, 0, 53, 33
1, 306119, Note_on_c, 0, 53, 0
1, 306240, Note_on_c, 0, 54, 33
1, 306359, Note_on_c, 0, 54, 0
1, 306431, Note_on_c, 0, 59, 0
1, 306431, Note_on_c, 0, 61, 0
1, 306480, Note_on_c, 0, 56, 33
1, 306599, Note_on_c, 0, 56, 0
1, 306720, Note_on_c, 0, 57, 33
1, 306720, Note_on_c, 0, 61, 33
1, 306947, Note_on_c, 0, 57, 0
1, 306947, Note_on_c, 0, 61, 0
1, 307080, Note_on_c, 0, 56, 33
1, 307080, Note_on_c, 0, 59, 33
1, 307193, Note_on_c, 0, 56, 0
1, 307193, Note_on_c, 0, 59, 0
1, 307200, Note_on_c, 0, 57, 33
1, 307200, Note_on_c, 0, 61, 33
1, 307427, Note_on_c, 0, 57, 0
1, 307427, Note_on_c, 0, 61, 0
1, 307440, Note_on_c, 0, 59, 33
1, 307440, Note_on_c, 0, 62, 33
1, 307559, Note_on_c, 0, 59, 0
1, 307559, Note_on_c, 0, 62, 0
1, 307680, Note_on_c, 0, 56, 33
1, 307680, Note_on_c, 0, 59, 33
1, 307799, Note_on_c, 0, 56, 0
1, 307799, Note_on_c, 0, 59, 0
1, 307920, Note_on_c, 0, 57, 33
1, 307920, Note_on_c, 0, 61, 33
1, 308039, Note_on_c, 0, 57, 0
1, 308039, Note_on_c, 0, 61, 0
1, 308160, Note_on_c, 0, 54, 33
1, 308160, Note_on_c, 0, 57, 33
1, 308279, Note_on_c, 0, 54, 0
1, 308279, Note_on_c, 0, 57, 0
1, 308400, Note_on_c, 0, 56, 33
1, 308400, Note_on_c, 0, 59, 33
1, 308519, Note_on_c, 0, 56, 0
1, 308519, Note_on_c, 0, 59, 0
1, 308640, Note_on_c, 0, 53, 33
1, 308640, Note_on_c, 0, 56, 33
1, 308759, Note_on_c, 0, 53, 0
1, 308759, Note_on_c, 0, 56, 0
1, 308880, Note_on_c, 0, 54, 33
1, 308880, Note_on_c, 0, 57, 33
1, 308999, Note_on_c, 0, 54, 0
1, 308999, Note_on_c, 0, 57, 0
1, 309120, Note_on_c, 0, 50, 33
1, 309120, Note_on_c, 0, 54, 33
1, 309239, Note_on_c, 0, 50, 0
1, 309239, Note_on_c, 0, 54, 0
1, 309360, Note_on_c, 0, 47, 33
1, 309360, Note_on_c, 0, 56, 33
1, 309479, Note_on_c, 0, 47, 0
1, 309479, Note_on_c, 0, 56, 0
1, 309600, Note_on_c, 0, 49, 33
1, 309600, Note_on_c, 0, 53, 33
1, 309719, Note_on_c, 0, 49, 0
1, 309719, Note_on_c, 0, 53, 0
1, 309840, Note_on_c, 0, 51, 33
1, 309840, Note_on_c, 0, 54, 33
1, 309959, Note_on_c, 0, 51, 0
1, 309959, Note_on_c, 0, 54, 0
1, 310080, Note_on_c, 0, 53, 33
1, 310080, Note_on_c, 0, 56, 33
1, 310199, Note_on_c, 0, 53, 0
1, 310199, Note_on_c, 0, 56, 0
1, 310320, Note_on_c, 0, 51, 33
1, 310320, Note_on_c, 0, 54, 33
1, 310439, Note_on_c, 0, 51, 0
1, 310439, Note_on_c, 0, 54, 0
1, 310560, Note_on_c, 0, 53, 33
1, 310560, Note_on_c, 0, 56, 33
1, 310679, Note_on_c, 0, 53, 0
1, 310679, Note_on_c, 0, 56, 0
1, 310800, Note_on_c, 0, 54, 33
1, 310800, Note_on_c, 0, 57, 33
1, 310919, Note_on_c, 0, 54, 0
1, 310919, Note_on_c, 0, 57, 0
1, 311040, Note_on_c, 0, 53, 33
1, 311040, Note_on_c, 0, 56, 33
1, 311159, Note_on_c, 0, 53, 0
1, 311159, Note_on_c, 0, 56, 0
1, 311280, Note_on_c, 0, 54, 33
1, 311280, Note_on_c, 0, 57, 33
1, 311399, Note_on_c, 0, 54, 0
1, 311399, Note_on_c, 0, 57, 0
1, 311520, Note_on_c, 0, 56, 33
1, 311520, Note_on_c, 0, 59, 33
1, 311639, Note_on_c, 0, 56, 0
1, 311639, Note_on_c, 0, 59, 0
1, 311760, Note_on_c, 0, 54, 33
1, 311760, Note_on_c, 0, 57, 33
1, 311879, Note_on_c, 0, 54, 0
1, 311879, Note_on_c, 0, 57, 0
1, 312000, Note_on_c, 0, 56, 33
1, 312000, Note_on_c, 0, 59, 33
1, 312119, Note_on_c, 0, 56, 0
1, 312119, Note_on_c, 0, 59, 0
1, 312240, Note_on_c, 0, 57, 33
1, 312240, Note_on_c, 0, 61, 33
1, 312359, Note_on_c, 0, 57, 0
1, 312359, Note_on_c, 0, 61, 0
1, 312480, Note_on_c, 0, 59, 33
1, 312480, Note_on_c, 0, 62, 33
1, 312480, Note_on_c, 0, 67, 33
1, 312707, Note_on_c, 0, 59, 0
1, 312707, Note_on_c, 0, 62, 0
1, 312707, Note_on_c, 0, 67, 0
1, 312840, Note_on_c, 0, 58, 34
1, 312840, Note_on_c, 0, 61, 34
1, 312840, Note_on_c, 0, 66, 34
1, 312953, Note_on_c, 0, 58, 0
1, 312953, Note_on_c, 0, 61, 0
1, 312953, Note_on_c, 0, 66, 0
1, 312960, Note_on_c, 0, 59, 35
1, 312960, Note_on_c, 0, 62, 35
1, 312960, Note_on_c, 0, 67, 35
1, 313187, Note_on_c, 0, 59, 0
1, 313187, Note_on_c, 0, 62, 0
1, 313187, Note_on_c, 0, 67, 0
1, 313200, Note_on_c, 0, 61, 36
1, 313200, Note_on_c, 0, 64, 36
1, 313200, Note_on_c, 0, 69, 36
1, 313319, Note_on_c, 0, 61, 0
1, 313319, Note_on_c, 0, 64, 0
1, 313319, Note_on_c, 0, 69, 0
1, 313440, Note_on_c, 0, 58, 37
1, 313440, Note_on_c, 0, 61, 37
1, 313440, Note_on_c, 0, 66, 37
1, 313559, Note_on_c, 0, 58, 0
1, 313559, Note_on_c, 0, 61, 0
1, 313559, Note_on_c, 0, 66, 0
1, 313680, Note_on_c, 0, 59, 38
1, 313680, Note_on_c, 0, 62, 38
1, 313680, Note_on_c, 0, 67, 38
1, 313799, Note_on_c, 0, 59, 0
1, 313799, Note_on_c, 0, 62, 0
1, 313799, Note_on_c, 0, 67, 0
1, 313920, Note_on_c, 0, 55, 39
1, 313920, Note_on_c, 0, 59, 39
1, 313920, Note_on_c, 0, 62, 39
1, 314147, Note_on_c, 0, 55, 0
1, 314147, Note_on_c, 0, 59, 0
1, 314147, Note_on_c, 0, 62, 0
1, 314280, Note_on_c, 0, 58, 41
1, 314280, Note_on_c, 0, 61, 41
1, 314393, Note_on_c, 0, 58, 0
1, 314393, Note_on_c, 0, 61, 0
1, 314400, Note_on_c, 0, 55, 42
1, 314400, Note_on_c, 0, 59, 42
1, 314400, Note_on_c, 0, 62, 42
1, 314627, Note_on_c, 0, 55, 0
1, 314627, Note_on_c, 0, 59, 0
1, 314627, Note_on_c, 0, 62, 0
1, 314640, Note_on_c, 0, 55, 43
1, 314640, Note_on_c, 0, 61, 43
1, 314640, Note_on_c, 0, 64, 43
1, 314759, Note_on_c, 0, 55, 0
1, 314759, Note_on_c, 0, 61, 0
1, 314759, Note_on_c, 0, 64, 0
1, 314880, Note_on_c, 0, 55, 44
1, 314880, Note_on_c, 0, 58, 44
1, 314880, Note_on_c, 0, 61, 44
1, 314999, Note_on_c, 0, 55, 0
1, 314999, Note_on_c, 0, 58, 0
1, 314999, Note_on_c, 0, 61, 0
1, 315120, Note_on_c, 0, 55, 45
1, 315120, Note_on_c, 0, 59, 45
1, 315120, Note_on_c, 0, 62, 45
1, 315239, Note_on_c, 0, 55, 0
1, 315239, Note_on_c, 0, 59, 0
1, 315239, Note_on_c, 0, 62, 0
1, 315360, Note_on_c, 0, 49, 46
1, 315360, Note_on_c, 0, 55, 46
1, 315360, Note_on_c, 0, 58, 46
1, 315479, Note_on_c, 0, 49, 0
1, 315479, Note_on_c, 0, 55, 0
1, 315479, Note_on_c, 0, 58, 0
1, 315600, Note_on_c, 0, 50, 47
1, 315600, Note_on_c, 0, 55, 47
1, 315600, Note_on_c, 0, 59, 47
1, 315719, Note_on_c, 0, 50, 0
1, 315719, Note_on_c, 0, 55, 0
1, 315719, Note_on_c, 0, 59, 0
1, 315840, Note_on_c, 0, 52, 49
1, 315840, Note_on_c, 0, 55, 49
1, 315840, Note_on_c, 0, 61, 49
1, 315959, Note_on_c, 0, 52, 0
1, 315959, Note_on_c, 0, 55, 0
1, 315959, Note_on_c, 0, 61, 0
1, 316080, Note_on_c, 0, 50, 50
1, 316080, Note_on_c, 0, 55, 50
1, 316080, Note_on_c, 0, 59, 50
1, 316199, Note_on_c, 0, 50, 0
1, 316199, Note_on_c, 0, 55, 0
1, 316199, Note_on_c, 0, 59, 0
1, 316320, Note_on_c, 0, 55, 51
1, 316320, Note_on_c, 0, 58, 51
1, 316320, Note_on_c, 0, 61, 51
1, 316439, Note_on_c, 0, 55, 0
1, 316439, Note_on_c, 0, 58, 0
1, 316439, Note_on_c, 0, 61, 0
1, 316560, Note_on_c, 0, 55, 52
1, 316560, Note_on_c, 0, 59, 52
1, 316560, Note_on_c, 0, 62, 52
1, 316679, Note_on_c, 0, 55, 0
1, 316679, Note_on_c, 0, 59, 0
1, 316679, Note_on_c, 0, 62, 0
1, 316800, Note_on_c, 0, 55, 53
1, 316800, Note_on_c, 0, 58, 53
1, 316800, Note_on_c, 0, 61, 53
1, 316919, Note_on_c, 0, 55, 0
1, 316919, Note_on_c, 0, 58, 0
1, 316919, Note_on_c, 0, 61, 0
1, 317040, Note_on_c, 0, 55, 54
1, 317040, Note_on_c, 0, 59, 54
1, 317040, Note_on_c, 0, 62, 54
1, 317159, Note_on_c, 0, 55, 0
1, 317159, Note_on_c, 0, 59, 0
1, 317159, Note_on_c, 0, 62, 0
1, 317280, Note_on_c, 0, 55, 55
1, 317280, Note_on_c, 0, 61, 55
1, 317280, Note_on_c, 0, 64, 55
1, 317399, Note_on_c, 0, 55, 0
1, 317399, Note_on_c, 0, 61, 0
1, 317399, Note_on_c, 0, 64, 0
1, 317520, Note_on_c, 0, 55, 57
1, 317520, Note_on_c, 0, 59, 57
1, 317520, Note_on_c, 0, 62, 57
1, 317639, Note_on_c, 0, 55, 0
1, 317639, Note_on_c, 0, 59, 0
1, 317639, Note_on_c, 0, 62, 0
1, 317760, Note_on_c, 0, 59, 58
1, 317760, Note_on_c, 0, 62, 58
1, 317760, Note_on_c, 0, 67, 58
1, 317879, Note_on_c, 0, 59, 0
1, 317879, Note_on_c, 0, 62, 0
1, 317879, Note_on_c, 0, 67, 0
1, 318000, Note_on_c, 0, 62, 59
1, 318000, Note_on_c, 0, 67, 59
1, 318000, Note_on_c, 0, 71, 59
1, 318119, Note_on_c, 0, 62, 0
1, 318119, Note_on_c, 0, 67, 0
1, 318119, Note_on_c, 0, 71, 0
1, 318240, Note_on_c, 0, 63, 60
1, 318240, Note_on_c, 0, 66, 60
1, 318240, Note_on_c, 0, 69, 60
1, 318467, Note_on_c, 0, 63, 0
1, 318467, Note_on_c, 0, 66, 0
1, 318467, Note_on_c, 0, 69, 0
1, 318600, Note_on_c, 0, 65, 62
1, 318600, Note_on_c, 0, 68, 62
1, 318713, Note_on_c, 0, 65, 0
1, 318713, Note_on_c, 0, 68, 0
1, 318720, Note_on_c, 0, 63, 62
1, 318720, Note_on_c, 0, 66, 62
1, 318720, Note_on_c, 0, 69, 62
1, 318947, Note_on_c, 0, 63, 0
1, 318947, Note_on_c, 0, 66, 0
1, 318947, Note_on_c, 0, 69, 0
1, 318960, Note_on_c, 0, 63, 64
1, 318960, Note_on_c, 0, 68, 64
1, 318960, Note_on_c, 0, 71, 64
1, 319079, Note_on_c, 0, 63, 0
1, 319079, Note_on_c, 0, 68, 0
1, 319079, Note_on_c, 0, 71, 0
1, 319200, Note_on_c, 0, 63, 65
1, 319200, Note_on_c, 0, 65, 65
1, 319200, Note_on_c, 0, 68, 65
1, 319319, Note_on_c, 0, 63, 0
1, 319319, Note_on_c, 0, 65, 0
1, 319319, Note_on_c, 0, 68, 0
1, 319440, Note_on_c, 0, 63, 66
1, 319440, Note_on_c, 0, 66, 66
1, 319440, Note_on_c, 0, 69, 66
1, 319559, Note_on_c, 0, 63, 0
1, 319559, Note_on_c, 0, 66, 0
1, 319559, Note_on_c, 0, 69, 0
1, 320040, Note_on_c, 0, 65, 68
1, 320040, Note_on_c, 0, 68, 68
1, 320153, Note_on_c, 0, 65, 0
1, 320153, Note_on_c, 0, 68, 0
1, 320160, Note_on_c, 0, 61, 69
1, 320160, Note_on_c, 0, 66, 69
1, 320160, Note_on_c, 0, 69, 69
1, 320387, Note_on_c, 0, 61, 0
1, 320387, Note_on_c, 0, 66, 0
1, 320387, Note_on_c, 0, 69, 0
1, 320400, Note_on_c, 0, 62, 70
1, 320400, Note_on_c, 0, 68, 70
1, 320400, Note_on_c, 0, 71, 70
1, 320519, Note_on_c, 0, 62, 0
1, 320519, Note_on_c, 0, 68, 0
1, 320519, Note_on_c, 0, 71, 0
1, 320640, Note_on_c, 0, 59, 71
1, 320640, Note_on_c, 0, 65, 71
1, 320640, Note_on_c, 0, 68, 71
1, 320759, Note_on_c, 0, 59, 0
1, 320759, Note_on_c, 0, 65, 0
1, 320759, Note_on_c, 0, 68, 0
1, 320880, Note_on_c, 0, 61, 72
1, 320880, Note_on_c, 0, 66, 72
1, 320880, Note_on_c, 0, 69, 72
1, 320999, Note_on_c, 0, 61, 0
1, 320999, Note_on_c, 0, 66, 0
1, 320999, Note_on_c, 0, 69, 0
1, 321480, Note_on_c, 0, 65, 75
1, 321480, Note_on_c, 0, 68, 75
1, 321593, Note_on_c, 0, 65, 0
1, 321593, Note_on_c, 0, 68, 0
1, 321600, Note_on_c, 0, 66, 75
1, 321600, Note_on_c, 0, 69, 75
1, 321827, Note_on_c, 0, 66, 0
1, 321827, Note_on_c, 0, 69, 0
1, 321840, Note_on_c, 0, 68, 76
1, 321840, Note_on_c, 0, 71, 76
1, 321959, Note_on_c, 0, 68, 0
1, 321959, Note_on_c, 0, 71, 0
1, 322080, Note_on_c, 0, 65, 77
1, 322080, Note_on_c, 0, 68, 77
1, 322199, Note_on_c, 0, 65, 0
1, 322199, Note_on_c, 0, 68, 0
1, 322320, Note_on_c, 0, 66, 78
1, 322320, Note_on_c, 0, 69, 78
1, 322439, Note_on_c, 0, 66, 0
1, 322439, Note_on_c, 0, 69, 0
1, 322920, Note_on_c, 0, 65, 81
1, 322920, Note_on_c, 0, 68, 81
1, 323033, Note_on_c, 0, 65, 0
1, 323033, Note_on_c, 0, 68, 0
1, 323040, Note_on_c, 0, 66, 82
1, 323040, Note_on_c, 0, 69, 82
1, 323267, Note_on_c, 0, 66, 0
1, 323267, Note_on_c, 0, 69, 0
1, 323280, Note_on_c, 0, 68, 83
1, 323280, Note_on_c, 0, 71, 83
1, 323399, Note_on_c, 0, 68, 0
1, 323399, Note_on_c, 0, 71, 0
1, 323520, Note_on_c, 0, 65, 84
1, 323520, Note_on_c, 0, 68, 84
1, 323639, Note_on_c, 0, 65, 0
1, 323639, Note_on_c, 0, 68, 0
1, 323760, Note_on_c, 0, 66, 85
1, 323760, Note_on_c, 0, 69, 85
1, 323879, Note_on_c, 0, 66, 0
1, 323879, Note_on_c, 0, 69, 0
1, 324240, Note_on_c, 0, 59, 87
1, 324240, Note_on_c, 0, 62, 87
1, 324240, Note_on_c, 0, 67, 87
1, 324359, Note_on_c, 0, 59, 0
1, 324359, Note_on_c, 0, 62, 0
1, 324359, Note_on_c, 0, 67, 0
1, 324480, Note_on_c, 0, 59, 88
1, 324480, Note_on_c, 0, 62, 88
1, 324480, Note_on_c, 0, 68, 88
1, 324599, Note_on_c, 0, 59, 0
1, 324599, Note_on_c, 0, 62, 0
1, 324599, Note_on_c, 0, 68, 0
1, 324960, Note_on_c, 0, 57, 90
1, 324960, Note_on_c, 0, 61, 90
1, 324960, Note_on_c, 0, 68, 90
1, 325079, Note_on_c, 0, 57, 0
1, 325079, Note_on_c, 0, 61, 0
1, 325079, Note_on_c, 0, 68, 0
1, 325200, Note_on_c, 0, 57, 91
1, 325200, Note_on_c, 0, 61, 91
1, 325200, Note_on_c, 0, 69, 91
1, 325319, Note_on_c, 0, 57, 0
1, 325319, Note_on_c, 0, 61, 0
1, 325319, Note_on_c, 0, 69, 0
1, 325680, Note_on_c, 0, 62, 93
1, 325680, Note_on_c, 0, 65, 93
1, 325680, Note_on_c, 0, 70, 93
1, 325799, Note_on_c, 0, 62, 0
1, 325799, Note_on_c, 0, 65, 0
1, 325799, Note_on_c, 0, 70, 0
1, 325920, Note_on_c, 0, 62, 94
1, 325920, Note_on_c, 0, 65, 94
1, 325920, Note_on_c, 0, 71, 94
1, 326039, Note_on_c, 0, 62, 0
1, 326039, Note_on_c, 0, 65, 0
1, 326039, Note_on_c, 0, 71, 0
1, 326400, Note_on_c, 0, 61, 97
1, 326400, Note_on_c, 0, 66, 97
1, 326400, Note_on_c, 0, 72, 97
1, 326519, Note_on_c, 0, 61, 0
1, 326519, Note_on_c, 0, 66, 0
1, 326519, Note_on_c, 0, 72, 0
1, 326640, Note_on_c, 0, 61, 98
1, 326640, Note_on_c, 0, 66, 98
1, 326640, Note_on_c, 0, 73, 98
1, 326759, Note_on_c, 0, 61, 0
1, 326759, Note_on_c, 0, 66, 0
1, 326759, Note_on_c, 0, 73, 0
1, 327120, Note_on_c, 0, 64, 100
1, 327120, Note_on_c, 0, 67, 100
1, 327120, Note_on_c, 0, 72, 100
1, 327239, Note_on_c, 0, 64, 0
1, 327239, Note_on_c, 0, 67, 0
1, 327239, Note_on_c, 0, 72, 0
1, 327360, Note_on_c, 0, 64, 101
1, 327360, Note_on_c, 0, 67, 101
1, 327360, Note_on_c, 0, 73, 101
1, 327479, Note_on_c, 0, 64, 0
1, 327479, Note_on_c, 0, 67, 0
1, 327479, Note_on_c, 0, 73, 0
1, 327840, Note_on_c, 0, 67, 103
1, 327840, Note_on_c, 0, 73, 103
1, 327840, Note_on_c, 0, 75, 103
1, 327959, Note_on_c, 0, 67, 0
1, 327959, Note_on_c, 0, 73, 0
1, 327959, Note_on_c, 0, 75, 0
1, 328080, Note_on_c, 0, 67, 104
1, 328080, Note_on_c, 0, 73, 104
1, 328080, Note_on_c, 0, 76, 104
1, 328199, Note_on_c, 0, 67, 0
1, 328199, Note_on_c, 0, 73, 0
1, 328199, Note_on_c, 0, 76, 0
1, 328560, Note_on_c, 0, 66, 106
1, 328560, Note_on_c, 0, 71, 106
1, 328560, Note_on_c, 0, 74, 106
1, 328679, Note_on_c, 0, 66, 0
1, 328679, Note_on_c, 0, 71, 0
1, 328679, Note_on_c, 0, 74, 0
1, 328800, Note_on_c, 0, 66, 107
1, 328800, Note_on_c, 0, 71, 107
1, 328800, Note_on_c, 0, 75, 107
1, 328919, Note_on_c, 0, 66, 0
1, 328919, Note_on_c, 0, 71, 0
1, 328919, Note_on_c, 0, 75, 0
1, 329280, Note_on_c, 0, 69, 109
1, 329280, Note_on_c, 0, 75, 109
1, 329280, Note_on_c, 0, 77, 109
1, 329399, Note_on_c, 0, 69, 0
1, 329399, Note_on_c, 0, 75, 0
1, 329399, Note_on_c, 0, 77, 0
1, 329520, Note_on_c, 0, 69, 110
1, 329520, Note_on_c, 0, 75, 110
1, 329520, Note_on_c, 0, 78, 110
1, 329639, Note_on_c, 0, 69, 0
1, 329639, Note_on_c, 0, 75, 0
1, 329639, Note_on_c, 0, 78, 0
1, 329760, Note_on_c, 0, 68, 112
1, 329760, Note_on_c, 0, 73, 112
1, 329760, Note_on_c, 0, 77, 112
1, 330443, Note_on_c, 0, 68, 0
1, 330443, Note_on_c, 0, 73, 0
1, 330443, Note_on_c, 0, 77, 0
1, 330480, Note_on_c, 0, 74, 112
1, 330480, Note_on_c, 0, 77, 112
1, 330480, Note_on_c, 0, 80, 112
1, 330480, Note_on_c, 0, 83, 112
1, 331163, Note_on_c, 0, 74, 0
1, 331163, Note_on_c, 0, 77, 0
1, 331163, Note_on_c, 0, 80, 0
1, 331163, Note_on_c, 0, 83, 0
1, 331200, Note_on_c, 0, 73, 112
1, 331200, Note_on_c, 0, 76, 112
1, 331200, Note_on_c, 0, 79, 112
1, 331200, Note_on_c, 0, 82, 112
1, 331883, Note_on_c, 0, 73, 0
1, 331883, Note_on_c, 0, 76, 0
1, 331883, Note_on_c, 0, 79, 0
1, 331883, Note_on_c, 0, 82, 0
1, 331920, Note_on_c, 0, 67, 112
1, 331920, Note_on_c, 0, 70, 112
1, 331920, Note_on_c, 0, 73, 112
1, 331920, Note_on_c, 0, 76, 112
1, 332603, Note_on_c, 0, 67, 0
1, 332603, Note_on_c, 0, 70, 0
1, 332603, Note_on_c, 0, 73, 0
1, 332603, Note_on_c, 0, 76, 0
1, 332640, Note_on_c, 0, 66, 112
1, 332640, Note_on_c, 0, 71, 112
1, 332640, Note_on_c, 0, 74, 112
1, 333323, Note_on_c, 0, 66, 0
1, 333323, Note_on_c, 0, 71, 0
1, 333323, Note_on_c, 0, 74, 0
1, 333360, Note_on_c, 0, 72, 112
1, 333360, Note_on_c, 0, 78, 112
1, 333360, Note_on_c, 0, 81, 112
1, 334043, Note_on_c, 0, 72, 0
1, 334043, Note_on_c, 0, 78, 0
1, 334043, Note_on_c, 0, 81, 0
1, 334080, Note_on_c, 0, 73, 112
1, 334080, Note_on_c, 0, 77, 112
1, 334080, Note_on_c, 0, 80, 112
1, 334763, Note_on_c, 0, 73, 0
1, 334763, Note_on_c, 0, 77, 0
1, 334763, Note_on_c, 0, 80, 0
1, 334800, Note_on_c, 0, 65, 112
1, 334800, Note_on_c, 0, 68, 112
1, 334800, Note_on_c, 0, 71, 112
1, 334800, Note_on_c, 0, 74, 112
1, 335483, Note_on_c, 0, 65, 0
1, 335483, Note_on_c, 0, 68, 0
1, 335483, Note_on_c, 0, 71, 0
1, 335483, Note_on_c, 0, 74, 0
1, 335520, Note_on_c, 0, 64, 112
1, 335520, Note_on_c, 0, 67, 112
1, 335520, Note_on_c, 0, 70, 112
1, 335520, Note_on_c, 0, 73, 112
1, 336203, Note_on_c, 0, 64, 0
1, 336203, Note_on_c, 0, 67, 0
1, 336203, Note_on_c, 0, 70, 0
1, 336203, Note_on_c, 0, 73, 0
1, 336240, Note_on_c, 0, 70, 112
1, 336240, Note_on_c, 0, 73, 112
1, 336240, Note_on_c, 0, 76, 112
1, 336240, Note_on_c, 0, 79, 112
1, 336923, Note_on_c, 0, 70, 0
1, 336923, Note_on_c, 0, 73, 0
1, 336923, Note_on_c, 0, 76, 0
1, 336923, Note_on_c, 0, 79, 0
1, 336960, Note_on_c, 0, 69, 112
1, 336960, Note_on_c, 0, 72, 112
1, 336960, Note_on_c, 0, 78, 112
1, 337643, Note_on_c, 0, 69, 0
1, 337643, Note_on_c, 0, 72, 0
1, 337643, Note_on_c, 0, 78, 0
1, 337680, Note_on_c, 0, 57, 112
1, 337680, Note_on_c, 0, 60, 112
1, 337680, Note_on_c, 0, 66, 112
1, 338363, Note_on_c, 0, 57, 0
1, 338363, Note_on_c, 0, 60, 0
1, 338363, Note_on_c, 0, 66, 0
1, 338400, Note_on_c, 0, 56, 91
1, 338400, Note_on_c, 0, 59, 91
1, 338400, Note_on_c, 0, 66, 91
1, 339083, Note_on_c, 0, 56, 0
1, 339083, Note_on_c, 0, 59, 0
1, 339083, Note_on_c, 0, 66, 0
1, 339840, Note_on_c, 0, 56, 49
1, 339840, Note_on_c, 0, 59, 49
1, 339840, Note_on_c, 0, 65, 49
1, 340523, Note_on_c, 0, 56, 0
1, 340523, Note_on_c, 0, 59, 0
1, 340523, Note_on_c, 0, 65, 0
1, 341280, Note_on_c, 0, 78, 49
1, 341280, Note_on_c, 0, 81, 49
1, 341280, Note_on_c, 0, 85, 49
1, 341507, Note_on_c, 0, 78, 0
1, 341507, Note_on_c, 0, 81, 0
1, 341507, Note_on_c, 0, 85, 0
1, 341640, Note_on_c, 0, 80, 49
1, 341640, Note_on_c, 0, 83, 49
1, 341753, Note_on_c, 0, 80, 0
1, 341753, Note_on_c, 0, 83, 0
1, 341760, Note_on_c, 0, 78, 49
1, 341760, Note_on_c, 0, 81, 49
1, 341760, Note_on_c, 0, 85, 49
1, 341987, Note_on_c, 0, 78, 0
1, 341987, Note_on_c, 0, 81, 0
1, 341987, Note_on_c, 0, 85, 0
1, 342000, Note_on_c, 0, 78, 49
1, 342000, Note_on_c, 0, 83, 49
1, 342000, Note_on_c, 0, 86, 49
1, 342119, Note_on_c, 0, 78, 0
1, 342119, Note_on_c, 0, 83, 0
1, 342119, Note_on_c, 0, 86, 0
1, 342240, Note_on_c, 0, 78, 49
1, 342240, Note_on_c, 0, 80, 49
1, 342240, Note_on_c, 0, 83, 49
1, 342359, Note_on_c, 0, 78, 0
1, 342359, Note_on_c, 0, 80, 0
1, 342359, Note_on_c, 0, 83, 0
1, 342480, Note_on_c, 0, 78, 49
1, 342480, Note_on_c, 0, 81, 49
1, 342480, Note_on_c, 0, 85, 49
1, 342599, Note_on_c, 0, 78, 0
1, 342599, Note_on_c, 0, 81, 0
1, 342599, Note_on_c, 0, 85, 0
1, 342720, Note_on_c, 0, 73, 49
1, 342720, Note_on_c, 0, 78, 49
1, 342720, Note_on_c, 0, 81, 49
1, 342947, Note_on_c, 0, 73, 0
1, 342947, Note_on_c, 0, 78, 0
1, 342947, Note_on_c, 0, 81, 0
1, 343080, Note_on_c, 0, 80, 49
1, 343193, Note_on_c, 0, 80, 0
1, 343200, Note_on_c, 0, 73, 49
1, 343200, Note_on_c, 0, 78, 49
1, 343200, Note_on_c, 0, 81, 49
1, 343427, Note_on_c, 0, 73, 0
1, 343427, Note_on_c, 0, 78, 0
1, 343427, Note_on_c, 0, 81, 0
1, 343440, Note_on_c, 0, 74, 49
1, 343440, Note_on_c, 0, 80, 49
1, 343440, Note_on_c, 0, 83, 49
1, 343559, Note_on_c, 0, 74, 0
1, 343559, Note_on_c, 0, 80, 0
1, 343559, Note_on_c, 0, 83, 0
1, 343680, Note_on_c, 0, 71, 49
1, 343680, Note_on_c, 0, 77, 49
1, 343680, Note_on_c, 0, 80, 49
1, 343799, Note_on_c, 0, 71, 0
1, 343799, Note_on_c, 0, 77, 0
1, 343799, Note_on_c, 0, 80, 0
1, 343920, Note_on_c, 0, 73, 49
1, 343920, Note_on_c, 0, 78, 49
1, 343920, Note_on_c, 0, 81, 49
1, 344039, Note_on_c, 0, 73, 0
1, 344039, Note_on_c, 0, 78, 0
1, 344039, Note_on_c, 0, 81, 0
1, 344160, Note_on_c, 0, 69, 49
1, 344160, Note_on_c, 0, 73, 49
1, 344160, Note_on_c, 0, 78, 49
1, 344387, Note_on_c, 0, 69, 0
1, 344387, Note_on_c, 0, 73, 0
1, 344387, Note_on_c, 0, 78, 0
1, 344520, Note_on_c, 0, 77, 49
1, 344633, Note_on_c, 0, 77, 0
1, 344640, Note_on_c, 0, 69, 49
1, 344640, Note_on_c, 0, 73, 49
1, 344640, Note_on_c, 0, 78, 49
1, 344867, Note_on_c, 0, 69, 0
1, 344867, Note_on_c, 0, 73, 0
1, 344867, Note_on_c, 0, 78, 0
1, 344880, Note_on_c, 0, 71, 49
1, 344880, Note_on_c, 0, 74, 49
1, 344880, Note_on_c, 0, 80, 49
1, 344999, Note_on_c, 0, 71, 0
1, 344999, Note_on_c, 0, 74, 0
1, 344999, Note_on_c, 0, 80, 0
1, 345120, Note_on_c, 0, 77, 49
1, 345239, Note_on_c, 0, 77, 0
1, 345360, Note_on_c, 0, 69, 49
1, 345360, Note_on_c, 0, 73, 49
1, 345360, Note_on_c, 0, 78, 49
1, 345479, Note_on_c, 0, 69, 0
1, 345479, Note_on_c, 0, 73, 0
1, 345479, Note_on_c, 0, 78, 0
1, 345600, Note_on_c, 0, 71, 49
1, 345600, Note_on_c, 0, 74, 49
1, 345600, Note_on_c, 0, 80, 49
1, 345719, Note_on_c, 0, 71, 0
1, 345719, Note_on_c, 0, 74, 0
1, 345719, Note_on_c, 0, 80, 0
1, 345840, Note_on_c, 0, 77, 49
1, 345959, Note_on_c, 0, 77, 0
1, 346080, Note_on_c, 0, 69, 49
1, 346080, Note_on_c, 0, 73, 49
1, 346080, Note_on_c, 0, 78, 49
1, 346199, Note_on_c, 0, 69, 0
1, 346199, Note_on_c, 0, 73, 0
1, 346199, Note_on_c, 0, 78, 0
1, 346320, Note_on_c, 0, 71, 49
1, 346320, Note_on_c, 0, 74, 49
1, 346320, Note_on_c, 0, 80, 49
1, 346439, Note_on_c, 0, 71, 0
1, 346439, Note_on_c, 0, 74, 0
1, 346439, Note_on_c, 0, 80, 0
1, 346800, Note_on_c, 0, 73, 96
1, 347027, Note_on_c, 0, 73, 0
1, 347040, Note_on_c, 0, 78, 115
1, 347280, Note_on_c, 0, 76, 96
1, 347399, Note_on_c, 0, 76, 0
1, 347520, Note_on_c, 0, 74, 96
1, 347639, Note_on_c, 0, 74, 0
1, 347760, Note_on_c, 0, 73, 96
1, 347879, Note_on_c, 0, 73, 0
1, 348000, Note_on_c, 0, 74, 96
1, 348119, Note_on_c, 0, 74, 0
1, 348240, Note_on_c, 0, 71, 96
1, 348359, Note_on_c, 0, 71, 0
1, 348479, Note_on_c, 0, 78, 0
1, 348480, Note_on_c, 0, 73, 115
1, 348720, Note_on_c, 0, 71, 96
1, 348839, Note_on_c, 0, 71, 0
1, 348960, Note_on_c, 0, 69, 96
1, 349079, Note_on_c, 0, 69, 0
1, 349200, Note_on_c, 0, 68, 96
1, 349319, Note_on_c, 0, 68, 0
1, 349440, Note_on_c, 0, 69, 96
1, 349559, Note_on_c, 0, 69, 0
1, 349680, Note_on_c, 0, 66, 96
1, 349799, Note_on_c, 0, 66, 0
1, 349919, Note_on_c, 0, 73, 0
1, 349920, Note_on_c, 0, 68, 115
1, 350160, Note_on_c, 0, 66, 96
1, 350279, Note_on_c, 0, 66, 0
1, 350400, Note_on_c, 0, 65, 96
1, 350519, Note_on_c, 0, 65, 0
1, 350640, Note_on_c, 0, 63, 96
1, 350759, Note_on_c, 0, 63, 0
1, 350880, Note_on_c, 0, 65, 96
1, 350999, Note_on_c, 0, 65, 0
1, 351120, Note_on_c, 0, 61, 91
1, 351239, Note_on_c, 0, 61, 0
1, 351360, Note_on_c, 0, 62, 85
1, 351479, Note_on_c, 0, 62, 0
1, 351600, Note_on_c, 0, 59, 79
1, 351719, Note_on_c, 0, 59, 0
1, 351815, Note_on_c, 0, 68, 0
1, 351840, Note_on_c, 0, 57, 73
1, 351959, Note_on_c, 0, 57, 0
1, 352080, Note_on_c, 0, 59, 67
1, 352199, Note_on_c, 0, 59, 0
1, 352320, Note_on_c, 0, 56, 61
1, 352439, Note_on_c, 0, 56, 0
1, 352800, Note_on_c, 0, 78, 49
1, 352800, Note_on_c, 0, 81, 49
1, 352800, Note_on_c, 0, 85, 49
1, 353027, Note_on_c, 0, 78, 0
1, 353027, Note_on_c, 0, 81, 0
1, 353027, Note_on_c, 0, 85, 0
1, 353160, Note_on_c, 0, 80, 49
1, 353160, Note_on_c, 0, 83, 49
1, 353273, Note_on_c, 0, 80, 0
1, 353273, Note_on_c, 0, 83, 0
1, 353280, Note_on_c, 0, 78, 49
1, 353280, Note_on_c, 0, 81, 49
1, 353280, Note_on_c, 0, 85, 49
1, 353507, Note_on_c, 0, 78, 0
1, 353507, Note_on_c, 0, 81, 0
1, 353507, Note_on_c, 0, 85, 0
1, 353520, Note_on_c, 0, 78, 49
1, 353520, Note_on_c, 0, 83, 49
1, 353520, Note_on_c, 0, 86, 49
1, 353639, Note_on_c, 0, 78, 0
1, 353639, Note_on_c, 0, 83, 0
1, 353639, Note_on_c, 0, 86, 0
1, 353760, Note_on_c, 0, 78, 49
1, 353760, Note_on_c, 0, 80, 49
1, 353760, Note_on_c, 0, 83, 49
1, 353879, Note_on_c, 0, 78, 0
1, 353879, Note_on_c, 0, 80, 0
1, 353879, Note_on_c, 0, 83, 0
1, 354000, Note_on_c, 0, 78, 49
1, 354000, Note_on_c, 0, 81, 49
1, 354000, Note_on_c, 0, 85, 49
1, 354119, Note_on_c, 0, 78, 0
1, 354119, Note_on_c, 0, 81, 0
1, 354119, Note_on_c, 0, 85, 0
1, 354240, Note_on_c, 0, 73, 49
1, 354240, Note_on_c, 0, 78, 49
1, 354240, Note_on_c, 0, 81, 49
1, 354467, Note_on_c, 0, 73, 0
1, 354467, Note_on_c, 0, 78, 0
1, 354467, Note_on_c, 0, 81, 0
1, 354600, Note_on_c, 0, 80, 49
1, 354713, Note_on_c, 0, 80, 0
1, 354720, Note_on_c, 0, 73, 49
1, 354720, Note_on_c, 0, 78, 49
1, 354720, Note_on_c, 0, 81, 49
1, 354947, Note_on_c, 0, 73, 0
1, 354947, Note_on_c, 0, 78, 0
1, 354947, Note_on_c, 0, 81, 0
1, 354960, Note_on_c, 0, 74, 49
1, 354960, Note_on_c, 0, 80, 49
1, 354960, Note_on_c, 0, 83, 49
1, 355079, Note_on_c, 0, 74, 0
1, 355079, Note_on_c, 0, 80, 0
1, 355079, Note_on_c, 0, 83, 0
1, 355200, Note_on_c, 0, 71, 49
1, 355200, Note_on_c, 0, 77, 49
1, 355200, Note_on_c, 0, 80, 49
1, 355319, Note_on_c, 0, 71, 0
1, 355319, Note_on_c, 0, 77, 0
1, 355319, Note_on_c, 0, 80, 0
1, 355440, Note_on_c, 0, 73, 49
1, 355440, Note_on_c, 0, 78, 49
1, 355440, Note_on_c, 0, 81, 49
1, 355559, Note_on_c, 0, 73, 0
1, 355559, Note_on_c, 0, 78, 0
1, 355559, Note_on_c, 0, 81, 0
1, 355680, Note_on_c, 0, 69, 49
1, 355680, Note_on_c, 0, 73, 49
1, 355680, Note_on_c, 0, 78, 49
1, 355907, Note_on_c, 0, 69, 0
1, 355907, Note_on_c, 0, 73, 0
1, 355907, Note_on_c, 0, 78, 0
1, 356040, Note_on_c, 0, 77, 49
1, 356153, Note_on_c, 0, 77, 0
1, 356160, Note_on_c, 0, 69, 49
1, 356160, Note_on_c, 0, 73, 49
1, 356160, Note_on_c, 0, 78, 49
1, 356387, Note_on_c, 0, 69, 0
1, 356387, Note_on_c, 0, 73, 0
1, 356387, Note_on_c, 0, 78, 0
1, 356400, Note_on_c, 0, 71, 49
1, 356400, Note_on_c, 0, 74, 49
1, 356400, Note_on_c, 0, 80, 49
1, 356519, Note_on_c, 0, 71, 0
1, 356519, Note_on_c, 0, 74, 0
1, 356519, Note_on_c, 0, 80, 0
1, 356640, Note_on_c, 0, 77, 49
1, 356759, Note_on_c, 0, 77, 0
1, 356880, Note_on_c, 0, 69, 49
1, 356880, Note_on_c, 0, 73, 49
1, 356880, Note_on_c, 0, 78, 49
1, 356999, Note_on_c, 0, 69, 0
1, 356999, Note_on_c, 0, 73, 0
1, 356999, Note_on_c, 0, 78, 0
1, 357120, Note_on_c, 0, 71, 49
1, 357120, Note_on_c, 0, 74, 49
1, 357120, Note_on_c, 0, 80, 49
1, 357239, Note_on_c, 0, 71, 0
1, 357239, Note_on_c, 0, 74, 0
1, 357239, Note_on_c, 0, 80, 0
1, 357360, Note_on_c, 0, 77, 49
1, 357479, Note_on_c, 0, 77, 0
1, 357600, Note_on_c, 0, 69, 49
1, 357600, Note_on_c, 0, 73, 49
1, 357600, Note_on_c, 0, 78, 49
1, 357719, Note_on_c, 0, 69, 0
1, 357719, Note_on_c, 0, 73, 0
1, 357719, Note_on_c, 0, 78, 0
1, 357840, Note_on_c, 0, 71, 49
1, 357840, Note_on_c, 0, 74, 49
1, 357840, Note_on_c, 0, 80, 49
1, 357959, Note_on_c, 0, 71, 0
1, 357959, Note_on_c, 0, 74, 0
1, 357959, Note_on_c, 0, 80, 0
1, 358320, Note_on_c, 0, 73, 96
1, 358547, Note_on_c, 0, 73, 0
1, 358560, Note_on_c, 0, 78, 115
1, 358560, Note_on_c, 0, 81, 115
1, 358800, Note_on_c, 0, 76, 96
1, 358919, Note_on_c, 0, 76, 0
1, 359040, Note_on_c, 0, 74, 96
1, 359159, Note_on_c, 0, 74, 0
1, 359280, Note_on_c, 0, 73, 96
1, 359399, Note_on_c, 0, 73, 0
1, 359520, Note_on_c, 0, 74, 96
1, 359639, Note_on_c, 0, 74, 0
1, 359760, Note_on_c, 0, 72, 96
1, 359879, Note_on_c, 0, 72, 0
1, 360000, Note_on_c, 0, 73, 96
1, 360119, Note_on_c, 0, 73, 0
1, 360240, Note_on_c, 0, 69, 87
1, 360455, Note_on_c, 0, 78, 0
1, 360455, Note_on_c, 0, 81, 0
1, 360455, Note_on_c, 0, 69, 0
1, 360480, Note_on_c, 0, 71, 78
1, 360599, Note_on_c, 0, 71, 0
1, 360720, Note_on_c, 0, 68, 68
1, 360839, Note_on_c, 0, 68, 0
1, 360960, Note_on_c, 0, 69, 59
1, 361079, Note_on_c, 0, 69, 0
1, 361200, Note_on_c, 0, 66, 49
1, 361319, Note_on_c, 0, 66, 0
1, 361440, Note_on_c, 0, 78, 115
1, 361440, Note_on_c, 0, 81, 115
1, 361680, Note_on_c, 0, 76, 96
1, 361799, Note_on_c, 0, 76, 0
1, 361920, Note_on_c, 0, 74, 96
1, 362039, Note_on_c, 0, 74, 0
1, 362160, Note_on_c, 0, 73, 96
1, 362279, Note_on_c, 0, 73, 0
1, 362400, Note_on_c, 0, 74, 96
1, 362519, Note_on_c, 0, 74, 0
1, 362640, Note_on_c, 0, 72, 96
1, 362759, Note_on_c, 0, 72, 0
1, 362880, Note_on_c, 0, 73, 96
1, 362999, Note_on_c, 0, 73, 0
1, 363120, Note_on_c, 0, 69, 87
1, 363335, Note_on_c, 0, 78, 0
1, 363335, Note_on_c, 0, 81, 0
1, 363335, Note_on_c, 0, 69, 0
1, 363360, Note_on_c, 0, 71, 78
1, 363479, Note_on_c, 0, 71, 0
1, 363600, Note_on_c, 0, 68, 68
1, 363719, Note_on_c, 0, 68, 0
1, 363840, Note_on_c, 0, 69, 59
1, 363959, Note_on_c, 0, 69, 0
1, 364080, Note_on_c, 0, 66, 49
1, 364199, Note_on_c, 0, 66, 0
1, 364320, Note_on_c, 0, 73, 115
1, 364320, Note_on_c, 0, 76, 115
1, 364560, Note_on_c, 0, 71, 96
1, 364679, Note_on_c, 0, 71, 0
1, 364800, Note_on_c, 0, 69, 96
1, 364919, Note_on_c, 0, 69, 0
1, 365040, Note_on_c, 0, 68, 96
1, 365159, Note_on_c, 0, 68, 0
1, 365280, Note_on_c, 0, 69, 96
1, 365399, Note_on_c, 0, 69, 0
1, 365520, Note_on_c, 0, 67, 96
1, 365639, Note_on_c, 0, 67, 0
1, 365759, Note_on_c, 0, 73, 0
1, 365759, Note_on_c, 0, 76, 0
1, 365760, Note_on_c, 0, 73, 115
1, 365760, Note_on_c, 0, 76, 115
1, 366000, Note_on_c, 0, 71, 96
1, 366119, Note_on_c, 0, 71, 0
1, 366240, Note_on_c, 0, 69, 96
1, 366359, Note_on_c, 0, 69, 0
1, 366480, Note_on_c, 0, 68, 96
1, 366599, Note_on_c, 0, 68, 0
1, 366720, Note_on_c, 0, 69, 96
1, 366839, Note_on_c, 0, 69, 0
1, 366960, Note_on_c, 0, 67, 96
1, 367079, Note_on_c, 0, 67, 0
1, 367200, Note_on_c, 0, 68, 96
1, 367319, Note_on_c, 0, 68, 0
1, 367440, Note_on_c, 0, 69, 89
1, 367559, Note_on_c, 0, 69, 0
1, 367680, Note_on_c, 0, 67, 81
1, 367799, Note_on_c, 0, 67, 0
1, 367920, Note_on_c, 0, 68, 73
1, 368039, Note_on_c, 0, 68, 0
1, 368160, Note_on_c, 0, 69, 65
1, 368279, Note_on_c, 0, 69, 0
1, 368400, Note_on_c, 0, 67, 57
1, 368519, Note_on_c, 0, 67, 0
1, 368567, Note_on_c, 0, 73, 0
1, 368567, Note_on_c, 0, 76, 0
1, 368640, Note_on_c, 0, 66, 49
1, 368640, Note_on_c, 0, 68, 49
1, 368640, Note_on_c, 0, 72, 49
1, 368867, Note_on_c, 0, 66, 0
1, 368867, Note_on_c, 0, 68, 0
1, 368867, Note_on_c, 0, 72, 0
1, 369360, Note_on_c, 0, 65, 49
1, 369360, Note_on_c, 0, 68, 49
1, 369360, Note_on_c, 0, 73, 49
1, 369587, Note_on_c, 0, 65, 0
1, 369587, Note_on_c, 0, 68, 0
1, 369587, Note_on_c, 0, 73, 0
1, 370080, Note_on_c, 0, 69, 96
1, 370080, Note_on_c, 0, 73, 96
1, 370307, Note_on_c, 0, 69, 0
1, 370307, Note_on_c, 0, 73, 0
1, 370440, Note_on_c, 0, 68, 96
1, 370440, Note_on_c, 0, 71, 96
1, 370553, Note_on_c, 0, 68, 0
1, 370553, Note_on_c, 0, 71, 0
1, 370560, Note_on_c, 0, 69, 96
1, 370560, Note_on_c, 0, 73, 96
1, 370787, Note_on_c, 0, 69, 0
1, 370787, Note_on_c, 0, 73, 0
1, 370800, Note_on_c, 0, 71, 96
1, 370800, Note_on_c, 0, 74, 96
1, 370919, Note_on_c, 0, 71, 0
1, 370919, Note_on_c, 0, 74, 0
1, 371040, Note_on_c, 0, 68, 96
1, 371040, Note_on_c, 0, 71, 96
1, 371159, Note_on_c, 0, 68, 0
1, 371159, Note_on_c, 0, 71, 0
1, 371280, Note_on_c, 0, 71, 96
1, 371280, Note_on_c, 0, 74, 96
1, 371280, Note_on_c, 0, 80, 96
1, 371399, Note_on_c, 0, 71, 0
1, 371399, Note_on_c, 0, 74, 0
1, 371399, Note_on_c, 0, 80, 0
1, 371520, Note_on_c, 0, 69, 115
1, 371520, Note_on_c, 0, 73, 115
1, 371520, Note_on_c, 0, 78, 115
1, 372239, Note_on_c, 0, 69, 0
1, 372239, Note_on_c, 0, 73, 0
1, 372239, Note_on_c, 0, 78, 0
1, 372240, Note_on_c, 0, 68, 96
1, 372240, Note_on_c, 0, 73, 96
1, 372240, Note_on_c, 0, 77, 96
1, 372467, Note_on_c, 0, 68, 0
1, 372467, Note_on_c, 0, 73, 0
1, 372467, Note_on_c, 0, 77, 0
1, 372960, Note_on_c, 0, 69, 96
1, 372960, Note_on_c, 0, 73, 96
1, 373187, Note_on_c, 0, 69, 0
1, 373187, Note_on_c, 0, 73, 0
1, 373320, Note_on_c, 0, 68, 96
1, 373320, Note_on_c, 0, 71, 96
1, 373433, Note_on_c, 0, 68, 0
1, 373433, Note_on_c, 0, 71, 0
1, 373440, Note_on_c, 0, 69, 96
1, 373440, Note_on_c, 0, 73, 96
1, 373667, Note_on_c, 0, 69, 0
1, 373667, Note_on_c, 0, 73, 0
1, 373680, Note_on_c, 0, 71, 96
1, 373680, Note_on_c, 0, 74, 96
1, 373799, Note_on_c, 0, 71, 0
1, 373799, Note_on_c, 0, 74, 0
1, 373920, Note_on_c, 0, 68, 96
1, 373920, Note_on_c, 0, 71, 96
1, 374039, Note_on_c, 0, 68, 0
1, 374039, Note_on_c, 0, 71, 0
1, 374160, Note_on_c, 0, 71, 96
1, 374160, Note_on_c, 0, 74, 96
1, 374160, Note_on_c, 0, 80, 96
1, 374279, Note_on_c, 0, 71, 0
1, 374279, Note_on_c, 0, 74, 0
1, 374279, Note_on_c, 0, 80, 0
1, 374400, Note_on_c, 0, 69, 115
1, 374400, Note_on_c, 0, 73, 115
1, 374400, Note_on_c, 0, 78, 115
1, 375119, Note_on_c, 0, 69, 0
1, 375119, Note_on_c, 0, 73, 0
1, 375119, Note_on_c, 0, 78, 0
1, 375120, Note_on_c, 0, 68, 96
1, 375120, Note_on_c, 0, 73, 96
1, 375120, Note_on_c, 0, 77, 96
1, 375347, Note_on_c, 0, 68, 0
1, 375347, Note_on_c, 0, 73, 0
1, 375347, Note_on_c, 0, 77, 0
1, 375840, Note_on_c, 0, 62, 96
1, 375840, Note_on_c, 0, 66, 96
1, 376067, Note_on_c, 0, 62, 0
1, 376067, Note_on_c, 0, 66, 0
1, 376200, Note_on_c, 0, 61, 96
1, 376200, Note_on_c, 0, 64, 96
1, 376313, Note_on_c, 0, 61, 0
1, 376313, Note_on_c, 0, 64, 0
1, 376320, Note_on_c, 0, 62, 96
1, 376320, Note_on_c, 0, 66, 96
1, 376547, Note_on_c, 0, 62, 0
1, 376547, Note_on_c, 0, 66, 0
1, 376560, Note_on_c, 0, 64, 96
1, 376560, Note_on_c, 0, 67, 96
1, 376679, Note_on_c, 0, 64, 0
1, 376679, Note_on_c, 0, 67, 0
1, 376800, Note_on_c, 0, 61, 96
1, 376800, Note_on_c, 0, 64, 96
1, 376919, Note_on_c, 0, 61, 0
1, 376919, Note_on_c, 0, 64, 0
1, 377040, Note_on_c, 0, 64, 96
1, 377040, Note_on_c, 0, 67, 96
1, 377040, Note_on_c, 0, 73, 96
1, 377159, Note_on_c, 0, 64, 0
1, 377159, Note_on_c, 0, 67, 0
1, 377159, Note_on_c, 0, 73, 0
1, 377280, Note_on_c, 0, 62, 115
1, 377280, Note_on_c, 0, 66, 115
1, 377280, Note_on_c, 0, 71, 115
1, 377999, Note_on_c, 0, 62, 0
1, 377999, Note_on_c, 0, 66, 0
1, 377999, Note_on_c, 0, 71, 0
1, 378000, Note_on_c, 0, 61, 96
1, 378000, Note_on_c, 0, 66, 96
1, 378000, Note_on_c, 0, 70, 96
1, 378227, Note_on_c, 0, 61, 0
1, 378227, Note_on_c, 0, 66, 0
1, 378227, Note_on_c, 0, 70, 0
1, 378720, Note_on_c, 0, 62, 96
1, 378720, Note_on_c, 0, 66, 96
1, 378947, Note_on_c, 0, 62, 0
1, 378947, Note_on_c, 0, 66, 0
1, 379080, Note_on_c, 0, 61, 96
1, 379080, Note_on_c, 0, 64, 96
1, 379193, Note_on_c, 0, 61, 0
1, 379193, Note_on_c, 0, 64, 0
1, 379200, Note_on_c, 0, 62, 96
1, 379200, Note_on_c, 0, 66, 96
1, 379427, Note_on_c, 0, 62, 0
1, 379427, Note_on_c, 0, 66, 0
1, 379440, Note_on_c, 0, 64, 96
1, 379440, Note_on_c, 0, 67, 96
1, 379559, Note_on_c, 0, 64, 0
1, 379559, Note_on_c, 0, 67, 0
1, 379680, Note_on_c, 0, 61, 96
1, 379680, Note_on_c, 0, 64, 96
1, 379799, Note_on_c, 0, 61, 0
1, 379799, Note_on_c, 0, 64, 0
1, 379920, Note_on_c, 0, 64, 96
1, 379920, Note_on_c, 0, 67, 96
1, 379920, Note_on_c, 0, 73, 96
1, 380039, Note_on_c, 0, 64, 0
1, 380039, Note_on_c, 0, 67, 0
1, 380039, Note_on_c, 0, 73, 0
1, 380160, Note_on_c, 0, 62, 115
1, 380160, Note_on_c, 0, 66, 115
1, 380160, Note_on_c, 0, 71, 115
1, 380879, Note_on_c, 0, 62, 0
1, 380879, Note_on_c, 0, 66, 0
1, 380879, Note_on_c, 0, 71, 0
1, 380880, Note_on_c, 0, 61, 96
1, 380880, Note_on_c, 0, 70, 96
1, 381107, Note_on_c, 0, 61, 0
1, 381107, Note_on_c, 0, 70, 0
1, 381360, Note_on_c, 0, 64, 96
1, 381360, Note_on_c, 0, 67, 96
1, 381360, Note_on_c, 0, 73, 96
1, 381587, Note_on_c, 0, 64, 0
1, 381587, Note_on_c, 0, 67, 0
1, 381587, Note_on_c, 0, 73, 0
1, 381600, Note_on_c, 0, 62, 115
1, 381600, Note_on_c, 0, 66, 115
1, 381600, Note_on_c, 0, 71, 115
1, 382319, Note_on_c, 0, 62, 0
1, 382319, Note_on_c, 0, 66, 0
1, 382319, Note_on_c, 0, 71, 0
1, 382320, Note_on_c, 0, 61, 96
1, 382320, Note_on_c, 0, 70, 96
1, 382547, Note_on_c, 0, 61, 0
1, 382547, Note_on_c, 0, 70, 0
1, 382800, Note_on_c, 0, 66, 96
1, 382800, Note_on_c, 0, 74, 96
1, 383027, Note_on_c, 0, 66, 0
1, 383027, Note_on_c, 0, 74, 0
1, 383040, Note_on_c, 0, 64, 115
1, 383040, Note_on_c, 0, 66, 115
1, 383040, Note_on_c, 0, 73, 115
1, 383759, Note_on_c, 0, 64, 0
1, 383759, Note_on_c, 0, 66, 0
1, 383759, Note_on_c, 0, 73, 0
1, 383760, Note_on_c, 0, 62, 96
1, 383760, Note_on_c, 0, 66, 96
1, 383760, Note_on_c, 0, 71, 96
1, 383987, Note_on_c, 0, 62, 0
1, 383987, Note_on_c, 0, 66, 0
1, 383987, Note_on_c, 0, 71, 0
1, 384240, Note_on_c, 0, 67, 96
1, 384240, Note_on_c, 0, 76, 96
1, 384467, Note_on_c, 0, 67, 0
1, 384467, Note_on_c, 0, 76, 0
1, 384480, Note_on_c, 0, 64, 115
1, 384480, Note_on_c, 0, 67, 115
1, 384480, Note_on_c, 0, 74, 115
1, 385199, Note_on_c, 0, 64, 0
1, 385199, Note_on_c, 0, 67, 0
1, 385199, Note_on_c, 0, 74, 0
1, 385200, Note_on_c, 0, 64, 96
1, 385200, Note_on_c, 0, 67, 96
1, 385200, Note_on_c, 0, 73, 96
1, 385427, Note_on_c, 0, 64, 0
1, 385427, Note_on_c, 0, 67, 0
1, 385427, Note_on_c, 0, 73, 0
1, 385680, Note_on_c, 0, 74, 96
1, 385680, Note_on_c, 0, 78, 96
1, 385907, Note_on_c, 0, 74, 0
1, 385907, Note_on_c, 0, 78, 0
1, 385920, Note_on_c, 0, 73, 115
1, 385920, Note_on_c, 0, 76, 115
1, 387359, Note_on_c, 0, 73, 0
1, 387359, Note_on_c, 0, 76, 0
1, 387360, Note_on_c, 0, 71, 71
1, 387360, Note_on_c, 0, 74, 71
1, 388499, Note_on_c, 0, 71, 0
1, 388499, Note_on_c, 0, 74, 0
1, 388560, Note_on_c, 0, 78, 49
1, 388787, Note_on_c, 0, 78, 0
1, 388800, Tempo, 357143
1, 388800, Note_on_c, 0, 68, 49
1, 388800, Note_on_c, 0, 71, 49
1, 388800, Note_on_c, 0, 76, 49
1, 390239, Note_on_c, 0, 76, 0
1, 390240, Tempo, 384615
1, 390240, Note_on_c, 0, 74, 49
1, 390960, Tempo, 476190
1, 391379, Note_on_c, 0, 74, 0
1, 391440, Tempo, 535713
1, 391440, Note_on_c, 0, 74, 49
1, 391607, Note_on_c, 0, 68, 0
1, 391607, Note_on_c, 0, 71, 0
1, 391667, Note_on_c, 0, 74, 0
1, 391680, Tempo, 312500
1, 391680, Note_on_c, 0, 74, 64
1, 391907, Note_on_c, 0, 74, 0
1, 391920, Note_on_c, 0, 61, 64
1, 391920, Note_on_c, 0, 68, 64
1, 392147, Note_on_c, 0, 61, 0
1, 392147, Note_on_c, 0, 68, 0
1, 392160, Note_on_c, 0, 73, 64
1, 392387, Note_on_c, 0, 73, 0
1, 392400, Note_on_c, 0, 73, 64
1, 392627, Note_on_c, 0, 73, 0
1, 392640, Note_on_c, 0, 61, 64
1, 392640, Note_on_c, 0, 68, 64
1, 392867, Note_on_c, 0, 61, 0
1, 392867, Note_on_c, 0, 68, 0
1, 392880, Note_on_c, 0, 71, 64
1, 393107, Note_on_c, 0, 71, 0
1, 393120, Note_on_c, 0, 71, 64
1, 393347, Note_on_c, 0, 71, 0
1, 393360, Note_on_c, 0, 61, 64
1, 393360, Note_on_c, 0, 66, 64
1, 393587, Note_on_c, 0, 61, 0
1, 393587, Note_on_c, 0, 66, 0
1, 393600, Note_on_c, 0, 69, 64
1, 393827, Note_on_c, 0, 69, 0
1, 393840, Note_on_c, 0, 69, 64
1, 394067, Note_on_c, 0, 69, 0
1, 394080, Note_on_c, 0, 61, 64
1, 394080, Note_on_c, 0, 66, 64
1, 394307, Note_on_c, 0, 61, 0
1, 394307, Note_on_c, 0, 66, 0
1, 394320, Note_on_c, 0, 78, 64
1, 394547, Note_on_c, 0, 78, 0
1, 394560, Note_on_c, 0, 78, 76
1, 394799, Note_on_c, 0, 78, 0
1, 394800, Note_on_c, 0, 64, 64
1, 394800, Note_on_c, 0, 71, 64
1, 395027, Note_on_c, 0, 64, 0
1, 395027, Note_on_c, 0, 71, 0
1, 395040, Note_on_c, 0, 76, 64
1, 395267, Note_on_c, 0, 76, 0
1, 395280, Note_on_c, 0, 76, 64
1, 395507, Note_on_c, 0, 76, 0
1, 395520, Note_on_c, 0, 64, 64
1, 395520, Note_on_c, 0, 71, 64
1, 395747, Note_on_c, 0, 64, 0
1, 395747, Note_on_c, 0, 71, 0
1, 395760, Note_on_c, 0, 74, 64
1, 395987, Note_on_c, 0, 74, 0
1, 396000, Note_on_c, 0, 74, 64
1, 396227, Note_on_c, 0, 74, 0
1, 396240, Note_on_c, 0, 64, 64
1, 396240, Note_on_c, 0, 69, 64
1, 396467, Note_on_c, 0, 64, 0
1, 396467, Note_on_c, 0, 69, 0
1, 396480, Note_on_c, 0, 73, 64
1, 396707, Note_on_c, 0, 73, 0
1, 396720, Note_on_c, 0, 73, 64
1, 396947, Note_on_c, 0, 73, 0
1, 396960, Note_on_c, 0, 64, 64
1, 396960, Note_on_c, 0, 69, 64
1, 397187, Note_on_c, 0, 64, 0
1, 397187, Note_on_c, 0, 69, 0
1, 397200, Note_on_c, 0, 81, 64
1, 397427, Note_on_c, 0, 81, 0
1, 397440, Note_on_c, 0, 81, 76
1, 397679, Note_on_c, 0, 81, 0
1, 397680, Note_on_c, 0, 68, 64
1, 397680, Note_on_c, 0, 75, 64
1, 397907, Note_on_c, 0, 68, 0
1, 397907, Note_on_c, 0, 75, 0
1, 397920, Note_on_c, 0, 80, 64
1, 398147, Note_on_c, 0, 80, 0
1, 398160, Note_on_c, 0, 80, 64
1, 398387, Note_on_c, 0, 80, 0
1, 398400, Note_on_c, 0, 68, 64
1, 398400, Note_on_c, 0, 75, 64
1, 398627, Note_on_c, 0, 68, 0
1, 398627, Note_on_c, 0, 75, 0
1, 398640, Note_on_c, 0, 78, 64
1, 398867, Note_on_c, 0, 78, 0
1, 398880, Note_on_c, 0, 78, 64
1, 399107, Note_on_c, 0, 78, 0
1, 399120, Note_on_c, 0, 68, 64
1, 399120, Note_on_c, 0, 71, 64
1, 399347, Note_on_c, 0, 68, 0
1, 399347, Note_on_c, 0, 71, 0
1, 399360, Note_on_c, 0, 77, 64
1, 399587, Note_on_c, 0, 77, 0
1, 399600, Note_on_c, 0, 77, 64
1, 399827, Note_on_c, 0, 77, 0
1, 399840, Note_on_c, 0, 66, 64
1, 399840, Note_on_c, 0, 69, 64
1, 400067, Note_on_c, 0, 66, 0
1, 400067, Note_on_c, 0, 69, 0
1, 400080, Note_on_c, 0, 78, 64
1, 400307, Note_on_c, 0, 78, 0
1, 400320, Note_on_c, 0, 78, 64
1, 400547, Note_on_c, 0, 78, 0
1, 400560, Note_on_c, 0, 66, 63
1, 400560, Note_on_c, 0, 68, 63
1, 400787, Note_on_c, 0, 66, 0
1, 400787, Note_on_c, 0, 68, 0
1, 400800, Note_on_c, 0, 74, 63
1, 401027, Note_on_c, 0, 74, 0
1, 401040, Note_on_c, 0, 74, 63
1, 401267, Note_on_c, 0, 74, 0
1, 401280, Note_on_c, 0, 65, 62
1, 401280, Note_on_c, 0, 68, 62
1, 401507, Note_on_c, 0, 65, 0
1, 401507, Note_on_c, 0, 68, 0
1, 401520, Note_on_c, 0, 73, 62
1, 401747, Note_on_c, 0, 73, 0
1, 401760, Note_on_c, 0, 73, 62
1, 401987, Note_on_c, 0, 73, 0
1, 402000, Note_on_c, 0, 61, 61
1, 402000, Note_on_c, 0, 66, 61
1, 402227, Note_on_c, 0, 61, 0
1, 402227, Note_on_c, 0, 66, 0
1, 402240, Note_on_c, 0, 69, 61
1, 402467, Note_on_c, 0, 69, 0
1, 402480, Note_on_c, 0, 69, 61
1, 402707, Note_on_c, 0, 69, 0
1, 402720, Note_on_c, 0, 61, 60
1, 402720, Note_on_c, 0, 66, 60
1, 402947, Note_on_c, 0, 61, 0
1, 402947, Note_on_c, 0, 66, 0
1, 402960, Note_on_c, 0, 74, 60
1, 403187, Note_on_c, 0, 74, 0
1, 403200, Note_on_c, 0, 74, 72
1, 403439, Note_on_c, 0, 74, 0
1, 403440, Note_on_c, 0, 61, 59
1, 403440, Note_on_c, 0, 68, 59
1, 403667, Note_on_c, 0, 61, 0
1, 403667, Note_on_c, 0, 68, 0
1, 403680, Note_on_c, 0, 73, 59
1, 403907, Note_on_c, 0, 73, 0
1, 403920, Note_on_c, 0, 73, 59
1, 404147, Note_on_c, 0, 73, 0
1, 404160, Note_on_c, 0, 61, 59
1, 404160, Note_on_c, 0, 68, 59
1, 404387, Note_on_c, 0, 61, 0
1, 404387, Note_on_c, 0, 68, 0
1, 404400, Note_on_c, 0, 71, 58
1, 404627, Note_on_c, 0, 71, 0
1, 404640, Note_on_c, 0, 71, 58
1, 404867, Note_on_c, 0, 71, 0
1, 404880, Note_on_c, 0, 61, 58
1, 404880, Note_on_c, 0, 66, 58
1, 405107, Note_on_c, 0, 61, 0
1, 405107, Note_on_c, 0, 66, 0
1, 405120, Note_on_c, 0, 69, 57
1, 405347, Note_on_c, 0, 69, 0
1, 405360, Note_on_c, 0, 69, 57
1, 405587, Note_on_c, 0, 69, 0
1, 405600, Note_on_c, 0, 73, 57
1, 405827, Note_on_c, 0, 73, 0
1, 405840, Note_on_c, 0, 78, 56
1, 406067, Note_on_c, 0, 78, 0
1, 406080, Note_on_c, 0, 78, 67
1, 406319, Note_on_c, 0, 78, 0
1, 406320, Note_on_c, 0, 64, 56
1, 406320, Note_on_c, 0, 71, 56
1, 406547, Note_on_c, 0, 64, 0
1, 406547, Note_on_c, 0, 71, 0
1, 406560, Note_on_c, 0, 76, 55
1, 406787, Note_on_c, 0, 76, 0
1, 406800, Note_on_c, 0, 76, 55
1, 407027, Note_on_c, 0, 76, 0
1, 407040, Note_on_c, 0, 64, 55
1, 407040, Note_on_c, 0, 71, 55
1, 407267, Note_on_c, 0, 64, 0
1, 407267, Note_on_c, 0, 71, 0
1, 407280, Note_on_c, 0, 74, 54
1, 407507, Note_on_c, 0, 74, 0
1, 407520, Note_on_c, 0, 74, 54
1, 407747, Note_on_c, 0, 74, 0
1, 407760, Note_on_c, 0, 64, 54
1, 407760, Note_on_c, 0, 69, 54
1, 407987, Note_on_c, 0, 64, 0
1, 407987, Note_on_c, 0, 69, 0
1, 408000, Note_on_c, 0, 73, 54
1, 408227, Note_on_c, 0, 73, 0
1, 408240, Note_on_c, 0, 73, 53
1, 408467, Note_on_c, 0, 73, 0
1, 408480, Note_on_c, 0, 76, 53
1, 408707, Note_on_c, 0, 76, 0
1, 408720, Note_on_c, 0, 79, 53
1, 408947, Note_on_c, 0, 79, 0
1, 408960, Note_on_c, 0, 79, 62
1, 409199, Note_on_c, 0, 79, 0
1, 409200, Note_on_c, 0, 66, 52
1, 409200, Note_on_c, 0, 73, 52
1, 409427, Note_on_c, 0, 66, 0
1, 409427, Note_on_c, 0, 73, 0
1, 409440, Note_on_c, 0, 78, 52
1, 409667, Note_on_c, 0, 78, 0
1, 409680, Note_on_c, 0, 78, 51
1, 409907, Note_on_c, 0, 78, 0
1, 409920, Note_on_c, 0, 66, 51
1, 409920, Note_on_c, 0, 73, 51
1, 410147, Note_on_c, 0, 66, 0
1, 410147, Note_on_c, 0, 73, 0
1, 410160, Note_on_c, 0, 76, 51
1, 410387, Note_on_c, 0, 76, 0
1, 410400, Note_on_c, 0, 76, 50
1, 410627, Note_on_c, 0, 76, 0
1, 410640, Note_on_c, 0, 66, 50
1, 410640, Note_on_c, 0, 71, 50
1, 410867, Note_on_c, 0, 66, 0
1, 410867, Note_on_c, 0, 71, 0
1, 410880, Note_on_c, 0, 74, 50
1, 411107, Note_on_c, 0, 74, 0
1, 411120, Note_on_c, 0, 74, 49
1, 411347, Note_on_c, 0, 74, 0
1, 411360, Note_on_c, 0, 66, 51
1, 411360, Note_on_c, 0, 71, 51
1, 411587, Note_on_c, 0, 66, 0
1, 411587, Note_on_c, 0, 71, 0
1, 411600, Note_on_c, 0, 78, 54
1, 411827, Note_on_c, 0, 78, 0
1, 411840, Note_on_c, 0, 76, 56
1, 412067, Note_on_c, 0, 76, 0
1, 412080, Note_on_c, 0, 66, 59
1, 412080, Note_on_c, 0, 71, 59
1, 412307, Note_on_c, 0, 66, 0
1, 412307, Note_on_c, 0, 71, 0
1, 412320, Note_on_c, 0, 74, 62
1, 412547, Note_on_c, 0, 74, 0
1, 412560, Note_on_c, 0, 74, 64
1, 412787, Note_on_c, 0, 74, 0
1, 412800, Note_on_c, 0, 66, 67
1, 412800, Note_on_c, 0, 71, 67
1, 413027, Note_on_c, 0, 66, 0
1, 413027, Note_on_c, 0, 71, 0
1, 413040, Note_on_c, 0, 80, 69
1, 413267, Note_on_c, 0, 80, 0
1, 413280, Note_on_c, 0, 78, 72
1, 413507, Note_on_c, 0, 78, 0
1, 413520, Note_on_c, 0, 68, 75
1, 413520, Note_on_c, 0, 71, 75
1, 413747, Note_on_c, 0, 68, 0
1, 413747, Note_on_c, 0, 71, 0
1, 413760, Note_on_c, 0, 77, 77
1, 413987, Note_on_c, 0, 77, 0
1, 414000, Note_on_c, 0, 77, 80
1, 414227, Note_on_c, 0, 77, 0
1, 414240, Note_on_c, 0, 68, 82
1, 414240, Note_on_c, 0, 71, 82
1, 414467, Note_on_c, 0, 68, 0
1, 414467, Note_on_c, 0, 71, 0
1, 414480, Note_on_c, 0, 80, 85
1, 414707, Note_on_c, 0, 80, 0
1, 414720, Note_on_c, 0, 78, 88
1, 414947, Note_on_c, 0, 78, 0
1, 414960, Note_on_c, 0, 68, 90
1, 414960, Note_on_c, 0, 71, 90
1, 415187, Note_on_c, 0, 68, 0
1, 415187, Note_on_c, 0, 71, 0
1, 415200, Note_on_c, 0, 77, 93
1, 415427, Note_on_c, 0, 77, 0
1, 415440, Note_on_c, 0, 77, 96
1, 415667, Note_on_c, 0, 77, 0
1, 415680, Note_on_c, 0, 68, 96
1, 415680, Note_on_c, 0, 71, 96
1, 415907, Note_on_c, 0, 68, 0
1, 415907, Note_on_c, 0, 71, 0
1, 415920, Note_on_c, 0, 73, 96
1, 416147, Note_on_c, 0, 73, 0
1, 416160, Note_on_c, 0, 78, 96
1, 416399, Note_on_c, 0, 78, 0
1, 416400, Note_on_c, 0, 73, 96
1, 416627, Note_on_c, 0, 73, 0
1, 416640, Note_on_c, 0, 80, 96
1, 416759, Note_on_c, 0, 80, 0
1, 416880, Note_on_c, 0, 77, 96
1, 416999, Note_on_c, 0, 77, 0
1, 417120, Note_on_c, 0, 81, 96
1, 417239, Note_on_c, 0, 81, 0
1, 417360, Note_on_c, 0, 78, 96
1, 417479, Note_on_c, 0, 78, 0
1, 417600, Note_on_c, 0, 74, 115
1, 417600, Note_on_c, 0, 86, 115
1, 418319, Note_on_c, 0, 74, 0
1, 418319, Note_on_c, 0, 86, 0
1, 418320, Note_on_c, 0, 73, 96
1, 418320, Note_on_c, 0, 85, 96
1, 418547, Note_on_c, 0, 73, 0
1, 418547, Note_on_c, 0, 85, 0
1, 418800, Note_on_c, 0, 73, 96
1, 419027, Note_on_c, 0, 73, 0
1, 419040, Note_on_c, 0, 78, 96
1, 419279, Note_on_c, 0, 78, 0
1, 419280, Note_on_c, 0, 73, 96
1, 419507, Note_on_c, 0, 73, 0
1, 419520, Note_on_c, 0, 80, 96
1, 419639, Note_on_c, 0, 80, 0
1, 419760, Note_on_c, 0, 77, 96
1, 419879, Note_on_c, 0, 77, 0
1, 420000, Note_on_c, 0, 81, 96
1, 420119, Note_on_c, 0, 81, 0
1, 420240, Note_on_c, 0, 78, 96
1, 420359, Note_on_c, 0, 78, 0
1, 420480, Note_on_c, 0, 74, 115
1, 420480, Note_on_c, 0, 86, 115
1, 421199, Note_on_c, 0, 74, 0
1, 421199, Note_on_c, 0, 86, 0
1, 421200, Note_on_c, 0, 73, 96
1, 421200, Note_on_c, 0, 85, 96
1, 421427, Note_on_c, 0, 73, 0
1, 421427, Note_on_c, 0, 85, 0
1, 421680, Note_on_c, 0, 61, 96
1, 421907, Note_on_c, 0, 61, 0
1, 421920, Note_on_c, 0, 66, 96
1, 422159, Note_on_c, 0, 66, 0
1, 422160, Note_on_c, 0, 61, 96
1, 422387, Note_on_c, 0, 61, 0
1, 422400, Note_on_c, 0, 68, 96
1, 422519, Note_on_c, 0, 68, 0
1, 422640, Note_on_c, 0, 65, 96
1, 422759, Note_on_c, 0, 65, 0
1, 422880, Note_on_c, 0, 69, 96
1, 422999, Note_on_c, 0, 69, 0
1, 423120, Note_on_c, 0, 66, 96
1, 423239, Note_on_c, 0, 66, 0
1, 423360, Note_on_c, 0, 71, 96
1, 423599, Note_on_c, 0, 71, 0
1, 423600, Note_on_c, 0, 66, 96
1, 423827, Note_on_c, 0, 66, 0
1, 423840, Note_on_c, 0, 73, 96
1, 423959, Note_on_c, 0, 73, 0
1, 424080, Note_on_c, 0, 70, 96
1, 424199, Note_on_c, 0, 70, 0
1, 424320, Note_on_c, 0, 74, 97
1, 424439, Note_on_c, 0, 74, 0
1, 424560, Note_on_c, 0, 71, 98
1, 424679, Note_on_c, 0, 71, 0
1, 424800, Note_on_c, 0, 61, 99
1, 424800, Note_on_c, 0, 73, 99
1, 425039, Note_on_c, 0, 61, 0
1, 425039, Note_on_c, 0, 73, 0
1, 425040, Note_on_c, 0, 68, 100
1, 425267, Note_on_c, 0, 68, 0
1, 425280, Note_on_c, 0, 63, 101
1, 425280, Note_on_c, 0, 75, 101
1, 425399, Note_on_c, 0, 63, 0
1, 425399, Note_on_c, 0, 75, 0
1, 425520, Note_on_c, 0, 60, 102
1, 425520, Note_on_c, 0, 72, 102
1, 425639, Note_on_c, 0, 60, 0
1, 425639, Note_on_c, 0, 72, 0
1, 425760, Note_on_c, 0, 65, 103
1, 425760, Note_on_c, 0, 77, 103
1, 425879, Note_on_c, 0, 65, 0
1, 425879, Note_on_c, 0, 77, 0
1, 426000, Note_on_c, 0, 61, 104
1, 426000, Note_on_c, 0, 73, 104
1, 426119, Note_on_c, 0, 61, 0
1, 426119, Note_on_c, 0, 73, 0
1, 426240, Note_on_c, 0, 66, 105
1, 426240, Note_on_c, 0, 78, 105
1, 426479, Note_on_c, 0, 66, 0
1, 426479, Note_on_c, 0, 78, 0
1, 426480, Note_on_c, 0, 73, 106
1, 426707, Note_on_c, 0, 73, 0
1, 426720, Note_on_c, 0, 68, 107
1, 426720, Note_on_c, 0, 80, 107
1, 426839, Note_on_c, 0, 68, 0
1, 426839, Note_on_c, 0, 80, 0
1, 426960, Note_on_c, 0, 65, 108
1, 426960, Note_on_c, 0, 77, 108
1, 427079, Note_on_c, 0, 65, 0
1, 427079, Note_on_c, 0, 77, 0
1, 427200, Note_on_c, 0, 69, 109
1, 427200, Note_on_c, 0, 81, 109
1, 427319, Note_on_c, 0, 69, 0
1, 427319, Note_on_c, 0, 81, 0
1, 427440, Note_on_c, 0, 66, 110
1, 427440, Note_on_c, 0, 78, 110
1, 427559, Note_on_c, 0, 66, 0
1, 427559, Note_on_c, 0, 78, 0
1, 427680, Note_on_c, 0, 74, 112
1, 427680, Note_on_c, 0, 86, 112
1, 427799, Note_on_c, 0, 74, 0
1, 427799, Note_on_c, 0, 86, 0
1, 427920, Note_on_c, 0, 71, 112
1, 427920, Note_on_c, 0, 83, 112
1, 428039, Note_on_c, 0, 71, 0
1, 428039, Note_on_c, 0, 83, 0
1, 428160, Note_on_c, 0, 68, 112
1, 428160, Note_on_c, 0, 80, 112
1, 428279, Note_on_c, 0, 68, 0
1, 428279, Note_on_c, 0, 80, 0
1, 428400, Note_on_c, 0, 65, 112
1, 428400, Note_on_c, 0, 77, 112
1, 428519, Note_on_c, 0, 65, 0
1, 428519, Note_on_c, 0, 77, 0
1, 428640, Note_on_c, 0, 69, 112
1, 428640, Note_on_c, 0, 81, 112
1, 428759, Note_on_c, 0, 69, 0
1, 428759, Note_on_c, 0, 81, 0
1, 428880, Note_on_c, 0, 66, 112
1, 428880, Note_on_c, 0, 78, 112
1, 428999, Note_on_c, 0, 66, 0
1, 428999, Note_on_c, 0, 78, 0
1, 429120, Note_on_c, 0, 63, 112
1, 429120, Note_on_c, 0, 75, 112
1, 429239, Note_on_c, 0, 63, 0
1, 429239, Note_on_c, 0, 75, 0
1, 429360, Note_on_c, 0, 60, 112
1, 429360, Note_on_c, 0, 72, 112
1, 429479, Note_on_c, 0, 60, 0
1, 429479, Note_on_c, 0, 72, 0
1, 429600, Note_on_c, 0, 57, 112
1, 429600, Note_on_c, 0, 69, 112
1, 429719, Note_on_c, 0, 57, 0
1, 429719, Note_on_c, 0, 69, 0
1, 429840, Note_on_c, 0, 66, 112
1, 429840, Note_on_c, 0, 54, 112
1, 429959, Note_on_c, 0, 66, 0
1, 429959, Note_on_c, 0, 54, 0
1, 430080, Note_on_c, 0, 63, 112
1, 430080, Note_on_c, 0, 51, 112
1, 430199, Note_on_c, 0, 63, 0
1, 430199, Note_on_c, 0, 51, 0
1, 430320, Note_on_c, 0, 60, 112
1, 430320, Note_on_c, 0, 48, 112
1, 430439, Note_on_c, 0, 60, 0
1, 430439, Note_on_c, 0, 48, 0
1, 430560, Note_on_c, 0, 61, 112
1, 431243, Note_on_c, 0, 61, 0
1, 431280, Note_on_c, 0, 53, 113
1, 431280, Note_on_c, 0, 56, 113
1, 431280, Note_on_c, 0, 61, 113
1, 431280, Note_on_c, 0, 65, 113
1, 431963, Note_on_c, 0, 53, 0
1, 431963, Note_on_c, 0, 56, 0
1, 431963, Note_on_c, 0, 61, 0
1, 431963, Note_on_c, 0, 65, 0
1, 432000, Note_on_c, 0, 54, 115
1, 432000, Note_on_c, 0, 57, 115
1, 432000, Note_on_c, 0, 61, 115
1, 432000, Note_on_c, 0, 66, 115
1, 432683, Note_on_c, 0, 54, 0
1, 432683, Note_on_c, 0, 57, 0
1, 432683, Note_on_c, 0, 61, 0
1, 432683, Note_on_c, 0, 66, 0
1, 432720, Note_on_c, 0, 56, 117
1, 432720, Note_on_c, 0, 59, 117
1, 432720, Note_on_c, 0, 65, 117
1, 432720, Note_on_c, 0, 68, 117
1, 433403, Note_on_c, 0, 56, 0
1, 433403, Note_on_c, 0, 59, 0
1, 433403, Note_on_c, 0, 65, 0
1, 433403, Note_on_c, 0, 68, 0
1, 433440, Note_on_c, 0, 57, 119
1, 433440, Note_on_c, 0, 61, 119
1, 433440, Note_on_c, 0, 66, 119
1, 433440, Note_on_c, 0, 69, 119
1, 434123, Note_on_c, 0, 57, 0
1, 434123, Note_on_c, 0, 61, 0
1, 434123, Note_on_c, 0, 66, 0
1, 434123, Note_on_c, 0, 69, 0
1, 434160, Note_on_c, 0, 58, 119
1, 434160, Note_on_c, 0, 61, 119
1, 434160, Note_on_c, 0, 66, 119
1, 434160, Note_on_c, 0, 70, 119
1, 434843, Note_on_c, 0, 58, 0
1, 434843, Note_on_c, 0, 61, 0
1, 434843, Note_on_c, 0, 66, 0
1, 434843, Note_on_c, 0, 70, 0
1, 434880, Note_on_c, 0, 59, 119
1, 434880, Note_on_c, 0, 62, 119
1, 434880, Note_on_c, 0, 66, 119
1, 434880, Note_on_c, 0, 71, 119
1, 435563, Note_on_c, 0, 59, 0
1, 435563, Note_on_c, 0, 62, 0
1, 435563, Note_on_c, 0, 66, 0
1, 435563, Note_on_c, 0, 71, 0
1, 435600, Note_on_c, 0, 64, 119
1, 435600, Note_on_c, 0, 66, 119
1, 435600, Note_on_c, 0, 70, 119
1, 435600, Note_on_c, 0, 73, 119
1, 436283, Note_on_c, 0, 64, 0
1, 436283, Note_on_c, 0, 66, 0
1, 436283, Note_on_c, 0, 70, 0
1, 436283, Note_on_c, 0, 73, 0
1, 436320, Note_on_c, 0, 62, 119
1, 436320, Note_on_c, 0, 66, 119
1, 436320, Note_on_c, 0, 71, 119
1, 436320, Note_on_c, 0, 74, 119
1, 437003, Note_on_c, 0, 62, 0
1, 437003, Note_on_c, 0, 66, 0
1, 437003, Note_on_c, 0, 71, 0
1, 437003, Note_on_c, 0, 74, 0
1, 437040, Note_on_c, 0, 66, 119
1, 437040, Note_on_c, 0, 71, 119
1, 437040, Note_on_c, 0, 74, 119
1, 437040, Note_on_c, 0, 78, 119
1, 437723, Note_on_c, 0, 66, 0
1, 437723, Note_on_c, 0, 71, 0
1, 437723, Note_on_c, 0, 74, 0
1, 437723, Note_on_c, 0, 78, 0
1, 437760, Note_on_c, 0, 71, 119
1, 437760, Note_on_c, 0, 74, 119
1, 437760, Note_on_c, 0, 77, 119
1, 437760, Note_on_c, 0, 83, 119
1, 438443, Note_on_c, 0, 71, 0
1, 438443, Note_on_c, 0, 74, 0
1, 438443, Note_on_c, 0, 77, 0
1, 438443, Note_on_c, 0, 83, 0
1, 438480, Note_on_c, 0, 69, 119
1, 438480, Note_on_c, 0, 74, 119
1, 438480, Note_on_c, 0, 78, 119
1, 438480, Note_on_c, 0, 81, 119
1, 439163, Note_on_c, 0, 69, 0
1, 439163, Note_on_c, 0, 74, 0
1, 439163, Note_on_c, 0, 78, 0
1, 439163, Note_on_c, 0, 81, 0
1, 439200, Note_on_c, 0, 68, 119
1, 439200, Note_on_c, 0, 71, 119
1, 439200, Note_on_c, 0, 73, 119
1, 439200, Note_on_c, 0, 80, 119
1, 439883, Note_on_c, 0, 68, 0
1, 439883, Note_on_c, 0, 71, 0
1, 439883, Note_on_c, 0, 73, 0
1, 439883, Note_on_c, 0, 80, 0
1, 439920, Note_on_c, 0, 69, 119
1, 439920, Note_on_c, 0, 73, 119
1, 439920, Note_on_c, 0, 78, 119
1, 440603, Note_on_c, 0, 69, 0
1, 440603, Note_on_c, 0, 73, 0
1, 440603, Note_on_c, 0, 78, 0
1, 440640, Note_on_c, 0, 68, 119
1, 440640, Note_on_c, 0, 71, 119
1, 440640, Note_on_c, 0, 74, 119
1, 440640, Note_on_c, 0, 78, 119
1, 441323, Note_on_c, 0, 68, 0
1, 441323, Note_on_c, 0, 71, 0
1, 441323, Note_on_c, 0, 74, 0
1, 441323, Note_on_c, 0, 78, 0
1, 441360, Note_on_c, 0, 65, 119
1, 441360, Note_on_c, 0, 68, 119
1, 441360, Note_on_c, 0, 73, 119
1, 441360, Note_on_c, 0, 77, 119
1, 442043, Note_on_c, 0, 65, 0
1, 442043, Note_on_c, 0, 68, 0
1, 442043, Note_on_c, 0, 73, 0
1, 442043, Note_on_c, 0, 77, 0
1, 442080, Note_on_c, 0, 73, 119
1, 442080, Note_on_c, 0, 78, 119
1, 442080, Note_on_c, 0, 81, 119
1, 442080, Note_on_c, 0, 85, 119
1, 442307, Note_on_c, 0, 73, 0
1, 442307, Note_on_c, 0, 78, 0
1, 442307, Note_on_c, 0, 81, 0
1, 442307, Note_on_c, 0, 85, 0
1, 442440, Note_on_c, 0, 84, 119
1, 442553, Note_on_c, 0, 84, 0
1, 442560, Note_on_c, 0, 85, 119
1, 442787, Note_on_c, 0, 85, 0
1, 442800, Note_on_c, 0, 86, 119
1, 442919, Note_on_c, 0, 86, 0
1, 443040, Note_on_c, 0, 83, 119
1, 443159, Note_on_c, 0, 83, 0
1, 443280, Note_on_c, 0, 85, 119
1, 443399, Note_on_c, 0, 85, 0
1, 443520, Note_on_c, 0, 81, 119
1, 443747, Note_on_c, 0, 81, 0
1, 443880, Note_on_c, 0, 80, 119
1, 443993, Note_on_c, 0, 80, 0
1, 444000, Note_on_c, 0, 81, 119
1, 444227, Note_on_c, 0, 81, 0
1, 444240, Note_on_c, 0, 83, 119
1, 444359, Note_on_c, 0, 83, 0
1, 444480, Note_on_c, 0, 80, 119
1, 444599, Note_on_c, 0, 80, 0
1, 444720, Note_on_c, 0, 81, 119
1, 444839, Note_on_c, 0, 81, 0
1, 444960, Note_on_c, 0, 78, 119
1, 445187, Note_on_c, 0, 78, 0
1, 445320, Note_on_c, 0, 77, 119
1, 445433, Note_on_c, 0, 77, 0
1, 445440, Note_on_c, 0, 78, 119
1, 445667, Note_on_c, 0, 78, 0
1, 445680, Note_on_c, 0, 79, 119
1, 445680, Note_on_c, 0, 76, 119
1, 445799, Note_on_c, 0, 79, 0
1, 445920, Note_on_c, 0, 77, 119
1, 446039, Note_on_c, 0, 77, 0
1, 446160, Note_on_c, 0, 78, 119
1, 446279, Note_on_c, 0, 78, 0
1, 446363, Note_on_c, 0, 76, 0
1, 446400, Note_on_c, 0, 81, 119
1, 446400, Note_on_c, 0, 74, 119
1, 446519, Note_on_c, 0, 81, 0
1, 446640, Note_on_c, 0, 78, 119
1, 446759, Note_on_c, 0, 78, 0
1, 446880, Note_on_c, 0, 79, 119
1, 446999, Note_on_c, 0, 79, 0
1, 447083, Note_on_c, 0, 74, 0
1, 447120, Note_on_c, 0, 83, 119
1, 447120, Note_on_c, 0, 73, 119
1, 447239, Note_on_c, 0, 83, 0
1, 447360, Note_on_c, 0, 80, 119
1, 447479, Note_on_c, 0, 80, 0
1, 447600, Note_on_c, 0, 82, 119
1, 447719, Note_on_c, 0, 82, 0
1, 447803, Note_on_c, 0, 73, 0
1, 447840, Note_on_c, 0, 71, 119
1, 447840, Note_on_c, 0, 83, 119
1, 448067, Note_on_c, 0, 71, 0
1, 448067, Note_on_c, 0, 83, 0
1, 448200, Note_on_c, 0, 82, 119
1, 448313, Note_on_c, 0, 82, 0
1, 448320, Note_on_c, 0, 83, 119
1, 448547, Note_on_c, 0, 83, 0
1, 448560, Note_on_c, 0, 85, 119
1, 448560, Note_on_c, 0, 81, 119
1, 448679, Note_on_c, 0, 85, 0
1, 448800, Note_on_c, 0, 82, 119
1, 448919, Note_on_c, 0, 82, 0
1, 449040, Note_on_c, 0, 83, 119
1, 449159, Note_on_c, 0, 83, 0
1, 449243, Note_on_c, 0, 81, 0
1, 449280, Note_on_c, 0, 85, 119
1, 449280, Note_on_c, 0, 80, 119
1, 449399, Note_on_c, 0, 85, 0
1, 449520, Note_on_c, 0, 82, 119
1, 449639, Note_on_c, 0, 82, 0
1, 449760, Note_on_c, 0, 83, 119
1, 449879, Note_on_c, 0, 83, 0
1, 449963, Note_on_c, 0, 80, 0
1, 450000, Note_on_c, 0, 85, 119
1, 450000, Note_on_c, 0, 78, 119
1, 450119, Note_on_c, 0, 85, 0
1, 450240, Note_on_c, 0, 82, 119
1, 450359, Note_on_c, 0, 82, 0
1, 450480, Note_on_c, 0, 83, 119
1, 450599, Note_on_c, 0, 83, 0
1, 450683, Note_on_c, 0, 78, 0
1, 450720, Note_on_c, 0, 77, 119
1, 450947, Note_on_c, 0, 77, 0
1, 451080, Note_on_c, 0, 75, 119
1, 451193, Note_on_c, 0, 75, 0
1, 451200, Note_on_c, 0, 77, 119
1, 451427, Note_on_c, 0, 77, 0
1, 451440, Note_on_c, 0, 78, 119
1, 451667, Note_on_c, 0, 78, 0
1, 451800, Note_on_c, 0, 77, 119
1, 451913, Note_on_c, 0, 77, 0
1, 451920, Note_on_c, 0, 78, 119
1, 452147, Note_on_c, 0, 78, 0
1, 452160, Note_on_c, 0, 64, 119
1, 452160, Note_on_c, 0, 66, 119
1, 452160, Note_on_c, 0, 73, 119
1, 452387, Note_on_c, 0, 64, 0
1, 452387, Note_on_c, 0, 66, 0
1, 452387, Note_on_c, 0, 73, 0
1, 452520, Note_on_c, 0, 72, 119
1, 452633, Note_on_c, 0, 72, 0
1, 452640, Note_on_c, 0, 73, 119
1, 452867, Note_on_c, 0, 73, 0
1, 452880, Note_on_c, 0, 65, 119
1, 452880, Note_on_c, 0, 68, 119
1, 452880, Note_on_c, 0, 74, 119
1, 452999, Note_on_c, 0, 65, 0
1, 452999, Note_on_c, 0, 68, 0
1, 452999, Note_on_c, 0, 74, 0
1, 453120, Note_on_c, 0, 72, 119
1, 453239, Note_on_c, 0, 72, 0
1, 453360, Note_on_c, 0, 73, 119
1, 453479, Note_on_c, 0, 73, 0
1, 453600, Note_on_c, 0, 66, 112
1, 454055, Note_on_c, 0, 66, 0
1, 454320, Note_on_c, 0, 67, 112
1, 454320, Note_on_c, 0, 70, 112
1, 454320, Note_on_c, 0, 73, 112
1, 454320, Note_on_c, 0, 76, 112
1, 454547, Note_on_c, 0, 67, 0
1, 454547, Note_on_c, 0, 70, 0
1, 454547, Note_on_c, 0, 73, 0
1, 454547, Note_on_c, 0, 76, 0
1, 454680, Note_on_c, 0, 75, 112
1, 454793, Note_on_c, 0, 75, 0
1, 454800, Note_on_c, 0, 76, 112
1, 455027, Note_on_c, 0, 76, 0
1, 455760, Note_on_c, 0, 66, 112
1, 455760, Note_on_c, 0, 71, 112
1, 455760, Note_on_c, 0, 75, 112
1, 455987, Note_on_c, 0, 66, 0
1, 455987, Note_on_c, 0, 71, 0
1, 455987, Note_on_c, 0, 75, 0
1, 456120, Note_on_c, 0, 74, 112
1, 456233, Note_on_c, 0, 74, 0
1, 456240, Note_on_c, 0, 75, 112
1, 456467, Note_on_c, 0, 75, 0
1, 457200, Note_on_c, 0, 65, 112
1, 457200, Note_on_c, 0, 68, 112
1, 457200, Note_on_c, 0, 71, 112
1, 457200, Note_on_c, 0, 74, 112
1, 457427, Note_on_c, 0, 65, 0
1, 457427, Note_on_c, 0, 68, 0
1, 457427, Note_on_c, 0, 71, 0
1, 457427, Note_on_c, 0, 74, 0
1, 457560, Note_on_c, 0, 73, 112
1, 457673, Note_on_c, 0, 73, 0
1, 457680, Note_on_c, 0, 74, 112
1, 457907, Note_on_c, 0, 74, 0
1, 458640, Note_on_c, 0, 66, 112
1, 458640, Note_on_c, 0, 69, 112
1, 458640, Note_on_c, 0, 73, 112
1, 458867, Note_on_c, 0, 66, 0
1, 458867, Note_on_c, 0, 69, 0
1, 458867, Note_on_c, 0, 73, 0
1, 459000, Note_on_c, 0, 72, 112
1, 459113, Note_on_c, 0, 72, 0
1, 459120, Note_on_c, 0, 73, 112
1, 459347, Note_on_c, 0, 73, 0
1, 460080, Note_on_c, 0, 67, 112
1, 460080, Note_on_c, 0, 70, 112
1, 460080, Note_on_c, 0, 73, 112
1, 460080, Note_on_c, 0, 76, 112
1, 460307, Note_on_c, 0, 67, 0
1, 460307, Note_on_c, 0, 70, 0
1, 460307, Note_on_c, 0, 73, 0
1, 460307, Note_on_c, 0, 76, 0
1, 460440, Note_on_c, 0, 72, 112
1, 460440, Note_on_c, 0, 75, 112
1, 460553, Note_on_c, 0, 72, 0
1, 460553, Note_on_c, 0, 75, 0
1, 460560, Note_on_c, 0, 73, 112
1, 460560, Note_on_c, 0, 76, 112
1, 460787, Note_on_c, 0, 73, 0
1, 460787, Note_on_c, 0, 76, 0
1, 461520, Note_on_c, 0, 65, 112
1, 461520, Note_on_c, 0, 71, 112
1, 461520, Note_on_c, 0, 75, 112
1, 461747, Note_on_c, 0, 65, 0
1, 461747, Note_on_c, 0, 71, 0
1, 461747, Note_on_c, 0, 75, 0
1, 461880, Note_on_c, 0, 70, 112
1, 461880, Note_on_c, 0, 74, 112
1, 461993, Note_on_c, 0, 70, 0
1, 461993, Note_on_c, 0, 74, 0
1, 462000, Note_on_c, 0, 71, 112
1, 462000, Note_on_c, 0, 75, 112
1, 462227, Note_on_c, 0, 71, 0
1, 462227, Note_on_c, 0, 75, 0
1, 462960, Note_on_c, 0, 65, 112
1, 462960, Note_on_c, 0, 68, 112
1, 462960, Note_on_c, 0, 71, 112
1, 462960, Note_on_c, 0, 74, 112
1, 463187, Note_on_c, 0, 65, 0
1, 463187, Note_on_c, 0, 68, 0
1, 463187, Note_on_c, 0, 71, 0
1, 463187, Note_on_c, 0, 74, 0
1, 463320, Note_on_c, 0, 70, 112
1, 463320, Note_on_c, 0, 73, 112
1, 463433, Note_on_c, 0, 70, 0
1, 463433, Note_on_c, 0, 73, 0
1, 463440, Note_on_c, 0, 71, 112
1, 463440, Note_on_c, 0, 74, 112
1, 463667, Note_on_c, 0, 71, 0
1, 463667, Note_on_c, 0, 74, 0
1, 464400, Note_on_c, 0, 66, 112
1, 464400, Note_on_c, 0, 69, 112
1, 464400, Note_on_c, 0, 73, 112
1, 464627, Note_on_c, 0, 66, 0
1, 464627, Note_on_c, 0, 69, 0
1, 464627, Note_on_c, 0, 73, 0
1, 464760, Note_on_c, 0, 68, 112
1, 464760, Note_on_c, 0, 72, 112
1, 464873, Note_on_c, 0, 68, 0
1, 464873, Note_on_c, 0, 72, 0
1, 464880, Note_on_c, 0, 69, 112
1, 464880, Note_on_c, 0, 73, 112
1, 465107, Note_on_c, 0, 69, 0
1, 465107, Note_on_c, 0, 73, 0
1, 465120, Note_on_c, 0, 66, 112
1, 465120, Note_on_c, 0, 69, 112
1, 465120, Note_on_c, 0, 78, 112
1, 465575, Note_on_c, 0, 66, 0
1, 465575, Note_on_c, 0, 69, 0
1, 465575, Note_on_c, 0, 78, 0
1, 465600, Note_on_c, 0, 69, 112
1, 465600, Note_on_c, 0, 78, 112
1, 465600, Note_on_c, 0, 81, 112
1, 465827, Note_on_c, 0, 69, 0
1, 465827, Note_on_c, 0, 78, 0
1, 465827, Note_on_c, 0, 81, 0
1, 465840, Note_on_c, 0, 69, 112
1, 465840, Note_on_c, 0, 78, 112
1, 465840, Note_on_c, 0, 81, 112
1, 466295, Note_on_c, 0, 69, 0
1, 466295, Note_on_c, 0, 78, 0
1, 466295, Note_on_c, 0, 81, 0
1, 466320, Note_on_c, 0, 74, 112
1, 466320, Note_on_c, 0, 78, 112
1, 466320, Note_on_c, 0, 86, 112
1, 466547, Note_on_c, 0, 74, 0
1, 466547, Note_on_c, 0, 78, 0
1, 466547, Note_on_c, 0, 86, 0
1, 466560, Note_on_c, 0, 74, 112
1, 466560, Note_on_c, 0, 78, 112
1, 466560, Note_on_c, 0, 86, 112
1, 467015, Note_on_c, 0, 74, 0
1, 467015, Note_on_c, 0, 78, 0
1, 467015, Note_on_c, 0, 86, 0
1, 467040, Note_on_c, 0, 78, 112
1, 467040, Note_on_c, 0, 81, 112
1, 467040, Note_on_c, 0, 90, 112
1, 467267, Note_on_c, 0, 78, 0
1, 467267, Note_on_c, 0, 81, 0
1, 467267, Note_on_c, 0, 90, 0
1, 467280, Note_on_c, 0, 78, 112
1, 467280, Note_on_c, 0, 81, 112
1, 467280, Note_on_c, 0, 90, 112
1, 467735, Note_on_c, 0, 78, 0
1, 467735, Note_on_c, 0, 81, 0
1, 467735, Note_on_c, 0, 90, 0
1, 467760, Note_on_c, 0, 81, 112
1, 467760, Note_on_c, 0, 90, 112
1, 467760, Note_on_c, 0, 93, 112
1, 467987, Note_on_c, 0, 81, 0
1, 467987, Note_on_c, 0, 90, 0
1, 467987, Note_on_c, 0, 93, 0
1, 468000, Note_on_c, 0, 81, 112
1, 468000, Note_on_c, 0, 90, 112
1, 468000, Note_on_c, 0, 93, 112
1, 468455, Note_on_c, 0, 81, 0
1, 468455, Note_on_c, 0, 90, 0
1, 468455, Note_on_c, 0, 93, 0
1, 468480, Note_on_c, 0, 82, 112
1, 468480, Note_on_c, 0, 90, 112
1, 468480, Note_on_c, 0, 94, 112
1, 468707, Note_on_c, 0, 82, 0
1, 468707, Note_on_c, 0, 90, 0
1, 468707, Note_on_c, 0, 94, 0
1, 468720, Note_on_c, 0, 82, 112
1, 468720, Note_on_c, 0, 90, 112
1, 468720, Note_on_c, 0, 94, 112
1, 469175, Note_on_c, 0, 82, 0
1, 469175, Note_on_c, 0, 90, 0
1, 469175, Note_on_c, 0, 94, 0
1, 469200, Note_on_c, 0, 83, 112
1, 469200, Note_on_c, 0, 90, 112
1, 469200, Note_on_c, 0, 95, 112
1, 469427, Note_on_c, 0, 83, 0
1, 469427, Note_on_c, 0, 90, 0
1, 469427, Note_on_c, 0, 95, 0
1, 469440, Note_on_c, 0, 83, 112
1, 469440, Note_on_c, 0, 90, 112
1, 469440, Note_on_c, 0, 95, 112
1, 469895, Note_on_c, 0, 83, 0
1, 469895, Note_on_c, 0, 90, 0
1, 469895, Note_on_c, 0, 95, 0
1, 469920, Note_on_c, 0, 84, 112
1, 469920, Note_on_c, 0, 90, 112
1, 469920, Note_on_c, 0, 96, 112
1, 470147, Note_on_c, 0, 84, 0
1, 470147, Note_on_c, 0, 90, 0
1, 470147, Note_on_c, 0, 96, 0
1, 470160, Note_on_c, 0, 84, 112
1, 470160, Note_on_c, 0, 90, 112
1, 470160, Note_on_c, 0, 96, 112
1, 470615, Note_on_c, 0, 84, 0
1, 470615, Note_on_c, 0, 90, 0
1, 470615, Note_on_c, 0, 96, 0
1, 470640, Note_on_c, 0, 85, 112
1, 470640, Note_on_c, 0, 90, 112
1, 470640, Note_on_c, 0, 92, 112
1, 470640, Note_on_c, 0, 97, 112
1, 470867, Note_on_c, 0, 85, 0
1, 470867, Note_on_c, 0, 90, 0
1, 470867, Note_on_c, 0, 92, 0
1, 470867, Note_on_c, 0, 97, 0
1, 470880, Note_on_c, 0, 85, 127
1, 470880, Note_on_c, 0, 90, 127
1, 470880, Note_on_c, 0, 92, 127
1, 470880, Note_on_c, 0, 97, 127
1, 471599, Note_on_c, 0, 85, 0
1, 471599, Note_on_c, 0, 90, 0
1, 471599, Note_on_c, 0, 92, 0
1, 471599, Note_on_c, 0, 97, 0
1, 471600, Note_on_c, 0, 61, 127
1, 472319, Note_on_c, 0, 61, 0
1, 472320, Note_on_c, 0, 65, 127
1, 472320, Note_on_c, 0, 68, 127
1, 472320, Note_on_c, 0, 71, 127
1, 472320, Note_on_c, 0, 73, 127
1, 472320, Note_on_c, 0, 77, 127
1, 473039, Note_on_c, 0, 65, 0
1, 473039, Note_on_c, 0, 68, 0
1, 473039, Note_on_c, 0, 71, 0
1, 473039, Note_on_c, 0, 73, 0
1, 473039, Note_on_c, 0, 77, 0
1, 473040, Note_on_c, 0, 56, 127
1, 473040, Note_on_c, 0, 59, 127
1, 473040, Note_on_c, 0, 61, 127
1, 473040, Note_on_c, 0, 65, 127
1, 473759, Note_on_c, 0, 56, 0
1, 473759, Note_on_c, 0, 59, 0
1, 473759, Note_on_c, 0, 61, 0
1, 473759, Note_on_c, 0, 65, 0
1, 473760, Tempo, 333333
1, 473760, Note_on_c, 0, 54, 112
1, 473760, Note_on_c, 0, 57, 112
1, 473760, Note_on_c, 0, 61, 112
1, 473760, Note_on_c, 0, 66, 112
1, 474215, Note_on_c, 0, 54, 0
1, 474215, Note_on_c, 0, 57, 0
1, 474215, Note_on_c, 0, 61, 0
1, 474215, Note_on_c, 0, 66, 0
1, 475200, Note_on_c, 0, 54, 49
1, 475200, Note_on_c, 0, 57, 49
1, 475200, Note_on_c, 0, 61, 49
1, 475919, Note_on_c, 0, 54, 0
1, 475919, Note_on_c, 0, 57, 0
1, 475919, Note_on_c, 0, 61, 0
1, 475920, Note_on_c, 0, 57, 49
1, 475920, Note_on_c, 0, 61, 49
1, 475920, Note_on_c, 0, 66, 49
1, 476399, Note_on_c, 0, 57, 0
1, 476399, Note_on_c, 0, 61, 0
1, 476399, Note_on_c, 0, 66, 0
1, 476400, Note_on_c, 0, 56, 49
1, 476400, Note_on_c, 0, 59, 49
1, 476400, Note_on_c, 0, 65, 49
1, 476627, Note_on_c, 0, 56, 0
1, 476627, Note_on_c, 0, 59, 0
1, 476627, Note_on_c, 0, 65, 0
1, 476640, Note_on_c, 0, 56, 49
1, 476640, Note_on_c, 0, 59, 49
1, 476640, Note_on_c, 0, 65, 49
1, 477359, Note_on_c, 0, 56, 0
1, 477359, Note_on_c, 0, 59, 0
1, 477359, Note_on_c, 0, 65, 0
1, 477360, Note_on_c, 0, 59, 54
1, 477360, Note_on_c, 0, 62, 54
1, 477360, Note_on_c, 0, 68, 54
1, 477839, Note_on_c, 0, 59, 0
1, 477839, Note_on_c, 0, 62, 0
1, 477839, Note_on_c, 0, 68, 0
1, 477840, Note_on_c, 0, 57, 57
1, 477840, Note_on_c, 0, 61, 57
1, 477840, Note_on_c, 0, 66, 57
1, 478067, Note_on_c, 0, 57, 0
1, 478067, Note_on_c, 0, 61, 0
1, 478067, Note_on_c, 0, 66, 0
1, 478080, Note_on_c, 0, 57, 59
1, 478080, Note_on_c, 0, 61, 59
1, 478080, Note_on_c, 0, 66, 59
1, 478799, Note_on_c, 0, 57, 0
1, 478799, Note_on_c, 0, 61, 0
1, 478799, Note_on_c, 0, 66, 0
1, 478800, Note_on_c, 0, 66, 76
1, 478800, Note_on_c, 0, 69, 76
1, 478800, Note_on_c, 0, 74, 76
1, 479279, Note_on_c, 0, 66, 0
1, 479279, Note_on_c, 0, 69, 0
1, 479279, Note_on_c, 0, 74, 0
1, 479280, Note_on_c, 0, 65, 61
1, 479280, Note_on_c, 0, 68, 61
1, 479280, Note_on_c, 0, 73, 61
1, 479507, Note_on_c, 0, 65, 0
1, 479507, Note_on_c, 0, 68, 0
1, 479507, Note_on_c, 0, 73, 0
1, 479520, Note_on_c, 0, 73, 59
1, 479520, Note_on_c, 0, 65, 59
1, 479520, Note_on_c, 0, 68, 59
1, 480203, Note_on_c, 0, 73, 0
1, 480240, Note_on_c, 0, 73, 54
1, 480599, Note_on_c, 0, 73, 0
1, 480887, Note_on_c, 0, 65, 0
1, 480887, Note_on_c, 0, 68, 0
1, 480960, Note_on_c, 0, 73, 49
1, 480960, Note_on_c, 0, 64, 49
1, 480960, Note_on_c, 0, 67, 49
1, 481319, Note_on_c, 0, 73, 0
1, 481680, Note_on_c, 0, 73, 49
1, 482039, Note_on_c, 0, 73, 0
1, 482399, Note_on_c, 0, 64, 0
1, 482399, Note_on_c, 0, 67, 0
1, 482400, Note_on_c, 0, 73, 49
1, 482400, Note_on_c, 0, 62, 49
1, 482400, Note_on_c, 0, 66, 49
1, 482879, Note_on_c, 0, 73, 0
1, 482880, Note_on_c, 0, 71, 49
1, 483119, Note_on_c, 0, 71, 0
1, 483120, Note_on_c, 0, 69, 49
1, 483599, Note_on_c, 0, 69, 0
1, 483600, Note_on_c, 0, 68, 49
1, 483827, Note_on_c, 0, 68, 0
1, 483839, Note_on_c, 0, 62, 0
1, 483839, Note_on_c, 0, 66, 0
1, 483840, Note_on_c, 0, 59, 49
1, 483840, Note_on_c, 0, 66, 49
1, 483840, Note_on_c, 0, 68, 49
1, 484319, Note_on_c, 0, 68, 0
1, 484320, Note_on_c, 0, 69, 49
1, 484379, Note_on_c, 0, 69, 0
1, 484380, Note_on_c, 0, 68, 49
1, 484439, Note_on_c, 0, 68, 0
1, 484440, Note_on_c, 0, 66, 0
1, 484440, Note_on_c, 0, 66, 49
1, 484500, Note_on_c, 0, 68, 49
1, 484559, Note_on_c, 0, 68, 0
1, 484560, Note_on_c, 0, 71, 49
1, 485039, Note_on_c, 0, 71, 0
1, 485040, Note_on_c, 0, 68, 49
1, 485267, Note_on_c, 0, 68, 0
1, 485279, Note_on_c, 0, 66, 0
1, 485280, Note_on_c, 0, 66, 49
1, 485759, Note_on_c, 0, 59, 0
1, 485760, Note_on_c, 0, 62, 49
1, 485999, Note_on_c, 0, 66, 0
1, 485999, Note_on_c, 0, 62, 0
1, 486000, Note_on_c, 0, 65, 49
1, 486000, Note_on_c, 0, 61, 49
1, 486479, Note_on_c, 0, 61, 0
1, 486480, Note_on_c, 0, 59, 49
1, 486707, Note_on_c, 0, 59, 0
1, 486719, Note_on_c, 0, 65, 0
1, 486720, Note_on_c, 0, 61, 49
1, 486720, Note_on_c, 0, 59, 49
1, 487199, Note_on_c, 0, 59, 0
1, 487200, Note_on_c, 0, 57, 49
1, 487439, Note_on_c, 0, 61, 0
1, 487439, Note_on_c, 0, 57, 0
1, 487440, Note_on_c, 0, 66, 49
1, 487440, Note_on_c, 0, 56, 49
1, 487919, Note_on_c, 0, 66, 0
1, 487919, Note_on_c, 0, 56, 0
1, 487920, Note_on_c, 0, 65, 49
1, 487920, Note_on_c, 0, 57, 49
1, 488147, Note_on_c, 0, 65, 0
1, 488147, Note_on_c, 0, 57, 0
1, 488160, Note_on_c, 0, 56, 49
1, 488160, Note_on_c, 0, 59, 49
1, 488160, Note_on_c, 0, 65, 49
1, 488879, Note_on_c, 0, 56, 0
1, 488879, Note_on_c, 0, 59, 0
1, 488879, Note_on_c, 0, 65, 0
1, 488880, Note_on_c, 0, 59, 49
1, 488880, Note_on_c, 0, 62, 49
1, 488880, Note_on_c, 0, 68, 49
1, 489359, Note_on_c, 0, 59, 0
1, 489359, Note_on_c, 0, 62, 0
1, 489359, Note_on_c, 0, 68, 0
1, 489360, Note_on_c, 0, 57, 49
1, 489360, Note_on_c, 0, 61, 49
1, 489360, Note_on_c, 0, 66, 49
1, 489587, Note_on_c, 0, 57, 0
1, 489587, Note_on_c, 0, 61, 0
1, 489587, Note_on_c, 0, 66, 0
1, 489600, Note_on_c, 0, 57, 49
1, 489600, Note_on_c, 0, 61, 49
1, 489600, Note_on_c, 0, 66, 49
1, 490319, Note_on_c, 0, 57, 0
1, 490319, Note_on_c, 0, 61, 0
1, 490319, Note_on_c, 0, 66, 0
1, 490320, Note_on_c, 0, 66, 58
1, 490320, Note_on_c, 0, 69, 58
1, 490320, Note_on_c, 0, 74, 58
1, 490799, Note_on_c, 0, 66, 0
1, 490799, Note_on_c, 0, 69, 0
1, 490799, Note_on_c, 0, 74, 0
1, 490800, Note_on_c, 0, 65, 49
1, 490800, Note_on_c, 0, 68, 49
1, 490800, Note_on_c, 0, 73, 49
1, 491027, Note_on_c, 0, 65, 0
1, 491027, Note_on_c, 0, 68, 0
1, 491027, Note_on_c, 0, 73, 0
1, 491040, Note_on_c, 0, 65, 49
1, 491040, Note_on_c, 0, 68, 49
1, 491040, Note_on_c, 0, 73, 49
1, 491723, Note_on_c, 0, 65, 0
1, 491723, Note_on_c, 0, 68, 0
1, 491723, Note_on_c, 0, 73, 0
1, 493200, Note_on_c, 0, 57, 49
1, 493200, Note_on_c, 0, 61, 49
1, 493200, Note_on_c, 0, 66, 49
1, 493679, Note_on_c, 0, 57, 0
1, 493679, Note_on_c, 0, 61, 0
1, 493679, Note_on_c, 0, 66, 0
1, 493680, Note_on_c, 0, 56, 49
1, 493680, Note_on_c, 0, 59, 49
1, 493680, Note_on_c, 0, 65, 49
1, 493907, Note_on_c, 0, 56, 0
1, 493907, Note_on_c, 0, 59, 0
1, 493907, Note_on_c, 0, 65, 0
1, 493920, Note_on_c, 0, 56, 49
1, 493920, Note_on_c, 0, 59, 49
1, 493920, Note_on_c, 0, 65, 49
1, 494639, Note_on_c, 0, 56, 0
1, 494639, Note_on_c, 0, 59, 0
1, 494639, Note_on_c, 0, 65, 0
1, 494640, Note_on_c, 0, 59, 49
1, 494640, Note_on_c, 0, 62, 49
1, 494640, Note_on_c, 0, 68, 49
1, 495119, Note_on_c, 0, 59, 0
1, 495119, Note_on_c, 0, 62, 0
1, 495119, Note_on_c, 0, 68, 0
1, 495120, Note_on_c, 0, 57, 49
1, 495120, Note_on_c, 0, 61, 49
1, 495120, Note_on_c, 0, 66, 49
1, 495347, Note_on_c, 0, 57, 0
1, 495347, Note_on_c, 0, 61, 0
1, 495347, Note_on_c, 0, 66, 0
1, 495360, Note_on_c, 0, 57, 49
1, 495360, Note_on_c, 0, 61, 49
1, 495360, Note_on_c, 0, 66, 49
1, 496079, Note_on_c, 0, 57, 0
1, 496079, Note_on_c, 0, 61, 0
1, 496079, Note_on_c, 0, 66, 0
1, 496080, Note_on_c, 0, 66, 49
1, 496080, Note_on_c, 0, 69, 49
1, 496080, Note_on_c, 0, 74, 49
1, 496559, Note_on_c, 0, 66, 0
1, 496559, Note_on_c, 0, 69, 0
1, 496559, Note_on_c, 0, 74, 0
1, 496560, Note_on_c, 0, 65, 49
1, 496560, Note_on_c, 0, 68, 49
1, 496560, Note_on_c, 0, 73, 49
1, 496787, Note_on_c, 0, 65, 0
1, 496787, Note_on_c, 0, 68, 0
1, 496787, Note_on_c, 0, 73, 0
1, 496800, Note_on_c, 0, 65, 49
1, 496800, Note_on_c, 0, 68, 49
1, 496800, Note_on_c, 0, 73, 49
1, 497483, Note_on_c, 0, 65, 0
1, 497483, Note_on_c, 0, 68, 0
1, 497483, Note_on_c, 0, 73, 0
1, 498960, Note_on_c, 0, 54, 49
1, 498960, Note_on_c, 0, 57, 49
1, 498960, Note_on_c, 0, 62, 49
1, 499439, Note_on_c, 0, 54, 0
1, 499439, Note_on_c, 0, 57, 0
1, 499439, Note_on_c, 0, 62, 0
1, 499440, Note_on_c, 0, 53, 49
1, 499440, Note_on_c, 0, 56, 49
1, 499440, Note_on_c, 0, 61, 49
1, 499667, Note_on_c, 0, 53, 0
1, 499667, Note_on_c, 0, 56, 0
1, 499667, Note_on_c, 0, 61, 0
1, 499680, Note_on_c, 0, 53, 49
1, 499680, Note_on_c, 0, 56, 49
1, 499680, Note_on_c, 0, 61, 49
1, 500363, Note_on_c, 0, 53, 0
1, 500363, Note_on_c, 0, 56, 0
1, 500363, Note_on_c, 0, 61, 0
1, 505440, Note_on_c, 0, 49, 33
1, 506879, Note_on_c, 0, 49, 0
1, 506880, Tempo, 1000000
1, 506880, Note_on_c, 0, 42, 33
1, 508247, Note_on_c, 0, 42, 0
1, 508319, Tempo, 333333
1, 508320, End_track
2, 0, Start_track
2, 0, Key_signature, 3, "major"
2, 0, MIDI_port, 0
2, 0, Note_on_c, 0, 78, 33
2, 227, Note_on_c, 0, 78, 0
2, 360, Note_on_c, 0, 78, 33
2, 473, Note_on_c, 0, 78, 0
2, 480, Note_on_c, 0, 78, 33
2, 707, Note_on_c, 0, 78, 0
2, 720, Note_on_c, 0, 78, 33
2, 839, Note_on_c, 0, 78, 0
2, 960, Note_on_c, 0, 78, 33
2, 1079, Note_on_c, 0, 78, 0
2, 1200, Note_on_c, 0, 78, 33
2, 1319, Note_on_c, 0, 78, 0
2, 1440, Note_on_c, 0, 73, 33
2, 1667, Note_on_c, 0, 73, 0
2, 1800, Note_on_c, 0, 71, 33
2, 1913, Note_on_c, 0, 71, 0
2, 1920, Note_on_c, 0, 73, 33
2, 2147, Note_on_c, 0, 73, 0
2, 2160, Note_on_c, 0, 74, 33
2, 2279, Note_on_c, 0, 74, 0
2, 2400, Note_on_c, 0, 71, 33
2, 2519, Note_on_c, 0, 71, 0
2, 2640, Note_on_c, 0, 73, 33
2, 2759, Note_on_c, 0, 73, 0
2, 2880, Note_on_c, 0, 66, 33
2, 2880, Note_on_c, 0, 69, 33
2, 3107, Note_on_c, 0, 66, 0
2, 3107, Note_on_c, 0, 69, 0
2, 3240, Note_on_c, 0, 68, 33
2, 3353, Note_on_c, 0, 68, 0
2, 3360, Note_on_c, 0, 69, 33
2, 3587, Note_on_c, 0, 69, 0
2, 3600, Note_on_c, 0, 66, 33
2, 3600, Note_on_c, 0, 71, 33
2, 3719, Note_on_c, 0, 66, 0
2, 3719, Note_on_c, 0, 71, 0
2, 3840, Note_on_c, 0, 68, 33
2, 3959, Note_on_c, 0, 68, 0
2, 4080, Note_on_c, 0, 69, 33
2, 4199, Note_on_c, 0, 69, 0
2, 4320, Note_on_c, 0, 66, 33
2, 4320, Note_on_c, 0, 71, 33
2, 4439, Note_on_c, 0, 66, 0
2, 4439, Note_on_c, 0, 71, 0
2, 4560, Note_on_c, 0, 68, 33
2, 4679, Note_on_c, 0, 68, 0
2, 4800, Note_on_c, 0, 69, 33
2, 4919, Note_on_c, 0, 69, 0
2, 5040, Note_on_c, 0, 66, 33
2, 5040, Note_on_c, 0, 71, 33
2, 5267, Note_on_c, 0, 66, 0
2, 5267, Note_on_c, 0, 71, 0
2, 5520, Note_on_c, 0, 61, 96
2, 5747, Note_on_c, 0, 61, 0
2, 5760, Note_on_c, 0, 66, 115
2, 6000, Note_on_c, 0, 64, 96
2, 6119, Note_on_c, 0, 64, 0
2, 6240, Note_on_c, 0, 62, 96
2, 6359, Note_on_c, 0, 62, 0
2, 6480, Note_on_c, 0, 61, 96
2, 6599, Note_on_c, 0, 61, 0
2, 6720, Note_on_c, 0, 62, 96
2, 6839, Note_on_c, 0, 62, 0
2, 6960, Note_on_c, 0, 59, 96
2, 7079, Note_on_c, 0, 59, 0
2, 7199, Note_on_c, 0, 66, 0
2, 7200, Note_on_c, 0, 61, 115
2, 7440, Note_on_c, 0, 59, 96
2, 7559, Note_on_c, 0, 59, 0
2, 7680, Note_on_c, 0, 57, 96
2, 7799, Note_on_c, 0, 57, 0
2, 7920, Note_on_c, 0, 56, 96
2, 8039, Note_on_c, 0, 56, 0
2, 8160, Note_on_c, 0, 57, 96
2, 8279, Note_on_c, 0, 57, 0
2, 8400, Note_on_c, 0, 54, 96
2, 8519, Note_on_c, 0, 54, 0
2, 8639, Note_on_c, 0, 61, 0
2, 8640, Note_on_c, 0, 56, 115
2, 8880, Note_on_c, 0, 54, 96
2, 8999, Note_on_c, 0, 54, 0
2, 9120, Note_on_c, 0, 53, 96
2, 9239, Note_on_c, 0, 53, 0
2, 9360, Note_on_c, 0, 51, 96
2, 9479, Note_on_c, 0, 51, 0
2, 9600, Note_on_c, 0, 53, 96
2, 9719, Note_on_c, 0, 53, 0
2, 9840, Note_on_c, 0, 49, 96
2, 9959, Note_on_c, 0, 49, 0
2, 10080, Note_on_c, 0, 50, 96
2, 10199, Note_on_c, 0, 50, 0
2, 10320, Note_on_c, 0, 47, 86
2, 10439, Note_on_c, 0, 47, 0
2, 10535, Note_on_c, 0, 56, 0
2, 10560, Note_on_c, 0, 45, 75
2, 10679, Note_on_c, 0, 45, 0
2, 10800, Note_on_c, 0, 47, 65
2, 10919, Note_on_c, 0, 47, 0
2, 11040, Note_on_c, 0, 44, 54
2, 11159, Note_on_c, 0, 44, 0
2, 11280, Note_on_c, 0, 49, 44
2, 11399, Note_on_c, 0, 49, 0
2, 11520, Note_on_c, 0, 42, 33
2, 11747, Note_on_c, 0, 42, 0
2, 12000, Note_on_c, 0, 78, 33
2, 12227, Note_on_c, 0, 78, 0
2, 12240, Note_on_c, 0, 78, 33
2, 12359, Note_on_c, 0, 78, 0
2, 12480, Note_on_c, 0, 78, 33
2, 12599, Note_on_c, 0, 78, 0
2, 12720, Note_on_c, 0, 78, 33
2, 12839, Note_on_c, 0, 78, 0
2, 12960, Note_on_c, 0, 73, 33
2, 13187, Note_on_c, 0, 73, 0
2, 13320, Note_on_c, 0, 71, 33
2, 13433, Note_on_c, 0, 71, 0
2, 13440, Note_on_c, 0, 73, 33
2, 13667, Note_on_c, 0, 73, 0
2, 13680, Note_on_c, 0, 74, 33
2, 13799, Note_on_c, 0, 74, 0
2, 13920, Note_on_c, 0, 71, 33
2, 14039, Note_on_c, 0, 71, 0
2, 14160, Note_on_c, 0, 73, 33
2, 14279, Note_on_c, 0, 73, 0
2, 14400, Note_on_c, 0, 66, 33
2, 14400, Note_on_c, 0, 69, 33
2, 14627, Note_on_c, 0, 66, 0
2, 14627, Note_on_c, 0, 69, 0
2, 14760, Note_on_c, 0, 68, 33
2, 14873, Note_on_c, 0, 68, 0
2, 14880, Note_on_c, 0, 69, 33
2, 15107, Note_on_c, 0, 69, 0
2, 15120, Note_on_c, 0, 66, 33
2, 15120, Note_on_c, 0, 71, 33
2, 15239, Note_on_c, 0, 66, 0
2, 15239, Note_on_c, 0, 71, 0
2, 15360, Note_on_c, 0, 68, 33
2, 15479, Note_on_c, 0, 68, 0
2, 15600, Note_on_c, 0, 69, 33
2, 15719, Note_on_c, 0, 69, 0
2, 15840, Note_on_c, 0, 66, 33
2, 15840, Note_on_c, 0, 71, 33
2, 15959, Note_on_c, 0, 66, 0
2, 15959, Note_on_c, 0, 71, 0
2, 16080, Note_on_c, 0, 68, 33
2, 16199, Note_on_c, 0, 68, 0
2, 16320, Note_on_c, 0, 69, 33
2, 16439, Note_on_c, 0, 69, 0
2, 16560, Note_on_c, 0, 66, 33
2, 16560, Note_on_c, 0, 71, 33
2, 16787, Note_on_c, 0, 66, 0
2, 16787, Note_on_c, 0, 71, 0
2, 17040, Note_on_c, 0, 61, 96
2, 17267, Note_on_c, 0, 61, 0
2, 17280, Note_on_c, 0, 66, 115
2, 17280, Note_on_c, 0, 69, 115
2, 17520, Note_on_c, 0, 64, 96
2, 17639, Note_on_c, 0, 64, 0
2, 17760, Note_on_c, 0, 62, 96
2, 17879, Note_on_c, 0, 62, 0
2, 18000, Note_on_c, 0, 61, 96
2, 18119, Note_on_c, 0, 61, 0
2, 18240, Note_on_c, 0, 62, 96
2, 18359, Note_on_c, 0, 62, 0
2, 18480, Note_on_c, 0, 60, 96
2, 18599, Note_on_c, 0, 60, 0
2, 18720, Note_on_c, 0, 61, 96
2, 18839, Note_on_c, 0, 61, 0
2, 18960, Note_on_c, 0, 69, 0
2, 18960, Note_on_c, 0, 57, 87
2, 19079, Note_on_c, 0, 57, 0
2, 19175, Note_on_c, 0, 66, 0
2, 19200, Note_on_c, 0, 59, 78
2, 19319, Note_on_c, 0, 59, 0
2, 19440, Note_on_c, 0, 56, 68
2, 19559, Note_on_c, 0, 56, 0
2, 19680, Note_on_c, 0, 57, 59
2, 19799, Note_on_c, 0, 57, 0
2, 19920, Note_on_c, 0, 54, 49
2, 20039, Note_on_c, 0, 54, 0
2, 20160, Note_on_c, 0, 66, 115
2, 20160, Note_on_c, 0, 69, 115
2, 20400, Note_on_c, 0, 64, 96
2, 20519, Note_on_c, 0, 64, 0
2, 20640, Note_on_c, 0, 62, 96
2, 20759, Note_on_c, 0, 62, 0
2, 20880, Note_on_c, 0, 61, 96
2, 20999, Note_on_c, 0, 61, 0
2, 21120, Note_on_c, 0, 62, 96
2, 21239, Note_on_c, 0, 62, 0
2, 21360, Note_on_c, 0, 60, 96
2, 21479, Note_on_c, 0, 60, 0
2, 21600, Note_on_c, 0, 61, 96
2, 21719, Note_on_c, 0, 61, 0
2, 21840, Note_on_c, 0, 69, 0
2, 21840, Note_on_c, 0, 57, 87
2, 21959, Note_on_c, 0, 57, 0
2, 22055, Note_on_c, 0, 66, 0
2, 22080, Note_on_c, 0, 59, 78
2, 22199, Note_on_c, 0, 59, 0
2, 22320, Note_on_c, 0, 56, 68
2, 22439, Note_on_c, 0, 56, 0
2, 22560, Note_on_c, 0, 57, 59
2, 22679, Note_on_c, 0, 57, 0
2, 22800, Note_on_c, 0, 54, 49
2, 22919, Note_on_c, 0, 54, 0
2, 23040, Note_on_c, 0, 61, 115
2, 23040, Note_on_c, 0, 64, 115
2, 23280, Note_on_c, 0, 59, 96
2, 23399, Note_on_c, 0, 59, 0
2, 23520, Note_on_c, 0, 57, 96
2, 23639, Note_on_c, 0, 57, 0
2, 23760, Note_on_c, 0, 56, 96
2, 23879, Note_on_c, 0, 56, 0
2, 24000, Note_on_c, 0, 57, 96
2, 24119, Note_on_c, 0, 57, 0
2, 24240, Note_on_c, 0, 55, 96
2, 24359, Note_on_c, 0, 55, 0
2, 24479, Note_on_c, 0, 61, 0
2, 24479, Note_on_c, 0, 64, 0
2, 24480, Note_on_c, 0, 61, 115
2, 24480, Note_on_c, 0, 64, 115
2, 24720, Note_on_c, 0, 59, 96
2, 24839, Note_on_c, 0, 59, 0
2, 24960, Note_on_c, 0, 57, 96
2, 25079, Note_on_c, 0, 57, 0
2, 25200, Note_on_c, 0, 56, 96
2, 25319, Note_on_c, 0, 56, 0
2, 25440, Note_on_c, 0, 57, 96
2, 25559, Note_on_c, 0, 57, 0
2, 25680, Note_on_c, 0, 55, 96
2, 25799, Note_on_c, 0, 55, 0
2, 25920, Note_on_c, 0, 56, 96
2, 26039, Note_on_c, 0, 56, 0
2, 26160, Note_on_c, 0, 57, 89
2, 26279, Note_on_c, 0, 57, 0
2, 26400, Note_on_c, 0, 55, 81
2, 26519, Note_on_c, 0, 55, 0
2, 26640, Note_on_c, 0, 56, 73
2, 26759, Note_on_c, 0, 56, 0
2, 26880, Note_on_c, 0, 57, 65
2, 26999, Note_on_c, 0, 57, 0
2, 27120, Note_on_c, 0, 55, 57
2, 27239, Note_on_c, 0, 55, 0
2, 27287, Note_on_c, 0, 61, 0
2, 27287, Note_on_c, 0, 64, 0
2, 27360, Note_on_c, 0, 44, 49
2, 27360, Note_on_c, 0, 56, 49
2, 27587, Note_on_c, 0, 44, 0
2, 27587, Note_on_c, 0, 56, 0
2, 28080, Note_on_c, 0, 37, 49
2, 28080, Note_on_c, 0, 49, 49
2, 28307, Note_on_c, 0, 37, 0
2, 28307, Note_on_c, 0, 49, 0
2, 28800, Key_signature, 3, "major"
2, 28800, Note_on_c, 0, 78, 33
2, 29027, Note_on_c, 0, 78, 0
2, 29160, Note_on_c, 0, 78, 33
2, 29273, Note_on_c, 0, 78, 0
2, 29280, Note_on_c, 0, 78, 33
2, 29507, Note_on_c, 0, 78, 0
2, 29520, Note_on_c, 0, 78, 33
2, 29639, Note_on_c, 0, 78, 0
2, 29760, Note_on_c, 0, 78, 33
2, 29879, Note_on_c, 0, 78, 0
2, 30000, Note_on_c, 0, 78, 33
2, 30119, Note_on_c, 0, 78, 0
2, 30240, Note_on_c, 0, 73, 33
2, 30467, Note_on_c, 0, 73, 0
2, 30600, Note_on_c, 0, 71, 33
2, 30713, Note_on_c, 0, 71, 0
2, 30720, Note_on_c, 0, 73, 33
2, 30947, Note_on_c, 0, 73, 0
2, 30960, Note_on_c, 0, 74, 33
2, 31079, Note_on_c, 0, 74, 0
2, 31200, Note_on_c, 0, 71, 33
2, 31319, Note_on_c, 0, 71, 0
2, 31440, Note_on_c, 0, 73, 33
2, 31559, Note_on_c, 0, 73, 0
2, 31680, Note_on_c, 0, 66, 33
2, 31680, Note_on_c, 0, 69, 33
2, 31907, Note_on_c, 0, 66, 0
2, 31907, Note_on_c, 0, 69, 0
2, 32040, Note_on_c, 0, 68, 33
2, 32153, Note_on_c, 0, 68, 0
2, 32160, Note_on_c, 0, 69, 33
2, 32387, Note_on_c, 0, 69, 0
2, 32400, Note_on_c, 0, 66, 33
2, 32400, Note_on_c, 0, 71, 33
2, 32519, Note_on_c, 0, 66, 0
2, 32519, Note_on_c, 0, 71, 0
2, 32640, Note_on_c, 0, 68, 33
2, 32759, Note_on_c, 0, 68, 0
2, 32880, Note_on_c, 0, 69, 33
2, 32999, Note_on_c, 0, 69, 0
2, 33120, Note_on_c, 0, 66, 33
2, 33120, Note_on_c, 0, 71, 33
2, 33239, Note_on_c, 0, 66, 0
2, 33239, Note_on_c, 0, 71, 0
2, 33360, Note_on_c, 0, 68, 33
2, 33479, Note_on_c, 0, 68, 0
2, 33600, Note_on_c, 0, 69, 33
2, 33719, Note_on_c, 0, 69, 0
2, 33840, Note_on_c, 0, 66, 33
2, 33840, Note_on_c, 0, 71, 33
2, 34067, Note_on_c, 0, 66, 0
2, 34067, Note_on_c, 0, 71, 0
2, 34320, Note_on_c, 0, 61, 96
2, 34547, Note_on_c, 0, 61, 0
2, 34560, Note_on_c, 0, 66, 115
2, 34800, Note_on_c, 0, 64, 96
2, 34919, Note_on_c, 0, 64, 0
2, 35040, Note_on_c, 0, 62, 96
2, 35159, Note_on_c, 0, 62, 0
2, 35280, Note_on_c, 0, 61, 96
2, 35399, Note_on_c, 0, 61, 0
2, 35520, Note_on_c, 0, 62, 96
2, 35639, Note_on_c, 0, 62, 0
2, 35760, Note_on_c, 0, 59, 96
2, 35879, Note_on_c, 0, 59, 0
2, 35999, Note_on_c, 0, 66, 0
2, 36000, Note_on_c, 0, 61, 115
2, 36240, Note_on_c, 0, 59, 96
2, 36359, Note_on_c, 0, 59, 0
2, 36480, Note_on_c, 0, 57, 96
2, 36599, Note_on_c, 0, 57, 0
2, 36720, Note_on_c, 0, 56, 96
2, 36839, Note_on_c, 0, 56, 0
2, 36960, Note_on_c, 0, 57, 96
2, 37079, Note_on_c, 0, 57, 0
2, 37200, Note_on_c, 0, 54, 96
2, 37319, Note_on_c, 0, 54, 0
2, 37439, Note_on_c, 0, 61, 0
2, 37440, Note_on_c, 0, 56, 115
2, 37680, Note_on_c, 0, 54, 96
2, 37799, Note_on_c, 0, 54, 0
2, 37920, Note_on_c, 0, 53, 96
2, 38039, Note_on_c, 0, 53, 0
2, 38160, Note_on_c, 0, 51, 96
2, 38279, Note_on_c, 0, 51, 0
2, 38400, Note_on_c, 0, 53, 96
2, 38519, Note_on_c, 0, 53, 0
2, 38640, Note_on_c, 0, 49, 96
2, 38759, Note_on_c, 0, 49, 0
2, 38880, Note_on_c, 0, 50, 96
2, 38999, Note_on_c, 0, 50, 0
2, 39120, Note_on_c, 0, 47, 86
2, 39239, Note_on_c, 0, 47, 0
2, 39335, Note_on_c, 0, 56, 0
2, 39360, Note_on_c, 0, 45, 75
2, 39479, Note_on_c, 0, 45, 0
2, 39600, Note_on_c, 0, 47, 65
2, 39719, Note_on_c, 0, 47, 0
2, 39840, Note_on_c, 0, 44, 54
2, 39959, Note_on_c, 0, 44, 0
2, 40080, Note_on_c, 0, 49, 44
2, 40199, Note_on_c, 0, 49, 0
2, 40320, Note_on_c, 0, 42, 33
2, 40547, Note_on_c, 0, 42, 0
2, 40800, Note_on_c, 0, 78, 33
2, 41027, Note_on_c, 0, 78, 0
2, 41040, Note_on_c, 0, 78, 33
2, 41159, Note_on_c, 0, 78, 0
2, 41280, Note_on_c, 0, 78, 33
2, 41399, Note_on_c, 0, 78, 0
2, 41520, Note_on_c, 0, 78, 33
2, 41639, Note_on_c, 0, 78, 0
2, 41760, Note_on_c, 0, 73, 33
2, 41987, Note_on_c, 0, 73, 0
2, 42120, Note_on_c, 0, 71, 33
2, 42233, Note_on_c, 0, 71, 0
2, 42240, Note_on_c, 0, 73, 33
2, 42467, Note_on_c, 0, 73, 0
2, 42480, Note_on_c, 0, 74, 33
2, 42599, Note_on_c, 0, 74, 0
2, 42720, Note_on_c, 0, 71, 33
2, 42839, Note_on_c, 0, 71, 0
2, 42960, Note_on_c, 0, 73, 33
2, 43079, Note_on_c, 0, 73, 0
2, 43200, Note_on_c, 0, 66, 33
2, 43200, Note_on_c, 0, 69, 33
2, 43427, Note_on_c, 0, 66, 0
2, 43427, Note_on_c, 0, 69, 0
2, 43560, Note_on_c, 0, 68, 33
2, 43673, Note_on_c, 0, 68, 0
2, 43680, Note_on_c, 0, 69, 33
2, 43907, Note_on_c, 0, 69, 0
2, 43920, Note_on_c, 0, 66, 33
2, 43920, Note_on_c, 0, 71, 33
2, 44039, Note_on_c, 0, 66, 0
2, 44039, Note_on_c, 0, 71, 0
2, 44160, Note_on_c, 0, 68, 33
2, 44279, Note_on_c, 0, 68, 0
2, 44400, Note_on_c, 0, 69, 33
2, 44519, Note_on_c, 0, 69, 0
2, 44640, Note_on_c, 0, 66, 33
2, 44640, Note_on_c, 0, 71, 33
2, 44759, Note_on_c, 0, 66, 0
2, 44759, Note_on_c, 0, 71, 0
2, 44880, Note_on_c, 0, 68, 33
2, 44999, Note_on_c, 0, 68, 0
2, 45120, Note_on_c, 0, 69, 33
2, 45239, Note_on_c, 0, 69, 0
2, 45360, Note_on_c, 0, 66, 33
2, 45360, Note_on_c, 0, 71, 33
2, 45587, Note_on_c, 0, 66, 0
2, 45587, Note_on_c, 0, 71, 0
2, 45840, Note_on_c, 0, 61, 96
2, 46067, Note_on_c, 0, 61, 0
2, 46080, Note_on_c, 0, 66, 115
2, 46080, Note_on_c, 0, 69, 115
2, 46320, Note_on_c, 0, 64, 96
2, 46439, Note_on_c, 0, 64, 0
2, 46560, Note_on_c, 0, 62, 96
2, 46679, Note_on_c, 0, 62, 0
2, 46800, Note_on_c, 0, 61, 96
2, 46919, Note_on_c, 0, 61, 0
2, 47040, Note_on_c, 0, 62, 96
2, 47159, Note_on_c, 0, 62, 0
2, 47280, Note_on_c, 0, 60, 96
2, 47399, Note_on_c, 0, 60, 0
2, 47520, Note_on_c, 0, 61, 96
2, 47639, Note_on_c, 0, 61, 0
2, 47760, Note_on_c, 0, 69, 0
2, 47760, Note_on_c, 0, 57, 87
2, 47879, Note_on_c, 0, 57, 0
2, 47975, Note_on_c, 0, 66, 0
2, 48000, Note_on_c, 0, 59, 78
2, 48119, Note_on_c, 0, 59, 0
2, 48240, Note_on_c, 0, 56, 68
2, 48359, Note_on_c, 0, 56, 0
2, 48480, Note_on_c, 0, 57, 59
2, 48599, Note_on_c, 0, 57, 0
2, 48720, Note_on_c, 0, 54, 49
2, 48839, Note_on_c, 0, 54, 0
2, 48960, Note_on_c, 0, 66, 115
2, 48960, Note_on_c, 0, 69, 115
2, 49200, Note_on_c, 0, 64, 96
2, 49319, Note_on_c, 0, 64, 0
2, 49440, Note_on_c, 0, 62, 96
2, 49559, Note_on_c, 0, 62, 0
2, 49680, Note_on_c, 0, 61, 96
2, 49799, Note_on_c, 0, 61, 0
2, 49920, Note_on_c, 0, 62, 96
2, 50039, Note_on_c, 0, 62, 0
2, 50160, Note_on_c, 0, 60, 96
2, 50279, Note_on_c, 0, 60, 0
2, 50400, Note_on_c, 0, 61, 96
2, 50519, Note_on_c, 0, 61, 0
2, 50640, Note_on_c, 0, 69, 0
2, 50640, Note_on_c, 0, 57, 87
2, 50759, Note_on_c, 0, 57, 0
2, 50855, Note_on_c, 0, 66, 0
2, 50880, Note_on_c, 0, 59, 78
2, 50999, Note_on_c, 0, 59, 0
2, 51120, Note_on_c, 0, 56, 68
2, 51239, Note_on_c, 0, 56, 0
2, 51360, Note_on_c, 0, 57, 59
2, 51479, Note_on_c, 0, 57, 0
2, 51600, Note_on_c, 0, 54, 49
2, 51719, Note_on_c, 0, 54, 0
2, 51840, Note_on_c, 0, 61, 115
2, 51840, Note_on_c, 0, 64, 115
2, 52080, Note_on_c, 0, 59, 96
2, 52199, Note_on_c, 0, 59, 0
2, 52320, Note_on_c, 0, 57, 96
2, 52439, Note_on_c, 0, 57, 0
2, 52560, Note_on_c, 0, 56, 96
2, 52679, Note_on_c, 0, 56, 0
2, 52800, Note_on_c, 0, 57, 96
2, 52919, Note_on_c, 0, 57, 0
2, 53040, Note_on_c, 0, 55, 96
2, 53159, Note_on_c, 0, 55, 0
2, 53279, Note_on_c, 0, 61, 0
2, 53279, Note_on_c, 0, 64, 0
2, 53280, Note_on_c, 0, 61, 115
2, 53280, Note_on_c, 0, 64, 115
2, 53520, Note_on_c, 0, 59, 96
2, 53639, Note_on_c, 0, 59, 0
2, 53760, Note_on_c, 0, 57, 96
2, 53879, Note_on_c, 0, 57, 0
2, 54000, Note_on_c, 0, 56, 96
2, 54119, Note_on_c, 0, 56, 0
2, 54240, Note_on_c, 0, 57, 96
2, 54359, Note_on_c, 0, 57, 0
2, 54480, Note_on_c, 0, 55, 96
2, 54599, Note_on_c, 0, 55, 0
2, 54720, Note_on_c, 0, 56, 96
2, 54839, Note_on_c, 0, 56, 0
2, 54960, Note_on_c, 0, 57, 89
2, 55079, Note_on_c, 0, 57, 0
2, 55200, Note_on_c, 0, 55, 81
2, 55319, Note_on_c, 0, 55, 0
2, 55440, Note_on_c, 0, 56, 73
2, 55559, Note_on_c, 0, 56, 0
2, 55680, Note_on_c, 0, 57, 65
2, 55799, Note_on_c, 0, 57, 0
2, 55920, Note_on_c, 0, 55, 57
2, 56039, Note_on_c, 0, 55, 0
2, 56087, Note_on_c, 0, 61, 0
2, 56087, Note_on_c, 0, 64, 0
2, 56160, Note_on_c, 0, 44, 49
2, 56160, Note_on_c, 0, 56, 49
2, 56387, Note_on_c, 0, 44, 0
2, 56387, Note_on_c, 0, 56, 0
2, 56880, Note_on_c, 0, 37, 49
2, 56880, Note_on_c, 0, 49, 49
2, 57107, Note_on_c, 0, 37, 0
2, 57107, Note_on_c, 0, 49, 0
2, 57600, Note_on_c, 0, 61, 96
2, 57827, Note_on_c, 0, 61, 0
2, 57960, Note_on_c, 0, 61, 96
2, 58073, Note_on_c, 0, 61, 0
2, 58080, Note_on_c, 0, 61, 96
2, 58307, Note_on_c, 0, 61, 0
2, 58320, Note_on_c, 0, 61, 96
2, 58439, Note_on_c, 0, 61, 0
2, 58560, Note_on_c, 0, 61, 96
2, 58679, Note_on_c, 0, 61, 0
2, 58800, Note_on_c, 0, 61, 96
2, 58919, Note_on_c, 0, 61, 0
2, 59040, Note_on_c, 0, 61, 96
2, 59267, Note_on_c, 0, 61, 0
2, 59400, Note_on_c, 0, 61, 96
2, 59513, Note_on_c, 0, 61, 0
2, 59520, Note_on_c, 0, 61, 96
2, 59747, Note_on_c, 0, 61, 0
2, 59760, Note_on_c, 0, 61, 96
2, 59879, Note_on_c, 0, 61, 0
2, 60000, Note_on_c, 0, 61, 96
2, 60119, Note_on_c, 0, 61, 0
2, 60240, Note_on_c, 0, 61, 96
2, 60359, Note_on_c, 0, 61, 0
2, 60480, Note_on_c, 0, 61, 96
2, 60707, Note_on_c, 0, 61, 0
2, 60840, Note_on_c, 0, 61, 96
2, 60953, Note_on_c, 0, 61, 0
2, 60960, Note_on_c, 0, 61, 96
2, 61187, Note_on_c, 0, 61, 0
2, 61200, Note_on_c, 0, 61, 96
2, 61319, Note_on_c, 0, 61, 0
2, 61440, Note_on_c, 0, 61, 96
2, 61559, Note_on_c, 0, 61, 0
2, 61680, Note_on_c, 0, 61, 96
2, 61799, Note_on_c, 0, 61, 0
2, 61920, Note_on_c, 0, 61, 96
2, 62147, Note_on_c, 0, 61, 0
2, 62280, Note_on_c, 0, 61, 96
2, 62393, Note_on_c, 0, 61, 0
2, 62400, Note_on_c, 0, 61, 96
2, 62627, Note_on_c, 0, 61, 0
2, 62640, Note_on_c, 0, 61, 96
2, 62759, Note_on_c, 0, 61, 0
2, 62880, Note_on_c, 0, 61, 96
2, 62999, Note_on_c, 0, 61, 0
2, 63120, Note_on_c, 0, 61, 96
2, 63239, Note_on_c, 0, 61, 0
2, 63360, Note_on_c, 0, 42, 96
2, 63360, Note_on_c, 0, 54, 96
2, 63587, Note_on_c, 0, 42, 0
2, 63587, Note_on_c, 0, 54, 0
2, 63720, Note_on_c, 0, 42, 96
2, 63720, Note_on_c, 0, 54, 96
2, 63833, Note_on_c, 0, 42, 0
2, 63833, Note_on_c, 0, 54, 0
2, 63840, Note_on_c, 0, 42, 96
2, 63840, Note_on_c, 0, 54, 96
2, 64067, Note_on_c, 0, 42, 0
2, 64067, Note_on_c, 0, 54, 0
2, 64080, Note_on_c, 0, 42, 97
2, 64080, Note_on_c, 0, 54, 97
2, 64199, Note_on_c, 0, 42, 0
2, 64199, Note_on_c, 0, 54, 0
2, 64320, Note_on_c, 0, 42, 97
2, 64320, Note_on_c, 0, 54, 97
2, 64439, Note_on_c, 0, 42, 0
2, 64439, Note_on_c, 0, 54, 0
2, 64560, Note_on_c, 0, 42, 97
2, 64560, Note_on_c, 0, 54, 97
2, 64679, Note_on_c, 0, 42, 0
2, 64679, Note_on_c, 0, 54, 0
2, 64800, Note_on_c, 0, 42, 98
2, 64800, Note_on_c, 0, 54, 98
2, 65027, Note_on_c, 0, 42, 0
2, 65027, Note_on_c, 0, 54, 0
2, 65160, Note_on_c, 0, 42, 98
2, 65160, Note_on_c, 0, 54, 98
2, 65273, Note_on_c, 0, 42, 0
2, 65273, Note_on_c, 0, 54, 0
2, 65280, Note_on_c, 0, 42, 98
2, 65280, Note_on_c, 0, 54, 98
2, 65507, Note_on_c, 0, 42, 0
2, 65507, Note_on_c, 0, 54, 0
2, 65520, Note_on_c, 0, 42, 99
2, 65520, Note_on_c, 0, 54, 99
2, 65639, Note_on_c, 0, 42, 0
2, 65639, Note_on_c, 0, 54, 0
2, 65760, Note_on_c, 0, 42, 99
2, 65760, Note_on_c, 0, 54, 99
2, 65879, Note_on_c, 0, 42, 0
2, 65879, Note_on_c, 0, 54, 0
2, 66000, Note_on_c, 0, 42, 99
2, 66000, Note_on_c, 0, 54, 99
2, 66119, Note_on_c, 0, 42, 0
2, 66119, Note_on_c, 0, 54, 0
2, 66240, Note_on_c, 0, 42, 100
2, 66240, Note_on_c, 0, 54, 100
2, 66467, Note_on_c, 0, 42, 0
2, 66467, Note_on_c, 0, 54, 0
2, 66600, Note_on_c, 0, 42, 100
2, 66600, Note_on_c, 0, 54, 100
2, 66713, Note_on_c, 0, 42, 0
2, 66713, Note_on_c, 0, 54, 0
2, 66720, Note_on_c, 0, 42, 100
2, 66720, Note_on_c, 0, 54, 100
2, 66947, Note_on_c, 0, 42, 0
2, 66947, Note_on_c, 0, 54, 0
2, 66960, Note_on_c, 0, 42, 101
2, 66960, Note_on_c, 0, 54, 101
2, 67079, Note_on_c, 0, 42, 0
2, 67079, Note_on_c, 0, 54, 0
2, 67200, Note_on_c, 0, 42, 101
2, 67200, Note_on_c, 0, 54, 101
2, 67319, Note_on_c, 0, 42, 0
2, 67319, Note_on_c, 0, 54, 0
2, 67440, Note_on_c, 0, 42, 101
2, 67440, Note_on_c, 0, 54, 101
2, 67559, Note_on_c, 0, 42, 0
2, 67559, Note_on_c, 0, 54, 0
2, 67680, Note_on_c, 0, 42, 102
2, 67680, Note_on_c, 0, 54, 102
2, 67907, Note_on_c, 0, 42, 0
2, 67907, Note_on_c, 0, 54, 0
2, 68040, Note_on_c, 0, 42, 102
2, 68040, Note_on_c, 0, 54, 102
2, 68153, Note_on_c, 0, 42, 0
2, 68153, Note_on_c, 0, 54, 0
2, 68160, Note_on_c, 0, 42, 102
2, 68160, Note_on_c, 0, 54, 102
2, 68387, Note_on_c, 0, 42, 0
2, 68387, Note_on_c, 0, 54, 0
2, 68400, Note_on_c, 0, 40, 103
2, 68400, Note_on_c, 0, 52, 103
2, 68519, Note_on_c, 0, 40, 0
2, 68519, Note_on_c, 0, 52, 0
2, 68640, Note_on_c, 0, 38, 103
2, 68640, Note_on_c, 0, 50, 103
2, 68759, Note_on_c, 0, 38, 0
2, 68759, Note_on_c, 0, 50, 0
2, 68880, Note_on_c, 0, 37, 103
2, 68880, Note_on_c, 0, 49, 103
2, 68999, Note_on_c, 0, 37, 0
2, 68999, Note_on_c, 0, 49, 0
2, 69120, Note_on_c, 0, 35, 104
2, 69120, Note_on_c, 0, 47, 104
2, 69347, Note_on_c, 0, 35, 0
2, 69347, Note_on_c, 0, 47, 0
2, 69480, Note_on_c, 0, 35, 104
2, 69480, Note_on_c, 0, 47, 104
2, 69593, Note_on_c, 0, 35, 0
2, 69593, Note_on_c, 0, 47, 0
2, 69600, Note_on_c, 0, 35, 104
2, 69600, Note_on_c, 0, 47, 104
2, 69827, Note_on_c, 0, 35, 0
2, 69827, Note_on_c, 0, 47, 0
2, 69840, Note_on_c, 0, 35, 105
2, 69840, Note_on_c, 0, 47, 105
2, 69959, Note_on_c, 0, 35, 0
2, 69959, Note_on_c, 0, 47, 0
2, 70080, Note_on_c, 0, 35, 105
2, 70080, Note_on_c, 0, 47, 105
2, 70199, Note_on_c, 0, 35, 0
2, 70199, Note_on_c, 0, 47, 0
2, 70320, Note_on_c, 0, 35, 105
2, 70320, Note_on_c, 0, 47, 105
2, 70439, Note_on_c, 0, 35, 0
2, 70439, Note_on_c, 0, 47, 0
2, 70560, Note_on_c, 0, 35, 106
2, 70560, Note_on_c, 0, 47, 106
2, 70787, Note_on_c, 0, 35, 0
2, 70787, Note_on_c, 0, 47, 0
2, 70920, Note_on_c, 0, 35, 106
2, 70920, Note_on_c, 0, 47, 106
2, 71033, Note_on_c, 0, 35, 0
2, 71033, Note_on_c, 0, 47, 0
2, 71040, Note_on_c, 0, 35, 106
2, 71040, Note_on_c, 0, 47, 106
2, 71267, Note_on_c, 0, 35, 0
2, 71267, Note_on_c, 0, 47, 0
2, 71280, Note_on_c, 0, 35, 107
2, 71280, Note_on_c, 0, 47, 107
2, 71399, Note_on_c, 0, 35, 0
2, 71399, Note_on_c, 0, 47, 0
2, 71520, Note_on_c, 0, 35, 107
2, 71520, Note_on_c, 0, 47, 107
2, 71639, Note_on_c, 0, 35, 0
2, 71639, Note_on_c, 0, 47, 0
2, 71760, Note_on_c, 0, 35, 107
2, 71760, Note_on_c, 0, 47, 107
2, 71879, Note_on_c, 0, 35, 0
2, 71879, Note_on_c, 0, 47, 0
2, 72000, Note_on_c, 0, 35, 108
2, 72000, Note_on_c, 0, 47, 108
2, 72227, Note_on_c, 0, 35, 0
2, 72227, Note_on_c, 0, 47, 0
2, 72360, Note_on_c, 0, 35, 108
2, 72360, Note_on_c, 0, 47, 108
2, 72473, Note_on_c, 0, 35, 0
2, 72473, Note_on_c, 0, 47, 0
2, 72480, Note_on_c, 0, 35, 108
2, 72480, Note_on_c, 0, 47, 108
2, 72707, Note_on_c, 0, 35, 0
2, 72707, Note_on_c, 0, 47, 0
2, 72720, Note_on_c, 0, 35, 109
2, 72720, Note_on_c, 0, 47, 109
2, 72839, Note_on_c, 0, 35, 0
2, 72839, Note_on_c, 0, 47, 0
2, 72960, Note_on_c, 0, 35, 109
2, 72960, Note_on_c, 0, 47, 109
2, 73079, Note_on_c, 0, 35, 0
2, 73079, Note_on_c, 0, 47, 0
2, 73200, Note_on_c, 0, 35, 109
2, 73200, Note_on_c, 0, 47, 109
2, 73319, Note_on_c, 0, 35, 0
2, 73319, Note_on_c, 0, 47, 0
2, 73440, Note_on_c, 0, 35, 110
2, 73440, Note_on_c, 0, 47, 110
2, 73559, Note_on_c, 0, 35, 0
2, 73559, Note_on_c, 0, 47, 0
2, 73680, Note_on_c, 0, 35, 110
2, 73680, Note_on_c, 0, 47, 110
2, 73799, Note_on_c, 0, 35, 0
2, 73799, Note_on_c, 0, 47, 0
2, 73920, Note_on_c, 0, 35, 110
2, 73920, Note_on_c, 0, 47, 110
2, 74039, Note_on_c, 0, 35, 0
2, 74039, Note_on_c, 0, 47, 0
2, 74160, Note_on_c, 0, 35, 127
2, 74160, Note_on_c, 0, 47, 127
2, 74879, Note_on_c, 0, 35, 0
2, 74879, Note_on_c, 0, 47, 0
2, 74880, Note_on_c, 0, 49, 112
2, 74880, Note_on_c, 0, 61, 112
2, 75107, Note_on_c, 0, 49, 0
2, 75107, Note_on_c, 0, 61, 0
2, 75240, Note_on_c, 0, 48, 112
2, 75240, Note_on_c, 0, 60, 112
2, 75353, Note_on_c, 0, 48, 0
2, 75353, Note_on_c, 0, 60, 0
2, 75360, Note_on_c, 0, 49, 112
2, 75360, Note_on_c, 0, 61, 112
2, 75587, Note_on_c, 0, 49, 0
2, 75587, Note_on_c, 0, 61, 0
2, 75600, Note_on_c, 0, 50, 112
2, 75600, Note_on_c, 0, 62, 112
2, 75719, Note_on_c, 0, 50, 0
2, 75719, Note_on_c, 0, 62, 0
2, 75840, Note_on_c, 0, 48, 112
2, 75840, Note_on_c, 0, 60, 112
2, 75959, Note_on_c, 0, 48, 0
2, 75959, Note_on_c, 0, 60, 0
2, 76080, Note_on_c, 0, 49, 112
2, 76080, Note_on_c, 0, 61, 112
2, 76199, Note_on_c, 0, 49, 0
2, 76199, Note_on_c, 0, 61, 0
2, 76320, Note_on_c, 0, 44, 112
2, 76320, Note_on_c, 0, 56, 112
2, 76439, Note_on_c, 0, 44, 0
2, 76439, Note_on_c, 0, 56, 0
2, 76560, Note_on_c, 0, 45, 112
2, 76560, Note_on_c, 0, 57, 112
2, 76679, Note_on_c, 0, 45, 0
2, 76679, Note_on_c, 0, 57, 0
2, 76800, Note_on_c, 0, 41, 112
2, 76800, Note_on_c, 0, 53, 112
2, 76919, Note_on_c, 0, 41, 0
2, 76919, Note_on_c, 0, 53, 0
2, 77040, Note_on_c, 0, 42, 112
2, 77040, Note_on_c, 0, 54, 112
2, 77159, Note_on_c, 0, 42, 0
2, 77159, Note_on_c, 0, 54, 0
2, 77280, Note_on_c, 0, 37, 112
2, 77280, Note_on_c, 0, 49, 112
2, 77399, Note_on_c, 0, 37, 0
2, 77399, Note_on_c, 0, 49, 0
2, 77520, Note_on_c, 0, 38, 112
2, 77520, Note_on_c, 0, 50, 112
2, 77639, Note_on_c, 0, 38, 0
2, 77639, Note_on_c, 0, 50, 0
2, 77760, Note_on_c, 0, 36, 112
2, 77760, Note_on_c, 0, 48, 112
2, 77879, Note_on_c, 0, 36, 0
2, 77879, Note_on_c, 0, 48, 0
2, 78000, Note_on_c, 0, 37, 112
2, 78000, Note_on_c, 0, 49, 112
2, 78119, Note_on_c, 0, 37, 0
2, 78119, Note_on_c, 0, 49, 0
2, 78240, Note_on_c, 0, 32, 112
2, 78240, Note_on_c, 0, 44, 112
2, 78359, Note_on_c, 0, 32, 0
2, 78359, Note_on_c, 0, 44, 0
2, 78480, Note_on_c, 0, 33, 112
2, 78480, Note_on_c, 0, 45, 112
2, 78599, Note_on_c, 0, 33, 0
2, 78599, Note_on_c, 0, 45, 0
2, 78720, Note_on_c, 0, 29, 112
2, 78720, Note_on_c, 0, 41, 112
2, 78839, Note_on_c, 0, 29, 0
2, 78839, Note_on_c, 0, 41, 0
2, 78960, Note_on_c, 0, 30, 112
2, 78960, Note_on_c, 0, 42, 112
2, 79079, Note_on_c, 0, 30, 0
2, 79079, Note_on_c, 0, 42, 0
2, 79200, Note_on_c, 0, 37, 127
2, 79200, Note_on_c, 0, 49, 127
2, 79679, Note_on_c, 0, 37, 0
2, 79679, Note_on_c, 0, 49, 0
2, 79920, Note_on_c, 0, 30, 112
2, 79920, Note_on_c, 0, 42, 112
2, 80375, Note_on_c, 0, 30, 0
2, 80375, Note_on_c, 0, 42, 0
2, 80640, Note_on_c, 0, 61, 96
2, 80867, Note_on_c, 0, 61, 0
2, 81000, Note_on_c, 0, 61, 96
2, 81113, Note_on_c, 0, 61, 0
2, 81120, Note_on_c, 0, 61, 96
2, 81347, Note_on_c, 0, 61, 0
2, 81360, Note_on_c, 0, 61, 96
2, 81479, Note_on_c, 0, 61, 0
2, 81600, Note_on_c, 0, 61, 96
2, 81719, Note_on_c, 0, 61, 0
2, 81840, Note_on_c, 0, 61, 96
2, 81959, Note_on_c, 0, 61, 0
2, 82080, Note_on_c, 0, 61, 96
2, 82307, Note_on_c, 0, 61, 0
2, 82440, Note_on_c, 0, 61, 96
2, 82553, Note_on_c, 0, 61, 0
2, 82560, Note_on_c, 0, 61, 96
2, 82787, Note_on_c, 0, 61, 0
2, 82800, Note_on_c, 0, 61, 96
2, 82919, Note_on_c, 0, 61, 0
2, 83040, Note_on_c, 0, 61, 96
2, 83159, Note_on_c, 0, 61, 0
2, 83280, Note_on_c, 0, 61, 96
2, 83399, Note_on_c, 0, 61, 0
2, 83520, Note_on_c, 0, 61, 96
2, 83747, Note_on_c, 0, 61, 0
2, 83880, Note_on_c, 0, 61, 96
2, 83993, Note_on_c, 0, 61, 0
2, 84000, Note_on_c, 0, 61, 96
2, 84227, Note_on_c, 0, 61, 0
2, 84240, Note_on_c, 0, 61, 96
2, 84359, Note_on_c, 0, 61, 0
2, 84480, Note_on_c, 0, 61, 96
2, 84599, Note_on_c, 0, 61, 0
2, 84720, Note_on_c, 0, 61, 96
2, 84839, Note_on_c, 0, 61, 0
2, 84960, Note_on_c, 0, 61, 96
2, 85187, Note_on_c, 0, 61, 0
2, 85320, Note_on_c, 0, 61, 96
2, 85433, Note_on_c, 0, 61, 0
2, 85440, Note_on_c, 0, 61, 96
2, 85667, Note_on_c, 0, 61, 0
2, 85680, Note_on_c, 0, 61, 96
2, 85799, Note_on_c, 0, 61, 0
2, 85920, Note_on_c, 0, 61, 96
2, 86039, Note_on_c, 0, 61, 0
2, 86160, Note_on_c, 0, 61, 96
2, 86279, Note_on_c, 0, 61, 0
2, 86400, Note_on_c, 0, 42, 96
2, 86400, Note_on_c, 0, 54, 96
2, 86627, Note_on_c, 0, 42, 0
2, 86627, Note_on_c, 0, 54, 0
2, 86760, Note_on_c, 0, 42, 96
2, 86760, Note_on_c, 0, 54, 96
2, 86873, Note_on_c, 0, 42, 0
2, 86873, Note_on_c, 0, 54, 0
2, 86880, Note_on_c, 0, 42, 96
2, 86880, Note_on_c, 0, 54, 96
2, 87107, Note_on_c, 0, 42, 0
2, 87107, Note_on_c, 0, 54, 0
2, 87120, Note_on_c, 0, 42, 97
2, 87120, Note_on_c, 0, 54, 97
2, 87239, Note_on_c, 0, 42, 0
2, 87239, Note_on_c, 0, 54, 0
2, 87360, Note_on_c, 0, 42, 97
2, 87360, Note_on_c, 0, 54, 97
2, 87479, Note_on_c, 0, 42, 0
2, 87479, Note_on_c, 0, 54, 0
2, 87600, Note_on_c, 0, 42, 97
2, 87600, Note_on_c, 0, 54, 97
2, 87719, Note_on_c, 0, 42, 0
2, 87719, Note_on_c, 0, 54, 0
2, 87840, Note_on_c, 0, 42, 98
2, 87840, Note_on_c, 0, 54, 98
2, 88067, Note_on_c, 0, 42, 0
2, 88067, Note_on_c, 0, 54, 0
2, 88200, Note_on_c, 0, 42, 98
2, 88200, Note_on_c, 0, 54, 98
2, 88313, Note_on_c, 0, 42, 0
2, 88313, Note_on_c, 0, 54, 0
2, 88320, Note_on_c, 0, 42, 98
2, 88320, Note_on_c, 0, 54, 98
2, 88547, Note_on_c, 0, 42, 0
2, 88547, Note_on_c, 0, 54, 0
2, 88560, Note_on_c, 0, 42, 99
2, 88560, Note_on_c, 0, 54, 99
2, 88679, Note_on_c, 0, 42, 0
2, 88679, Note_on_c, 0, 54, 0
2, 88800, Note_on_c, 0, 42, 99
2, 88800, Note_on_c, 0, 54, 99
2, 88919, Note_on_c, 0, 42, 0
2, 88919, Note_on_c, 0, 54, 0
2, 89040, Note_on_c, 0, 42, 99
2, 89040, Note_on_c, 0, 54, 99
2, 89159, Note_on_c, 0, 42, 0
2, 89159, Note_on_c, 0, 54, 0
2, 89280, Note_on_c, 0, 42, 100
2, 89280, Note_on_c, 0, 54, 100
2, 89507, Note_on_c, 0, 42, 0
2, 89507, Note_on_c, 0, 54, 0
2, 89640, Note_on_c, 0, 42, 100
2, 89640, Note_on_c, 0, 54, 100
2, 89753, Note_on_c, 0, 42, 0
2, 89753, Note_on_c, 0, 54, 0
2, 89760, Note_on_c, 0, 42, 100
2, 89760, Note_on_c, 0, 54, 100
2, 89987, Note_on_c, 0, 42, 0
2, 89987, Note_on_c, 0, 54, 0
2, 90000, Note_on_c, 0, 42, 101
2, 90000, Note_on_c, 0, 54, 101
2, 90119, Note_on_c, 0, 42, 0
2, 90119, Note_on_c, 0, 54, 0
2, 90240, Note_on_c, 0, 42, 101
2, 90240, Note_on_c, 0, 54, 101
2, 90359, Note_on_c, 0, 42, 0
2, 90359, Note_on_c, 0, 54, 0
2, 90480, Note_on_c, 0, 42, 101
2, 90480, Note_on_c, 0, 54, 101
2, 90599, Note_on_c, 0, 42, 0
2, 90599, Note_on_c, 0, 54, 0
2, 90720, Note_on_c, 0, 42, 102
2, 90720, Note_on_c, 0, 54, 102
2, 90947, Note_on_c, 0, 42, 0
2, 90947, Note_on_c, 0, 54, 0
2, 91080, Note_on_c, 0, 42, 102
2, 91080, Note_on_c, 0, 54, 102
2, 91193, Note_on_c, 0, 42, 0
2, 91193, Note_on_c, 0, 54, 0
2, 91200, Note_on_c, 0, 42, 102
2, 91200, Note_on_c, 0, 54, 102
2, 91427, Note_on_c, 0, 42, 0
2, 91427, Note_on_c, 0, 54, 0
2, 91440, Note_on_c, 0, 40, 103
2, 91440, Note_on_c, 0, 52, 103
2, 91559, Note_on_c, 0, 40, 0
2, 91559, Note_on_c, 0, 52, 0
2, 91680, Note_on_c, 0, 38, 103
2, 91680, Note_on_c, 0, 50, 103
2, 91799, Note_on_c, 0, 38, 0
2, 91799, Note_on_c, 0, 50, 0
2, 91920, Note_on_c, 0, 37, 103
2, 91920, Note_on_c, 0, 49, 103
2, 92039, Note_on_c, 0, 37, 0
2, 92039, Note_on_c, 0, 49, 0
2, 92160, Note_on_c, 0, 35, 104
2, 92160, Note_on_c, 0, 47, 104
2, 92387, Note_on_c, 0, 35, 0
2, 92387, Note_on_c, 0, 47, 0
2, 92520, Note_on_c, 0, 35, 104
2, 92520, Note_on_c, 0, 47, 104
2, 92633, Note_on_c, 0, 35, 0
2, 92633, Note_on_c, 0, 47, 0
2, 92640, Note_on_c, 0, 35, 104
2, 92640, Note_on_c, 0, 47, 104
2, 92867, Note_on_c, 0, 35, 0
2, 92867, Note_on_c, 0, 47, 0
2, 92880, Note_on_c, 0, 35, 105
2, 92880, Note_on_c, 0, 47, 105
2, 92999, Note_on_c, 0, 35, 0
2, 92999, Note_on_c, 0, 47, 0
2, 93120, Note_on_c, 0, 35, 105
2, 93120, Note_on_c, 0, 47, 105
2, 93239, Note_on_c, 0, 35, 0
2, 93239, Note_on_c, 0, 47, 0
2, 93360, Note_on_c, 0, 35, 105
2, 93360, Note_on_c, 0, 47, 105
2, 93479, Note_on_c, 0, 35, 0
2, 93479, Note_on_c, 0, 47, 0
2, 93600, Note_on_c, 0, 35, 106
2, 93600, Note_on_c, 0, 47, 106
2, 93827, Note_on_c, 0, 35, 0
2, 93827, Note_on_c, 0, 47, 0
2, 93960, Note_on_c, 0, 35, 106
2, 93960, Note_on_c, 0, 47, 106
2, 94073, Note_on_c, 0, 35, 0
2, 94073, Note_on_c, 0, 47, 0
2, 94080, Note_on_c, 0, 35, 106
2, 94080, Note_on_c, 0, 47, 106
2, 94307, Note_on_c, 0, 35, 0
2, 94307, Note_on_c, 0, 47, 0
2, 94320, Note_on_c, 0, 35, 107
2, 94320, Note_on_c, 0, 47, 107
2, 94439, Note_on_c, 0, 35, 0
2, 94439, Note_on_c, 0, 47, 0
2, 94560, Note_on_c, 0, 35, 107
2, 94560, Note_on_c, 0, 47, 107
2, 94679, Note_on_c, 0, 35, 0
2, 94679, Note_on_c, 0, 47, 0
2, 94800, Note_on_c, 0, 35, 107
2, 94800, Note_on_c, 0, 47, 107
2, 94919, Note_on_c, 0, 35, 0
2, 94919, Note_on_c, 0, 47, 0
2, 95040, Note_on_c, 0, 35, 108
2, 95040, Note_on_c, 0, 47, 108
2, 95267, Note_on_c, 0, 35, 0
2, 95267, Note_on_c, 0, 47, 0
2, 95400, Note_on_c, 0, 35, 108
2, 95400, Note_on_c, 0, 47, 108
2, 95513, Note_on_c, 0, 35, 0
2, 95513, Note_on_c, 0, 47, 0
2, 95520, Note_on_c, 0, 35, 108
2, 95520, Note_on_c, 0, 47, 108
2, 95747, Note_on_c, 0, 35, 0
2, 95747, Note_on_c, 0, 47, 0
2, 95760, Note_on_c, 0, 35, 109
2, 95760, Note_on_c, 0, 47, 109
2, 95879, Note_on_c, 0, 35, 0
2, 95879, Note_on_c, 0, 47, 0
2, 96000, Note_on_c, 0, 35, 109
2, 96000, Note_on_c, 0, 47, 109
2, 96119, Note_on_c, 0, 35, 0
2, 96119, Note_on_c, 0, 47, 0
2, 96240, Note_on_c, 0, 35, 109
2, 96240, Note_on_c, 0, 47, 109
2, 96359, Note_on_c, 0, 35, 0
2, 96359, Note_on_c, 0, 47, 0
2, 96480, Note_on_c, 0, 35, 110
2, 96480, Note_on_c, 0, 47, 110
2, 96599, Note_on_c, 0, 35, 0
2, 96599, Note_on_c, 0, 47, 0
2, 96720, Note_on_c, 0, 35, 110
2, 96720, Note_on_c, 0, 47, 110
2, 96839, Note_on_c, 0, 35, 0
2, 96839, Note_on_c, 0, 47, 0
2, 96960, Note_on_c, 0, 35, 110
2, 96960, Note_on_c, 0, 47, 110
2, 97079, Note_on_c, 0, 35, 0
2, 97079, Note_on_c, 0, 47, 0
2, 97200, Note_on_c, 0, 35, 127
2, 97200, Note_on_c, 0, 47, 127
2, 97919, Note_on_c, 0, 35, 0
2, 97919, Note_on_c, 0, 47, 0
2, 97920, Note_on_c, 0, 49, 112
2, 97920, Note_on_c, 0, 61, 112
2, 98147, Note_on_c, 0, 49, 0
2, 98147, Note_on_c, 0, 61, 0
2, 98280, Note_on_c, 0, 48, 112
2, 98280, Note_on_c, 0, 60, 112
2, 98393, Note_on_c, 0, 48, 0
2, 98393, Note_on_c, 0, 60, 0
2, 98400, Note_on_c, 0, 49, 112
2, 98400, Note_on_c, 0, 61, 112
2, 98627, Note_on_c, 0, 49, 0
2, 98627, Note_on_c, 0, 61, 0
2, 98640, Note_on_c, 0, 50, 112
2, 98640, Note_on_c, 0, 62, 112
2, 98759, Note_on_c, 0, 50, 0
2, 98759, Note_on_c, 0, 62, 0
2, 98880, Note_on_c, 0, 48, 112
2, 98880, Note_on_c, 0, 60, 112
2, 98999, Note_on_c, 0, 48, 0
2, 98999, Note_on_c, 0, 60, 0
2, 99120, Note_on_c, 0, 49, 112
2, 99120, Note_on_c, 0, 61, 112
2, 99239, Note_on_c, 0, 49, 0
2, 99239, Note_on_c, 0, 61, 0
2, 99360, Note_on_c, 0, 44, 112
2, 99360, Note_on_c, 0, 56, 112
2, 99479, Note_on_c, 0, 44, 0
2, 99479, Note_on_c, 0, 56, 0
2, 99600, Note_on_c, 0, 45, 112
2, 99600, Note_on_c, 0, 57, 112
2, 99719, Note_on_c, 0, 45, 0
2, 99719, Note_on_c, 0, 57, 0
2, 99840, Note_on_c, 0, 41, 112
2, 99840, Note_on_c, 0, 53, 112
2, 99959, Note_on_c, 0, 41, 0
2, 99959, Note_on_c, 0, 53, 0
2, 100080, Note_on_c, 0, 42, 112
2, 100080, Note_on_c, 0, 54, 112
2, 100199, Note_on_c, 0, 42, 0
2, 100199, Note_on_c, 0, 54, 0
2, 100320, Note_on_c, 0, 37, 112
2, 100320, Note_on_c, 0, 49, 112
2, 100439, Note_on_c, 0, 37, 0
2, 100439, Note_on_c, 0, 49, 0
2, 100560, Note_on_c, 0, 38, 112
2, 100560, Note_on_c, 0, 50, 112
2, 100679, Note_on_c, 0, 38, 0
2, 100679, Note_on_c, 0, 50, 0
2, 100800, Note_on_c, 0, 36, 112
2, 100800, Note_on_c, 0, 48, 112
2, 100919, Note_on_c, 0, 36, 0
2, 100919, Note_on_c, 0, 48, 0
2, 101040, Note_on_c, 0, 37, 112
2, 101040, Note_on_c, 0, 49, 112
2, 101159, Note_on_c, 0, 37, 0
2, 101159, Note_on_c, 0, 49, 0
2, 101280, Note_on_c, 0, 32, 112
2, 101280, Note_on_c, 0, 44, 112
2, 101399, Note_on_c, 0, 32, 0
2, 101399, Note_on_c, 0, 44, 0
2, 101520, Note_on_c, 0, 33, 112
2, 101520, Note_on_c, 0, 45, 112
2, 101639, Note_on_c, 0, 33, 0
2, 101639, Note_on_c, 0, 45, 0
2, 101760, Note_on_c, 0, 29, 112
2, 101760, Note_on_c, 0, 41, 112
2, 101879, Note_on_c, 0, 29, 0
2, 101879, Note_on_c, 0, 41, 0
2, 102000, Note_on_c, 0, 30, 112
2, 102000, Note_on_c, 0, 42, 112
2, 102119, Note_on_c, 0, 30, 0
2, 102119, Note_on_c, 0, 42, 0
2, 102240, Note_on_c, 0, 37, 127
2, 102240, Note_on_c, 0, 49, 127
2, 102719, Note_on_c, 0, 37, 0
2, 102719, Note_on_c, 0, 49, 0
2, 102960, Note_on_c, 0, 30, 112
2, 102960, Note_on_c, 0, 42, 112
2, 103415, Note_on_c, 0, 30, 0
2, 103415, Note_on_c, 0, 42, 0
2, 103680, Note_on_c, 0, 61, 112
2, 103907, Note_on_c, 0, 61, 0
2, 104040, Note_on_c, 0, 61, 109
2, 104153, Note_on_c, 0, 61, 0
2, 104160, Note_on_c, 0, 61, 107
2, 104387, Note_on_c, 0, 61, 0
2, 104400, Note_on_c, 0, 61, 105
2, 104855, Note_on_c, 0, 61, 0
2, 104880, Note_on_c, 0, 61, 99
2, 105107, Note_on_c, 0, 61, 0
2, 105120, Note_on_c, 0, 61, 97
2, 105575, Note_on_c, 0, 61, 0
2, 105600, Note_on_c, 0, 61, 91
2, 105827, Note_on_c, 0, 61, 0
2, 105840, Note_on_c, 0, 61, 89
2, 106295, Note_on_c, 0, 61, 0
2, 106320, Note_on_c, 0, 49, 84
2, 106320, Note_on_c, 0, 56, 84
2, 106320, Note_on_c, 0, 61, 84
2, 106439, Note_on_c, 0, 49, 0
2, 106439, Note_on_c, 0, 56, 0
2, 106439, Note_on_c, 0, 61, 0
2, 106560, Note_on_c, 0, 54, 81
2, 106560, Note_on_c, 0, 57, 81
2, 106560, Note_on_c, 0, 61, 81
2, 106799, Note_on_c, 0, 54, 0
2, 106799, Note_on_c, 0, 57, 0
2, 106799, Note_on_c, 0, 61, 0
2, 107040, Note_on_c, 0, 49, 76
2, 107040, Note_on_c, 0, 56, 76
2, 107040, Note_on_c, 0, 61, 76
2, 107159, Note_on_c, 0, 49, 0
2, 107159, Note_on_c, 0, 56, 0
2, 107159, Note_on_c, 0, 61, 0
2, 107280, Note_on_c, 0, 54, 73
2, 107280, Note_on_c, 0, 57, 73
2, 107280, Note_on_c, 0, 61, 73
2, 107519, Note_on_c, 0, 54, 0
2, 107519, Note_on_c, 0, 57, 0
2, 107519, Note_on_c, 0, 61, 0
2, 107760, Note_on_c, 0, 49, 68
2, 107760, Note_on_c, 0, 56, 68
2, 107760, Note_on_c, 0, 61, 68
2, 107879, Note_on_c, 0, 49, 0
2, 107879, Note_on_c, 0, 56, 0
2, 107879, Note_on_c, 0, 61, 0
2, 108000, Note_on_c, 0, 54, 65
2, 108000, Note_on_c, 0, 57, 65
2, 108000, Note_on_c, 0, 61, 65
2, 108239, Note_on_c, 0, 54, 0
2, 108239, Note_on_c, 0, 57, 0
2, 108239, Note_on_c, 0, 61, 0
2, 108480, Note_on_c, 0, 49, 60
2, 108707, Note_on_c, 0, 49, 0
2, 108720, Note_on_c, 0, 49, 57
2, 109175, Note_on_c, 0, 49, 0
2, 109200, Note_on_c, 0, 49, 52
2, 109427, Note_on_c, 0, 49, 0
2, 109440, Note_on_c, 0, 49, 49
2, 109667, Note_on_c, 0, 49, 0
2, 109800, Note_on_c, 0, 49, 48
2, 109913, Note_on_c, 0, 49, 0
2, 109920, Note_on_c, 0, 49, 48
2, 110147, Note_on_c, 0, 49, 0
2, 110160, Note_on_c, 0, 49, 47
2, 110615, Note_on_c, 0, 49, 0
2, 110640, Note_on_c, 0, 49, 46
2, 110867, Note_on_c, 0, 49, 0
2, 110880, Note_on_c, 0, 49, 45
2, 111335, Note_on_c, 0, 49, 0
2, 111360, Note_on_c, 0, 49, 44
2, 111587, Note_on_c, 0, 49, 0
2, 111600, Note_on_c, 0, 49, 43
2, 112055, Note_on_c, 0, 49, 0
2, 112080, Note_on_c, 0, 37, 42
2, 112080, Note_on_c, 0, 49, 42
2, 112199, Note_on_c, 0, 37, 0
2, 112199, Note_on_c, 0, 49, 0
2, 112320, Note_on_c, 0, 42, 41
2, 112320, Note_on_c, 0, 49, 41
2, 112559, Note_on_c, 0, 42, 0
2, 112559, Note_on_c, 0, 49, 0
2, 112800, Note_on_c, 0, 37, 40
2, 112800, Note_on_c, 0, 49, 40
2, 112919, Note_on_c, 0, 37, 0
2, 112919, Note_on_c, 0, 49, 0
2, 113040, Note_on_c, 0, 42, 39
2, 113040, Note_on_c, 0, 49, 39
2, 113279, Note_on_c, 0, 42, 0
2, 113279, Note_on_c, 0, 49, 0
2, 113520, Note_on_c, 0, 37, 38
2, 113520, Note_on_c, 0, 49, 38
2, 113639, Note_on_c, 0, 37, 0
2, 113639, Note_on_c, 0, 49, 0
2, 113760, Note_on_c, 0, 42, 37
2, 113760, Note_on_c, 0, 49, 37
2, 113987, Note_on_c, 0, 42, 0
2, 113987, Note_on_c, 0, 49, 0
2, 114120, Note_on_c, 0, 49, 36
2, 114233, Note_on_c, 0, 49, 0
2, 114240, Note_on_c, 0, 49, 36
2, 114467, Note_on_c, 0, 49, 0
2, 114480, Note_on_c, 0, 49, 35
2, 114935, Note_on_c, 0, 49, 0
2, 114960, Note_on_c, 0, 37, 33
2, 114960, Note_on_c, 0, 44, 33
2, 114960, Note_on_c, 0, 49, 33
2, 115079, Note_on_c, 0, 37, 0
2, 115079, Note_on_c, 0, 44, 0
2, 115079, Note_on_c, 0, 49, 0
2, 115200, Note_on_c, 0, 42, 33
2, 115200, Note_on_c, 0, 45, 33
2, 115200, Note_on_c, 0, 49, 33
2, 115439, Note_on_c, 0, 42, 0
2, 115439, Note_on_c, 0, 45, 0
2, 115439, Note_on_c, 0, 49, 0
2, 115680, Note_on_c, 0, 37, 33
2, 115680, Note_on_c, 0, 44, 33
2, 115680, Note_on_c, 0, 49, 33
2, 115799, Note_on_c, 0, 37, 0
2, 115799, Note_on_c, 0, 44, 0
2, 115799, Note_on_c, 0, 49, 0
2, 115920, Note_on_c, 0, 42, 33
2, 115920, Note_on_c, 0, 45, 33
2, 115920, Note_on_c, 0, 49, 33
2, 116159, Note_on_c, 0, 42, 0
2, 116159, Note_on_c, 0, 45, 0
2, 116159, Note_on_c, 0, 49, 0
2, 116400, Note_on_c, 0, 37, 33
2, 116400, Note_on_c, 0, 44, 33
2, 116400, Note_on_c, 0, 49, 33
2, 116519, Note_on_c, 0, 37, 0
2, 116519, Note_on_c, 0, 44, 0
2, 116519, Note_on_c, 0, 49, 0
2, 116640, Note_on_c, 0, 42, 33
2, 116640, Note_on_c, 0, 45, 33
2, 116640, Note_on_c, 0, 49, 33
2, 116867, Note_on_c, 0, 42, 0
2, 116867, Note_on_c, 0, 45, 0
2, 116867, Note_on_c, 0, 49, 0
2, 117000, Note_on_c, 0, 49, 44
2, 117113, Note_on_c, 0, 49, 0
2, 117120, Note_on_c, 0, 49, 48
2, 117347, Note_on_c, 0, 49, 0
2, 117360, Note_on_c, 0, 49, 56
2, 117815, Note_on_c, 0, 49, 0
2, 117840, Note_on_c, 0, 49, 72
2, 118067, Note_on_c, 0, 49, 0
2, 118080, Note_on_c, 0, 49, 80
2, 118535, Note_on_c, 0, 49, 0
2, 118560, Note_on_c, 0, 49, 80
2, 118787, Note_on_c, 0, 49, 0
2, 118800, Note_on_c, 0, 49, 80
2, 119255, Note_on_c, 0, 49, 0
2, 119280, Note_on_c, 0, 49, 80
2, 119507, Note_on_c, 0, 49, 0
2, 119520, Note_on_c, 0, 49, 80
2, 119975, Note_on_c, 0, 49, 0
2, 120000, Note_on_c, 0, 49, 80
2, 120227, Note_on_c, 0, 49, 0
2, 120240, Note_on_c, 0, 49, 80
2, 120695, Note_on_c, 0, 49, 0
2, 120720, Note_on_c, 0, 49, 80
2, 120947, Note_on_c, 0, 49, 0
2, 120960, Note_on_c, 0, 49, 80
2, 121415, Note_on_c, 0, 49, 0
2, 121440, Note_on_c, 0, 49, 80
2, 121667, Note_on_c, 0, 49, 0
2, 121680, Note_on_c, 0, 49, 80
2, 122135, Note_on_c, 0, 49, 0
2, 122160, Note_on_c, 0, 49, 80
2, 122387, Note_on_c, 0, 49, 0
2, 122400, Note_on_c, 0, 49, 80
2, 122855, Note_on_c, 0, 49, 0
2, 122880, Note_on_c, 0, 49, 70
2, 123107, Note_on_c, 0, 49, 0
2, 123120, Note_on_c, 0, 49, 65
2, 123575, Note_on_c, 0, 49, 0
2, 123600, Note_on_c, 0, 49, 55
2, 123827, Note_on_c, 0, 49, 0
2, 123840, Note_on_c, 0, 34, 49
2, 123932, Note_on_c, 0, 34, 0
2, 123933, Note_on_c, 0, 49, 49
2, 124298, Note_on_c, 0, 49, 0
2, 124320, Note_on_c, 0, 49, 49
2, 124547, Note_on_c, 0, 49, 0
2, 124560, Note_on_c, 0, 49, 49
2, 125015, Note_on_c, 0, 49, 0
2, 125040, Note_on_c, 0, 49, 49
2, 125267, Note_on_c, 0, 49, 0
2, 125280, Note_on_c, 0, 35, 49
2, 125372, Note_on_c, 0, 35, 0
2, 125373, Note_on_c, 0, 50, 49
2, 125738, Note_on_c, 0, 50, 0
2, 125760, Note_on_c, 0, 50, 49
2, 125987, Note_on_c, 0, 50, 0
2, 126000, Note_on_c, 0, 50, 49
2, 126455, Note_on_c, 0, 50, 0
2, 126480, Note_on_c, 0, 50, 49
2, 126707, Note_on_c, 0, 50, 0
2, 126720, Note_on_c, 0, 50, 49
2, 127175, Note_on_c, 0, 50, 0
2, 127200, Note_on_c, 0, 50, 49
2, 127427, Note_on_c, 0, 50, 0
2, 127440, Note_on_c, 0, 50, 49
2, 127895, Note_on_c, 0, 50, 0
2, 127920, Note_on_c, 0, 50, 49
2, 128147, Note_on_c, 0, 50, 0
2, 128160, Note_on_c, 0, 37, 49
2, 128252, Note_on_c, 0, 37, 0
2, 128253, Note_on_c, 0, 49, 49
2, 128618, Note_on_c, 0, 49, 0
2, 128640, Note_on_c, 0, 49, 49
2, 128867, Note_on_c, 0, 49, 0
2, 128880, Note_on_c, 0, 49, 49
2, 129335, Note_on_c, 0, 49, 0
2, 129360, Note_on_c, 0, 49, 49
2, 129587, Note_on_c, 0, 49, 0
2, 129600, Note_on_c, 0, 49, 49
2, 129600, Note_on_c, 0, 42, 49
2, 130055, Note_on_c, 0, 49, 0
2, 130080, Note_on_c, 0, 49, 49
2, 130307, Note_on_c, 0, 49, 0
2, 130320, Note_on_c, 0, 49, 49
2, 130775, Note_on_c, 0, 49, 0
2, 130800, Note_on_c, 0, 49, 49
2, 130967, Note_on_c, 0, 42, 0
2, 131027, Note_on_c, 0, 49, 0
2, 131040, Note_on_c, 0, 49, 49
2, 131040, Note_on_c, 0, 37, 49
2, 131495, Note_on_c, 0, 49, 0
2, 131520, Note_on_c, 0, 49, 54
2, 131747, Note_on_c, 0, 49, 0
2, 131760, Note_on_c, 0, 49, 56
2, 132215, Note_on_c, 0, 49, 0
2, 132240, Note_on_c, 0, 49, 61
2, 132407, Note_on_c, 0, 37, 0
2, 132467, Note_on_c, 0, 49, 0
2, 132480, Note_on_c, 0, 49, 64
2, 132480, Note_on_c, 0, 42, 64
2, 132935, Note_on_c, 0, 49, 0
2, 132960, Note_on_c, 0, 49, 64
2, 133187, Note_on_c, 0, 49, 0
2, 133200, Note_on_c, 0, 49, 64
2, 133655, Note_on_c, 0, 49, 0
2, 133680, Note_on_c, 0, 49, 64
2, 133847, Note_on_c, 0, 42, 0
2, 133907, Note_on_c, 0, 49, 0
2, 133920, Note_on_c, 0, 49, 64
2, 133920, Note_on_c, 0, 37, 64
2, 134375, Note_on_c, 0, 49, 0
2, 134400, Note_on_c, 0, 49, 59
2, 134603, Note_on_c, 0, 37, 0
2, 134627, Note_on_c, 0, 49, 0
2, 134640, Note_on_c, 0, 49, 57
2, 134640, Note_on_c, 0, 35, 57
2, 135095, Note_on_c, 0, 49, 0
2, 135120, Note_on_c, 0, 49, 52
2, 135323, Note_on_c, 0, 35, 0
2, 135347, Note_on_c, 0, 49, 0
2, 135360, Note_on_c, 0, 34, 49
2, 135452, Note_on_c, 0, 34, 0
2, 135453, Note_on_c, 0, 49, 49
2, 135818, Note_on_c, 0, 49, 0
2, 135840, Note_on_c, 0, 49, 49
2, 136067, Note_on_c, 0, 49, 0
2, 136080, Note_on_c, 0, 49, 49
2, 136535, Note_on_c, 0, 49, 0
2, 136560, Note_on_c, 0, 49, 49
2, 136787, Note_on_c, 0, 49, 0
2, 136800, Note_on_c, 0, 35, 49
2, 136892, Note_on_c, 0, 35, 0
2, 136893, Note_on_c, 0, 50, 49
2, 137258, Note_on_c, 0, 50, 0
2, 137280, Note_on_c, 0, 50, 49
2, 137507, Note_on_c, 0, 50, 0
2, 137520, Note_on_c, 0, 50, 49
2, 137975, Note_on_c, 0, 50, 0
2, 138000, Note_on_c, 0, 50, 49
2, 138227, Note_on_c, 0, 50, 0
2, 138240, Note_on_c, 0, 37, 49
2, 138332, Note_on_c, 0, 37, 0
2, 138333, Note_on_c, 0, 49, 49
2, 138698, Note_on_c, 0, 49, 0
2, 138720, Note_on_c, 0, 49, 49
2, 138947, Note_on_c, 0, 49, 0
2, 138960, Note_on_c, 0, 49, 49
2, 139415, Note_on_c, 0, 49, 0
2, 139440, Note_on_c, 0, 49, 49
2, 139667, Note_on_c, 0, 49, 0
2, 139680, Note_on_c, 0, 42, 49
2, 139680, Note_on_c, 0, 49, 49
2, 140135, Note_on_c, 0, 42, 0
2, 140135, Note_on_c, 0, 49, 0
2, 140160, Note_on_c, 0, 49, 49
2, 140387, Note_on_c, 0, 49, 0
2, 140400, Note_on_c, 0, 49, 49
2, 140855, Note_on_c, 0, 49, 0
2, 140880, Note_on_c, 0, 49, 49
2, 141107, Note_on_c, 0, 49, 0
2, 141120, Note_on_c, 0, 49, 80
2, 141575, Note_on_c, 0, 49, 0
2, 141600, Note_on_c, 0, 49, 80
2, 141827, Note_on_c, 0, 49, 0
2, 141840, Note_on_c, 0, 49, 80
2, 142295, Note_on_c, 0, 49, 0
2, 142320, Note_on_c, 0, 49, 80
2, 142547, Note_on_c, 0, 49, 0
2, 142560, Note_on_c, 0, 49, 80
2, 143015, Note_on_c, 0, 49, 0
2, 143040, Note_on_c, 0, 49, 80
2, 143267, Note_on_c, 0, 49, 0
2, 143280, Note_on_c, 0, 49, 80
2, 143735, Note_on_c, 0, 49, 0
2, 143760, Note_on_c, 0, 49, 80
2, 143987, Note_on_c, 0, 49, 0
2, 144000, Note_on_c, 0, 49, 80
2, 144455, Note_on_c, 0, 49, 0
2, 144480, Note_on_c, 0, 49, 80
2, 144707, Note_on_c, 0, 49, 0
2, 144720, Note_on_c, 0, 49, 80
2, 145175, Note_on_c, 0, 49, 0
2, 145200, Note_on_c, 0, 49, 80
2, 145427, Note_on_c, 0, 49, 0
2, 145440, Note_on_c, 0, 49, 80
2, 145895, Note_on_c, 0, 49, 0
2, 145920, Note_on_c, 0, 49, 70
2, 146147, Note_on_c, 0, 49, 0
2, 146160, Note_on_c, 0, 49, 65
2, 146615, Note_on_c, 0, 49, 0
2, 146640, Note_on_c, 0, 49, 55
2, 146867, Note_on_c, 0, 49, 0
2, 146880, Note_on_c, 0, 34, 49
2, 146972, Note_on_c, 0, 34, 0
2, 146973, Note_on_c, 0, 49, 49
2, 147338, Note_on_c, 0, 49, 0
2, 147360, Note_on_c, 0, 49, 49
2, 147587, Note_on_c, 0, 49, 0
2, 147600, Note_on_c, 0, 49, 49
2, 148055, Note_on_c, 0, 49, 0
2, 148080, Note_on_c, 0, 49, 49
2, 148307, Note_on_c, 0, 49, 0
2, 148320, Note_on_c, 0, 35, 49
2, 148412, Note_on_c, 0, 35, 0
2, 148413, Note_on_c, 0, 50, 49
2, 148778, Note_on_c, 0, 50, 0
2, 148800, Note_on_c, 0, 50, 49
2, 149027, Note_on_c, 0, 50, 0
2, 149040, Note_on_c, 0, 50, 49
2, 149495, Note_on_c, 0, 50, 0
2, 149520, Note_on_c, 0, 50, 49
2, 149747, Note_on_c, 0, 50, 0
2, 149760, Note_on_c, 0, 50, 49
2, 150215, Note_on_c, 0, 50, 0
2, 150240, Note_on_c, 0, 50, 49
2, 150467, Note_on_c, 0, 50, 0
2, 150480, Note_on_c, 0, 50, 49
2, 150935, Note_on_c, 0, 50, 0
2, 150960, Note_on_c, 0, 50, 49
2, 151187, Note_on_c, 0, 50, 0
2, 151200, Note_on_c, 0, 37, 49
2, 151292, Note_on_c, 0, 37, 0
2, 151293, Note_on_c, 0, 49, 49
2, 151658, Note_on_c, 0, 49, 0
2, 151680, Note_on_c, 0, 49, 49
2, 151907, Note_on_c, 0, 49, 0
2, 151920, Note_on_c, 0, 49, 49
2, 152375, Note_on_c, 0, 49, 0
2, 152400, Note_on_c, 0, 49, 49
2, 152627, Note_on_c, 0, 49, 0
2, 152640, Note_on_c, 0, 49, 49
2, 152640, Note_on_c, 0, 42, 49
2, 153095, Note_on_c, 0, 49, 0
2, 153120, Note_on_c, 0, 49, 49
2, 153347, Note_on_c, 0, 49, 0
2, 153360, Note_on_c, 0, 49, 49
2, 153815, Note_on_c, 0, 49, 0
2, 153840, Note_on_c, 0, 49, 49
2, 154007, Note_on_c, 0, 42, 0
2, 154067, Note_on_c, 0, 49, 0
2, 154080, Note_on_c, 0, 49, 49
2, 154080, Note_on_c, 0, 37, 49
2, 154535, Note_on_c, 0, 49, 0
2, 154560, Note_on_c, 0, 49, 54
2, 154787, Note_on_c, 0, 49, 0
2, 154800, Note_on_c, 0, 49, 56
2, 155255, Note_on_c, 0, 49, 0
2, 155280, Note_on_c, 0, 49, 61
2, 155447, Note_on_c, 0, 37, 0
2, 155507, Note_on_c, 0, 49, 0
2, 155520, Note_on_c, 0, 49, 64
2, 155520, Note_on_c, 0, 42, 64
2, 155975, Note_on_c, 0, 49, 0
2, 156000, Note_on_c, 0, 49, 64
2, 156227, Note_on_c, 0, 49, 0
2, 156240, Note_on_c, 0, 49, 64
2, 156695, Note_on_c, 0, 49, 0
2, 156720, Note_on_c, 0, 49, 64
2, 156887, Note_on_c, 0, 42, 0
2, 156947, Note_on_c, 0, 49, 0
2, 156960, Note_on_c, 0, 49, 64
2, 156960, Note_on_c, 0, 37, 64
2, 157415, Note_on_c, 0, 49, 0
2, 157440, Note_on_c, 0, 49, 59
2, 157643, Note_on_c, 0, 37, 0
2, 157667, Note_on_c, 0, 49, 0
2, 157680, Note_on_c, 0, 49, 57
2, 157680, Note_on_c, 0, 35, 57
2, 158135, Note_on_c, 0, 49, 0
2, 158160, Note_on_c, 0, 49, 52
2, 158363, Note_on_c, 0, 35, 0
2, 158387, Note_on_c, 0, 49, 0
2, 158400, Note_on_c, 0, 34, 49
2, 158492, Note_on_c, 0, 34, 0
2, 158493, Note_on_c, 0, 49, 49
2, 158858, Note_on_c, 0, 49, 0
2, 158880, Note_on_c, 0, 49, 49
2, 159107, Note_on_c, 0, 49, 0
2, 159120, Note_on_c, 0, 49, 49
2, 159575, Note_on_c, 0, 49, 0
2, 159600, Note_on_c, 0, 49, 49
2, 159827, Note_on_c, 0, 49, 0
2, 159840, Note_on_c, 0, 35, 49
2, 159932, Note_on_c, 0, 35, 0
2, 159933, Note_on_c, 0, 50, 49
2, 160298, Note_on_c, 0, 50, 0
2, 160320, Note_on_c, 0, 50, 49
2, 160547, Note_on_c, 0, 50, 0
2, 160560, Note_on_c, 0, 50, 49
2, 161015, Note_on_c, 0, 50, 0
2, 161040, Note_on_c, 0, 50, 49
2, 161267, Note_on_c, 0, 50, 0
2, 161280, Note_on_c, 0, 37, 49
2, 161372, Note_on_c, 0, 37, 0
2, 161373, Note_on_c, 0, 49, 49
2, 161738, Note_on_c, 0, 49, 0
2, 161760, Note_on_c, 0, 49, 49
2, 161987, Note_on_c, 0, 49, 0
2, 162000, Note_on_c, 0, 49, 49
2, 162455, Note_on_c, 0, 49, 0
2, 162480, Note_on_c, 0, 49, 49
2, 162707, Note_on_c, 0, 49, 0
2, 162720, Note_on_c, 0, 42, 49
2, 162720, Note_on_c, 0, 49, 49
2, 163175, Note_on_c, 0, 42, 0
2, 163175, Note_on_c, 0, 49, 0
2, 163200, Note_on_c, 0, 49, 49
2, 163427, Note_on_c, 0, 49, 0
2, 163440, Note_on_c, 0, 49, 49
2, 163895, Note_on_c, 0, 49, 0
2, 163920, Note_on_c, 0, 49, 49
2, 164147, Note_on_c, 0, 49, 0
2, 164160, Note_on_c, 0, 50, 49
2, 164615, Note_on_c, 0, 50, 0
2, 164640, Note_on_c, 0, 50, 49
2, 164867, Note_on_c, 0, 50, 0
2, 164880, Note_on_c, 0, 50, 49
2, 165335, Note_on_c, 0, 50, 0
2, 165360, Note_on_c, 0, 50, 49
2, 165587, Note_on_c, 0, 50, 0
2, 165600, Note_on_c, 0, 50, 52
2, 166055, Note_on_c, 0, 50, 0
2, 166080, Note_on_c, 0, 50, 60
2, 166307, Note_on_c, 0, 50, 0
2, 166320, Note_on_c, 0, 50, 64
2, 166775, Note_on_c, 0, 50, 0
2, 166800, Note_on_c, 0, 50, 59
2, 167027, Note_on_c, 0, 50, 0
2, 167040, Note_on_c, 0, 50, 57
2, 167495, Note_on_c, 0, 50, 0
2, 167520, Note_on_c, 0, 50, 52
2, 167747, Note_on_c, 0, 50, 0
2, 167760, Note_on_c, 0, 50, 49
2, 168215, Note_on_c, 0, 50, 0
2, 168240, Note_on_c, 0, 50, 49
2, 168467, Note_on_c, 0, 50, 0
2, 168480, Note_on_c, 0, 50, 49
2, 168935, Note_on_c, 0, 50, 0
2, 168960, Note_on_c, 0, 50, 49
2, 169187, Note_on_c, 0, 50, 0
2, 169200, Note_on_c, 0, 50, 49
2, 169655, Note_on_c, 0, 50, 0
2, 169680, Note_on_c, 0, 50, 49
2, 169907, Note_on_c, 0, 50, 0
2, 169920, Note_on_c, 0, 54, 49
2, 169920, Note_on_c, 0, 50, 49
2, 170399, Note_on_c, 0, 50, 0
2, 170400, Note_on_c, 0, 50, 52
2, 170639, Note_on_c, 0, 54, 0
2, 170639, Note_on_c, 0, 50, 0
2, 170640, Note_on_c, 0, 55, 54
2, 170640, Note_on_c, 0, 59, 54
2, 170640, Note_on_c, 0, 50, 54
2, 171119, Note_on_c, 0, 55, 0
2, 171119, Note_on_c, 0, 59, 0
2, 171119, Note_on_c, 0, 50, 0
2, 171120, Note_on_c, 0, 54, 57
2, 171120, Note_on_c, 0, 57, 57
2, 171120, Note_on_c, 0, 50, 57
2, 171347, Note_on_c, 0, 54, 0
2, 171347, Note_on_c, 0, 57, 0
2, 171347, Note_on_c, 0, 50, 0
2, 171360, Note_on_c, 0, 54, 59
2, 171360, Note_on_c, 0, 57, 59
2, 171360, Note_on_c, 0, 50, 59
2, 171839, Note_on_c, 0, 50, 0
2, 171840, Note_on_c, 0, 50, 62
2, 172079, Note_on_c, 0, 54, 0
2, 172079, Note_on_c, 0, 57, 0
2, 172079, Note_on_c, 0, 50, 0
2, 172080, Note_on_c, 0, 59, 64
2, 172080, Note_on_c, 0, 62, 64
2, 172080, Note_on_c, 0, 50, 64
2, 172559, Note_on_c, 0, 59, 0
2, 172559, Note_on_c, 0, 62, 0
2, 172559, Note_on_c, 0, 50, 0
2, 172560, Note_on_c, 0, 57, 64
2, 172560, Note_on_c, 0, 60, 64
2, 172560, Note_on_c, 0, 50, 64
2, 172787, Note_on_c, 0, 57, 0
2, 172787, Note_on_c, 0, 60, 0
2, 172787, Note_on_c, 0, 50, 0
2, 172800, Note_on_c, 0, 57, 64
2, 172800, Note_on_c, 0, 60, 64
2, 172800, Note_on_c, 0, 50, 64
2, 173279, Note_on_c, 0, 50, 0
2, 173280, Note_on_c, 0, 50, 61
2, 173519, Note_on_c, 0, 57, 0
2, 173519, Note_on_c, 0, 50, 0
2, 173520, Note_on_c, 0, 55, 59
2, 173520, Note_on_c, 0, 50, 59
2, 173999, Note_on_c, 0, 60, 0
2, 173999, Note_on_c, 0, 55, 0
2, 173999, Note_on_c, 0, 50, 0
2, 174000, Note_on_c, 0, 59, 56
2, 174000, Note_on_c, 0, 50, 56
2, 174227, Note_on_c, 0, 59, 0
2, 174227, Note_on_c, 0, 50, 0
2, 174240, Note_on_c, 0, 54, 54
2, 174240, Note_on_c, 0, 57, 54
2, 174240, Note_on_c, 0, 50, 54
2, 174695, Note_on_c, 0, 50, 0
2, 174720, Note_on_c, 0, 50, 51
2, 174923, Note_on_c, 0, 54, 0
2, 174923, Note_on_c, 0, 57, 0
2, 174947, Note_on_c, 0, 50, 0
2, 174960, Note_on_c, 0, 49, 49
2, 175415, Note_on_c, 0, 49, 0
2, 175440, Note_on_c, 0, 47, 49
2, 175667, Note_on_c, 0, 47, 0
2, 175680, Note_on_c, 0, 46, 49
2, 175680, Note_on_c, 0, 34, 49
2, 176135, Note_on_c, 0, 46, 0
2, 176160, Note_on_c, 0, 46, 49
2, 176387, Note_on_c, 0, 46, 0
2, 176400, Note_on_c, 0, 46, 49
2, 176855, Note_on_c, 0, 46, 0
2, 176880, Note_on_c, 0, 46, 49
2, 177047, Note_on_c, 0, 34, 0
2, 177107, Note_on_c, 0, 46, 0
2, 177120, Note_on_c, 0, 47, 49
2, 177120, Note_on_c, 0, 35, 49
2, 177575, Note_on_c, 0, 47, 0
2, 177600, Note_on_c, 0, 47, 49
2, 177827, Note_on_c, 0, 47, 0
2, 177840, Note_on_c, 0, 47, 49
2, 178295, Note_on_c, 0, 47, 0
2, 178320, Note_on_c, 0, 47, 49
2, 178487, Note_on_c, 0, 35, 0
2, 178547, Note_on_c, 0, 47, 0
2, 178560, Note_on_c, 0, 49, 49
2, 178560, Note_on_c, 0, 37, 49
2, 179015, Note_on_c, 0, 49, 0
2, 179040, Note_on_c, 0, 49, 49
2, 179267, Note_on_c, 0, 49, 0
2, 179280, Note_on_c, 0, 49, 49
2, 179735, Note_on_c, 0, 49, 0
2, 179760, Note_on_c, 0, 49, 49
2, 179927, Note_on_c, 0, 37, 0
2, 179987, Note_on_c, 0, 49, 0
2, 180000, Note_on_c, 0, 49, 49
2, 180000, Note_on_c, 0, 42, 49
2, 180455, Note_on_c, 0, 49, 0
2, 180480, Note_on_c, 0, 49, 48
2, 180707, Note_on_c, 0, 49, 0
2, 180720, Note_on_c, 0, 49, 47
2, 181175, Note_on_c, 0, 49, 0
2, 181200, Note_on_c, 0, 49, 46
2, 181367, Note_on_c, 0, 42, 0
2, 181427, Note_on_c, 0, 49, 0
2, 181440, Note_on_c, 0, 34, 45
2, 181532, Note_on_c, 0, 34, 0
2, 181533, Note_on_c, 0, 49, 45
2, 181898, Note_on_c, 0, 49, 0
2, 181920, Note_on_c, 0, 49, 44
2, 182147, Note_on_c, 0, 49, 0
2, 182160, Note_on_c, 0, 49, 43
2, 182615, Note_on_c, 0, 49, 0
2, 182640, Note_on_c, 0, 49, 42
2, 182867, Note_on_c, 0, 49, 0
2, 182880, Note_on_c, 0, 35, 41
2, 182972, Note_on_c, 0, 35, 0
2, 182973, Note_on_c, 0, 50, 41
2, 183338, Note_on_c, 0, 50, 0
2, 183360, Note_on_c, 0, 50, 40
2, 183587, Note_on_c, 0, 50, 0
2, 183600, Note_on_c, 0, 50, 39
2, 184055, Note_on_c, 0, 50, 0
2, 184080, Note_on_c, 0, 50, 38
2, 184307, Note_on_c, 0, 50, 0
2, 184320, Note_on_c, 0, 49, 37
2, 185003, Note_on_c, 0, 49, 0
2, 185040, Note_on_c, 0, 37, 35
2, 185040, Note_on_c, 0, 49, 35
2, 185723, Note_on_c, 0, 37, 0
2, 185723, Note_on_c, 0, 49, 0
2, 185760, Note_on_c, 0, 42, 33
2, 186215, Note_on_c, 0, 42, 0
2, 186240, Note_on_c, 0, 42, 33
2, 186467, Note_on_c, 0, 42, 0
2, 186480, Note_on_c, 0, 42, 33
2, 186935, Note_on_c, 0, 42, 0
2, 186960, Note_on_c, 0, 42, 33
2, 187187, Note_on_c, 0, 42, 0
2, 187200, Note_on_c, 0, 42, 33
2, 187655, Note_on_c, 0, 42, 0
2, 187680, Note_on_c, 0, 42, 33
2, 187907, Note_on_c, 0, 42, 0
2, 187920, Note_on_c, 0, 42, 33
2, 188375, Note_on_c, 0, 42, 0
2, 188400, Note_on_c, 0, 42, 33
2, 188627, Note_on_c, 0, 42, 0
2, 188640, Note_on_c, 0, 42, 33
2, 189095, Note_on_c, 0, 42, 0
2, 189360, Note_on_c, 0, 42, 33
2, 189815, Note_on_c, 0, 42, 0
2, 190080, Note_on_c, 0, 42, 33
2, 190535, Note_on_c, 0, 42, 0
2, 190800, Note_on_c, 0, 42, 33
2, 191255, Note_on_c, 0, 42, 0
2, 191520, Note_on_c, 0, 44, 33
2, 191520, Note_on_c, 0, 36, 33
2, 191975, Note_on_c, 0, 36, 0
2, 192000, Note_on_c, 0, 36, 38
2, 192227, Note_on_c, 0, 36, 0
2, 192240, Note_on_c, 0, 36, 40
2, 192695, Note_on_c, 0, 36, 0
2, 192720, Note_on_c, 0, 36, 46
2, 192947, Note_on_c, 0, 36, 0
2, 192960, Note_on_c, 0, 36, 48
2, 193415, Note_on_c, 0, 36, 0
2, 193440, Note_on_c, 0, 36, 54
2, 193667, Note_on_c, 0, 36, 0
2, 193680, Note_on_c, 0, 36, 56
2, 194135, Note_on_c, 0, 36, 0
2, 194160, Note_on_c, 0, 36, 61
2, 194255, Note_on_c, 0, 44, 0
2, 194387, Note_on_c, 0, 36, 0
2, 194400, Note_on_c, 0, 36, 64
2, 194400, Note_on_c, 0, 48, 64
2, 194519, Note_on_c, 0, 36, 0
2, 194519, Note_on_c, 0, 48, 0
2, 194640, Note_on_c, 0, 46, 67
2, 194759, Note_on_c, 0, 46, 0
2, 194880, Note_on_c, 0, 48, 69
2, 194999, Note_on_c, 0, 48, 0
2, 195120, Note_on_c, 0, 49, 72
2, 195239, Note_on_c, 0, 49, 0
2, 195360, Note_on_c, 0, 48, 75
2, 195479, Note_on_c, 0, 48, 0
2, 195600, Note_on_c, 0, 49, 77
2, 195719, Note_on_c, 0, 49, 0
2, 195840, Note_on_c, 0, 49, 80
2, 195959, Note_on_c, 0, 49, 0
2, 196080, Note_on_c, 0, 48, 82
2, 196199, Note_on_c, 0, 48, 0
2, 196320, Note_on_c, 0, 49, 85
2, 196439, Note_on_c, 0, 49, 0
2, 196560, Note_on_c, 0, 51, 88
2, 196679, Note_on_c, 0, 51, 0
2, 196800, Note_on_c, 0, 49, 90
2, 196919, Note_on_c, 0, 49, 0
2, 197040, Note_on_c, 0, 51, 93
2, 197159, Note_on_c, 0, 51, 0
2, 197280, Note_on_c, 0, 52, 96
2, 197280, Note_on_c, 0, 56, 96
2, 197280, Note_on_c, 0, 61, 96
2, 197507, Note_on_c, 0, 52, 0
2, 197507, Note_on_c, 0, 56, 0
2, 197507, Note_on_c, 0, 61, 0
2, 197760, Note_on_c, 0, 56, 96
2, 197987, Note_on_c, 0, 56, 0
2, 198000, Note_on_c, 0, 68, 115
2, 198947, Note_on_c, 0, 68, 0
2, 199080, Note_on_c, 0, 66, 96
2, 199193, Note_on_c, 0, 66, 0
2, 199200, Note_on_c, 0, 68, 96
2, 199427, Note_on_c, 0, 68, 0
2, 199440, Note_on_c, 0, 69, 96
2, 199559, Note_on_c, 0, 69, 0
2, 199680, Note_on_c, 0, 66, 96
2, 199799, Note_on_c, 0, 66, 0
2, 199920, Note_on_c, 0, 68, 96
2, 200039, Note_on_c, 0, 68, 0
2, 200160, Note_on_c, 0, 64, 96
2, 200387, Note_on_c, 0, 64, 0
2, 200520, Note_on_c, 0, 63, 96
2, 200633, Note_on_c, 0, 63, 0
2, 200640, Note_on_c, 0, 64, 96
2, 200867, Note_on_c, 0, 64, 0
2, 200880, Note_on_c, 0, 66, 115
2, 201359, Note_on_c, 0, 66, 0
2, 201360, Note_on_c, 0, 64, 96
2, 201587, Note_on_c, 0, 64, 0
2, 201600, Note_on_c, 0, 66, 115
2, 202079, Note_on_c, 0, 66, 0
2, 202080, Note_on_c, 0, 64, 96
2, 202307, Note_on_c, 0, 64, 0
2, 202320, Note_on_c, 0, 61, 96
2, 202320, Note_on_c, 0, 66, 96
2, 202547, Note_on_c, 0, 61, 0
2, 202547, Note_on_c, 0, 66, 0
2, 202680, Note_on_c, 0, 60, 96
2, 202793, Note_on_c, 0, 60, 0
2, 202800, Note_on_c, 0, 61, 96
2, 203027, Note_on_c, 0, 61, 0
2, 203040, Note_on_c, 0, 49, 96
2, 203267, Note_on_c, 0, 49, 0
2, 203400, Note_on_c, 0, 65, 96
2, 203513, Note_on_c, 0, 65, 0
2, 203520, Note_on_c, 0, 66, 96
2, 203747, Note_on_c, 0, 66, 0
2, 203760, Note_on_c, 0, 68, 115
2, 204239, Note_on_c, 0, 68, 0
2, 204240, Note_on_c, 0, 66, 96
2, 204467, Note_on_c, 0, 66, 0
2, 204480, Note_on_c, 0, 68, 115
2, 204959, Note_on_c, 0, 68, 0
2, 204960, Note_on_c, 0, 66, 96
2, 205187, Note_on_c, 0, 66, 0
2, 205200, Note_on_c, 0, 59, 96
2, 205427, Note_on_c, 0, 59, 0
2, 205560, Note_on_c, 0, 58, 96
2, 205673, Note_on_c, 0, 58, 0
2, 205680, Note_on_c, 0, 59, 96
2, 205907, Note_on_c, 0, 59, 0
2, 205920, Note_on_c, 0, 47, 96
2, 206375, Note_on_c, 0, 47, 0
2, 206640, Note_on_c, 0, 69, 96
2, 206759, Note_on_c, 0, 69, 0
2, 206880, Note_on_c, 0, 66, 96
2, 206999, Note_on_c, 0, 66, 0
2, 207120, Note_on_c, 0, 68, 96
2, 207239, Note_on_c, 0, 68, 0
2, 207360, Note_on_c, 0, 69, 96
2, 207479, Note_on_c, 0, 69, 0
2, 207600, Note_on_c, 0, 66, 96
2, 207719, Note_on_c, 0, 66, 0
2, 207840, Note_on_c, 0, 68, 96
2, 207959, Note_on_c, 0, 68, 0
2, 208080, Note_on_c, 0, 57, 96
2, 208307, Note_on_c, 0, 57, 0
2, 208440, Note_on_c, 0, 56, 96
2, 208553, Note_on_c, 0, 56, 0
2, 208560, Note_on_c, 0, 57, 96
2, 208787, Note_on_c, 0, 57, 0
2, 208800, Note_on_c, 0, 45, 96
2, 209255, Note_on_c, 0, 45, 0
2, 209520, Note_on_c, 0, 56, 96
2, 209747, Note_on_c, 0, 56, 0
2, 209880, Note_on_c, 0, 54, 96
2, 209993, Note_on_c, 0, 54, 0
2, 210000, Note_on_c, 0, 56, 96
2, 210227, Note_on_c, 0, 56, 0
2, 210240, Note_on_c, 0, 44, 96
2, 210695, Note_on_c, 0, 44, 0
2, 210960, Note_on_c, 0, 54, 96
2, 211187, Note_on_c, 0, 54, 0
2, 211320, Note_on_c, 0, 53, 96
2, 211433, Note_on_c, 0, 53, 0
2, 211440, Note_on_c, 0, 54, 96
2, 211667, Note_on_c, 0, 54, 0
2, 211680, Note_on_c, 0, 42, 96
2, 212363, Note_on_c, 0, 42, 0
2, 212400, Note_on_c, 0, 40, 96
2, 212400, Note_on_c, 0, 52, 96
2, 213083, Note_on_c, 0, 40, 0
2, 213083, Note_on_c, 0, 52, 0
2, 213120, Note_on_c, 0, 39, 96
2, 213120, Note_on_c, 0, 51, 96
2, 213803, Note_on_c, 0, 39, 0
2, 213803, Note_on_c, 0, 51, 0
2, 213840, Note_on_c, 0, 37, 96
2, 213840, Note_on_c, 0, 49, 96
2, 214523, Note_on_c, 0, 37, 0
2, 214523, Note_on_c, 0, 49, 0
2, 214560, Note_on_c, 0, 36, 96
2, 214560, Note_on_c, 0, 48, 96
2, 215243, Note_on_c, 0, 36, 0
2, 215243, Note_on_c, 0, 48, 0
2, 215280, Note_on_c, 0, 66, 115
2, 215280, Note_on_c, 0, 69, 115
2, 215519, Note_on_c, 0, 66, 0
2, 215519, Note_on_c, 0, 69, 0
2, 215640, Note_on_c, 0, 65, 96
2, 215640, Note_on_c, 0, 68, 96
2, 215753, Note_on_c, 0, 65, 0
2, 215753, Note_on_c, 0, 68, 0
2, 215760, Note_on_c, 0, 66, 96
2, 215760, Note_on_c, 0, 69, 96
2, 215987, Note_on_c, 0, 66, 0
2, 215987, Note_on_c, 0, 69, 0
2, 216720, Note_on_c, 0, 42, 115
2, 216720, Note_on_c, 0, 45, 115
2, 216959, Note_on_c, 0, 42, 0
2, 216959, Note_on_c, 0, 45, 0
2, 217080, Note_on_c, 0, 41, 96
2, 217080, Note_on_c, 0, 44, 96
2, 217193, Note_on_c, 0, 41, 0
2, 217193, Note_on_c, 0, 44, 0
2, 217200, Note_on_c, 0, 42, 96
2, 217200, Note_on_c, 0, 45, 96
2, 217427, Note_on_c, 0, 42, 0
2, 217427, Note_on_c, 0, 45, 0
2, 217440, Note_on_c, 0, 36, 115
2, 217679, Note_on_c, 0, 36, 0
2, 217680, Note_on_c, 0, 51, 96
2, 217680, Note_on_c, 0, 54, 96
2, 217907, Note_on_c, 0, 51, 0
2, 217907, Note_on_c, 0, 54, 0
2, 217920, Note_on_c, 0, 44, 96
2, 218147, Note_on_c, 0, 44, 0
2, 218160, Note_on_c, 0, 44, 96
2, 218387, Note_on_c, 0, 44, 0
2, 218400, Note_on_c, 0, 51, 96
2, 218400, Note_on_c, 0, 54, 96
2, 218627, Note_on_c, 0, 51, 0
2, 218627, Note_on_c, 0, 54, 0
2, 218640, Note_on_c, 0, 37, 96
2, 218867, Note_on_c, 0, 37, 0
2, 218880, Note_on_c, 0, 37, 96
2, 219107, Note_on_c, 0, 37, 0
2, 219120, Note_on_c, 0, 49, 96
2, 219120, Note_on_c, 0, 52, 96
2, 219347, Note_on_c, 0, 49, 0
2, 219347, Note_on_c, 0, 52, 0
2, 219360, Note_on_c, 0, 44, 96
2, 219587, Note_on_c, 0, 44, 0
2, 219600, Note_on_c, 0, 44, 96
2, 219827, Note_on_c, 0, 44, 0
2, 219840, Note_on_c, 0, 49, 96
2, 219840, Note_on_c, 0, 52, 96
2, 220067, Note_on_c, 0, 49, 0
2, 220067, Note_on_c, 0, 52, 0
2, 220080, Note_on_c, 0, 39, 96
2, 220307, Note_on_c, 0, 39, 0
2, 220320, Note_on_c, 0, 39, 115
2, 220559, Note_on_c, 0, 39, 0
2, 220560, Note_on_c, 0, 54, 96
2, 220560, Note_on_c, 0, 57, 96
2, 220787, Note_on_c, 0, 54, 0
2, 220787, Note_on_c, 0, 57, 0
2, 220800, Note_on_c, 0, 47, 96
2, 221027, Note_on_c, 0, 47, 0
2, 221040, Note_on_c, 0, 47, 96
2, 221267, Note_on_c, 0, 47, 0
2, 221280, Note_on_c, 0, 54, 96
2, 221280, Note_on_c, 0, 57, 96
2, 221507, Note_on_c, 0, 54, 0
2, 221507, Note_on_c, 0, 57, 0
2, 221520, Note_on_c, 0, 40, 96
2, 221747, Note_on_c, 0, 40, 0
2, 221760, Note_on_c, 0, 40, 96
2, 221987, Note_on_c, 0, 40, 0
2, 222000, Note_on_c, 0, 52, 96
2, 222000, Note_on_c, 0, 56, 96
2, 222227, Note_on_c, 0, 52, 0
2, 222227, Note_on_c, 0, 56, 0
2, 222240, Note_on_c, 0, 47, 96
2, 222467, Note_on_c, 0, 47, 0
2, 222480, Note_on_c, 0, 47, 96
2, 222707, Note_on_c, 0, 47, 0
2, 222720, Note_on_c, 0, 52, 96
2, 222720, Note_on_c, 0, 56, 96
2, 222947, Note_on_c, 0, 52, 0
2, 222947, Note_on_c, 0, 56, 0
2, 222960, Note_on_c, 0, 43, 96
2, 223187, Note_on_c, 0, 43, 0
2, 223200, Note_on_c, 0, 43, 115
2, 223439, Note_on_c, 0, 43, 0
2, 223440, Note_on_c, 0, 58, 96
2, 223440, Note_on_c, 0, 61, 96
2, 223667, Note_on_c, 0, 58, 0
2, 223667, Note_on_c, 0, 61, 0
2, 223680, Note_on_c, 0, 51, 96
2, 223907, Note_on_c, 0, 51, 0
2, 223920, Note_on_c, 0, 51, 96
2, 224147, Note_on_c, 0, 51, 0
2, 224160, Note_on_c, 0, 58, 96
2, 224160, Note_on_c, 0, 61, 96
2, 224387, Note_on_c, 0, 58, 0
2, 224387, Note_on_c, 0, 61, 0
2, 224400, Note_on_c, 0, 44, 96
2, 224627, Note_on_c, 0, 44, 0
2, 224640, Note_on_c, 0, 44, 96
2, 224867, Note_on_c, 0, 44, 0
2, 224880, Note_on_c, 0, 56, 96
2, 225107, Note_on_c, 0, 56, 0
2, 225120, Note_on_c, 0, 45, 96
2, 225347, Note_on_c, 0, 45, 0
2, 225360, Note_on_c, 0, 45, 96
2, 225587, Note_on_c, 0, 45, 0
2, 225600, Note_on_c, 0, 57, 96
2, 225827, Note_on_c, 0, 57, 0
2, 225840, Note_on_c, 0, 42, 96
2, 226067, Note_on_c, 0, 42, 0
2, 226080, Note_on_c, 0, 42, 96
2, 226307, Note_on_c, 0, 42, 0
2, 226320, Note_on_c, 0, 54, 96
2, 226320, Note_on_c, 0, 57, 96
2, 226547, Note_on_c, 0, 54, 0
2, 226547, Note_on_c, 0, 57, 0
2, 226560, Note_on_c, 0, 42, 95
2, 226787, Note_on_c, 0, 42, 0
2, 226800, Note_on_c, 0, 42, 94
2, 227027, Note_on_c, 0, 42, 0
2, 227040, Note_on_c, 0, 54, 94
2, 227040, Note_on_c, 0, 56, 94
2, 227267, Note_on_c, 0, 54, 0
2, 227267, Note_on_c, 0, 56, 0
2, 227280, Note_on_c, 0, 40, 93
2, 227507, Note_on_c, 0, 40, 0
2, 227520, Note_on_c, 0, 40, 92
2, 227747, Note_on_c, 0, 40, 0
2, 227760, Note_on_c, 0, 52, 92
2, 227987, Note_on_c, 0, 52, 0
2, 228000, Note_on_c, 0, 49, 91
2, 228227, Note_on_c, 0, 49, 0
2, 228240, Note_on_c, 0, 49, 90
2, 228467, Note_on_c, 0, 49, 0
2, 228480, Note_on_c, 0, 52, 89
2, 228707, Note_on_c, 0, 52, 0
2, 228720, Note_on_c, 0, 36, 89
2, 228947, Note_on_c, 0, 36, 0
2, 228960, Note_on_c, 0, 36, 105
2, 229199, Note_on_c, 0, 36, 0
2, 229200, Note_on_c, 0, 51, 87
2, 229200, Note_on_c, 0, 54, 87
2, 229427, Note_on_c, 0, 51, 0
2, 229427, Note_on_c, 0, 54, 0
2, 229440, Note_on_c, 0, 44, 87
2, 229667, Note_on_c, 0, 44, 0
2, 229680, Note_on_c, 0, 44, 86
2, 229907, Note_on_c, 0, 44, 0
2, 229920, Note_on_c, 0, 51, 85
2, 229920, Note_on_c, 0, 54, 85
2, 230147, Note_on_c, 0, 51, 0
2, 230147, Note_on_c, 0, 54, 0
2, 230160, Note_on_c, 0, 37, 84
2, 230387, Note_on_c, 0, 37, 0
2, 230400, Note_on_c, 0, 37, 84
2, 230627, Note_on_c, 0, 37, 0
2, 230640, Note_on_c, 0, 49, 83
2, 230640, Note_on_c, 0, 52, 83
2, 230867, Note_on_c, 0, 49, 0
2, 230867, Note_on_c, 0, 52, 0
2, 230880, Note_on_c, 0, 44, 82
2, 231107, Note_on_c, 0, 44, 0
2, 231120, Note_on_c, 0, 44, 82
2, 231347, Note_on_c, 0, 44, 0
2, 231360, Note_on_c, 0, 49, 81
2, 231360, Note_on_c, 0, 52, 81
2, 231587, Note_on_c, 0, 49, 0
2, 231587, Note_on_c, 0, 52, 0
2, 231600, Note_on_c, 0, 39, 80
2, 231827, Note_on_c, 0, 39, 0
2, 231840, Note_on_c, 0, 39, 94
2, 232079, Note_on_c, 0, 39, 0
2, 232080, Note_on_c, 0, 54, 79
2, 232080, Note_on_c, 0, 57, 79
2, 232307, Note_on_c, 0, 54, 0
2, 232307, Note_on_c, 0, 57, 0
2, 232320, Note_on_c, 0, 47, 78
2, 232547, Note_on_c, 0, 47, 0
2, 232560, Note_on_c, 0, 47, 77
2, 232787, Note_on_c, 0, 47, 0
2, 232800, Note_on_c, 0, 54, 77
2, 232800, Note_on_c, 0, 57, 77
2, 233027, Note_on_c, 0, 54, 0
2, 233027, Note_on_c, 0, 57, 0
2, 233040, Note_on_c, 0, 40, 76
2, 233267, Note_on_c, 0, 40, 0
2, 233280, Note_on_c, 0, 40, 75
2, 233507, Note_on_c, 0, 40, 0
2, 233520, Note_on_c, 0, 52, 74
2, 233520, Note_on_c, 0, 56, 74
2, 233747, Note_on_c, 0, 52, 0
2, 233747, Note_on_c, 0, 56, 0
2, 233760, Note_on_c, 0, 47, 74
2, 233987, Note_on_c, 0, 47, 0
2, 234000, Note_on_c, 0, 47, 73
2, 234227, Note_on_c, 0, 47, 0
2, 234240, Note_on_c, 0, 52, 72
2, 234240, Note_on_c, 0, 56, 72
2, 234467, Note_on_c, 0, 52, 0
2, 234467, Note_on_c, 0, 56, 0
2, 234480, Note_on_c, 0, 41, 72
2, 234707, Note_on_c, 0, 41, 0
2, 234720, Note_on_c, 0, 41, 85
2, 234959, Note_on_c, 0, 41, 0
2, 234960, Note_on_c, 0, 56, 70
2, 234960, Note_on_c, 0, 59, 70
2, 235187, Note_on_c, 0, 56, 0
2, 235187, Note_on_c, 0, 59, 0
2, 235200, Note_on_c, 0, 49, 69
2, 235427, Note_on_c, 0, 49, 0
2, 235440, Note_on_c, 0, 49, 69
2, 235667, Note_on_c, 0, 49, 0
2, 235680, Note_on_c, 0, 56, 68
2, 235680, Note_on_c, 0, 59, 68
2, 235907, Note_on_c, 0, 56, 0
2, 235907, Note_on_c, 0, 59, 0
2, 235920, Note_on_c, 0, 42, 67
2, 236147, Note_on_c, 0, 42, 0
2, 236160, Note_on_c, 0, 42, 80
2, 236399, Note_on_c, 0, 42, 0
2, 236400, Note_on_c, 0, 54, 66
2, 236400, Note_on_c, 0, 57, 66
2, 236627, Note_on_c, 0, 54, 0
2, 236627, Note_on_c, 0, 57, 0
2, 236640, Note_on_c, 0, 49, 65
2, 236867, Note_on_c, 0, 49, 0
2, 236880, Note_on_c, 0, 49, 64
2, 237107, Note_on_c, 0, 49, 0
2, 237120, Note_on_c, 0, 54, 65
2, 237120, Note_on_c, 0, 57, 65
2, 237347, Note_on_c, 0, 54, 0
2, 237347, Note_on_c, 0, 57, 0
2, 237360, Note_on_c, 0, 42, 67
2, 237587, Note_on_c, 0, 42, 0
2, 237600, Note_on_c, 0, 42, 81
2, 237839, Note_on_c, 0, 42, 0
2, 237840, Note_on_c, 0, 54, 70
2, 237840, Note_on_c, 0, 57, 70
2, 238067, Note_on_c, 0, 54, 0
2, 238067, Note_on_c, 0, 57, 0
2, 238080, Note_on_c, 0, 49, 71
2, 238307, Note_on_c, 0, 49, 0
2, 238320, Note_on_c, 0, 49, 73
2, 238547, Note_on_c, 0, 49, 0
2, 238560, Note_on_c, 0, 54, 74
2, 238560, Note_on_c, 0, 57, 74
2, 238787, Note_on_c, 0, 54, 0
2, 238787, Note_on_c, 0, 57, 0
2, 238800, Note_on_c, 0, 42, 76
2, 239027, Note_on_c, 0, 42, 0
2, 239040, Note_on_c, 0, 42, 92
2, 239279, Note_on_c, 0, 42, 0
2, 239280, Note_on_c, 0, 54, 79
2, 239280, Note_on_c, 0, 57, 79
2, 239507, Note_on_c, 0, 54, 0
2, 239507, Note_on_c, 0, 57, 0
2, 239520, Note_on_c, 0, 51, 80
2, 239747, Note_on_c, 0, 51, 0
2, 239760, Note_on_c, 0, 51, 82
2, 239987, Note_on_c, 0, 51, 0
2, 240000, Note_on_c, 0, 54, 83
2, 240000, Note_on_c, 0, 57, 83
2, 240227, Note_on_c, 0, 54, 0
2, 240227, Note_on_c, 0, 57, 0
2, 240240, Note_on_c, 0, 42, 85
2, 240467, Note_on_c, 0, 42, 0
2, 240480, Note_on_c, 0, 42, 86
2, 240707, Note_on_c, 0, 42, 0
2, 240720, Note_on_c, 0, 54, 88
2, 240720, Note_on_c, 0, 57, 88
2, 240947, Note_on_c, 0, 54, 0
2, 240947, Note_on_c, 0, 57, 0
2, 240960, Note_on_c, 0, 51, 89
2, 241187, Note_on_c, 0, 51, 0
2, 241200, Note_on_c, 0, 51, 91
2, 241427, Note_on_c, 0, 51, 0
2, 241440, Note_on_c, 0, 54, 92
2, 241440, Note_on_c, 0, 57, 92
2, 241667, Note_on_c, 0, 54, 0
2, 241667, Note_on_c, 0, 57, 0
2, 241680, Note_on_c, 0, 42, 94
2, 241907, Note_on_c, 0, 42, 0
2, 241920, Note_on_c, 0, 40, 96
2, 242375, Note_on_c, 0, 40, 0
2, 243360, Note_on_c, 0, 54, 96
2, 243360, Note_on_c, 0, 56, 96
2, 243360, Note_on_c, 0, 60, 96
2, 243587, Note_on_c, 0, 54, 0
2, 243587, Note_on_c, 0, 56, 0
2, 243587, Note_on_c, 0, 60, 0
2, 243600, Note_on_c, 0, 54, 96
2, 243600, Note_on_c, 0, 56, 96
2, 243600, Note_on_c, 0, 60, 96
2, 243827, Note_on_c, 0, 54, 0
2, 243827, Note_on_c, 0, 56, 0
2, 243827, Note_on_c, 0, 60, 0
2, 243840, Note_on_c, 0, 54, 96
2, 243840, Note_on_c, 0, 56, 96
2, 243840, Note_on_c, 0, 60, 96
2, 244067, Note_on_c, 0, 54, 0
2, 244067, Note_on_c, 0, 56, 0
2, 244067, Note_on_c, 0, 60, 0
2, 244080, Note_on_c, 0, 54, 96
2, 244080, Note_on_c, 0, 56, 96
2, 244080, Note_on_c, 0, 60, 96
2, 244307, Note_on_c, 0, 54, 0
2, 244307, Note_on_c, 0, 56, 0
2, 244307, Note_on_c, 0, 60, 0
2, 244320, Note_on_c, 0, 54, 96
2, 244320, Note_on_c, 0, 56, 96
2, 244320, Note_on_c, 0, 60, 96
2, 244547, Note_on_c, 0, 54, 0
2, 244547, Note_on_c, 0, 56, 0
2, 244547, Note_on_c, 0, 60, 0
2, 244560, Note_on_c, 0, 54, 96
2, 244560, Note_on_c, 0, 56, 96
2, 244560, Note_on_c, 0, 60, 96
2, 244787, Note_on_c, 0, 54, 0
2, 244787, Note_on_c, 0, 56, 0
2, 244787, Note_on_c, 0, 60, 0
2, 244800, Note_on_c, 0, 52, 96
2, 244800, Note_on_c, 0, 56, 96
2, 244800, Note_on_c, 0, 61, 96
2, 245255, Note_on_c, 0, 52, 0
2, 245255, Note_on_c, 0, 56, 0
2, 245255, Note_on_c, 0, 61, 0
2, 246240, Note_on_c, 0, 54, 96
2, 246240, Note_on_c, 0, 56, 96
2, 246240, Note_on_c, 0, 60, 96
2, 246467, Note_on_c, 0, 54, 0
2, 246467, Note_on_c, 0, 56, 0
2, 246467, Note_on_c, 0, 60, 0
2, 246480, Note_on_c, 0, 54, 96
2, 246480, Note_on_c, 0, 56, 96
2, 246480, Note_on_c, 0, 60, 96
2, 246707, Note_on_c, 0, 54, 0
2, 246707, Note_on_c, 0, 56, 0
2, 246707, Note_on_c, 0, 60, 0
2, 246720, Note_on_c, 0, 54, 96
2, 246720, Note_on_c, 0, 56, 96
2, 246720, Note_on_c, 0, 60, 96
2, 246947, Note_on_c, 0, 54, 0
2, 246947, Note_on_c, 0, 56, 0
2, 246947, Note_on_c, 0, 60, 0
2, 246960, Note_on_c, 0, 54, 96
2, 246960, Note_on_c, 0, 56, 96
2, 246960, Note_on_c, 0, 60, 96
2, 247187, Note_on_c, 0, 54, 0
2, 247187, Note_on_c, 0, 56, 0
2, 247187, Note_on_c, 0, 60, 0
2, 247200, Note_on_c, 0, 54, 96
2, 247200, Note_on_c, 0, 56, 96
2, 247200, Note_on_c, 0, 60, 96
2, 247427, Note_on_c, 0, 54, 0
2, 247427, Note_on_c, 0, 56, 0
2, 247427, Note_on_c, 0, 60, 0
2, 247440, Note_on_c, 0, 54, 96
2, 247440, Note_on_c, 0, 56, 96
2, 247440, Note_on_c, 0, 60, 96
2, 247667, Note_on_c, 0, 54, 0
2, 247667, Note_on_c, 0, 56, 0
2, 247667, Note_on_c, 0, 60, 0
2, 247680, Note_on_c, 0, 52, 96
2, 247680, Note_on_c, 0, 56, 96
2, 247680, Note_on_c, 0, 61, 96
2, 248135, Note_on_c, 0, 52, 0
2, 248135, Note_on_c, 0, 56, 0
2, 248135, Note_on_c, 0, 61, 0
2, 248880, Note_on_c, 0, 61, 96
2, 249107, Note_on_c, 0, 61, 0
2, 249120, Note_on_c, 0, 66, 96
2, 249359, Note_on_c, 0, 66, 0
2, 249360, Note_on_c, 0, 61, 96
2, 249587, Note_on_c, 0, 61, 0
2, 249600, Note_on_c, 0, 68, 96
2, 249719, Note_on_c, 0, 68, 0
2, 249840, Note_on_c, 0, 65, 96
2, 249959, Note_on_c, 0, 65, 0
2, 250080, Note_on_c, 0, 69, 97
2, 250199, Note_on_c, 0, 69, 0
2, 250320, Note_on_c, 0, 66, 98
2, 250439, Note_on_c, 0, 66, 0
2, 250560, Note_on_c, 0, 56, 99
2, 250799, Note_on_c, 0, 56, 0
2, 250800, Note_on_c, 0, 51, 100
2, 251027, Note_on_c, 0, 51, 0
2, 251040, Note_on_c, 0, 58, 101
2, 251159, Note_on_c, 0, 58, 0
2, 251280, Note_on_c, 0, 55, 102
2, 251399, Note_on_c, 0, 55, 0
2, 251520, Note_on_c, 0, 60, 103
2, 251639, Note_on_c, 0, 60, 0
2, 251760, Note_on_c, 0, 56, 104
2, 251879, Note_on_c, 0, 56, 0
2, 252000, Note_on_c, 0, 49, 105
2, 252000, Note_on_c, 0, 61, 105
2, 252239, Note_on_c, 0, 49, 0
2, 252239, Note_on_c, 0, 61, 0
2, 252240, Note_on_c, 0, 56, 106
2, 252467, Note_on_c, 0, 56, 0
2, 252480, Note_on_c, 0, 51, 107
2, 252480, Note_on_c, 0, 63, 107
2, 252599, Note_on_c, 0, 51, 0
2, 252599, Note_on_c, 0, 63, 0
2, 252720, Note_on_c, 0, 48, 108
2, 252720, Note_on_c, 0, 60, 108
2, 252839, Note_on_c, 0, 48, 0
2, 252839, Note_on_c, 0, 60, 0
2, 252960, Note_on_c, 0, 52, 109
2, 252960, Note_on_c, 0, 64, 109
2, 253079, Note_on_c, 0, 52, 0
2, 253079, Note_on_c, 0, 64, 0
2, 253200, Note_on_c, 0, 49, 110
2, 253200, Note_on_c, 0, 61, 110
2, 253319, Note_on_c, 0, 49, 0
2, 253319, Note_on_c, 0, 61, 0
2, 253440, Note_on_c, 0, 57, 112
2, 253440, Note_on_c, 0, 69, 112
2, 253559, Note_on_c, 0, 57, 0
2, 253559, Note_on_c, 0, 69, 0
2, 253680, Note_on_c, 0, 54, 112
2, 253680, Note_on_c, 0, 66, 112
2, 253799, Note_on_c, 0, 54, 0
2, 253799, Note_on_c, 0, 66, 0
2, 253920, Note_on_c, 0, 51, 112
2, 253920, Note_on_c, 0, 63, 112
2, 254039, Note_on_c, 0, 51, 0
2, 254039, Note_on_c, 0, 63, 0
2, 254160, Note_on_c, 0, 48, 112
2, 254160, Note_on_c, 0, 60, 112
2, 254279, Note_on_c, 0, 48, 0
2, 254279, Note_on_c, 0, 60, 0
2, 254400, Note_on_c, 0, 52, 112
2, 254400, Note_on_c, 0, 64, 112
2, 254519, Note_on_c, 0, 52, 0
2, 254519, Note_on_c, 0, 64, 0
2, 254640, Note_on_c, 0, 49, 112
2, 254640, Note_on_c, 0, 61, 112
2, 254759, Note_on_c, 0, 49, 0
2, 254759, Note_on_c, 0, 61, 0
2, 254880, Note_on_c, 0, 46, 112
2, 254880, Note_on_c, 0, 58, 112
2, 254999, Note_on_c, 0, 46, 0
2, 254999, Note_on_c, 0, 58, 0
2, 255120, Note_on_c, 0, 43, 112
2, 255120, Note_on_c, 0, 55, 112
2, 255239, Note_on_c, 0, 43, 0
2, 255239, Note_on_c, 0, 55, 0
2, 255360, Note_on_c, 0, 40, 112
2, 255360, Note_on_c, 0, 52, 112
2, 255479, Note_on_c, 0, 40, 0
2, 255479, Note_on_c, 0, 52, 0
2, 255600, Note_on_c, 0, 37, 112
2, 255600, Note_on_c, 0, 49, 112
2, 255719, Note_on_c, 0, 37, 0
2, 255719, Note_on_c, 0, 49, 0
2, 255840, Note_on_c, 0, 34, 112
2, 255840, Note_on_c, 0, 46, 112
2, 255959, Note_on_c, 0, 34, 0
2, 255959, Note_on_c, 0, 46, 0
2, 256080, Note_on_c, 0, 31, 112
2, 256080, Note_on_c, 0, 43, 112
2, 256199, Note_on_c, 0, 31, 0
2, 256199, Note_on_c, 0, 43, 0
2, 256320, Note_on_c, 0, 32, 112
2, 256320, Note_on_c, 0, 44, 112
2, 256775, Note_on_c, 0, 32, 0
2, 256775, Note_on_c, 0, 44, 0
2, 256800, Note_on_c, 0, 56, 112
2, 257039, Note_on_c, 0, 56, 0
2, 257040, Note_on_c, 0, 56, 112
2, 257495, Note_on_c, 0, 56, 0
2, 257520, Note_on_c, 0, 56, 112
2, 257747, Note_on_c, 0, 56, 0
2, 257760, Note_on_c, 0, 56, 112
2, 258215, Note_on_c, 0, 56, 0
2, 258240, Note_on_c, 0, 56, 115
2, 258467, Note_on_c, 0, 56, 0
2, 258480, Note_on_c, 0, 56, 117
2, 258935, Note_on_c, 0, 56, 0
2, 258960, Note_on_c, 0, 56, 120
2, 259187, Note_on_c, 0, 56, 0
2, 259200, Note_on_c, 0, 56, 122
2, 259655, Note_on_c, 0, 56, 0
2, 259680, Note_on_c, 0, 56, 125
2, 259907, Note_on_c, 0, 56, 0
2, 259920, Note_on_c, 0, 56, 127
2, 260375, Note_on_c, 0, 56, 0
2, 260400, Note_on_c, 0, 56, 110
2, 260627, Note_on_c, 0, 56, 0
2, 260640, Note_on_c, 0, 56, 101
2, 261095, Note_on_c, 0, 56, 0
2, 261120, Note_on_c, 0, 56, 84
2, 261347, Note_on_c, 0, 56, 0
2, 261360, Note_on_c, 0, 56, 75
2, 261815, Note_on_c, 0, 56, 0
2, 261840, Note_on_c, 0, 56, 58
2, 262067, Note_on_c, 0, 56, 0
2, 262080, Note_on_c, 0, 41, 49
2, 262172, Note_on_c, 0, 41, 0
2, 262173, Note_on_c, 0, 56, 49
2, 262538, Note_on_c, 0, 56, 0
2, 262560, Note_on_c, 0, 56, 49
2, 262787, Note_on_c, 0, 56, 0
2, 262800, Note_on_c, 0, 56, 49
2, 263255, Note_on_c, 0, 56, 0
2, 263280, Note_on_c, 0, 56, 49
2, 263507, Note_on_c, 0, 56, 0
2, 263520, Note_on_c, 0, 42, 49
2, 263612, Note_on_c, 0, 42, 0
2, 263613, Note_on_c, 0, 57, 49
2, 263978, Note_on_c, 0, 57, 0
2, 264000, Note_on_c, 0, 57, 49
2, 264227, Note_on_c, 0, 57, 0
2, 264240, Note_on_c, 0, 57, 49
2, 264695, Note_on_c, 0, 57, 0
2, 264720, Note_on_c, 0, 57, 49
2, 264947, Note_on_c, 0, 57, 0
2, 264960, Note_on_c, 0, 44, 49
2, 265052, Note_on_c, 0, 44, 0
2, 265053, Note_on_c, 0, 56, 49
2, 265418, Note_on_c, 0, 56, 0
2, 265440, Note_on_c, 0, 56, 49
2, 265667, Note_on_c, 0, 56, 0
2, 265680, Note_on_c, 0, 56, 49
2, 266135, Note_on_c, 0, 56, 0
2, 266160, Note_on_c, 0, 56, 49
2, 266387, Note_on_c, 0, 56, 0
2, 266400, Note_on_c, 0, 56, 49
2, 266400, Note_on_c, 0, 44, 49
2, 266855, Note_on_c, 0, 56, 0
2, 266880, Note_on_c, 0, 56, 49
2, 267083, Note_on_c, 0, 44, 0
2, 267107, Note_on_c, 0, 56, 0
2, 267120, Note_on_c, 0, 56, 49
2, 267120, Note_on_c, 0, 49, 49
2, 267575, Note_on_c, 0, 56, 0
2, 267600, Note_on_c, 0, 56, 49
2, 267803, Note_on_c, 0, 49, 0
2, 267827, Note_on_c, 0, 56, 0
2, 267840, Note_on_c, 0, 56, 49
2, 267840, Note_on_c, 0, 52, 49
2, 268295, Note_on_c, 0, 56, 0
2, 268320, Note_on_c, 0, 56, 49
2, 268523, Note_on_c, 0, 52, 0
2, 268547, Note_on_c, 0, 56, 0
2, 268560, Note_on_c, 0, 56, 49
2, 268560, Note_on_c, 0, 49, 49
2, 269015, Note_on_c, 0, 56, 0
2, 269040, Note_on_c, 0, 56, 52
2, 269243, Note_on_c, 0, 49, 0
2, 269267, Note_on_c, 0, 56, 0
2, 269280, Note_on_c, 0, 56, 54
2, 269280, Note_on_c, 0, 44, 54
2, 269735, Note_on_c, 0, 56, 0
2, 269760, Note_on_c, 0, 56, 57
2, 269963, Note_on_c, 0, 44, 0
2, 269987, Note_on_c, 0, 56, 0
2, 270000, Note_on_c, 0, 56, 59
2, 270000, Note_on_c, 0, 48, 59
2, 270455, Note_on_c, 0, 56, 0
2, 270480, Note_on_c, 0, 56, 62
2, 270683, Note_on_c, 0, 48, 0
2, 270707, Note_on_c, 0, 56, 0
2, 270720, Note_on_c, 0, 56, 64
2, 270720, Note_on_c, 0, 49, 64
2, 271175, Note_on_c, 0, 56, 0
2, 271200, Note_on_c, 0, 56, 64
2, 271403, Note_on_c, 0, 49, 0
2, 271427, Note_on_c, 0, 56, 0
2, 271440, Note_on_c, 0, 56, 64
2, 271440, Note_on_c, 0, 52, 64
2, 271895, Note_on_c, 0, 56, 0
2, 271920, Note_on_c, 0, 56, 64
2, 272123, Note_on_c, 0, 52, 0
2, 272147, Note_on_c, 0, 56, 0
2, 272160, Note_on_c, 0, 56, 64
2, 272640, Note_on_c, 0, 56, 0
2, 272640, Note_on_c, 0, 56, 59
2, 272867, Note_on_c, 0, 56, 0
2, 272880, Note_on_c, 0, 56, 57
2, 272880, Note_on_c, 0, 54, 57
2, 273335, Note_on_c, 0, 56, 0
2, 273360, Note_on_c, 0, 56, 52
2, 273563, Note_on_c, 0, 54, 0
2, 273587, Note_on_c, 0, 56, 0
2, 273600, Note_on_c, 0, 56, 49
2, 273600, Note_on_c, 0, 53, 49
2, 274055, Note_on_c, 0, 56, 0
2, 274080, Note_on_c, 0, 56, 49
2, 274283, Note_on_c, 0, 53, 0
2, 274307, Note_on_c, 0, 56, 0
2, 274320, Note_on_c, 0, 56, 49
2, 274320, Note_on_c, 0, 41, 49
2, 274775, Note_on_c, 0, 56, 0
2, 274800, Note_on_c, 0, 56, 49
2, 275003, Note_on_c, 0, 41, 0
2, 275027, Note_on_c, 0, 56, 0
2, 275040, Note_on_c, 0, 57, 49
2, 275040, Note_on_c, 0, 42, 49
2, 275495, Note_on_c, 0, 57, 0
2, 275520, Note_on_c, 0, 57, 49
2, 275747, Note_on_c, 0, 57, 0
2, 275760, Note_on_c, 0, 57, 49
2, 276215, Note_on_c, 0, 57, 0
2, 276240, Note_on_c, 0, 57, 48
2, 276407, Note_on_c, 0, 42, 0
2, 276467, Note_on_c, 0, 57, 0
2, 276480, Note_on_c, 0, 54, 48
2, 276480, Note_on_c, 0, 47, 48
2, 276935, Note_on_c, 0, 54, 0
2, 276960, Note_on_c, 0, 54, 47
2, 277187, Note_on_c, 0, 54, 0
2, 277200, Note_on_c, 0, 54, 46
2, 277655, Note_on_c, 0, 54, 0
2, 277680, Note_on_c, 0, 54, 45
2, 277847, Note_on_c, 0, 47, 0
2, 277907, Note_on_c, 0, 54, 0
2, 277920, Note_on_c, 0, 52, 44
2, 277920, Note_on_c, 0, 40, 44
2, 278375, Note_on_c, 0, 52, 0
2, 278400, Note_on_c, 0, 52, 43
2, 278627, Note_on_c, 0, 52, 0
2, 278640, Note_on_c, 0, 52, 42
2, 279095, Note_on_c, 0, 52, 0
2, 279120, Note_on_c, 0, 52, 41
2, 279287, Note_on_c, 0, 40, 0
2, 279347, Note_on_c, 0, 52, 0
2, 279360, Note_on_c, 0, 52, 41
2, 279360, Note_on_c, 0, 45, 41
2, 279815, Note_on_c, 0, 52, 0
2, 279840, Note_on_c, 0, 52, 39
2, 280067, Note_on_c, 0, 52, 0
2, 280080, Note_on_c, 0, 52, 39
2, 280535, Note_on_c, 0, 52, 0
2, 280560, Note_on_c, 0, 52, 38
2, 280727, Note_on_c, 0, 45, 0
2, 280787, Note_on_c, 0, 52, 0
2, 280800, Note_on_c, 0, 50, 37
2, 280800, Note_on_c, 0, 38, 37
2, 281255, Note_on_c, 0, 50, 0
2, 281280, Note_on_c, 0, 50, 36
2, 281507, Note_on_c, 0, 50, 0
2, 281520, Note_on_c, 0, 50, 35
2, 281975, Note_on_c, 0, 50, 0
2, 282000, Note_on_c, 0, 50, 34
2, 282227, Note_on_c, 0, 50, 0
2, 282240, Note_on_c, 0, 50, 33
2, 282695, Note_on_c, 0, 50, 0
2, 282720, Note_on_c, 0, 50, 33
2, 282947, Note_on_c, 0, 50, 0
2, 282960, Note_on_c, 0, 50, 33
2, 283415, Note_on_c, 0, 50, 0
2, 283440, Note_on_c, 0, 50, 33
2, 283667, Note_on_c, 0, 50, 0
2, 283680, Note_on_c, 0, 50, 33
2, 284135, Note_on_c, 0, 50, 0
2, 284160, Note_on_c, 0, 50, 33
2, 284387, Note_on_c, 0, 50, 0
2, 284400, Note_on_c, 0, 50, 33
2, 284855, Note_on_c, 0, 50, 0
2, 284880, Note_on_c, 0, 50, 33
2, 285107, Note_on_c, 0, 50, 0
2, 285120, Note_on_c, 0, 50, 33
2, 285575, Note_on_c, 0, 50, 0
2, 285600, Note_on_c, 0, 50, 33
2, 285827, Note_on_c, 0, 50, 0
2, 285840, Note_on_c, 0, 50, 33
2, 286295, Note_on_c, 0, 50, 0
2, 286320, Note_on_c, 0, 50, 33
2, 286547, Note_on_c, 0, 50, 0
2, 286560, Note_on_c, 0, 50, 33
2, 287015, Note_on_c, 0, 50, 0
2, 287040, Note_on_c, 0, 50, 33
2, 287267, Note_on_c, 0, 50, 0
2, 287280, Note_on_c, 0, 48, 33
2, 287735, Note_on_c, 0, 48, 0
2, 287760, Note_on_c, 0, 48, 33
2, 287987, Note_on_c, 0, 48, 0
2, 288000, Note_on_c, 0, 47, 33
2, 288323, Note_on_c, 0, 38, 0
2, 288455, Note_on_c, 0, 47, 0
2, 288480, Note_on_c, 0, 47, 33
2, 288707, Note_on_c, 0, 47, 0
2, 288720, Note_on_c, 0, 47, 33
2, 288720, Note_on_c, 0, 40, 33
2, 289175, Note_on_c, 0, 47, 0
2, 289200, Note_on_c, 0, 47, 33
2, 289403, Note_on_c, 0, 40, 0
2, 289427, Note_on_c, 0, 47, 0
2, 289440, Note_on_c, 0, 47, 33
2, 289440, Note_on_c, 0, 35, 33
2, 289895, Note_on_c, 0, 47, 0
2, 289920, Note_on_c, 0, 47, 33
2, 290147, Note_on_c, 0, 47, 0
2, 290160, Note_on_c, 0, 47, 33
2, 290615, Note_on_c, 0, 47, 0
2, 290640, Note_on_c, 0, 47, 33
2, 290807, Note_on_c, 0, 35, 0
2, 290867, Note_on_c, 0, 47, 0
2, 290880, Note_on_c, 0, 47, 33
2, 290880, Note_on_c, 0, 35, 33
2, 291335, Note_on_c, 0, 47, 0
2, 291360, Note_on_c, 0, 47, 33
2, 291587, Note_on_c, 0, 47, 0
2, 291600, Note_on_c, 0, 47, 33
2, 292055, Note_on_c, 0, 47, 0
2, 292080, Note_on_c, 0, 47, 33
2, 292307, Note_on_c, 0, 47, 0
2, 292320, Note_on_c, 0, 47, 33
2, 292775, Note_on_c, 0, 47, 0
2, 292800, Note_on_c, 0, 47, 33
2, 293027, Note_on_c, 0, 47, 0
2, 293040, Note_on_c, 0, 45, 33
2, 293495, Note_on_c, 0, 45, 0
2, 293520, Note_on_c, 0, 45, 33
2, 293747, Note_on_c, 0, 45, 0
2, 293760, Note_on_c, 0, 43, 33
2, 294215, Note_on_c, 0, 43, 0
2, 294240, Note_on_c, 0, 43, 33
2, 294299, Note_on_c, 0, 35, 0
2, 294467, Note_on_c, 0, 43, 0
2, 294480, Note_on_c, 0, 43, 33
2, 294480, Note_on_c, 0, 36, 33
2, 294935, Note_on_c, 0, 43, 0
2, 294960, Note_on_c, 0, 43, 33
2, 295163, Note_on_c, 0, 36, 0
2, 295187, Note_on_c, 0, 43, 0
2, 295200, Note_on_c, 0, 43, 33
2, 295200, Note_on_c, 0, 31, 33
2, 295655, Note_on_c, 0, 43, 0
2, 295680, Note_on_c, 0, 43, 33
2, 295907, Note_on_c, 0, 43, 0
2, 295920, Note_on_c, 0, 43, 33
2, 296375, Note_on_c, 0, 43, 0
2, 296400, Note_on_c, 0, 43, 33
2, 296627, Note_on_c, 0, 43, 0
2, 296640, Note_on_c, 0, 43, 33
2, 297095, Note_on_c, 0, 43, 0
2, 297120, Note_on_c, 0, 43, 33
2, 297251, Note_on_c, 0, 31, 0
2, 297347, Note_on_c, 0, 43, 0
2, 297360, Note_on_c, 0, 43, 33
2, 297360, Note_on_c, 0, 36, 33
2, 297815, Note_on_c, 0, 43, 0
2, 297840, Note_on_c, 0, 43, 33
2, 298043, Note_on_c, 0, 36, 0
2, 298067, Note_on_c, 0, 43, 0
2, 298080, Note_on_c, 0, 43, 33
2, 298080, Note_on_c, 0, 31, 33
2, 298535, Note_on_c, 0, 43, 0
2, 298560, Note_on_c, 0, 43, 33
2, 298787, Note_on_c, 0, 43, 0
2, 298800, Note_on_c, 0, 43, 33
2, 299255, Note_on_c, 0, 43, 0
2, 299280, Note_on_c, 0, 43, 33
2, 299507, Note_on_c, 0, 43, 0
2, 299520, Note_on_c, 0, 43, 33
2, 299975, Note_on_c, 0, 43, 0
2, 300000, Note_on_c, 0, 43, 33
2, 300131, Note_on_c, 0, 31, 0
2, 300227, Note_on_c, 0, 43, 0
2, 300240, Note_on_c, 0, 43, 33
2, 300240, Note_on_c, 0, 30, 33
2, 300695, Note_on_c, 0, 43, 0
2, 300720, Note_on_c, 0, 43, 33
2, 300923, Note_on_c, 0, 30, 0
2, 300947, Note_on_c, 0, 43, 0
2, 300960, Note_on_c, 0, 41, 33
2, 300960, Note_on_c, 0, 29, 33
2, 301415, Note_on_c, 0, 41, 0
2, 301440, Note_on_c, 0, 41, 33
2, 301667, Note_on_c, 0, 41, 0
2, 301680, Note_on_c, 0, 41, 33
2, 302135, Note_on_c, 0, 41, 0
2, 302160, Note_on_c, 0, 41, 33
2, 302387, Note_on_c, 0, 41, 0
2, 302400, Note_on_c, 0, 41, 33
2, 302855, Note_on_c, 0, 41, 0
2, 302880, Note_on_c, 0, 41, 33
2, 303107, Note_on_c, 0, 41, 0
2, 303120, Note_on_c, 0, 41, 33
2, 303575, Note_on_c, 0, 41, 0
2, 303600, Note_on_c, 0, 41, 33
2, 303695, Note_on_c, 0, 29, 0
2, 303827, Note_on_c, 0, 41, 0
2, 303840, Note_on_c, 0, 41, 33
2, 303840, Note_on_c, 0, 29, 33
2, 304295, Note_on_c, 0, 41, 0
2, 304320, Note_on_c, 0, 41, 33
2, 304547, Note_on_c, 0, 41, 0
2, 304560, Note_on_c, 0, 41, 33
2, 305015, Note_on_c, 0, 41, 0
2, 305280, Note_on_c, 0, 41, 33
2, 305735, Note_on_c, 0, 41, 0
2, 306000, Note_on_c, 0, 41, 33
2, 306455, Note_on_c, 0, 41, 0
2, 306575, Note_on_c, 0, 29, 0
2, 306720, Note_on_c, 0, 42, 33
2, 306720, Note_on_c, 0, 30, 33
2, 307175, Note_on_c, 0, 42, 0
2, 307200, Note_on_c, 0, 42, 33
2, 307427, Note_on_c, 0, 42, 0
2, 307440, Note_on_c, 0, 42, 33
2, 307895, Note_on_c, 0, 42, 0
2, 307920, Note_on_c, 0, 42, 33
2, 308147, Note_on_c, 0, 42, 0
2, 308160, Note_on_c, 0, 42, 33
2, 308615, Note_on_c, 0, 42, 0
2, 308640, Note_on_c, 0, 42, 33
2, 308867, Note_on_c, 0, 42, 0
2, 308880, Note_on_c, 0, 42, 33
2, 309335, Note_on_c, 0, 42, 0
2, 309360, Note_on_c, 0, 42, 33
2, 309587, Note_on_c, 0, 42, 0
2, 309600, Note_on_c, 0, 42, 33
2, 310055, Note_on_c, 0, 42, 0
2, 310320, Note_on_c, 0, 42, 33
2, 310775, Note_on_c, 0, 42, 0
2, 311040, Note_on_c, 0, 42, 33
2, 311495, Note_on_c, 0, 42, 0
2, 311760, Note_on_c, 0, 42, 33
2, 312191, Note_on_c, 0, 30, 0
2, 312215, Note_on_c, 0, 42, 0
2, 312480, Note_on_c, 0, 47, 33
2, 312480, Note_on_c, 0, 35, 33
2, 312935, Note_on_c, 0, 47, 0
2, 312960, Note_on_c, 0, 47, 35
2, 313187, Note_on_c, 0, 47, 0
2, 313200, Note_on_c, 0, 47, 36
2, 313655, Note_on_c, 0, 47, 0
2, 313680, Note_on_c, 0, 47, 38
2, 313907, Note_on_c, 0, 47, 0
2, 313920, Note_on_c, 0, 47, 39
2, 314375, Note_on_c, 0, 47, 0
2, 314400, Note_on_c, 0, 47, 42
2, 314627, Note_on_c, 0, 47, 0
2, 314640, Note_on_c, 0, 47, 43
2, 315095, Note_on_c, 0, 47, 0
2, 315120, Note_on_c, 0, 47, 45
2, 315215, Note_on_c, 0, 35, 0
2, 315347, Note_on_c, 0, 47, 0
2, 315360, Note_on_c, 0, 47, 46
2, 315360, Note_on_c, 0, 35, 46
2, 315815, Note_on_c, 0, 47, 0
2, 316080, Note_on_c, 0, 47, 50
2, 316535, Note_on_c, 0, 47, 0
2, 316800, Note_on_c, 0, 47, 53
2, 317255, Note_on_c, 0, 47, 0
2, 317520, Note_on_c, 0, 47, 57
2, 317975, Note_on_c, 0, 47, 0
2, 318095, Note_on_c, 0, 35, 0
2, 318240, Note_on_c, 0, 48, 60
2, 318240, Note_on_c, 0, 36, 60
2, 318695, Note_on_c, 0, 48, 0
2, 318720, Note_on_c, 0, 48, 62
2, 318947, Note_on_c, 0, 48, 0
2, 318960, Note_on_c, 0, 48, 64
2, 319415, Note_on_c, 0, 48, 0
2, 319440, Note_on_c, 0, 48, 66
2, 319607, Note_on_c, 0, 36, 0
2, 319667, Note_on_c, 0, 48, 0
2, 319680, Note_on_c, 0, 49, 67
2, 319680, Note_on_c, 0, 37, 67
2, 320135, Note_on_c, 0, 49, 0
2, 320160, Note_on_c, 0, 49, 69
2, 320387, Note_on_c, 0, 49, 0
2, 320400, Note_on_c, 0, 49, 70
2, 320855, Note_on_c, 0, 49, 0
2, 320880, Note_on_c, 0, 49, 72
2, 321047, Note_on_c, 0, 37, 0
2, 321107, Note_on_c, 0, 49, 0
2, 321120, Note_on_c, 0, 50, 73
2, 321120, Note_on_c, 0, 38, 73
2, 321575, Note_on_c, 0, 50, 0
2, 321600, Note_on_c, 0, 50, 75
2, 321827, Note_on_c, 0, 50, 0
2, 321840, Note_on_c, 0, 50, 76
2, 322295, Note_on_c, 0, 50, 0
2, 322320, Note_on_c, 0, 50, 78
2, 322487, Note_on_c, 0, 38, 0
2, 322547, Note_on_c, 0, 50, 0
2, 322560, Note_on_c, 0, 51, 80
2, 322560, Note_on_c, 0, 39, 80
2, 323015, Note_on_c, 0, 51, 0
2, 323040, Note_on_c, 0, 51, 82
2, 323267, Note_on_c, 0, 51, 0
2, 323280, Note_on_c, 0, 51, 83
2, 323735, Note_on_c, 0, 51, 0
2, 323760, Note_on_c, 0, 51, 85
2, 323927, Note_on_c, 0, 39, 0
2, 323987, Note_on_c, 0, 51, 0
2, 324000, Note_on_c, 0, 53, 86
2, 324000, Note_on_c, 0, 41, 86
2, 324455, Note_on_c, 0, 53, 0
2, 324480, Note_on_c, 0, 53, 88
2, 324683, Note_on_c, 0, 41, 0
2, 324707, Note_on_c, 0, 53, 0
2, 324720, Note_on_c, 0, 54, 89
2, 324720, Note_on_c, 0, 42, 89
2, 325175, Note_on_c, 0, 54, 0
2, 325200, Note_on_c, 0, 54, 91
2, 325403, Note_on_c, 0, 42, 0
2, 325427, Note_on_c, 0, 54, 0
2, 325440, Note_on_c, 0, 56, 92
2, 325440, Note_on_c, 0, 44, 92
2, 325895, Note_on_c, 0, 56, 0
2, 325920, Note_on_c, 0, 56, 94
2, 326123, Note_on_c, 0, 44, 0
2, 326147, Note_on_c, 0, 56, 0
2, 326160, Note_on_c, 0, 57, 96
2, 326160, Note_on_c, 0, 45, 96
2, 326615, Note_on_c, 0, 57, 0
2, 326640, Note_on_c, 0, 57, 98
2, 326843, Note_on_c, 0, 45, 0
2, 326867, Note_on_c, 0, 57, 0
2, 326880, Note_on_c, 0, 57, 99
2, 326880, Note_on_c, 0, 45, 99
2, 327335, Note_on_c, 0, 57, 0
2, 327360, Note_on_c, 0, 57, 101
2, 327563, Note_on_c, 0, 45, 0
2, 327587, Note_on_c, 0, 57, 0
2, 327600, Note_on_c, 0, 58, 102
2, 327600, Note_on_c, 0, 46, 102
2, 328055, Note_on_c, 0, 58, 0
2, 328080, Note_on_c, 0, 58, 104
2, 328283, Note_on_c, 0, 46, 0
2, 328307, Note_on_c, 0, 58, 0
2, 328320, Note_on_c, 0, 59, 105
2, 328320, Note_on_c, 0, 47, 105
2, 328775, Note_on_c, 0, 59, 0
2, 328800, Note_on_c, 0, 59, 107
2, 329003, Note_on_c, 0, 47, 0
2, 329027, Note_on_c, 0, 59, 0
2, 329040, Note_on_c, 0, 60, 108
2, 329040, Note_on_c, 0, 48, 108
2, 329495, Note_on_c, 0, 60, 0
2, 329520, Note_on_c, 0, 60, 110
2, 329723, Note_on_c, 0, 48, 0
2, 329747, Note_on_c, 0, 60, 0
2, 329760, Note_on_c, 0, 49, 112
2, 329760, Note_on_c, 0, 61, 112
2, 329987, Note_on_c, 0, 49, 0
2, 329987, Note_on_c, 0, 61, 0
2, 330120, Note_on_c, 0, 62, 112
2, 330233, Note_on_c, 0, 62, 0
2, 330240, Note_on_c, 0, 61, 112
2, 330467, Note_on_c, 0, 61, 0
2, 330480, Note_on_c, 0, 49, 112
2, 330480, Note_on_c, 0, 61, 112
2, 330707, Note_on_c, 0, 49, 0
2, 330707, Note_on_c, 0, 61, 0
2, 330840, Note_on_c, 0, 62, 112
2, 330953, Note_on_c, 0, 62, 0
2, 330960, Note_on_c, 0, 61, 112
2, 331187, Note_on_c, 0, 61, 0
2, 331200, Note_on_c, 0, 49, 112
2, 331200, Note_on_c, 0, 61, 112
2, 331427, Note_on_c, 0, 49, 0
2, 331427, Note_on_c, 0, 61, 0
2, 331560, Note_on_c, 0, 62, 112
2, 331673, Note_on_c, 0, 62, 0
2, 331680, Note_on_c, 0, 61, 112
2, 331907, Note_on_c, 0, 61, 0
2, 331920, Note_on_c, 0, 49, 112
2, 331920, Note_on_c, 0, 61, 112
2, 332147, Note_on_c, 0, 49, 0
2, 332147, Note_on_c, 0, 61, 0
2, 332280, Note_on_c, 0, 62, 112
2, 332393, Note_on_c, 0, 62, 0
2, 332400, Note_on_c, 0, 61, 112
2, 332627, Note_on_c, 0, 61, 0
2, 332640, Note_on_c, 0, 49, 112
2, 332640, Note_on_c, 0, 61, 112
2, 332867, Note_on_c, 0, 49, 0
2, 332867, Note_on_c, 0, 61, 0
2, 333000, Note_on_c, 0, 62, 112
2, 333113, Note_on_c, 0, 62, 0
2, 333120, Note_on_c, 0, 61, 112
2, 333347, Note_on_c, 0, 61, 0
2, 333360, Note_on_c, 0, 49, 112
2, 333360, Note_on_c, 0, 61, 112
2, 333587, Note_on_c, 0, 49, 0
2, 333587, Note_on_c, 0, 61, 0
2, 333720, Note_on_c, 0, 62, 112
2, 333833, Note_on_c, 0, 62, 0
2, 333840, Note_on_c, 0, 61, 112
2, 334067, Note_on_c, 0, 61, 0
2, 334080, Note_on_c, 0, 49, 112
2, 334080, Note_on_c, 0, 61, 112
2, 334307, Note_on_c, 0, 49, 0
2, 334307, Note_on_c, 0, 61, 0
2, 334440, Note_on_c, 0, 62, 112
2, 334553, Note_on_c, 0, 62, 0
2, 334560, Note_on_c, 0, 61, 112
2, 334787, Note_on_c, 0, 61, 0
2, 334800, Note_on_c, 0, 49, 112
2, 334800, Note_on_c, 0, 61, 112
2, 335027, Note_on_c, 0, 49, 0
2, 335027, Note_on_c, 0, 61, 0
2, 335160, Note_on_c, 0, 62, 112
2, 335273, Note_on_c, 0, 62, 0
2, 335280, Note_on_c, 0, 61, 112
2, 335507, Note_on_c, 0, 61, 0
2, 335520, Note_on_c, 0, 49, 112
2, 335520, Note_on_c, 0, 61, 112
2, 335747, Note_on_c, 0, 49, 0
2, 335747, Note_on_c, 0, 61, 0
2, 335880, Note_on_c, 0, 62, 112
2, 335993, Note_on_c, 0, 62, 0
2, 336000, Note_on_c, 0, 61, 112
2, 336227, Note_on_c, 0, 61, 0
2, 336240, Note_on_c, 0, 49, 112
2, 336240, Note_on_c, 0, 61, 112
2, 336467, Note_on_c, 0, 49, 0
2, 336467, Note_on_c, 0, 61, 0
2, 336600, Note_on_c, 0, 62, 112
2, 336713, Note_on_c, 0, 62, 0
2, 336720, Note_on_c, 0, 61, 112
2, 336947, Note_on_c, 0, 61, 0
2, 336960, Note_on_c, 0, 49, 112
2, 336960, Note_on_c, 0, 61, 112
2, 337187, Note_on_c, 0, 49, 0
2, 337187, Note_on_c, 0, 61, 0
2, 337320, Note_on_c, 0, 62, 112
2, 337433, Note_on_c, 0, 62, 0
2, 337440, Note_on_c, 0, 61, 112
2, 337667, Note_on_c, 0, 61, 0
2, 337680, Note_on_c, 0, 49, 112
2, 337907, Note_on_c, 0, 49, 0
2, 338040, Note_on_c, 0, 50, 102
2, 338153, Note_on_c, 0, 50, 0
2, 338160, Note_on_c, 0, 49, 98
2, 338387, Note_on_c, 0, 49, 0
2, 338400, Note_on_c, 0, 49, 91
2, 338627, Note_on_c, 0, 49, 0
2, 338760, Note_on_c, 0, 50, 81
2, 338873, Note_on_c, 0, 50, 0
2, 338880, Note_on_c, 0, 49, 77
2, 339107, Note_on_c, 0, 49, 0
2, 339120, Note_on_c, 0, 49, 70
2, 339347, Note_on_c, 0, 49, 0
2, 339480, Note_on_c, 0, 50, 60
2, 339593, Note_on_c, 0, 50, 0
2, 339600, Note_on_c, 0, 49, 56
2, 339827, Note_on_c, 0, 49, 0
2, 339840, Note_on_c, 0, 49, 49
2, 340067, Note_on_c, 0, 49, 0
2, 340200, Note_on_c, 0, 50, 49
2, 340313, Note_on_c, 0, 50, 0
2, 340320, Note_on_c, 0, 49, 49
2, 340547, Note_on_c, 0, 49, 0
2, 340560, Note_on_c, 0, 49, 49
2, 340787, Note_on_c, 0, 49, 0
2, 340920, Note_on_c, 0, 50, 49
2, 341033, Note_on_c, 0, 50, 0
2, 341040, Note_on_c, 0, 49, 49
2, 341267, Note_on_c, 0, 49, 0
2, 341280, Note_on_c, 0, 49, 49
2, 341280, Note_on_c, 0, 42, 49
2, 341507, Note_on_c, 0, 49, 0
2, 341640, Note_on_c, 0, 50, 49
2, 341753, Note_on_c, 0, 50, 0
2, 341760, Note_on_c, 0, 49, 49
2, 341987, Note_on_c, 0, 49, 0
2, 342000, Note_on_c, 0, 49, 49
2, 342119, Note_on_c, 0, 49, 0
2, 342240, Note_on_c, 0, 50, 49
2, 342359, Note_on_c, 0, 50, 0
2, 342480, Note_on_c, 0, 49, 49
2, 342599, Note_on_c, 0, 49, 0
2, 342720, Note_on_c, 0, 49, 49
2, 342947, Note_on_c, 0, 49, 0
2, 343080, Note_on_c, 0, 50, 49
2, 343193, Note_on_c, 0, 50, 0
2, 343200, Note_on_c, 0, 49, 49
2, 343427, Note_on_c, 0, 49, 0
2, 343440, Note_on_c, 0, 49, 49
2, 343559, Note_on_c, 0, 49, 0
2, 343680, Note_on_c, 0, 50, 49
2, 343799, Note_on_c, 0, 50, 0
2, 343920, Note_on_c, 0, 49, 49
2, 344039, Note_on_c, 0, 49, 0
2, 344160, Note_on_c, 0, 49, 49
2, 344387, Note_on_c, 0, 49, 0
2, 344520, Note_on_c, 0, 50, 49
2, 344633, Note_on_c, 0, 50, 0
2, 344640, Note_on_c, 0, 49, 49
2, 344867, Note_on_c, 0, 49, 0
2, 344880, Note_on_c, 0, 49, 49
2, 344999, Note_on_c, 0, 49, 0
2, 345120, Note_on_c, 0, 50, 49
2, 345239, Note_on_c, 0, 50, 0
2, 345360, Note_on_c, 0, 49, 49
2, 345479, Note_on_c, 0, 49, 0
2, 345600, Note_on_c, 0, 49, 49
2, 345719, Note_on_c, 0, 49, 0
2, 345840, Note_on_c, 0, 50, 49
2, 345959, Note_on_c, 0, 50, 0
2, 346080, Note_on_c, 0, 49, 49
2, 346199, Note_on_c, 0, 49, 0
2, 346320, Note_on_c, 0, 49, 49
2, 346439, Note_on_c, 0, 49, 0
2, 346560, Note_on_c, 0, 50, 49
2, 346679, Note_on_c, 0, 50, 0
2, 346751, Note_on_c, 0, 42, 0
2, 346800, Note_on_c, 0, 49, 96
2, 346919, Note_on_c, 0, 49, 0
2, 347040, Note_on_c, 0, 66, 115
2, 347280, Note_on_c, 0, 64, 96
2, 347399, Note_on_c, 0, 64, 0
2, 347520, Note_on_c, 0, 62, 96
2, 347639, Note_on_c, 0, 62, 0
2, 347760, Note_on_c, 0, 61, 96
2, 347879, Note_on_c, 0, 61, 0
2, 348000, Note_on_c, 0, 62, 96
2, 348119, Note_on_c, 0, 62, 0
2, 348240, Note_on_c, 0, 59, 96
2, 348359, Note_on_c, 0, 59, 0
2, 348479, Note_on_c, 0, 66, 0
2, 348480, Note_on_c, 0, 61, 115
2, 348720, Note_on_c, 0, 59, 96
2, 348839, Note_on_c, 0, 59, 0
2, 348960, Note_on_c, 0, 57, 96
2, 349079, Note_on_c, 0, 57, 0
2, 349200, Note_on_c, 0, 56, 96
2, 349319, Note_on_c, 0, 56, 0
2, 349440, Note_on_c, 0, 57, 96
2, 349559, Note_on_c, 0, 57, 0
2, 349680, Note_on_c, 0, 54, 96
2, 349799, Note_on_c, 0, 54, 0
2, 349919, Note_on_c, 0, 61, 0
2, 349920, Note_on_c, 0, 56, 115
2, 350160, Note_on_c, 0, 54, 96
2, 350279, Note_on_c, 0, 54, 0
2, 350400, Note_on_c, 0, 53, 96
2, 350519, Note_on_c, 0, 53, 0
2, 350640, Note_on_c, 0, 51, 96
2, 350759, Note_on_c, 0, 51, 0
2, 350880, Note_on_c, 0, 53, 96
2, 350999, Note_on_c, 0, 53, 0
2, 351120, Note_on_c, 0, 49, 91
2, 351239, Note_on_c, 0, 49, 0
2, 351360, Note_on_c, 0, 50, 85
2, 351479, Note_on_c, 0, 50, 0
2, 351600, Note_on_c, 0, 47, 79
2, 351719, Note_on_c, 0, 47, 0
2, 351815, Note_on_c, 0, 56, 0
2, 351840, Note_on_c, 0, 45, 73
2, 351959, Note_on_c, 0, 45, 0
2, 352080, Note_on_c, 0, 47, 67
2, 352199, Note_on_c, 0, 47, 0
2, 352320, Note_on_c, 0, 44, 61
2, 352439, Note_on_c, 0, 44, 0
2, 352560, Note_on_c, 0, 49, 55
2, 352679, Note_on_c, 0, 49, 0
2, 352800, Note_on_c, 0, 49, 49
2, 352800, Note_on_c, 0, 42, 49
2, 353027, Note_on_c, 0, 49, 0
2, 353160, Note_on_c, 0, 50, 49
2, 353273, Note_on_c, 0, 50, 0
2, 353280, Note_on_c, 0, 49, 49
2, 353507, Note_on_c, 0, 49, 0
2, 353520, Note_on_c, 0, 49, 49
2, 353639, Note_on_c, 0, 49, 0
2, 353760, Note_on_c, 0, 50, 49
2, 353879, Note_on_c, 0, 50, 0
2, 354000, Note_on_c, 0, 49, 49
2, 354119, Note_on_c, 0, 49, 0
2, 354240, Note_on_c, 0, 49, 49
2, 354467, Note_on_c, 0, 49, 0
2, 354600, Note_on_c, 0, 50, 49
2, 354713, Note_on_c, 0, 50, 0
2, 354720, Note_on_c, 0, 49, 49
2, 354947, Note_on_c, 0, 49, 0
2, 354960, Note_on_c, 0, 49, 49
2, 355079, Note_on_c, 0, 49, 0
2, 355200, Note_on_c, 0, 50, 49
2, 355319, Note_on_c, 0, 50, 0
2, 355440, Note_on_c, 0, 49, 49
2, 355559, Note_on_c, 0, 49, 0
2, 355680, Note_on_c, 0, 49, 49
2, 355907, Note_on_c, 0, 49, 0
2, 356040, Note_on_c, 0, 50, 49
2, 356153, Note_on_c, 0, 50, 0
2, 356160, Note_on_c, 0, 49, 49
2, 356387, Note_on_c, 0, 49, 0
2, 356400, Note_on_c, 0, 49, 49
2, 356519, Note_on_c, 0, 49, 0
2, 356640, Note_on_c, 0, 50, 49
2, 356759, Note_on_c, 0, 50, 0
2, 356880, Note_on_c, 0, 49, 49
2, 356999, Note_on_c, 0, 49, 0
2, 357120, Note_on_c, 0, 49, 49
2, 357239, Note_on_c, 0, 49, 0
2, 357360, Note_on_c, 0, 50, 49
2, 357479, Note_on_c, 0, 50, 0
2, 357600, Note_on_c, 0, 49, 49
2, 357719, Note_on_c, 0, 49, 0
2, 357840, Note_on_c, 0, 49, 49
2, 357959, Note_on_c, 0, 49, 0
2, 358080, Note_on_c, 0, 50, 49
2, 358199, Note_on_c, 0, 50, 0
2, 358271, Note_on_c, 0, 42, 0
2, 358320, Note_on_c, 0, 49, 96
2, 358439, Note_on_c, 0, 49, 0
2, 358560, Note_on_c, 0, 66, 115
2, 358560, Note_on_c, 0, 69, 115
2, 358800, Note_on_c, 0, 64, 96
2, 358919, Note_on_c, 0, 64, 0
2, 359040, Note_on_c, 0, 62, 96
2, 359159, Note_on_c, 0, 62, 0
2, 359280, Note_on_c, 0, 61, 96
2, 359399, Note_on_c, 0, 61, 0
2, 359520, Note_on_c, 0, 62, 96
2, 359639, Note_on_c, 0, 62, 0
2, 359760, Note_on_c, 0, 60, 96
2, 359879, Note_on_c, 0, 60, 0
2, 360000, Note_on_c, 0, 61, 96
2, 360119, Note_on_c, 0, 61, 0
2, 360240, Note_on_c, 0, 69, 0
2, 360240, Note_on_c, 0, 57, 87
2, 360359, Note_on_c, 0, 57, 0
2, 360455, Note_on_c, 0, 66, 0
2, 360480, Note_on_c, 0, 59, 78
2, 360599, Note_on_c, 0, 59, 0
2, 360720, Note_on_c, 0, 56, 68
2, 360839, Note_on_c, 0, 56, 0
2, 360960, Note_on_c, 0, 57, 59
2, 361079, Note_on_c, 0, 57, 0
2, 361200, Note_on_c, 0, 54, 49
2, 361319, Note_on_c, 0, 54, 0
2, 361440, Note_on_c, 0, 66, 115
2, 361440, Note_on_c, 0, 69, 115
2, 361680, Note_on_c, 0, 64, 96
2, 361799, Note_on_c, 0, 64, 0
2, 361920, Note_on_c, 0, 62, 96
2, 362039, Note_on_c, 0, 62, 0
2, 362160, Note_on_c, 0, 61, 96
2, 362279, Note_on_c, 0, 61, 0
2, 362400, Note_on_c, 0, 62, 96
2, 362519, Note_on_c, 0, 62, 0
2, 362640, Note_on_c, 0, 60, 96
2, 362759, Note_on_c, 0, 60, 0
2, 362880, Note_on_c, 0, 61, 96
2, 362999, Note_on_c, 0, 61, 0
2, 363120, Note_on_c, 0, 69, 0
2, 363120, Note_on_c, 0, 57, 87
2, 363239, Note_on_c, 0, 57, 0
2, 363335, Note_on_c, 0, 66, 0
2, 363360, Note_on_c, 0, 59, 78
2, 363479, Note_on_c, 0, 59, 0
2, 363600, Note_on_c, 0, 56, 68
2, 363719, Note_on_c, 0, 56, 0
2, 363840, Note_on_c, 0, 57, 59
2, 363959, Note_on_c, 0, 57, 0
2, 364080, Note_on_c, 0, 54, 49
2, 364199, Note_on_c, 0, 54, 0
2, 364320, Note_on_c, 0, 61, 115
2, 364320, Note_on_c, 0, 64, 115
2, 364560, Note_on_c, 0, 59, 96
2, 364679, Note_on_c, 0, 59, 0
2, 364800, Note_on_c, 0, 57, 96
2, 364919, Note_on_c, 0, 57, 0
2, 365040, Note_on_c, 0, 56, 96
2, 365159, Note_on_c, 0, 56, 0
2, 365280, Note_on_c, 0, 57, 96
2, 365399, Note_on_c, 0, 57, 0
2, 365520, Note_on_c, 0, 55, 96
2, 365639, Note_on_c, 0, 55, 0
2, 365759, Note_on_c, 0, 61, 0
2, 365759, Note_on_c, 0, 64, 0
2, 365760, Note_on_c, 0, 61, 115
2, 365760, Note_on_c, 0, 64, 115
2, 366000, Note_on_c, 0, 59, 96
2, 366119, Note_on_c, 0, 59, 0
2, 366240, Note_on_c, 0, 57, 96
2, 366359, Note_on_c, 0, 57, 0
2, 366480, Note_on_c, 0, 56, 96
2, 366599, Note_on_c, 0, 56, 0
2, 366720, Note_on_c, 0, 57, 96
2, 366839, Note_on_c, 0, 57, 0
2, 366960, Note_on_c, 0, 55, 96
2, 367079, Note_on_c, 0, 55, 0
2, 367200, Note_on_c, 0, 56, 96
2, 367319, Note_on_c, 0, 56, 0
2, 367440, Note_on_c, 0, 57, 89
2, 367559, Note_on_c, 0, 57, 0
2, 367680, Note_on_c, 0, 55, 81
2, 367799, Note_on_c, 0, 55, 0
2, 367920, Note_on_c, 0, 56, 73
2, 368039, Note_on_c, 0, 56, 0
2, 368160, Note_on_c, 0, 57, 65
2, 368279, Note_on_c, 0, 57, 0
2, 368400, Note_on_c, 0, 55, 57
2, 368519, Note_on_c, 0, 55, 0
2, 368567, Note_on_c, 0, 61, 0
2, 368567, Note_on_c, 0, 64, 0
2, 368640, Note_on_c, 0, 44, 49
2, 368640, Note_on_c, 0, 56, 49
2, 368867, Note_on_c, 0, 44, 0
2, 368867, Note_on_c, 0, 56, 0
2, 369360, Note_on_c, 0, 37, 49
2, 369360, Note_on_c, 0, 49, 49
2, 369587, Note_on_c, 0, 37, 0
2, 369587, Note_on_c, 0, 49, 0
2, 370080, Note_on_c, 0, 61, 96
2, 370307, Note_on_c, 0, 61, 0
2, 370440, Note_on_c, 0, 61, 96
2, 370553, Note_on_c, 0, 61, 0
2, 370560, Note_on_c, 0, 61, 96
2, 370787, Note_on_c, 0, 61, 0
2, 370800, Note_on_c, 0, 61, 96
2, 370919, Note_on_c, 0, 61, 0
2, 371040, Note_on_c, 0, 61, 96
2, 371159, Note_on_c, 0, 61, 0
2, 371280, Note_on_c, 0, 61, 96
2, 371399, Note_on_c, 0, 61, 0
2, 371520, Note_on_c, 0, 61, 96
2, 371747, Note_on_c, 0, 61, 0
2, 371880, Note_on_c, 0, 61, 96
2, 371993, Note_on_c, 0, 61, 0
2, 372000, Note_on_c, 0, 61, 96
2, 372227, Note_on_c, 0, 61, 0
2, 372240, Note_on_c, 0, 61, 96
2, 372359, Note_on_c, 0, 61, 0
2, 372480, Note_on_c, 0, 61, 96
2, 372599, Note_on_c, 0, 61, 0
2, 372720, Note_on_c, 0, 61, 96
2, 372839, Note_on_c, 0, 61, 0
2, 372960, Note_on_c, 0, 61, 96
2, 373187, Note_on_c, 0, 61, 0
2, 373320, Note_on_c, 0, 61, 96
2, 373433, Note_on_c, 0, 61, 0
2, 373440, Note_on_c, 0, 61, 96
2, 373667, Note_on_c, 0, 61, 0
2, 373680, Note_on_c, 0, 61, 96
2, 373799, Note_on_c, 0, 61, 0
2, 373920, Note_on_c, 0, 61, 96
2, 374039, Note_on_c, 0, 61, 0
2, 374160, Note_on_c, 0, 61, 96
2, 374279, Note_on_c, 0, 61, 0
2, 374400, Note_on_c, 0, 61, 96
2, 374627, Note_on_c, 0, 61, 0
2, 374760, Note_on_c, 0, 61, 96
2, 374873, Note_on_c, 0, 61, 0
2, 374880, Note_on_c, 0, 61, 96
2, 375107, Note_on_c, 0, 61, 0
2, 375120, Note_on_c, 0, 61, 96
2, 375239, Note_on_c, 0, 61, 0
2, 375360, Note_on_c, 0, 61, 96
2, 375479, Note_on_c, 0, 61, 0
2, 375600, Note_on_c, 0, 61, 96
2, 375719, Note_on_c, 0, 61, 0
2, 375840, Note_on_c, 0, 42, 96
2, 375840, Note_on_c, 0, 54, 96
2, 376067, Note_on_c, 0, 42, 0
2, 376067, Note_on_c, 0, 54, 0
2, 376200, Note_on_c, 0, 42, 96
2, 376200, Note_on_c, 0, 54, 96
2, 376313, Note_on_c, 0, 42, 0
2, 376313, Note_on_c, 0, 54, 0
2, 376320, Note_on_c, 0, 42, 96
2, 376320, Note_on_c, 0, 54, 96
2, 376547, Note_on_c, 0, 42, 0
2, 376547, Note_on_c, 0, 54, 0
2, 376560, Note_on_c, 0, 42, 96
2, 376560, Note_on_c, 0, 54, 96
2, 376679, Note_on_c, 0, 42, 0
2, 376679, Note_on_c, 0, 54, 0
2, 376800, Note_on_c, 0, 42, 96
2, 376800, Note_on_c, 0, 54, 96
2, 376919, Note_on_c, 0, 42, 0
2, 376919, Note_on_c, 0, 54, 0
2, 377040, Note_on_c, 0, 42, 96
2, 377040, Note_on_c, 0, 54, 96
2, 377159, Note_on_c, 0, 42, 0
2, 377159, Note_on_c, 0, 54, 0
2, 377280, Note_on_c, 0, 42, 96
2, 377280, Note_on_c, 0, 54, 96
2, 377507, Note_on_c, 0, 42, 0
2, 377507, Note_on_c, 0, 54, 0
2, 377640, Note_on_c, 0, 42, 96
2, 377640, Note_on_c, 0, 54, 96
2, 377753, Note_on_c, 0, 42, 0
2, 377753, Note_on_c, 0, 54, 0
2, 377760, Note_on_c, 0, 42, 96
2, 377760, Note_on_c, 0, 54, 96
2, 377987, Note_on_c, 0, 42, 0
2, 377987, Note_on_c, 0, 54, 0
2, 378000, Note_on_c, 0, 42, 96
2, 378000, Note_on_c, 0, 54, 96
2, 378119, Note_on_c, 0, 42, 0
2, 378119, Note_on_c, 0, 54, 0
2, 378240, Note_on_c, 0, 42, 96
2, 378240, Note_on_c, 0, 54, 96
2, 378359, Note_on_c, 0, 42, 0
2, 378359, Note_on_c, 0, 54, 0
2, 378480, Note_on_c, 0, 42, 96
2, 378480, Note_on_c, 0, 54, 96
2, 378599, Note_on_c, 0, 42, 0
2, 378599, Note_on_c, 0, 54, 0
2, 378720, Note_on_c, 0, 42, 96
2, 378720, Note_on_c, 0, 54, 96
2, 378947, Note_on_c, 0, 42, 0
2, 378947, Note_on_c, 0, 54, 0
2, 379080, Note_on_c, 0, 42, 96
2, 379080, Note_on_c, 0, 54, 96
2, 379193, Note_on_c, 0, 42, 0
2, 379193, Note_on_c, 0, 54, 0
2, 379200, Note_on_c, 0, 42, 96
2, 379200, Note_on_c, 0, 54, 96
2, 379427, Note_on_c, 0, 42, 0
2, 379427, Note_on_c, 0, 54, 0
2, 379440, Note_on_c, 0, 42, 96
2, 379440, Note_on_c, 0, 54, 96
2, 379559, Note_on_c, 0, 42, 0
2, 379559, Note_on_c, 0, 54, 0
2, 379680, Note_on_c, 0, 42, 96
2, 379680, Note_on_c, 0, 54, 96
2, 379799, Note_on_c, 0, 42, 0
2, 379799, Note_on_c, 0, 54, 0
2, 379920, Note_on_c, 0, 42, 96
2, 379920, Note_on_c, 0, 54, 96
2, 380039, Note_on_c, 0, 42, 0
2, 380039, Note_on_c, 0, 54, 0
2, 380400, Note_on_c, 0, 42, 96
2, 380400, Note_on_c, 0, 54, 96
2, 380519, Note_on_c, 0, 42, 0
2, 380519, Note_on_c, 0, 54, 0
2, 380640, Note_on_c, 0, 42, 96
2, 380640, Note_on_c, 0, 54, 96
2, 380759, Note_on_c, 0, 42, 0
2, 380759, Note_on_c, 0, 54, 0
2, 380880, Note_on_c, 0, 42, 96
2, 380880, Note_on_c, 0, 54, 96
2, 381335, Note_on_c, 0, 42, 0
2, 381335, Note_on_c, 0, 54, 0
2, 381840, Note_on_c, 0, 52, 96
2, 381840, Note_on_c, 0, 54, 96
2, 381959, Note_on_c, 0, 52, 0
2, 381959, Note_on_c, 0, 54, 0
2, 382080, Note_on_c, 0, 52, 96
2, 382080, Note_on_c, 0, 54, 96
2, 382199, Note_on_c, 0, 52, 0
2, 382199, Note_on_c, 0, 54, 0
2, 382320, Note_on_c, 0, 52, 96
2, 382320, Note_on_c, 0, 54, 96
2, 382775, Note_on_c, 0, 52, 0
2, 382775, Note_on_c, 0, 54, 0
2, 383280, Note_on_c, 0, 50, 96
2, 383280, Note_on_c, 0, 54, 96
2, 383399, Note_on_c, 0, 50, 0
2, 383399, Note_on_c, 0, 54, 0
2, 383520, Note_on_c, 0, 50, 96
2, 383520, Note_on_c, 0, 54, 96
2, 383639, Note_on_c, 0, 50, 0
2, 383639, Note_on_c, 0, 54, 0
2, 383760, Note_on_c, 0, 50, 96
2, 383760, Note_on_c, 0, 54, 96
2, 384215, Note_on_c, 0, 50, 0
2, 384215, Note_on_c, 0, 54, 0
2, 384720, Note_on_c, 0, 58, 96
2, 384839, Note_on_c, 0, 58, 0
2, 384960, Note_on_c, 0, 58, 96
2, 385079, Note_on_c, 0, 58, 0
2, 385200, Note_on_c, 0, 58, 96
2, 385655, Note_on_c, 0, 58, 0
2, 385680, Note_on_c, 0, 62, 96
2, 385680, Note_on_c, 0, 66, 96
2, 385907, Note_on_c, 0, 62, 0
2, 385907, Note_on_c, 0, 66, 0
2, 385920, Note_on_c, 0, 59, 96
2, 385920, Note_on_c, 0, 61, 96
2, 385920, Note_on_c, 0, 64, 96
2, 387359, Note_on_c, 0, 61, 0
2, 387359, Note_on_c, 0, 64, 0
2, 387360, Note_on_c, 0, 62, 71
2, 388080, Note_on_c, 0, 57, 58
2, 388271, Note_on_c, 0, 62, 0
2, 388560, Note_on_c, 0, 66, 49
2, 388727, Note_on_c, 0, 59, 0
2, 388763, Note_on_c, 0, 57, 0
2, 388787, Note_on_c, 0, 66, 0
2, 388800, Note_on_c, 0, 56, 49
2, 388800, Note_on_c, 0, 59, 49
2, 388800, Note_on_c, 0, 64, 49
2, 390239, Note_on_c, 0, 64, 0
2, 390240, Note_on_c, 0, 62, 49
2, 390959, Note_on_c, 0, 56, 0
2, 390960, Note_on_c, 0, 54, 49
2, 391415, Note_on_c, 0, 59, 0
2, 391415, Note_on_c, 0, 62, 0
2, 391415, Note_on_c, 0, 54, 0
2, 391680, Note_on_c, 0, 41, 64
2, 391680, Note_on_c, 0, 53, 64
2, 391907, Note_on_c, 0, 41, 0
2, 391907, Note_on_c, 0, 53, 0
2, 391920, Note_on_c, 0, 56, 64
2, 391920, Note_on_c, 0, 59, 64
2, 392147, Note_on_c, 0, 56, 0
2, 392147, Note_on_c, 0, 59, 0
2, 392160, Note_on_c, 0, 49, 64
2, 392387, Note_on_c, 0, 49, 0
2, 392400, Note_on_c, 0, 49, 64
2, 392627, Note_on_c, 0, 49, 0
2, 392640, Note_on_c, 0, 56, 64
2, 392640, Note_on_c, 0, 59, 64
2, 392867, Note_on_c, 0, 56, 0
2, 392867, Note_on_c, 0, 59, 0
2, 392880, Note_on_c, 0, 42, 64
2, 393107, Note_on_c, 0, 42, 0
2, 393120, Note_on_c, 0, 42, 64
2, 393347, Note_on_c, 0, 42, 0
2, 393360, Note_on_c, 0, 54, 64
2, 393360, Note_on_c, 0, 57, 64
2, 393587, Note_on_c, 0, 54, 0
2, 393587, Note_on_c, 0, 57, 0
2, 393600, Note_on_c, 0, 49, 64
2, 393827, Note_on_c, 0, 49, 0
2, 393840, Note_on_c, 0, 49, 64
2, 394067, Note_on_c, 0, 49, 0
2, 394080, Note_on_c, 0, 54, 64
2, 394080, Note_on_c, 0, 57, 64
2, 394307, Note_on_c, 0, 54, 0
2, 394307, Note_on_c, 0, 57, 0
2, 394320, Note_on_c, 0, 44, 64
2, 394547, Note_on_c, 0, 44, 0
2, 394560, Note_on_c, 0, 44, 76
2, 394799, Note_on_c, 0, 44, 0
2, 394800, Note_on_c, 0, 59, 64
2, 394800, Note_on_c, 0, 62, 64
2, 395027, Note_on_c, 0, 59, 0
2, 395027, Note_on_c, 0, 62, 0
2, 395040, Note_on_c, 0, 52, 64
2, 395267, Note_on_c, 0, 52, 0
2, 395280, Note_on_c, 0, 52, 64
2, 395507, Note_on_c, 0, 52, 0
2, 395520, Note_on_c, 0, 59, 64
2, 395520, Note_on_c, 0, 62, 64
2, 395747, Note_on_c, 0, 59, 0
2, 395747, Note_on_c, 0, 62, 0
2, 395760, Note_on_c, 0, 45, 64
2, 395987, Note_on_c, 0, 45, 0
2, 396000, Note_on_c, 0, 45, 64
2, 396227, Note_on_c, 0, 45, 0
2, 396240, Note_on_c, 0, 57, 64
2, 396240, Note_on_c, 0, 61, 64
2, 396467, Note_on_c, 0, 57, 0
2, 396467, Note_on_c, 0, 61, 0
2, 396480, Note_on_c, 0, 52, 64
2, 396707, Note_on_c, 0, 52, 0
2, 396720, Note_on_c, 0, 52, 64
2, 396947, Note_on_c, 0, 52, 0
2, 396960, Note_on_c, 0, 57, 64
2, 396960, Note_on_c, 0, 61, 64
2, 397187, Note_on_c, 0, 57, 0
2, 397187, Note_on_c, 0, 61, 0
2, 397200, Note_on_c, 0, 48, 64
2, 397427, Note_on_c, 0, 48, 0
2, 397440, Note_on_c, 0, 48, 76
2, 397679, Note_on_c, 0, 48, 0
2, 397680, Note_on_c, 0, 63, 64
2, 397680, Note_on_c, 0, 66, 64
2, 397907, Note_on_c, 0, 63, 0
2, 397907, Note_on_c, 0, 66, 0
2, 397920, Note_on_c, 0, 56, 64
2, 398147, Note_on_c, 0, 56, 0
2, 398160, Note_on_c, 0, 56, 64
2, 398387, Note_on_c, 0, 56, 0
2, 398400, Note_on_c, 0, 63, 64
2, 398400, Note_on_c, 0, 66, 64
2, 398627, Note_on_c, 0, 63, 0
2, 398627, Note_on_c, 0, 66, 0
2, 398640, Note_on_c, 0, 49, 64
2, 398867, Note_on_c, 0, 49, 0
2, 398880, Note_on_c, 0, 49, 64
2, 399107, Note_on_c, 0, 49, 0
2, 399120, Note_on_c, 0, 61, 64
2, 399347, Note_on_c, 0, 61, 0
2, 399360, Note_on_c, 0, 50, 64
2, 399587, Note_on_c, 0, 50, 0
2, 399600, Note_on_c, 0, 50, 64
2, 399827, Note_on_c, 0, 50, 0
2, 399840, Note_on_c, 0, 62, 64
2, 400067, Note_on_c, 0, 62, 0
2, 400080, Note_on_c, 0, 47, 64
2, 400307, Note_on_c, 0, 47, 0
2, 400320, Note_on_c, 0, 47, 64
2, 400547, Note_on_c, 0, 47, 0
2, 400560, Note_on_c, 0, 59, 63
2, 400787, Note_on_c, 0, 59, 0
2, 400800, Note_on_c, 0, 49, 63
2, 401027, Note_on_c, 0, 49, 0
2, 401040, Note_on_c, 0, 49, 63
2, 401267, Note_on_c, 0, 49, 0
2, 401280, Note_on_c, 0, 61, 62
2, 401507, Note_on_c, 0, 61, 0
2, 401520, Note_on_c, 0, 45, 62
2, 401747, Note_on_c, 0, 45, 0
2, 401760, Note_on_c, 0, 45, 62
2, 401987, Note_on_c, 0, 45, 0
2, 402000, Note_on_c, 0, 57, 61
2, 402227, Note_on_c, 0, 57, 0
2, 402240, Note_on_c, 0, 49, 61
2, 402240, Note_on_c, 0, 54, 61
2, 402467, Note_on_c, 0, 49, 0
2, 402467, Note_on_c, 0, 54, 0
2, 402480, Note_on_c, 0, 49, 61
2, 402480, Note_on_c, 0, 54, 61
2, 402707, Note_on_c, 0, 49, 0
2, 402707, Note_on_c, 0, 54, 0
2, 402720, Note_on_c, 0, 57, 60
2, 402947, Note_on_c, 0, 57, 0
2, 402960, Note_on_c, 0, 41, 60
2, 403187, Note_on_c, 0, 41, 0
2, 403200, Note_on_c, 0, 41, 72
2, 403439, Note_on_c, 0, 41, 0
2, 403440, Note_on_c, 0, 56, 59
2, 403440, Note_on_c, 0, 59, 59
2, 403667, Note_on_c, 0, 56, 0
2, 403667, Note_on_c, 0, 59, 0
2, 403680, Note_on_c, 0, 49, 59
2, 403907, Note_on_c, 0, 49, 0
2, 403920, Note_on_c, 0, 49, 59
2, 404147, Note_on_c, 0, 49, 0
2, 404160, Note_on_c, 0, 56, 59
2, 404160, Note_on_c, 0, 59, 59
2, 404387, Note_on_c, 0, 56, 0
2, 404387, Note_on_c, 0, 59, 0
2, 404400, Note_on_c, 0, 42, 58
2, 404627, Note_on_c, 0, 42, 0
2, 404640, Note_on_c, 0, 42, 58
2, 404867, Note_on_c, 0, 42, 0
2, 404880, Note_on_c, 0, 54, 58
2, 404880, Note_on_c, 0, 57, 58
2, 405107, Note_on_c, 0, 54, 0
2, 405107, Note_on_c, 0, 57, 0
2, 405120, Note_on_c, 0, 49, 57
2, 405347, Note_on_c, 0, 49, 0
2, 405360, Note_on_c, 0, 49, 57
2, 405587, Note_on_c, 0, 49, 0
2, 405600, Note_on_c, 0, 54, 57
2, 405600, Note_on_c, 0, 57, 57
2, 405827, Note_on_c, 0, 54, 0
2, 405827, Note_on_c, 0, 57, 0
2, 405840, Note_on_c, 0, 44, 56
2, 406067, Note_on_c, 0, 44, 0
2, 406080, Note_on_c, 0, 44, 67
2, 406319, Note_on_c, 0, 44, 0
2, 406320, Note_on_c, 0, 59, 56
2, 406320, Note_on_c, 0, 62, 56
2, 406547, Note_on_c, 0, 59, 0
2, 406547, Note_on_c, 0, 62, 0
2, 406560, Note_on_c, 0, 52, 55
2, 406787, Note_on_c, 0, 52, 0
2, 406800, Note_on_c, 0, 52, 55
2, 407027, Note_on_c, 0, 52, 0
2, 407040, Note_on_c, 0, 59, 55
2, 407040, Note_on_c, 0, 62, 55
2, 407267, Note_on_c, 0, 59, 0
2, 407267, Note_on_c, 0, 62, 0
2, 407280, Note_on_c, 0, 45, 54
2, 407507, Note_on_c, 0, 45, 0
2, 407520, Note_on_c, 0, 45, 54
2, 407747, Note_on_c, 0, 45, 0
2, 407760, Note_on_c, 0, 57, 54
2, 407760, Note_on_c, 0, 61, 54
2, 407987, Note_on_c, 0, 57, 0
2, 407987, Note_on_c, 0, 61, 0
2, 408000, Note_on_c, 0, 52, 54
2, 408227, Note_on_c, 0, 52, 0
2, 408240, Note_on_c, 0, 52, 53
2, 408467, Note_on_c, 0, 52, 0
2, 408480, Note_on_c, 0, 57, 53
2, 408480, Note_on_c, 0, 61, 53
2, 408707, Note_on_c, 0, 57, 0
2, 408707, Note_on_c, 0, 61, 0
2, 408720, Note_on_c, 0, 46, 53
2, 408947, Note_on_c, 0, 46, 0
2, 408960, Note_on_c, 0, 46, 62
2, 409199, Note_on_c, 0, 46, 0
2, 409200, Note_on_c, 0, 61, 52
2, 409200, Note_on_c, 0, 64, 52
2, 409427, Note_on_c, 0, 61, 0
2, 409427, Note_on_c, 0, 64, 0
2, 409440, Note_on_c, 0, 54, 52
2, 409667, Note_on_c, 0, 54, 0
2, 409680, Note_on_c, 0, 54, 51
2, 409907, Note_on_c, 0, 54, 0
2, 409920, Note_on_c, 0, 61, 51
2, 409920, Note_on_c, 0, 64, 51
2, 410147, Note_on_c, 0, 61, 0
2, 410147, Note_on_c, 0, 64, 0
2, 410160, Note_on_c, 0, 47, 51
2, 410387, Note_on_c, 0, 47, 0
2, 410400, Note_on_c, 0, 47, 50
2, 410627, Note_on_c, 0, 47, 0
2, 410640, Note_on_c, 0, 59, 50
2, 410640, Note_on_c, 0, 62, 50
2, 410867, Note_on_c, 0, 59, 0
2, 410867, Note_on_c, 0, 62, 0
2, 410880, Note_on_c, 0, 54, 50
2, 411107, Note_on_c, 0, 54, 0
2, 411120, Note_on_c, 0, 54, 49
2, 411347, Note_on_c, 0, 54, 0
2, 411360, Note_on_c, 0, 59, 51
2, 411360, Note_on_c, 0, 62, 51
2, 411587, Note_on_c, 0, 59, 0
2, 411587, Note_on_c, 0, 62, 0
2, 411600, Note_on_c, 0, 47, 54
2, 411827, Note_on_c, 0, 47, 0
2, 411840, Note_on_c, 0, 47, 56
2, 412067, Note_on_c, 0, 47, 0
2, 412080, Note_on_c, 0, 59, 59
2, 412080, Note_on_c, 0, 62, 59
2, 412307, Note_on_c, 0, 59, 0
2, 412307, Note_on_c, 0, 62, 0
2, 412320, Note_on_c, 0, 54, 62
2, 412547, Note_on_c, 0, 54, 0
2, 412560, Note_on_c, 0, 54, 64
2, 412787, Note_on_c, 0, 54, 0
2, 412800, Note_on_c, 0, 59, 67
2, 412800, Note_on_c, 0, 62, 67
2, 413027, Note_on_c, 0, 59, 0
2, 413027, Note_on_c, 0, 62, 0
2, 413040, Note_on_c, 0, 47, 69
2, 413267, Note_on_c, 0, 47, 0
2, 413280, Note_on_c, 0, 47, 72
2, 413507, Note_on_c, 0, 47, 0
2, 413520, Note_on_c, 0, 59, 75
2, 413520, Note_on_c, 0, 62, 75
2, 413747, Note_on_c, 0, 59, 0
2, 413747, Note_on_c, 0, 62, 0
2, 413760, Note_on_c, 0, 56, 77
2, 413987, Note_on_c, 0, 56, 0
2, 414000, Note_on_c, 0, 56, 80
2, 414227, Note_on_c, 0, 56, 0
2, 414240, Note_on_c, 0, 59, 82
2, 414240, Note_on_c, 0, 62, 82
2, 414467, Note_on_c, 0, 59, 0
2, 414467, Note_on_c, 0, 62, 0
2, 414480, Note_on_c, 0, 47, 85
2, 414707, Note_on_c, 0, 47, 0
2, 414720, Note_on_c, 0, 47, 88
2, 414947, Note_on_c, 0, 47, 0
2, 414960, Note_on_c, 0, 59, 90
2, 414960, Note_on_c, 0, 62, 90
2, 415187, Note_on_c, 0, 59, 0
2, 415187, Note_on_c, 0, 62, 0
2, 415200, Note_on_c, 0, 56, 93
2, 415427, Note_on_c, 0, 56, 0
2, 415440, Note_on_c, 0, 56, 96
2, 415667, Note_on_c, 0, 56, 0
2, 415680, Note_on_c, 0, 59, 96
2, 415680, Note_on_c, 0, 62, 96
2, 415907, Note_on_c, 0, 59, 0
2, 415907, Note_on_c, 0, 62, 0
2, 415920, Note_on_c, 0, 61, 96
2, 416147, Note_on_c, 0, 61, 0
2, 416160, Note_on_c, 0, 57, 96
2, 416160, Note_on_c, 0, 61, 96
2, 416160, Note_on_c, 0, 66, 96
2, 416615, Note_on_c, 0, 57, 0
2, 416615, Note_on_c, 0, 61, 0
2, 416615, Note_on_c, 0, 66, 0
2, 417600, Note_on_c, 0, 59, 96
2, 417600, Note_on_c, 0, 61, 96
2, 417600, Note_on_c, 0, 65, 96
2, 417827, Note_on_c, 0, 59, 0
2, 417827, Note_on_c, 0, 61, 0
2, 417827, Note_on_c, 0, 65, 0
2, 417840, Note_on_c, 0, 59, 96
2, 417840, Note_on_c, 0, 61, 96
2, 417840, Note_on_c, 0, 65, 96
2, 418067, Note_on_c, 0, 59, 0
2, 418067, Note_on_c, 0, 61, 0
2, 418067, Note_on_c, 0, 65, 0
2, 418080, Note_on_c, 0, 59, 96
2, 418080, Note_on_c, 0, 61, 96
2, 418080, Note_on_c, 0, 65, 96
2, 418307, Note_on_c, 0, 59, 0
2, 418307, Note_on_c, 0, 61, 0
2, 418307, Note_on_c, 0, 65, 0
2, 418320, Note_on_c, 0, 59, 96
2, 418320, Note_on_c, 0, 61, 96
2, 418320, Note_on_c, 0, 65, 96
2, 418547, Note_on_c, 0, 59, 0
2, 418547, Note_on_c, 0, 61, 0
2, 418547, Note_on_c, 0, 65, 0
2, 418560, Note_on_c, 0, 59, 96
2, 418560, Note_on_c, 0, 61, 96
2, 418560, Note_on_c, 0, 65, 96
2, 418787, Note_on_c, 0, 59, 0
2, 418787, Note_on_c, 0, 61, 0
2, 418787, Note_on_c, 0, 65, 0
2, 418800, Note_on_c, 0, 59, 96
2, 418800, Note_on_c, 0, 61, 96
2, 418800, Note_on_c, 0, 65, 96
2, 419027, Note_on_c, 0, 59, 0
2, 419027, Note_on_c, 0, 61, 0
2, 419027, Note_on_c, 0, 65, 0
2, 419040, Note_on_c, 0, 57, 96
2, 419040, Note_on_c, 0, 61, 96
2, 419040, Note_on_c, 0, 66, 96
2, 419495, Note_on_c, 0, 57, 0
2, 419495, Note_on_c, 0, 61, 0
2, 419495, Note_on_c, 0, 66, 0
2, 420480, Note_on_c, 0, 47, 96
2, 420480, Note_on_c, 0, 49, 96
2, 420480, Note_on_c, 0, 53, 96
2, 420707, Note_on_c, 0, 47, 0
2, 420707, Note_on_c, 0, 49, 0
2, 420707, Note_on_c, 0, 53, 0
2, 420720, Note_on_c, 0, 47, 96
2, 420720, Note_on_c, 0, 49, 96
2, 420720, Note_on_c, 0, 53, 96
2, 420947, Note_on_c, 0, 47, 0
2, 420947, Note_on_c, 0, 49, 0
2, 420947, Note_on_c, 0, 53, 0
2, 420960, Note_on_c, 0, 47, 96
2, 420960, Note_on_c, 0, 49, 96
2, 420960, Note_on_c, 0, 53, 96
2, 421187, Note_on_c, 0, 47, 0
2, 421187, Note_on_c, 0, 49, 0
2, 421187, Note_on_c, 0, 53, 0
2, 421200, Note_on_c, 0, 47, 96
2, 421200, Note_on_c, 0, 49, 96
2, 421200, Note_on_c, 0, 53, 96
2, 421427, Note_on_c, 0, 47, 0
2, 421427, Note_on_c, 0, 49, 0
2, 421427, Note_on_c, 0, 53, 0
2, 421440, Note_on_c, 0, 47, 96
2, 421440, Note_on_c, 0, 49, 96
2, 421440, Note_on_c, 0, 53, 96
2, 421667, Note_on_c, 0, 47, 0
2, 421667, Note_on_c, 0, 49, 0
2, 421667, Note_on_c, 0, 53, 0
2, 421680, Note_on_c, 0, 47, 96
2, 421680, Note_on_c, 0, 49, 96
2, 421680, Note_on_c, 0, 53, 96
2, 421907, Note_on_c, 0, 47, 0
2, 421907, Note_on_c, 0, 49, 0
2, 421907, Note_on_c, 0, 53, 0
2, 421920, Note_on_c, 0, 45, 96
2, 421920, Note_on_c, 0, 49, 96
2, 421920, Note_on_c, 0, 54, 96
2, 422375, Note_on_c, 0, 45, 0
2, 422375, Note_on_c, 0, 49, 0
2, 422375, Note_on_c, 0, 54, 0
2, 423120, Note_on_c, 0, 54, 96
2, 423347, Note_on_c, 0, 54, 0
2, 423360, Note_on_c, 0, 59, 96
2, 423599, Note_on_c, 0, 59, 0
2, 423600, Note_on_c, 0, 54, 96
2, 423827, Note_on_c, 0, 54, 0
2, 423840, Note_on_c, 0, 61, 96
2, 423959, Note_on_c, 0, 61, 0
2, 424080, Note_on_c, 0, 58, 96
2, 424199, Note_on_c, 0, 58, 0
2, 424320, Note_on_c, 0, 62, 97
2, 424439, Note_on_c, 0, 62, 0
2, 424560, Note_on_c, 0, 59, 98
2, 424679, Note_on_c, 0, 59, 0
2, 424800, Note_on_c, 0, 49, 99
2, 425039, Note_on_c, 0, 49, 0
2, 425040, Note_on_c, 0, 44, 100
2, 425267, Note_on_c, 0, 44, 0
2, 425280, Note_on_c, 0, 51, 101
2, 425399, Note_on_c, 0, 51, 0
2, 425520, Note_on_c, 0, 48, 102
2, 425639, Note_on_c, 0, 48, 0
2, 425760, Note_on_c, 0, 53, 103
2, 425879, Note_on_c, 0, 53, 0
2, 426000, Note_on_c, 0, 49, 104
2, 426119, Note_on_c, 0, 49, 0
2, 426240, Note_on_c, 0, 42, 105
2, 426240, Note_on_c, 0, 54, 105
2, 426479, Note_on_c, 0, 42, 0
2, 426479, Note_on_c, 0, 54, 0
2, 426480, Note_on_c, 0, 49, 106
2, 426707, Note_on_c, 0, 49, 0
2, 426720, Note_on_c, 0, 44, 107
2, 426720, Note_on_c, 0, 56, 107
2, 426839, Note_on_c, 0, 44, 0
2, 426839, Note_on_c, 0, 56, 0
2, 426960, Note_on_c, 0, 41, 108
2, 426960, Note_on_c, 0, 53, 108
2, 427079, Note_on_c, 0, 41, 0
2, 427079, Note_on_c, 0, 53, 0
2, 427200, Note_on_c, 0, 45, 109
2, 427200, Note_on_c, 0, 57, 109
2, 427319, Note_on_c, 0, 45, 0
2, 427319, Note_on_c, 0, 57, 0
2, 427440, Note_on_c, 0, 42, 110
2, 427440, Note_on_c, 0, 54, 110
2, 427559, Note_on_c, 0, 42, 0
2, 427559, Note_on_c, 0, 54, 0
2, 427680, Note_on_c, 0, 50, 112
2, 427680, Note_on_c, 0, 62, 112
2, 427799, Note_on_c, 0, 50, 0
2, 427799, Note_on_c, 0, 62, 0
2, 427920, Note_on_c, 0, 47, 112
2, 427920, Note_on_c, 0, 59, 112
2, 428039, Note_on_c, 0, 47, 0
2, 428039, Note_on_c, 0, 59, 0
2, 428160, Note_on_c, 0, 44, 112
2, 428160, Note_on_c, 0, 56, 112
2, 428279, Note_on_c, 0, 44, 0
2, 428279, Note_on_c, 0, 56, 0
2, 428400, Note_on_c, 0, 41, 112
2, 428400, Note_on_c, 0, 53, 112
2, 428519, Note_on_c, 0, 41, 0
2, 428519, Note_on_c, 0, 53, 0
2, 428640, Note_on_c, 0, 45, 112
2, 428640, Note_on_c, 0, 57, 112
2, 428759, Note_on_c, 0, 45, 0
2, 428759, Note_on_c, 0, 57, 0
2, 428880, Note_on_c, 0, 42, 112
2, 428880, Note_on_c, 0, 54, 112
2, 428999, Note_on_c, 0, 42, 0
2, 428999, Note_on_c, 0, 54, 0
2, 429120, Note_on_c, 0, 39, 112
2, 429120, Note_on_c, 0, 51, 112
2, 429239, Note_on_c, 0, 39, 0
2, 429239, Note_on_c, 0, 51, 0
2, 429360, Note_on_c, 0, 36, 112
2, 429360, Note_on_c, 0, 48, 112
2, 429479, Note_on_c, 0, 36, 0
2, 429479, Note_on_c, 0, 48, 0
2, 429600, Note_on_c, 0, 33, 112
2, 429600, Note_on_c, 0, 45, 112
2, 429719, Note_on_c, 0, 33, 0
2, 429719, Note_on_c, 0, 45, 0
2, 429840, Note_on_c, 0, 30, 112
2, 429840, Note_on_c, 0, 42, 112
2, 429959, Note_on_c, 0, 30, 0
2, 429959, Note_on_c, 0, 42, 0
2, 430080, Note_on_c, 0, 39, 112
2, 430199, Note_on_c, 0, 39, 0
2, 430320, Note_on_c, 0, 36, 112
2, 430439, Note_on_c, 0, 36, 0
2, 430560, Note_on_c, 0, 37, 112
2, 430560, Note_on_c, 0, 49, 112
2, 430787, Note_on_c, 0, 37, 0
2, 430787, Note_on_c, 0, 49, 0
2, 430920, Note_on_c, 0, 48, 112
2, 431033, Note_on_c, 0, 48, 0
2, 431040, Note_on_c, 0, 49, 113
2, 431267, Note_on_c, 0, 49, 0
2, 431280, Note_on_c, 0, 50, 113
2, 431399, Note_on_c, 0, 50, 0
2, 431520, Note_on_c, 0, 47, 114
2, 431639, Note_on_c, 0, 47, 0
2, 431760, Note_on_c, 0, 49, 114
2, 431879, Note_on_c, 0, 49, 0
2, 432000, Note_on_c, 0, 45, 115
2, 432227, Note_on_c, 0, 45, 0
2, 432360, Note_on_c, 0, 44, 116
2, 432473, Note_on_c, 0, 44, 0
2, 432480, Note_on_c, 0, 45, 116
2, 432707, Note_on_c, 0, 45, 0
2, 432720, Note_on_c, 0, 47, 117
2, 432839, Note_on_c, 0, 47, 0
2, 432960, Note_on_c, 0, 44, 117
2, 433079, Note_on_c, 0, 44, 0
2, 433200, Note_on_c, 0, 45, 118
2, 433319, Note_on_c, 0, 45, 0
2, 433440, Note_on_c, 0, 42, 119
2, 433667, Note_on_c, 0, 42, 0
2, 433800, Note_on_c, 0, 41, 119
2, 433913, Note_on_c, 0, 41, 0
2, 433920, Note_on_c, 0, 42, 119
2, 434147, Note_on_c, 0, 42, 0
2, 434160, Note_on_c, 0, 43, 119
2, 434279, Note_on_c, 0, 43, 0
2, 434400, Note_on_c, 0, 40, 119
2, 434519, Note_on_c, 0, 40, 0
2, 434640, Note_on_c, 0, 42, 119
2, 434759, Note_on_c, 0, 42, 0
2, 434880, Note_on_c, 0, 38, 119
2, 435107, Note_on_c, 0, 38, 0
2, 435240, Note_on_c, 0, 37, 119
2, 435353, Note_on_c, 0, 37, 0
2, 435360, Note_on_c, 0, 38, 119
2, 435587, Note_on_c, 0, 38, 0
2, 435600, Note_on_c, 0, 40, 119
2, 435719, Note_on_c, 0, 40, 0
2, 435840, Note_on_c, 0, 37, 119
2, 435959, Note_on_c, 0, 37, 0
2, 436080, Note_on_c, 0, 38, 119
2, 436199, Note_on_c, 0, 38, 0
2, 436320, Note_on_c, 0, 35, 119
2, 436320, Note_on_c, 0, 47, 119
2, 436547, Note_on_c, 0, 35, 0
2, 436547, Note_on_c, 0, 47, 0
2, 436680, Note_on_c, 0, 46, 119
2, 436793, Note_on_c, 0, 46, 0
2, 436800, Note_on_c, 0, 47, 119
2, 437027, Note_on_c, 0, 47, 0
2, 437040, Note_on_c, 0, 49, 119
2, 437040, Note_on_c, 0, 45, 119
2, 437159, Note_on_c, 0, 49, 0
2, 437280, Note_on_c, 0, 46, 119
2, 437399, Note_on_c, 0, 46, 0
2, 437520, Note_on_c, 0, 47, 119
2, 437639, Note_on_c, 0, 47, 0
2, 437723, Note_on_c, 0, 45, 0
2, 437760, Note_on_c, 0, 49, 119
2, 437760, Note_on_c, 0, 44, 119
2, 437879, Note_on_c, 0, 49, 0
2, 438000, Note_on_c, 0, 46, 119
2, 438119, Note_on_c, 0, 46, 0
2, 438240, Note_on_c, 0, 47, 119
2, 438359, Note_on_c, 0, 47, 0
2, 438443, Note_on_c, 0, 44, 0
2, 438480, Note_on_c, 0, 49, 119
2, 438480, Note_on_c, 0, 42, 119
2, 438599, Note_on_c, 0, 49, 0
2, 438720, Note_on_c, 0, 46, 119
2, 438839, Note_on_c, 0, 46, 0
2, 438960, Note_on_c, 0, 47, 119
2, 439079, Note_on_c, 0, 47, 0
2, 439163, Note_on_c, 0, 42, 0
2, 439200, Note_on_c, 0, 41, 119
2, 439427, Note_on_c, 0, 41, 0
2, 439560, Note_on_c, 0, 39, 119
2, 439673, Note_on_c, 0, 39, 0
2, 439680, Note_on_c, 0, 41, 119
2, 439907, Note_on_c, 0, 41, 0
2, 439920, Note_on_c, 0, 42, 119
2, 440147, Note_on_c, 0, 42, 0
2, 440280, Note_on_c, 0, 41, 119
2, 440393, Note_on_c, 0, 41, 0
2, 440400, Note_on_c, 0, 42, 119
2, 440627, Note_on_c, 0, 42, 0
2, 440640, Note_on_c, 0, 37, 119
2, 440867, Note_on_c, 0, 37, 0
2, 441000, Note_on_c, 0, 36, 119
2, 441113, Note_on_c, 0, 36, 0
2, 441120, Note_on_c, 0, 37, 119
2, 441347, Note_on_c, 0, 37, 0
2, 441360, Note_on_c, 0, 38, 119
2, 441479, Note_on_c, 0, 38, 0
2, 441600, Note_on_c, 0, 35, 119
2, 441719, Note_on_c, 0, 35, 0
2, 441840, Note_on_c, 0, 37, 119
2, 441959, Note_on_c, 0, 37, 0
2, 442080, Note_on_c, 0, 33, 119
2, 442763, Note_on_c, 0, 33, 0
2, 442800, Note_on_c, 0, 41, 119
2, 442800, Note_on_c, 0, 44, 119
2, 442800, Note_on_c, 0, 49, 119
2, 442800, Note_on_c, 0, 53, 119
2, 443483, Note_on_c, 0, 41, 0
2, 443483, Note_on_c, 0, 44, 0
2, 443483, Note_on_c, 0, 49, 0
2, 443483, Note_on_c, 0, 53, 0
2, 443520, Note_on_c, 0, 42, 119
2, 443520, Note_on_c, 0, 45, 119
2, 443520, Note_on_c, 0, 49, 119
2, 443520, Note_on_c, 0, 54, 119
2, 444203, Note_on_c, 0, 42, 0
2, 444203, Note_on_c, 0, 45, 0
2, 444203, Note_on_c, 0, 49, 0
2, 444203, Note_on_c, 0, 54, 0
2, 444240, Note_on_c, 0, 44, 119
2, 444240, Note_on_c, 0, 47, 119
2, 444240, Note_on_c, 0, 53, 119
2, 444240, Note_on_c, 0, 56, 119
2, 444923, Note_on_c, 0, 44, 0
2, 444923, Note_on_c, 0, 47, 0
2, 444923, Note_on_c, 0, 53, 0
2, 444923, Note_on_c, 0, 56, 0
2, 444960, Note_on_c, 0, 45, 119
2, 444960, Note_on_c, 0, 49, 119
2, 444960, Note_on_c, 0, 54, 119
2, 444960, Note_on_c, 0, 57, 119
2, 445643, Note_on_c, 0, 45, 0
2, 445643, Note_on_c, 0, 49, 0
2, 445643, Note_on_c, 0, 54, 0
2, 445643, Note_on_c, 0, 57, 0
2, 445680, Note_on_c, 0, 46, 119
2, 445680, Note_on_c, 0, 49, 119
2, 445680, Note_on_c, 0, 54, 119
2, 445680, Note_on_c, 0, 58, 119
2, 446363, Note_on_c, 0, 46, 0
2, 446363, Note_on_c, 0, 49, 0
2, 446363, Note_on_c, 0, 54, 0
2, 446363, Note_on_c, 0, 58, 0
2, 446400, Note_on_c, 0, 47, 119
2, 446400, Note_on_c, 0, 50, 119
2, 446400, Note_on_c, 0, 54, 119
2, 446400, Note_on_c, 0, 59, 119
2, 447083, Note_on_c, 0, 47, 0
2, 447083, Note_on_c, 0, 50, 0
2, 447083, Note_on_c, 0, 54, 0
2, 447083, Note_on_c, 0, 59, 0
2, 447120, Note_on_c, 0, 49, 119
2, 447120, Note_on_c, 0, 52, 119
2, 447120, Note_on_c, 0, 54, 119
2, 447120, Note_on_c, 0, 61, 119
2, 447803, Note_on_c, 0, 49, 0
2, 447803, Note_on_c, 0, 52, 0
2, 447803, Note_on_c, 0, 54, 0
2, 447803, Note_on_c, 0, 61, 0
2, 447840, Note_on_c, 0, 50, 119
2, 447840, Note_on_c, 0, 54, 119
2, 447840, Note_on_c, 0, 59, 119
2, 447840, Note_on_c, 0, 62, 119
2, 448523, Note_on_c, 0, 50, 0
2, 448523, Note_on_c, 0, 54, 0
2, 448523, Note_on_c, 0, 59, 0
2, 448523, Note_on_c, 0, 62, 0
2, 448560, Note_on_c, 0, 51, 119
2, 448560, Note_on_c, 0, 54, 119
2, 448560, Note_on_c, 0, 59, 119
2, 448560, Note_on_c, 0, 63, 119
2, 449243, Note_on_c, 0, 51, 0
2, 449243, Note_on_c, 0, 54, 0
2, 449243, Note_on_c, 0, 59, 0
2, 449243, Note_on_c, 0, 63, 0
2, 449280, Note_on_c, 0, 53, 119
2, 449280, Note_on_c, 0, 59, 119
2, 449280, Note_on_c, 0, 62, 119
2, 449280, Note_on_c, 0, 65, 119
2, 449963, Note_on_c, 0, 53, 0
2, 449963, Note_on_c, 0, 59, 0
2, 449963, Note_on_c, 0, 62, 0
2, 449963, Note_on_c, 0, 65, 0
2, 450000, Note_on_c, 0, 54, 119
2, 450000, Note_on_c, 0, 59, 119
2, 450000, Note_on_c, 0, 62, 119
2, 450000, Note_on_c, 0, 66, 119
2, 450683, Note_on_c, 0, 54, 0
2, 450683, Note_on_c, 0, 59, 0
2, 450683, Note_on_c, 0, 62, 0
2, 450683, Note_on_c, 0, 66, 0
2, 450720, Note_on_c, 0, 56, 119
2, 450720, Note_on_c, 0, 59, 119
2, 450720, Note_on_c, 0, 62, 119
2, 450720, Note_on_c, 0, 68, 119
2, 451403, Note_on_c, 0, 56, 0
2, 451403, Note_on_c, 0, 59, 0
2, 451403, Note_on_c, 0, 62, 0
2, 451403, Note_on_c, 0, 68, 0
2, 451440, Note_on_c, 0, 57, 119
2, 451440, Note_on_c, 0, 61, 119
2, 451440, Note_on_c, 0, 66, 119
2, 452123, Note_on_c, 0, 57, 0
2, 452123, Note_on_c, 0, 61, 0
2, 452123, Note_on_c, 0, 66, 0
2, 452160, Note_on_c, 0, 49, 119
2, 452160, Note_on_c, 0, 61, 119
2, 452843, Note_on_c, 0, 49, 0
2, 452843, Note_on_c, 0, 61, 0
2, 452880, Note_on_c, 0, 37, 119
2, 452880, Note_on_c, 0, 49, 119
2, 453563, Note_on_c, 0, 37, 0
2, 453563, Note_on_c, 0, 49, 0
2, 453600, Note_on_c, 0, 42, 112
2, 453600, Note_on_c, 0, 54, 112
2, 453827, Note_on_c, 0, 42, 0
2, 453827, Note_on_c, 0, 54, 0
2, 453960, Note_on_c, 0, 41, 112
2, 453960, Note_on_c, 0, 53, 112
2, 454073, Note_on_c, 0, 41, 0
2, 454073, Note_on_c, 0, 53, 0
2, 454080, Note_on_c, 0, 42, 112
2, 454080, Note_on_c, 0, 54, 112
2, 454307, Note_on_c, 0, 42, 0
2, 454307, Note_on_c, 0, 54, 0
2, 455040, Note_on_c, 0, 42, 112
2, 455040, Note_on_c, 0, 54, 112
2, 455267, Note_on_c, 0, 42, 0
2, 455267, Note_on_c, 0, 54, 0
2, 455400, Note_on_c, 0, 41, 112
2, 455400, Note_on_c, 0, 53, 112
2, 455513, Note_on_c, 0, 41, 0
2, 455513, Note_on_c, 0, 53, 0
2, 455520, Note_on_c, 0, 42, 112
2, 455520, Note_on_c, 0, 54, 112
2, 455747, Note_on_c, 0, 42, 0
2, 455747, Note_on_c, 0, 54, 0
2, 456480, Note_on_c, 0, 42, 112
2, 456480, Note_on_c, 0, 54, 112
2, 456707, Note_on_c, 0, 42, 0
2, 456707, Note_on_c, 0, 54, 0
2, 456840, Note_on_c, 0, 41, 112
2, 456840, Note_on_c, 0, 53, 112
2, 456953, Note_on_c, 0, 41, 0
2, 456953, Note_on_c, 0, 53, 0
2, 456960, Note_on_c, 0, 42, 112
2, 456960, Note_on_c, 0, 54, 112
2, 457187, Note_on_c, 0, 42, 0
2, 457187, Note_on_c, 0, 54, 0
2, 457920, Note_on_c, 0, 42, 112
2, 457920, Note_on_c, 0, 54, 112
2, 458147, Note_on_c, 0, 42, 0
2, 458147, Note_on_c, 0, 54, 0
2, 458280, Note_on_c, 0, 41, 112
2, 458280, Note_on_c, 0, 53, 112
2, 458393, Note_on_c, 0, 41, 0
2, 458393, Note_on_c, 0, 53, 0
2, 458400, Note_on_c, 0, 42, 112
2, 458400, Note_on_c, 0, 54, 112
2, 458627, Note_on_c, 0, 42, 0
2, 458627, Note_on_c, 0, 54, 0
2, 459360, Note_on_c, 0, 30, 112
2, 459360, Note_on_c, 0, 42, 112
2, 459587, Note_on_c, 0, 30, 0
2, 459587, Note_on_c, 0, 42, 0
2, 459720, Note_on_c, 0, 29, 112
2, 459720, Note_on_c, 0, 41, 112
2, 459833, Note_on_c, 0, 29, 0
2, 459833, Note_on_c, 0, 41, 0
2, 459840, Note_on_c, 0, 30, 112
2, 459840, Note_on_c, 0, 42, 112
2, 460067, Note_on_c, 0, 30, 0
2, 460067, Note_on_c, 0, 42, 0
2, 460800, Note_on_c, 0, 30, 112
2, 460800, Note_on_c, 0, 42, 112
2, 461027, Note_on_c, 0, 30, 0
2, 461027, Note_on_c, 0, 42, 0
2, 461160, Note_on_c, 0, 29, 112
2, 461160, Note_on_c, 0, 41, 112
2, 461273, Note_on_c, 0, 29, 0
2, 461273, Note_on_c, 0, 41, 0
2, 461280, Note_on_c, 0, 30, 112
2, 461280, Note_on_c, 0, 42, 112
2, 461507, Note_on_c, 0, 30, 0
2, 461507, Note_on_c, 0, 42, 0
2, 462240, Note_on_c, 0, 30, 112
2, 462240, Note_on_c, 0, 42, 112
2, 462467, Note_on_c, 0, 30, 0
2, 462467, Note_on_c, 0, 42, 0
2, 462600, Note_on_c, 0, 29, 112
2, 462600, Note_on_c, 0, 41, 112
2, 462713, Note_on_c, 0, 29, 0
2, 462713, Note_on_c, 0, 41, 0
2, 462720, Note_on_c, 0, 30, 112
2, 462720, Note_on_c, 0, 42, 112
2, 462947, Note_on_c, 0, 30, 0
2, 462947, Note_on_c, 0, 42, 0
2, 463680, Note_on_c, 0, 30, 112
2, 463680, Note_on_c, 0, 42, 112
2, 463907, Note_on_c, 0, 30, 0
2, 463907, Note_on_c, 0, 42, 0
2, 464040, Note_on_c, 0, 29, 112
2, 464040, Note_on_c, 0, 41, 112
2, 464153, Note_on_c, 0, 29, 0
2, 464153, Note_on_c, 0, 41, 0
2, 464160, Note_on_c, 0, 30, 112
2, 464160, Note_on_c, 0, 42, 112
2, 464387, Note_on_c, 0, 30, 0
2, 464387, Note_on_c, 0, 42, 0
2, 465120, Note_on_c, 0, 38, 112
2, 465120, Note_on_c, 0, 50, 112
2, 465122, Control_c, 0, 64, 127
2, 465575, Note_on_c, 0, 38, 0
2, 465575, Note_on_c, 0, 50, 0
2, 465600, Note_on_c, 0, 50, 112
2, 465600, Note_on_c, 0, 54, 112
2, 465600, Note_on_c, 0, 57, 112
2, 465600, Note_on_c, 0, 62, 112
2, 465827, Note_on_c, 0, 50, 0
2, 465827, Note_on_c, 0, 54, 0
2, 465827, Note_on_c, 0, 57, 0
2, 465827, Note_on_c, 0, 62, 0
2, 465840, Note_on_c, 0, 50, 112
2, 465840, Note_on_c, 0, 54, 112
2, 465840, Note_on_c, 0, 57, 112
2, 465840, Note_on_c, 0, 62, 112
2, 466295, Note_on_c, 0, 50, 0
2, 466295, Note_on_c, 0, 54, 0
2, 466295, Note_on_c, 0, 57, 0
2, 466295, Note_on_c, 0, 62, 0
2, 466320, Note_on_c, 0, 50, 112
2, 466320, Note_on_c, 0, 54, 112
2, 466320, Note_on_c, 0, 57, 112
2, 466320, Note_on_c, 0, 62, 112
2, 466547, Note_on_c, 0, 50, 0
2, 466547, Note_on_c, 0, 54, 0
2, 466547, Note_on_c, 0, 57, 0
2, 466547, Note_on_c, 0, 62, 0
2, 466560, Note_on_c, 0, 50, 112
2, 466560, Note_on_c, 0, 54, 112
2, 466560, Note_on_c, 0, 57, 112
2, 466560, Note_on_c, 0, 62, 112
2, 467015, Note_on_c, 0, 50, 0
2, 467015, Note_on_c, 0, 54, 0
2, 467015, Note_on_c, 0, 57, 0
2, 467015, Note_on_c, 0, 62, 0
2, 467040, Note_on_c, 0, 50, 112
2, 467040, Note_on_c, 0, 54, 112
2, 467040, Note_on_c, 0, 57, 112
2, 467040, Note_on_c, 0, 62, 112
2, 467267, Note_on_c, 0, 50, 0
2, 467267, Note_on_c, 0, 54, 0
2, 467267, Note_on_c, 0, 57, 0
2, 467267, Note_on_c, 0, 62, 0
2, 467280, Note_on_c, 0, 50, 112
2, 467280, Note_on_c, 0, 54, 112
2, 467280, Note_on_c, 0, 57, 112
2, 467280, Note_on_c, 0, 62, 112
2, 467735, Note_on_c, 0, 50, 0
2, 467735, Note_on_c, 0, 54, 0
2, 467735, Note_on_c, 0, 57, 0
2, 467735, Note_on_c, 0, 62, 0
2, 467760, Note_on_c, 0, 50, 112
2, 467760, Note_on_c, 0, 54, 112
2, 467760, Note_on_c, 0, 57, 112
2, 467760, Note_on_c, 0, 62, 112
2, 467987, Note_on_c, 0, 50, 0
2, 467987, Note_on_c, 0, 54, 0
2, 467987, Note_on_c, 0, 57, 0
2, 467987, Note_on_c, 0, 62, 0
2, 468000, Note_on_c, 0, 50, 112
2, 468000, Note_on_c, 0, 54, 112
2, 468000, Note_on_c, 0, 57, 112
2, 468000, Note_on_c, 0, 62, 112
2, 468455, Note_on_c, 0, 50, 0
2, 468455, Note_on_c, 0, 54, 0
2, 468455, Note_on_c, 0, 57, 0
2, 468455, Note_on_c, 0, 62, 0
2, 468480, Note_on_c, 0, 50, 112
2, 468480, Note_on_c, 0, 54, 112
2, 468480, Note_on_c, 0, 58, 112
2, 468480, Note_on_c, 0, 62, 112
2, 468707, Note_on_c, 0, 50, 0
2, 468707, Note_on_c, 0, 54, 0
2, 468707, Note_on_c, 0, 58, 0
2, 468707, Note_on_c, 0, 62, 0
2, 468720, Note_on_c, 0, 50, 112
2, 468720, Note_on_c, 0, 54, 112
2, 468720, Note_on_c, 0, 58, 112
2, 468720, Note_on_c, 0, 62, 112
2, 469175, Note_on_c, 0, 50, 0
2, 469175, Note_on_c, 0, 54, 0
2, 469175, Note_on_c, 0, 58, 0
2, 469175, Note_on_c, 0, 62, 0
2, 469200, Note_on_c, 0, 50, 112
2, 469200, Note_on_c, 0, 54, 112
2, 469200, Note_on_c, 0, 59, 112
2, 469200, Note_on_c, 0, 62, 112
2, 469427, Note_on_c, 0, 50, 0
2, 469427, Note_on_c, 0, 54, 0
2, 469427, Note_on_c, 0, 59, 0
2, 469427, Note_on_c, 0, 62, 0
2, 469440, Note_on_c, 0, 50, 112
2, 469440, Note_on_c, 0, 54, 112
2, 469440, Note_on_c, 0, 59, 112
2, 469440, Note_on_c, 0, 62, 112
2, 469895, Note_on_c, 0, 50, 0
2, 469895, Note_on_c, 0, 54, 0
2, 469895, Note_on_c, 0, 59, 0
2, 469895, Note_on_c, 0, 62, 0
2, 469920, Note_on_c, 0, 50, 112
2, 469920, Note_on_c, 0, 54, 112
2, 469920, Note_on_c, 0, 56, 112
2, 469920, Note_on_c, 0, 62, 112
2, 470147, Note_on_c, 0, 50, 0
2, 470147, Note_on_c, 0, 54, 0
2, 470147, Note_on_c, 0, 56, 0
2, 470147, Note_on_c, 0, 62, 0
2, 470160, Note_on_c, 0, 50, 112
2, 470160, Note_on_c, 0, 54, 112
2, 470160, Note_on_c, 0, 56, 112
2, 470160, Note_on_c, 0, 62, 112
2, 470615, Note_on_c, 0, 50, 0
2, 470615, Note_on_c, 0, 54, 0
2, 470615, Note_on_c, 0, 56, 0
2, 470615, Note_on_c, 0, 62, 0
2, 470640, Note_on_c, 0, 49, 112
2, 470640, Note_on_c, 0, 54, 112
2, 470640, Note_on_c, 0, 56, 112
2, 470640, Note_on_c, 0, 61, 112
2, 470867, Note_on_c, 0, 49, 0
2, 470867, Note_on_c, 0, 54, 0
2, 470867, Note_on_c, 0, 56, 0
2, 470867, Note_on_c, 0, 61, 0
2, 470880, Note_on_c, 0, 49, 127
2, 470880, Note_on_c, 0, 54, 127
2, 470880, Note_on_c, 0, 56, 127
2, 470880, Note_on_c, 0, 61, 127
2, 471599, Note_on_c, 0, 49, 0
2, 471599, Note_on_c, 0, 54, 0
2, 471599, Note_on_c, 0, 56, 0
2, 471599, Note_on_c, 0, 61, 0
2, 471600, Note_on_c, 0, 37, 127
2, 471600, Note_on_c, 0, 49, 127
2, 472319, Note_on_c, 0, 37, 0
2, 472319, Note_on_c, 0, 49, 0
2, 472320, Note_on_c, 0, 49, 127
2, 472320, Note_on_c, 0, 61, 127
2, 473039, Note_on_c, 0, 49, 0
2, 473039, Note_on_c, 0, 61, 0
2, 473040, Note_on_c, 0, 37, 127
2, 473040, Note_on_c, 0, 49, 127
2, 473759, Note_on_c, 0, 37, 0
2, 473759, Note_on_c, 0, 49, 0
2, 473760, Note_on_c, 0, 30, 112
2, 473760, Note_on_c, 0, 42, 112
2, 473761, Control_c, 0, 64, 0
2, 474215, Note_on_c, 0, 30, 0
2, 474215, Note_on_c, 0, 42, 0
2, 474240, Note_on_c, 0, 49, 91
2, 474467, Note_on_c, 0, 49, 0
2, 474480, Note_on_c, 0, 49, 81
2, 474935, Note_on_c, 0, 49, 0
2, 474960, Note_on_c, 0, 49, 60
2, 475187, Note_on_c, 0, 49, 0
2, 475200, Note_on_c, 0, 49, 49
2, 475655, Note_on_c, 0, 49, 0
2, 475680, Note_on_c, 0, 49, 49
2, 475907, Note_on_c, 0, 49, 0
2, 475920, Note_on_c, 0, 49, 49
2, 476375, Note_on_c, 0, 49, 0
2, 476400, Note_on_c, 0, 49, 49
2, 476627, Note_on_c, 0, 49, 0
2, 476640, Note_on_c, 0, 49, 49
2, 477095, Note_on_c, 0, 49, 0
2, 477120, Note_on_c, 0, 49, 52
2, 477347, Note_on_c, 0, 49, 0
2, 477360, Note_on_c, 0, 49, 54
2, 477815, Note_on_c, 0, 49, 0
2, 477840, Note_on_c, 0, 49, 57
2, 478067, Note_on_c, 0, 49, 0
2, 478080, Note_on_c, 0, 49, 59
2, 478535, Note_on_c, 0, 49, 0
2, 478560, Note_on_c, 0, 49, 62
2, 478787, Note_on_c, 0, 49, 0
2, 478800, Note_on_c, 0, 49, 64
2, 479255, Note_on_c, 0, 49, 0
2, 479280, Note_on_c, 0, 49, 61
2, 479507, Note_on_c, 0, 49, 0
2, 479520, Note_on_c, 0, 49, 59
2, 479975, Note_on_c, 0, 49, 0
2, 480000, Note_on_c, 0, 49, 56
2, 480227, Note_on_c, 0, 49, 0
2, 480240, Note_on_c, 0, 49, 54
2, 480695, Note_on_c, 0, 49, 0
2, 480720, Note_on_c, 0, 49, 51
2, 480947, Note_on_c, 0, 49, 0
2, 480960, Note_on_c, 0, 34, 49
2, 481052, Note_on_c, 0, 34, 0
2, 481053, Note_on_c, 0, 49, 49
2, 481418, Note_on_c, 0, 49, 0
2, 481440, Note_on_c, 0, 49, 49
2, 481667, Note_on_c, 0, 49, 0
2, 481680, Note_on_c, 0, 49, 49
2, 482135, Note_on_c, 0, 49, 0
2, 482160, Note_on_c, 0, 49, 49
2, 482387, Note_on_c, 0, 49, 0
2, 482400, Note_on_c, 0, 35, 49
2, 482492, Note_on_c, 0, 35, 0
2, 482493, Note_on_c, 0, 50, 49
2, 482858, Note_on_c, 0, 50, 0
2, 482880, Note_on_c, 0, 50, 49
2, 483107, Note_on_c, 0, 50, 0
2, 483120, Note_on_c, 0, 50, 49
2, 483575, Note_on_c, 0, 50, 0
2, 483600, Note_on_c, 0, 50, 49
2, 483827, Note_on_c, 0, 50, 0
2, 483840, Note_on_c, 0, 50, 49
2, 484295, Note_on_c, 0, 50, 0
2, 484320, Note_on_c, 0, 50, 49
2, 484547, Note_on_c, 0, 50, 0
2, 484560, Note_on_c, 0, 50, 49
2, 485015, Note_on_c, 0, 50, 0
2, 485040, Note_on_c, 0, 50, 49
2, 485267, Note_on_c, 0, 50, 0
2, 485280, Note_on_c, 0, 37, 49
2, 485280, Note_on_c, 0, 49, 49
2, 485735, Note_on_c, 0, 37, 0
2, 485735, Note_on_c, 0, 49, 0
2, 485760, Note_on_c, 0, 49, 49
2, 485987, Note_on_c, 0, 49, 0
2, 486000, Note_on_c, 0, 49, 49
2, 486455, Note_on_c, 0, 49, 0
2, 486480, Note_on_c, 0, 49, 49
2, 486707, Note_on_c, 0, 49, 0
2, 486720, Note_on_c, 0, 49, 49
2, 487175, Note_on_c, 0, 49, 0
2, 487200, Note_on_c, 0, 49, 49
2, 487427, Note_on_c, 0, 49, 0
2, 487440, Note_on_c, 0, 49, 49
2, 487895, Note_on_c, 0, 49, 0
2, 487920, Note_on_c, 0, 49, 49
2, 488147, Note_on_c, 0, 49, 0
2, 488160, Note_on_c, 0, 49, 49
2, 488615, Note_on_c, 0, 49, 0
2, 488640, Note_on_c, 0, 49, 49
2, 488867, Note_on_c, 0, 49, 0
2, 488880, Note_on_c, 0, 49, 49
2, 489335, Note_on_c, 0, 49, 0
2, 489360, Note_on_c, 0, 49, 49
2, 489587, Note_on_c, 0, 49, 0
2, 489600, Note_on_c, 0, 49, 49
2, 490055, Note_on_c, 0, 49, 0
2, 490080, Note_on_c, 0, 49, 49
2, 490307, Note_on_c, 0, 49, 0
2, 490320, Note_on_c, 0, 49, 49
2, 490775, Note_on_c, 0, 49, 0
2, 490800, Note_on_c, 0, 49, 49
2, 491027, Note_on_c, 0, 49, 0
2, 491040, Note_on_c, 0, 49, 49
2, 491495, Note_on_c, 0, 49, 0
2, 491520, Note_on_c, 0, 49, 49
2, 491747, Note_on_c, 0, 49, 0
2, 491760, Note_on_c, 0, 49, 49
2, 491760, Note_on_c, 0, 37, 49
2, 492239, Note_on_c, 0, 49, 0
2, 492240, Note_on_c, 0, 49, 49
2, 492479, Note_on_c, 0, 37, 0
2, 492479, Note_on_c, 0, 49, 0
2, 492480, Note_on_c, 0, 49, 49
2, 492480, Note_on_c, 0, 42, 49
2, 492935, Note_on_c, 0, 49, 0
2, 492960, Note_on_c, 0, 49, 49
2, 493187, Note_on_c, 0, 49, 0
2, 493200, Note_on_c, 0, 49, 49
2, 493655, Note_on_c, 0, 49, 0
2, 493680, Note_on_c, 0, 49, 49
2, 493847, Note_on_c, 0, 42, 0
2, 493907, Note_on_c, 0, 49, 0
2, 493920, Note_on_c, 0, 49, 49
2, 494375, Note_on_c, 0, 49, 0
2, 494400, Note_on_c, 0, 49, 49
2, 494627, Note_on_c, 0, 49, 0
2, 494640, Note_on_c, 0, 49, 49
2, 495095, Note_on_c, 0, 49, 0
2, 495120, Note_on_c, 0, 49, 49
2, 495347, Note_on_c, 0, 49, 0
2, 495360, Note_on_c, 0, 49, 49
2, 495815, Note_on_c, 0, 49, 0
2, 495840, Note_on_c, 0, 49, 49
2, 496067, Note_on_c, 0, 49, 0
2, 496080, Note_on_c, 0, 49, 49
2, 496535, Note_on_c, 0, 49, 0
2, 496560, Note_on_c, 0, 49, 49
2, 496787, Note_on_c, 0, 49, 0
2, 496800, Note_on_c, 0, 49, 49
2, 497255, Note_on_c, 0, 49, 0
2, 497280, Note_on_c, 0, 49, 49
2, 497507, Note_on_c, 0, 49, 0
2, 497520, Note_on_c, 0, 49, 49
2, 497520, Note_on_c, 0, 37, 49
2, 497999, Note_on_c, 0, 49, 0
2, 498000, Note_on_c, 0, 49, 49
2, 498239, Note_on_c, 0, 37, 0
2, 498239, Note_on_c, 0, 49, 0
2, 498240, Note_on_c, 0, 49, 49
2, 498240, Note_on_c, 0, 42, 49
2, 498695, Note_on_c, 0, 49, 0
2, 498720, Note_on_c, 0, 49, 49
2, 498947, Note_on_c, 0, 49, 0
2, 498960, Note_on_c, 0, 49, 49
2, 499415, Note_on_c, 0, 49, 0
2, 499440, Note_on_c, 0, 49, 49
2, 499607, Note_on_c, 0, 42, 0
2, 499667, Note_on_c, 0, 49, 0
2, 499680, Note_on_c, 0, 49, 49
2, 500135, Note_on_c, 0, 49, 0
2, 500160, Note_on_c, 0, 49, 49
2, 500387, Note_on_c, 0, 49, 0
2, 500400, Note_on_c, 0, 49, 49
2, 500400, Note_on_c, 0, 37, 49
2, 500879, Note_on_c, 0, 49, 0
2, 500880, Note_on_c, 0, 49, 49
2, 501119, Note_on_c, 0, 37, 0
2, 501119, Note_on_c, 0, 49, 0
2, 501120, Note_on_c, 0, 49, 49
2, 501120, Note_on_c, 0, 42, 49
2, 501575, Note_on_c, 0, 49, 0
2, 501600, Note_on_c, 0, 49, 49
2, 501827, Note_on_c, 0, 49, 0
2, 501840, Note_on_c, 0, 50, 49
2, 502319, Note_on_c, 0, 50, 0
2, 502320, Note_on_c, 0, 49, 47
2, 502487, Note_on_c, 0, 42, 0
2, 502547, Note_on_c, 0, 49, 0
2, 502560, Note_on_c, 0, 49, 46
2, 503015, Note_on_c, 0, 49, 0
2, 503040, Note_on_c, 0, 49, 44
2, 503267, Note_on_c, 0, 49, 0
2, 503280, Note_on_c, 0, 49, 43
2, 503735, Note_on_c, 0, 49, 0
2, 503760, Note_on_c, 0, 49, 41
2, 503987, Note_on_c, 0, 49, 0
2, 504000, Note_on_c, 0, 49, 40
2, 504911, Note_on_c, 0, 49, 0
2, 505440, Note_on_c, 0, 37, 33
2, 506879, Note_on_c, 0, 37, 0
2, 506880, Note_on_c, 0, 30, 33
2, 508247, Note_on_c, 0, 30, 0
2, 508248, End_track
0, 0, End_of_file